<svg width="327" height="117" viewBox="0 0 327 117" fill="none" xmlns="http://www.w3.org/2000/svg">
<path d="M24.5 52C24.5 47.8579 27.8579 44.5 32 44.5H295C299.142 44.5 302.5 47.8579 302.5 52V72C302.5 76.1421 299.142 79.5 295 79.5H32C27.8579 79.5 24.5 76.1421 24.5 72V52Z" fill="white"/>
<path d="M24.5 52C24.5 47.8579 27.8579 44.5 32 44.5H295C299.142 44.5 302.5 47.8579 302.5 52V72C302.5 76.1421 299.142 79.5 295 79.5H32C27.8579 79.5 24.5 76.1421 24.5 72V52Z" stroke="#E7E8EF"/>
<path d="M36.4148 67H33.1186V56.8182H36.5192C37.5168 56.8182 38.3736 57.022 39.0895 57.4297C39.8054 57.834 40.3539 58.4157 40.7351 59.1747C41.1196 59.9304 41.3118 60.8369 41.3118 61.8942C41.3118 62.9548 41.1179 63.8662 40.7301 64.6286C40.3456 65.3909 39.7888 65.9775 39.0597 66.3885C38.3305 66.7962 37.4489 67 36.4148 67ZM34.6548 65.6577H36.3303C37.1058 65.6577 37.7505 65.5118 38.2642 65.2202C38.7779 64.9252 39.1624 64.4993 39.4176 63.9425C39.6728 63.3823 39.8004 62.6996 39.8004 61.8942C39.8004 61.0954 39.6728 60.4176 39.4176 59.8608C39.1657 59.304 38.7895 58.8814 38.2891 58.593C37.7886 58.3047 37.1671 58.1605 36.4247 58.1605H34.6548V65.6577ZM46.5183 67H43.2221V56.8182H46.6227C47.6203 56.8182 48.4771 57.022 49.193 57.4297C49.9089 57.834 50.4574 58.4157 50.8386 59.1747C51.2231 59.9304 51.4153 60.8369 51.4153 61.8942C51.4153 62.9548 51.2214 63.8662 50.8336 64.6286C50.4492 65.3909 49.8923 65.9775 49.1632 66.3885C48.434 66.7962 47.5524 67 46.5183 67ZM44.7583 65.6577H46.4338C47.2093 65.6577 47.854 65.5118 48.3677 65.2202C48.8815 64.9252 49.2659 64.4993 49.5211 63.9425C49.7763 63.3823 49.9039 62.6996 49.9039 61.8942C49.9039 61.0954 49.7763 60.4176 49.5211 59.8608C49.2692 59.304 48.8931 58.8814 48.3926 58.593C47.8921 58.3047 47.2707 58.1605 46.5282 58.1605H44.7583V65.6577ZM56.5236 56.3409L53.2424 68.5312H51.915L55.1962 56.3409H56.5236ZM57.9057 56.8182H59.7701L63.0115 64.733H63.1309L66.3723 56.8182H68.2367V67H66.775V59.6321H66.6806L63.6777 66.9851H62.4647L59.4618 59.6271H59.3674V67H57.9057V56.8182ZM70.4702 56.8182H72.3345L75.576 64.733H75.6953L78.9368 56.8182H80.8011V67H79.3395V59.6321H79.245L76.2422 66.9851H75.0291L72.0263 59.6271H71.9318V67H70.4702V56.8182ZM86.7931 56.3409L83.5119 68.5312H82.1845L85.4657 56.3409H86.7931ZM89.0353 67H87.4047L91.0687 56.8182H92.8436L96.5076 67H94.877L91.9984 58.6676H91.9189L89.0353 67ZM89.3088 63.0128H94.5985V64.3054H89.3088V63.0128ZM98.8381 67H97.2074L100.871 56.8182H102.646L106.31 67H104.68L101.801 58.6676H101.722L98.8381 67ZM99.1115 63.0128H104.401V64.3054H99.1115V63.0128ZM108.641 67H107.01L110.674 56.8182H112.449L116.113 67H114.482L111.604 58.6676H111.524L108.641 67ZM108.914 63.0128H114.204V64.3054H108.914V63.0128ZM118.444 67H116.813L120.477 56.8182H122.252L125.916 67H124.285L121.407 58.6676H121.327L118.444 67ZM118.717 63.0128H124.007V64.3054H118.717V63.0128Z" fill="#6F7595"/>
<path d="M288.958 53.6667V54.9667C291.208 55.1751 292.3 56.5167 292.467 58.5084C292.492 58.7417 292.292 58.9501 292.05 58.9501H277.95C277.717 58.9501 277.517 58.7501 277.533 58.5084C277.7 56.5167 278.792 55.1751 281.042 54.9667V53.6667C281.042 53.3251 281.325 53.0417 281.667 53.0417C282.008 53.0417 282.292 53.3251 282.292 53.6667V54.9167H287.708V53.6667C287.708 53.3251 287.992 53.0417 288.333 53.0417C288.675 53.0417 288.958 53.3251 288.958 53.6667Z" fill="#6F7595"/>
<path fill-rule="evenodd" clip-rule="evenodd" d="M278.333 60.2001H291.667C292.125 60.2001 292.5 60.5751 292.5 61.0334V66.1667C292.5 68.6667 291.25 70.3334 288.333 70.3334H281.667C278.75 70.3334 277.5 68.6667 277.5 66.1667V61.0334C277.5 60.5751 277.875 60.2001 278.333 60.2001ZM282.633 67.2102C282.647 67.1982 282.661 67.1862 282.675 67.1751C282.825 67.0167 282.917 66.8001 282.917 66.5834C282.917 66.3667 282.825 66.1501 282.675 65.9917L282.55 65.8917C282.5 65.8584 282.45 65.8334 282.4 65.8167C282.35 65.7917 282.3 65.7751 282.25 65.7667C282.083 65.7334 281.917 65.7501 281.767 65.8167C281.658 65.8584 281.575 65.9167 281.492 65.9917C281.342 66.1501 281.25 66.3667 281.25 66.5834C281.25 66.8001 281.342 67.0167 281.492 67.1751C281.575 67.2501 281.658 67.3084 281.767 67.3501C281.867 67.3917 281.975 67.4167 282.083 67.4167C282.135 67.4167 282.18 67.4102 282.231 67.4029C282.237 67.4019 282.243 67.401 282.25 67.4001C282.3 67.3917 282.35 67.3751 282.4 67.3501C282.45 67.3334 282.5 67.3084 282.55 67.2751C282.578 67.2584 282.606 67.2343 282.633 67.2102ZM282.083 64.5001C282.3 64.5001 282.517 64.4084 282.675 64.2584C282.825 64.1001 282.917 63.8834 282.917 63.6667C282.917 63.4501 282.825 63.2334 282.675 63.0751C282.6 63.0001 282.508 62.9417 282.4 62.9001C282.092 62.7667 281.725 62.8417 281.492 63.0751C281.342 63.2334 281.25 63.4501 281.25 63.6667C281.25 63.8834 281.342 64.1001 281.492 64.2584C281.65 64.4084 281.867 64.5001 282.083 64.5001ZM285 67.4167C285.217 67.4167 285.433 67.3251 285.592 67.1751C285.742 67.0167 285.833 66.8001 285.833 66.5834C285.833 66.3667 285.742 66.1501 285.592 65.9917C285.283 65.6834 284.717 65.6834 284.408 65.9917C284.258 66.1501 284.167 66.3667 284.167 66.5834C284.167 66.8001 284.258 67.0167 284.408 67.1751C284.567 67.3251 284.783 67.4167 285 67.4167ZM285.467 64.3584L285.592 64.2584C285.742 64.1001 285.833 63.8834 285.833 63.6667C285.833 63.4501 285.742 63.2334 285.592 63.0751C285.358 62.8417 284.992 62.7667 284.683 62.9001C284.575 62.9417 284.483 63.0001 284.408 63.0751C284.258 63.2334 284.167 63.4501 284.167 63.6667C284.167 63.8834 284.258 64.1001 284.408 64.2584C284.567 64.4084 284.783 64.5001 285 64.5001C285.052 64.5001 285.097 64.4935 285.147 64.4862C285.154 64.4853 285.16 64.4843 285.167 64.4834C285.217 64.4751 285.267 64.4584 285.317 64.4334C285.367 64.4167 285.417 64.3917 285.467 64.3584ZM287.917 67.4167C288.133 67.4167 288.35 67.3251 288.508 67.1751C288.658 67.0167 288.75 66.8001 288.75 66.5834C288.75 66.3667 288.658 66.1501 288.508 65.9917C288.2 65.6834 287.633 65.6834 287.325 65.9917C287.175 66.1501 287.083 66.3667 287.083 66.5834C287.083 66.8001 287.175 67.0167 287.325 67.1751C287.483 67.3251 287.7 67.4167 287.917 67.4167ZM288.383 64.3584L288.508 64.2584C288.658 64.1001 288.75 63.8834 288.75 63.6667C288.75 63.4501 288.658 63.2334 288.508 63.0751L288.383 62.9751C288.333 62.9417 288.283 62.9167 288.233 62.9001C288.183 62.8751 288.133 62.8584 288.083 62.8501C287.917 62.8167 287.75 62.8334 287.6 62.9001C287.492 62.9417 287.408 63.0001 287.325 63.0751C287.175 63.2334 287.083 63.4501 287.083 63.6667C287.083 63.8834 287.175 64.1001 287.325 64.2584C287.483 64.4084 287.7 64.5001 287.917 64.5001C287.967 64.5001 288.025 64.4917 288.083 64.4834C288.133 64.4751 288.183 64.4584 288.233 64.4334C288.283 64.4167 288.333 64.3917 288.383 64.3584Z" fill="#6F7595"/>
<path d="M28.5341 31H24.7706V20.8182H28.5291C29.5665 20.8182 30.4598 21.022 31.2088 21.4297C31.9612 21.834 32.5412 22.4174 32.9489 23.1797C33.3565 23.9387 33.5604 24.8468 33.5604 25.9041C33.5604 26.9647 33.3565 27.8762 32.9489 28.6385C32.5445 29.4008 31.9661 29.9858 31.2138 30.3935C30.4614 30.7978 29.5682 31 28.5341 31ZM27.2315 28.902H28.4396C29.0097 28.902 29.492 28.8059 29.8864 28.6136C30.2841 28.4181 30.584 28.1016 30.7862 27.6641C30.9917 27.2232 31.0945 26.6366 31.0945 25.9041C31.0945 25.1716 30.9917 24.5883 30.7862 24.1541C30.5807 23.7166 30.2775 23.4018 29.8764 23.2095C29.4787 23.014 28.9882 22.9162 28.4048 22.9162H27.2315V28.902ZM37.1499 31.1293C36.6626 31.1293 36.2301 31.0481 35.8523 30.8857C35.4777 30.7199 35.1811 30.4714 34.9624 30.1399C34.7469 29.8052 34.6392 29.3859 34.6392 28.8821C34.6392 28.4579 34.7138 28.0999 34.8629 27.8082C35.0121 27.5166 35.2176 27.2796 35.4794 27.0973C35.7412 26.915 36.0429 26.7775 36.3842 26.6847C36.7256 26.5885 37.0902 26.5239 37.478 26.4908C37.9122 26.451 38.2618 26.4096 38.527 26.3665C38.7921 26.3201 38.9844 26.2554 39.1037 26.1726C39.2263 26.0864 39.2876 25.9654 39.2876 25.8097V25.7848C39.2876 25.5296 39.1998 25.3324 39.0241 25.1932C38.8485 25.054 38.6115 24.9844 38.3132 24.9844C37.9917 24.9844 37.7332 25.054 37.5376 25.1932C37.3421 25.3324 37.2178 25.5246 37.1648 25.7699L34.9226 25.6903C34.9889 25.2263 35.1596 24.812 35.4347 24.4474C35.7131 24.0795 36.0942 23.7912 36.5781 23.5824C37.0653 23.3703 37.6503 23.2642 38.3331 23.2642C38.8203 23.2642 39.2694 23.3222 39.6804 23.4382C40.0914 23.5509 40.4493 23.7166 40.7543 23.9354C41.0592 24.1508 41.2945 24.416 41.4602 24.7308C41.6293 25.0457 41.7138 25.4053 41.7138 25.8097V31H39.4268V29.9361H39.3672C39.2313 30.1946 39.0573 30.4134 38.8452 30.5923C38.6364 30.7713 38.3894 30.9055 38.1044 30.995C37.8227 31.0845 37.5045 31.1293 37.1499 31.1293ZM37.9006 29.5384C38.1624 29.5384 38.3977 29.4853 38.6065 29.3793C38.8187 29.2732 38.9877 29.1274 39.1136 28.9418C39.2396 28.7528 39.3026 28.5341 39.3026 28.2855V27.5597C39.233 27.5961 39.1484 27.6293 39.049 27.6591C38.9529 27.6889 38.8468 27.7171 38.7308 27.7436C38.6148 27.7701 38.4955 27.7933 38.3729 27.8132C38.2502 27.8331 38.1326 27.8513 38.0199 27.8679C37.7912 27.9044 37.5956 27.9607 37.4332 28.0369C37.2741 28.1132 37.1515 28.2126 37.0653 28.3352C36.9825 28.4545 36.9411 28.5971 36.9411 28.7628C36.9411 29.0147 37.0305 29.2069 37.2095 29.3395C37.3918 29.4721 37.6222 29.5384 37.9006 29.5384ZM47.5107 23.3636V25.1534H42.6932V23.3636H47.5107ZM43.7024 21.5341H46.1335V28.5987C46.1335 28.7479 46.1567 28.8688 46.2031 28.9616C46.2528 29.0511 46.3241 29.1158 46.4169 29.1555C46.5097 29.192 46.6207 29.2102 46.75 29.2102C46.8428 29.2102 46.9406 29.2019 47.0433 29.1854C47.1494 29.1655 47.2289 29.1489 47.282 29.1357L47.6499 30.8906C47.5339 30.9238 47.3698 30.9652 47.1577 31.0149C46.9489 31.0646 46.6986 31.0961 46.407 31.1094C45.8369 31.1359 45.348 31.0696 44.9403 30.9105C44.536 30.7481 44.2261 30.4962 44.0107 30.1548C43.7985 29.8134 43.6958 29.3842 43.7024 28.8672V21.5341ZM52.2386 31.1442C51.4399 31.1442 50.7505 30.9867 50.1705 30.6719C49.5938 30.3537 49.1496 29.9013 48.8381 29.3146C48.5298 28.7247 48.3757 28.0237 48.3757 27.2116C48.3757 26.4228 48.5315 25.7334 48.843 25.1435C49.1546 24.5502 49.5938 24.0895 50.1605 23.7614C50.7273 23.4299 51.3951 23.2642 52.1641 23.2642C52.7076 23.2642 53.2048 23.3487 53.6555 23.5178C54.1063 23.6868 54.4957 23.937 54.8239 24.2685C55.152 24.5999 55.4072 25.0092 55.5895 25.4964C55.7718 25.9804 55.8629 26.5355 55.8629 27.1619V27.7685H49.2259V26.3565H53.6009C53.5975 26.098 53.5362 25.8677 53.4169 25.6655C53.2976 25.4633 53.1335 25.3059 52.9247 25.1932C52.7192 25.0772 52.4822 25.0192 52.2138 25.0192C51.942 25.0192 51.6984 25.0805 51.483 25.2031C51.2675 25.3224 51.0968 25.4865 50.9709 25.6953C50.8449 25.9008 50.7786 26.1345 50.772 26.3963V27.8331C50.772 28.1446 50.8333 28.4181 50.956 28.6534C51.0786 28.8854 51.2526 29.0661 51.478 29.1953C51.7034 29.3246 51.9718 29.3892 52.2834 29.3892C52.4988 29.3892 52.6944 29.3594 52.87 29.2997C53.0457 29.2401 53.1965 29.1522 53.3224 29.0362C53.4484 28.9202 53.5429 28.7777 53.6058 28.6087L55.8381 28.6733C55.7453 29.1738 55.5414 29.6096 55.2266 29.9808C54.915 30.3487 54.5057 30.6354 53.9986 30.8409C53.4915 31.0431 52.9048 31.1442 52.2386 31.1442Z" fill="#101940"/>
<path d="M122.882 101.228C123.909 101.228 124.809 101.429 125.584 101.83C126.368 102.231 126.97 102.805 127.39 103.552C127.819 104.289 128.034 105.148 128.034 106.128C128.034 107.108 127.819 107.967 127.39 108.704C126.97 109.432 126.368 109.997 125.584 110.398C124.809 110.799 123.909 111 122.882 111H119.466V101.228H122.882ZM122.812 109.334C123.839 109.334 124.632 109.054 125.192 108.494C125.752 107.934 126.032 107.145 126.032 106.128C126.032 105.111 125.752 104.317 125.192 103.748C124.632 103.169 123.839 102.88 122.812 102.88H121.426V109.334H122.812ZM129.277 107.094C129.277 106.31 129.431 105.615 129.739 105.008C130.056 104.401 130.481 103.935 131.013 103.608C131.554 103.281 132.156 103.118 132.819 103.118C133.398 103.118 133.902 103.235 134.331 103.468C134.77 103.701 135.12 103.995 135.381 104.35V103.244H137.355V111H135.381V109.866C135.129 110.23 134.779 110.533 134.331 110.776C133.892 111.009 133.384 111.126 132.805 111.126C132.152 111.126 131.554 110.958 131.013 110.622C130.481 110.286 130.056 109.815 129.739 109.208C129.431 108.592 129.277 107.887 129.277 107.094ZM135.381 107.122C135.381 106.646 135.288 106.24 135.101 105.904C134.914 105.559 134.662 105.297 134.345 105.12C134.028 104.933 133.687 104.84 133.323 104.84C132.959 104.84 132.623 104.929 132.315 105.106C132.007 105.283 131.755 105.545 131.559 105.89C131.372 106.226 131.279 106.627 131.279 107.094C131.279 107.561 131.372 107.971 131.559 108.326C131.755 108.671 132.007 108.937 132.315 109.124C132.632 109.311 132.968 109.404 133.323 109.404C133.687 109.404 134.028 109.315 134.345 109.138C134.662 108.951 134.914 108.69 135.101 108.354C135.288 108.009 135.381 107.598 135.381 107.122ZM141.831 104.854V108.606C141.831 108.867 141.892 109.059 142.013 109.18C142.144 109.292 142.359 109.348 142.657 109.348H143.567V111H142.335C140.683 111 139.857 110.197 139.857 108.592V104.854H138.933V103.244H139.857V101.326H141.831V103.244H143.567V104.854H141.831ZM144.753 107.094C144.753 106.31 144.907 105.615 145.215 105.008C145.533 104.401 145.957 103.935 146.489 103.608C147.031 103.281 147.633 103.118 148.295 103.118C148.874 103.118 149.378 103.235 149.807 103.468C150.246 103.701 150.596 103.995 150.857 104.35V103.244H152.831V111H150.857V109.866C150.605 110.23 150.255 110.533 149.807 110.776C149.369 111.009 148.86 111.126 148.281 111.126C147.628 111.126 147.031 110.958 146.489 110.622C145.957 110.286 145.533 109.815 145.215 109.208C144.907 108.592 144.753 107.887 144.753 107.094ZM150.857 107.122C150.857 106.646 150.764 106.24 150.577 105.904C150.391 105.559 150.139 105.297 149.821 105.12C149.504 104.933 149.163 104.84 148.799 104.84C148.435 104.84 148.099 104.929 147.791 105.106C147.483 105.283 147.231 105.545 147.035 105.89C146.849 106.226 146.755 106.627 146.755 107.094C146.755 107.561 146.849 107.971 147.035 108.326C147.231 108.671 147.483 108.937 147.791 109.124C148.109 109.311 148.445 109.404 148.799 109.404C149.163 109.404 149.504 109.315 149.821 109.138C150.139 108.951 150.391 108.69 150.577 108.354C150.764 108.009 150.857 107.598 150.857 107.122ZM160.989 105.176V106.828H155.053V105.176H160.989ZM165.428 104.364C165.68 104.009 166.025 103.715 166.464 103.482C166.912 103.239 167.42 103.118 167.99 103.118C168.652 103.118 169.25 103.281 169.782 103.608C170.323 103.935 170.748 104.401 171.056 105.008C171.373 105.605 171.532 106.301 171.532 107.094C171.532 107.887 171.373 108.592 171.056 109.208C170.748 109.815 170.323 110.286 169.782 110.622C169.25 110.958 168.652 111.126 167.99 111.126C167.42 111.126 166.916 111.009 166.478 110.776C166.048 110.543 165.698 110.249 165.428 109.894V114.696H163.468V103.244H165.428V104.364ZM169.53 107.094C169.53 106.627 169.432 106.226 169.236 105.89C169.049 105.545 168.797 105.283 168.48 105.106C168.172 104.929 167.836 104.84 167.472 104.84C167.117 104.84 166.781 104.933 166.464 105.12C166.156 105.297 165.904 105.559 165.708 105.904C165.521 106.249 165.428 106.655 165.428 107.122C165.428 107.589 165.521 107.995 165.708 108.34C165.904 108.685 166.156 108.951 166.464 109.138C166.781 109.315 167.117 109.404 167.472 109.404C167.836 109.404 168.172 109.311 168.48 109.124C168.797 108.937 169.049 108.671 169.236 108.326C169.432 107.981 169.53 107.57 169.53 107.094ZM174.23 102.32C173.885 102.32 173.595 102.213 173.362 101.998C173.138 101.774 173.026 101.499 173.026 101.172C173.026 100.845 173.138 100.575 173.362 100.36C173.595 100.136 173.885 100.024 174.23 100.024C174.575 100.024 174.86 100.136 175.084 100.36C175.317 100.575 175.434 100.845 175.434 101.172C175.434 101.499 175.317 101.774 175.084 101.998C174.86 102.213 174.575 102.32 174.23 102.32ZM175.196 103.244V111H173.236V103.244H175.196ZM176.908 107.122C176.908 106.319 177.072 105.619 177.398 105.022C177.725 104.415 178.178 103.949 178.756 103.622C179.335 103.286 179.998 103.118 180.744 103.118C181.706 103.118 182.499 103.361 183.124 103.846C183.759 104.322 184.184 104.994 184.398 105.862H182.284C182.172 105.526 181.981 105.265 181.71 105.078C181.449 104.882 181.122 104.784 180.73 104.784C180.17 104.784 179.727 104.989 179.4 105.4C179.074 105.801 178.91 106.375 178.91 107.122C178.91 107.859 179.074 108.433 179.4 108.844C179.727 109.245 180.17 109.446 180.73 109.446C181.524 109.446 182.042 109.091 182.284 108.382H184.398C184.184 109.222 183.759 109.889 183.124 110.384C182.49 110.879 181.696 111.126 180.744 111.126C179.998 111.126 179.335 110.963 178.756 110.636C178.178 110.3 177.725 109.833 177.398 109.236C177.072 108.629 176.908 107.925 176.908 107.122ZM190.706 111L188.074 107.696V111H186.114V100.64H188.074V106.534L190.678 103.244H193.226L189.81 107.136L193.254 111H190.706ZM201.78 106.954C201.78 107.234 201.761 107.486 201.724 107.71H196.054C196.101 108.27 196.297 108.709 196.642 109.026C196.987 109.343 197.412 109.502 197.916 109.502C198.644 109.502 199.162 109.189 199.47 108.564H201.584C201.36 109.311 200.931 109.927 200.296 110.412C199.661 110.888 198.882 111.126 197.958 111.126C197.211 111.126 196.539 110.963 195.942 110.636C195.354 110.3 194.892 109.829 194.556 109.222C194.229 108.615 194.066 107.915 194.066 107.122C194.066 106.319 194.229 105.615 194.556 105.008C194.883 104.401 195.34 103.935 195.928 103.608C196.516 103.281 197.193 103.118 197.958 103.118C198.695 103.118 199.353 103.277 199.932 103.594C200.52 103.911 200.973 104.364 201.29 104.952C201.617 105.531 201.78 106.198 201.78 106.954ZM199.75 106.394C199.741 105.89 199.559 105.489 199.204 105.19C198.849 104.882 198.415 104.728 197.902 104.728C197.417 104.728 197.006 104.877 196.67 105.176C196.343 105.465 196.143 105.871 196.068 106.394H199.75ZM205.451 104.448C205.703 104.037 206.029 103.715 206.431 103.482C206.841 103.249 207.308 103.132 207.831 103.132V105.19H207.313C206.697 105.19 206.23 105.335 205.913 105.624C205.605 105.913 205.451 106.417 205.451 107.136V111H203.491V103.244H205.451V104.448Z" fill="#FFE838"/>
</svg>
