<svg width="327" height="117" viewBox="0 0 327 117" fill="none" xmlns="http://www.w3.org/2000/svg">
<path d="M24.5 52C24.5 47.8579 27.8579 44.5 32 44.5H295C299.142 44.5 302.5 47.8579 302.5 52V72C302.5 76.1421 299.142 79.5 295 79.5H32C27.8579 79.5 24.5 76.1421 24.5 72V52Z" fill="white"/>
<path d="M24.5 52C24.5 47.8579 27.8579 44.5 32 44.5H295C299.142 44.5 302.5 47.8579 302.5 52V72C302.5 76.1421 299.142 79.5 295 79.5H32C27.8579 79.5 24.5 76.1421 24.5 72V52Z" stroke="#E7E8EF"/>
<path d="M32.6165 58.1406V56.8182H40.4964V58.1406H37.3196V67H35.7884V58.1406H32.6165ZM42.1831 69.8636C41.961 69.8636 41.7588 69.8454 41.5765 69.8089C41.3942 69.7758 41.2583 69.7393 41.1689 69.6996L41.5268 68.4815C41.7986 68.5545 42.0405 68.5859 42.2527 68.576C42.4648 68.5661 42.652 68.4865 42.8145 68.3374C42.9802 68.1882 43.126 67.9446 43.252 67.6065L43.4359 67.0994L40.6419 59.3636H42.2328L44.1667 65.2898H44.2463L46.1802 59.3636H47.7761L44.6291 68.0192C44.4833 68.4169 44.2976 68.7533 44.0723 69.0284C43.8469 69.3068 43.5784 69.5156 43.2669 69.6548C42.9553 69.794 42.594 69.8636 42.1831 69.8636ZM49.1731 69.8636V59.3636H50.6248V60.6016H50.7491C50.8353 60.4425 50.9596 60.2585 51.122 60.0497C51.2844 59.8409 51.5098 59.6586 51.7981 59.5028C52.0865 59.3438 52.4676 59.2642 52.9416 59.2642C53.5581 59.2642 54.1083 59.42 54.5922 59.7315C55.0761 60.0431 55.4556 60.4922 55.7306 61.0788C56.0091 61.6655 56.1483 62.3714 56.1483 63.1967C56.1483 64.022 56.0107 64.7296 55.7356 65.3196C55.4605 65.9062 55.0827 66.3587 54.6021 66.6768C54.1215 66.9917 53.573 67.1491 52.9565 67.1491C52.4925 67.1491 52.113 67.0713 51.818 66.9155C51.5263 66.7597 51.2976 66.5774 51.1319 66.3686C50.9662 66.1598 50.8386 65.9742 50.7491 65.8118H50.6596V69.8636H49.1731ZM50.6298 63.1818C50.6298 63.7187 50.7077 64.1894 50.8635 64.5938C51.0192 64.9981 51.2446 65.3146 51.5396 65.5433C51.8346 65.7687 52.1958 65.8814 52.6234 65.8814C53.0675 65.8814 53.4387 65.7637 53.737 65.5284C54.0353 65.2898 54.2607 64.9666 54.4132 64.5589C54.569 64.1513 54.6468 63.6922 54.6468 63.1818C54.6468 62.678 54.5706 62.2256 54.4181 61.8246C54.269 61.4235 54.0436 61.107 53.742 60.875C53.4437 60.643 53.0708 60.527 52.6234 60.527C52.1925 60.527 51.8279 60.638 51.5297 60.8601C51.2347 61.0821 51.0109 61.392 50.8585 61.7898C50.706 62.1875 50.6298 62.6515 50.6298 63.1818ZM61.1049 67.1541C60.3526 67.1541 59.7046 66.9934 59.161 66.6719C58.6208 66.3471 58.2032 65.8913 57.9082 65.3047C57.6165 64.7147 57.4707 64.0237 57.4707 63.2315C57.4707 62.4493 57.6165 61.7599 57.9082 61.1634C58.2032 60.5668 58.6142 60.1011 59.1412 59.7663C59.6715 59.4316 60.2913 59.2642 61.0005 59.2642C61.4314 59.2642 61.849 59.3355 62.2534 59.478C62.6577 59.6205 63.0207 59.8442 63.3422 60.1491C63.6636 60.4541 63.9172 60.8501 64.1028 61.3374C64.2884 61.8213 64.3812 62.4096 64.3812 63.1023V63.6293H58.3109V62.5156H62.9245C62.9245 62.1245 62.845 61.7782 62.6859 61.4766C62.5268 61.1716 62.3031 60.9313 62.0147 60.7557C61.7297 60.58 61.3949 60.4922 61.0105 60.4922C60.5929 60.4922 60.2283 60.5949 59.9167 60.8004C59.6085 61.0026 59.3699 61.2678 59.2008 61.5959C59.0351 61.9207 58.9522 62.2737 58.9522 62.6548V63.5249C58.9522 64.0353 59.0417 64.4695 59.2207 64.8274C59.403 65.1854 59.6565 65.4588 59.9814 65.6477C60.3062 65.8333 60.6857 65.9261 61.1199 65.9261C61.4016 65.9261 61.6584 65.8864 61.8904 65.8068C62.1225 65.724 62.323 65.6013 62.492 65.4389C62.661 65.2765 62.7903 65.076 62.8798 64.8374L64.2868 65.0909C64.1741 65.5052 63.9719 65.8681 63.6802 66.1797C63.3919 66.4879 63.0289 66.7282 62.5914 66.9006C62.1573 67.0696 61.6618 67.1541 61.1049 67.1541ZM73.3002 59.3636V60.5568H69.1291V59.3636H73.3002ZM70.2477 57.5341H71.7342V64.7578C71.7342 65.0462 71.7773 65.2633 71.8635 65.4091C71.9496 65.5516 72.0607 65.6494 72.1966 65.7024C72.3358 65.7521 72.4866 65.777 72.649 65.777C72.7683 65.777 72.8727 65.7687 72.9622 65.7521C73.0517 65.7356 73.1213 65.7223 73.171 65.7124L73.4395 66.9403C73.3533 66.9735 73.2306 67.0066 73.0716 67.0398C72.9125 67.0762 72.7136 67.0961 72.475 67.0994C72.0839 67.1061 71.7193 67.0365 71.3812 66.8906C71.0431 66.7448 70.7697 66.5194 70.5609 66.2145C70.3521 65.9096 70.2477 65.5268 70.2477 65.0661V57.5341ZM78.1538 67.1541C77.4014 67.1541 76.7534 66.9934 76.2099 66.6719C75.6696 66.3471 75.252 65.8913 74.957 65.3047C74.6654 64.7147 74.5195 64.0237 74.5195 63.2315C74.5195 62.4493 74.6654 61.7599 74.957 61.1634C75.252 60.5668 75.663 60.1011 76.19 59.7663C76.7203 59.4316 77.3401 59.2642 78.0494 59.2642C78.4802 59.2642 78.8978 59.3355 79.3022 59.478C79.7066 59.6205 80.0695 59.8442 80.391 60.1491C80.7125 60.4541 80.966 60.8501 81.1516 61.3374C81.3372 61.8213 81.43 62.4096 81.43 63.1023V63.6293H75.3597V62.5156H79.9734C79.9734 62.1245 79.8938 61.7782 79.7347 61.4766C79.5756 61.1716 79.3519 60.9313 79.0636 60.7557C78.7785 60.58 78.4438 60.4922 78.0593 60.4922C77.6417 60.4922 77.2771 60.5949 76.9656 60.8004C76.6573 61.0026 76.4187 61.2678 76.2496 61.5959C76.0839 61.9207 76.0011 62.2737 76.0011 62.6548V63.5249C76.0011 64.0353 76.0906 64.4695 76.2695 64.8274C76.4518 65.1854 76.7054 65.4588 77.0302 65.6477C77.355 65.8333 77.7345 65.9261 78.1687 65.9261C78.4504 65.9261 78.7073 65.8864 78.9393 65.8068C79.1713 65.724 79.3718 65.6013 79.5408 65.4389C79.7099 65.2765 79.8391 65.076 79.9286 64.8374L81.3356 65.0909C81.2229 65.5052 81.0207 65.8681 80.729 66.1797C80.4407 66.4879 80.0778 66.7282 79.6403 66.9006C79.2061 67.0696 78.7106 67.1541 78.1538 67.1541ZM84.0749 59.3636L85.7603 62.3366L87.4606 59.3636H89.0863L86.7049 63.1818L89.1062 67H87.4805L85.7603 64.1463L84.0451 67H82.4144L84.7908 63.1818L82.4442 59.3636H84.0749ZM94.1772 59.3636V60.5568H90.006V59.3636H94.1772ZM91.1246 57.5341H92.6112V64.7578C92.6112 65.0462 92.6542 65.2633 92.7404 65.4091C92.8266 65.5516 92.9376 65.6494 93.0735 65.7024C93.2127 65.7521 93.3635 65.777 93.5259 65.777C93.6452 65.777 93.7496 65.7687 93.8391 65.7521C93.9286 65.7356 93.9982 65.7223 94.0479 65.7124L94.3164 66.9403C94.2302 66.9735 94.1076 67.0066 93.9485 67.0398C93.7894 67.0762 93.5906 67.0961 93.3519 67.0994C92.9608 67.1061 92.5962 67.0365 92.2582 66.8906C91.9201 66.7448 91.6467 66.5194 91.4379 66.2145C91.229 65.9096 91.1246 65.5268 91.1246 65.0661V57.5341ZM101.013 62.4659V67H99.5266V56.8182H100.993V60.6065H101.088C101.267 60.1955 101.54 59.8691 101.908 59.6271C102.276 59.3852 102.757 59.2642 103.35 59.2642C103.873 59.2642 104.331 59.3719 104.722 59.5874C105.116 59.8028 105.421 60.1243 105.637 60.5518C105.855 60.9761 105.965 61.5064 105.965 62.1428V67H104.478V62.3217C104.478 61.7616 104.334 61.3274 104.046 61.0192C103.757 60.7076 103.356 60.5518 102.843 60.5518C102.491 60.5518 102.176 60.6264 101.898 60.7756C101.623 60.9247 101.406 61.1435 101.247 61.4318C101.091 61.7169 101.013 62.0616 101.013 62.4659ZM111.24 67.1541C110.487 67.1541 109.839 66.9934 109.296 66.6719C108.756 66.3471 108.338 65.8913 108.043 65.3047C107.751 64.7147 107.605 64.0237 107.605 63.2315C107.605 62.4493 107.751 61.7599 108.043 61.1634C108.338 60.5668 108.749 60.1011 109.276 59.7663C109.806 59.4316 110.426 59.2642 111.135 59.2642C111.566 59.2642 111.984 59.3355 112.388 59.478C112.792 59.6205 113.155 59.8442 113.477 60.1491C113.798 60.4541 114.052 60.8501 114.238 61.3374C114.423 61.8213 114.516 62.4096 114.516 63.1023V63.6293H108.446V62.5156H113.059C113.059 62.1245 112.98 61.7782 112.821 61.4766C112.662 61.1716 112.438 60.9313 112.15 60.7557C111.864 60.58 111.53 60.4922 111.145 60.4922C110.728 60.4922 110.363 60.5949 110.051 60.8004C109.743 61.0026 109.505 61.2678 109.336 61.5959C109.17 61.9207 109.087 62.2737 109.087 62.6548V63.5249C109.087 64.0353 109.176 64.4695 109.355 64.8274C109.538 65.1854 109.791 65.4588 110.116 65.6477C110.441 65.8333 110.82 65.9261 111.255 65.9261C111.536 65.9261 111.793 65.8864 112.025 65.8068C112.257 65.724 112.458 65.6013 112.627 65.4389C112.796 65.2765 112.925 65.076 113.015 64.8374L114.422 65.0909C114.309 65.5052 114.107 65.8681 113.815 66.1797C113.527 66.4879 113.164 66.7282 112.726 66.9006C112.292 67.0696 111.797 67.1541 111.24 67.1541ZM116.165 67V59.3636H117.602V60.5767H117.682C117.821 60.1657 118.066 59.8426 118.417 59.6072C118.772 59.3686 119.173 59.2493 119.621 59.2493C119.713 59.2493 119.823 59.2526 119.949 59.2592C120.078 59.2659 120.179 59.2741 120.252 59.2841V60.706C120.192 60.6894 120.086 60.6712 119.934 60.6513C119.781 60.6281 119.629 60.6165 119.476 60.6165C119.125 60.6165 118.812 60.6911 118.537 60.8402C118.265 60.986 118.05 61.1899 117.89 61.4517C117.731 61.7102 117.652 62.0052 117.652 62.3366V67H116.165ZM124.556 67.1541C123.804 67.1541 123.156 66.9934 122.612 66.6719C122.072 66.3471 121.654 65.8913 121.359 65.3047C121.068 64.7147 120.922 64.0237 120.922 63.2315C120.922 62.4493 121.068 61.7599 121.359 61.1634C121.654 60.5668 122.065 60.1011 122.592 59.7663C123.123 59.4316 123.742 59.2642 124.452 59.2642C124.883 59.2642 125.3 59.3355 125.705 59.478C126.109 59.6205 126.472 59.8442 126.793 60.1491C127.115 60.4541 127.368 60.8501 127.554 61.3374C127.74 61.8213 127.832 62.4096 127.832 63.1023V63.6293H121.762V62.5156H126.376C126.376 62.1245 126.296 61.7782 126.137 61.4766C125.978 61.1716 125.754 60.9313 125.466 60.7557C125.181 60.58 124.846 60.4922 124.462 60.4922C124.044 60.4922 123.679 60.5949 123.368 60.8004C123.06 61.0026 122.821 61.2678 122.652 61.5959C122.486 61.9207 122.403 62.2737 122.403 62.6548V63.5249C122.403 64.0353 122.493 64.4695 122.672 64.8274C122.854 65.1854 123.108 65.4588 123.433 65.6477C123.757 65.8333 124.137 65.9261 124.571 65.9261C124.853 65.9261 125.11 65.8864 125.342 65.8068C125.574 65.724 125.774 65.6013 125.943 65.4389C126.112 65.2765 126.241 65.076 126.331 64.8374L127.738 65.0909C127.625 65.5052 127.423 65.8681 127.131 66.1797C126.843 66.4879 126.48 66.7282 126.043 66.9006C125.608 67.0696 125.113 67.1541 124.556 67.1541ZM130.461 67.0945C130.189 67.0945 129.956 66.9983 129.76 66.8061C129.565 66.6106 129.467 66.3752 129.467 66.1001C129.467 65.8284 129.565 65.5964 129.76 65.4041C129.956 65.2086 130.189 65.1108 130.461 65.1108C130.733 65.1108 130.967 65.2086 131.162 65.4041C131.358 65.5964 131.455 65.8284 131.455 66.1001C131.455 66.2824 131.409 66.4498 131.316 66.6023C131.227 66.7514 131.107 66.8707 130.958 66.9602C130.809 67.0497 130.643 67.0945 130.461 67.0945ZM134.426 67.0945C134.154 67.0945 133.921 66.9983 133.725 66.8061C133.529 66.6106 133.432 66.3752 133.432 66.1001C133.432 65.8284 133.529 65.5964 133.725 65.4041C133.921 65.2086 134.154 65.1108 134.426 65.1108C134.698 65.1108 134.931 65.2086 135.127 65.4041C135.323 65.5964 135.42 65.8284 135.42 66.1001C135.42 66.2824 135.374 66.4498 135.281 66.6023C135.192 66.7514 135.072 66.8707 134.923 66.9602C134.774 67.0497 134.608 67.0945 134.426 67.0945ZM138.391 67.0945C138.119 67.0945 137.885 66.9983 137.69 66.8061C137.494 66.6106 137.396 66.3752 137.396 66.1001C137.396 65.8284 137.494 65.5964 137.69 65.4041C137.885 65.2086 138.119 65.1108 138.391 65.1108C138.663 65.1108 138.896 65.2086 139.092 65.4041C139.287 65.5964 139.385 65.8284 139.385 66.1001C139.385 66.2824 139.339 66.4498 139.246 66.6023C139.156 66.7514 139.037 66.8707 138.888 66.9602C138.739 67.0497 138.573 67.0945 138.391 67.0945Z" fill="#6F7595"/>
<path d="M24.7706 31V20.8182H27.2315V29.0014H31.4673V31H24.7706ZM34.894 31.1293C34.4068 31.1293 33.9743 31.0481 33.5964 30.8857C33.2219 30.7199 32.9252 30.4714 32.7065 30.1399C32.4911 29.8052 32.3833 29.3859 32.3833 28.8821C32.3833 28.4579 32.4579 28.0999 32.6071 27.8082C32.7562 27.5166 32.9617 27.2796 33.2235 27.0973C33.4854 26.915 33.787 26.7775 34.1284 26.6847C34.4698 26.5885 34.8343 26.5239 35.2221 26.4908C35.6563 26.451 36.006 26.4096 36.2711 26.3665C36.5363 26.3201 36.7285 26.2554 36.8478 26.1726C36.9705 26.0864 37.0318 25.9654 37.0318 25.8097V25.7848C37.0318 25.5296 36.944 25.3324 36.7683 25.1932C36.5926 25.054 36.3556 24.9844 36.0574 24.9844C35.7359 24.9844 35.4773 25.054 35.2818 25.1932C35.0862 25.3324 34.9619 25.5246 34.9089 25.7699L32.6667 25.6903C32.733 25.2263 32.9037 24.812 33.1788 24.4474C33.4572 24.0795 33.8384 23.7912 34.3223 23.5824C34.8095 23.3703 35.3945 23.2642 36.0772 23.2642C36.5645 23.2642 37.0136 23.3222 37.4245 23.4382C37.8355 23.5509 38.1935 23.7166 38.4984 23.9354C38.8033 24.1508 39.0386 24.416 39.2044 24.7308C39.3734 25.0457 39.4579 25.4053 39.4579 25.8097V31H37.171V29.9361H37.1113C36.9754 30.1946 36.8014 30.4134 36.5893 30.5923C36.3805 30.7713 36.1336 30.9055 35.8485 30.995C35.5668 31.0845 35.2486 31.1293 34.894 31.1293ZM35.6447 29.5384C35.9065 29.5384 36.1419 29.4853 36.3507 29.3793C36.5628 29.2732 36.7318 29.1274 36.8578 28.9418C36.9837 28.7528 37.0467 28.5341 37.0467 28.2855V27.5597C36.9771 27.5961 36.8926 27.6293 36.7931 27.6591C36.697 27.6889 36.591 27.7171 36.475 27.7436C36.359 27.7701 36.2396 27.7933 36.117 27.8132C35.9944 27.8331 35.8767 27.8513 35.764 27.8679C35.5353 27.9044 35.3398 27.9607 35.1774 28.0369C35.0183 28.1132 34.8957 28.2126 34.8095 28.3352C34.7266 28.4545 34.6852 28.5971 34.6852 28.7628C34.6852 29.0147 34.7747 29.2069 34.9537 29.3395C35.1359 29.4721 35.3663 29.5384 35.6447 29.5384ZM40.9444 31V20.8182H43.3755V24.6712H43.4252C43.5247 24.4392 43.6655 24.2154 43.8478 24C44.0334 23.7846 44.2688 23.6089 44.5538 23.473C44.8422 23.3338 45.1868 23.2642 45.5879 23.2642C46.1182 23.2642 46.6137 23.4034 47.0744 23.6818C47.5384 23.9602 47.9129 24.3894 48.198 24.9695C48.483 25.5495 48.6255 26.2886 48.6255 27.1868C48.6255 28.0518 48.488 28.776 48.2129 29.3594C47.9411 29.9427 47.5732 30.3802 47.1092 30.6719C46.6485 30.9635 46.1364 31.1094 45.573 31.1094C45.1885 31.1094 44.8554 31.0464 44.5737 30.9205C44.292 30.7945 44.055 30.6288 43.8627 30.4233C43.6738 30.2178 43.528 29.9974 43.4252 29.7621H43.3507V31H40.9444ZM43.3258 27.1818C43.3258 27.5928 43.3805 27.9508 43.4899 28.2557C43.6026 28.5606 43.7633 28.7976 43.9721 28.9666C44.1842 29.1323 44.4378 29.2152 44.7328 29.2152C45.0311 29.2152 45.2846 29.1323 45.4934 28.9666C45.7022 28.7976 45.8597 28.5606 45.9657 28.2557C46.0751 27.9508 46.1298 27.5928 46.1298 27.1818C46.1298 26.7708 46.0751 26.4145 45.9657 26.1129C45.8597 25.8113 45.7022 25.5777 45.4934 25.4119C45.2879 25.2462 45.0344 25.1634 44.7328 25.1634C44.4345 25.1634 44.1809 25.2446 43.9721 25.407C43.7633 25.5694 43.6026 25.8014 43.4899 26.103C43.3805 26.4046 43.3258 26.7642 43.3258 27.1818ZM53.4691 31.1442C52.6703 31.1442 51.9809 30.9867 51.4009 30.6719C50.8242 30.3537 50.3801 29.9013 50.0685 29.3146C49.7603 28.7247 49.6062 28.0237 49.6062 27.2116C49.6062 26.4228 49.762 25.7334 50.0735 25.1435C50.3851 24.5502 50.8242 24.0895 51.391 23.7614C51.9577 23.4299 52.6256 23.2642 53.3945 23.2642C53.9381 23.2642 54.4353 23.3487 54.886 23.5178C55.3368 23.6868 55.7262 23.937 56.0543 24.2685C56.3825 24.5999 56.6377 25.0092 56.82 25.4964C57.0022 25.9804 57.0934 26.5355 57.0934 27.1619V27.7685H50.4563V26.3565H54.8313C54.828 26.098 54.7667 25.8677 54.6474 25.6655C54.5281 25.4633 54.364 25.3059 54.1552 25.1932C53.9497 25.0772 53.7127 25.0192 53.4442 25.0192C53.1725 25.0192 52.9289 25.0805 52.7134 25.2031C52.498 25.3224 52.3273 25.4865 52.2013 25.6953C52.0754 25.9008 52.0091 26.1345 52.0025 26.3963V27.8331C52.0025 28.1446 52.0638 28.4181 52.1864 28.6534C52.3091 28.8854 52.4831 29.0661 52.7085 29.1953C52.9338 29.3246 53.2023 29.3892 53.5138 29.3892C53.7293 29.3892 53.9248 29.3594 54.1005 29.2997C54.2762 29.2401 54.427 29.1522 54.5529 29.0362C54.6789 28.9202 54.7733 28.7777 54.8363 28.6087L57.0685 28.6733C56.9757 29.1738 56.7719 29.6096 56.457 29.9808C56.1455 30.3487 55.7362 30.6354 55.229 30.8409C54.7219 31.0431 54.1353 31.1442 53.4691 31.1442ZM60.7662 20.8182V31H58.335V20.8182H60.7662Z" fill="#101940"/>
<path d="M146.926 101.228V111H144.966V101.228H146.926ZM153.44 103.132C154.364 103.132 155.111 103.426 155.68 104.014C156.25 104.593 156.534 105.405 156.534 106.45V111H154.574V106.716C154.574 106.1 154.42 105.629 154.112 105.302C153.804 104.966 153.384 104.798 152.852 104.798C152.311 104.798 151.882 104.966 151.564 105.302C151.256 105.629 151.102 106.1 151.102 106.716V111H149.142V103.244H151.102V104.21C151.364 103.874 151.695 103.613 152.096 103.426C152.507 103.23 152.955 103.132 153.44 103.132ZM160.638 104.364C160.89 104.009 161.236 103.715 161.674 103.482C162.122 103.239 162.631 103.118 163.2 103.118C163.863 103.118 164.46 103.281 164.992 103.608C165.534 103.935 165.958 104.401 166.266 105.008C166.584 105.605 166.742 106.301 166.742 107.094C166.742 107.887 166.584 108.592 166.266 109.208C165.958 109.815 165.534 110.286 164.992 110.622C164.46 110.958 163.863 111.126 163.2 111.126C162.631 111.126 162.127 111.009 161.688 110.776C161.259 110.543 160.909 110.249 160.638 109.894V114.696H158.678V103.244H160.638V104.364ZM164.74 107.094C164.74 106.627 164.642 106.226 164.446 105.89C164.26 105.545 164.008 105.283 163.69 105.106C163.382 104.929 163.046 104.84 162.682 104.84C162.328 104.84 161.992 104.933 161.674 105.12C161.366 105.297 161.114 105.559 160.918 105.904C160.732 106.249 160.638 106.655 160.638 107.122C160.638 107.589 160.732 107.995 160.918 108.34C161.114 108.685 161.366 108.951 161.674 109.138C161.992 109.315 162.328 109.404 162.682 109.404C163.046 109.404 163.382 109.311 163.69 109.124C164.008 108.937 164.26 108.671 164.446 108.326C164.642 107.981 164.74 107.57 164.74 107.094ZM175.769 103.244V111H173.795V110.02C173.543 110.356 173.211 110.622 172.801 110.818C172.399 111.005 171.961 111.098 171.485 111.098C170.878 111.098 170.341 110.972 169.875 110.72C169.408 110.459 169.039 110.081 168.769 109.586C168.507 109.082 168.377 108.485 168.377 107.794V103.244H170.337V107.514C170.337 108.13 170.491 108.606 170.799 108.942C171.107 109.269 171.527 109.432 172.059 109.432C172.6 109.432 173.025 109.269 173.333 108.942C173.641 108.606 173.795 108.13 173.795 107.514V103.244H175.769ZM180.264 104.854V108.606C180.264 108.867 180.325 109.059 180.446 109.18C180.577 109.292 180.792 109.348 181.09 109.348H182V111H180.768C179.116 111 178.29 110.197 178.29 108.592V104.854H177.366V103.244H178.29V101.326H180.264V103.244H182V104.854H180.264Z" fill="#FFE838"/>
</svg>
