<svg width="607" height="133" viewBox="0 0 607 133" fill="none" xmlns="http://www.w3.org/2000/svg">
<path d="M4.10594 61.1C4.10594 60.1387 4.3206 59.28 4.74994 58.524C5.1886 57.7587 5.78127 57.166 6.52794 56.746C7.28394 56.3167 8.1286 56.102 9.06194 56.102C10.1539 56.102 11.1106 56.382 11.9319 56.942C12.7533 57.502 13.3273 58.2767 13.6539 59.266H11.3999C11.1759 58.7993 10.8586 58.4493 10.4479 58.216C10.0466 57.9827 9.57994 57.866 9.04794 57.866C8.4786 57.866 7.96994 58.0013 7.52194 58.272C7.08327 58.5333 6.73794 58.9067 6.48594 59.392C6.24327 59.8773 6.12194 60.4467 6.12194 61.1C6.12194 61.744 6.24327 62.3133 6.48594 62.808C6.73794 63.2933 7.08327 63.6713 7.52194 63.942C7.96994 64.2033 8.4786 64.334 9.04794 64.334C9.57994 64.334 10.0466 64.2173 10.4479 63.984C10.8586 63.7413 11.1759 63.3867 11.3999 62.92H13.6539C13.3273 63.9187 12.7533 64.698 11.9319 65.258C11.1199 65.8087 10.1633 66.084 9.06194 66.084C8.1286 66.084 7.28394 65.874 6.52794 65.454C5.78127 65.0247 5.1886 64.432 4.74994 63.676C4.3206 62.92 4.10594 62.0613 4.10594 61.1ZM19.052 66.126C18.3054 66.126 17.6334 65.9627 17.036 65.636C16.4387 65.3 15.9674 64.8287 15.622 64.222C15.286 63.6153 15.118 62.9153 15.118 62.122C15.118 61.3287 15.2907 60.6287 15.636 60.022C15.9907 59.4153 16.4714 58.9487 17.078 58.622C17.6847 58.286 18.3614 58.118 19.108 58.118C19.8547 58.118 20.5314 58.286 21.138 58.622C21.7447 58.9487 22.2207 59.4153 22.566 60.022C22.9207 60.6287 23.098 61.3287 23.098 62.122C23.098 62.9153 22.916 63.6153 22.552 64.222C22.1974 64.8287 21.712 65.3 21.096 65.636C20.4894 65.9627 19.808 66.126 19.052 66.126ZM19.052 64.418C19.4067 64.418 19.738 64.334 20.046 64.166C20.3634 63.9887 20.6154 63.7273 20.802 63.382C20.9887 63.0367 21.082 62.6167 21.082 62.122C21.082 61.3847 20.886 60.82 20.494 60.428C20.1114 60.0267 19.64 59.826 19.08 59.826C18.52 59.826 18.0487 60.0267 17.666 60.428C17.2927 60.82 17.106 61.3847 17.106 62.122C17.106 62.8593 17.288 63.4287 17.652 63.83C18.0254 64.222 18.492 64.418 19.052 64.418ZM29.1138 58.132C30.0378 58.132 30.7844 58.426 31.3538 59.014C31.9231 59.5927 32.2078 60.4047 32.2078 61.45V66H30.2478V61.716C30.2478 61.1 30.0938 60.6287 29.7858 60.302C29.4778 59.966 29.0578 59.798 28.5258 59.798C27.9844 59.798 27.5551 59.966 27.2378 60.302C26.9298 60.6287 26.7758 61.1 26.7758 61.716V66H24.8158V58.244H26.7758V59.21C27.0371 58.874 27.3684 58.6127 27.7698 58.426C28.1804 58.23 28.6284 58.132 29.1138 58.132ZM36.6336 59.854V63.606C36.6336 63.8673 36.6943 64.0587 36.8156 64.18C36.9463 64.292 37.161 64.348 37.4596 64.348H38.3696V66H37.1376C35.4856 66 34.6596 65.1973 34.6596 63.592V59.854H33.7356V58.244H34.6596V56.326H36.6336V58.244H38.3696V59.854H36.6336ZM47.2694 61.954C47.2694 62.234 47.2507 62.486 47.2134 62.71H41.5434C41.59 63.27 41.786 63.7087 42.1314 64.026C42.4767 64.3433 42.9014 64.502 43.4054 64.502C44.1334 64.502 44.6514 64.1893 44.9594 63.564H47.0734C46.8494 64.3107 46.42 64.9267 45.7854 65.412C45.1507 65.888 44.3714 66.126 43.4474 66.126C42.7007 66.126 42.0287 65.9627 41.4314 65.636C40.8434 65.3 40.3814 64.8287 40.0454 64.222C39.7187 63.6153 39.5554 62.9153 39.5554 62.122C39.5554 61.3193 39.7187 60.6147 40.0454 60.008C40.372 59.4013 40.8294 58.9347 41.4174 58.608C42.0054 58.2813 42.682 58.118 43.4474 58.118C44.1847 58.118 44.8427 58.2767 45.4214 58.594C46.0094 58.9113 46.462 59.364 46.7794 59.952C47.106 60.5307 47.2694 61.198 47.2694 61.954ZM45.2394 61.394C45.23 60.89 45.048 60.4887 44.6934 60.19C44.3387 59.882 43.9047 59.728 43.3914 59.728C42.906 59.728 42.4954 59.8773 42.1594 60.176C41.8327 60.4653 41.632 60.8713 41.5574 61.394H45.2394ZM53.278 58.132C54.202 58.132 54.9487 58.426 55.518 59.014C56.0873 59.5927 56.372 60.4047 56.372 61.45V66H54.412V61.716C54.412 61.1 54.258 60.6287 53.95 60.302C53.642 59.966 53.222 59.798 52.69 59.798C52.1487 59.798 51.7193 59.966 51.402 60.302C51.094 60.6287 50.94 61.1 50.94 61.716V66H48.98V58.244H50.94V59.21C51.2013 58.874 51.5327 58.6127 51.934 58.426C52.3447 58.23 52.7927 58.132 53.278 58.132ZM60.7978 59.854V63.606C60.7978 63.8673 60.8585 64.0587 60.9798 64.18C61.1105 64.292 61.3252 64.348 61.6238 64.348H62.5338V66H61.3018C59.6498 66 58.8238 65.1973 58.8238 63.592V59.854H57.8998V58.244H58.8238V56.326H60.7978V58.244H62.5338V59.854H60.7978Z" fill="#FFE838"/>
<line x1="71" y1="61" x2="175" y2="61" stroke="#FFE838"/>
<line x1="260" y1="99" x2="491" y2="99" stroke="#FFE838"/>
<path d="M501.926 95.81V98.26H505.216V99.814H501.926V102.404H505.636V104H499.966V94.214H505.636V95.81H501.926ZM509.657 97.448C509.909 97.0373 510.236 96.7153 510.637 96.482C511.048 96.2487 511.515 96.132 512.037 96.132V98.19H511.519C510.903 98.19 510.437 98.3347 510.119 98.624C509.811 98.9133 509.657 99.4173 509.657 100.136V104H507.697V96.244H509.657V97.448ZM515.597 97.448C515.849 97.0373 516.176 96.7153 516.577 96.482C516.988 96.2487 517.455 96.132 517.977 96.132V98.19H517.459C516.843 98.19 516.377 98.3347 516.059 98.624C515.751 98.9133 515.597 99.4173 515.597 100.136V104H513.637V96.244H515.597V97.448ZM523.021 104.126C522.275 104.126 521.603 103.963 521.005 103.636C520.408 103.3 519.937 102.829 519.591 102.222C519.255 101.615 519.087 100.915 519.087 100.122C519.087 99.3287 519.26 98.6287 519.605 98.022C519.96 97.4153 520.441 96.9487 521.047 96.622C521.654 96.286 522.331 96.118 523.077 96.118C523.824 96.118 524.501 96.286 525.107 96.622C525.714 96.9487 526.19 97.4153 526.535 98.022C526.89 98.6287 527.067 99.3287 527.067 100.122C527.067 100.915 526.885 101.615 526.521 102.222C526.167 102.829 525.681 103.3 525.065 103.636C524.459 103.963 523.777 104.126 523.021 104.126ZM523.021 102.418C523.376 102.418 523.707 102.334 524.015 102.166C524.333 101.989 524.585 101.727 524.771 101.382C524.958 101.037 525.051 100.617 525.051 100.122C525.051 99.3847 524.855 98.82 524.463 98.428C524.081 98.0267 523.609 97.826 523.049 97.826C522.489 97.826 522.018 98.0267 521.635 98.428C521.262 98.82 521.075 99.3847 521.075 100.122C521.075 100.859 521.257 101.429 521.621 101.83C521.995 102.222 522.461 102.418 523.021 102.418ZM530.745 97.448C530.997 97.0373 531.324 96.7153 531.725 96.482C532.136 96.2487 532.603 96.132 533.125 96.132V98.19H532.607C531.991 98.19 531.525 98.3347 531.207 98.624C530.899 98.9133 530.745 99.4173 530.745 100.136V104H528.785V96.244H530.745V97.448Z" fill="#FFE838"/>
<path opacity="0.5" d="M542.323 104.077C541.604 104.077 540.944 103.908 540.343 103.571C539.742 103.234 539.265 102.768 538.913 102.174C538.561 101.573 538.385 100.894 538.385 100.139C538.385 99.391 538.561 98.72 538.913 98.126C539.265 97.5247 539.742 97.0553 540.343 96.718C540.944 96.3807 541.604 96.212 542.323 96.212C543.049 96.212 543.709 96.3807 544.303 96.718C544.904 97.0553 545.377 97.5247 545.722 98.126C546.074 98.72 546.25 99.391 546.25 100.139C546.25 100.894 546.074 101.573 545.722 102.174C545.377 102.768 544.904 103.234 544.303 103.571C543.702 103.908 543.042 104.077 542.323 104.077ZM542.323 102.702C542.785 102.702 543.192 102.599 543.544 102.394C543.896 102.181 544.171 101.881 544.369 101.492C544.567 101.103 544.666 100.652 544.666 100.139C544.666 99.6257 544.567 99.1783 544.369 98.797C544.171 98.4083 543.896 98.1113 543.544 97.906C543.192 97.7007 542.785 97.598 542.323 97.598C541.861 97.598 541.45 97.7007 541.091 97.906C540.739 98.1113 540.464 98.4083 540.266 98.797C540.068 99.1783 539.969 99.6257 539.969 100.139C539.969 100.652 540.068 101.103 540.266 101.492C540.464 101.881 540.739 102.181 541.091 102.394C541.45 102.599 541.861 102.702 542.323 102.702ZM549.156 98.786C549.354 98.5073 549.625 98.2763 549.97 98.093C550.322 97.9023 550.721 97.807 551.169 97.807C551.689 97.807 552.159 97.9353 552.577 98.192C553.002 98.4487 553.336 98.8153 553.578 99.292C553.827 99.7613 553.952 100.308 553.952 100.931C553.952 101.554 553.827 102.108 553.578 102.592C553.336 103.069 553.002 103.439 552.577 103.703C552.159 103.967 551.689 104.099 551.169 104.099C550.721 104.099 550.325 104.007 549.981 103.824C549.643 103.641 549.368 103.41 549.156 103.131V106.904H547.616V97.906H549.156V98.786ZM552.379 100.931C552.379 100.564 552.302 100.249 552.148 99.985C552.001 99.7137 551.803 99.5083 551.554 99.369C551.312 99.2297 551.048 99.16 550.762 99.16C550.483 99.16 550.219 99.2333 549.97 99.38C549.728 99.5193 549.53 99.7247 549.376 99.996C549.229 100.267 549.156 100.586 549.156 100.953C549.156 101.32 549.229 101.639 549.376 101.91C549.53 102.181 549.728 102.39 549.97 102.537C550.219 102.676 550.483 102.746 550.762 102.746C551.048 102.746 551.312 102.673 551.554 102.526C551.803 102.379 552.001 102.17 552.148 101.899C552.302 101.628 552.379 101.305 552.379 100.931ZM557.084 99.171V102.119C557.084 102.324 557.131 102.475 557.227 102.57C557.329 102.658 557.498 102.702 557.733 102.702H558.448V104H557.48C556.182 104 555.533 103.369 555.533 102.108V99.171H554.807V97.906H555.533V96.399H557.084V97.906H558.448V99.171H557.084ZM560.556 97.18C560.285 97.18 560.058 97.0957 559.874 96.927C559.698 96.751 559.61 96.5347 559.61 96.278C559.61 96.0213 559.698 95.8087 559.874 95.64C560.058 95.464 560.285 95.376 560.556 95.376C560.828 95.376 561.051 95.464 561.227 95.64C561.411 95.8087 561.502 96.0213 561.502 96.278C561.502 96.5347 561.411 96.751 561.227 96.927C561.051 97.0957 560.828 97.18 560.556 97.18ZM561.315 97.906V104H559.775V97.906H561.315ZM565.763 104.099C565.176 104.099 564.648 103.971 564.179 103.714C563.71 103.45 563.339 103.08 563.068 102.603C562.804 102.126 562.672 101.576 562.672 100.953C562.672 100.33 562.808 99.7797 563.079 99.303C563.358 98.8263 563.735 98.4597 564.212 98.203C564.689 97.939 565.22 97.807 565.807 97.807C566.394 97.807 566.925 97.939 567.402 98.203C567.879 98.4597 568.253 98.8263 568.524 99.303C568.803 99.7797 568.942 100.33 568.942 100.953C568.942 101.576 568.799 102.126 568.513 102.603C568.234 103.08 567.853 103.45 567.369 103.714C566.892 103.971 566.357 104.099 565.763 104.099ZM565.763 102.757C566.042 102.757 566.302 102.691 566.544 102.559C566.793 102.42 566.991 102.214 567.138 101.943C567.285 101.672 567.358 101.342 567.358 100.953C567.358 100.374 567.204 99.93 566.896 99.622C566.595 99.3067 566.225 99.149 565.785 99.149C565.345 99.149 564.975 99.3067 564.674 99.622C564.381 99.93 564.234 100.374 564.234 100.953C564.234 101.532 564.377 101.98 564.663 102.295C564.956 102.603 565.323 102.757 565.763 102.757ZM573.669 97.818C574.395 97.818 574.981 98.049 575.429 98.511C575.876 98.9657 576.1 99.6037 576.1 100.425V104H574.56V100.634C574.56 100.15 574.439 99.7797 574.197 99.523C573.955 99.259 573.625 99.127 573.207 99.127C572.781 99.127 572.444 99.259 572.195 99.523C571.953 99.7797 571.832 100.15 571.832 100.634V104H570.292V97.906H571.832V98.665C572.037 98.401 572.297 98.1957 572.613 98.049C572.935 97.895 573.287 97.818 573.669 97.818ZM577.388 100.931C577.388 100.315 577.509 99.7687 577.751 99.292C578 98.8153 578.334 98.4487 578.752 98.192C579.177 97.9353 579.65 97.807 580.171 97.807C580.626 97.807 581.022 97.8987 581.359 98.082C581.704 98.2653 581.979 98.4963 582.184 98.775V97.906H583.735V104H582.184V103.109C581.986 103.395 581.711 103.633 581.359 103.824C581.014 104.007 580.615 104.099 580.16 104.099C579.647 104.099 579.177 103.967 578.752 103.703C578.334 103.439 578 103.069 577.751 102.592C577.509 102.108 577.388 101.554 577.388 100.931ZM582.184 100.953C582.184 100.579 582.111 100.26 581.964 99.996C581.817 99.7247 581.619 99.5193 581.37 99.38C581.121 99.2333 580.853 99.16 580.567 99.16C580.281 99.16 580.017 99.2297 579.775 99.369C579.533 99.5083 579.335 99.7137 579.181 99.985C579.034 100.249 578.961 100.564 578.961 100.931C578.961 101.298 579.034 101.62 579.181 101.899C579.335 102.17 579.533 102.379 579.775 102.526C580.024 102.673 580.288 102.746 580.567 102.746C580.853 102.746 581.121 102.676 581.37 102.537C581.619 102.39 581.817 102.185 581.964 101.921C582.111 101.65 582.184 101.327 582.184 100.953ZM586.999 95.86V104H585.459V95.86H586.999Z" fill="#FFE838"/>
<path d="M153.119 92.8182H154.983L158.224 100.733H158.344L161.585 92.8182H163.45V103H161.988V95.6321H161.893L158.891 102.985H157.678L154.675 95.6271H154.58V103H153.119V92.8182ZM168.855 103.154C168.103 103.154 167.455 102.993 166.911 102.672C166.371 102.347 165.953 101.891 165.658 101.305C165.367 100.715 165.221 100.024 165.221 99.2315C165.221 98.4493 165.367 97.7599 165.658 97.1634C165.953 96.5668 166.364 96.1011 166.891 95.7663C167.421 95.4316 168.041 95.2642 168.751 95.2642C169.181 95.2642 169.599 95.3355 170.003 95.478C170.408 95.6205 170.771 95.8442 171.092 96.1491C171.414 96.4541 171.667 96.8501 171.853 97.3374C172.038 97.8213 172.131 98.4096 172.131 99.1023V99.6293H166.061V98.5156H170.675C170.675 98.1245 170.595 97.7782 170.436 97.4766C170.277 97.1716 170.053 96.9313 169.765 96.7557C169.48 96.58 169.145 96.4922 168.76 96.4922C168.343 96.4922 167.978 96.5949 167.667 96.8004C167.358 97.0026 167.12 97.2678 166.951 97.5959C166.785 97.9207 166.702 98.2737 166.702 98.6548V99.5249C166.702 100.035 166.792 100.469 166.971 100.827C167.153 101.185 167.407 101.459 167.731 101.648C168.056 101.833 168.436 101.926 168.87 101.926C169.152 101.926 169.408 101.886 169.64 101.807C169.872 101.724 170.073 101.601 170.242 101.439C170.411 101.277 170.54 101.076 170.63 100.837L172.037 101.091C171.924 101.505 171.722 101.868 171.43 102.18C171.142 102.488 170.779 102.728 170.341 102.901C169.907 103.07 169.412 103.154 168.855 103.154ZM179.503 97.228L178.156 97.4666C178.099 97.2943 178.01 97.1302 177.887 96.9744C177.768 96.8187 177.605 96.6911 177.4 96.5916C177.194 96.4922 176.938 96.4425 176.629 96.4425C176.208 96.4425 175.857 96.5369 175.575 96.7259C175.294 96.9115 175.153 97.1518 175.153 97.4467C175.153 97.7019 175.247 97.9074 175.436 98.0632C175.625 98.219 175.93 98.3466 176.351 98.446L177.564 98.7244C178.267 98.8868 178.79 99.1371 179.135 99.4751C179.48 99.8132 179.652 100.252 179.652 100.793C179.652 101.25 179.519 101.658 179.254 102.016C178.992 102.37 178.626 102.649 178.156 102.851C177.688 103.053 177.146 103.154 176.53 103.154C175.675 103.154 174.977 102.972 174.437 102.607C173.897 102.239 173.565 101.717 173.442 101.041L174.879 100.822C174.969 101.197 175.153 101.48 175.431 101.673C175.71 101.862 176.072 101.956 176.52 101.956C177.007 101.956 177.397 101.855 177.688 101.653C177.98 101.447 178.126 101.197 178.126 100.902C178.126 100.663 178.036 100.463 177.857 100.3C177.682 100.138 177.411 100.015 177.047 99.9325L175.754 99.6491C175.042 99.4867 174.515 99.2282 174.173 98.8736C173.835 98.5189 173.666 98.0698 173.666 97.5263C173.666 97.0755 173.792 96.6811 174.044 96.343C174.296 96.005 174.644 95.7415 175.088 95.5526C175.532 95.3603 176.041 95.2642 176.614 95.2642C177.44 95.2642 178.089 95.4432 178.563 95.8011C179.037 96.1558 179.35 96.6314 179.503 97.228ZM187.009 97.228L185.661 97.4666C185.605 97.2943 185.516 97.1302 185.393 96.9744C185.274 96.8187 185.111 96.6911 184.906 96.5916C184.7 96.4922 184.443 96.4425 184.135 96.4425C183.714 96.4425 183.363 96.5369 183.081 96.7259C182.799 96.9115 182.659 97.1518 182.659 97.4467C182.659 97.7019 182.753 97.9074 182.942 98.0632C183.131 98.219 183.436 98.3466 183.857 98.446L185.07 98.7244C185.772 98.8868 186.296 99.1371 186.641 99.4751C186.985 99.8132 187.158 100.252 187.158 100.793C187.158 101.25 187.025 101.658 186.76 102.016C186.498 102.37 186.132 102.649 185.661 102.851C185.194 103.053 184.652 103.154 184.036 103.154C183.181 103.154 182.483 102.972 181.943 102.607C181.402 102.239 181.071 101.717 180.948 101.041L182.385 100.822C182.475 101.197 182.659 101.48 182.937 101.673C183.215 101.862 183.578 101.956 184.026 101.956C184.513 101.956 184.902 101.855 185.194 101.653C185.486 101.447 185.632 101.197 185.632 100.902C185.632 100.663 185.542 100.463 185.363 100.3C185.187 100.138 184.917 100.015 184.553 99.9325L183.26 99.6491C182.548 99.4867 182.021 99.2282 181.679 98.8736C181.341 98.5189 181.172 98.0698 181.172 97.5263C181.172 97.0755 181.298 96.6811 181.55 96.343C181.802 96.005 182.15 95.7415 182.594 95.5526C183.038 95.3603 183.547 95.2642 184.12 95.2642C184.945 95.2642 185.595 95.4432 186.069 95.8011C186.543 96.1558 186.856 96.6314 187.009 97.228ZM191.015 103.169C190.531 103.169 190.093 103.08 189.702 102.901C189.311 102.718 189.001 102.455 188.772 102.11C188.547 101.765 188.434 101.343 188.434 100.842C188.434 100.411 188.517 100.057 188.683 99.7784C188.849 99.5 189.072 99.2796 189.354 99.1172C189.636 98.9548 189.951 98.8321 190.299 98.7493C190.647 98.6664 191.001 98.6035 191.363 98.5604C191.82 98.5073 192.191 98.4643 192.476 98.4311C192.761 98.3946 192.968 98.3366 193.098 98.2571C193.227 98.1776 193.292 98.0483 193.292 97.8693V97.8345C193.292 97.4003 193.169 97.0639 192.924 96.8253C192.682 96.5866 192.32 96.4673 191.84 96.4673C191.339 96.4673 190.945 96.5784 190.657 96.8004C190.372 97.0192 190.174 97.2628 190.065 97.5312L188.668 97.2131C188.834 96.7491 189.076 96.3745 189.394 96.0895C189.715 95.8011 190.085 95.5923 190.502 95.4631C190.92 95.3305 191.359 95.2642 191.82 95.2642C192.125 95.2642 192.448 95.3007 192.789 95.3736C193.134 95.4432 193.456 95.5724 193.754 95.7614C194.056 95.9503 194.302 96.2204 194.495 96.5717C194.687 96.9197 194.783 97.3722 194.783 97.929V103H193.331V101.956H193.272C193.176 102.148 193.031 102.337 192.839 102.523C192.647 102.708 192.4 102.862 192.098 102.985C191.797 103.108 191.435 103.169 191.015 103.169ZM191.338 101.976C191.749 101.976 192.1 101.895 192.392 101.732C192.687 101.57 192.91 101.358 193.063 101.096C193.219 100.831 193.297 100.547 193.297 100.246V99.2614C193.243 99.3144 193.141 99.3641 192.988 99.4105C192.839 99.4536 192.668 99.4917 192.476 99.5249C192.284 99.5547 192.097 99.5829 191.914 99.6094C191.732 99.6326 191.58 99.6525 191.457 99.669C191.169 99.7055 190.905 99.7668 190.667 99.853C190.431 99.9392 190.242 100.063 190.1 100.226C189.961 100.385 189.891 100.597 189.891 100.862C189.891 101.23 190.027 101.509 190.299 101.697C190.57 101.883 190.917 101.976 191.338 101.976ZM199.965 106.023C199.358 106.023 198.836 105.943 198.399 105.784C197.964 105.625 197.61 105.415 197.335 105.153C197.06 104.891 196.854 104.604 196.718 104.293L197.996 103.766C198.085 103.911 198.205 104.066 198.354 104.228C198.506 104.394 198.712 104.535 198.97 104.651C199.232 104.767 199.569 104.825 199.98 104.825C200.543 104.825 201.009 104.687 201.377 104.412C201.744 104.14 201.928 103.706 201.928 103.109V101.608H201.834C201.744 101.77 201.615 101.951 201.446 102.15C201.28 102.349 201.052 102.521 200.76 102.667C200.468 102.813 200.089 102.886 199.622 102.886C199.018 102.886 198.475 102.745 197.991 102.463C197.51 102.178 197.129 101.759 196.847 101.205C196.569 100.648 196.43 99.964 196.43 99.152C196.43 98.34 196.567 97.6439 196.843 97.0639C197.121 96.4839 197.502 96.0398 197.986 95.7315C198.47 95.42 199.018 95.2642 199.632 95.2642C200.106 95.2642 200.488 95.3438 200.78 95.5028C201.072 95.6586 201.299 95.8409 201.461 96.0497C201.627 96.2585 201.754 96.4425 201.844 96.6016H201.953V95.3636H203.41V103.169C203.41 103.825 203.258 104.364 202.953 104.785C202.648 105.206 202.235 105.517 201.715 105.719C201.198 105.922 200.614 106.023 199.965 106.023ZM199.95 101.653C200.377 101.653 200.739 101.553 201.034 101.354C201.332 101.152 201.557 100.864 201.71 100.489C201.865 100.112 201.943 99.6591 201.943 99.1321C201.943 98.6184 201.867 98.166 201.715 97.7749C201.562 97.3838 201.338 97.0788 201.044 96.8601C200.749 96.638 200.384 96.527 199.95 96.527C199.502 96.527 199.129 96.643 198.831 96.875C198.533 97.1037 198.307 97.4152 198.155 97.8097C198.006 98.2041 197.931 98.6449 197.931 99.1321C197.931 99.6326 198.008 100.072 198.16 100.45C198.312 100.827 198.538 101.122 198.836 101.335C199.138 101.547 199.509 101.653 199.95 101.653ZM208.695 103.154C207.942 103.154 207.294 102.993 206.751 102.672C206.211 102.347 205.793 101.891 205.498 101.305C205.206 100.715 205.061 100.024 205.061 99.2315C205.061 98.4493 205.206 97.7599 205.498 97.1634C205.793 96.5668 206.204 96.1011 206.731 95.7663C207.261 95.4316 207.881 95.2642 208.59 95.2642C209.021 95.2642 209.439 95.3355 209.843 95.478C210.248 95.6205 210.61 95.8442 210.932 96.1491C211.253 96.4541 211.507 96.8501 211.693 97.3374C211.878 97.8213 211.971 98.4096 211.971 99.1023V99.6293H205.901V98.5156H210.514C210.514 98.1245 210.435 97.7782 210.276 97.4766C210.117 97.1716 209.893 96.9313 209.605 96.7557C209.32 96.58 208.985 96.4922 208.6 96.4922C208.183 96.4922 207.818 96.5949 207.507 96.8004C207.198 97.0026 206.96 97.2678 206.791 97.5959C206.625 97.9207 206.542 98.2737 206.542 98.6548V99.5249C206.542 100.035 206.632 100.469 206.811 100.827C206.993 101.185 207.246 101.459 207.571 101.648C207.896 101.833 208.276 101.926 208.71 101.926C208.991 101.926 209.248 101.886 209.48 101.807C209.712 101.724 209.913 101.601 210.082 101.439C210.251 101.277 210.38 101.076 210.47 100.837L211.877 101.091C211.764 101.505 211.562 101.868 211.27 102.18C210.982 102.488 210.619 102.728 210.181 102.901C209.747 103.07 209.252 103.154 208.695 103.154ZM220.617 103.154C219.864 103.154 219.216 102.993 218.673 102.672C218.133 102.347 217.715 101.891 217.42 101.305C217.128 100.715 216.982 100.024 216.982 99.2315C216.982 98.4493 217.128 97.7599 217.42 97.1634C217.715 96.5668 218.126 96.1011 218.653 95.7663C219.183 95.4316 219.803 95.2642 220.512 95.2642C220.943 95.2642 221.361 95.3355 221.765 95.478C222.169 95.6205 222.532 95.8442 222.854 96.1491C223.175 96.4541 223.429 96.8501 223.615 97.3374C223.8 97.8213 223.893 98.4096 223.893 99.1023V99.6293H217.823V98.5156H222.436C222.436 98.1245 222.357 97.7782 222.198 97.4766C222.039 97.1716 221.815 96.9313 221.526 96.7557C221.241 96.58 220.907 96.4922 220.522 96.4922C220.105 96.4922 219.74 96.5949 219.428 96.8004C219.12 97.0026 218.882 97.2678 218.713 97.5959C218.547 97.9207 218.464 98.2737 218.464 98.6548V99.5249C218.464 100.035 218.553 100.469 218.732 100.827C218.915 101.185 219.168 101.459 219.493 101.648C219.818 101.833 220.197 101.926 220.632 101.926C220.913 101.926 221.17 101.886 221.402 101.807C221.634 101.724 221.835 101.601 222.004 101.439C222.173 101.277 222.302 101.076 222.392 100.837L223.798 101.091C223.686 101.505 223.484 101.868 223.192 102.18C222.904 102.488 222.541 102.728 222.103 102.901C221.669 103.07 221.173 103.154 220.617 103.154ZM225.542 103V95.3636H226.979V96.5767H227.059C227.198 96.1657 227.443 95.8426 227.794 95.6072C228.149 95.3686 228.55 95.2493 228.998 95.2493C229.09 95.2493 229.2 95.2526 229.326 95.2592C229.455 95.2659 229.556 95.2741 229.629 95.2841V96.706C229.569 96.6894 229.463 96.6712 229.311 96.6513C229.158 96.6281 229.006 96.6165 228.853 96.6165C228.502 96.6165 228.189 96.6911 227.914 96.8402C227.642 96.986 227.426 97.1899 227.267 97.4517C227.108 97.7102 227.029 98.0052 227.029 98.3366V103H225.542ZM230.915 103V95.3636H232.352V96.5767H232.432C232.571 96.1657 232.816 95.8426 233.167 95.6072C233.522 95.3686 233.923 95.2493 234.371 95.2493C234.463 95.2493 234.573 95.2526 234.699 95.2592C234.828 95.2659 234.929 95.2741 235.002 95.2841V96.706C234.942 96.6894 234.836 96.6712 234.684 96.6513C234.531 96.6281 234.379 96.6165 234.226 96.6165C233.875 96.6165 233.562 96.6911 233.287 96.8402C233.015 96.986 232.8 97.1899 232.64 97.4517C232.481 97.7102 232.402 98.0052 232.402 98.3366V103H230.915ZM239.232 103.154C238.516 103.154 237.891 102.99 237.357 102.662C236.824 102.334 236.409 101.875 236.114 101.285C235.819 100.695 235.672 100.005 235.672 99.2166C235.672 98.4245 235.819 97.7318 236.114 97.1385C236.409 96.5452 236.824 96.0845 237.357 95.7564C237.891 95.4283 238.516 95.2642 239.232 95.2642C239.947 95.2642 240.572 95.4283 241.106 95.7564C241.639 96.0845 242.054 96.5452 242.349 97.1385C242.644 97.7318 242.791 98.4245 242.791 99.2166C242.791 100.005 242.644 100.695 242.349 101.285C242.054 101.875 241.639 102.334 241.106 102.662C240.572 102.99 239.947 103.154 239.232 103.154ZM239.237 101.906C239.701 101.906 240.085 101.784 240.39 101.538C240.695 101.293 240.92 100.967 241.066 100.559C241.215 100.151 241.29 99.7022 241.29 99.2116C241.29 98.7244 241.215 98.277 241.066 97.8693C240.92 97.4583 240.695 97.1286 240.39 96.88C240.085 96.6314 239.701 96.5071 239.237 96.5071C238.769 96.5071 238.381 96.6314 238.073 96.88C237.768 97.1286 237.541 97.4583 237.392 97.8693C237.246 98.277 237.173 98.7244 237.173 99.2116C237.173 99.7022 237.246 100.151 237.392 100.559C237.541 100.967 237.768 101.293 238.073 101.538C238.381 101.784 238.769 101.906 239.237 101.906ZM244.45 103V95.3636H245.887V96.5767H245.967C246.106 96.1657 246.351 95.8426 246.703 95.6072C247.057 95.3686 247.458 95.2493 247.906 95.2493C247.999 95.2493 248.108 95.2526 248.234 95.2592C248.363 95.2659 248.464 95.2741 248.537 95.2841V96.706C248.477 96.6894 248.371 96.6712 248.219 96.6513C248.066 96.6281 247.914 96.6165 247.762 96.6165C247.41 96.6165 247.097 96.6911 246.822 96.8402C246.55 96.986 246.335 97.1899 246.176 97.4517C246.017 97.7102 245.937 98.0052 245.937 98.3366V103H244.45Z" fill="#FFE838"/>
<g filter="url(#filter0_dd_1148_15680)">
<path d="M152 52C152 47.5817 155.582 44 160 44H423C427.418 44 431 47.5817 431 52V72C431 76.4183 427.418 80 423 80H160C155.582 80 152 76.4183 152 72V52Z" fill="white" shape-rendering="crispEdges"/>
<path d="M152.5 52C152.5 47.8579 155.858 44.5 160 44.5H423C427.142 44.5 430.5 47.8579 430.5 52V72C430.5 76.1421 427.142 79.5 423 79.5H160C155.858 79.5 152.5 76.1421 152.5 72V52Z" stroke="#FFE838" shape-rendering="crispEdges"/>
<path d="M160.616 58.1406V56.8182H168.496V58.1406H165.32V67H163.788V58.1406H160.616ZM170.183 69.8636C169.961 69.8636 169.759 69.8454 169.577 69.8089C169.394 69.7758 169.258 69.7393 169.169 69.6996L169.527 68.4815C169.799 68.5545 170.041 68.5859 170.253 68.576C170.465 68.5661 170.652 68.4865 170.814 68.3374C170.98 68.1882 171.126 67.9446 171.252 67.6065L171.436 67.0994L168.642 59.3636H170.233L172.167 65.2898H172.246L174.18 59.3636H175.776L172.629 68.0192C172.483 68.4169 172.298 68.7533 172.072 69.0284C171.847 69.3068 171.578 69.5156 171.267 69.6548C170.955 69.794 170.594 69.8636 170.183 69.8636ZM177.173 69.8636V59.3636H178.625V60.6016H178.749C178.835 60.4425 178.96 60.2585 179.122 60.0497C179.284 59.8409 179.51 59.6586 179.798 59.5028C180.086 59.3438 180.468 59.2642 180.942 59.2642C181.558 59.2642 182.108 59.42 182.592 59.7315C183.076 60.0431 183.456 60.4922 183.731 61.0788C184.009 61.6655 184.148 62.3714 184.148 63.1967C184.148 64.022 184.011 64.7296 183.736 65.3196C183.461 65.9062 183.083 66.3587 182.602 66.6768C182.122 66.9917 181.573 67.1491 180.956 67.1491C180.492 67.1491 180.113 67.0713 179.818 66.9155C179.526 66.7597 179.298 66.5774 179.132 66.3686C178.966 66.1598 178.839 65.9742 178.749 65.8118H178.66V69.8636H177.173ZM178.63 63.1818C178.63 63.7187 178.708 64.1894 178.863 64.5938C179.019 64.9981 179.245 65.3146 179.54 65.5433C179.835 65.7687 180.196 65.8814 180.623 65.8814C181.068 65.8814 181.439 65.7637 181.737 65.5284C182.035 65.2898 182.261 64.9666 182.413 64.5589C182.569 64.1513 182.647 63.6922 182.647 63.1818C182.647 62.678 182.571 62.2256 182.418 61.8246C182.269 61.4235 182.044 61.107 181.742 60.875C181.444 60.643 181.071 60.527 180.623 60.527C180.193 60.527 179.828 60.638 179.53 60.8601C179.235 61.0821 179.011 61.392 178.858 61.7898C178.706 62.1875 178.63 62.6515 178.63 63.1818ZM189.105 67.1541C188.353 67.1541 187.705 66.9934 187.161 66.6719C186.621 66.3471 186.203 65.8913 185.908 65.3047C185.617 64.7147 185.471 64.0237 185.471 63.2315C185.471 62.4493 185.617 61.7599 185.908 61.1634C186.203 60.5668 186.614 60.1011 187.141 59.7663C187.671 59.4316 188.291 59.2642 189.001 59.2642C189.431 59.2642 189.849 59.3355 190.253 59.478C190.658 59.6205 191.021 59.8442 191.342 60.1491C191.664 60.4541 191.917 60.8501 192.103 61.3374C192.288 61.8213 192.381 62.4096 192.381 63.1023V63.6293H186.311V62.5156H190.925C190.925 62.1245 190.845 61.7782 190.686 61.4766C190.527 61.1716 190.303 60.9313 190.015 60.7557C189.73 60.58 189.395 60.4922 189.01 60.4922C188.593 60.4922 188.228 60.5949 187.917 60.8004C187.608 61.0026 187.37 61.2678 187.201 61.5959C187.035 61.9207 186.952 62.2737 186.952 62.6548V63.5249C186.952 64.0353 187.042 64.4695 187.221 64.8274C187.403 65.1854 187.657 65.4588 187.981 65.6477C188.306 65.8333 188.686 65.9261 189.12 65.9261C189.402 65.9261 189.658 65.8864 189.89 65.8068C190.122 65.724 190.323 65.6013 190.492 65.4389C190.661 65.2765 190.79 65.076 190.88 64.8374L192.287 65.0909C192.174 65.5052 191.972 65.8681 191.68 66.1797C191.392 66.4879 191.029 66.7282 190.591 66.9006C190.157 67.0696 189.662 67.1541 189.105 67.1541ZM201.3 59.3636V60.5568H197.129V59.3636H201.3ZM198.248 57.5341H199.734V64.7578C199.734 65.0462 199.777 65.2633 199.863 65.4091C199.95 65.5516 200.061 65.6494 200.197 65.7024C200.336 65.7521 200.487 65.777 200.649 65.777C200.768 65.777 200.873 65.7687 200.962 65.7521C201.052 65.7356 201.121 65.7223 201.171 65.7124L201.439 66.9403C201.353 66.9735 201.231 67.0066 201.072 67.0398C200.912 67.0762 200.714 67.0961 200.475 67.0994C200.084 67.1061 199.719 67.0365 199.381 66.8906C199.043 66.7448 198.77 66.5194 198.561 66.2145C198.352 65.9096 198.248 65.5268 198.248 65.0661V57.5341ZM206.154 67.1541C205.401 67.1541 204.753 66.9934 204.21 66.6719C203.67 66.3471 203.252 65.8913 202.957 65.3047C202.665 64.7147 202.52 64.0237 202.52 63.2315C202.52 62.4493 202.665 61.7599 202.957 61.1634C203.252 60.5668 203.663 60.1011 204.19 59.7663C204.72 59.4316 205.34 59.2642 206.049 59.2642C206.48 59.2642 206.898 59.3355 207.302 59.478C207.707 59.6205 208.069 59.8442 208.391 60.1491C208.712 60.4541 208.966 60.8501 209.152 61.3374C209.337 61.8213 209.43 62.4096 209.43 63.1023V63.6293H203.36V62.5156H207.973C207.973 62.1245 207.894 61.7782 207.735 61.4766C207.576 61.1716 207.352 60.9313 207.064 60.7557C206.779 60.58 206.444 60.4922 206.059 60.4922C205.642 60.4922 205.277 60.5949 204.966 60.8004C204.657 61.0026 204.419 61.2678 204.25 61.5959C204.084 61.9207 204.001 62.2737 204.001 62.6548V63.5249C204.001 64.0353 204.091 64.4695 204.27 64.8274C204.452 65.1854 204.705 65.4588 205.03 65.6477C205.355 65.8333 205.734 65.9261 206.169 65.9261C206.45 65.9261 206.707 65.8864 206.939 65.8068C207.171 65.724 207.372 65.6013 207.541 65.4389C207.71 65.2765 207.839 65.076 207.929 64.8374L209.336 65.0909C209.223 65.5052 209.021 65.8681 208.729 66.1797C208.441 66.4879 208.078 66.7282 207.64 66.9006C207.206 67.0696 206.711 67.1541 206.154 67.1541ZM212.075 59.3636L213.76 62.3366L215.461 59.3636H217.086L214.705 63.1818L217.106 67H215.48L213.76 64.1463L212.045 67H210.414L212.791 63.1818L210.444 59.3636H212.075ZM222.177 59.3636V60.5568H218.006V59.3636H222.177ZM219.125 57.5341H220.611V64.7578C220.611 65.0462 220.654 65.2633 220.74 65.4091C220.827 65.5516 220.938 65.6494 221.074 65.7024C221.213 65.7521 221.364 65.777 221.526 65.777C221.645 65.777 221.75 65.7687 221.839 65.7521C221.929 65.7356 221.998 65.7223 222.048 65.7124L222.316 66.9403C222.23 66.9735 222.108 67.0066 221.949 67.0398C221.789 67.0762 221.591 67.0961 221.352 67.0994C220.961 67.1061 220.596 67.0365 220.258 66.8906C219.92 66.7448 219.647 66.5194 219.438 66.2145C219.229 65.9096 219.125 65.5268 219.125 65.0661V57.5341ZM229.013 62.4659V67H227.527V56.8182H228.993V60.6065H229.088C229.267 60.1955 229.54 59.8691 229.908 59.6271C230.276 59.3852 230.757 59.2642 231.35 59.2642C231.873 59.2642 232.331 59.3719 232.722 59.5874C233.116 59.8028 233.421 60.1243 233.637 60.5518C233.855 60.9761 233.965 61.5064 233.965 62.1428V67H232.478V62.3217C232.478 61.7616 232.334 61.3274 232.046 61.0192C231.757 60.7076 231.356 60.5518 230.843 60.5518C230.491 60.5518 230.176 60.6264 229.898 60.7756C229.623 60.9247 229.406 61.1435 229.247 61.4318C229.091 61.7169 229.013 62.0616 229.013 62.4659ZM239.24 67.1541C238.487 67.1541 237.839 66.9934 237.296 66.6719C236.756 66.3471 236.338 65.8913 236.043 65.3047C235.751 64.7147 235.605 64.0237 235.605 63.2315C235.605 62.4493 235.751 61.7599 236.043 61.1634C236.338 60.5668 236.749 60.1011 237.276 59.7663C237.806 59.4316 238.426 59.2642 239.135 59.2642C239.566 59.2642 239.984 59.3355 240.388 59.478C240.792 59.6205 241.155 59.8442 241.477 60.1491C241.798 60.4541 242.052 60.8501 242.238 61.3374C242.423 61.8213 242.516 62.4096 242.516 63.1023V63.6293H236.446V62.5156H241.059C241.059 62.1245 240.98 61.7782 240.821 61.4766C240.662 61.1716 240.438 60.9313 240.15 60.7557C239.864 60.58 239.53 60.4922 239.145 60.4922C238.728 60.4922 238.363 60.5949 238.051 60.8004C237.743 61.0026 237.505 61.2678 237.336 61.5959C237.17 61.9207 237.087 62.2737 237.087 62.6548V63.5249C237.087 64.0353 237.176 64.4695 237.355 64.8274C237.538 65.1854 237.791 65.4588 238.116 65.6477C238.441 65.8333 238.82 65.9261 239.255 65.9261C239.536 65.9261 239.793 65.8864 240.025 65.8068C240.257 65.724 240.458 65.6013 240.627 65.4389C240.796 65.2765 240.925 65.076 241.015 64.8374L242.422 65.0909C242.309 65.5052 242.107 65.8681 241.815 66.1797C241.527 66.4879 241.164 66.7282 240.726 66.9006C240.292 67.0696 239.797 67.1541 239.24 67.1541ZM244.165 67V59.3636H245.602V60.5767H245.682C245.821 60.1657 246.066 59.8426 246.417 59.6072C246.772 59.3686 247.173 59.2493 247.621 59.2493C247.713 59.2493 247.823 59.2526 247.949 59.2592C248.078 59.2659 248.179 59.2741 248.252 59.2841V60.706C248.192 60.6894 248.086 60.6712 247.934 60.6513C247.781 60.6281 247.629 60.6165 247.476 60.6165C247.125 60.6165 246.812 60.6911 246.537 60.8402C246.265 60.986 246.05 61.1899 245.89 61.4517C245.731 61.7102 245.652 62.0052 245.652 62.3366V67H244.165ZM252.556 67.1541C251.804 67.1541 251.156 66.9934 250.612 66.6719C250.072 66.3471 249.654 65.8913 249.359 65.3047C249.068 64.7147 248.922 64.0237 248.922 63.2315C248.922 62.4493 249.068 61.7599 249.359 61.1634C249.654 60.5668 250.065 60.1011 250.592 59.7663C251.123 59.4316 251.742 59.2642 252.452 59.2642C252.883 59.2642 253.3 59.3355 253.705 59.478C254.109 59.6205 254.472 59.8442 254.793 60.1491C255.115 60.4541 255.368 60.8501 255.554 61.3374C255.74 61.8213 255.832 62.4096 255.832 63.1023V63.6293H249.762V62.5156H254.376C254.376 62.1245 254.296 61.7782 254.137 61.4766C253.978 61.1716 253.754 60.9313 253.466 60.7557C253.181 60.58 252.846 60.4922 252.462 60.4922C252.044 60.4922 251.679 60.5949 251.368 60.8004C251.06 61.0026 250.821 61.2678 250.652 61.5959C250.486 61.9207 250.403 62.2737 250.403 62.6548V63.5249C250.403 64.0353 250.493 64.4695 250.672 64.8274C250.854 65.1854 251.108 65.4588 251.433 65.6477C251.757 65.8333 252.137 65.9261 252.571 65.9261C252.853 65.9261 253.11 65.8864 253.342 65.8068C253.574 65.724 253.774 65.6013 253.943 65.4389C254.112 65.2765 254.241 65.076 254.331 64.8374L255.738 65.0909C255.625 65.5052 255.423 65.8681 255.131 66.1797C254.843 66.4879 254.48 66.7282 254.043 66.9006C253.608 67.0696 253.113 67.1541 252.556 67.1541ZM258.461 67.0945C258.189 67.0945 257.956 66.9983 257.76 66.8061C257.565 66.6106 257.467 66.3752 257.467 66.1001C257.467 65.8284 257.565 65.5964 257.76 65.4041C257.956 65.2086 258.189 65.1108 258.461 65.1108C258.733 65.1108 258.967 65.2086 259.162 65.4041C259.358 65.5964 259.455 65.8284 259.455 66.1001C259.455 66.2824 259.409 66.4498 259.316 66.6023C259.227 66.7514 259.107 66.8707 258.958 66.9602C258.809 67.0497 258.643 67.0945 258.461 67.0945ZM262.426 67.0945C262.154 67.0945 261.921 66.9983 261.725 66.8061C261.529 66.6106 261.432 66.3752 261.432 66.1001C261.432 65.8284 261.529 65.5964 261.725 65.4041C261.921 65.2086 262.154 65.1108 262.426 65.1108C262.698 65.1108 262.931 65.2086 263.127 65.4041C263.323 65.5964 263.42 65.8284 263.42 66.1001C263.42 66.2824 263.374 66.4498 263.281 66.6023C263.192 66.7514 263.072 66.8707 262.923 66.9602C262.774 67.0497 262.608 67.0945 262.426 67.0945ZM266.391 67.0945C266.119 67.0945 265.885 66.9983 265.69 66.8061C265.494 66.6106 265.396 66.3752 265.396 66.1001C265.396 65.8284 265.494 65.5964 265.69 65.4041C265.885 65.2086 266.119 65.1108 266.391 65.1108C266.663 65.1108 266.896 65.2086 267.092 65.4041C267.287 65.5964 267.385 65.8284 267.385 66.1001C267.385 66.2824 267.339 66.4498 267.246 66.6023C267.156 66.7514 267.037 66.8707 266.888 66.9602C266.739 67.0497 266.573 67.0945 266.391 67.0945Z" fill="#101940"/>
<path fill-rule="evenodd" clip-rule="evenodd" d="M412.167 53.25C407.794 53.25 404.25 56.7944 404.25 61.1667C404.25 65.5389 407.794 69.0833 412.167 69.0833C413.902 69.0833 415.506 68.5252 416.811 67.5787L420.033 70.8006C420.521 71.2887 421.312 71.2887 421.801 70.8006C422.289 70.3124 422.289 69.5209 421.801 69.0328L418.579 65.8109C419.525 64.5064 420.083 62.9017 420.083 61.1667C420.083 56.7944 416.539 53.25 412.167 53.25ZM406.75 61.1667C406.75 58.1751 409.175 55.75 412.167 55.75C415.158 55.75 417.583 58.1751 417.583 61.1667C417.583 64.1582 415.158 66.5833 412.167 66.5833C409.175 66.5833 406.75 64.1582 406.75 61.1667Z" fill="#6F7595"/>
</g>
<path d="M152.771 31V20.8182H155.232V29.0014H159.467V31H152.771ZM162.894 31.1293C162.407 31.1293 161.974 31.0481 161.596 30.8857C161.222 30.7199 160.925 30.4714 160.706 30.1399C160.491 29.8052 160.383 29.3859 160.383 28.8821C160.383 28.4579 160.458 28.0999 160.607 27.8082C160.756 27.5166 160.962 27.2796 161.224 27.0973C161.485 26.915 161.787 26.7775 162.128 26.6847C162.47 26.5885 162.834 26.5239 163.222 26.4908C163.656 26.451 164.006 26.4096 164.271 26.3665C164.536 26.3201 164.729 26.2554 164.848 26.1726C164.97 26.0864 165.032 25.9654 165.032 25.8097V25.7848C165.032 25.5296 164.944 25.3324 164.768 25.1932C164.593 25.054 164.356 24.9844 164.057 24.9844C163.736 24.9844 163.477 25.054 163.282 25.1932C163.086 25.3324 162.962 25.5246 162.909 25.7699L160.667 25.6903C160.733 25.2263 160.904 24.812 161.179 24.4474C161.457 24.0795 161.838 23.7912 162.322 23.5824C162.809 23.3703 163.394 23.2642 164.077 23.2642C164.564 23.2642 165.014 23.3222 165.425 23.4382C165.836 23.5509 166.193 23.7166 166.498 23.9354C166.803 24.1508 167.039 24.416 167.204 24.7308C167.373 25.0457 167.458 25.4053 167.458 25.8097V31H165.171V29.9361H165.111C164.975 30.1946 164.801 30.4134 164.589 30.5923C164.381 30.7713 164.134 30.9055 163.849 30.995C163.567 31.0845 163.249 31.1293 162.894 31.1293ZM163.645 29.5384C163.907 29.5384 164.142 29.4853 164.351 29.3793C164.563 29.2732 164.732 29.1274 164.858 28.9418C164.984 28.7528 165.047 28.5341 165.047 28.2855V27.5597C164.977 27.5961 164.893 27.6293 164.793 27.6591C164.697 27.6889 164.591 27.7171 164.475 27.7436C164.359 27.7701 164.24 27.7933 164.117 27.8132C163.994 27.8331 163.877 27.8513 163.764 27.8679C163.535 27.9044 163.34 27.9607 163.177 28.0369C163.018 28.1132 162.896 28.2126 162.809 28.3352C162.727 28.4545 162.685 28.5971 162.685 28.7628C162.685 29.0147 162.775 29.2069 162.954 29.3395C163.136 29.4721 163.366 29.5384 163.645 29.5384ZM168.944 31V20.8182H171.376V24.6712H171.425C171.525 24.4392 171.666 24.2154 171.848 24C172.033 23.7846 172.269 23.6089 172.554 23.473C172.842 23.3338 173.187 23.2642 173.588 23.2642C174.118 23.2642 174.614 23.4034 175.074 23.6818C175.538 23.9602 175.913 24.3894 176.198 24.9695C176.483 25.5495 176.626 26.2886 176.626 27.1868C176.626 28.0518 176.488 28.776 176.213 29.3594C175.941 29.9427 175.573 30.3802 175.109 30.6719C174.648 30.9635 174.136 31.1094 173.573 31.1094C173.189 31.1094 172.855 31.0464 172.574 30.9205C172.292 30.7945 172.055 30.6288 171.863 30.4233C171.674 30.2178 171.528 29.9974 171.425 29.7621H171.351V31H168.944ZM171.326 27.1818C171.326 27.5928 171.381 27.9508 171.49 28.2557C171.603 28.5606 171.763 28.7976 171.972 28.9666C172.184 29.1323 172.438 29.2152 172.733 29.2152C173.031 29.2152 173.285 29.1323 173.493 28.9666C173.702 28.7976 173.86 28.5606 173.966 28.2557C174.075 27.9508 174.13 27.5928 174.13 27.1818C174.13 26.7708 174.075 26.4145 173.966 26.1129C173.86 25.8113 173.702 25.5777 173.493 25.4119C173.288 25.2462 173.034 25.1634 172.733 25.1634C172.434 25.1634 172.181 25.2446 171.972 25.407C171.763 25.5694 171.603 25.8014 171.49 26.103C171.381 26.4046 171.326 26.7642 171.326 27.1818ZM181.469 31.1442C180.67 31.1442 179.981 30.9867 179.401 30.6719C178.824 30.3537 178.38 29.9013 178.069 29.3146C177.76 28.7247 177.606 28.0237 177.606 27.2116C177.606 26.4228 177.762 25.7334 178.074 25.1435C178.385 24.5502 178.824 24.0895 179.391 23.7614C179.958 23.4299 180.626 23.2642 181.395 23.2642C181.938 23.2642 182.435 23.3487 182.886 23.5178C183.337 23.6868 183.726 23.937 184.054 24.2685C184.382 24.5999 184.638 25.0092 184.82 25.4964C185.002 25.9804 185.093 26.5355 185.093 27.1619V27.7685H178.456V26.3565H182.831C182.828 26.098 182.767 25.8677 182.647 25.6655C182.528 25.4633 182.364 25.3059 182.155 25.1932C181.95 25.0772 181.713 25.0192 181.444 25.0192C181.172 25.0192 180.929 25.0805 180.713 25.2031C180.498 25.3224 180.327 25.4865 180.201 25.6953C180.075 25.9008 180.009 26.1345 180.002 26.3963V27.8331C180.002 28.1446 180.064 28.4181 180.186 28.6534C180.309 28.8854 180.483 29.0661 180.708 29.1953C180.934 29.3246 181.202 29.3892 181.514 29.3892C181.729 29.3892 181.925 29.3594 182.1 29.2997C182.276 29.2401 182.427 29.1522 182.553 29.0362C182.679 28.9202 182.773 28.7777 182.836 28.6087L185.069 28.6733C184.976 29.1738 184.772 29.6096 184.457 29.9808C184.145 30.3487 183.736 30.6354 183.229 30.8409C182.722 31.0431 182.135 31.1442 181.469 31.1442ZM188.766 20.8182V31H186.335V20.8182H188.766Z" fill="#101940"/>
<line x1="420" y1="61" x2="443" y2="61" stroke="#FFE838"/>
<path d="M453.926 56.228V66H451.966V56.228H453.926ZM455.638 62.122C455.638 61.3193 455.802 60.6193 456.128 60.022C456.455 59.4153 456.908 58.9487 457.486 58.622C458.065 58.286 458.728 58.118 459.474 58.118C460.436 58.118 461.229 58.3607 461.854 58.846C462.489 59.322 462.914 59.994 463.128 60.862H461.014C460.902 60.526 460.711 60.2647 460.44 60.078C460.179 59.882 459.852 59.784 459.46 59.784C458.9 59.784 458.457 59.9893 458.13 60.4C457.804 60.8013 457.64 61.3753 457.64 62.122C457.64 62.8593 457.804 63.4333 458.13 63.844C458.457 64.2453 458.9 64.446 459.46 64.446C460.254 64.446 460.772 64.0913 461.014 63.382H463.128C462.914 64.222 462.489 64.8893 461.854 65.384C461.22 65.8787 460.426 66.126 459.474 66.126C458.728 66.126 458.065 65.9627 457.486 65.636C456.908 65.3 456.455 64.8333 456.128 64.236C455.802 63.6293 455.638 62.9247 455.638 62.122ZM468.288 66.126C467.542 66.126 466.87 65.9627 466.272 65.636C465.675 65.3 465.204 64.8287 464.858 64.222C464.522 63.6153 464.354 62.9153 464.354 62.122C464.354 61.3287 464.527 60.6287 464.872 60.022C465.227 59.4153 465.708 58.9487 466.314 58.622C466.921 58.286 467.598 58.118 468.344 58.118C469.091 58.118 469.768 58.286 470.374 58.622C470.981 58.9487 471.457 59.4153 471.802 60.022C472.157 60.6287 472.334 61.3287 472.334 62.122C472.334 62.9153 472.152 63.6153 471.788 64.222C471.434 64.8287 470.948 65.3 470.332 65.636C469.726 65.9627 469.044 66.126 468.288 66.126ZM468.288 64.418C468.643 64.418 468.974 64.334 469.282 64.166C469.6 63.9887 469.852 63.7273 470.038 63.382C470.225 63.0367 470.318 62.6167 470.318 62.122C470.318 61.3847 470.122 60.82 469.73 60.428C469.348 60.0267 468.876 59.826 468.316 59.826C467.756 59.826 467.285 60.0267 466.902 60.428C466.529 60.82 466.342 61.3847 466.342 62.122C466.342 62.8593 466.524 63.4287 466.888 63.83C467.262 64.222 467.728 64.418 468.288 64.418ZM478.35 58.132C479.274 58.132 480.021 58.426 480.59 59.014C481.159 59.5927 481.444 60.4047 481.444 61.45V66H479.484V61.716C479.484 61.1 479.33 60.6287 479.022 60.302C478.714 59.966 478.294 59.798 477.762 59.798C477.221 59.798 476.791 59.966 476.474 60.302C476.166 60.6287 476.012 61.1 476.012 61.716V66H474.052V58.244H476.012V59.21C476.273 58.874 476.605 58.6127 477.006 58.426C477.417 58.23 477.865 58.132 478.35 58.132ZM490.798 61.954C490.798 62.234 490.779 62.486 490.742 62.71H485.072C485.119 63.27 485.315 63.7087 485.66 64.026C486.005 64.3433 486.43 64.502 486.934 64.502C487.662 64.502 488.18 64.1893 488.488 63.564H490.602C490.378 64.3107 489.949 64.9267 489.314 65.412C488.679 65.888 487.9 66.126 486.976 66.126C486.229 66.126 485.557 65.9627 484.96 65.636C484.372 65.3 483.91 64.8287 483.574 64.222C483.247 63.6153 483.084 62.9153 483.084 62.122C483.084 61.3193 483.247 60.6147 483.574 60.008C483.901 59.4013 484.358 58.9347 484.946 58.608C485.534 58.2813 486.211 58.118 486.976 58.118C487.713 58.118 488.371 58.2767 488.95 58.594C489.538 58.9113 489.991 59.364 490.308 59.952C490.635 60.5307 490.798 61.198 490.798 61.954ZM488.768 61.394C488.759 60.89 488.577 60.4887 488.222 60.19C487.867 59.882 487.433 59.728 486.92 59.728C486.435 59.728 486.024 59.8773 485.688 60.176C485.361 60.4653 485.161 60.8713 485.086 61.394H488.768ZM495.477 66.126C494.842 66.126 494.273 66.014 493.769 65.79C493.265 65.5567 492.863 65.244 492.565 64.852C492.275 64.46 492.117 64.026 492.089 63.55H494.063C494.1 63.8487 494.245 64.096 494.497 64.292C494.758 64.488 495.08 64.586 495.463 64.586C495.836 64.586 496.125 64.5113 496.331 64.362C496.545 64.2127 496.653 64.0213 496.653 63.788C496.653 63.536 496.522 63.3493 496.261 63.228C496.009 63.0973 495.603 62.9573 495.043 62.808C494.464 62.668 493.988 62.5233 493.615 62.374C493.251 62.2247 492.933 61.996 492.663 61.688C492.401 61.38 492.271 60.9647 492.271 60.442C492.271 60.0127 492.392 59.6207 492.635 59.266C492.887 58.9113 493.241 58.6313 493.699 58.426C494.165 58.2207 494.711 58.118 495.337 58.118C496.261 58.118 496.998 58.3513 497.549 58.818C498.099 59.2753 498.403 59.896 498.459 60.68H496.583C496.555 60.372 496.424 60.1293 496.191 59.952C495.967 59.7653 495.663 59.672 495.281 59.672C494.926 59.672 494.651 59.7373 494.455 59.868C494.268 59.9987 494.175 60.1807 494.175 60.414C494.175 60.6753 494.305 60.876 494.567 61.016C494.828 61.1467 495.234 61.282 495.785 61.422C496.345 61.562 496.807 61.7067 497.171 61.856C497.535 62.0053 497.847 62.2387 498.109 62.556C498.379 62.864 498.519 63.2747 498.529 63.788C498.529 64.236 498.403 64.6373 498.151 64.992C497.908 65.3467 497.553 65.6267 497.087 65.832C496.629 66.028 496.093 66.126 495.477 66.126Z" fill="#FFE838"/>
<defs>
<filter id="filter0_dd_1148_15680" x="139" y="35" width="305" height="62" filterUnits="userSpaceOnUse" color-interpolation-filters="sRGB">
<feFlood flood-opacity="0" result="BackgroundImageFix"/>
<feColorMatrix in="SourceAlpha" type="matrix" values="0 0 0 0 0 0 0 0 0 0 0 0 0 0 0 0 0 0 127 0" result="hardAlpha"/>
<feMorphology radius="3" operator="erode" in="SourceAlpha" result="effect1_dropShadow_1148_15680"/>
<feOffset dy="4"/>
<feGaussianBlur stdDeviation="8"/>
<feComposite in2="hardAlpha" operator="out"/>
<feColorMatrix type="matrix" values="0 0 0 0 0.819608 0 0 0 0 0.262745 0 0 0 0 0.262745 0 0 0 0.25 0"/>
<feBlend mode="normal" in2="BackgroundImageFix" result="effect1_dropShadow_1148_15680"/>
<feColorMatrix in="SourceAlpha" type="matrix" values="0 0 0 0 0 0 0 0 0 0 0 0 0 0 0 0 0 0 127 0" result="hardAlpha"/>
<feMorphology radius="2" operator="erode" in="SourceAlpha" result="effect2_dropShadow_1148_15680"/>
<feOffset dy="1"/>
<feGaussianBlur stdDeviation="2.5"/>
<feComposite in2="hardAlpha" operator="out"/>
<feColorMatrix type="matrix" values="0 0 0 0 0.819608 0 0 0 0 0.262745 0 0 0 0 0.262745 0 0 0 0.25 0"/>
<feBlend mode="normal" in2="effect1_dropShadow_1148_15680" result="effect2_dropShadow_1148_15680"/>
<feBlend mode="normal" in="SourceGraphic" in2="effect2_dropShadow_1148_15680" result="shape"/>
</filter>
</defs>
</svg>
