<svg width="327" height="117" viewBox="0 0 327 117" fill="none" xmlns="http://www.w3.org/2000/svg">
<path d="M24.5 52C24.5 47.8579 27.8579 44.5 32 44.5H295C299.142 44.5 302.5 47.8579 302.5 52V72C302.5 76.1421 299.142 79.5 295 79.5H32C27.8579 79.5 24.5 76.1421 24.5 72V52Z" fill="white"/>
<path d="M24.5 52C24.5 47.8579 27.8579 44.5 32 44.5H295C299.142 44.5 302.5 47.8579 302.5 52V72C302.5 76.1421 299.142 79.5 295 79.5H32C27.8579 79.5 24.5 76.1421 24.5 72V52Z" stroke="#E7E8EF"/>
<path d="M35.2216 67.169C34.7377 67.169 34.3002 67.0795 33.9091 66.9006C33.518 66.7183 33.2081 66.4548 32.9794 66.1101C32.754 65.7654 32.6413 65.3428 32.6413 64.8423C32.6413 64.4115 32.7242 64.0568 32.8899 63.7784C33.0556 63.5 33.2794 63.2796 33.5611 63.1172C33.8428 62.9548 34.1577 62.8321 34.5057 62.7493C34.8537 62.6664 35.2083 62.6035 35.5696 62.5604C36.027 62.5073 36.3982 62.4643 36.6832 62.4311C36.9683 62.3946 37.1754 62.3366 37.3047 62.2571C37.4339 62.1776 37.4986 62.0483 37.4986 61.8693V61.8345C37.4986 61.4003 37.3759 61.0639 37.1307 60.8253C36.8887 60.5866 36.5275 60.4673 36.0469 60.4673C35.5464 60.4673 35.152 60.5784 34.8636 60.8004C34.5786 61.0192 34.3814 61.2628 34.272 61.5312L32.875 61.2131C33.0407 60.7491 33.2827 60.3745 33.6009 60.0895C33.9223 59.8011 34.2919 59.5923 34.7095 59.4631C35.1271 59.3305 35.5663 59.2642 36.027 59.2642C36.3319 59.2642 36.6551 59.3007 36.9964 59.3736C37.3411 59.4432 37.6626 59.5724 37.9609 59.7614C38.2625 59.9503 38.5095 60.2204 38.7017 60.5717C38.8939 60.9197 38.9901 61.3722 38.9901 61.929V67H37.5384V65.956H37.4787C37.3826 66.1482 37.2384 66.3371 37.0462 66.5227C36.8539 66.7083 36.607 66.8625 36.3054 66.9851C36.0038 67.1077 35.6425 67.169 35.2216 67.169ZM35.5447 65.9759C35.9557 65.9759 36.3071 65.8946 36.5987 65.7322C36.8937 65.5698 37.1174 65.3577 37.2699 65.0959C37.4257 64.8307 37.5036 64.5473 37.5036 64.2457V63.2614C37.4505 63.3144 37.3478 63.3641 37.1953 63.4105C37.0462 63.4536 36.8755 63.4917 36.6832 63.5249C36.491 63.5547 36.3037 63.5829 36.1214 63.6094C35.9392 63.6326 35.7867 63.6525 35.6641 63.669C35.3757 63.7055 35.1122 63.7668 34.8736 63.853C34.6383 63.9392 34.4493 64.0634 34.3068 64.2259C34.1676 64.3849 34.098 64.5971 34.098 64.8622C34.098 65.2301 34.2339 65.5085 34.5057 65.6974C34.7775 65.883 35.1238 65.9759 35.5447 65.9759ZM43.8287 67.1491C43.2122 67.1491 42.662 66.9917 42.1781 66.6768C41.6975 66.3587 41.3197 65.9062 41.0446 65.3196C40.7728 64.7296 40.6369 64.022 40.6369 63.1967C40.6369 62.3714 40.7744 61.6655 41.0495 61.0788C41.3279 60.4922 41.7091 60.0431 42.193 59.7315C42.6769 59.42 43.2254 59.2642 43.8386 59.2642C44.3126 59.2642 44.6937 59.3438 44.9821 59.5028C45.2737 59.6586 45.4991 59.8409 45.6582 60.0497C45.8206 60.2585 45.9466 60.4425 46.036 60.6016H46.1255V56.8182H47.612V67H46.1603V65.8118H46.036C45.9466 65.9742 45.8173 66.1598 45.6483 66.3686C45.4825 66.5774 45.2538 66.7597 44.9622 66.9155C44.6705 67.0713 44.2927 67.1491 43.8287 67.1491ZM44.1568 65.8814C44.5843 65.8814 44.9456 65.7687 45.2406 65.5433C45.5389 65.3146 45.7643 64.9981 45.9167 64.5938C46.0725 64.1894 46.1504 63.7187 46.1504 63.1818C46.1504 62.6515 46.0742 62.1875 45.9217 61.7898C45.7692 61.392 45.5455 61.0821 45.2505 60.8601C44.9556 60.638 44.591 60.527 44.1568 60.527C43.7093 60.527 43.3365 60.643 43.0382 60.875C42.7399 61.107 42.5145 61.4235 42.362 61.8246C42.2129 62.2256 42.1383 62.678 42.1383 63.1818C42.1383 63.6922 42.2145 64.1513 42.367 64.5589C42.5195 64.9666 42.7449 65.2898 43.0431 65.5284C43.3448 65.7637 43.716 65.8814 44.1568 65.8814ZM49.7337 67V59.3636H51.1705V60.5767H51.25C51.3892 60.1657 51.6345 59.8426 51.9858 59.6072C52.3404 59.3686 52.7415 59.2493 53.1889 59.2493C53.2817 59.2493 53.3911 59.2526 53.517 59.2592C53.6463 59.2659 53.7474 59.2741 53.8203 59.2841V60.706C53.7607 60.6894 53.6546 60.6712 53.5021 60.6513C53.3497 60.6281 53.1972 60.6165 53.0447 60.6165C52.6934 60.6165 52.3802 60.6911 52.1051 60.8402C51.8333 60.986 51.6179 61.1899 51.4588 61.4517C51.2997 61.7102 51.2202 62.0052 51.2202 62.3366V67H49.7337ZM58.1245 67.1541C57.3721 67.1541 56.7241 66.9934 56.1806 66.6719C55.6403 66.3471 55.2227 65.8913 54.9277 65.3047C54.6361 64.7147 54.4902 64.0237 54.4902 63.2315C54.4902 62.4493 54.6361 61.7599 54.9277 61.1634C55.2227 60.5668 55.6337 60.1011 56.1607 59.7663C56.691 59.4316 57.3108 59.2642 58.0201 59.2642C58.4509 59.2642 58.8685 59.3355 59.2729 59.478C59.6773 59.6205 60.0402 59.8442 60.3617 60.1491C60.6832 60.4541 60.9367 60.8501 61.1223 61.3374C61.3079 61.8213 61.4007 62.4096 61.4007 63.1023V63.6293H55.3304V62.5156H59.9441C59.9441 62.1245 59.8645 61.7782 59.7054 61.4766C59.5463 61.1716 59.3226 60.9313 59.0343 60.7557C58.7492 60.58 58.4145 60.4922 58.03 60.4922C57.6124 60.4922 57.2478 60.5949 56.9363 60.8004C56.628 61.0026 56.3894 61.2678 56.2203 61.5959C56.0546 61.9207 55.9718 62.2737 55.9718 62.6548V63.5249C55.9718 64.0353 56.0613 64.4695 56.2402 64.8274C56.4225 65.1854 56.6761 65.4588 57.0009 65.6477C57.3257 65.8333 57.7052 65.9261 58.1394 65.9261C58.4211 65.9261 58.678 65.8864 58.91 65.8068C59.142 65.724 59.3425 65.6013 59.5115 65.4389C59.6806 65.2765 59.8098 65.076 59.8993 64.8374L61.3063 65.0909C61.1936 65.5052 60.9914 65.8681 60.6998 66.1797C60.4114 66.4879 60.0485 66.7282 59.611 66.9006C59.1768 67.0696 58.6813 67.1541 58.1245 67.1541ZM68.7724 61.228L67.4251 61.4666C67.3687 61.2943 67.2792 61.1302 67.1566 60.9744C67.0373 60.8187 66.8749 60.6911 66.6694 60.5916C66.4639 60.4922 66.207 60.4425 65.8988 60.4425C65.4779 60.4425 65.1265 60.5369 64.8448 60.7259C64.5631 60.9115 64.4222 61.1518 64.4222 61.4467C64.4222 61.7019 64.5167 61.9074 64.7056 62.0632C64.8945 62.219 65.1995 62.3466 65.6204 62.446L66.8335 62.7244C67.5361 62.8868 68.0598 63.1371 68.4045 63.4751C68.7492 63.8132 68.9215 64.2524 68.9215 64.7926C68.9215 65.25 68.7889 65.6577 68.5238 66.0156C68.262 66.3703 67.8957 66.6487 67.4251 66.8509C66.9577 67.053 66.4158 67.1541 65.7994 67.1541C64.9442 67.1541 64.2466 66.9718 63.7063 66.6072C63.1661 66.2393 62.8346 65.7173 62.712 65.0412L64.1488 64.8224C64.2383 65.197 64.4222 65.4804 64.7006 65.6726C64.979 65.8615 65.342 65.956 65.7894 65.956C66.2766 65.956 66.6661 65.8549 66.9577 65.6527C67.2494 65.4472 67.3952 65.197 67.3952 64.902C67.3952 64.6634 67.3058 64.4628 67.1268 64.3004C66.9511 64.138 66.681 64.0154 66.3164 63.9325L65.0238 63.6491C64.3112 63.4867 63.7842 63.2282 63.4428 62.8736C63.1048 62.5189 62.9357 62.0698 62.9357 61.5263C62.9357 61.0755 63.0617 60.6811 63.3136 60.343C63.5655 60.005 63.9135 59.7415 64.3576 59.5526C64.8017 59.3603 65.3105 59.2642 65.8839 59.2642C66.7092 59.2642 67.3588 59.4432 67.8327 59.8011C68.3067 60.1558 68.6199 60.6314 68.7724 61.228ZM76.2782 61.228L74.9309 61.4666C74.8746 61.2943 74.7851 61.1302 74.6625 60.9744C74.5431 60.8187 74.3807 60.6911 74.1752 60.5916C73.9698 60.4922 73.7129 60.4425 73.4047 60.4425C72.9837 60.4425 72.6324 60.5369 72.3507 60.7259C72.069 60.9115 71.9281 61.1518 71.9281 61.4467C71.9281 61.7019 72.0225 61.9074 72.2115 62.0632C72.4004 62.219 72.7053 62.3466 73.1262 62.446L74.3393 62.7244C75.042 62.8868 75.5656 63.1371 75.9103 63.4751C76.255 63.8132 76.4274 64.2524 76.4274 64.7926C76.4274 65.25 76.2948 65.6577 76.0297 66.0156C75.7678 66.3703 75.4016 66.6487 74.9309 66.8509C74.4636 67.053 73.9217 67.1541 73.3052 67.1541C72.4501 67.1541 71.7524 66.9718 71.2122 66.6072C70.6719 66.2393 70.3405 65.7173 70.2179 65.0412L71.6547 64.8224C71.7441 65.197 71.9281 65.4804 72.2065 65.6726C72.4849 65.8615 72.8478 65.956 73.2953 65.956C73.7825 65.956 74.1719 65.8549 74.4636 65.6527C74.7553 65.4472 74.9011 65.197 74.9011 64.902C74.9011 64.6634 74.8116 64.4628 74.6326 64.3004C74.457 64.138 74.1868 64.0154 73.8223 63.9325L72.5297 63.6491C71.8171 63.4867 71.2901 63.2282 70.9487 62.8736C70.6106 62.5189 70.4416 62.0698 70.4416 61.5263C70.4416 61.0755 70.5675 60.6811 70.8194 60.343C71.0713 60.005 71.4193 59.7415 71.8635 59.5526C72.3076 59.3603 72.8163 59.2642 73.3897 59.2642C74.215 59.2642 74.8646 59.4432 75.3386 59.8011C75.8126 60.1558 76.1258 60.6314 76.2782 61.228ZM81.353 67.1541C80.6006 67.1541 79.9527 66.9934 79.4091 66.6719C78.8688 66.3471 78.4512 65.8913 78.1562 65.3047C77.8646 64.7147 77.7188 64.0237 77.7188 63.2315C77.7188 62.4493 77.8646 61.7599 78.1562 61.1634C78.4512 60.5668 78.8622 60.1011 79.3892 59.7663C79.9195 59.4316 80.5393 59.2642 81.2486 59.2642C81.6795 59.2642 82.0971 59.3355 82.5014 59.478C82.9058 59.6205 83.2687 59.8442 83.5902 60.1491C83.9117 60.4541 84.1652 60.8501 84.3509 61.3374C84.5365 61.8213 84.6293 62.4096 84.6293 63.1023V63.6293H78.5589V62.5156H83.1726C83.1726 62.1245 83.093 61.7782 82.9339 61.4766C82.7749 61.1716 82.5511 60.9313 82.2628 60.7557C81.9777 60.58 81.643 60.4922 81.2585 60.4922C80.8409 60.4922 80.4763 60.5949 80.1648 60.8004C79.8565 61.0026 79.6179 61.2678 79.4489 61.5959C79.2831 61.9207 79.2003 62.2737 79.2003 62.6548V63.5249C79.2003 64.0353 79.2898 64.4695 79.4688 64.8274C79.651 65.1854 79.9046 65.4588 80.2294 65.6477C80.5542 65.8333 80.9337 65.9261 81.3679 65.9261C81.6496 65.9261 81.9065 65.8864 82.1385 65.8068C82.3705 65.724 82.571 65.6013 82.7401 65.4389C82.9091 65.2765 83.0384 65.076 83.1278 64.8374L84.5348 65.0909C84.4221 65.5052 84.2199 65.8681 83.9283 66.1797C83.6399 66.4879 83.277 66.7282 82.8395 66.9006C82.4053 67.0696 81.9098 67.1541 81.353 67.1541ZM92.4086 69.7692C91.3811 69.7692 90.4696 69.6283 89.6742 69.3466C88.882 69.0682 88.2142 68.6572 87.6706 68.1136C87.1271 67.5734 86.7144 66.9105 86.4327 66.125C86.151 65.3395 86.0101 64.4429 86.0101 63.4354C86.0101 62.4543 86.1526 61.5727 86.4377 60.7905C86.7227 60.0083 87.137 59.3421 87.6806 58.7919C88.2275 58.2384 88.892 57.8158 89.6742 57.5241C90.4564 57.2325 91.3446 57.0866 92.339 57.0866C93.2902 57.0866 94.1287 57.2358 94.8546 57.5341C95.5804 57.8324 96.1903 58.2417 96.6841 58.7621C97.1813 59.2824 97.5558 59.879 97.8077 60.5518C98.0596 61.2247 98.1855 61.9356 98.1855 62.6847C98.1855 63.2083 98.1524 63.7204 98.0861 64.2209C98.0198 64.718 97.8972 65.1688 97.7182 65.5732C97.5426 65.9742 97.2873 66.2957 96.9526 66.5376C96.6212 66.7763 96.1903 66.9006 95.66 66.9105C95.3783 66.9205 95.1048 66.8873 94.8397 66.8111C94.5745 66.7348 94.3491 66.6122 94.1635 66.4432C93.9779 66.2708 93.8652 66.0521 93.8255 65.7869H93.7658C93.6863 65.9825 93.5537 66.1648 93.3681 66.3338C93.1825 66.4995 92.9455 66.6321 92.6571 66.7315C92.3721 66.8277 92.0407 66.8674 91.6628 66.8509C91.2452 66.8343 90.869 66.7398 90.5343 66.5675C90.1995 66.3951 89.9128 66.1565 89.6742 65.8516C89.4389 65.5466 89.2582 65.1854 89.1323 64.7678C89.0063 64.3501 88.9434 63.8861 88.9434 63.3757C88.9434 62.8852 89.0146 62.446 89.1571 62.0582C89.2997 61.6671 89.4935 61.3307 89.7388 61.049C89.9874 60.764 90.2724 60.5386 90.5939 60.3729C90.9154 60.2071 91.2551 60.1027 91.6131 60.0597C91.9611 60.0199 92.281 60.0298 92.5726 60.0895C92.8643 60.1491 93.1062 60.2403 93.2985 60.3629C93.494 60.4856 93.6167 60.6198 93.6664 60.7656H93.731V60.2088H94.954V64.8224C94.954 65.0843 95.022 65.3063 95.1578 65.4886C95.2971 65.6709 95.4943 65.7621 95.7495 65.7621C96.0511 65.7621 96.2864 65.651 96.4554 65.429C96.6278 65.2069 96.7488 64.8655 96.8184 64.4048C96.8913 63.9441 96.9277 63.3542 96.9277 62.6349C96.9277 62.1312 96.8598 61.6572 96.7239 61.2131C96.5913 60.7656 96.3941 60.3613 96.1323 60C95.8738 59.6354 95.5556 59.3222 95.1777 59.0604C94.7999 58.7985 94.369 58.5964 93.8851 58.4538C93.4045 58.3113 92.8726 58.2401 92.2892 58.2401C91.4971 58.2401 90.7928 58.3627 90.1763 58.608C89.5598 58.8499 89.0395 59.1996 88.6152 59.657C88.1943 60.1143 87.8745 60.6629 87.6557 61.3026C87.4403 61.9389 87.3326 62.6532 87.3326 63.4453C87.3326 64.2706 87.4436 65.0031 87.6657 65.6428C87.8877 66.2791 88.2159 66.8161 88.65 67.2536C89.0842 67.6911 89.6212 68.0225 90.2608 68.2479C90.9005 68.4766 91.638 68.5909 92.4732 68.5909C92.8444 68.5909 93.209 68.5578 93.5669 68.4915C93.9249 68.4285 94.2431 68.3556 94.5215 68.2727C94.8032 68.1932 95.0137 68.1286 95.1529 68.0788L95.5009 69.1676C95.2954 69.2637 95.022 69.3582 94.6806 69.451C94.3425 69.5438 93.9746 69.62 93.5769 69.6797C93.1825 69.7393 92.793 69.7692 92.4086 69.7692ZM91.9512 65.6328C92.382 65.6328 92.7284 65.5466 92.9902 65.3743C93.2554 65.2019 93.446 64.9451 93.562 64.6037C93.6813 64.259 93.7409 63.8281 93.7409 63.3111C93.7376 62.8073 93.673 62.4062 93.5471 62.108C93.4244 61.8063 93.2322 61.5909 92.9703 61.4616C92.7118 61.3291 92.3787 61.2628 91.9711 61.2628C91.5965 61.2628 91.2767 61.3539 91.0115 61.5362C90.7497 61.7185 90.5492 61.9654 90.41 62.277C90.2741 62.5885 90.2045 62.9349 90.2012 63.3161C90.2045 63.7171 90.2608 64.0949 90.3702 64.4496C90.4829 64.8009 90.6652 65.0859 90.9171 65.3047C91.1723 65.5234 91.517 65.6328 91.9512 65.6328ZM99.8274 67V59.3636H101.254V60.6065H101.349C101.508 60.1856 101.768 59.8575 102.129 59.6222C102.491 59.3835 102.923 59.2642 103.427 59.2642C103.937 59.2642 104.365 59.3835 104.71 59.6222C105.058 59.8608 105.314 60.1889 105.48 60.6065H105.56C105.742 60.1989 106.032 59.8741 106.43 59.6321C106.827 59.3868 107.301 59.2642 107.852 59.2642C108.544 59.2642 109.109 59.4813 109.547 59.9155C109.988 60.3497 110.208 61.0043 110.208 61.8793V67H108.722V62.0185C108.722 61.5014 108.581 61.1269 108.299 60.8949C108.017 60.6629 107.681 60.5469 107.29 60.5469C106.806 60.5469 106.43 60.696 106.161 60.9943C105.893 61.2893 105.759 61.6688 105.759 62.1328V67H104.277V61.924C104.277 61.5097 104.148 61.1766 103.889 60.9247C103.631 60.6728 103.294 60.5469 102.88 60.5469C102.598 60.5469 102.338 60.6214 102.099 60.7706C101.864 60.9164 101.674 61.1203 101.528 61.3821C101.385 61.6439 101.314 61.9472 101.314 62.2919V67H99.8274ZM114.423 67.169C113.939 67.169 113.501 67.0795 113.11 66.9006C112.719 66.7183 112.409 66.4548 112.181 66.1101C111.955 65.7654 111.843 65.3428 111.843 64.8423C111.843 64.4115 111.925 64.0568 112.091 63.7784C112.257 63.5 112.481 63.2796 112.762 63.1172C113.044 62.9548 113.359 62.8321 113.707 62.7493C114.055 62.6664 114.41 62.6035 114.771 62.5604C115.228 62.5073 115.599 62.4643 115.884 62.4311C116.169 62.3946 116.377 62.3366 116.506 62.2571C116.635 62.1776 116.7 62.0483 116.7 61.8693V61.8345C116.7 61.4003 116.577 61.0639 116.332 60.8253C116.09 60.5866 115.729 60.4673 115.248 60.4673C114.748 60.4673 114.353 60.5784 114.065 60.8004C113.78 61.0192 113.583 61.2628 113.473 61.5312L112.076 61.2131C112.242 60.7491 112.484 60.3745 112.802 60.0895C113.124 59.8011 113.493 59.5923 113.911 59.4631C114.328 59.3305 114.767 59.2642 115.228 59.2642C115.533 59.2642 115.856 59.3007 116.198 59.3736C116.542 59.4432 116.864 59.5724 117.162 59.7614C117.464 59.9503 117.711 60.2204 117.903 60.5717C118.095 60.9197 118.191 61.3722 118.191 61.929V67H116.74V65.956H116.68C116.584 66.1482 116.44 66.3371 116.247 66.5227C116.055 66.7083 115.808 66.8625 115.507 66.9851C115.205 67.1077 114.844 67.169 114.423 67.169ZM114.746 65.9759C115.157 65.9759 115.508 65.8946 115.8 65.7322C116.095 65.5698 116.319 65.3577 116.471 65.0959C116.627 64.8307 116.705 64.5473 116.705 64.2457V63.2614C116.652 63.3144 116.549 63.3641 116.396 63.4105C116.247 63.4536 116.077 63.4917 115.884 63.5249C115.692 63.5547 115.505 63.5829 115.323 63.6094C115.14 63.6326 114.988 63.6525 114.865 63.669C114.577 63.7055 114.313 63.7668 114.075 63.853C113.839 63.9392 113.651 64.0634 113.508 64.2259C113.369 64.3849 113.299 64.5971 113.299 64.8622C113.299 65.2301 113.435 65.5085 113.707 65.6974C113.979 65.883 114.325 65.9759 114.746 65.9759ZM120.171 67V59.3636H121.658V67H120.171ZM120.922 58.1854C120.663 58.1854 120.441 58.0992 120.256 57.9268C120.073 57.7512 119.982 57.5424 119.982 57.3004C119.982 57.0552 120.073 56.8464 120.256 56.674C120.441 56.4983 120.663 56.4105 120.922 56.4105C121.18 56.4105 121.401 56.4983 121.583 56.674C121.769 56.8464 121.862 57.0552 121.862 57.3004C121.862 57.5424 121.769 57.7512 121.583 57.9268C121.401 58.0992 121.18 58.1854 120.922 58.1854ZM125.144 56.8182V67H123.657V56.8182H125.144ZM128.123 67.0945C127.851 67.0945 127.618 66.9983 127.422 66.8061C127.227 66.6106 127.129 66.3752 127.129 66.1001C127.129 65.8284 127.227 65.5964 127.422 65.4041C127.618 65.2086 127.851 65.1108 128.123 65.1108C128.395 65.1108 128.629 65.2086 128.824 65.4041C129.02 65.5964 129.118 65.8284 129.118 66.1001C129.118 66.2824 129.071 66.4498 128.978 66.6023C128.889 66.7514 128.77 66.8707 128.62 66.9602C128.471 67.0497 128.306 67.0945 128.123 67.0945ZM134.325 67.1541C133.586 67.1541 132.95 66.9867 132.416 66.652C131.886 66.3139 131.478 65.8482 131.193 65.255C130.908 64.6617 130.766 63.9822 130.766 63.2166C130.766 62.4411 130.911 61.7566 131.203 61.1634C131.495 60.5668 131.906 60.1011 132.436 59.7663C132.966 59.4316 133.591 59.2642 134.31 59.2642C134.89 59.2642 135.407 59.3719 135.862 59.5874C136.316 59.7995 136.682 60.0978 136.96 60.4822C137.242 60.8667 137.409 61.3158 137.462 61.8295H136.016C135.936 61.4716 135.754 61.1634 135.469 60.9048C135.187 60.6463 134.809 60.517 134.335 60.517C133.921 60.517 133.558 60.6264 133.246 60.8452C132.938 61.0606 132.698 61.3688 132.526 61.7699C132.353 62.1676 132.267 62.6383 132.267 63.1818C132.267 63.7386 132.352 64.2192 132.521 64.6236C132.69 65.0279 132.928 65.3411 133.237 65.5632C133.548 65.7853 133.914 65.8963 134.335 65.8963C134.617 65.8963 134.872 65.8449 135.101 65.7422C135.333 65.6361 135.527 65.4853 135.683 65.2898C135.842 65.0942 135.953 64.8589 136.016 64.5838H137.462C137.409 65.0777 137.249 65.5185 136.98 65.9062C136.712 66.294 136.352 66.599 135.901 66.821C135.454 67.0431 134.929 67.1541 134.325 67.1541ZM142.269 67.1541C141.553 67.1541 140.928 66.9901 140.394 66.6619C139.861 66.3338 139.446 65.8748 139.151 65.2848C138.856 64.6948 138.709 64.0054 138.709 63.2166C138.709 62.4245 138.856 61.7318 139.151 61.1385C139.446 60.5452 139.861 60.0845 140.394 59.7564C140.928 59.4283 141.553 59.2642 142.269 59.2642C142.985 59.2642 143.609 59.4283 144.143 59.7564C144.677 60.0845 145.091 60.5452 145.386 61.1385C145.681 61.7318 145.828 62.4245 145.828 63.2166C145.828 64.0054 145.681 64.6948 145.386 65.2848C145.091 65.8748 144.677 66.3338 144.143 66.6619C143.609 66.9901 142.985 67.1541 142.269 67.1541ZM142.274 65.9062C142.738 65.9062 143.122 65.7836 143.427 65.5384C143.732 65.2931 143.957 64.9666 144.103 64.5589C144.252 64.1513 144.327 63.7022 144.327 63.2116C144.327 62.7244 144.252 62.277 144.103 61.8693C143.957 61.4583 143.732 61.1286 143.427 60.88C143.122 60.6314 142.738 60.5071 142.274 60.5071C141.806 60.5071 141.419 60.6314 141.11 60.88C140.805 61.1286 140.578 61.4583 140.429 61.8693C140.283 62.277 140.21 62.7244 140.21 63.2116C140.21 63.7022 140.283 64.1513 140.429 64.5589C140.578 64.9666 140.805 65.2931 141.11 65.5384C141.419 65.7836 141.806 65.9062 142.274 65.9062ZM147.488 67V59.3636H148.914V60.6065H149.009C149.168 60.1856 149.428 59.8575 149.789 59.6222C150.151 59.3835 150.583 59.2642 151.087 59.2642C151.597 59.2642 152.025 59.3835 152.37 59.6222C152.718 59.8608 152.975 60.1889 153.14 60.6065H153.22C153.402 60.1989 153.692 59.8741 154.09 59.6321C154.488 59.3868 154.962 59.2642 155.512 59.2642C156.204 59.2642 156.77 59.4813 157.207 59.9155C157.648 60.3497 157.868 61.0043 157.868 61.8793V67H156.382V62.0185C156.382 61.5014 156.241 61.1269 155.959 60.8949C155.677 60.6629 155.341 60.5469 154.95 60.5469C154.466 60.5469 154.09 60.696 153.821 60.9943C153.553 61.2893 153.419 61.6688 153.419 62.1328V67H151.937V61.924C151.937 61.5097 151.808 61.1766 151.549 60.9247C151.291 60.6728 150.954 60.5469 150.54 60.5469C150.258 60.5469 149.998 60.6214 149.76 60.7706C149.524 60.9164 149.334 61.1203 149.188 61.3821C149.045 61.6439 148.974 61.9472 148.974 62.2919V67H147.488ZM160.84 67.0945C160.568 67.0945 160.335 66.9983 160.139 66.8061C159.943 66.6106 159.846 66.3752 159.846 66.1001C159.846 65.8284 159.943 65.5964 160.139 65.4041C160.335 65.2086 160.568 65.1108 160.84 65.1108C161.112 65.1108 161.345 65.2086 161.541 65.4041C161.737 65.5964 161.834 65.8284 161.834 66.1001C161.834 66.2824 161.788 66.4498 161.695 66.6023C161.606 66.7514 161.486 66.8707 161.337 66.9602C161.188 67.0497 161.022 67.0945 160.84 67.0945ZM164.805 67.0945C164.533 67.0945 164.299 66.9983 164.104 66.8061C163.908 66.6106 163.811 66.3752 163.811 66.1001C163.811 65.8284 163.908 65.5964 164.104 65.4041C164.299 65.2086 164.533 65.1108 164.805 65.1108C165.077 65.1108 165.31 65.2086 165.506 65.4041C165.701 65.5964 165.799 65.8284 165.799 66.1001C165.799 66.2824 165.753 66.4498 165.66 66.6023C165.57 66.7514 165.451 66.8707 165.302 66.9602C165.153 67.0497 164.987 67.0945 164.805 67.0945ZM168.77 67.0945C168.498 67.0945 168.264 66.9983 168.069 66.8061C167.873 66.6106 167.775 66.3752 167.775 66.1001C167.775 65.8284 167.873 65.5964 168.069 65.4041C168.264 65.2086 168.498 65.1108 168.77 65.1108C169.041 65.1108 169.275 65.2086 169.471 65.4041C169.666 65.5964 169.764 65.8284 169.764 66.1001C169.764 66.2824 169.718 66.4498 169.625 66.6023C169.535 66.7514 169.416 66.8707 169.267 66.9602C169.118 67.0497 168.952 67.0945 168.77 67.0945Z" fill="#6F7595"/>
<path d="M292.583 55.9045C293.084 55.3727 292.707 54.5 291.977 54.5H278.359C277.605 54.5 277.239 55.4215 277.787 55.9392L283.783 61.6015C284.788 62.5506 286.372 62.504 287.32 61.4973L292.583 55.9045Z" fill="#6F7595"/>
<path d="M277.24 57.7144C276.708 57.2125 275.834 57.5893 275.834 58.3203V66.1667C275.834 68.0076 277.326 69.5 279.167 69.5H290.834C292.675 69.5 294.167 68.0076 294.167 66.1667V58.7547C294.167 58.0001 293.244 57.634 292.727 58.1836L288.533 62.6396C286.954 64.3174 284.313 64.3951 282.638 62.8131L277.24 57.7144Z" fill="#6F7595"/>
<path d="M24.7706 31V20.8182H31.87V22.8168H27.2315V24.9048H31.5071V26.9084H27.2315V29.0014H31.87V31H24.7706ZM33.4112 31V23.3636H35.723V24.7656H35.8075C35.9666 24.3016 36.2351 23.9354 36.6129 23.6669C36.9908 23.3984 37.4415 23.2642 37.9652 23.2642C38.4955 23.2642 38.9496 23.4001 39.3274 23.6719C39.7053 23.9437 39.9455 24.3082 40.0483 24.7656H40.1278C40.2704 24.3116 40.5488 23.9486 40.9631 23.6768C41.3774 23.4018 41.8662 23.2642 42.4297 23.2642C43.1522 23.2642 43.7389 23.4962 44.1896 23.9602C44.6404 24.4209 44.8658 25.054 44.8658 25.8594V31H42.4347V26.4162C42.4347 26.035 42.3369 25.745 42.1413 25.5462C41.9458 25.344 41.6922 25.2429 41.3807 25.2429C41.0459 25.2429 40.7824 25.3523 40.5902 25.571C40.4013 25.7865 40.3068 26.0765 40.3068 26.4411V31H37.9702V26.3913C37.9702 26.0367 37.8741 25.7566 37.6818 25.5511C37.4896 25.3456 37.236 25.2429 36.9212 25.2429C36.709 25.2429 36.5218 25.2943 36.3594 25.397C36.197 25.4964 36.0694 25.639 35.9766 25.8246C35.8871 26.0102 35.8423 26.2289 35.8423 26.4808V31H33.4112ZM48.5249 31.1293C48.0376 31.1293 47.6051 31.0481 47.2273 30.8857C46.8527 30.7199 46.5561 30.4714 46.3374 30.1399C46.1219 29.8052 46.0142 29.3859 46.0142 28.8821C46.0142 28.4579 46.0888 28.0999 46.2379 27.8082C46.3871 27.5166 46.5926 27.2796 46.8544 27.0973C47.1162 26.915 47.4179 26.7775 47.7592 26.6847C48.1006 26.5885 48.4652 26.5239 48.853 26.4908C49.2872 26.451 49.6368 26.4096 49.902 26.3665C50.1671 26.3201 50.3594 26.2554 50.4787 26.1726C50.6013 26.0864 50.6626 25.9654 50.6626 25.8097V25.7848C50.6626 25.5296 50.5748 25.3324 50.3991 25.1932C50.2235 25.054 49.9865 24.9844 49.6882 24.9844C49.3667 24.9844 49.1082 25.054 48.9126 25.1932C48.7171 25.3324 48.5928 25.5246 48.5398 25.7699L46.2976 25.6903C46.3639 25.2263 46.5346 24.812 46.8097 24.4474C47.0881 24.0795 47.4692 23.7912 47.9531 23.5824C48.4403 23.3703 49.0253 23.2642 49.7081 23.2642C50.1953 23.2642 50.6444 23.3222 51.0554 23.4382C51.4664 23.5509 51.8243 23.7166 52.1293 23.9354C52.4342 24.1508 52.6695 24.416 52.8352 24.7308C53.0043 25.0457 53.0888 25.4053 53.0888 25.8097V31H50.8018V29.9361H50.7422C50.6063 30.1946 50.4323 30.4134 50.2202 30.5923C50.0114 30.7713 49.7644 30.9055 49.4794 30.995C49.1977 31.0845 48.8795 31.1293 48.5249 31.1293ZM49.2756 29.5384C49.5374 29.5384 49.7727 29.4853 49.9815 29.3793C50.1937 29.2732 50.3627 29.1274 50.4886 28.9418C50.6146 28.7528 50.6776 28.5341 50.6776 28.2855V27.5597C50.608 27.5961 50.5234 27.6293 50.424 27.6591C50.3279 27.6889 50.2218 27.7171 50.1058 27.7436C49.9898 27.7701 49.8705 27.7933 49.7479 27.8132C49.6252 27.8331 49.5076 27.8513 49.3949 27.8679C49.1662 27.9044 48.9706 27.9607 48.8082 28.0369C48.6491 28.1132 48.5265 28.2126 48.4403 28.3352C48.3575 28.4545 48.3161 28.5971 48.3161 28.7628C48.3161 29.0147 48.4055 29.2069 48.5845 29.3395C48.7668 29.4721 48.9972 29.5384 49.2756 29.5384ZM54.5753 31V23.3636H57.0064V31H54.5753ZM55.7933 22.4737C55.4519 22.4737 55.1586 22.361 54.9134 22.1357C54.6681 21.907 54.5455 21.6319 54.5455 21.3104C54.5455 20.9922 54.6681 20.7204 54.9134 20.495C55.1586 20.2663 55.4519 20.152 55.7933 20.152C56.138 20.152 56.4313 20.2663 56.6733 20.495C56.9186 20.7204 57.0412 20.9922 57.0412 21.3104C57.0412 21.6319 56.9186 21.907 56.6733 22.1357C56.4313 22.361 56.138 22.4737 55.7933 22.4737ZM60.9849 20.8182V31H58.5538V20.8182H60.9849Z" fill="#101940"/>
<path d="M159.62 101.228V111H157.66V104.644L155.042 111H153.558L150.926 104.644V111H148.966V101.228H151.192L154.3 108.494L157.408 101.228H159.62ZM161.334 107.094C161.334 106.31 161.488 105.615 161.796 105.008C162.113 104.401 162.538 103.935 163.07 103.608C163.611 103.281 164.213 103.118 164.876 103.118C165.454 103.118 165.958 103.235 166.388 103.468C166.826 103.701 167.176 103.995 167.438 104.35V103.244H169.412V111H167.438V109.866C167.186 110.23 166.836 110.533 166.388 110.776C165.949 111.009 165.44 111.126 164.862 111.126C164.208 111.126 163.611 110.958 163.07 110.622C162.538 110.286 162.113 109.815 161.796 109.208C161.488 108.592 161.334 107.887 161.334 107.094ZM167.438 107.122C167.438 106.646 167.344 106.24 167.158 105.904C166.971 105.559 166.719 105.297 166.402 105.12C166.084 104.933 165.744 104.84 165.38 104.84C165.016 104.84 164.68 104.929 164.372 105.106C164.064 105.283 163.812 105.545 163.616 105.89C163.429 106.226 163.336 106.627 163.336 107.094C163.336 107.561 163.429 107.971 163.616 108.326C163.812 108.671 164.064 108.937 164.372 109.124C164.689 109.311 165.025 109.404 165.38 109.404C165.744 109.404 166.084 109.315 166.402 109.138C166.719 108.951 166.971 108.69 167.158 108.354C167.344 108.009 167.438 107.598 167.438 107.122ZM172.6 102.32C172.255 102.32 171.965 102.213 171.732 101.998C171.508 101.774 171.396 101.499 171.396 101.172C171.396 100.845 171.508 100.575 171.732 100.36C171.965 100.136 172.255 100.024 172.6 100.024C172.945 100.024 173.23 100.136 173.454 100.36C173.687 100.575 173.804 100.845 173.804 101.172C173.804 101.499 173.687 101.774 173.454 101.998C173.23 102.213 172.945 102.32 172.6 102.32ZM173.566 103.244V111H171.606V103.244H173.566ZM177.743 100.64V111H175.783V100.64H177.743Z" fill="#FFE838"/>
</svg>
