<svg width="327" height="117" viewBox="0 0 327 117" fill="none" xmlns="http://www.w3.org/2000/svg">
<path d="M24.5 52C24.5 47.8579 27.8579 44.5 32 44.5H295C299.142 44.5 302.5 47.8579 302.5 52V72C302.5 76.1421 299.142 79.5 295 79.5H32C27.8579 79.5 24.5 76.1421 24.5 72V52Z" fill="white"/>
<path d="M24.5 52C24.5 47.8579 27.8579 44.5 32 44.5H295C299.142 44.5 302.5 47.8579 302.5 52V72C302.5 76.1421 299.142 79.5 295 79.5H32C27.8579 79.5 24.5 76.1421 24.5 72V52Z" stroke="#E7E8EF"/>
<path d="M32.9993 67V59.3636H34.4261V60.6065H34.5206C34.6797 60.1856 34.9399 59.8575 35.3011 59.6222C35.6624 59.3835 36.0949 59.2642 36.5987 59.2642C37.1091 59.2642 37.5367 59.3835 37.8814 59.6222C38.2294 59.8608 38.4863 60.1889 38.652 60.6065H38.7315C38.9138 60.1989 39.2038 59.8741 39.6016 59.6321C39.9993 59.3868 40.4732 59.2642 41.0234 59.2642C41.7161 59.2642 42.2812 59.4813 42.7188 59.9155C43.1596 60.3497 43.38 61.0043 43.38 61.8793V67H41.8935V62.0185C41.8935 61.5014 41.7526 61.1269 41.4709 60.8949C41.1892 60.6629 40.8527 60.5469 40.4616 60.5469C39.9777 60.5469 39.6016 60.696 39.3331 60.9943C39.0646 61.2893 38.9304 61.6688 38.9304 62.1328V67H37.4489V61.924C37.4489 61.5097 37.3196 61.1766 37.0611 60.9247C36.8026 60.6728 36.4661 60.5469 36.0518 60.5469C35.7701 60.5469 35.5099 60.6214 35.2713 60.7706C35.036 60.9164 34.8454 61.1203 34.6996 61.3821C34.5571 61.6439 34.4858 61.9472 34.4858 62.2919V67H32.9993ZM48.8972 67.169C48.1117 67.1657 47.4405 66.9586 46.8837 66.5476C46.3269 66.1366 45.901 65.5384 45.606 64.7528C45.311 63.9673 45.1635 63.0211 45.1635 61.9141C45.1635 60.8104 45.311 59.8674 45.606 59.0852C45.9043 58.303 46.3319 57.7064 46.8887 57.2955C47.4488 56.8845 48.1183 56.679 48.8972 56.679C49.6761 56.679 50.3439 56.8861 50.9007 57.3004C51.4576 57.7114 51.8835 58.308 52.1784 59.0902C52.4767 59.8691 52.6259 60.8104 52.6259 61.9141C52.6259 63.0244 52.4784 63.9723 52.1834 64.7578C51.8884 65.54 51.4625 66.1383 50.9057 66.5526C50.3489 66.9635 49.6794 67.169 48.8972 67.169ZM48.8972 65.8416C49.5866 65.8416 50.1252 65.5052 50.513 64.8324C50.9041 64.1596 51.0996 63.1868 51.0996 61.9141C51.0996 61.0689 51.0101 60.3546 50.8311 59.7713C50.6555 59.1847 50.4019 58.7405 50.0705 58.4389C49.7424 58.134 49.3513 57.9815 48.8972 57.9815C48.2111 57.9815 47.6725 58.3196 47.2814 58.9957C46.8903 59.6719 46.6931 60.6446 46.6898 61.9141C46.6898 62.7625 46.7776 63.4801 46.9533 64.0668C47.1323 64.6501 47.3858 65.0926 47.714 65.3942C48.0421 65.6925 48.4365 65.8416 48.8972 65.8416ZM57.9741 59.3636V60.5568H53.8029V59.3636H57.9741ZM54.9215 57.5341H56.408V64.7578C56.408 65.0462 56.4511 65.2633 56.5373 65.4091C56.6235 65.5516 56.7345 65.6494 56.8704 65.7024C57.0096 65.7521 57.1604 65.777 57.3228 65.777C57.4421 65.777 57.5465 65.7687 57.636 65.7521C57.7255 65.7356 57.7951 65.7223 57.8448 65.7124L58.1133 66.9403C58.0271 66.9735 57.9045 67.0066 57.7454 67.0398C57.5863 67.0762 57.3874 67.0961 57.1488 67.0994C56.7577 67.1061 56.3931 67.0365 56.055 66.8906C55.717 66.7448 55.4435 66.5194 55.2347 66.2145C55.0259 65.9096 54.9215 65.5268 54.9215 65.0661V57.5341ZM62.3951 67.1491C61.7786 67.1491 61.2284 66.9917 60.7445 66.6768C60.2639 66.3587 59.8861 65.9062 59.611 65.3196C59.3392 64.7296 59.2033 64.022 59.2033 63.1967C59.2033 62.3714 59.3408 61.6655 59.6159 61.0788C59.8944 60.4922 60.2755 60.0431 60.7594 59.7315C61.2433 59.42 61.7918 59.2642 62.405 59.2642C62.879 59.2642 63.2601 59.3438 63.5485 59.5028C63.8401 59.6586 64.0655 59.8409 64.2246 60.0497C64.387 60.2585 64.513 60.4425 64.6025 60.6016H64.6919V56.8182H66.1784V67H64.7267V65.8118H64.6025C64.513 65.9742 64.3837 66.1598 64.2147 66.3686C64.0489 66.5774 63.8203 66.7597 63.5286 66.9155C63.2369 67.0713 62.8591 67.1491 62.3951 67.1491ZM62.7232 65.8814C63.1507 65.8814 63.512 65.7687 63.807 65.5433C64.1053 65.3146 64.3307 64.9981 64.4831 64.5938C64.6389 64.1894 64.7168 63.7187 64.7168 63.1818C64.7168 62.6515 64.6406 62.1875 64.4881 61.7898C64.3356 61.392 64.1119 61.0821 63.8169 60.8601C63.522 60.638 63.1574 60.527 62.7232 60.527C62.2757 60.527 61.9029 60.643 61.6046 60.875C61.3063 61.107 61.0809 61.4235 60.9284 61.8246C60.7793 62.2256 60.7047 62.678 60.7047 63.1818C60.7047 63.6922 60.781 64.1513 60.9334 64.5589C61.0859 64.9666 61.3113 65.2898 61.6096 65.5284C61.9112 65.7637 62.2824 65.8814 62.7232 65.8814ZM71.5913 67.1541C70.8389 67.1541 70.1909 66.9934 69.6474 66.6719C69.1071 66.3471 68.6895 65.8913 68.3945 65.3047C68.1029 64.7147 67.957 64.0237 67.957 63.2315C67.957 62.4493 68.1029 61.7599 68.3945 61.1634C68.6895 60.5668 69.1005 60.1011 69.6275 59.7663C70.1578 59.4316 70.7776 59.2642 71.4869 59.2642C71.9177 59.2642 72.3353 59.3355 72.7397 59.478C73.1441 59.6205 73.507 59.8442 73.8285 60.1491C74.15 60.4541 74.4035 60.8501 74.5891 61.3374C74.7747 61.8213 74.8675 62.4096 74.8675 63.1023V63.6293H68.7972V62.5156H73.4109C73.4109 62.1245 73.3313 61.7782 73.1722 61.4766C73.0131 61.1716 72.7894 60.9313 72.5011 60.7557C72.216 60.58 71.8813 60.4922 71.4968 60.4922C71.0792 60.4922 70.7146 60.5949 70.4031 60.8004C70.0948 61.0026 69.8562 61.2678 69.6871 61.5959C69.5214 61.9207 69.4386 62.2737 69.4386 62.6548V63.5249C69.4386 64.0353 69.5281 64.4695 69.707 64.8274C69.8893 65.1854 70.1429 65.4588 70.4677 65.6477C70.7925 65.8333 71.172 65.9261 71.6062 65.9261C71.8879 65.9261 72.1448 65.8864 72.3768 65.8068C72.6088 65.724 72.8093 65.6013 72.9783 65.4389C73.1474 65.2765 73.2766 65.076 73.3661 64.8374L74.7731 65.0909C74.6604 65.5052 74.4582 65.8681 74.1665 66.1797C73.8782 66.4879 73.5153 66.7282 73.0778 66.9006C72.6436 67.0696 72.1481 67.1541 71.5913 67.1541ZM76.5169 69.8636V59.3636H77.9686V60.6016H78.0929C78.179 60.4425 78.3033 60.2585 78.4657 60.0497C78.6281 59.8409 78.8535 59.6586 79.1419 59.5028C79.4302 59.3438 79.8114 59.2642 80.2853 59.2642C80.9018 59.2642 81.452 59.42 81.9359 59.7315C82.4198 60.0431 82.7993 60.4922 83.0744 61.0788C83.3528 61.6655 83.492 62.3714 83.492 63.1967C83.492 64.022 83.3545 64.7296 83.0794 65.3196C82.8043 65.9062 82.4264 66.3587 81.9458 66.6768C81.4653 66.9917 80.9167 67.1491 80.3002 67.1491C79.8362 67.1491 79.4567 67.0713 79.1618 66.9155C78.8701 66.7597 78.6414 66.5774 78.4757 66.3686C78.31 66.1598 78.1824 65.9742 78.0929 65.8118H78.0034V69.8636H76.5169ZM77.9735 63.1818C77.9735 63.7187 78.0514 64.1894 78.2072 64.5938C78.363 64.9981 78.5884 65.3146 78.8833 65.5433C79.1783 65.7687 79.5396 65.8814 79.9672 65.8814C80.4113 65.8814 80.7825 65.7637 81.0808 65.5284C81.3791 65.2898 81.6045 64.9666 81.7569 64.5589C81.9127 64.1513 81.9906 63.6922 81.9906 63.1818C81.9906 62.678 81.9144 62.2256 81.7619 61.8246C81.6127 61.4235 81.3874 61.107 81.0858 60.875C80.7875 60.643 80.4146 60.527 79.9672 60.527C79.5363 60.527 79.1717 60.638 78.8734 60.8601C78.5784 61.0821 78.3547 61.392 78.2022 61.7898C78.0498 62.1875 77.9735 62.6515 77.9735 63.1818ZM84.9238 65.0114V63.7685L89.3237 56.8182H90.3031V58.6477H89.6816L86.5346 63.6293V63.7088H92.5652V65.0114H84.9238ZM89.7512 67V64.6335L89.7612 64.0668V56.8182H91.2179V67H89.7512ZM100.04 61.228L98.6926 61.4666C98.6363 61.2943 98.5468 61.1302 98.4242 60.9744C98.3049 60.8187 98.1425 60.6911 97.937 60.5916C97.7315 60.4922 97.4746 60.4425 97.1664 60.4425C96.7454 60.4425 96.3941 60.5369 96.1124 60.7259C95.8307 60.9115 95.6898 61.1518 95.6898 61.4467C95.6898 61.7019 95.7843 61.9074 95.9732 62.0632C96.1621 62.219 96.467 62.3466 96.888 62.446L98.101 62.7244C98.8037 62.8868 99.3274 63.1371 99.6721 63.4751C100.017 63.8132 100.189 64.2524 100.189 64.7926C100.189 65.25 100.057 65.6577 99.7914 66.0156C99.5295 66.3703 99.1633 66.6487 98.6926 66.8509C98.2253 67.053 97.6834 67.1541 97.0669 67.1541C96.2118 67.1541 95.5141 66.9718 94.9739 66.6072C94.4337 66.2393 94.1022 65.7173 93.9796 65.0412L95.4164 64.8224C95.5059 65.197 95.6898 65.4804 95.9682 65.6726C96.2466 65.8615 96.6096 65.956 97.057 65.956C97.5442 65.956 97.9337 65.8549 98.2253 65.6527C98.517 65.4472 98.6628 65.197 98.6628 64.902C98.6628 64.6634 98.5733 64.4628 98.3944 64.3004C98.2187 64.138 97.9486 64.0154 97.584 63.9325L96.2914 63.6491C95.5788 63.4867 95.0518 63.2282 94.7104 62.8736C94.3723 62.5189 94.2033 62.0698 94.2033 61.5263C94.2033 61.0755 94.3292 60.6811 94.5811 60.343C94.833 60.005 95.181 59.7415 95.6252 59.5526C96.0693 59.3603 96.5781 59.2642 97.1515 59.2642C97.9767 59.2642 98.6264 59.4432 99.1003 59.8011C99.5743 60.1558 99.8875 60.6314 100.04 61.228ZM107.546 61.228L106.199 61.4666C106.142 61.2943 106.053 61.1302 105.93 60.9744C105.811 60.8187 105.648 60.6911 105.443 60.5916C105.237 60.4922 104.98 60.4425 104.672 60.4425C104.251 60.4425 103.9 60.5369 103.618 60.7259C103.337 60.9115 103.196 61.1518 103.196 61.4467C103.196 61.7019 103.29 61.9074 103.479 62.0632C103.668 62.219 103.973 62.3466 104.394 62.446L105.607 62.7244C106.31 62.8868 106.833 63.1371 107.178 63.4751C107.523 63.8132 107.695 64.2524 107.695 64.7926C107.695 65.25 107.562 65.6577 107.297 66.0156C107.035 66.3703 106.669 66.6487 106.199 66.8509C105.731 67.053 105.189 67.1541 104.573 67.1541C103.718 67.1541 103.02 66.9718 102.48 66.6072C101.94 66.2393 101.608 65.7173 101.485 65.0412L102.922 64.8224C103.012 65.197 103.196 65.4804 103.474 65.6726C103.752 65.8615 104.115 65.956 104.563 65.956C105.05 65.956 105.44 65.8549 105.731 65.6527C106.023 65.4472 106.169 65.197 106.169 64.902C106.169 64.6634 106.079 64.4628 105.9 64.3004C105.725 64.138 105.454 64.0154 105.09 63.9325L103.797 63.6491C103.085 63.4867 102.558 63.2282 102.216 62.8736C101.878 62.5189 101.709 62.0698 101.709 61.5263C101.709 61.0755 101.835 60.6811 102.087 60.343C102.339 60.005 102.687 59.7415 103.131 59.5526C103.575 59.3603 104.084 59.2642 104.657 59.2642C105.483 59.2642 106.132 59.4432 106.606 59.8011C107.08 60.1558 107.393 60.6314 107.546 61.228ZM112.621 67.1541C111.868 67.1541 111.22 66.9934 110.677 66.6719C110.136 66.3471 109.719 65.8913 109.424 65.3047C109.132 64.7147 108.986 64.0237 108.986 63.2315C108.986 62.4493 109.132 61.7599 109.424 61.1634C109.719 60.5668 110.13 60.1011 110.657 59.7663C111.187 59.4316 111.807 59.2642 112.516 59.2642C112.947 59.2642 113.365 59.3355 113.769 59.478C114.173 59.6205 114.536 59.8442 114.858 60.1491C115.179 60.4541 115.433 60.8501 115.618 61.3374C115.804 61.8213 115.897 62.4096 115.897 63.1023V63.6293H109.827V62.5156H114.44C114.44 62.1245 114.361 61.7782 114.202 61.4766C114.042 61.1716 113.819 60.9313 113.53 60.7557C113.245 60.58 112.911 60.4922 112.526 60.4922C112.108 60.4922 111.744 60.5949 111.432 60.8004C111.124 61.0026 110.885 61.2678 110.716 61.5959C110.551 61.9207 110.468 62.2737 110.468 62.6548V63.5249C110.468 64.0353 110.557 64.4695 110.736 64.8274C110.919 65.1854 111.172 65.4588 111.497 65.6477C111.822 65.8333 112.201 65.9261 112.635 65.9261C112.917 65.9261 113.174 65.8864 113.406 65.8068C113.638 65.724 113.839 65.6013 114.008 65.4389C114.177 65.2765 114.306 65.076 114.395 64.8374L115.802 65.0909C115.69 65.5052 115.488 65.8681 115.196 66.1797C114.907 66.4879 114.545 66.7282 114.107 66.9006C113.673 67.0696 113.177 67.1541 112.621 67.1541ZM118.526 67.0945C118.254 67.0945 118.02 66.9983 117.825 66.8061C117.629 66.6106 117.531 66.3752 117.531 66.1001C117.531 65.8284 117.629 65.5964 117.825 65.4041C118.02 65.2086 118.254 65.1108 118.526 65.1108C118.797 65.1108 119.031 65.2086 119.227 65.4041C119.422 65.5964 119.52 65.8284 119.52 66.1001C119.52 66.2824 119.473 66.4498 119.381 66.6023C119.291 66.7514 119.172 66.8707 119.023 66.9602C118.874 67.0497 118.708 67.0945 118.526 67.0945ZM122.49 67.0945C122.219 67.0945 121.985 66.9983 121.789 66.8061C121.594 66.6106 121.496 66.3752 121.496 66.1001C121.496 65.8284 121.594 65.5964 121.789 65.4041C121.985 65.2086 122.219 65.1108 122.49 65.1108C122.762 65.1108 122.996 65.2086 123.191 65.4041C123.387 65.5964 123.485 65.8284 123.485 66.1001C123.485 66.2824 123.438 66.4498 123.346 66.6023C123.256 66.7514 123.137 66.8707 122.988 66.9602C122.838 67.0497 122.673 67.0945 122.49 67.0945ZM126.455 67.0945C126.183 67.0945 125.95 66.9983 125.754 66.8061C125.559 66.6106 125.461 66.3752 125.461 66.1001C125.461 65.8284 125.559 65.5964 125.754 65.4041C125.95 65.2086 126.183 65.1108 126.455 65.1108C126.727 65.1108 126.961 65.2086 127.156 65.4041C127.352 65.5964 127.45 65.8284 127.45 66.1001C127.45 66.2824 127.403 66.4498 127.31 66.6023C127.221 66.7514 127.102 66.8707 126.952 66.9602C126.803 67.0497 126.638 67.0945 126.455 67.0945Z" fill="#6F7595"/>
<path fill-rule="evenodd" clip-rule="evenodd" d="M292.55 56.2171C293.038 55.729 293.038 54.9375 292.55 54.4494C292.062 53.9612 291.27 53.9612 290.782 54.4494L289.17 56.0617C287.874 55.2775 286.455 54.8583 284.999 54.8583C283.516 54.8583 282.074 55.2916 280.758 56.1C279.441 56.9166 278.258 58.1083 277.291 59.625C276.458 60.9333 276.458 63.0583 277.291 64.3666C277.765 65.1142 278.294 65.7828 278.866 66.3659L277.865 67.366C277.377 67.8542 277.377 68.6456 277.865 69.1338C278.354 69.622 279.145 69.622 279.633 69.1338L292.55 56.2171ZM281.615 63.6167L282.937 62.2948C282.923 62.1985 282.916 62.1 282.916 61.9999C282.916 60.8493 283.849 59.9166 284.999 59.9166C285.099 59.9166 285.198 59.9236 285.294 59.9373L286.616 58.6154C286.127 58.3811 285.578 58.2499 284.999 58.2499C282.928 58.2499 281.249 59.9289 281.249 61.9999C281.249 62.5789 281.381 63.1271 281.615 63.6167Z" fill="#6F7595"/>
<path d="M292.708 59.625C292.456 59.2294 291.906 59.1886 291.574 59.5201L288.732 62.3624C288.561 64.1441 287.144 65.5617 285.362 65.7326L283.345 67.7495C282.911 68.183 283.083 68.9143 283.687 69.0196C284.12 69.0949 284.558 69.1333 284.999 69.1333C286.483 69.1333 287.924 68.7 289.241 67.8916C290.558 67.075 291.741 65.8833 292.708 64.3666C293.541 63.0666 293.541 60.9333 292.708 59.625Z" fill="#6F7595"/>
<path d="M24.7706 31V20.8182H28.9766C29.7389 20.8182 30.3968 20.9673 30.9503 21.2656C31.5071 21.5606 31.9363 21.9732 32.2379 22.5036C32.5395 23.0305 32.6903 23.6437 32.6903 24.343C32.6903 25.0457 32.5362 25.6605 32.228 26.1875C31.9231 26.7112 31.4872 27.1172 30.9205 27.4055C30.3537 27.6939 29.6809 27.8381 28.902 27.8381H26.3068V25.8991H28.4446C28.8158 25.8991 29.1257 25.8345 29.3743 25.7053C29.6262 25.576 29.8168 25.3954 29.946 25.1634C30.0753 24.928 30.1399 24.6546 30.1399 24.343C30.1399 24.0282 30.0753 23.7564 29.946 23.5277C29.8168 23.2957 29.6262 23.1167 29.3743 22.9908C29.1224 22.8648 28.8125 22.8018 28.4446 22.8018H27.2315V31H24.7706ZM35.7827 31.1293C35.2955 31.1293 34.8629 31.0481 34.4851 30.8857C34.1106 30.7199 33.8139 30.4714 33.5952 30.1399C33.3797 29.8052 33.272 29.3859 33.272 28.8821C33.272 28.4579 33.3466 28.0999 33.4957 27.8082C33.6449 27.5166 33.8504 27.2796 34.1122 27.0973C34.3741 26.915 34.6757 26.7775 35.017 26.6847C35.3584 26.5885 35.723 26.5239 36.1108 26.4908C36.545 26.451 36.8946 26.4096 37.1598 26.3665C37.425 26.3201 37.6172 26.2554 37.7365 26.1726C37.8591 26.0864 37.9205 25.9654 37.9205 25.8097V25.7848C37.9205 25.5296 37.8326 25.3324 37.657 25.1932C37.4813 25.054 37.2443 24.9844 36.946 24.9844C36.6245 24.9844 36.366 25.054 36.1705 25.1932C35.9749 25.3324 35.8506 25.5246 35.7976 25.7699L33.5554 25.6903C33.6217 25.2263 33.7924 24.812 34.0675 24.4474C34.3459 24.0795 34.727 23.7912 35.2109 23.5824C35.6982 23.3703 36.2831 23.2642 36.9659 23.2642C37.4531 23.2642 37.9022 23.3222 38.3132 23.4382C38.7242 23.5509 39.0821 23.7166 39.3871 23.9354C39.692 24.1508 39.9273 24.416 40.093 24.7308C40.2621 25.0457 40.3466 25.4053 40.3466 25.8097V31H38.0597V29.9361H38C37.8641 30.1946 37.6901 30.4134 37.478 30.5923C37.2692 30.7713 37.0223 30.9055 36.7372 30.995C36.4555 31.0845 36.1373 31.1293 35.7827 31.1293ZM36.5334 29.5384C36.7952 29.5384 37.0305 29.4853 37.2393 29.3793C37.4515 29.2732 37.6205 29.1274 37.7464 28.9418C37.8724 28.7528 37.9354 28.5341 37.9354 28.2855V27.5597C37.8658 27.5961 37.7813 27.6293 37.6818 27.6591C37.5857 27.6889 37.4796 27.7171 37.3636 27.7436C37.2476 27.7701 37.1283 27.7933 37.0057 27.8132C36.883 27.8331 36.7654 27.8513 36.6527 27.8679C36.424 27.9044 36.2285 27.9607 36.0661 28.0369C35.907 28.1132 35.7843 28.2126 35.6982 28.3352C35.6153 28.4545 35.5739 28.5971 35.5739 28.7628C35.5739 29.0147 35.6634 29.2069 35.8423 29.3395C36.0246 29.4721 36.255 29.5384 36.5334 29.5384ZM48.5 25.6953L46.2678 25.755C46.2446 25.5959 46.1816 25.455 46.0788 25.3324C45.9761 25.2064 45.8419 25.1087 45.6761 25.0391C45.5137 24.9661 45.3248 24.9297 45.1094 24.9297C44.8277 24.9297 44.5874 24.986 44.3885 25.0987C44.1929 25.2114 44.0968 25.3639 44.1001 25.5561C44.0968 25.7053 44.1565 25.8345 44.2791 25.9439C44.4051 26.0533 44.6288 26.1411 44.9503 26.2074L46.4219 26.4858C47.1842 26.6316 47.7509 26.8736 48.1222 27.2116C48.4967 27.5497 48.6856 27.9972 48.6889 28.554C48.6856 29.0777 48.5298 29.5334 48.2216 29.9212C47.9167 30.3089 47.4991 30.6106 46.9688 30.826C46.4384 31.0381 45.8319 31.1442 45.1491 31.1442C44.0587 31.1442 43.1986 30.9205 42.5689 30.473C41.9425 30.0223 41.5845 29.419 41.495 28.6634L43.8963 28.6037C43.9493 28.8821 44.0869 29.0942 44.3089 29.2401C44.531 29.3859 44.8144 29.4588 45.1591 29.4588C45.4706 29.4588 45.7242 29.4008 45.9197 29.2848C46.1153 29.1688 46.2147 29.0147 46.218 28.8224C46.2147 28.6501 46.1385 28.5125 45.9893 28.4098C45.8402 28.3037 45.6065 28.2209 45.2884 28.1612L43.956 27.9077C43.1903 27.7685 42.6203 27.5116 42.2457 27.1371C41.8712 26.7592 41.6856 26.2786 41.6889 25.6953C41.6856 25.1849 41.8215 24.7491 42.0966 24.3878C42.3717 24.0232 42.7628 23.7448 43.2699 23.5526C43.777 23.3603 44.3752 23.2642 45.0646 23.2642C46.0987 23.2642 46.9141 23.4813 47.5107 23.9155C48.1072 24.3464 48.437 24.9396 48.5 25.6953ZM56.5527 25.6953L54.3205 25.755C54.2973 25.5959 54.2343 25.455 54.1316 25.3324C54.0288 25.2064 53.8946 25.1087 53.7289 25.0391C53.5665 24.9661 53.3775 24.9297 53.1621 24.9297C52.8804 24.9297 52.6401 24.986 52.4412 25.0987C52.2457 25.2114 52.1496 25.3639 52.1529 25.5561C52.1496 25.7053 52.2092 25.8345 52.3319 25.9439C52.4578 26.0533 52.6815 26.1411 53.003 26.2074L54.4746 26.4858C55.2369 26.6316 55.8037 26.8736 56.1749 27.2116C56.5494 27.5497 56.7383 27.9972 56.7417 28.554C56.7383 29.0777 56.5826 29.5334 56.2743 29.9212C55.9694 30.3089 55.5518 30.6106 55.0215 30.826C54.4912 31.0381 53.8846 31.1442 53.2019 31.1442C52.1114 31.1442 51.2514 30.9205 50.6216 30.473C49.9952 30.0223 49.6373 29.419 49.5478 28.6634L51.949 28.6037C52.0021 28.8821 52.1396 29.0942 52.3617 29.2401C52.5837 29.3859 52.8671 29.4588 53.2118 29.4588C53.5234 29.4588 53.7769 29.4008 53.9725 29.2848C54.168 29.1688 54.2675 29.0147 54.2708 28.8224C54.2675 28.6501 54.1912 28.5125 54.0421 28.4098C53.8929 28.3037 53.6593 28.2209 53.3411 28.1612L52.0087 27.9077C51.2431 27.7685 50.673 27.5116 50.2985 27.1371C49.9239 26.7592 49.7383 26.2786 49.7417 25.6953C49.7383 25.1849 49.8742 24.7491 50.1493 24.3878C50.4244 24.0232 50.8155 23.7448 51.3226 23.5526C51.8297 23.3603 52.428 23.2642 53.1174 23.2642C54.1515 23.2642 54.9668 23.4813 55.5634 23.9155C56.16 24.3464 56.4898 24.9396 56.5527 25.6953ZM59.3654 31L57.3768 23.3636H59.8178L60.8469 28.2557H60.9116L62.0153 23.3636H64.3967L65.5302 28.2209H65.5948L66.5941 23.3636H69.0352L67.0415 31H64.4414L63.2482 26.5504H63.1637L61.9705 31H59.3654ZM73.4114 31.1442C72.6093 31.1442 71.9199 30.9801 71.3432 30.652C70.7698 30.3205 70.3274 29.8598 70.0158 29.2699C69.7076 28.6766 69.5534 27.9889 69.5534 27.2067C69.5534 26.4212 69.7076 25.7334 70.0158 25.1435C70.3274 24.5502 70.7698 24.0895 71.3432 23.7614C71.9199 23.4299 72.6093 23.2642 73.4114 23.2642C74.2135 23.2642 74.9012 23.4299 75.4746 23.7614C76.0513 24.0895 76.4938 24.5502 76.802 25.1435C77.1136 25.7334 77.2694 26.4212 77.2694 27.2067C77.2694 27.9889 77.1136 28.6766 76.802 29.2699C76.4938 29.8598 76.0513 30.3205 75.4746 30.652C74.9012 30.9801 74.2135 31.1442 73.4114 31.1442ZM73.4263 29.3097C73.718 29.3097 73.9649 29.2202 74.1671 29.0412C74.3693 28.8622 74.5234 28.6136 74.6294 28.2955C74.7388 27.9773 74.7935 27.6094 74.7935 27.1918C74.7935 26.7675 74.7388 26.3963 74.6294 26.0781C74.5234 25.7599 74.3693 25.5114 74.1671 25.3324C73.9649 25.1534 73.718 25.0639 73.4263 25.0639C73.1247 25.0639 72.8695 25.1534 72.6607 25.3324C72.4552 25.5114 72.2978 25.7599 72.1884 26.0781C72.0823 26.3963 72.0293 26.7675 72.0293 27.1918C72.0293 27.6094 72.0823 27.9773 72.1884 28.2955C72.2978 28.6136 72.4552 28.8622 72.6607 29.0412C72.8695 29.2202 73.1247 29.3097 73.4263 29.3097ZM78.5147 31V23.3636H80.8762V24.7557H80.9558C81.095 24.2519 81.322 23.8774 81.6369 23.6321C81.9518 23.3835 82.318 23.2592 82.7356 23.2592C82.8483 23.2592 82.9643 23.2675 83.0836 23.2841C83.2029 23.2973 83.314 23.3189 83.4167 23.3487V25.4616C83.3007 25.4219 83.1483 25.3904 82.9593 25.3672C82.7737 25.344 82.608 25.3324 82.4622 25.3324C82.1738 25.3324 81.9136 25.397 81.6816 25.5263C81.4529 25.6522 81.2723 25.8295 81.1397 26.0582C81.0105 26.2836 80.9458 26.5488 80.9458 26.8537V31H78.5147ZM86.7999 31.1094C86.2364 31.1094 85.7244 30.9635 85.2637 30.6719C84.803 30.3802 84.4351 29.9427 84.16 29.3594C83.8849 28.776 83.7473 28.0518 83.7473 27.1868C83.7473 26.2886 83.8899 25.5495 84.1749 24.9695C84.4599 24.3894 84.8328 23.9602 85.2935 23.6818C85.7575 23.4034 86.2563 23.2642 86.79 23.2642C87.191 23.2642 87.534 23.3338 87.8191 23.473C88.1041 23.6089 88.3394 23.7846 88.525 24C88.7106 24.2154 88.8515 24.4392 88.9476 24.6712H88.9973V20.8182H91.4284V31H89.0222V29.7621H88.9476C88.8449 29.9974 88.699 30.2178 88.5101 30.4233C88.3212 30.6288 88.0842 30.7945 87.7992 30.9205C87.5175 31.0464 87.1844 31.1094 86.7999 31.1094ZM87.6451 29.2152C87.94 29.2152 88.1919 29.1323 88.4007 28.9666C88.6096 28.7976 88.7703 28.5606 88.883 28.2557C88.9957 27.9508 89.052 27.5928 89.052 27.1818C89.052 26.7642 88.9957 26.4046 88.883 26.103C88.7736 25.8014 88.6129 25.5694 88.4007 25.407C88.1919 25.2446 87.94 25.1634 87.6451 25.1634C87.3435 25.1634 87.0882 25.2462 86.8794 25.4119C86.6706 25.5777 86.5115 25.8113 86.4022 26.1129C86.2961 26.4145 86.2431 26.7708 86.2431 27.1818C86.2431 27.5928 86.2978 27.9508 86.4071 28.2557C86.5165 28.5606 86.6739 28.7976 86.8794 28.9666C87.0882 29.1323 87.3435 29.2152 87.6451 29.2152Z" fill="#101840"/>
<path d="M135.592 104.252C135.592 104.775 135.466 105.265 135.214 105.722C134.971 106.179 134.584 106.548 134.052 106.828C133.529 107.108 132.867 107.248 132.064 107.248H130.426V111H128.466V101.228H132.064C132.82 101.228 133.464 101.359 133.996 101.62C134.528 101.881 134.925 102.241 135.186 102.698C135.457 103.155 135.592 103.673 135.592 104.252ZM131.98 105.666C132.521 105.666 132.923 105.545 133.184 105.302C133.445 105.05 133.576 104.7 133.576 104.252C133.576 103.3 133.044 102.824 131.98 102.824H130.426V105.666H131.98ZM136.76 107.094C136.76 106.31 136.914 105.615 137.222 105.008C137.539 104.401 137.964 103.935 138.496 103.608C139.037 103.281 139.639 103.118 140.302 103.118C140.88 103.118 141.384 103.235 141.814 103.468C142.252 103.701 142.602 103.995 142.864 104.35V103.244H144.838V111H142.864V109.866C142.612 110.23 142.262 110.533 141.814 110.776C141.375 111.009 140.866 111.126 140.288 111.126C139.634 111.126 139.037 110.958 138.496 110.622C137.964 110.286 137.539 109.815 137.222 109.208C136.914 108.592 136.76 107.887 136.76 107.094ZM142.864 107.122C142.864 106.646 142.77 106.24 142.584 105.904C142.397 105.559 142.145 105.297 141.828 105.12C141.51 104.933 141.17 104.84 140.806 104.84C140.442 104.84 140.106 104.929 139.798 105.106C139.49 105.283 139.238 105.545 139.042 105.89C138.855 106.226 138.762 106.627 138.762 107.094C138.762 107.561 138.855 107.971 139.042 108.326C139.238 108.671 139.49 108.937 139.798 109.124C140.115 109.311 140.451 109.404 140.806 109.404C141.17 109.404 141.51 109.315 141.828 109.138C142.145 108.951 142.397 108.69 142.584 108.354C142.77 108.009 142.864 107.598 142.864 107.122ZM150 111.126C149.365 111.126 148.796 111.014 148.292 110.79C147.788 110.557 147.387 110.244 147.088 109.852C146.799 109.46 146.64 109.026 146.612 108.55H148.586C148.623 108.849 148.768 109.096 149.02 109.292C149.281 109.488 149.603 109.586 149.986 109.586C150.359 109.586 150.649 109.511 150.854 109.362C151.069 109.213 151.176 109.021 151.176 108.788C151.176 108.536 151.045 108.349 150.784 108.228C150.532 108.097 150.126 107.957 149.566 107.808C148.987 107.668 148.511 107.523 148.138 107.374C147.774 107.225 147.457 106.996 147.186 106.688C146.925 106.38 146.794 105.965 146.794 105.442C146.794 105.013 146.915 104.621 147.158 104.266C147.41 103.911 147.765 103.631 148.222 103.426C148.689 103.221 149.235 103.118 149.86 103.118C150.784 103.118 151.521 103.351 152.072 103.818C152.623 104.275 152.926 104.896 152.982 105.68H151.106C151.078 105.372 150.947 105.129 150.714 104.952C150.49 104.765 150.187 104.672 149.804 104.672C149.449 104.672 149.174 104.737 148.978 104.868C148.791 104.999 148.698 105.181 148.698 105.414C148.698 105.675 148.829 105.876 149.09 106.016C149.351 106.147 149.757 106.282 150.308 106.422C150.868 106.562 151.33 106.707 151.694 106.856C152.058 107.005 152.371 107.239 152.632 107.556C152.903 107.864 153.043 108.275 153.052 108.788C153.052 109.236 152.926 109.637 152.674 109.992C152.431 110.347 152.077 110.627 151.61 110.832C151.153 111.028 150.616 111.126 150 111.126ZM157.909 111.126C157.274 111.126 156.705 111.014 156.201 110.79C155.697 110.557 155.295 110.244 154.997 109.852C154.707 109.46 154.549 109.026 154.521 108.55H156.495C156.532 108.849 156.677 109.096 156.929 109.292C157.19 109.488 157.512 109.586 157.895 109.586C158.268 109.586 158.557 109.511 158.763 109.362C158.977 109.213 159.085 109.021 159.085 108.788C159.085 108.536 158.954 108.349 158.693 108.228C158.441 108.097 158.035 107.957 157.475 107.808C156.896 107.668 156.42 107.523 156.047 107.374C155.683 107.225 155.365 106.996 155.095 106.688C154.833 106.38 154.703 105.965 154.703 105.442C154.703 105.013 154.824 104.621 155.067 104.266C155.319 103.911 155.673 103.631 156.131 103.426C156.597 103.221 157.143 103.118 157.769 103.118C158.693 103.118 159.43 103.351 159.981 103.818C160.531 104.275 160.835 104.896 160.891 105.68H159.015C158.987 105.372 158.856 105.129 158.623 104.952C158.399 104.765 158.095 104.672 157.713 104.672C157.358 104.672 157.083 104.737 156.887 104.868C156.7 104.999 156.607 105.181 156.607 105.414C156.607 105.675 156.737 105.876 156.999 106.016C157.26 106.147 157.666 106.282 158.217 106.422C158.777 106.562 159.239 106.707 159.603 106.856C159.967 107.005 160.279 107.239 160.541 107.556C160.811 107.864 160.951 108.275 160.961 108.788C160.961 109.236 160.835 109.637 160.583 109.992C160.34 110.347 159.985 110.627 159.519 110.832C159.061 111.028 158.525 111.126 157.909 111.126ZM173.602 103.244L171.334 111H169.22L167.806 105.582L166.392 111H164.264L161.982 103.244H163.97L165.342 109.152L166.826 103.244H168.898L170.354 109.138L171.726 103.244H173.602ZM178.386 111.126C177.64 111.126 176.968 110.963 176.37 110.636C175.773 110.3 175.302 109.829 174.956 109.222C174.62 108.615 174.452 107.915 174.452 107.122C174.452 106.329 174.625 105.629 174.97 105.022C175.325 104.415 175.806 103.949 176.412 103.622C177.019 103.286 177.696 103.118 178.442 103.118C179.189 103.118 179.866 103.286 180.472 103.622C181.079 103.949 181.555 104.415 181.9 105.022C182.255 105.629 182.432 106.329 182.432 107.122C182.432 107.915 182.25 108.615 181.886 109.222C181.532 109.829 181.046 110.3 180.43 110.636C179.824 110.963 179.142 111.126 178.386 111.126ZM178.386 109.418C178.741 109.418 179.072 109.334 179.38 109.166C179.698 108.989 179.95 108.727 180.136 108.382C180.323 108.037 180.416 107.617 180.416 107.122C180.416 106.385 180.22 105.82 179.828 105.428C179.446 105.027 178.974 104.826 178.414 104.826C177.854 104.826 177.383 105.027 177 105.428C176.627 105.82 176.44 106.385 176.44 107.122C176.44 107.859 176.622 108.429 176.986 108.83C177.36 109.222 177.826 109.418 178.386 109.418ZM186.11 104.448C186.362 104.037 186.689 103.715 187.09 103.482C187.501 103.249 187.967 103.132 188.49 103.132V105.19H187.972C187.356 105.19 186.889 105.335 186.572 105.624C186.264 105.913 186.11 106.417 186.11 107.136V111H184.15V103.244H186.11V104.448ZM189.586 107.094C189.586 106.31 189.74 105.615 190.048 105.008C190.365 104.401 190.795 103.935 191.336 103.608C191.877 103.281 192.479 103.118 193.142 103.118C193.646 103.118 194.127 103.23 194.584 103.454C195.041 103.669 195.405 103.958 195.676 104.322V100.64H197.664V111H195.676V109.852C195.433 110.235 195.093 110.543 194.654 110.776C194.215 111.009 193.707 111.126 193.128 111.126C192.475 111.126 191.877 110.958 191.336 110.622C190.795 110.286 190.365 109.815 190.048 109.208C189.74 108.592 189.586 107.887 189.586 107.094ZM195.69 107.122C195.69 106.646 195.597 106.24 195.41 105.904C195.223 105.559 194.971 105.297 194.654 105.12C194.337 104.933 193.996 104.84 193.632 104.84C193.268 104.84 192.932 104.929 192.624 105.106C192.316 105.283 192.064 105.545 191.868 105.89C191.681 106.226 191.588 106.627 191.588 107.094C191.588 107.561 191.681 107.971 191.868 108.326C192.064 108.671 192.316 108.937 192.624 109.124C192.941 109.311 193.277 109.404 193.632 109.404C193.996 109.404 194.337 109.315 194.654 109.138C194.971 108.951 195.223 108.69 195.41 108.354C195.597 108.009 195.69 107.598 195.69 107.122Z" fill="#FFE838"/>
</svg>
