<svg width="673" height="145" viewBox="0 0 673 145" fill="none" xmlns="http://www.w3.org/2000/svg">
<path d="M25.1186 92.8182H26.983L30.2244 100.733H30.3438L33.5852 92.8182H35.4496V103H33.9879V95.6321H33.8935L30.8906 102.985H29.6776L26.6747 95.6271H26.5803V103H25.1186V92.8182ZM40.8549 103.154C40.1026 103.154 39.4546 102.993 38.911 102.672C38.3708 102.347 37.9532 101.891 37.6582 101.305C37.3665 100.715 37.2207 100.024 37.2207 99.2315C37.2207 98.4493 37.3665 97.7599 37.6582 97.1634C37.9532 96.5668 38.3642 96.1011 38.8912 95.7663C39.4215 95.4316 40.0413 95.2642 40.7505 95.2642C41.1814 95.2642 41.599 95.3355 42.0034 95.478C42.4077 95.6205 42.7707 95.8442 43.0922 96.1491C43.4136 96.4541 43.6672 96.8501 43.8528 97.3374C44.0384 97.8213 44.1312 98.4096 44.1312 99.1023V99.6293H38.0609V98.5156H42.6745C42.6745 98.1245 42.595 97.7782 42.4359 97.4766C42.2768 97.1716 42.0531 96.9313 41.7647 96.7557C41.4797 96.58 41.1449 96.4922 40.7605 96.4922C40.3429 96.4922 39.9783 96.5949 39.6667 96.8004C39.3585 97.0026 39.1199 97.2678 38.9508 97.5959C38.7851 97.9207 38.7022 98.2737 38.7022 98.6548V99.5249C38.7022 100.035 38.7917 100.469 38.9707 100.827C39.153 101.185 39.4065 101.459 39.7314 101.648C40.0562 101.833 40.4357 101.926 40.8699 101.926C41.1516 101.926 41.4084 101.886 41.6404 101.807C41.8725 101.724 42.073 101.601 42.242 101.439C42.411 101.277 42.5403 101.076 42.6298 100.837L44.0368 101.091C43.9241 101.505 43.7219 101.868 43.4302 102.18C43.1419 102.488 42.7789 102.728 42.3414 102.901C41.9073 103.07 41.4118 103.154 40.8549 103.154ZM51.5028 97.228L50.1555 97.4666C50.0992 97.2943 50.0097 97.1302 49.8871 96.9744C49.7678 96.8187 49.6054 96.6911 49.3999 96.5916C49.1944 96.4922 48.9375 96.4425 48.6293 96.4425C48.2083 96.4425 47.857 96.5369 47.5753 96.7259C47.2936 96.9115 47.1527 97.1518 47.1527 97.4467C47.1527 97.7019 47.2472 97.9074 47.4361 98.0632C47.625 98.219 47.9299 98.3466 48.3509 98.446L49.5639 98.7244C50.2666 98.8868 50.7902 99.1371 51.1349 99.4751C51.4796 99.8132 51.652 100.252 51.652 100.793C51.652 101.25 51.5194 101.658 51.2543 102.016C50.9924 102.37 50.6262 102.649 50.1555 102.851C49.6882 103.053 49.1463 103.154 48.5298 103.154C47.6747 103.154 46.977 102.972 46.4368 102.607C45.8965 102.239 45.5651 101.717 45.4425 101.041L46.8793 100.822C46.9688 101.197 47.1527 101.48 47.4311 101.673C47.7095 101.862 48.0724 101.956 48.5199 101.956C49.0071 101.956 49.3965 101.855 49.6882 101.653C49.9799 101.447 50.1257 101.197 50.1257 100.902C50.1257 100.663 50.0362 100.463 49.8572 100.3C49.6816 100.138 49.4115 100.015 49.0469 99.9325L47.7543 99.6491C47.0417 99.4867 46.5147 99.2282 46.1733 98.8736C45.8352 98.5189 45.6662 98.0698 45.6662 97.5263C45.6662 97.0755 45.7921 96.6811 46.044 96.343C46.2959 96.005 46.6439 95.7415 47.0881 95.5526C47.5322 95.3603 48.041 95.2642 48.6143 95.2642C49.4396 95.2642 50.0893 95.4432 50.5632 95.8011C51.0372 96.1558 51.3504 96.6314 51.5028 97.228ZM59.0087 97.228L57.6614 97.4666C57.6051 97.2943 57.5156 97.1302 57.3929 96.9744C57.2736 96.8187 57.1112 96.6911 56.9057 96.5916C56.7002 96.4922 56.4434 96.4425 56.1351 96.4425C55.7142 96.4425 55.3629 96.5369 55.0811 96.7259C54.7994 96.9115 54.6586 97.1518 54.6586 97.4467C54.6586 97.7019 54.753 97.9074 54.9419 98.0632C55.1309 98.219 55.4358 98.3466 55.8567 98.446L57.0698 98.7244C57.7724 98.8868 58.2961 99.1371 58.6408 99.4751C58.9855 99.8132 59.1578 100.252 59.1578 100.793C59.1578 101.25 59.0253 101.658 58.7601 102.016C58.4983 102.37 58.132 102.649 57.6614 102.851C57.1941 103.053 56.6522 103.154 56.0357 103.154C55.1806 103.154 54.4829 102.972 53.9426 102.607C53.4024 102.239 53.071 101.717 52.9483 101.041L54.3851 100.822C54.4746 101.197 54.6586 101.48 54.937 101.673C55.2154 101.862 55.5783 101.956 56.0257 101.956C56.513 101.956 56.9024 101.855 57.1941 101.653C57.4857 101.447 57.6316 101.197 57.6316 100.902C57.6316 100.663 57.5421 100.463 57.3631 100.3C57.1874 100.138 56.9173 100.015 56.5527 99.9325L55.2601 99.6491C54.5475 99.4867 54.0205 99.2282 53.6792 98.8736C53.3411 98.5189 53.1721 98.0698 53.1721 97.5263C53.1721 97.0755 53.298 96.6811 53.5499 96.343C53.8018 96.005 54.1498 95.7415 54.5939 95.5526C55.0381 95.3603 55.5468 95.2642 56.1202 95.2642C56.9455 95.2642 57.5951 95.4432 58.0691 95.8011C58.543 96.1558 58.8562 96.6314 59.0087 97.228ZM63.0146 103.169C62.5307 103.169 62.0932 103.08 61.7021 102.901C61.311 102.718 61.0011 102.455 60.7724 102.11C60.547 101.765 60.4343 101.343 60.4343 100.842C60.4343 100.411 60.5172 100.057 60.6829 99.7784C60.8486 99.5 61.0723 99.2796 61.354 99.1172C61.6358 98.9548 61.9506 98.8321 62.2987 98.7493C62.6467 98.6664 63.0013 98.6035 63.3626 98.5604C63.82 98.5073 64.1912 98.4643 64.4762 98.4311C64.7612 98.3946 64.9684 98.3366 65.0977 98.2571C65.2269 98.1776 65.2915 98.0483 65.2915 97.8693V97.8345C65.2915 97.4003 65.1689 97.0639 64.9237 96.8253C64.6817 96.5866 64.3204 96.4673 63.8398 96.4673C63.3394 96.4673 62.945 96.5784 62.6566 96.8004C62.3716 97.0192 62.1744 97.2628 62.065 97.5312L60.668 97.2131C60.8337 96.7491 61.0756 96.3745 61.3938 96.0895C61.7153 95.8011 62.0849 95.5923 62.5025 95.4631C62.9201 95.3305 63.3593 95.2642 63.82 95.2642C64.1249 95.2642 64.448 95.3007 64.7894 95.3736C65.1341 95.4432 65.4556 95.5724 65.7539 95.7614C66.0555 95.9503 66.3024 96.2204 66.4947 96.5717C66.6869 96.9197 66.783 97.3722 66.783 97.929V103H65.3313V101.956H65.2717C65.1755 102.148 65.0314 102.337 64.8391 102.523C64.6469 102.708 64.4 102.862 64.0984 102.985C63.7968 103.108 63.4355 103.169 63.0146 103.169ZM63.3377 101.976C63.7487 101.976 64.1 101.895 64.3917 101.732C64.6867 101.57 64.9104 101.358 65.0629 101.096C65.2186 100.831 65.2965 100.547 65.2965 100.246V99.2614C65.2435 99.3144 65.1407 99.3641 64.9883 99.4105C64.8391 99.4536 64.6684 99.4917 64.4762 99.5249C64.284 99.5547 64.0967 99.5829 63.9144 99.6094C63.7321 99.6326 63.5797 99.6525 63.457 99.669C63.1687 99.7055 62.9052 99.7668 62.6665 99.853C62.4312 99.9392 62.2423 100.063 62.0998 100.226C61.9606 100.385 61.891 100.597 61.891 100.862C61.891 101.23 62.0269 101.509 62.2987 101.697C62.5704 101.883 62.9168 101.976 63.3377 101.976ZM71.9647 106.023C71.3581 106.023 70.8361 105.943 70.3986 105.784C69.9644 105.625 69.6098 105.415 69.3347 105.153C69.0596 104.891 68.8541 104.604 68.7182 104.293L69.9959 103.766C70.0854 103.911 70.2047 104.066 70.3539 104.228C70.5063 104.394 70.7118 104.535 70.9703 104.651C71.2322 104.767 71.5686 104.825 71.9796 104.825C72.543 104.825 73.0087 104.687 73.3766 104.412C73.7445 104.14 73.9284 103.706 73.9284 103.109V101.608H73.834C73.7445 101.77 73.6152 101.951 73.4462 102.15C73.2805 102.349 73.0518 102.521 72.7601 102.667C72.4685 102.813 72.089 102.886 71.6216 102.886C71.0184 102.886 70.4748 102.745 69.9909 102.463C69.5104 102.178 69.1292 101.759 68.8475 101.205C68.5691 100.648 68.4299 99.964 68.4299 99.152C68.4299 98.34 68.5674 97.6439 68.8425 97.0639C69.1209 96.4839 69.5021 96.0398 69.986 95.7315C70.4699 95.42 71.0184 95.2642 71.6316 95.2642C72.1055 95.2642 72.4883 95.3438 72.78 95.5028C73.0717 95.6586 73.2987 95.8409 73.4611 96.0497C73.6268 96.2585 73.7544 96.4425 73.8439 96.6016H73.9533V95.3636H75.41V103.169C75.41 103.825 75.2575 104.364 74.9526 104.785C74.6477 105.206 74.235 105.517 73.7147 105.719C73.1976 105.922 72.6143 106.023 71.9647 106.023ZM71.9498 101.653C72.3773 101.653 72.7386 101.553 73.0336 101.354C73.3319 101.152 73.5572 100.864 73.7097 100.489C73.8655 100.112 73.9434 99.6591 73.9434 99.1321C73.9434 98.6184 73.8671 98.166 73.7147 97.7749C73.5622 97.3838 73.3385 97.0788 73.0435 96.8601C72.7485 96.638 72.3839 96.527 71.9498 96.527C71.5023 96.527 71.1294 96.643 70.8311 96.875C70.5328 97.1037 70.3075 97.4152 70.155 97.8097C70.0059 98.2041 69.9313 98.6449 69.9313 99.1321C69.9313 99.6326 70.0075 100.072 70.16 100.45C70.3124 100.827 70.5378 101.122 70.8361 101.335C71.1377 101.547 71.5089 101.653 71.9498 101.653ZM80.6948 103.154C79.9424 103.154 79.2944 102.993 78.7509 102.672C78.2106 102.347 77.793 101.891 77.498 101.305C77.2064 100.715 77.0605 100.024 77.0605 99.2315C77.0605 98.4493 77.2064 97.7599 77.498 97.1634C77.793 96.5668 78.204 96.1011 78.731 95.7663C79.2613 95.4316 79.8811 95.2642 80.5904 95.2642C81.0212 95.2642 81.4389 95.3355 81.8432 95.478C82.2476 95.6205 82.6105 95.8442 82.932 96.1491C83.2535 96.4541 83.507 96.8501 83.6926 97.3374C83.8783 97.8213 83.9711 98.4096 83.9711 99.1023V99.6293H77.9007V98.5156H82.5144C82.5144 98.1245 82.4348 97.7782 82.2757 97.4766C82.1167 97.1716 81.8929 96.9313 81.6046 96.7557C81.3195 96.58 80.9848 96.4922 80.6003 96.4922C80.1827 96.4922 79.8181 96.5949 79.5066 96.8004C79.1983 97.0026 78.9597 97.2678 78.7907 97.5959C78.6249 97.9207 78.5421 98.2737 78.5421 98.6548V99.5249C78.5421 100.035 78.6316 100.469 78.8105 100.827C78.9928 101.185 79.2464 101.459 79.5712 101.648C79.896 101.833 80.2755 101.926 80.7097 101.926C80.9914 101.926 81.2483 101.886 81.4803 101.807C81.7123 101.724 81.9128 101.601 82.0819 101.439C82.2509 101.277 82.3801 101.076 82.4696 100.837L83.8766 101.091C83.7639 101.505 83.5617 101.868 83.2701 102.18C82.9817 102.488 82.6188 102.728 82.1813 102.901C81.7471 103.07 81.2516 103.154 80.6948 103.154ZM92.6167 103.154C91.8643 103.154 91.2163 102.993 90.6728 102.672C90.1325 102.347 89.7149 101.891 89.4199 101.305C89.1283 100.715 88.9824 100.024 88.9824 99.2315C88.9824 98.4493 89.1283 97.7599 89.4199 97.1634C89.7149 96.5668 90.1259 96.1011 90.6529 95.7663C91.1832 95.4316 91.803 95.2642 92.5123 95.2642C92.9431 95.2642 93.3607 95.3355 93.7651 95.478C94.1694 95.6205 94.5324 95.8442 94.8539 96.1491C95.1754 96.4541 95.4289 96.8501 95.6145 97.3374C95.8001 97.8213 95.8929 98.4096 95.8929 99.1023V99.6293H89.8226V98.5156H94.4363C94.4363 98.1245 94.3567 97.7782 94.1976 97.4766C94.0385 97.1716 93.8148 96.9313 93.5265 96.7557C93.2414 96.58 92.9067 96.4922 92.5222 96.4922C92.1046 96.4922 91.74 96.5949 91.4284 96.8004C91.1202 97.0026 90.8816 97.2678 90.7125 97.5959C90.5468 97.9207 90.464 98.2737 90.464 98.6548V99.5249C90.464 100.035 90.5534 100.469 90.7324 100.827C90.9147 101.185 91.1683 101.459 91.4931 101.648C91.8179 101.833 92.1974 101.926 92.6316 101.926C92.9133 101.926 93.1702 101.886 93.4022 101.807C93.6342 101.724 93.8347 101.601 94.0037 101.439C94.1728 101.277 94.302 101.076 94.3915 100.837L95.7985 101.091C95.6858 101.505 95.4836 101.868 95.1919 102.18C94.9036 102.488 94.5407 102.728 94.1032 102.901C93.669 103.07 93.1735 103.154 92.6167 103.154ZM97.5423 103V95.3636H98.979V96.5767H99.0586C99.1978 96.1657 99.4431 95.8426 99.7944 95.6072C100.149 95.3686 100.55 95.2493 100.998 95.2493C101.09 95.2493 101.2 95.2526 101.326 95.2592C101.455 95.2659 101.556 95.2741 101.629 95.2841V96.706C101.569 96.6894 101.463 96.6712 101.311 96.6513C101.158 96.6281 101.006 96.6165 100.853 96.6165C100.502 96.6165 100.189 96.6911 99.9137 96.8402C99.6419 96.986 99.4265 97.1899 99.2674 97.4517C99.1083 97.7102 99.0288 98.0052 99.0288 98.3366V103H97.5423ZM102.915 103V95.3636H104.352V96.5767H104.432C104.571 96.1657 104.816 95.8426 105.167 95.6072C105.522 95.3686 105.923 95.2493 106.371 95.2493C106.463 95.2493 106.573 95.2526 106.699 95.2592C106.828 95.2659 106.929 95.2741 107.002 95.2841V96.706C106.942 96.6894 106.836 96.6712 106.684 96.6513C106.531 96.6281 106.379 96.6165 106.226 96.6165C105.875 96.6165 105.562 96.6911 105.287 96.8402C105.015 96.986 104.8 97.1899 104.64 97.4517C104.481 97.7102 104.402 98.0052 104.402 98.3366V103H102.915ZM111.232 103.154C110.516 103.154 109.891 102.99 109.357 102.662C108.824 102.334 108.409 101.875 108.114 101.285C107.819 100.695 107.672 100.005 107.672 99.2166C107.672 98.4245 107.819 97.7318 108.114 97.1385C108.409 96.5452 108.824 96.0845 109.357 95.7564C109.891 95.4283 110.516 95.2642 111.232 95.2642C111.947 95.2642 112.572 95.4283 113.106 95.7564C113.639 96.0845 114.054 96.5452 114.349 97.1385C114.644 97.7318 114.791 98.4245 114.791 99.2166C114.791 100.005 114.644 100.695 114.349 101.285C114.054 101.875 113.639 102.334 113.106 102.662C112.572 102.99 111.947 103.154 111.232 103.154ZM111.237 101.906C111.701 101.906 112.085 101.784 112.39 101.538C112.695 101.293 112.92 100.967 113.066 100.559C113.215 100.151 113.29 99.7022 113.29 99.2116C113.29 98.7244 113.215 98.277 113.066 97.8693C112.92 97.4583 112.695 97.1286 112.39 96.88C112.085 96.6314 111.701 96.5071 111.237 96.5071C110.769 96.5071 110.381 96.6314 110.073 96.88C109.768 97.1286 109.541 97.4583 109.392 97.8693C109.246 98.277 109.173 98.7244 109.173 99.2116C109.173 99.7022 109.246 100.151 109.392 100.559C109.541 100.967 109.768 101.293 110.073 101.538C110.381 101.784 110.769 101.906 111.237 101.906ZM116.45 103V95.3636H117.887V96.5767H117.967C118.106 96.1657 118.351 95.8426 118.703 95.6072C119.057 95.3686 119.458 95.2493 119.906 95.2493C119.999 95.2493 120.108 95.2526 120.234 95.2592C120.363 95.2659 120.464 95.2741 120.537 95.2841V96.706C120.477 96.6894 120.371 96.6712 120.219 96.6513C120.066 96.6281 119.914 96.6165 119.762 96.6165C119.41 96.6165 119.097 96.6911 118.822 96.8402C118.55 96.986 118.335 97.1899 118.176 97.4517C118.017 97.7102 117.937 98.0052 117.937 98.3366V103H116.45Z" fill="#D14343"/>
<path d="M24.5 52C24.5 47.8579 27.8579 44.5 32 44.5H295C299.142 44.5 302.5 47.8579 302.5 52V72C302.5 76.1421 299.142 79.5 295 79.5H32C27.8579 79.5 24.5 76.1421 24.5 72V52Z" fill="white"/>
<path d="M24.5 52C24.5 47.8579 27.8579 44.5 32 44.5H295C299.142 44.5 302.5 47.8579 302.5 52V72C302.5 76.1421 299.142 79.5 295 79.5H32C27.8579 79.5 24.5 76.1421 24.5 72V52Z" stroke="#D14343"/>
<path d="M32.6165 58.1406V56.8182H40.4964V58.1406H37.3196V67H35.7884V58.1406H32.6165ZM42.1831 69.8636C41.961 69.8636 41.7588 69.8454 41.5765 69.8089C41.3942 69.7758 41.2583 69.7393 41.1689 69.6996L41.5268 68.4815C41.7986 68.5545 42.0405 68.5859 42.2527 68.576C42.4648 68.5661 42.652 68.4865 42.8145 68.3374C42.9802 68.1882 43.126 67.9446 43.252 67.6065L43.4359 67.0994L40.6419 59.3636H42.2328L44.1667 65.2898H44.2463L46.1802 59.3636H47.7761L44.6291 68.0192C44.4833 68.4169 44.2976 68.7533 44.0723 69.0284C43.8469 69.3068 43.5784 69.5156 43.2669 69.6548C42.9553 69.794 42.594 69.8636 42.1831 69.8636ZM49.1731 69.8636V59.3636H50.6248V60.6016H50.7491C50.8353 60.4425 50.9596 60.2585 51.122 60.0497C51.2844 59.8409 51.5098 59.6586 51.7981 59.5028C52.0865 59.3438 52.4676 59.2642 52.9416 59.2642C53.5581 59.2642 54.1083 59.42 54.5922 59.7315C55.0761 60.0431 55.4556 60.4922 55.7306 61.0788C56.0091 61.6655 56.1483 62.3714 56.1483 63.1967C56.1483 64.022 56.0107 64.7296 55.7356 65.3196C55.4605 65.9062 55.0827 66.3587 54.6021 66.6768C54.1215 66.9917 53.573 67.1491 52.9565 67.1491C52.4925 67.1491 52.113 67.0713 51.818 66.9155C51.5263 66.7597 51.2976 66.5774 51.1319 66.3686C50.9662 66.1598 50.8386 65.9742 50.7491 65.8118H50.6596V69.8636H49.1731ZM50.6298 63.1818C50.6298 63.7187 50.7077 64.1894 50.8635 64.5938C51.0192 64.9981 51.2446 65.3146 51.5396 65.5433C51.8346 65.7687 52.1958 65.8814 52.6234 65.8814C53.0675 65.8814 53.4387 65.7637 53.737 65.5284C54.0353 65.2898 54.2607 64.9666 54.4132 64.5589C54.569 64.1513 54.6468 63.6922 54.6468 63.1818C54.6468 62.678 54.5706 62.2256 54.4181 61.8246C54.269 61.4235 54.0436 61.107 53.742 60.875C53.4437 60.643 53.0708 60.527 52.6234 60.527C52.1925 60.527 51.8279 60.638 51.5297 60.8601C51.2347 61.0821 51.0109 61.392 50.8585 61.7898C50.706 62.1875 50.6298 62.6515 50.6298 63.1818ZM61.1049 67.1541C60.3526 67.1541 59.7046 66.9934 59.161 66.6719C58.6208 66.3471 58.2032 65.8913 57.9082 65.3047C57.6165 64.7147 57.4707 64.0237 57.4707 63.2315C57.4707 62.4493 57.6165 61.7599 57.9082 61.1634C58.2032 60.5668 58.6142 60.1011 59.1412 59.7663C59.6715 59.4316 60.2913 59.2642 61.0005 59.2642C61.4314 59.2642 61.849 59.3355 62.2534 59.478C62.6577 59.6205 63.0207 59.8442 63.3422 60.1491C63.6636 60.4541 63.9172 60.8501 64.1028 61.3374C64.2884 61.8213 64.3812 62.4096 64.3812 63.1023V63.6293H58.3109V62.5156H62.9245C62.9245 62.1245 62.845 61.7782 62.6859 61.4766C62.5268 61.1716 62.3031 60.9313 62.0147 60.7557C61.7297 60.58 61.3949 60.4922 61.0105 60.4922C60.5929 60.4922 60.2283 60.5949 59.9167 60.8004C59.6085 61.0026 59.3699 61.2678 59.2008 61.5959C59.0351 61.9207 58.9522 62.2737 58.9522 62.6548V63.5249C58.9522 64.0353 59.0417 64.4695 59.2207 64.8274C59.403 65.1854 59.6565 65.4588 59.9814 65.6477C60.3062 65.8333 60.6857 65.9261 61.1199 65.9261C61.4016 65.9261 61.6584 65.8864 61.8904 65.8068C62.1225 65.724 62.323 65.6013 62.492 65.4389C62.661 65.2765 62.7903 65.076 62.8798 64.8374L64.2868 65.0909C64.1741 65.5052 63.9719 65.8681 63.6802 66.1797C63.3919 66.4879 63.0289 66.7282 62.5914 66.9006C62.1573 67.0696 61.6618 67.1541 61.1049 67.1541ZM73.3002 59.3636V60.5568H69.1291V59.3636H73.3002ZM70.2477 57.5341H71.7342V64.7578C71.7342 65.0462 71.7773 65.2633 71.8635 65.4091C71.9496 65.5516 72.0607 65.6494 72.1966 65.7024C72.3358 65.7521 72.4866 65.777 72.649 65.777C72.7683 65.777 72.8727 65.7687 72.9622 65.7521C73.0517 65.7356 73.1213 65.7223 73.171 65.7124L73.4395 66.9403C73.3533 66.9735 73.2306 67.0066 73.0716 67.0398C72.9125 67.0762 72.7136 67.0961 72.475 67.0994C72.0839 67.1061 71.7193 67.0365 71.3812 66.8906C71.0431 66.7448 70.7697 66.5194 70.5609 66.2145C70.3521 65.9096 70.2477 65.5268 70.2477 65.0661V57.5341ZM78.1538 67.1541C77.4014 67.1541 76.7534 66.9934 76.2099 66.6719C75.6696 66.3471 75.252 65.8913 74.957 65.3047C74.6654 64.7147 74.5195 64.0237 74.5195 63.2315C74.5195 62.4493 74.6654 61.7599 74.957 61.1634C75.252 60.5668 75.663 60.1011 76.19 59.7663C76.7203 59.4316 77.3401 59.2642 78.0494 59.2642C78.4802 59.2642 78.8978 59.3355 79.3022 59.478C79.7066 59.6205 80.0695 59.8442 80.391 60.1491C80.7125 60.4541 80.966 60.8501 81.1516 61.3374C81.3372 61.8213 81.43 62.4096 81.43 63.1023V63.6293H75.3597V62.5156H79.9734C79.9734 62.1245 79.8938 61.7782 79.7347 61.4766C79.5756 61.1716 79.3519 60.9313 79.0636 60.7557C78.7785 60.58 78.4438 60.4922 78.0593 60.4922C77.6417 60.4922 77.2771 60.5949 76.9656 60.8004C76.6573 61.0026 76.4187 61.2678 76.2496 61.5959C76.0839 61.9207 76.0011 62.2737 76.0011 62.6548V63.5249C76.0011 64.0353 76.0906 64.4695 76.2695 64.8274C76.4518 65.1854 76.7054 65.4588 77.0302 65.6477C77.355 65.8333 77.7345 65.9261 78.1687 65.9261C78.4504 65.9261 78.7073 65.8864 78.9393 65.8068C79.1713 65.724 79.3718 65.6013 79.5408 65.4389C79.7099 65.2765 79.8391 65.076 79.9286 64.8374L81.3356 65.0909C81.2229 65.5052 81.0207 65.8681 80.729 66.1797C80.4407 66.4879 80.0778 66.7282 79.6403 66.9006C79.2061 67.0696 78.7106 67.1541 78.1538 67.1541ZM84.0749 59.3636L85.7603 62.3366L87.4606 59.3636H89.0863L86.7049 63.1818L89.1062 67H87.4805L85.7603 64.1463L84.0451 67H82.4144L84.7908 63.1818L82.4442 59.3636H84.0749ZM94.1772 59.3636V60.5568H90.006V59.3636H94.1772ZM91.1246 57.5341H92.6112V64.7578C92.6112 65.0462 92.6542 65.2633 92.7404 65.4091C92.8266 65.5516 92.9376 65.6494 93.0735 65.7024C93.2127 65.7521 93.3635 65.777 93.5259 65.777C93.6452 65.777 93.7496 65.7687 93.8391 65.7521C93.9286 65.7356 93.9982 65.7223 94.0479 65.7124L94.3164 66.9403C94.2302 66.9735 94.1076 67.0066 93.9485 67.0398C93.7894 67.0762 93.5906 67.0961 93.3519 67.0994C92.9608 67.1061 92.5962 67.0365 92.2582 66.8906C91.9201 66.7448 91.6467 66.5194 91.4379 66.2145C91.229 65.9096 91.1246 65.5268 91.1246 65.0661V57.5341ZM101.013 62.4659V67H99.5266V56.8182H100.993V60.6065H101.088C101.267 60.1955 101.54 59.8691 101.908 59.6271C102.276 59.3852 102.757 59.2642 103.35 59.2642C103.873 59.2642 104.331 59.3719 104.722 59.5874C105.116 59.8028 105.421 60.1243 105.637 60.5518C105.855 60.9761 105.965 61.5064 105.965 62.1428V67H104.478V62.3217C104.478 61.7616 104.334 61.3274 104.046 61.0192C103.757 60.7076 103.356 60.5518 102.843 60.5518C102.491 60.5518 102.176 60.6264 101.898 60.7756C101.623 60.9247 101.406 61.1435 101.247 61.4318C101.091 61.7169 101.013 62.0616 101.013 62.4659ZM111.24 67.1541C110.487 67.1541 109.839 66.9934 109.296 66.6719C108.756 66.3471 108.338 65.8913 108.043 65.3047C107.751 64.7147 107.605 64.0237 107.605 63.2315C107.605 62.4493 107.751 61.7599 108.043 61.1634C108.338 60.5668 108.749 60.1011 109.276 59.7663C109.806 59.4316 110.426 59.2642 111.135 59.2642C111.566 59.2642 111.984 59.3355 112.388 59.478C112.792 59.6205 113.155 59.8442 113.477 60.1491C113.798 60.4541 114.052 60.8501 114.238 61.3374C114.423 61.8213 114.516 62.4096 114.516 63.1023V63.6293H108.446V62.5156H113.059C113.059 62.1245 112.98 61.7782 112.821 61.4766C112.662 61.1716 112.438 60.9313 112.15 60.7557C111.864 60.58 111.53 60.4922 111.145 60.4922C110.728 60.4922 110.363 60.5949 110.051 60.8004C109.743 61.0026 109.505 61.2678 109.336 61.5959C109.17 61.9207 109.087 62.2737 109.087 62.6548V63.5249C109.087 64.0353 109.176 64.4695 109.355 64.8274C109.538 65.1854 109.791 65.4588 110.116 65.6477C110.441 65.8333 110.82 65.9261 111.255 65.9261C111.536 65.9261 111.793 65.8864 112.025 65.8068C112.257 65.724 112.458 65.6013 112.627 65.4389C112.796 65.2765 112.925 65.076 113.015 64.8374L114.422 65.0909C114.309 65.5052 114.107 65.8681 113.815 66.1797C113.527 66.4879 113.164 66.7282 112.726 66.9006C112.292 67.0696 111.797 67.1541 111.24 67.1541ZM116.165 67V59.3636H117.602V60.5767H117.682C117.821 60.1657 118.066 59.8426 118.417 59.6072C118.772 59.3686 119.173 59.2493 119.621 59.2493C119.713 59.2493 119.823 59.2526 119.949 59.2592C120.078 59.2659 120.179 59.2741 120.252 59.2841V60.706C120.192 60.6894 120.086 60.6712 119.934 60.6513C119.781 60.6281 119.629 60.6165 119.476 60.6165C119.125 60.6165 118.812 60.6911 118.537 60.8402C118.265 60.986 118.05 61.1899 117.89 61.4517C117.731 61.7102 117.652 62.0052 117.652 62.3366V67H116.165ZM124.556 67.1541C123.804 67.1541 123.156 66.9934 122.612 66.6719C122.072 66.3471 121.654 65.8913 121.359 65.3047C121.068 64.7147 120.922 64.0237 120.922 63.2315C120.922 62.4493 121.068 61.7599 121.359 61.1634C121.654 60.5668 122.065 60.1011 122.592 59.7663C123.123 59.4316 123.742 59.2642 124.452 59.2642C124.883 59.2642 125.3 59.3355 125.705 59.478C126.109 59.6205 126.472 59.8442 126.793 60.1491C127.115 60.4541 127.368 60.8501 127.554 61.3374C127.74 61.8213 127.832 62.4096 127.832 63.1023V63.6293H121.762V62.5156H126.376C126.376 62.1245 126.296 61.7782 126.137 61.4766C125.978 61.1716 125.754 60.9313 125.466 60.7557C125.181 60.58 124.846 60.4922 124.462 60.4922C124.044 60.4922 123.679 60.5949 123.368 60.8004C123.06 61.0026 122.821 61.2678 122.652 61.5959C122.486 61.9207 122.403 62.2737 122.403 62.6548V63.5249C122.403 64.0353 122.493 64.4695 122.672 64.8274C122.854 65.1854 123.108 65.4588 123.433 65.6477C123.757 65.8333 124.137 65.9261 124.571 65.9261C124.853 65.9261 125.11 65.8864 125.342 65.8068C125.574 65.724 125.774 65.6013 125.943 65.4389C126.112 65.2765 126.241 65.076 126.331 64.8374L127.738 65.0909C127.625 65.5052 127.423 65.8681 127.131 66.1797C126.843 66.4879 126.48 66.7282 126.043 66.9006C125.608 67.0696 125.113 67.1541 124.556 67.1541ZM130.461 67.0945C130.189 67.0945 129.956 66.9983 129.76 66.8061C129.565 66.6106 129.467 66.3752 129.467 66.1001C129.467 65.8284 129.565 65.5964 129.76 65.4041C129.956 65.2086 130.189 65.1108 130.461 65.1108C130.733 65.1108 130.967 65.2086 131.162 65.4041C131.358 65.5964 131.455 65.8284 131.455 66.1001C131.455 66.2824 131.409 66.4498 131.316 66.6023C131.227 66.7514 131.107 66.8707 130.958 66.9602C130.809 67.0497 130.643 67.0945 130.461 67.0945ZM134.426 67.0945C134.154 67.0945 133.921 66.9983 133.725 66.8061C133.529 66.6106 133.432 66.3752 133.432 66.1001C133.432 65.8284 133.529 65.5964 133.725 65.4041C133.921 65.2086 134.154 65.1108 134.426 65.1108C134.698 65.1108 134.931 65.2086 135.127 65.4041C135.323 65.5964 135.42 65.8284 135.42 66.1001C135.42 66.2824 135.374 66.4498 135.281 66.6023C135.192 66.7514 135.072 66.8707 134.923 66.9602C134.774 67.0497 134.608 67.0945 134.426 67.0945ZM138.391 67.0945C138.119 67.0945 137.885 66.9983 137.69 66.8061C137.494 66.6106 137.396 66.3752 137.396 66.1001C137.396 65.8284 137.494 65.5964 137.69 65.4041C137.885 65.2086 138.119 65.1108 138.391 65.1108C138.663 65.1108 138.896 65.2086 139.092 65.4041C139.287 65.5964 139.385 65.8284 139.385 66.1001C139.385 66.2824 139.339 66.4498 139.246 66.6023C139.156 66.7514 139.037 66.8707 138.888 66.9602C138.739 67.0497 138.573 67.0945 138.391 67.0945Z" fill="#6F7595"/>
<path fill-rule="evenodd" clip-rule="evenodd" d="M292.55 56.2171C293.038 55.729 293.038 54.9375 292.55 54.4494C292.062 53.9612 291.27 53.9612 290.782 54.4494L289.17 56.0617C287.874 55.2775 286.455 54.8583 284.999 54.8583C283.516 54.8583 282.074 55.2916 280.758 56.1C279.441 56.9166 278.258 58.1083 277.291 59.625C276.458 60.9333 276.458 63.0583 277.291 64.3666C277.765 65.1142 278.294 65.7828 278.866 66.3659L277.865 67.366C277.377 67.8542 277.377 68.6456 277.865 69.1338C278.354 69.622 279.145 69.622 279.633 69.1338L292.55 56.2171ZM281.615 63.6167L282.937 62.2948C282.923 62.1985 282.916 62.1 282.916 61.9999C282.916 60.8493 283.849 59.9166 284.999 59.9166C285.099 59.9166 285.198 59.9236 285.294 59.9373L286.616 58.6154C286.127 58.3811 285.578 58.2499 284.999 58.2499C282.928 58.2499 281.249 59.9289 281.249 61.9999C281.249 62.5789 281.381 63.1271 281.615 63.6167Z" fill="#6F7595"/>
<path d="M292.708 59.625C292.456 59.2294 291.906 59.1886 291.574 59.5201L288.732 62.3624C288.561 64.1441 287.144 65.5617 285.362 65.7326L283.345 67.7495C282.911 68.183 283.083 68.9143 283.687 69.0196C284.12 69.0949 284.558 69.1333 284.999 69.1333C286.483 69.1333 287.924 68.7 289.241 67.8916C290.558 67.075 291.741 65.8833 292.708 64.3666C293.541 63.0666 293.541 60.9333 292.708 59.625Z" fill="#6F7595"/>
<path d="M24.7706 31V20.8182H28.9766C29.7389 20.8182 30.3968 20.9673 30.9503 21.2656C31.5071 21.5606 31.9363 21.9732 32.2379 22.5036C32.5395 23.0305 32.6903 23.6437 32.6903 24.343C32.6903 25.0457 32.5362 25.6605 32.228 26.1875C31.9231 26.7112 31.4872 27.1172 30.9205 27.4055C30.3537 27.6939 29.6809 27.8381 28.902 27.8381H26.3068V25.8991H28.4446C28.8158 25.8991 29.1257 25.8345 29.3743 25.7053C29.6262 25.576 29.8168 25.3954 29.946 25.1634C30.0753 24.928 30.1399 24.6546 30.1399 24.343C30.1399 24.0282 30.0753 23.7564 29.946 23.5277C29.8168 23.2957 29.6262 23.1167 29.3743 22.9908C29.1224 22.8648 28.8125 22.8018 28.4446 22.8018H27.2315V31H24.7706ZM35.7827 31.1293C35.2955 31.1293 34.8629 31.0481 34.4851 30.8857C34.1106 30.7199 33.8139 30.4714 33.5952 30.1399C33.3797 29.8052 33.272 29.3859 33.272 28.8821C33.272 28.4579 33.3466 28.0999 33.4957 27.8082C33.6449 27.5166 33.8504 27.2796 34.1122 27.0973C34.3741 26.915 34.6757 26.7775 35.017 26.6847C35.3584 26.5885 35.723 26.5239 36.1108 26.4908C36.545 26.451 36.8946 26.4096 37.1598 26.3665C37.425 26.3201 37.6172 26.2554 37.7365 26.1726C37.8591 26.0864 37.9205 25.9654 37.9205 25.8097V25.7848C37.9205 25.5296 37.8326 25.3324 37.657 25.1932C37.4813 25.054 37.2443 24.9844 36.946 24.9844C36.6245 24.9844 36.366 25.054 36.1705 25.1932C35.9749 25.3324 35.8506 25.5246 35.7976 25.7699L33.5554 25.6903C33.6217 25.2263 33.7924 24.812 34.0675 24.4474C34.3459 24.0795 34.727 23.7912 35.2109 23.5824C35.6982 23.3703 36.2831 23.2642 36.9659 23.2642C37.4531 23.2642 37.9022 23.3222 38.3132 23.4382C38.7242 23.5509 39.0821 23.7166 39.3871 23.9354C39.692 24.1508 39.9273 24.416 40.093 24.7308C40.2621 25.0457 40.3466 25.4053 40.3466 25.8097V31H38.0597V29.9361H38C37.8641 30.1946 37.6901 30.4134 37.478 30.5923C37.2692 30.7713 37.0223 30.9055 36.7372 30.995C36.4555 31.0845 36.1373 31.1293 35.7827 31.1293ZM36.5334 29.5384C36.7952 29.5384 37.0305 29.4853 37.2393 29.3793C37.4515 29.2732 37.6205 29.1274 37.7464 28.9418C37.8724 28.7528 37.9354 28.5341 37.9354 28.2855V27.5597C37.8658 27.5961 37.7813 27.6293 37.6818 27.6591C37.5857 27.6889 37.4796 27.7171 37.3636 27.7436C37.2476 27.7701 37.1283 27.7933 37.0057 27.8132C36.883 27.8331 36.7654 27.8513 36.6527 27.8679C36.424 27.9044 36.2285 27.9607 36.0661 28.0369C35.907 28.1132 35.7843 28.2126 35.6982 28.3352C35.6153 28.4545 35.5739 28.5971 35.5739 28.7628C35.5739 29.0147 35.6634 29.2069 35.8423 29.3395C36.0246 29.4721 36.255 29.5384 36.5334 29.5384ZM48.5 25.6953L46.2678 25.755C46.2446 25.5959 46.1816 25.455 46.0788 25.3324C45.9761 25.2064 45.8419 25.1087 45.6761 25.0391C45.5137 24.9661 45.3248 24.9297 45.1094 24.9297C44.8277 24.9297 44.5874 24.986 44.3885 25.0987C44.1929 25.2114 44.0968 25.3639 44.1001 25.5561C44.0968 25.7053 44.1565 25.8345 44.2791 25.9439C44.4051 26.0533 44.6288 26.1411 44.9503 26.2074L46.4219 26.4858C47.1842 26.6316 47.7509 26.8736 48.1222 27.2116C48.4967 27.5497 48.6856 27.9972 48.6889 28.554C48.6856 29.0777 48.5298 29.5334 48.2216 29.9212C47.9167 30.3089 47.4991 30.6106 46.9688 30.826C46.4384 31.0381 45.8319 31.1442 45.1491 31.1442C44.0587 31.1442 43.1986 30.9205 42.5689 30.473C41.9425 30.0223 41.5845 29.419 41.495 28.6634L43.8963 28.6037C43.9493 28.8821 44.0869 29.0942 44.3089 29.2401C44.531 29.3859 44.8144 29.4588 45.1591 29.4588C45.4706 29.4588 45.7242 29.4008 45.9197 29.2848C46.1153 29.1688 46.2147 29.0147 46.218 28.8224C46.2147 28.6501 46.1385 28.5125 45.9893 28.4098C45.8402 28.3037 45.6065 28.2209 45.2884 28.1612L43.956 27.9077C43.1903 27.7685 42.6203 27.5116 42.2457 27.1371C41.8712 26.7592 41.6856 26.2786 41.6889 25.6953C41.6856 25.1849 41.8215 24.7491 42.0966 24.3878C42.3717 24.0232 42.7628 23.7448 43.2699 23.5526C43.777 23.3603 44.3752 23.2642 45.0646 23.2642C46.0987 23.2642 46.9141 23.4813 47.5107 23.9155C48.1072 24.3464 48.437 24.9396 48.5 25.6953ZM56.5527 25.6953L54.3205 25.755C54.2973 25.5959 54.2343 25.455 54.1316 25.3324C54.0288 25.2064 53.8946 25.1087 53.7289 25.0391C53.5665 24.9661 53.3775 24.9297 53.1621 24.9297C52.8804 24.9297 52.6401 24.986 52.4412 25.0987C52.2457 25.2114 52.1496 25.3639 52.1529 25.5561C52.1496 25.7053 52.2092 25.8345 52.3319 25.9439C52.4578 26.0533 52.6815 26.1411 53.003 26.2074L54.4746 26.4858C55.2369 26.6316 55.8037 26.8736 56.1749 27.2116C56.5494 27.5497 56.7383 27.9972 56.7417 28.554C56.7383 29.0777 56.5826 29.5334 56.2743 29.9212C55.9694 30.3089 55.5518 30.6106 55.0215 30.826C54.4912 31.0381 53.8846 31.1442 53.2019 31.1442C52.1114 31.1442 51.2514 30.9205 50.6216 30.473C49.9952 30.0223 49.6373 29.419 49.5478 28.6634L51.949 28.6037C52.0021 28.8821 52.1396 29.0942 52.3617 29.2401C52.5837 29.3859 52.8671 29.4588 53.2118 29.4588C53.5234 29.4588 53.7769 29.4008 53.9725 29.2848C54.168 29.1688 54.2675 29.0147 54.2708 28.8224C54.2675 28.6501 54.1912 28.5125 54.0421 28.4098C53.8929 28.3037 53.6593 28.2209 53.3411 28.1612L52.0087 27.9077C51.2431 27.7685 50.673 27.5116 50.2985 27.1371C49.9239 26.7592 49.7383 26.2786 49.7417 25.6953C49.7383 25.1849 49.8742 24.7491 50.1493 24.3878C50.4244 24.0232 50.8155 23.7448 51.3226 23.5526C51.8297 23.3603 52.428 23.2642 53.1174 23.2642C54.1515 23.2642 54.9668 23.4813 55.5634 23.9155C56.16 24.3464 56.4898 24.9396 56.5527 25.6953ZM59.3654 31L57.3768 23.3636H59.8178L60.8469 28.2557H60.9116L62.0153 23.3636H64.3967L65.5302 28.2209H65.5948L66.5941 23.3636H69.0352L67.0415 31H64.4414L63.2482 26.5504H63.1637L61.9705 31H59.3654ZM73.4114 31.1442C72.6093 31.1442 71.9199 30.9801 71.3432 30.652C70.7698 30.3205 70.3274 29.8598 70.0158 29.2699C69.7076 28.6766 69.5534 27.9889 69.5534 27.2067C69.5534 26.4212 69.7076 25.7334 70.0158 25.1435C70.3274 24.5502 70.7698 24.0895 71.3432 23.7614C71.9199 23.4299 72.6093 23.2642 73.4114 23.2642C74.2135 23.2642 74.9012 23.4299 75.4746 23.7614C76.0513 24.0895 76.4938 24.5502 76.802 25.1435C77.1136 25.7334 77.2694 26.4212 77.2694 27.2067C77.2694 27.9889 77.1136 28.6766 76.802 29.2699C76.4938 29.8598 76.0513 30.3205 75.4746 30.652C74.9012 30.9801 74.2135 31.1442 73.4114 31.1442ZM73.4263 29.3097C73.718 29.3097 73.9649 29.2202 74.1671 29.0412C74.3693 28.8622 74.5234 28.6136 74.6294 28.2955C74.7388 27.9773 74.7935 27.6094 74.7935 27.1918C74.7935 26.7675 74.7388 26.3963 74.6294 26.0781C74.5234 25.7599 74.3693 25.5114 74.1671 25.3324C73.9649 25.1534 73.718 25.0639 73.4263 25.0639C73.1247 25.0639 72.8695 25.1534 72.6607 25.3324C72.4552 25.5114 72.2978 25.7599 72.1884 26.0781C72.0823 26.3963 72.0293 26.7675 72.0293 27.1918C72.0293 27.6094 72.0823 27.9773 72.1884 28.2955C72.2978 28.6136 72.4552 28.8622 72.6607 29.0412C72.8695 29.2202 73.1247 29.3097 73.4263 29.3097ZM78.5147 31V23.3636H80.8762V24.7557H80.9558C81.095 24.2519 81.322 23.8774 81.6369 23.6321C81.9518 23.3835 82.318 23.2592 82.7356 23.2592C82.8483 23.2592 82.9643 23.2675 83.0836 23.2841C83.2029 23.2973 83.314 23.3189 83.4167 23.3487V25.4616C83.3007 25.4219 83.1483 25.3904 82.9593 25.3672C82.7737 25.344 82.608 25.3324 82.4622 25.3324C82.1738 25.3324 81.9136 25.397 81.6816 25.5263C81.4529 25.6522 81.2723 25.8295 81.1397 26.0582C81.0105 26.2836 80.9458 26.5488 80.9458 26.8537V31H78.5147ZM86.7999 31.1094C86.2364 31.1094 85.7244 30.9635 85.2637 30.6719C84.803 30.3802 84.4351 29.9427 84.16 29.3594C83.8849 28.776 83.7473 28.0518 83.7473 27.1868C83.7473 26.2886 83.8899 25.5495 84.1749 24.9695C84.4599 24.3894 84.8328 23.9602 85.2935 23.6818C85.7575 23.4034 86.2563 23.2642 86.79 23.2642C87.191 23.2642 87.534 23.3338 87.8191 23.473C88.1041 23.6089 88.3394 23.7846 88.525 24C88.7106 24.2154 88.8515 24.4392 88.9476 24.6712H88.9973V20.8182H91.4284V31H89.0222V29.7621H88.9476C88.8449 29.9974 88.699 30.2178 88.5101 30.4233C88.3212 30.6288 88.0842 30.7945 87.7992 30.9205C87.5175 31.0464 87.1844 31.1094 86.7999 31.1094ZM87.6451 29.2152C87.94 29.2152 88.1919 29.1323 88.4007 28.9666C88.6096 28.7976 88.7703 28.5606 88.883 28.2557C88.9957 27.9508 89.052 27.5928 89.052 27.1818C89.052 26.7642 88.9957 26.4046 88.883 26.103C88.7736 25.8014 88.6129 25.5694 88.4007 25.407C88.1919 25.2446 87.94 25.1634 87.6451 25.1634C87.3435 25.1634 87.0882 25.2462 86.8794 25.4119C86.6706 25.5777 86.5115 25.8113 86.4022 26.1129C86.2961 26.4145 86.2431 26.7708 86.2431 27.1818C86.2431 27.5928 86.2978 27.9508 86.4071 28.2557C86.5165 28.5606 86.6739 28.7976 86.8794 28.9666C87.0882 29.1323 87.3435 29.2152 87.6451 29.2152Z" fill="#101840"/>
<path d="M148.926 130.81V133.26H152.216V134.814H148.926V137.404H152.636V139H146.966V129.214H152.636V130.81H148.926ZM156.657 132.448C156.909 132.037 157.236 131.715 157.637 131.482C158.048 131.249 158.515 131.132 159.037 131.132V133.19H158.519C157.903 133.19 157.437 133.335 157.119 133.624C156.811 133.913 156.657 134.417 156.657 135.136V139H154.697V131.244H156.657V132.448ZM162.597 132.448C162.849 132.037 163.176 131.715 163.577 131.482C163.988 131.249 164.455 131.132 164.977 131.132V133.19H164.459C163.843 133.19 163.377 133.335 163.059 133.624C162.751 133.913 162.597 134.417 162.597 135.136V139H160.637V131.244H162.597V132.448ZM170.021 139.126C169.275 139.126 168.603 138.963 168.005 138.636C167.408 138.3 166.937 137.829 166.591 137.222C166.255 136.615 166.087 135.915 166.087 135.122C166.087 134.329 166.26 133.629 166.605 133.022C166.96 132.415 167.441 131.949 168.047 131.622C168.654 131.286 169.331 131.118 170.077 131.118C170.824 131.118 171.501 131.286 172.107 131.622C172.714 131.949 173.19 132.415 173.535 133.022C173.89 133.629 174.067 134.329 174.067 135.122C174.067 135.915 173.885 136.615 173.521 137.222C173.167 137.829 172.681 138.3 172.065 138.636C171.459 138.963 170.777 139.126 170.021 139.126ZM170.021 137.418C170.376 137.418 170.707 137.334 171.015 137.166C171.333 136.989 171.585 136.727 171.771 136.382C171.958 136.037 172.051 135.617 172.051 135.122C172.051 134.385 171.855 133.82 171.463 133.428C171.081 133.027 170.609 132.826 170.049 132.826C169.489 132.826 169.018 133.027 168.635 133.428C168.262 133.82 168.075 134.385 168.075 135.122C168.075 135.859 168.257 136.429 168.621 136.83C168.995 137.222 169.461 137.418 170.021 137.418ZM177.745 132.448C177.997 132.037 178.324 131.715 178.725 131.482C179.136 131.249 179.603 131.132 180.125 131.132V133.19H179.607C178.991 133.19 178.525 133.335 178.207 133.624C177.899 133.913 177.745 134.417 177.745 135.136V139H175.785V131.244H177.745V132.448Z" fill="#FFE838"/>
<path d="M371.119 92.8182H372.983L376.224 100.733H376.344L379.585 92.8182H381.45V103H379.988V95.6321H379.893L376.891 102.985H375.678L372.675 95.6271H372.58V103H371.119V92.8182ZM386.855 103.154C386.103 103.154 385.455 102.993 384.911 102.672C384.371 102.347 383.953 101.891 383.658 101.305C383.367 100.715 383.221 100.024 383.221 99.2315C383.221 98.4493 383.367 97.7599 383.658 97.1634C383.953 96.5668 384.364 96.1011 384.891 95.7663C385.421 95.4316 386.041 95.2642 386.751 95.2642C387.181 95.2642 387.599 95.3355 388.003 95.478C388.408 95.6205 388.771 95.8442 389.092 96.1491C389.414 96.4541 389.667 96.8501 389.853 97.3374C390.038 97.8213 390.131 98.4096 390.131 99.1023V99.6293H384.061V98.5156H388.675C388.675 98.1245 388.595 97.7782 388.436 97.4766C388.277 97.1716 388.053 96.9313 387.765 96.7557C387.48 96.58 387.145 96.4922 386.76 96.4922C386.343 96.4922 385.978 96.5949 385.667 96.8004C385.358 97.0026 385.12 97.2678 384.951 97.5959C384.785 97.9207 384.702 98.2737 384.702 98.6548V99.5249C384.702 100.035 384.792 100.469 384.971 100.827C385.153 101.185 385.407 101.459 385.731 101.648C386.056 101.833 386.436 101.926 386.87 101.926C387.152 101.926 387.408 101.886 387.64 101.807C387.872 101.724 388.073 101.601 388.242 101.439C388.411 101.277 388.54 101.076 388.63 100.837L390.037 101.091C389.924 101.505 389.722 101.868 389.43 102.18C389.142 102.488 388.779 102.728 388.341 102.901C387.907 103.07 387.412 103.154 386.855 103.154ZM397.503 97.228L396.156 97.4666C396.099 97.2943 396.01 97.1302 395.887 96.9744C395.768 96.8187 395.605 96.6911 395.4 96.5916C395.194 96.4922 394.938 96.4425 394.629 96.4425C394.208 96.4425 393.857 96.5369 393.575 96.7259C393.294 96.9115 393.153 97.1518 393.153 97.4467C393.153 97.7019 393.247 97.9074 393.436 98.0632C393.625 98.219 393.93 98.3466 394.351 98.446L395.564 98.7244C396.267 98.8868 396.79 99.1371 397.135 99.4751C397.48 99.8132 397.652 100.252 397.652 100.793C397.652 101.25 397.519 101.658 397.254 102.016C396.992 102.37 396.626 102.649 396.156 102.851C395.688 103.053 395.146 103.154 394.53 103.154C393.675 103.154 392.977 102.972 392.437 102.607C391.897 102.239 391.565 101.717 391.442 101.041L392.879 100.822C392.969 101.197 393.153 101.48 393.431 101.673C393.71 101.862 394.072 101.956 394.52 101.956C395.007 101.956 395.397 101.855 395.688 101.653C395.98 101.447 396.126 101.197 396.126 100.902C396.126 100.663 396.036 100.463 395.857 100.3C395.682 100.138 395.411 100.015 395.047 99.9325L393.754 99.6491C393.042 99.4867 392.515 99.2282 392.173 98.8736C391.835 98.5189 391.666 98.0698 391.666 97.5263C391.666 97.0755 391.792 96.6811 392.044 96.343C392.296 96.005 392.644 95.7415 393.088 95.5526C393.532 95.3603 394.041 95.2642 394.614 95.2642C395.44 95.2642 396.089 95.4432 396.563 95.8011C397.037 96.1558 397.35 96.6314 397.503 97.228ZM405.009 97.228L403.661 97.4666C403.605 97.2943 403.516 97.1302 403.393 96.9744C403.274 96.8187 403.111 96.6911 402.906 96.5916C402.7 96.4922 402.443 96.4425 402.135 96.4425C401.714 96.4425 401.363 96.5369 401.081 96.7259C400.799 96.9115 400.659 97.1518 400.659 97.4467C400.659 97.7019 400.753 97.9074 400.942 98.0632C401.131 98.219 401.436 98.3466 401.857 98.446L403.07 98.7244C403.772 98.8868 404.296 99.1371 404.641 99.4751C404.985 99.8132 405.158 100.252 405.158 100.793C405.158 101.25 405.025 101.658 404.76 102.016C404.498 102.37 404.132 102.649 403.661 102.851C403.194 103.053 402.652 103.154 402.036 103.154C401.181 103.154 400.483 102.972 399.943 102.607C399.402 102.239 399.071 101.717 398.948 101.041L400.385 100.822C400.475 101.197 400.659 101.48 400.937 101.673C401.215 101.862 401.578 101.956 402.026 101.956C402.513 101.956 402.902 101.855 403.194 101.653C403.486 101.447 403.632 101.197 403.632 100.902C403.632 100.663 403.542 100.463 403.363 100.3C403.187 100.138 402.917 100.015 402.553 99.9325L401.26 99.6491C400.548 99.4867 400.021 99.2282 399.679 98.8736C399.341 98.5189 399.172 98.0698 399.172 97.5263C399.172 97.0755 399.298 96.6811 399.55 96.343C399.802 96.005 400.15 95.7415 400.594 95.5526C401.038 95.3603 401.547 95.2642 402.12 95.2642C402.945 95.2642 403.595 95.4432 404.069 95.8011C404.543 96.1558 404.856 96.6314 405.009 97.228ZM409.015 103.169C408.531 103.169 408.093 103.08 407.702 102.901C407.311 102.718 407.001 102.455 406.772 102.11C406.547 101.765 406.434 101.343 406.434 100.842C406.434 100.411 406.517 100.057 406.683 99.7784C406.849 99.5 407.072 99.2796 407.354 99.1172C407.636 98.9548 407.951 98.8321 408.299 98.7493C408.647 98.6664 409.001 98.6035 409.363 98.5604C409.82 98.5073 410.191 98.4643 410.476 98.4311C410.761 98.3946 410.968 98.3366 411.098 98.2571C411.227 98.1776 411.292 98.0483 411.292 97.8693V97.8345C411.292 97.4003 411.169 97.0639 410.924 96.8253C410.682 96.5866 410.32 96.4673 409.84 96.4673C409.339 96.4673 408.945 96.5784 408.657 96.8004C408.372 97.0192 408.174 97.2628 408.065 97.5312L406.668 97.2131C406.834 96.7491 407.076 96.3745 407.394 96.0895C407.715 95.8011 408.085 95.5923 408.502 95.4631C408.92 95.3305 409.359 95.2642 409.82 95.2642C410.125 95.2642 410.448 95.3007 410.789 95.3736C411.134 95.4432 411.456 95.5724 411.754 95.7614C412.056 95.9503 412.302 96.2204 412.495 96.5717C412.687 96.9197 412.783 97.3722 412.783 97.929V103H411.331V101.956H411.272C411.176 102.148 411.031 102.337 410.839 102.523C410.647 102.708 410.4 102.862 410.098 102.985C409.797 103.108 409.435 103.169 409.015 103.169ZM409.338 101.976C409.749 101.976 410.1 101.895 410.392 101.732C410.687 101.57 410.91 101.358 411.063 101.096C411.219 100.831 411.297 100.547 411.297 100.246V99.2614C411.243 99.3144 411.141 99.3641 410.988 99.4105C410.839 99.4536 410.668 99.4917 410.476 99.5249C410.284 99.5547 410.097 99.5829 409.914 99.6094C409.732 99.6326 409.58 99.6525 409.457 99.669C409.169 99.7055 408.905 99.7668 408.667 99.853C408.431 99.9392 408.242 100.063 408.1 100.226C407.961 100.385 407.891 100.597 407.891 100.862C407.891 101.23 408.027 101.509 408.299 101.697C408.57 101.883 408.917 101.976 409.338 101.976ZM417.965 106.023C417.358 106.023 416.836 105.943 416.399 105.784C415.964 105.625 415.61 105.415 415.335 105.153C415.06 104.891 414.854 104.604 414.718 104.293L415.996 103.766C416.085 103.911 416.205 104.066 416.354 104.228C416.506 104.394 416.712 104.535 416.97 104.651C417.232 104.767 417.569 104.825 417.98 104.825C418.543 104.825 419.009 104.687 419.377 104.412C419.744 104.14 419.928 103.706 419.928 103.109V101.608H419.834C419.744 101.77 419.615 101.951 419.446 102.15C419.28 102.349 419.052 102.521 418.76 102.667C418.468 102.813 418.089 102.886 417.622 102.886C417.018 102.886 416.475 102.745 415.991 102.463C415.51 102.178 415.129 101.759 414.847 101.205C414.569 100.648 414.43 99.964 414.43 99.152C414.43 98.34 414.567 97.6439 414.843 97.0639C415.121 96.4839 415.502 96.0398 415.986 95.7315C416.47 95.42 417.018 95.2642 417.632 95.2642C418.106 95.2642 418.488 95.3438 418.78 95.5028C419.072 95.6586 419.299 95.8409 419.461 96.0497C419.627 96.2585 419.754 96.4425 419.844 96.6016H419.953V95.3636H421.41V103.169C421.41 103.825 421.258 104.364 420.953 104.785C420.648 105.206 420.235 105.517 419.715 105.719C419.198 105.922 418.614 106.023 417.965 106.023ZM417.95 101.653C418.377 101.653 418.739 101.553 419.034 101.354C419.332 101.152 419.557 100.864 419.71 100.489C419.865 100.112 419.943 99.6591 419.943 99.1321C419.943 98.6184 419.867 98.166 419.715 97.7749C419.562 97.3838 419.338 97.0788 419.044 96.8601C418.749 96.638 418.384 96.527 417.95 96.527C417.502 96.527 417.129 96.643 416.831 96.875C416.533 97.1037 416.307 97.4152 416.155 97.8097C416.006 98.2041 415.931 98.6449 415.931 99.1321C415.931 99.6326 416.008 100.072 416.16 100.45C416.312 100.827 416.538 101.122 416.836 101.335C417.138 101.547 417.509 101.653 417.95 101.653ZM426.695 103.154C425.942 103.154 425.294 102.993 424.751 102.672C424.211 102.347 423.793 101.891 423.498 101.305C423.206 100.715 423.061 100.024 423.061 99.2315C423.061 98.4493 423.206 97.7599 423.498 97.1634C423.793 96.5668 424.204 96.1011 424.731 95.7663C425.261 95.4316 425.881 95.2642 426.59 95.2642C427.021 95.2642 427.439 95.3355 427.843 95.478C428.248 95.6205 428.61 95.8442 428.932 96.1491C429.253 96.4541 429.507 96.8501 429.693 97.3374C429.878 97.8213 429.971 98.4096 429.971 99.1023V99.6293H423.901V98.5156H428.514C428.514 98.1245 428.435 97.7782 428.276 97.4766C428.117 97.1716 427.893 96.9313 427.605 96.7557C427.32 96.58 426.985 96.4922 426.6 96.4922C426.183 96.4922 425.818 96.5949 425.507 96.8004C425.198 97.0026 424.96 97.2678 424.791 97.5959C424.625 97.9207 424.542 98.2737 424.542 98.6548V99.5249C424.542 100.035 424.632 100.469 424.811 100.827C424.993 101.185 425.246 101.459 425.571 101.648C425.896 101.833 426.276 101.926 426.71 101.926C426.991 101.926 427.248 101.886 427.48 101.807C427.712 101.724 427.913 101.601 428.082 101.439C428.251 101.277 428.38 101.076 428.47 100.837L429.877 101.091C429.764 101.505 429.562 101.868 429.27 102.18C428.982 102.488 428.619 102.728 428.181 102.901C427.747 103.07 427.252 103.154 426.695 103.154ZM438.617 103.154C437.864 103.154 437.216 102.993 436.673 102.672C436.133 102.347 435.715 101.891 435.42 101.305C435.128 100.715 434.982 100.024 434.982 99.2315C434.982 98.4493 435.128 97.7599 435.42 97.1634C435.715 96.5668 436.126 96.1011 436.653 95.7663C437.183 95.4316 437.803 95.2642 438.512 95.2642C438.943 95.2642 439.361 95.3355 439.765 95.478C440.169 95.6205 440.532 95.8442 440.854 96.1491C441.175 96.4541 441.429 96.8501 441.615 97.3374C441.8 97.8213 441.893 98.4096 441.893 99.1023V99.6293H435.823V98.5156H440.436C440.436 98.1245 440.357 97.7782 440.198 97.4766C440.039 97.1716 439.815 96.9313 439.526 96.7557C439.241 96.58 438.907 96.4922 438.522 96.4922C438.105 96.4922 437.74 96.5949 437.428 96.8004C437.12 97.0026 436.882 97.2678 436.713 97.5959C436.547 97.9207 436.464 98.2737 436.464 98.6548V99.5249C436.464 100.035 436.553 100.469 436.732 100.827C436.915 101.185 437.168 101.459 437.493 101.648C437.818 101.833 438.197 101.926 438.632 101.926C438.913 101.926 439.17 101.886 439.402 101.807C439.634 101.724 439.835 101.601 440.004 101.439C440.173 101.277 440.302 101.076 440.392 100.837L441.798 101.091C441.686 101.505 441.484 101.868 441.192 102.18C440.904 102.488 440.541 102.728 440.103 102.901C439.669 103.07 439.173 103.154 438.617 103.154ZM443.542 103V95.3636H444.979V96.5767H445.059C445.198 96.1657 445.443 95.8426 445.794 95.6072C446.149 95.3686 446.55 95.2493 446.998 95.2493C447.09 95.2493 447.2 95.2526 447.326 95.2592C447.455 95.2659 447.556 95.2741 447.629 95.2841V96.706C447.569 96.6894 447.463 96.6712 447.311 96.6513C447.158 96.6281 447.006 96.6165 446.853 96.6165C446.502 96.6165 446.189 96.6911 445.914 96.8402C445.642 96.986 445.426 97.1899 445.267 97.4517C445.108 97.7102 445.029 98.0052 445.029 98.3366V103H443.542ZM448.915 103V95.3636H450.352V96.5767H450.432C450.571 96.1657 450.816 95.8426 451.167 95.6072C451.522 95.3686 451.923 95.2493 452.371 95.2493C452.463 95.2493 452.573 95.2526 452.699 95.2592C452.828 95.2659 452.929 95.2741 453.002 95.2841V96.706C452.942 96.6894 452.836 96.6712 452.684 96.6513C452.531 96.6281 452.379 96.6165 452.226 96.6165C451.875 96.6165 451.562 96.6911 451.287 96.8402C451.015 96.986 450.8 97.1899 450.64 97.4517C450.481 97.7102 450.402 98.0052 450.402 98.3366V103H448.915ZM457.232 103.154C456.516 103.154 455.891 102.99 455.357 102.662C454.824 102.334 454.409 101.875 454.114 101.285C453.819 100.695 453.672 100.005 453.672 99.2166C453.672 98.4245 453.819 97.7318 454.114 97.1385C454.409 96.5452 454.824 96.0845 455.357 95.7564C455.891 95.4283 456.516 95.2642 457.232 95.2642C457.947 95.2642 458.572 95.4283 459.106 95.7564C459.639 96.0845 460.054 96.5452 460.349 97.1385C460.644 97.7318 460.791 98.4245 460.791 99.2166C460.791 100.005 460.644 100.695 460.349 101.285C460.054 101.875 459.639 102.334 459.106 102.662C458.572 102.99 457.947 103.154 457.232 103.154ZM457.237 101.906C457.701 101.906 458.085 101.784 458.39 101.538C458.695 101.293 458.92 100.967 459.066 100.559C459.215 100.151 459.29 99.7022 459.29 99.2116C459.29 98.7244 459.215 98.277 459.066 97.8693C458.92 97.4583 458.695 97.1286 458.39 96.88C458.085 96.6314 457.701 96.5071 457.237 96.5071C456.769 96.5071 456.381 96.6314 456.073 96.88C455.768 97.1286 455.541 97.4583 455.392 97.8693C455.246 98.277 455.173 98.7244 455.173 99.2116C455.173 99.7022 455.246 100.151 455.392 100.559C455.541 100.967 455.768 101.293 456.073 101.538C456.381 101.784 456.769 101.906 457.237 101.906ZM462.45 103V95.3636H463.887V96.5767H463.967C464.106 96.1657 464.351 95.8426 464.703 95.6072C465.057 95.3686 465.458 95.2493 465.906 95.2493C465.999 95.2493 466.108 95.2526 466.234 95.2592C466.363 95.2659 466.464 95.2741 466.537 95.2841V96.706C466.477 96.6894 466.371 96.6712 466.219 96.6513C466.066 96.6281 465.914 96.6165 465.762 96.6165C465.41 96.6165 465.097 96.6911 464.822 96.8402C464.55 96.986 464.335 97.1899 464.176 97.4517C464.017 97.7102 463.937 98.0052 463.937 98.3366V103H462.45Z" fill="#D14343"/>
<g filter="url(#filter0_dd_1148_15715)">
<path d="M370 52C370 47.5817 373.582 44 378 44H641C645.418 44 649 47.5817 649 52V72C649 76.4183 645.418 80 641 80H378C373.582 80 370 76.4183 370 72V52Z" fill="white" shape-rendering="crispEdges"/>
<path d="M370.5 52C370.5 47.8579 373.858 44.5 378 44.5H641C645.142 44.5 648.5 47.8579 648.5 52V72C648.5 76.1421 645.142 79.5 641 79.5H378C373.858 79.5 370.5 76.1421 370.5 72V52Z" stroke="#D14343" shape-rendering="crispEdges"/>
<path d="M381.062 53.5369V70.2812H379.73V53.5369H381.062Z" fill="#101940"/>
<path fill-rule="evenodd" clip-rule="evenodd" d="M638.55 56.2171C639.038 55.729 639.038 54.9375 638.55 54.4494C638.062 53.9612 637.27 53.9612 636.782 54.4494L635.17 56.0617C633.874 55.2775 632.455 54.8583 630.999 54.8583C629.516 54.8583 628.074 55.2916 626.758 56.1C625.441 56.9166 624.258 58.1083 623.291 59.625C622.458 60.9333 622.458 63.0583 623.291 64.3666C623.765 65.1142 624.294 65.7828 624.866 66.3659L623.865 67.366C623.377 67.8542 623.377 68.6456 623.865 69.1338C624.354 69.622 625.145 69.622 625.633 69.1338L638.55 56.2171ZM627.615 63.6167L628.937 62.2948C628.923 62.1985 628.916 62.1 628.916 61.9999C628.916 60.8493 629.849 59.9166 630.999 59.9166C631.099 59.9166 631.198 59.9236 631.294 59.9373L632.616 58.6154C632.127 58.3811 631.578 58.2499 630.999 58.2499C628.928 58.2499 627.249 59.9289 627.249 61.9999C627.249 62.5789 627.381 63.1271 627.615 63.6167Z" fill="#6F7595"/>
<path d="M638.708 59.625C638.456 59.2294 637.906 59.1886 637.574 59.5201L634.732 62.3624C634.561 64.1441 633.144 65.5617 631.362 65.7326L629.345 67.7495C628.911 68.183 629.083 68.9143 629.687 69.0196C630.12 69.0949 630.558 69.1333 630.999 69.1333C632.483 69.1333 633.924 68.7 635.241 67.8916C636.558 67.075 637.741 65.8833 638.708 64.3666C639.541 63.0666 639.541 60.9333 638.708 59.625Z" fill="#6F7595"/>
</g>
<path d="M370.771 31V20.8182H374.977C375.739 20.8182 376.397 20.9673 376.95 21.2656C377.507 21.5606 377.936 21.9732 378.238 22.5036C378.54 23.0305 378.69 23.6437 378.69 24.343C378.69 25.0457 378.536 25.6605 378.228 26.1875C377.923 26.7112 377.487 27.1172 376.92 27.4055C376.354 27.6939 375.681 27.8381 374.902 27.8381H372.307V25.8991H374.445C374.816 25.8991 375.126 25.8345 375.374 25.7053C375.626 25.576 375.817 25.3954 375.946 25.1634C376.075 24.928 376.14 24.6546 376.14 24.343C376.14 24.0282 376.075 23.7564 375.946 23.5277C375.817 23.2957 375.626 23.1167 375.374 22.9908C375.122 22.8648 374.813 22.8018 374.445 22.8018H373.232V31H370.771ZM381.783 31.1293C381.295 31.1293 380.863 31.0481 380.485 30.8857C380.111 30.7199 379.814 30.4714 379.595 30.1399C379.38 29.8052 379.272 29.3859 379.272 28.8821C379.272 28.4579 379.347 28.0999 379.496 27.8082C379.645 27.5166 379.85 27.2796 380.112 27.0973C380.374 26.915 380.676 26.7775 381.017 26.6847C381.358 26.5885 381.723 26.5239 382.111 26.4908C382.545 26.451 382.895 26.4096 383.16 26.3665C383.425 26.3201 383.617 26.2554 383.737 26.1726C383.859 26.0864 383.92 25.9654 383.92 25.8097V25.7848C383.92 25.5296 383.833 25.3324 383.657 25.1932C383.481 25.054 383.244 24.9844 382.946 24.9844C382.625 24.9844 382.366 25.054 382.17 25.1932C381.975 25.3324 381.851 25.5246 381.798 25.7699L379.555 25.6903C379.622 25.2263 379.792 24.812 380.067 24.4474C380.346 24.0795 380.727 23.7912 381.211 23.5824C381.698 23.3703 382.283 23.2642 382.966 23.2642C383.453 23.2642 383.902 23.3222 384.313 23.4382C384.724 23.5509 385.082 23.7166 385.387 23.9354C385.692 24.1508 385.927 24.416 386.093 24.7308C386.262 25.0457 386.347 25.4053 386.347 25.8097V31H384.06V29.9361H384C383.864 30.1946 383.69 30.4134 383.478 30.5923C383.269 30.7713 383.022 30.9055 382.737 30.995C382.455 31.0845 382.137 31.1293 381.783 31.1293ZM382.533 29.5384C382.795 29.5384 383.031 29.4853 383.239 29.3793C383.451 29.2732 383.621 29.1274 383.746 28.9418C383.872 28.7528 383.935 28.5341 383.935 28.2855V27.5597C383.866 27.5961 383.781 27.6293 383.682 27.6591C383.586 27.6889 383.48 27.7171 383.364 27.7436C383.248 27.7701 383.128 27.7933 383.006 27.8132C382.883 27.8331 382.765 27.8513 382.653 27.8679C382.424 27.9044 382.228 27.9607 382.066 28.0369C381.907 28.1132 381.784 28.2126 381.698 28.3352C381.615 28.4545 381.574 28.5971 381.574 28.7628C381.574 29.0147 381.663 29.2069 381.842 29.3395C382.025 29.4721 382.255 29.5384 382.533 29.5384ZM394.5 25.6953L392.268 25.755C392.245 25.5959 392.182 25.455 392.079 25.3324C391.976 25.2064 391.842 25.1087 391.676 25.0391C391.514 24.9661 391.325 24.9297 391.109 24.9297C390.828 24.9297 390.587 24.986 390.388 25.0987C390.193 25.2114 390.097 25.3639 390.1 25.5561C390.097 25.7053 390.156 25.8345 390.279 25.9439C390.405 26.0533 390.629 26.1411 390.95 26.2074L392.422 26.4858C393.184 26.6316 393.751 26.8736 394.122 27.2116C394.497 27.5497 394.686 27.9972 394.689 28.554C394.686 29.0777 394.53 29.5334 394.222 29.9212C393.917 30.3089 393.499 30.6106 392.969 30.826C392.438 31.0381 391.832 31.1442 391.149 31.1442C390.059 31.1442 389.199 30.9205 388.569 30.473C387.942 30.0223 387.585 29.419 387.495 28.6634L389.896 28.6037C389.949 28.8821 390.087 29.0942 390.309 29.2401C390.531 29.3859 390.814 29.4588 391.159 29.4588C391.471 29.4588 391.724 29.4008 391.92 29.2848C392.115 29.1688 392.215 29.0147 392.218 28.8224C392.215 28.6501 392.138 28.5125 391.989 28.4098C391.84 28.3037 391.607 28.2209 391.288 28.1612L389.956 27.9077C389.19 27.7685 388.62 27.5116 388.246 27.1371C387.871 26.7592 387.686 26.2786 387.689 25.6953C387.686 25.1849 387.821 24.7491 388.097 24.3878C388.372 24.0232 388.763 23.7448 389.27 23.5526C389.777 23.3603 390.375 23.2642 391.065 23.2642C392.099 23.2642 392.914 23.4813 393.511 23.9155C394.107 24.3464 394.437 24.9396 394.5 25.6953ZM402.553 25.6953L400.32 25.755C400.297 25.5959 400.234 25.455 400.132 25.3324C400.029 25.2064 399.895 25.1087 399.729 25.0391C399.566 24.9661 399.378 24.9297 399.162 24.9297C398.88 24.9297 398.64 24.986 398.441 25.0987C398.246 25.2114 398.15 25.3639 398.153 25.5561C398.15 25.7053 398.209 25.8345 398.332 25.9439C398.458 26.0533 398.682 26.1411 399.003 26.2074L400.475 26.4858C401.237 26.6316 401.804 26.8736 402.175 27.2116C402.549 27.5497 402.738 27.9972 402.742 28.554C402.738 29.0777 402.583 29.5334 402.274 29.9212C401.969 30.3089 401.552 30.6106 401.021 30.826C400.491 31.0381 399.885 31.1442 399.202 31.1442C398.111 31.1442 397.251 30.9205 396.622 30.473C395.995 30.0223 395.637 29.419 395.548 28.6634L397.949 28.6037C398.002 28.8821 398.14 29.0942 398.362 29.2401C398.584 29.3859 398.867 29.4588 399.212 29.4588C399.523 29.4588 399.777 29.4008 399.972 29.2848C400.168 29.1688 400.267 29.0147 400.271 28.8224C400.267 28.6501 400.191 28.5125 400.042 28.4098C399.893 28.3037 399.659 28.2209 399.341 28.1612L398.009 27.9077C397.243 27.7685 396.673 27.5116 396.298 27.1371C395.924 26.7592 395.738 26.2786 395.742 25.6953C395.738 25.1849 395.874 24.7491 396.149 24.3878C396.424 24.0232 396.816 23.7448 397.323 23.5526C397.83 23.3603 398.428 23.2642 399.117 23.2642C400.151 23.2642 400.967 23.4813 401.563 23.9155C402.16 24.3464 402.49 24.9396 402.553 25.6953ZM405.365 31L403.377 23.3636H405.818L406.847 28.2557H406.912L408.015 23.3636H410.397L411.53 28.2209H411.595L412.594 23.3636H415.035L413.042 31H410.441L409.248 26.5504H409.164L407.971 31H405.365ZM419.411 31.1442C418.609 31.1442 417.92 30.9801 417.343 30.652C416.77 30.3205 416.327 29.8598 416.016 29.2699C415.708 28.6766 415.553 27.9889 415.553 27.2067C415.553 26.4212 415.708 25.7334 416.016 25.1435C416.327 24.5502 416.77 24.0895 417.343 23.7614C417.92 23.4299 418.609 23.2642 419.411 23.2642C420.213 23.2642 420.901 23.4299 421.475 23.7614C422.051 24.0895 422.494 24.5502 422.802 25.1435C423.114 25.7334 423.269 26.4212 423.269 27.2067C423.269 27.9889 423.114 28.6766 422.802 29.2699C422.494 29.8598 422.051 30.3205 421.475 30.652C420.901 30.9801 420.213 31.1442 419.411 31.1442ZM419.426 29.3097C419.718 29.3097 419.965 29.2202 420.167 29.0412C420.369 28.8622 420.523 28.6136 420.629 28.2955C420.739 27.9773 420.794 27.6094 420.794 27.1918C420.794 26.7675 420.739 26.3963 420.629 26.0781C420.523 25.7599 420.369 25.5114 420.167 25.3324C419.965 25.1534 419.718 25.0639 419.426 25.0639C419.125 25.0639 418.869 25.1534 418.661 25.3324C418.455 25.5114 418.298 25.7599 418.188 26.0781C418.082 26.3963 418.029 26.7675 418.029 27.1918C418.029 27.6094 418.082 27.9773 418.188 28.2955C418.298 28.6136 418.455 28.8622 418.661 29.0412C418.869 29.2202 419.125 29.3097 419.426 29.3097ZM424.515 31V23.3636H426.876V24.7557H426.956C427.095 24.2519 427.322 23.8774 427.637 23.6321C427.952 23.3835 428.318 23.2592 428.736 23.2592C428.848 23.2592 428.964 23.2675 429.084 23.2841C429.203 23.2973 429.314 23.3189 429.417 23.3487V25.4616C429.301 25.4219 429.148 25.3904 428.959 25.3672C428.774 25.344 428.608 25.3324 428.462 25.3324C428.174 25.3324 427.914 25.397 427.682 25.5263C427.453 25.6522 427.272 25.8295 427.14 26.0582C427.01 26.2836 426.946 26.5488 426.946 26.8537V31H424.515ZM432.8 31.1094C432.236 31.1094 431.724 30.9635 431.264 30.6719C430.803 30.3802 430.435 29.9427 430.16 29.3594C429.885 28.776 429.747 28.0518 429.747 27.1868C429.747 26.2886 429.89 25.5495 430.175 24.9695C430.46 24.3894 430.833 23.9602 431.294 23.6818C431.758 23.4034 432.256 23.2642 432.79 23.2642C433.191 23.2642 433.534 23.3338 433.819 23.473C434.104 23.6089 434.339 23.7846 434.525 24C434.711 24.2154 434.852 24.4392 434.948 24.6712H434.997V20.8182H437.428V31H435.022V29.7621H434.948C434.845 29.9974 434.699 30.2178 434.51 30.4233C434.321 30.6288 434.084 30.7945 433.799 30.9205C433.517 31.0464 433.184 31.1094 432.8 31.1094ZM433.645 29.2152C433.94 29.2152 434.192 29.1323 434.401 28.9666C434.61 28.7976 434.77 28.5606 434.883 28.2557C434.996 27.9508 435.052 27.5928 435.052 27.1818C435.052 26.7642 434.996 26.4046 434.883 26.103C434.774 25.8014 434.613 25.5694 434.401 25.407C434.192 25.2446 433.94 25.1634 433.645 25.1634C433.343 25.1634 433.088 25.2462 432.879 25.4119C432.671 25.5777 432.512 25.8113 432.402 26.1129C432.296 26.4145 432.243 26.7708 432.243 27.1818C432.243 27.5928 432.298 27.9508 432.407 28.2557C432.517 28.5606 432.674 28.7976 432.879 28.9666C433.088 29.1323 433.343 29.2152 433.645 29.2152Z" fill="#101840"/>
<path d="M464.426 130.81V133.26H467.716V134.814H464.426V137.404H468.136V139H462.466V129.214H468.136V130.81H464.426ZM472.157 132.448C472.409 132.037 472.736 131.715 473.137 131.482C473.548 131.249 474.015 131.132 474.537 131.132V133.19H474.019C473.403 133.19 472.937 133.335 472.619 133.624C472.311 133.913 472.157 134.417 472.157 135.136V139H470.197V131.244H472.157V132.448ZM478.097 132.448C478.349 132.037 478.676 131.715 479.077 131.482C479.488 131.249 479.955 131.132 480.477 131.132V133.19H479.959C479.343 133.19 478.877 133.335 478.559 133.624C478.251 133.913 478.097 134.417 478.097 135.136V139H476.137V131.244H478.097V132.448ZM485.521 139.126C484.775 139.126 484.103 138.963 483.505 138.636C482.908 138.3 482.437 137.829 482.091 137.222C481.755 136.615 481.587 135.915 481.587 135.122C481.587 134.329 481.76 133.629 482.105 133.022C482.46 132.415 482.941 131.949 483.547 131.622C484.154 131.286 484.831 131.118 485.577 131.118C486.324 131.118 487.001 131.286 487.607 131.622C488.214 131.949 488.69 132.415 489.035 133.022C489.39 133.629 489.567 134.329 489.567 135.122C489.567 135.915 489.385 136.615 489.021 137.222C488.667 137.829 488.181 138.3 487.565 138.636C486.959 138.963 486.277 139.126 485.521 139.126ZM485.521 137.418C485.876 137.418 486.207 137.334 486.515 137.166C486.833 136.989 487.085 136.727 487.271 136.382C487.458 136.037 487.551 135.617 487.551 135.122C487.551 134.385 487.355 133.82 486.963 133.428C486.581 133.027 486.109 132.826 485.549 132.826C484.989 132.826 484.518 133.027 484.135 133.428C483.762 133.82 483.575 134.385 483.575 135.122C483.575 135.859 483.757 136.429 484.121 136.83C484.495 137.222 484.961 137.418 485.521 137.418ZM493.245 132.448C493.497 132.037 493.824 131.715 494.225 131.482C494.636 131.249 495.103 131.132 495.625 131.132V133.19H495.107C494.491 133.19 494.025 133.335 493.707 133.624C493.399 133.913 493.245 134.417 493.245 135.136V139H491.285V131.244H493.245V132.448ZM508.359 139L507.295 137.95C506.39 138.762 505.284 139.168 503.977 139.168C503.259 139.168 502.624 139.047 502.073 138.804C501.532 138.552 501.112 138.202 500.813 137.754C500.515 137.297 500.365 136.769 500.365 136.172C500.365 135.528 500.547 134.949 500.911 134.436C501.275 133.923 501.812 133.507 502.521 133.19C502.269 132.882 502.087 132.588 501.975 132.308C501.863 132.019 501.807 131.711 501.807 131.384C501.807 130.936 501.924 130.535 502.157 130.18C502.391 129.816 502.722 129.531 503.151 129.326C503.59 129.121 504.099 129.018 504.677 129.018C505.265 129.018 505.769 129.13 506.189 129.354C506.609 129.578 506.922 129.877 507.127 130.25C507.333 130.623 507.421 131.039 507.393 131.496H505.489C505.499 131.188 505.424 130.955 505.265 130.796C505.107 130.628 504.892 130.544 504.621 130.544C504.36 130.544 504.141 130.623 503.963 130.782C503.795 130.931 503.711 131.127 503.711 131.37C503.711 131.603 503.781 131.837 503.921 132.07C504.061 132.294 504.29 132.574 504.607 132.91L507.071 135.346C507.09 135.327 507.104 135.309 507.113 135.29C507.123 135.271 507.132 135.253 507.141 135.234L507.939 133.904H509.983L509.003 135.626C508.817 135.99 508.616 136.335 508.401 136.662L510.767 139H508.359ZM504.033 137.544C504.799 137.544 505.475 137.273 506.063 136.732L503.655 134.352C502.75 134.753 502.297 135.323 502.297 136.06C502.297 136.48 502.456 136.835 502.773 137.124C503.091 137.404 503.511 137.544 504.033 137.544ZM521.668 129.228V130.81H517.594V133.316H520.716V134.87H517.594V139H515.634V129.228H521.668ZM526.782 139.126C526.035 139.126 525.363 138.963 524.766 138.636C524.168 138.3 523.697 137.829 523.352 137.222C523.016 136.615 522.848 135.915 522.848 135.122C522.848 134.329 523.02 133.629 523.366 133.022C523.72 132.415 524.201 131.949 524.808 131.622C525.414 131.286 526.091 131.118 526.838 131.118C527.584 131.118 528.261 131.286 528.868 131.622C529.474 131.949 529.95 132.415 530.296 133.022C530.65 133.629 530.828 134.329 530.828 135.122C530.828 135.915 530.646 136.615 530.282 137.222C529.927 137.829 529.442 138.3 528.826 138.636C528.219 138.963 527.538 139.126 526.782 139.126ZM526.782 137.418C527.136 137.418 527.468 137.334 527.776 137.166C528.093 136.989 528.345 136.727 528.532 136.382C528.718 136.037 528.812 135.617 528.812 135.122C528.812 134.385 528.616 133.82 528.224 133.428C527.841 133.027 527.37 132.826 526.81 132.826C526.25 132.826 525.778 133.027 525.396 133.428C525.022 133.82 524.836 134.385 524.836 135.122C524.836 135.859 525.018 136.429 525.382 136.83C525.755 137.222 526.222 137.418 526.782 137.418ZM532.041 135.122C532.041 134.319 532.205 133.619 532.531 133.022C532.858 132.415 533.311 131.949 533.889 131.622C534.468 131.286 535.131 131.118 535.877 131.118C536.839 131.118 537.632 131.361 538.257 131.846C538.892 132.322 539.317 132.994 539.531 133.862H537.417C537.305 133.526 537.114 133.265 536.843 133.078C536.582 132.882 536.255 132.784 535.863 132.784C535.303 132.784 534.86 132.989 534.533 133.4C534.207 133.801 534.043 134.375 534.043 135.122C534.043 135.859 534.207 136.433 534.533 136.844C534.86 137.245 535.303 137.446 535.863 137.446C536.657 137.446 537.175 137.091 537.417 136.382H539.531C539.317 137.222 538.892 137.889 538.257 138.384C537.623 138.879 536.829 139.126 535.877 139.126C535.131 139.126 534.468 138.963 533.889 138.636C533.311 138.3 532.858 137.833 532.531 137.236C532.205 136.629 532.041 135.925 532.041 135.122ZM548.569 131.244V139H546.595V138.02C546.343 138.356 546.012 138.622 545.601 138.818C545.2 139.005 544.761 139.098 544.285 139.098C543.679 139.098 543.142 138.972 542.675 138.72C542.209 138.459 541.84 138.081 541.569 137.586C541.308 137.082 541.177 136.485 541.177 135.794V131.244H543.137V135.514C543.137 136.13 543.291 136.606 543.599 136.942C543.907 137.269 544.327 137.432 544.859 137.432C545.401 137.432 545.825 137.269 546.133 136.942C546.441 136.606 546.595 136.13 546.595 135.514V131.244H548.569ZM553.751 139.126C553.116 139.126 552.547 139.014 552.043 138.79C551.539 138.557 551.138 138.244 550.839 137.852C550.55 137.46 550.391 137.026 550.363 136.55H552.337C552.374 136.849 552.519 137.096 552.771 137.292C553.032 137.488 553.354 137.586 553.737 137.586C554.11 137.586 554.4 137.511 554.605 137.362C554.82 137.213 554.927 137.021 554.927 136.788C554.927 136.536 554.796 136.349 554.535 136.228C554.283 136.097 553.877 135.957 553.317 135.808C552.738 135.668 552.262 135.523 551.889 135.374C551.525 135.225 551.208 134.996 550.937 134.688C550.676 134.38 550.545 133.965 550.545 133.442C550.545 133.013 550.666 132.621 550.909 132.266C551.161 131.911 551.516 131.631 551.973 131.426C552.44 131.221 552.986 131.118 553.611 131.118C554.535 131.118 555.272 131.351 555.823 131.818C556.374 132.275 556.677 132.896 556.733 133.68H554.857C554.829 133.372 554.698 133.129 554.465 132.952C554.241 132.765 553.938 132.672 553.555 132.672C553.2 132.672 552.925 132.737 552.729 132.868C552.542 132.999 552.449 133.181 552.449 133.414C552.449 133.675 552.58 133.876 552.841 134.016C553.102 134.147 553.508 134.282 554.059 134.422C554.619 134.562 555.081 134.707 555.445 134.856C555.809 135.005 556.122 135.239 556.383 135.556C556.654 135.864 556.794 136.275 556.803 136.788C556.803 137.236 556.677 137.637 556.425 137.992C556.182 138.347 555.828 138.627 555.361 138.832C554.904 139.028 554.367 139.126 553.751 139.126Z" fill="#FFE838"/>
<defs>
<filter id="filter0_dd_1148_15715" x="357" y="35" width="305" height="62" filterUnits="userSpaceOnUse" color-interpolation-filters="sRGB">
<feFlood flood-opacity="0" result="BackgroundImageFix"/>
<feColorMatrix in="SourceAlpha" type="matrix" values="0 0 0 0 0 0 0 0 0 0 0 0 0 0 0 0 0 0 127 0" result="hardAlpha"/>
<feMorphology radius="3" operator="erode" in="SourceAlpha" result="effect1_dropShadow_1148_15715"/>
<feOffset dy="4"/>
<feGaussianBlur stdDeviation="8"/>
<feComposite in2="hardAlpha" operator="out"/>
<feColorMatrix type="matrix" values="0 0 0 0 0.819608 0 0 0 0 0.262745 0 0 0 0 0.262745 0 0 0 0.25 0"/>
<feBlend mode="normal" in2="BackgroundImageFix" result="effect1_dropShadow_1148_15715"/>
<feColorMatrix in="SourceAlpha" type="matrix" values="0 0 0 0 0 0 0 0 0 0 0 0 0 0 0 0 0 0 127 0" result="hardAlpha"/>
<feMorphology radius="2" operator="erode" in="SourceAlpha" result="effect2_dropShadow_1148_15715"/>
<feOffset dy="1"/>
<feGaussianBlur stdDeviation="2.5"/>
<feComposite in2="hardAlpha" operator="out"/>
<feColorMatrix type="matrix" values="0 0 0 0 0.819608 0 0 0 0 0.262745 0 0 0 0 0.262745 0 0 0 0.25 0"/>
<feBlend mode="normal" in2="effect1_dropShadow_1148_15715" result="effect2_dropShadow_1148_15715"/>
<feBlend mode="normal" in="SourceGraphic" in2="effect2_dropShadow_1148_15715" result="shape"/>
</filter>
</defs>
</svg>
