<svg width="673" height="117" viewBox="0 0 673 117" fill="none" xmlns="http://www.w3.org/2000/svg">
<path d="M24.5 52C24.5 47.8579 27.8579 44.5 32 44.5H295C299.142 44.5 302.5 47.8579 302.5 52V72C302.5 76.1421 299.142 79.5 295 79.5H32C27.8579 79.5 24.5 76.1421 24.5 72V52Z" fill="white"/>
<path d="M24.5 52C24.5 47.8579 27.8579 44.5 32 44.5H295C299.142 44.5 302.5 47.8579 302.5 52V72C302.5 76.1421 299.142 79.5 295 79.5H32C27.8579 79.5 24.5 76.1421 24.5 72V52Z" stroke="#E7E8EF"/>
<path d="M32.6165 58.1406V56.8182H40.4964V58.1406H37.3196V67H35.7884V58.1406H32.6165ZM42.1831 69.8636C41.961 69.8636 41.7588 69.8454 41.5765 69.8089C41.3942 69.7758 41.2583 69.7393 41.1689 69.6996L41.5268 68.4815C41.7986 68.5545 42.0405 68.5859 42.2527 68.576C42.4648 68.5661 42.652 68.4865 42.8145 68.3374C42.9802 68.1882 43.126 67.9446 43.252 67.6065L43.4359 67.0994L40.6419 59.3636H42.2328L44.1667 65.2898H44.2463L46.1802 59.3636H47.7761L44.6291 68.0192C44.4833 68.4169 44.2976 68.7533 44.0723 69.0284C43.8469 69.3068 43.5784 69.5156 43.2669 69.6548C42.9553 69.794 42.594 69.8636 42.1831 69.8636ZM49.1731 69.8636V59.3636H50.6248V60.6016H50.7491C50.8353 60.4425 50.9596 60.2585 51.122 60.0497C51.2844 59.8409 51.5098 59.6586 51.7981 59.5028C52.0865 59.3438 52.4676 59.2642 52.9416 59.2642C53.5581 59.2642 54.1083 59.42 54.5922 59.7315C55.0761 60.0431 55.4556 60.4922 55.7306 61.0788C56.0091 61.6655 56.1483 62.3714 56.1483 63.1967C56.1483 64.022 56.0107 64.7296 55.7356 65.3196C55.4605 65.9062 55.0827 66.3587 54.6021 66.6768C54.1215 66.9917 53.573 67.1491 52.9565 67.1491C52.4925 67.1491 52.113 67.0713 51.818 66.9155C51.5263 66.7597 51.2976 66.5774 51.1319 66.3686C50.9662 66.1598 50.8386 65.9742 50.7491 65.8118H50.6596V69.8636H49.1731ZM50.6298 63.1818C50.6298 63.7187 50.7077 64.1894 50.8635 64.5938C51.0192 64.9981 51.2446 65.3146 51.5396 65.5433C51.8346 65.7687 52.1958 65.8814 52.6234 65.8814C53.0675 65.8814 53.4387 65.7637 53.737 65.5284C54.0353 65.2898 54.2607 64.9666 54.4132 64.5589C54.569 64.1513 54.6468 63.6922 54.6468 63.1818C54.6468 62.678 54.5706 62.2256 54.4181 61.8246C54.269 61.4235 54.0436 61.107 53.742 60.875C53.4437 60.643 53.0708 60.527 52.6234 60.527C52.1925 60.527 51.8279 60.638 51.5297 60.8601C51.2347 61.0821 51.0109 61.392 50.8585 61.7898C50.706 62.1875 50.6298 62.6515 50.6298 63.1818ZM61.1049 67.1541C60.3526 67.1541 59.7046 66.9934 59.161 66.6719C58.6208 66.3471 58.2032 65.8913 57.9082 65.3047C57.6165 64.7147 57.4707 64.0237 57.4707 63.2315C57.4707 62.4493 57.6165 61.7599 57.9082 61.1634C58.2032 60.5668 58.6142 60.1011 59.1412 59.7663C59.6715 59.4316 60.2913 59.2642 61.0005 59.2642C61.4314 59.2642 61.849 59.3355 62.2534 59.478C62.6577 59.6205 63.0207 59.8442 63.3422 60.1491C63.6636 60.4541 63.9172 60.8501 64.1028 61.3374C64.2884 61.8213 64.3812 62.4096 64.3812 63.1023V63.6293H58.3109V62.5156H62.9245C62.9245 62.1245 62.845 61.7782 62.6859 61.4766C62.5268 61.1716 62.3031 60.9313 62.0147 60.7557C61.7297 60.58 61.3949 60.4922 61.0105 60.4922C60.5929 60.4922 60.2283 60.5949 59.9167 60.8004C59.6085 61.0026 59.3699 61.2678 59.2008 61.5959C59.0351 61.9207 58.9522 62.2737 58.9522 62.6548V63.5249C58.9522 64.0353 59.0417 64.4695 59.2207 64.8274C59.403 65.1854 59.6565 65.4588 59.9814 65.6477C60.3062 65.8333 60.6857 65.9261 61.1199 65.9261C61.4016 65.9261 61.6584 65.8864 61.8904 65.8068C62.1225 65.724 62.323 65.6013 62.492 65.4389C62.661 65.2765 62.7903 65.076 62.8798 64.8374L64.2868 65.0909C64.1741 65.5052 63.9719 65.8681 63.6802 66.1797C63.3919 66.4879 63.0289 66.7282 62.5914 66.9006C62.1573 67.0696 61.6618 67.1541 61.1049 67.1541ZM73.3002 59.3636V60.5568H69.1291V59.3636H73.3002ZM70.2477 57.5341H71.7342V64.7578C71.7342 65.0462 71.7773 65.2633 71.8635 65.4091C71.9496 65.5516 72.0607 65.6494 72.1966 65.7024C72.3358 65.7521 72.4866 65.777 72.649 65.777C72.7683 65.777 72.8727 65.7687 72.9622 65.7521C73.0517 65.7356 73.1213 65.7223 73.171 65.7124L73.4395 66.9403C73.3533 66.9735 73.2306 67.0066 73.0716 67.0398C72.9125 67.0762 72.7136 67.0961 72.475 67.0994C72.0839 67.1061 71.7193 67.0365 71.3812 66.8906C71.0431 66.7448 70.7697 66.5194 70.5609 66.2145C70.3521 65.9096 70.2477 65.5268 70.2477 65.0661V57.5341ZM78.1538 67.1541C77.4014 67.1541 76.7534 66.9934 76.2099 66.6719C75.6696 66.3471 75.252 65.8913 74.957 65.3047C74.6654 64.7147 74.5195 64.0237 74.5195 63.2315C74.5195 62.4493 74.6654 61.7599 74.957 61.1634C75.252 60.5668 75.663 60.1011 76.19 59.7663C76.7203 59.4316 77.3401 59.2642 78.0494 59.2642C78.4802 59.2642 78.8978 59.3355 79.3022 59.478C79.7066 59.6205 80.0695 59.8442 80.391 60.1491C80.7125 60.4541 80.966 60.8501 81.1516 61.3374C81.3372 61.8213 81.43 62.4096 81.43 63.1023V63.6293H75.3597V62.5156H79.9734C79.9734 62.1245 79.8938 61.7782 79.7347 61.4766C79.5756 61.1716 79.3519 60.9313 79.0636 60.7557C78.7785 60.58 78.4438 60.4922 78.0593 60.4922C77.6417 60.4922 77.2771 60.5949 76.9656 60.8004C76.6573 61.0026 76.4187 61.2678 76.2496 61.5959C76.0839 61.9207 76.0011 62.2737 76.0011 62.6548V63.5249C76.0011 64.0353 76.0906 64.4695 76.2695 64.8274C76.4518 65.1854 76.7054 65.4588 77.0302 65.6477C77.355 65.8333 77.7345 65.9261 78.1687 65.9261C78.4504 65.9261 78.7073 65.8864 78.9393 65.8068C79.1713 65.724 79.3718 65.6013 79.5408 65.4389C79.7099 65.2765 79.8391 65.076 79.9286 64.8374L81.3356 65.0909C81.2229 65.5052 81.0207 65.8681 80.729 66.1797C80.4407 66.4879 80.0778 66.7282 79.6403 66.9006C79.2061 67.0696 78.7106 67.1541 78.1538 67.1541ZM84.0749 59.3636L85.7603 62.3366L87.4606 59.3636H89.0863L86.7049 63.1818L89.1062 67H87.4805L85.7603 64.1463L84.0451 67H82.4144L84.7908 63.1818L82.4442 59.3636H84.0749ZM94.1772 59.3636V60.5568H90.006V59.3636H94.1772ZM91.1246 57.5341H92.6112V64.7578C92.6112 65.0462 92.6542 65.2633 92.7404 65.4091C92.8266 65.5516 92.9376 65.6494 93.0735 65.7024C93.2127 65.7521 93.3635 65.777 93.5259 65.777C93.6452 65.777 93.7496 65.7687 93.8391 65.7521C93.9286 65.7356 93.9982 65.7223 94.0479 65.7124L94.3164 66.9403C94.2302 66.9735 94.1076 67.0066 93.9485 67.0398C93.7894 67.0762 93.5906 67.0961 93.3519 67.0994C92.9608 67.1061 92.5962 67.0365 92.2582 66.8906C91.9201 66.7448 91.6467 66.5194 91.4379 66.2145C91.229 65.9096 91.1246 65.5268 91.1246 65.0661V57.5341ZM101.013 62.4659V67H99.5266V56.8182H100.993V60.6065H101.088C101.267 60.1955 101.54 59.8691 101.908 59.6271C102.276 59.3852 102.757 59.2642 103.35 59.2642C103.873 59.2642 104.331 59.3719 104.722 59.5874C105.116 59.8028 105.421 60.1243 105.637 60.5518C105.855 60.9761 105.965 61.5064 105.965 62.1428V67H104.478V62.3217C104.478 61.7616 104.334 61.3274 104.046 61.0192C103.757 60.7076 103.356 60.5518 102.843 60.5518C102.491 60.5518 102.176 60.6264 101.898 60.7756C101.623 60.9247 101.406 61.1435 101.247 61.4318C101.091 61.7169 101.013 62.0616 101.013 62.4659ZM111.24 67.1541C110.487 67.1541 109.839 66.9934 109.296 66.6719C108.756 66.3471 108.338 65.8913 108.043 65.3047C107.751 64.7147 107.605 64.0237 107.605 63.2315C107.605 62.4493 107.751 61.7599 108.043 61.1634C108.338 60.5668 108.749 60.1011 109.276 59.7663C109.806 59.4316 110.426 59.2642 111.135 59.2642C111.566 59.2642 111.984 59.3355 112.388 59.478C112.792 59.6205 113.155 59.8442 113.477 60.1491C113.798 60.4541 114.052 60.8501 114.238 61.3374C114.423 61.8213 114.516 62.4096 114.516 63.1023V63.6293H108.446V62.5156H113.059C113.059 62.1245 112.98 61.7782 112.821 61.4766C112.662 61.1716 112.438 60.9313 112.15 60.7557C111.864 60.58 111.53 60.4922 111.145 60.4922C110.728 60.4922 110.363 60.5949 110.051 60.8004C109.743 61.0026 109.505 61.2678 109.336 61.5959C109.17 61.9207 109.087 62.2737 109.087 62.6548V63.5249C109.087 64.0353 109.176 64.4695 109.355 64.8274C109.538 65.1854 109.791 65.4588 110.116 65.6477C110.441 65.8333 110.82 65.9261 111.255 65.9261C111.536 65.9261 111.793 65.8864 112.025 65.8068C112.257 65.724 112.458 65.6013 112.627 65.4389C112.796 65.2765 112.925 65.076 113.015 64.8374L114.422 65.0909C114.309 65.5052 114.107 65.8681 113.815 66.1797C113.527 66.4879 113.164 66.7282 112.726 66.9006C112.292 67.0696 111.797 67.1541 111.24 67.1541ZM116.165 67V59.3636H117.602V60.5767H117.682C117.821 60.1657 118.066 59.8426 118.417 59.6072C118.772 59.3686 119.173 59.2493 119.621 59.2493C119.713 59.2493 119.823 59.2526 119.949 59.2592C120.078 59.2659 120.179 59.2741 120.252 59.2841V60.706C120.192 60.6894 120.086 60.6712 119.934 60.6513C119.781 60.6281 119.629 60.6165 119.476 60.6165C119.125 60.6165 118.812 60.6911 118.537 60.8402C118.265 60.986 118.05 61.1899 117.89 61.4517C117.731 61.7102 117.652 62.0052 117.652 62.3366V67H116.165ZM124.556 67.1541C123.804 67.1541 123.156 66.9934 122.612 66.6719C122.072 66.3471 121.654 65.8913 121.359 65.3047C121.068 64.7147 120.922 64.0237 120.922 63.2315C120.922 62.4493 121.068 61.7599 121.359 61.1634C121.654 60.5668 122.065 60.1011 122.592 59.7663C123.123 59.4316 123.742 59.2642 124.452 59.2642C124.883 59.2642 125.3 59.3355 125.705 59.478C126.109 59.6205 126.472 59.8442 126.793 60.1491C127.115 60.4541 127.368 60.8501 127.554 61.3374C127.74 61.8213 127.832 62.4096 127.832 63.1023V63.6293H121.762V62.5156H126.376C126.376 62.1245 126.296 61.7782 126.137 61.4766C125.978 61.1716 125.754 60.9313 125.466 60.7557C125.181 60.58 124.846 60.4922 124.462 60.4922C124.044 60.4922 123.679 60.5949 123.368 60.8004C123.06 61.0026 122.821 61.2678 122.652 61.5959C122.486 61.9207 122.403 62.2737 122.403 62.6548V63.5249C122.403 64.0353 122.493 64.4695 122.672 64.8274C122.854 65.1854 123.108 65.4588 123.433 65.6477C123.757 65.8333 124.137 65.9261 124.571 65.9261C124.853 65.9261 125.11 65.8864 125.342 65.8068C125.574 65.724 125.774 65.6013 125.943 65.4389C126.112 65.2765 126.241 65.076 126.331 64.8374L127.738 65.0909C127.625 65.5052 127.423 65.8681 127.131 66.1797C126.843 66.4879 126.48 66.7282 126.043 66.9006C125.608 67.0696 125.113 67.1541 124.556 67.1541ZM130.461 67.0945C130.189 67.0945 129.956 66.9983 129.76 66.8061C129.565 66.6106 129.467 66.3752 129.467 66.1001C129.467 65.8284 129.565 65.5964 129.76 65.4041C129.956 65.2086 130.189 65.1108 130.461 65.1108C130.733 65.1108 130.967 65.2086 131.162 65.4041C131.358 65.5964 131.455 65.8284 131.455 66.1001C131.455 66.2824 131.409 66.4498 131.316 66.6023C131.227 66.7514 131.107 66.8707 130.958 66.9602C130.809 67.0497 130.643 67.0945 130.461 67.0945ZM134.426 67.0945C134.154 67.0945 133.921 66.9983 133.725 66.8061C133.529 66.6106 133.432 66.3752 133.432 66.1001C133.432 65.8284 133.529 65.5964 133.725 65.4041C133.921 65.2086 134.154 65.1108 134.426 65.1108C134.698 65.1108 134.931 65.2086 135.127 65.4041C135.323 65.5964 135.42 65.8284 135.42 66.1001C135.42 66.2824 135.374 66.4498 135.281 66.6023C135.192 66.7514 135.072 66.8707 134.923 66.9602C134.774 67.0497 134.608 67.0945 134.426 67.0945ZM138.391 67.0945C138.119 67.0945 137.885 66.9983 137.69 66.8061C137.494 66.6106 137.396 66.3752 137.396 66.1001C137.396 65.8284 137.494 65.5964 137.69 65.4041C137.885 65.2086 138.119 65.1108 138.391 65.1108C138.663 65.1108 138.896 65.2086 139.092 65.4041C139.287 65.5964 139.385 65.8284 139.385 66.1001C139.385 66.2824 139.339 66.4498 139.246 66.6023C139.156 66.7514 139.037 66.8707 138.888 66.9602C138.739 67.0497 138.573 67.0945 138.391 67.0945Z" fill="#6F7595"/>
<path fill-rule="evenodd" clip-rule="evenodd" d="M292.55 56.2171C293.038 55.729 293.038 54.9375 292.55 54.4494C292.062 53.9612 291.27 53.9612 290.782 54.4494L289.17 56.0617C287.874 55.2775 286.455 54.8583 284.999 54.8583C283.516 54.8583 282.074 55.2916 280.758 56.1C279.441 56.9166 278.258 58.1083 277.291 59.625C276.458 60.9333 276.458 63.0583 277.291 64.3666C277.765 65.1142 278.294 65.7828 278.866 66.3659L277.865 67.366C277.377 67.8542 277.377 68.6456 277.865 69.1338C278.354 69.622 279.145 69.622 279.633 69.1338L292.55 56.2171ZM281.615 63.6167L282.937 62.2948C282.923 62.1985 282.916 62.1 282.916 61.9999C282.916 60.8493 283.849 59.9166 284.999 59.9166C285.099 59.9166 285.198 59.9236 285.294 59.9373L286.616 58.6154C286.127 58.3811 285.578 58.2499 284.999 58.2499C282.928 58.2499 281.249 59.9289 281.249 61.9999C281.249 62.5789 281.381 63.1271 281.615 63.6167Z" fill="#6F7595"/>
<path d="M292.708 59.625C292.456 59.2294 291.906 59.1886 291.574 59.5201L288.732 62.3624C288.561 64.1441 287.144 65.5617 285.362 65.7326L283.345 67.7495C282.911 68.183 283.083 68.9143 283.687 69.0196C284.12 69.0949 284.558 69.1333 284.999 69.1333C286.483 69.1333 287.924 68.7 289.241 67.8916C290.558 67.075 291.741 65.8833 292.708 64.3666C293.541 63.0666 293.541 60.9333 292.708 59.625Z" fill="#6F7595"/>
<path d="M24.7706 31V20.8182H28.9766C29.7389 20.8182 30.3968 20.9673 30.9503 21.2656C31.5071 21.5606 31.9363 21.9732 32.2379 22.5036C32.5395 23.0305 32.6903 23.6437 32.6903 24.343C32.6903 25.0457 32.5362 25.6605 32.228 26.1875C31.9231 26.7112 31.4872 27.1172 30.9205 27.4055C30.3537 27.6939 29.6809 27.8381 28.902 27.8381H26.3068V25.8991H28.4446C28.8158 25.8991 29.1257 25.8345 29.3743 25.7053C29.6262 25.576 29.8168 25.3954 29.946 25.1634C30.0753 24.928 30.1399 24.6546 30.1399 24.343C30.1399 24.0282 30.0753 23.7564 29.946 23.5277C29.8168 23.2957 29.6262 23.1167 29.3743 22.9908C29.1224 22.8648 28.8125 22.8018 28.4446 22.8018H27.2315V31H24.7706ZM35.7827 31.1293C35.2955 31.1293 34.8629 31.0481 34.4851 30.8857C34.1106 30.7199 33.8139 30.4714 33.5952 30.1399C33.3797 29.8052 33.272 29.3859 33.272 28.8821C33.272 28.4579 33.3466 28.0999 33.4957 27.8082C33.6449 27.5166 33.8504 27.2796 34.1122 27.0973C34.3741 26.915 34.6757 26.7775 35.017 26.6847C35.3584 26.5885 35.723 26.5239 36.1108 26.4908C36.545 26.451 36.8946 26.4096 37.1598 26.3665C37.425 26.3201 37.6172 26.2554 37.7365 26.1726C37.8591 26.0864 37.9205 25.9654 37.9205 25.8097V25.7848C37.9205 25.5296 37.8326 25.3324 37.657 25.1932C37.4813 25.054 37.2443 24.9844 36.946 24.9844C36.6245 24.9844 36.366 25.054 36.1705 25.1932C35.9749 25.3324 35.8506 25.5246 35.7976 25.7699L33.5554 25.6903C33.6217 25.2263 33.7924 24.812 34.0675 24.4474C34.3459 24.0795 34.727 23.7912 35.2109 23.5824C35.6982 23.3703 36.2831 23.2642 36.9659 23.2642C37.4531 23.2642 37.9022 23.3222 38.3132 23.4382C38.7242 23.5509 39.0821 23.7166 39.3871 23.9354C39.692 24.1508 39.9273 24.416 40.093 24.7308C40.2621 25.0457 40.3466 25.4053 40.3466 25.8097V31H38.0597V29.9361H38C37.8641 30.1946 37.6901 30.4134 37.478 30.5923C37.2692 30.7713 37.0223 30.9055 36.7372 30.995C36.4555 31.0845 36.1373 31.1293 35.7827 31.1293ZM36.5334 29.5384C36.7952 29.5384 37.0305 29.4853 37.2393 29.3793C37.4515 29.2732 37.6205 29.1274 37.7464 28.9418C37.8724 28.7528 37.9354 28.5341 37.9354 28.2855V27.5597C37.8658 27.5961 37.7813 27.6293 37.6818 27.6591C37.5857 27.6889 37.4796 27.7171 37.3636 27.7436C37.2476 27.7701 37.1283 27.7933 37.0057 27.8132C36.883 27.8331 36.7654 27.8513 36.6527 27.8679C36.424 27.9044 36.2285 27.9607 36.0661 28.0369C35.907 28.1132 35.7843 28.2126 35.6982 28.3352C35.6153 28.4545 35.5739 28.5971 35.5739 28.7628C35.5739 29.0147 35.6634 29.2069 35.8423 29.3395C36.0246 29.4721 36.255 29.5384 36.5334 29.5384ZM48.5 25.6953L46.2678 25.755C46.2446 25.5959 46.1816 25.455 46.0788 25.3324C45.9761 25.2064 45.8419 25.1087 45.6761 25.0391C45.5137 24.9661 45.3248 24.9297 45.1094 24.9297C44.8277 24.9297 44.5874 24.986 44.3885 25.0987C44.1929 25.2114 44.0968 25.3639 44.1001 25.5561C44.0968 25.7053 44.1565 25.8345 44.2791 25.9439C44.4051 26.0533 44.6288 26.1411 44.9503 26.2074L46.4219 26.4858C47.1842 26.6316 47.7509 26.8736 48.1222 27.2116C48.4967 27.5497 48.6856 27.9972 48.6889 28.554C48.6856 29.0777 48.5298 29.5334 48.2216 29.9212C47.9167 30.3089 47.4991 30.6106 46.9688 30.826C46.4384 31.0381 45.8319 31.1442 45.1491 31.1442C44.0587 31.1442 43.1986 30.9205 42.5689 30.473C41.9425 30.0223 41.5845 29.419 41.495 28.6634L43.8963 28.6037C43.9493 28.8821 44.0869 29.0942 44.3089 29.2401C44.531 29.3859 44.8144 29.4588 45.1591 29.4588C45.4706 29.4588 45.7242 29.4008 45.9197 29.2848C46.1153 29.1688 46.2147 29.0147 46.218 28.8224C46.2147 28.6501 46.1385 28.5125 45.9893 28.4098C45.8402 28.3037 45.6065 28.2209 45.2884 28.1612L43.956 27.9077C43.1903 27.7685 42.6203 27.5116 42.2457 27.1371C41.8712 26.7592 41.6856 26.2786 41.6889 25.6953C41.6856 25.1849 41.8215 24.7491 42.0966 24.3878C42.3717 24.0232 42.7628 23.7448 43.2699 23.5526C43.777 23.3603 44.3752 23.2642 45.0646 23.2642C46.0987 23.2642 46.9141 23.4813 47.5107 23.9155C48.1072 24.3464 48.437 24.9396 48.5 25.6953ZM56.5527 25.6953L54.3205 25.755C54.2973 25.5959 54.2343 25.455 54.1316 25.3324C54.0288 25.2064 53.8946 25.1087 53.7289 25.0391C53.5665 24.9661 53.3775 24.9297 53.1621 24.9297C52.8804 24.9297 52.6401 24.986 52.4412 25.0987C52.2457 25.2114 52.1496 25.3639 52.1529 25.5561C52.1496 25.7053 52.2092 25.8345 52.3319 25.9439C52.4578 26.0533 52.6815 26.1411 53.003 26.2074L54.4746 26.4858C55.2369 26.6316 55.8037 26.8736 56.1749 27.2116C56.5494 27.5497 56.7383 27.9972 56.7417 28.554C56.7383 29.0777 56.5826 29.5334 56.2743 29.9212C55.9694 30.3089 55.5518 30.6106 55.0215 30.826C54.4912 31.0381 53.8846 31.1442 53.2019 31.1442C52.1114 31.1442 51.2514 30.9205 50.6216 30.473C49.9952 30.0223 49.6373 29.419 49.5478 28.6634L51.949 28.6037C52.0021 28.8821 52.1396 29.0942 52.3617 29.2401C52.5837 29.3859 52.8671 29.4588 53.2118 29.4588C53.5234 29.4588 53.7769 29.4008 53.9725 29.2848C54.168 29.1688 54.2675 29.0147 54.2708 28.8224C54.2675 28.6501 54.1912 28.5125 54.0421 28.4098C53.8929 28.3037 53.6593 28.2209 53.3411 28.1612L52.0087 27.9077C51.2431 27.7685 50.673 27.5116 50.2985 27.1371C49.9239 26.7592 49.7383 26.2786 49.7417 25.6953C49.7383 25.1849 49.8742 24.7491 50.1493 24.3878C50.4244 24.0232 50.8155 23.7448 51.3226 23.5526C51.8297 23.3603 52.428 23.2642 53.1174 23.2642C54.1515 23.2642 54.9668 23.4813 55.5634 23.9155C56.16 24.3464 56.4898 24.9396 56.5527 25.6953ZM59.3654 31L57.3768 23.3636H59.8178L60.8469 28.2557H60.9116L62.0153 23.3636H64.3967L65.5302 28.2209H65.5948L66.5941 23.3636H69.0352L67.0415 31H64.4414L63.2482 26.5504H63.1637L61.9705 31H59.3654ZM73.4114 31.1442C72.6093 31.1442 71.9199 30.9801 71.3432 30.652C70.7698 30.3205 70.3274 29.8598 70.0158 29.2699C69.7076 28.6766 69.5534 27.9889 69.5534 27.2067C69.5534 26.4212 69.7076 25.7334 70.0158 25.1435C70.3274 24.5502 70.7698 24.0895 71.3432 23.7614C71.9199 23.4299 72.6093 23.2642 73.4114 23.2642C74.2135 23.2642 74.9012 23.4299 75.4746 23.7614C76.0513 24.0895 76.4938 24.5502 76.802 25.1435C77.1136 25.7334 77.2694 26.4212 77.2694 27.2067C77.2694 27.9889 77.1136 28.6766 76.802 29.2699C76.4938 29.8598 76.0513 30.3205 75.4746 30.652C74.9012 30.9801 74.2135 31.1442 73.4114 31.1442ZM73.4263 29.3097C73.718 29.3097 73.9649 29.2202 74.1671 29.0412C74.3693 28.8622 74.5234 28.6136 74.6294 28.2955C74.7388 27.9773 74.7935 27.6094 74.7935 27.1918C74.7935 26.7675 74.7388 26.3963 74.6294 26.0781C74.5234 25.7599 74.3693 25.5114 74.1671 25.3324C73.9649 25.1534 73.718 25.0639 73.4263 25.0639C73.1247 25.0639 72.8695 25.1534 72.6607 25.3324C72.4552 25.5114 72.2978 25.7599 72.1884 26.0781C72.0823 26.3963 72.0293 26.7675 72.0293 27.1918C72.0293 27.6094 72.0823 27.9773 72.1884 28.2955C72.2978 28.6136 72.4552 28.8622 72.6607 29.0412C72.8695 29.2202 73.1247 29.3097 73.4263 29.3097ZM78.5147 31V23.3636H80.8762V24.7557H80.9558C81.095 24.2519 81.322 23.8774 81.6369 23.6321C81.9518 23.3835 82.318 23.2592 82.7356 23.2592C82.8483 23.2592 82.9643 23.2675 83.0836 23.2841C83.2029 23.2973 83.314 23.3189 83.4167 23.3487V25.4616C83.3007 25.4219 83.1483 25.3904 82.9593 25.3672C82.7737 25.344 82.608 25.3324 82.4622 25.3324C82.1738 25.3324 81.9136 25.397 81.6816 25.5263C81.4529 25.6522 81.2723 25.8295 81.1397 26.0582C81.0105 26.2836 80.9458 26.5488 80.9458 26.8537V31H78.5147ZM86.7999 31.1094C86.2364 31.1094 85.7244 30.9635 85.2637 30.6719C84.803 30.3802 84.4351 29.9427 84.16 29.3594C83.8849 28.776 83.7473 28.0518 83.7473 27.1868C83.7473 26.2886 83.8899 25.5495 84.1749 24.9695C84.4599 24.3894 84.8328 23.9602 85.2935 23.6818C85.7575 23.4034 86.2563 23.2642 86.79 23.2642C87.191 23.2642 87.534 23.3338 87.8191 23.473C88.1041 23.6089 88.3394 23.7846 88.525 24C88.7106 24.2154 88.8515 24.4392 88.9476 24.6712H88.9973V20.8182H91.4284V31H89.0222V29.7621H88.9476C88.8449 29.9974 88.699 30.2178 88.5101 30.4233C88.3212 30.6288 88.0842 30.7945 87.7992 30.9205C87.5175 31.0464 87.1844 31.1094 86.7999 31.1094ZM87.6451 29.2152C87.94 29.2152 88.1919 29.1323 88.4007 28.9666C88.6096 28.7976 88.7703 28.5606 88.883 28.2557C88.9957 27.9508 89.052 27.5928 89.052 27.1818C89.052 26.7642 88.9957 26.4046 88.883 26.103C88.7736 25.8014 88.6129 25.5694 88.4007 25.407C88.1919 25.2446 87.94 25.1634 87.6451 25.1634C87.3435 25.1634 87.0882 25.2462 86.8794 25.4119C86.6706 25.5777 86.5115 25.8113 86.4022 26.1129C86.2961 26.4145 86.2431 26.7708 86.2431 27.1818C86.2431 27.5928 86.2978 27.9508 86.4071 28.2557C86.5165 28.5606 86.6739 28.7976 86.8794 28.9666C87.0882 29.1323 87.3435 29.2152 87.6451 29.2152Z" fill="#101940"/>
<path d="M153.958 109.138H150.066L149.422 111H147.364L150.878 101.214H153.16L156.674 111H154.602L153.958 109.138ZM153.426 107.57L152.012 103.482L150.598 107.57H153.426ZM160.227 104.378C160.479 104.005 160.825 103.701 161.263 103.468C161.711 103.235 162.22 103.118 162.789 103.118C163.452 103.118 164.049 103.281 164.581 103.608C165.123 103.935 165.547 104.401 165.855 105.008C166.173 105.605 166.331 106.301 166.331 107.094C166.331 107.887 166.173 108.592 165.855 109.208C165.547 109.815 165.123 110.286 164.581 110.622C164.049 110.958 163.452 111.126 162.789 111.126C162.211 111.126 161.702 111.014 161.263 110.79C160.834 110.557 160.489 110.258 160.227 109.894V111H158.267V100.64H160.227V104.378ZM164.329 107.094C164.329 106.627 164.231 106.226 164.035 105.89C163.849 105.545 163.597 105.283 163.279 105.106C162.971 104.929 162.635 104.84 162.271 104.84C161.917 104.84 161.581 104.933 161.263 105.12C160.955 105.297 160.703 105.559 160.507 105.904C160.321 106.249 160.227 106.655 160.227 107.122C160.227 107.589 160.321 107.995 160.507 108.34C160.703 108.685 160.955 108.951 161.263 109.138C161.581 109.315 161.917 109.404 162.271 109.404C162.635 109.404 162.971 109.311 163.279 109.124C163.597 108.937 163.849 108.671 164.035 108.326C164.231 107.981 164.329 107.57 164.329 107.094ZM169.996 100.64V111H168.036V100.64H169.996ZM179.422 106.954C179.422 107.234 179.404 107.486 179.366 107.71H173.696C173.743 108.27 173.939 108.709 174.284 109.026C174.63 109.343 175.054 109.502 175.558 109.502C176.286 109.502 176.804 109.189 177.112 108.564H179.226C179.002 109.311 178.573 109.927 177.938 110.412C177.304 110.888 176.524 111.126 175.6 111.126C174.854 111.126 174.182 110.963 173.584 110.636C172.996 110.3 172.534 109.829 172.198 109.222C171.872 108.615 171.708 107.915 171.708 107.122C171.708 106.319 171.872 105.615 172.198 105.008C172.525 104.401 172.982 103.935 173.57 103.608C174.158 103.281 174.835 103.118 175.6 103.118C176.338 103.118 176.996 103.277 177.574 103.594C178.162 103.911 178.615 104.364 178.932 104.952C179.259 105.531 179.422 106.198 179.422 106.954ZM177.392 106.394C177.383 105.89 177.201 105.489 176.846 105.19C176.492 104.882 176.058 104.728 175.544 104.728C175.059 104.728 174.648 104.877 174.312 105.176C173.986 105.465 173.785 105.871 173.71 106.394H177.392Z" fill="#FFE838"/>
<path d="M370.5 52C370.5 47.8579 373.858 44.5 378 44.5H641C645.142 44.5 648.5 47.8579 648.5 52V72C648.5 76.1421 645.142 79.5 641 79.5H378C373.858 79.5 370.5 76.1421 370.5 72V52Z" fill="white"/>
<path d="M370.5 52C370.5 47.8579 373.858 44.5 378 44.5H641C645.142 44.5 648.5 47.8579 648.5 52V72C648.5 76.1421 645.142 79.5 641 79.5H378C373.858 79.5 370.5 76.1421 370.5 72V52Z" stroke="#3366FF"/>
<path d="M378.616 58.1406V56.8182H386.496V58.1406H383.32V67H381.788V58.1406H378.616ZM388.183 69.8636C387.961 69.8636 387.759 69.8454 387.577 69.8089C387.394 69.7758 387.258 69.7393 387.169 69.6996L387.527 68.4815C387.799 68.5545 388.041 68.5859 388.253 68.576C388.465 68.5661 388.652 68.4865 388.814 68.3374C388.98 68.1882 389.126 67.9446 389.252 67.6065L389.436 67.0994L386.642 59.3636H388.233L390.167 65.2898H390.246L392.18 59.3636H393.776L390.629 68.0192C390.483 68.4169 390.298 68.7533 390.072 69.0284C389.847 69.3068 389.578 69.5156 389.267 69.6548C388.955 69.794 388.594 69.8636 388.183 69.8636ZM395.173 69.8636V59.3636H396.625V60.6016H396.749C396.835 60.4425 396.96 60.2585 397.122 60.0497C397.284 59.8409 397.51 59.6586 397.798 59.5028C398.086 59.3438 398.468 59.2642 398.942 59.2642C399.558 59.2642 400.108 59.42 400.592 59.7315C401.076 60.0431 401.456 60.4922 401.731 61.0788C402.009 61.6655 402.148 62.3714 402.148 63.1967C402.148 64.022 402.011 64.7296 401.736 65.3196C401.461 65.9062 401.083 66.3587 400.602 66.6768C400.122 66.9917 399.573 67.1491 398.956 67.1491C398.492 67.1491 398.113 67.0713 397.818 66.9155C397.526 66.7597 397.298 66.5774 397.132 66.3686C396.966 66.1598 396.839 65.9742 396.749 65.8118H396.66V69.8636H395.173ZM396.63 63.1818C396.63 63.7187 396.708 64.1894 396.863 64.5938C397.019 64.9981 397.245 65.3146 397.54 65.5433C397.835 65.7687 398.196 65.8814 398.623 65.8814C399.068 65.8814 399.439 65.7637 399.737 65.5284C400.035 65.2898 400.261 64.9666 400.413 64.5589C400.569 64.1513 400.647 63.6922 400.647 63.1818C400.647 62.678 400.571 62.2256 400.418 61.8246C400.269 61.4235 400.044 61.107 399.742 60.875C399.444 60.643 399.071 60.527 398.623 60.527C398.193 60.527 397.828 60.638 397.53 60.8601C397.235 61.0821 397.011 61.392 396.858 61.7898C396.706 62.1875 396.63 62.6515 396.63 63.1818ZM407.105 67.1541C406.353 67.1541 405.705 66.9934 405.161 66.6719C404.621 66.3471 404.203 65.8913 403.908 65.3047C403.617 64.7147 403.471 64.0237 403.471 63.2315C403.471 62.4493 403.617 61.7599 403.908 61.1634C404.203 60.5668 404.614 60.1011 405.141 59.7663C405.671 59.4316 406.291 59.2642 407.001 59.2642C407.431 59.2642 407.849 59.3355 408.253 59.478C408.658 59.6205 409.021 59.8442 409.342 60.1491C409.664 60.4541 409.917 60.8501 410.103 61.3374C410.288 61.8213 410.381 62.4096 410.381 63.1023V63.6293H404.311V62.5156H408.925C408.925 62.1245 408.845 61.7782 408.686 61.4766C408.527 61.1716 408.303 60.9313 408.015 60.7557C407.73 60.58 407.395 60.4922 407.01 60.4922C406.593 60.4922 406.228 60.5949 405.917 60.8004C405.608 61.0026 405.37 61.2678 405.201 61.5959C405.035 61.9207 404.952 62.2737 404.952 62.6548V63.5249C404.952 64.0353 405.042 64.4695 405.221 64.8274C405.403 65.1854 405.657 65.4588 405.981 65.6477C406.306 65.8333 406.686 65.9261 407.12 65.9261C407.402 65.9261 407.658 65.8864 407.89 65.8068C408.122 65.724 408.323 65.6013 408.492 65.4389C408.661 65.2765 408.79 65.076 408.88 64.8374L410.287 65.0909C410.174 65.5052 409.972 65.8681 409.68 66.1797C409.392 66.4879 409.029 66.7282 408.591 66.9006C408.157 67.0696 407.662 67.1541 407.105 67.1541ZM419.3 59.3636V60.5568H415.129V59.3636H419.3ZM416.248 57.5341H417.734V64.7578C417.734 65.0462 417.777 65.2633 417.863 65.4091C417.95 65.5516 418.061 65.6494 418.197 65.7024C418.336 65.7521 418.487 65.777 418.649 65.777C418.768 65.777 418.873 65.7687 418.962 65.7521C419.052 65.7356 419.121 65.7223 419.171 65.7124L419.439 66.9403C419.353 66.9735 419.231 67.0066 419.072 67.0398C418.912 67.0762 418.714 67.0961 418.475 67.0994C418.084 67.1061 417.719 67.0365 417.381 66.8906C417.043 66.7448 416.77 66.5194 416.561 66.2145C416.352 65.9096 416.248 65.5268 416.248 65.0661V57.5341ZM424.154 67.1541C423.401 67.1541 422.753 66.9934 422.21 66.6719C421.67 66.3471 421.252 65.8913 420.957 65.3047C420.665 64.7147 420.52 64.0237 420.52 63.2315C420.52 62.4493 420.665 61.7599 420.957 61.1634C421.252 60.5668 421.663 60.1011 422.19 59.7663C422.72 59.4316 423.34 59.2642 424.049 59.2642C424.48 59.2642 424.898 59.3355 425.302 59.478C425.707 59.6205 426.069 59.8442 426.391 60.1491C426.712 60.4541 426.966 60.8501 427.152 61.3374C427.337 61.8213 427.43 62.4096 427.43 63.1023V63.6293H421.36V62.5156H425.973C425.973 62.1245 425.894 61.7782 425.735 61.4766C425.576 61.1716 425.352 60.9313 425.064 60.7557C424.779 60.58 424.444 60.4922 424.059 60.4922C423.642 60.4922 423.277 60.5949 422.966 60.8004C422.657 61.0026 422.419 61.2678 422.25 61.5959C422.084 61.9207 422.001 62.2737 422.001 62.6548V63.5249C422.001 64.0353 422.091 64.4695 422.27 64.8274C422.452 65.1854 422.705 65.4588 423.03 65.6477C423.355 65.8333 423.734 65.9261 424.169 65.9261C424.45 65.9261 424.707 65.8864 424.939 65.8068C425.171 65.724 425.372 65.6013 425.541 65.4389C425.71 65.2765 425.839 65.076 425.929 64.8374L427.336 65.0909C427.223 65.5052 427.021 65.8681 426.729 66.1797C426.441 66.4879 426.078 66.7282 425.64 66.9006C425.206 67.0696 424.711 67.1541 424.154 67.1541ZM430.075 59.3636L431.76 62.3366L433.461 59.3636H435.086L432.705 63.1818L435.106 67H433.48L431.76 64.1463L430.045 67H428.414L430.791 63.1818L428.444 59.3636H430.075ZM440.177 59.3636V60.5568H436.006V59.3636H440.177ZM437.125 57.5341H438.611V64.7578C438.611 65.0462 438.654 65.2633 438.74 65.4091C438.827 65.5516 438.938 65.6494 439.074 65.7024C439.213 65.7521 439.364 65.777 439.526 65.777C439.645 65.777 439.75 65.7687 439.839 65.7521C439.929 65.7356 439.998 65.7223 440.048 65.7124L440.316 66.9403C440.23 66.9735 440.108 67.0066 439.949 67.0398C439.789 67.0762 439.591 67.0961 439.352 67.0994C438.961 67.1061 438.596 67.0365 438.258 66.8906C437.92 66.7448 437.647 66.5194 437.438 66.2145C437.229 65.9096 437.125 65.5268 437.125 65.0661V57.5341ZM447.013 62.4659V67H445.527V56.8182H446.993V60.6065H447.088C447.267 60.1955 447.54 59.8691 447.908 59.6271C448.276 59.3852 448.757 59.2642 449.35 59.2642C449.873 59.2642 450.331 59.3719 450.722 59.5874C451.116 59.8028 451.421 60.1243 451.637 60.5518C451.855 60.9761 451.965 61.5064 451.965 62.1428V67H450.478V62.3217C450.478 61.7616 450.334 61.3274 450.046 61.0192C449.757 60.7076 449.356 60.5518 448.843 60.5518C448.491 60.5518 448.176 60.6264 447.898 60.7756C447.623 60.9247 447.406 61.1435 447.247 61.4318C447.091 61.7169 447.013 62.0616 447.013 62.4659ZM457.24 67.1541C456.487 67.1541 455.839 66.9934 455.296 66.6719C454.756 66.3471 454.338 65.8913 454.043 65.3047C453.751 64.7147 453.605 64.0237 453.605 63.2315C453.605 62.4493 453.751 61.7599 454.043 61.1634C454.338 60.5668 454.749 60.1011 455.276 59.7663C455.806 59.4316 456.426 59.2642 457.135 59.2642C457.566 59.2642 457.984 59.3355 458.388 59.478C458.792 59.6205 459.155 59.8442 459.477 60.1491C459.798 60.4541 460.052 60.8501 460.238 61.3374C460.423 61.8213 460.516 62.4096 460.516 63.1023V63.6293H454.446V62.5156H459.059C459.059 62.1245 458.98 61.7782 458.821 61.4766C458.662 61.1716 458.438 60.9313 458.15 60.7557C457.864 60.58 457.53 60.4922 457.145 60.4922C456.728 60.4922 456.363 60.5949 456.051 60.8004C455.743 61.0026 455.505 61.2678 455.336 61.5959C455.17 61.9207 455.087 62.2737 455.087 62.6548V63.5249C455.087 64.0353 455.176 64.4695 455.355 64.8274C455.538 65.1854 455.791 65.4588 456.116 65.6477C456.441 65.8333 456.82 65.9261 457.255 65.9261C457.536 65.9261 457.793 65.8864 458.025 65.8068C458.257 65.724 458.458 65.6013 458.627 65.4389C458.796 65.2765 458.925 65.076 459.015 64.8374L460.422 65.0909C460.309 65.5052 460.107 65.8681 459.815 66.1797C459.527 66.4879 459.164 66.7282 458.726 66.9006C458.292 67.0696 457.797 67.1541 457.24 67.1541ZM462.165 67V59.3636H463.602V60.5767H463.682C463.821 60.1657 464.066 59.8426 464.417 59.6072C464.772 59.3686 465.173 59.2493 465.621 59.2493C465.713 59.2493 465.823 59.2526 465.949 59.2592C466.078 59.2659 466.179 59.2741 466.252 59.2841V60.706C466.192 60.6894 466.086 60.6712 465.934 60.6513C465.781 60.6281 465.629 60.6165 465.476 60.6165C465.125 60.6165 464.812 60.6911 464.537 60.8402C464.265 60.986 464.05 61.1899 463.89 61.4517C463.731 61.7102 463.652 62.0052 463.652 62.3366V67H462.165ZM470.556 67.1541C469.804 67.1541 469.156 66.9934 468.612 66.6719C468.072 66.3471 467.654 65.8913 467.359 65.3047C467.068 64.7147 466.922 64.0237 466.922 63.2315C466.922 62.4493 467.068 61.7599 467.359 61.1634C467.654 60.5668 468.065 60.1011 468.592 59.7663C469.123 59.4316 469.742 59.2642 470.452 59.2642C470.883 59.2642 471.3 59.3355 471.705 59.478C472.109 59.6205 472.472 59.8442 472.793 60.1491C473.115 60.4541 473.368 60.8501 473.554 61.3374C473.74 61.8213 473.832 62.4096 473.832 63.1023V63.6293H467.762V62.5156H472.376C472.376 62.1245 472.296 61.7782 472.137 61.4766C471.978 61.1716 471.754 60.9313 471.466 60.7557C471.181 60.58 470.846 60.4922 470.462 60.4922C470.044 60.4922 469.679 60.5949 469.368 60.8004C469.06 61.0026 468.821 61.2678 468.652 61.5959C468.486 61.9207 468.403 62.2737 468.403 62.6548V63.5249C468.403 64.0353 468.493 64.4695 468.672 64.8274C468.854 65.1854 469.108 65.4588 469.433 65.6477C469.757 65.8333 470.137 65.9261 470.571 65.9261C470.853 65.9261 471.11 65.8864 471.342 65.8068C471.574 65.724 471.774 65.6013 471.943 65.4389C472.112 65.2765 472.241 65.076 472.331 64.8374L473.738 65.0909C473.625 65.5052 473.423 65.8681 473.131 66.1797C472.843 66.4879 472.48 66.7282 472.043 66.9006C471.608 67.0696 471.113 67.1541 470.556 67.1541ZM476.461 67.0945C476.189 67.0945 475.956 66.9983 475.76 66.8061C475.565 66.6106 475.467 66.3752 475.467 66.1001C475.467 65.8284 475.565 65.5964 475.76 65.4041C475.956 65.2086 476.189 65.1108 476.461 65.1108C476.733 65.1108 476.967 65.2086 477.162 65.4041C477.358 65.5964 477.455 65.8284 477.455 66.1001C477.455 66.2824 477.409 66.4498 477.316 66.6023C477.227 66.7514 477.107 66.8707 476.958 66.9602C476.809 67.0497 476.643 67.0945 476.461 67.0945ZM480.426 67.0945C480.154 67.0945 479.921 66.9983 479.725 66.8061C479.529 66.6106 479.432 66.3752 479.432 66.1001C479.432 65.8284 479.529 65.5964 479.725 65.4041C479.921 65.2086 480.154 65.1108 480.426 65.1108C480.698 65.1108 480.931 65.2086 481.127 65.4041C481.323 65.5964 481.42 65.8284 481.42 66.1001C481.42 66.2824 481.374 66.4498 481.281 66.6023C481.192 66.7514 481.072 66.8707 480.923 66.9602C480.774 67.0497 480.608 67.0945 480.426 67.0945ZM484.391 67.0945C484.119 67.0945 483.885 66.9983 483.69 66.8061C483.494 66.6106 483.396 66.3752 483.396 66.1001C483.396 65.8284 483.494 65.5964 483.69 65.4041C483.885 65.2086 484.119 65.1108 484.391 65.1108C484.663 65.1108 484.896 65.2086 485.092 65.4041C485.287 65.5964 485.385 65.8284 485.385 66.1001C485.385 66.2824 485.339 66.4498 485.246 66.6023C485.156 66.7514 485.037 66.8707 484.888 66.9602C484.739 67.0497 484.573 67.0945 484.391 67.0945Z" fill="#6F7595"/>
<path fill-rule="evenodd" clip-rule="evenodd" d="M638.55 56.2171C639.038 55.729 639.038 54.9375 638.55 54.4494C638.062 53.9612 637.27 53.9612 636.782 54.4494L635.17 56.0617C633.874 55.2775 632.455 54.8583 630.999 54.8583C629.516 54.8583 628.074 55.2916 626.758 56.1C625.441 56.9166 624.258 58.1083 623.291 59.625C622.458 60.9333 622.458 63.0583 623.291 64.3666C623.765 65.1142 624.294 65.7828 624.866 66.3659L623.865 67.366C623.377 67.8542 623.377 68.6456 623.865 69.1338C624.354 69.622 625.145 69.622 625.633 69.1338L638.55 56.2171ZM627.615 63.6167L628.937 62.2948C628.923 62.1985 628.916 62.1 628.916 61.9999C628.916 60.8493 629.849 59.9166 630.999 59.9166C631.099 59.9166 631.198 59.9236 631.294 59.9373L632.616 58.6154C632.127 58.3811 631.578 58.2499 630.999 58.2499C628.928 58.2499 627.249 59.9289 627.249 61.9999C627.249 62.5789 627.381 63.1271 627.615 63.6167Z" fill="#6F7595"/>
<path d="M638.708 59.625C638.456 59.2294 637.906 59.1886 637.574 59.5201L634.732 62.3624C634.561 64.1441 633.144 65.5617 631.362 65.7326L629.345 67.7495C628.911 68.183 629.083 68.9143 629.687 69.0196C630.12 69.0949 630.558 69.1333 630.999 69.1333C632.483 69.1333 633.924 68.7 635.241 67.8916C636.558 67.075 637.741 65.8833 638.708 64.3666C639.541 63.0666 639.541 60.9333 638.708 59.625Z" fill="#6F7595"/>
<path d="M370.771 31V20.8182H374.977C375.739 20.8182 376.397 20.9673 376.95 21.2656C377.507 21.5606 377.936 21.9732 378.238 22.5036C378.54 23.0305 378.69 23.6437 378.69 24.343C378.69 25.0457 378.536 25.6605 378.228 26.1875C377.923 26.7112 377.487 27.1172 376.92 27.4055C376.354 27.6939 375.681 27.8381 374.902 27.8381H372.307V25.8991H374.445C374.816 25.8991 375.126 25.8345 375.374 25.7053C375.626 25.576 375.817 25.3954 375.946 25.1634C376.075 24.928 376.14 24.6546 376.14 24.343C376.14 24.0282 376.075 23.7564 375.946 23.5277C375.817 23.2957 375.626 23.1167 375.374 22.9908C375.122 22.8648 374.813 22.8018 374.445 22.8018H373.232V31H370.771ZM381.783 31.1293C381.295 31.1293 380.863 31.0481 380.485 30.8857C380.111 30.7199 379.814 30.4714 379.595 30.1399C379.38 29.8052 379.272 29.3859 379.272 28.8821C379.272 28.4579 379.347 28.0999 379.496 27.8082C379.645 27.5166 379.85 27.2796 380.112 27.0973C380.374 26.915 380.676 26.7775 381.017 26.6847C381.358 26.5885 381.723 26.5239 382.111 26.4908C382.545 26.451 382.895 26.4096 383.16 26.3665C383.425 26.3201 383.617 26.2554 383.737 26.1726C383.859 26.0864 383.92 25.9654 383.92 25.8097V25.7848C383.92 25.5296 383.833 25.3324 383.657 25.1932C383.481 25.054 383.244 24.9844 382.946 24.9844C382.625 24.9844 382.366 25.054 382.17 25.1932C381.975 25.3324 381.851 25.5246 381.798 25.7699L379.555 25.6903C379.622 25.2263 379.792 24.812 380.067 24.4474C380.346 24.0795 380.727 23.7912 381.211 23.5824C381.698 23.3703 382.283 23.2642 382.966 23.2642C383.453 23.2642 383.902 23.3222 384.313 23.4382C384.724 23.5509 385.082 23.7166 385.387 23.9354C385.692 24.1508 385.927 24.416 386.093 24.7308C386.262 25.0457 386.347 25.4053 386.347 25.8097V31H384.06V29.9361H384C383.864 30.1946 383.69 30.4134 383.478 30.5923C383.269 30.7713 383.022 30.9055 382.737 30.995C382.455 31.0845 382.137 31.1293 381.783 31.1293ZM382.533 29.5384C382.795 29.5384 383.031 29.4853 383.239 29.3793C383.451 29.2732 383.621 29.1274 383.746 28.9418C383.872 28.7528 383.935 28.5341 383.935 28.2855V27.5597C383.866 27.5961 383.781 27.6293 383.682 27.6591C383.586 27.6889 383.48 27.7171 383.364 27.7436C383.248 27.7701 383.128 27.7933 383.006 27.8132C382.883 27.8331 382.765 27.8513 382.653 27.8679C382.424 27.9044 382.228 27.9607 382.066 28.0369C381.907 28.1132 381.784 28.2126 381.698 28.3352C381.615 28.4545 381.574 28.5971 381.574 28.7628C381.574 29.0147 381.663 29.2069 381.842 29.3395C382.025 29.4721 382.255 29.5384 382.533 29.5384ZM394.5 25.6953L392.268 25.755C392.245 25.5959 392.182 25.455 392.079 25.3324C391.976 25.2064 391.842 25.1087 391.676 25.0391C391.514 24.9661 391.325 24.9297 391.109 24.9297C390.828 24.9297 390.587 24.986 390.388 25.0987C390.193 25.2114 390.097 25.3639 390.1 25.5561C390.097 25.7053 390.156 25.8345 390.279 25.9439C390.405 26.0533 390.629 26.1411 390.95 26.2074L392.422 26.4858C393.184 26.6316 393.751 26.8736 394.122 27.2116C394.497 27.5497 394.686 27.9972 394.689 28.554C394.686 29.0777 394.53 29.5334 394.222 29.9212C393.917 30.3089 393.499 30.6106 392.969 30.826C392.438 31.0381 391.832 31.1442 391.149 31.1442C390.059 31.1442 389.199 30.9205 388.569 30.473C387.942 30.0223 387.585 29.419 387.495 28.6634L389.896 28.6037C389.949 28.8821 390.087 29.0942 390.309 29.2401C390.531 29.3859 390.814 29.4588 391.159 29.4588C391.471 29.4588 391.724 29.4008 391.92 29.2848C392.115 29.1688 392.215 29.0147 392.218 28.8224C392.215 28.6501 392.138 28.5125 391.989 28.4098C391.84 28.3037 391.607 28.2209 391.288 28.1612L389.956 27.9077C389.19 27.7685 388.62 27.5116 388.246 27.1371C387.871 26.7592 387.686 26.2786 387.689 25.6953C387.686 25.1849 387.821 24.7491 388.097 24.3878C388.372 24.0232 388.763 23.7448 389.27 23.5526C389.777 23.3603 390.375 23.2642 391.065 23.2642C392.099 23.2642 392.914 23.4813 393.511 23.9155C394.107 24.3464 394.437 24.9396 394.5 25.6953ZM402.553 25.6953L400.32 25.755C400.297 25.5959 400.234 25.455 400.132 25.3324C400.029 25.2064 399.895 25.1087 399.729 25.0391C399.566 24.9661 399.378 24.9297 399.162 24.9297C398.88 24.9297 398.64 24.986 398.441 25.0987C398.246 25.2114 398.15 25.3639 398.153 25.5561C398.15 25.7053 398.209 25.8345 398.332 25.9439C398.458 26.0533 398.682 26.1411 399.003 26.2074L400.475 26.4858C401.237 26.6316 401.804 26.8736 402.175 27.2116C402.549 27.5497 402.738 27.9972 402.742 28.554C402.738 29.0777 402.583 29.5334 402.274 29.9212C401.969 30.3089 401.552 30.6106 401.021 30.826C400.491 31.0381 399.885 31.1442 399.202 31.1442C398.111 31.1442 397.251 30.9205 396.622 30.473C395.995 30.0223 395.637 29.419 395.548 28.6634L397.949 28.6037C398.002 28.8821 398.14 29.0942 398.362 29.2401C398.584 29.3859 398.867 29.4588 399.212 29.4588C399.523 29.4588 399.777 29.4008 399.972 29.2848C400.168 29.1688 400.267 29.0147 400.271 28.8224C400.267 28.6501 400.191 28.5125 400.042 28.4098C399.893 28.3037 399.659 28.2209 399.341 28.1612L398.009 27.9077C397.243 27.7685 396.673 27.5116 396.298 27.1371C395.924 26.7592 395.738 26.2786 395.742 25.6953C395.738 25.1849 395.874 24.7491 396.149 24.3878C396.424 24.0232 396.816 23.7448 397.323 23.5526C397.83 23.3603 398.428 23.2642 399.117 23.2642C400.151 23.2642 400.967 23.4813 401.563 23.9155C402.16 24.3464 402.49 24.9396 402.553 25.6953ZM405.365 31L403.377 23.3636H405.818L406.847 28.2557H406.912L408.015 23.3636H410.397L411.53 28.2209H411.595L412.594 23.3636H415.035L413.042 31H410.441L409.248 26.5504H409.164L407.971 31H405.365ZM419.411 31.1442C418.609 31.1442 417.92 30.9801 417.343 30.652C416.77 30.3205 416.327 29.8598 416.016 29.2699C415.708 28.6766 415.553 27.9889 415.553 27.2067C415.553 26.4212 415.708 25.7334 416.016 25.1435C416.327 24.5502 416.77 24.0895 417.343 23.7614C417.92 23.4299 418.609 23.2642 419.411 23.2642C420.213 23.2642 420.901 23.4299 421.475 23.7614C422.051 24.0895 422.494 24.5502 422.802 25.1435C423.114 25.7334 423.269 26.4212 423.269 27.2067C423.269 27.9889 423.114 28.6766 422.802 29.2699C422.494 29.8598 422.051 30.3205 421.475 30.652C420.901 30.9801 420.213 31.1442 419.411 31.1442ZM419.426 29.3097C419.718 29.3097 419.965 29.2202 420.167 29.0412C420.369 28.8622 420.523 28.6136 420.629 28.2955C420.739 27.9773 420.794 27.6094 420.794 27.1918C420.794 26.7675 420.739 26.3963 420.629 26.0781C420.523 25.7599 420.369 25.5114 420.167 25.3324C419.965 25.1534 419.718 25.0639 419.426 25.0639C419.125 25.0639 418.869 25.1534 418.661 25.3324C418.455 25.5114 418.298 25.7599 418.188 26.0781C418.082 26.3963 418.029 26.7675 418.029 27.1918C418.029 27.6094 418.082 27.9773 418.188 28.2955C418.298 28.6136 418.455 28.8622 418.661 29.0412C418.869 29.2202 419.125 29.3097 419.426 29.3097ZM424.515 31V23.3636H426.876V24.7557H426.956C427.095 24.2519 427.322 23.8774 427.637 23.6321C427.952 23.3835 428.318 23.2592 428.736 23.2592C428.848 23.2592 428.964 23.2675 429.084 23.2841C429.203 23.2973 429.314 23.3189 429.417 23.3487V25.4616C429.301 25.4219 429.148 25.3904 428.959 25.3672C428.774 25.344 428.608 25.3324 428.462 25.3324C428.174 25.3324 427.914 25.397 427.682 25.5263C427.453 25.6522 427.272 25.8295 427.14 26.0582C427.01 26.2836 426.946 26.5488 426.946 26.8537V31H424.515ZM432.8 31.1094C432.236 31.1094 431.724 30.9635 431.264 30.6719C430.803 30.3802 430.435 29.9427 430.16 29.3594C429.885 28.776 429.747 28.0518 429.747 27.1868C429.747 26.2886 429.89 25.5495 430.175 24.9695C430.46 24.3894 430.833 23.9602 431.294 23.6818C431.758 23.4034 432.256 23.2642 432.79 23.2642C433.191 23.2642 433.534 23.3338 433.819 23.473C434.104 23.6089 434.339 23.7846 434.525 24C434.711 24.2154 434.852 24.4392 434.948 24.6712H434.997V20.8182H437.428V31H435.022V29.7621H434.948C434.845 29.9974 434.699 30.2178 434.51 30.4233C434.321 30.6288 434.084 30.7945 433.799 30.9205C433.517 31.0464 433.184 31.1094 432.8 31.1094ZM433.645 29.2152C433.94 29.2152 434.192 29.1323 434.401 28.9666C434.61 28.7976 434.77 28.5606 434.883 28.2557C434.996 27.9508 435.052 27.5928 435.052 27.1818C435.052 26.7642 434.996 26.4046 434.883 26.103C434.774 25.8014 434.613 25.5694 434.401 25.407C434.192 25.2446 433.94 25.1634 433.645 25.1634C433.343 25.1634 433.088 25.2462 432.879 25.4119C432.671 25.5777 432.512 25.8113 432.402 26.1129C432.296 26.4145 432.243 26.7708 432.243 27.1818C432.243 27.5928 432.298 27.9508 432.407 28.2557C432.517 28.5606 432.674 28.7976 432.879 28.9666C433.088 29.1323 433.343 29.2152 433.645 29.2152Z" fill="#101840"/>
<path d="M497.072 101.228V111H495.112V106.842H490.926V111H488.966V101.228H490.926V105.246H495.112V101.228H497.072ZM502.725 111.126C501.978 111.126 501.306 110.963 500.709 110.636C500.112 110.3 499.64 109.829 499.295 109.222C498.959 108.615 498.791 107.915 498.791 107.122C498.791 106.329 498.964 105.629 499.309 105.022C499.664 104.415 500.144 103.949 500.751 103.622C501.358 103.286 502.034 103.118 502.781 103.118C503.528 103.118 504.204 103.286 504.811 103.622C505.418 103.949 505.894 104.415 506.239 105.022C506.594 105.629 506.771 106.329 506.771 107.122C506.771 107.915 506.589 108.615 506.225 109.222C505.87 109.829 505.385 110.3 504.769 110.636C504.162 110.963 503.481 111.126 502.725 111.126ZM502.725 109.418C503.08 109.418 503.411 109.334 503.719 109.166C504.036 108.989 504.288 108.727 504.475 108.382C504.662 108.037 504.755 107.617 504.755 107.122C504.755 106.385 504.559 105.82 504.167 105.428C503.784 105.027 503.313 104.826 502.753 104.826C502.193 104.826 501.722 105.027 501.339 105.428C500.966 105.82 500.779 106.385 500.779 107.122C500.779 107.859 500.961 108.429 501.325 108.83C501.698 109.222 502.165 109.418 502.725 109.418ZM511.723 109.194L513.683 103.244H515.769L512.899 111H510.519L507.663 103.244H509.763L511.723 109.194ZM524.36 106.954C524.36 107.234 524.341 107.486 524.304 107.71H518.634C518.68 108.27 518.876 108.709 519.222 109.026C519.567 109.343 519.992 109.502 520.496 109.502C521.224 109.502 521.742 109.189 522.05 108.564H524.164C523.94 109.311 523.51 109.927 522.876 110.412C522.241 110.888 521.462 111.126 520.538 111.126C519.791 111.126 519.119 110.963 518.522 110.636C517.934 110.3 517.472 109.829 517.136 109.222C516.809 108.615 516.646 107.915 516.646 107.122C516.646 106.319 516.809 105.615 517.136 105.008C517.462 104.401 517.92 103.935 518.508 103.608C519.096 103.281 519.772 103.118 520.538 103.118C521.275 103.118 521.933 103.277 522.512 103.594C523.1 103.911 523.552 104.364 523.87 104.952C524.196 105.531 524.36 106.198 524.36 106.954ZM522.33 106.394C522.32 105.89 522.138 105.489 521.784 105.19C521.429 104.882 520.995 104.728 520.482 104.728C519.996 104.728 519.586 104.877 519.25 105.176C518.923 105.465 518.722 105.871 518.648 106.394H522.33ZM528.03 104.448C528.282 104.037 528.609 103.715 529.01 103.482C529.421 103.249 529.888 103.132 530.41 103.132V105.19H529.892C529.276 105.19 528.81 105.335 528.492 105.624C528.184 105.913 528.03 106.417 528.03 107.136V111H526.07V103.244H528.03V104.448Z" fill="#FFE838"/>
</svg>
