<svg width="673" height="145" viewBox="0 0 673 145" fill="none" xmlns="http://www.w3.org/2000/svg">
<g filter="url(#filter0_dd_1148_15722)">
<path d="M24 52C24 47.5817 27.5817 44 32 44H306C310.418 44 314 47.5817 314 52V72C314 76.4183 310.418 80 306 80H32C27.5817 80 24 76.4183 24 72V52Z" fill="white" shape-rendering="crispEdges"/>
<path d="M24.5 52C24.5 47.8579 27.8579 44.5 32 44.5H306C310.142 44.5 313.5 47.8579 313.5 52V72C313.5 76.1421 310.142 79.5 306 79.5H32C27.8579 79.5 24.5 76.1421 24.5 72V52Z" stroke="#3366FF" shape-rendering="crispEdges"/>
<path d="M35.0625 53.5369V70.2812H33.7301V53.5369H35.0625Z" fill="#101940"/>
<path fill-rule="evenodd" clip-rule="evenodd" d="M303.55 56.2171C304.038 55.729 304.038 54.9375 303.55 54.4494C303.062 53.9612 302.27 53.9612 301.782 54.4494L300.17 56.0617C298.874 55.2775 297.455 54.8583 295.999 54.8583C294.516 54.8583 293.074 55.2916 291.758 56.1C290.441 56.9166 289.258 58.1083 288.291 59.625C287.458 60.9333 287.458 63.0583 288.291 64.3666C288.765 65.1142 289.294 65.7828 289.866 66.3659L288.865 67.366C288.377 67.8542 288.377 68.6456 288.865 69.1338C289.354 69.622 290.145 69.622 290.633 69.1338L303.55 56.2171ZM292.615 63.6167L293.937 62.2948C293.923 62.1985 293.916 62.1 293.916 61.9999C293.916 60.8493 294.849 59.9166 295.999 59.9166C296.099 59.9166 296.198 59.9236 296.294 59.9373L297.616 58.6154C297.127 58.3811 296.578 58.2499 295.999 58.2499C293.928 58.2499 292.249 59.9289 292.249 61.9999C292.249 62.5789 292.381 63.1271 292.615 63.6167Z" fill="#6F7595"/>
<path d="M303.708 59.625C303.456 59.2294 302.906 59.1886 302.574 59.5201L299.732 62.3624C299.561 64.1441 298.144 65.5617 296.362 65.7326L294.345 67.7495C293.911 68.183 294.083 68.9143 294.687 69.0196C295.12 69.0949 295.558 69.1333 295.999 69.1333C297.483 69.1333 298.924 68.7 300.241 67.8916C301.558 67.075 302.741 65.8833 303.708 64.3666C304.541 63.0666 304.541 60.9333 303.708 59.625Z" fill="#6F7595"/>
</g>
<path d="M24.7706 31V20.8182H28.9766C29.7389 20.8182 30.3968 20.9673 30.9503 21.2656C31.5071 21.5606 31.9363 21.9732 32.2379 22.5036C32.5395 23.0305 32.6903 23.6437 32.6903 24.343C32.6903 25.0457 32.5362 25.6605 32.228 26.1875C31.9231 26.7112 31.4872 27.1172 30.9205 27.4055C30.3537 27.6939 29.6809 27.8381 28.902 27.8381H26.3068V25.8991H28.4446C28.8158 25.8991 29.1257 25.8345 29.3743 25.7053C29.6262 25.576 29.8168 25.3954 29.946 25.1634C30.0753 24.928 30.1399 24.6546 30.1399 24.343C30.1399 24.0282 30.0753 23.7564 29.946 23.5277C29.8168 23.2957 29.6262 23.1167 29.3743 22.9908C29.1224 22.8648 28.8125 22.8018 28.4446 22.8018H27.2315V31H24.7706ZM35.7827 31.1293C35.2955 31.1293 34.8629 31.0481 34.4851 30.8857C34.1106 30.7199 33.8139 30.4714 33.5952 30.1399C33.3797 29.8052 33.272 29.3859 33.272 28.8821C33.272 28.4579 33.3466 28.0999 33.4957 27.8082C33.6449 27.5166 33.8504 27.2796 34.1122 27.0973C34.3741 26.915 34.6757 26.7775 35.017 26.6847C35.3584 26.5885 35.723 26.5239 36.1108 26.4908C36.545 26.451 36.8946 26.4096 37.1598 26.3665C37.425 26.3201 37.6172 26.2554 37.7365 26.1726C37.8591 26.0864 37.9205 25.9654 37.9205 25.8097V25.7848C37.9205 25.5296 37.8326 25.3324 37.657 25.1932C37.4813 25.054 37.2443 24.9844 36.946 24.9844C36.6245 24.9844 36.366 25.054 36.1705 25.1932C35.9749 25.3324 35.8506 25.5246 35.7976 25.7699L33.5554 25.6903C33.6217 25.2263 33.7924 24.812 34.0675 24.4474C34.3459 24.0795 34.727 23.7912 35.2109 23.5824C35.6982 23.3703 36.2831 23.2642 36.9659 23.2642C37.4531 23.2642 37.9022 23.3222 38.3132 23.4382C38.7242 23.5509 39.0821 23.7166 39.3871 23.9354C39.692 24.1508 39.9273 24.416 40.093 24.7308C40.2621 25.0457 40.3466 25.4053 40.3466 25.8097V31H38.0597V29.9361H38C37.8641 30.1946 37.6901 30.4134 37.478 30.5923C37.2692 30.7713 37.0223 30.9055 36.7372 30.995C36.4555 31.0845 36.1373 31.1293 35.7827 31.1293ZM36.5334 29.5384C36.7952 29.5384 37.0305 29.4853 37.2393 29.3793C37.4515 29.2732 37.6205 29.1274 37.7464 28.9418C37.8724 28.7528 37.9354 28.5341 37.9354 28.2855V27.5597C37.8658 27.5961 37.7813 27.6293 37.6818 27.6591C37.5857 27.6889 37.4796 27.7171 37.3636 27.7436C37.2476 27.7701 37.1283 27.7933 37.0057 27.8132C36.883 27.8331 36.7654 27.8513 36.6527 27.8679C36.424 27.9044 36.2285 27.9607 36.0661 28.0369C35.907 28.1132 35.7843 28.2126 35.6982 28.3352C35.6153 28.4545 35.5739 28.5971 35.5739 28.7628C35.5739 29.0147 35.6634 29.2069 35.8423 29.3395C36.0246 29.4721 36.255 29.5384 36.5334 29.5384ZM48.5 25.6953L46.2678 25.755C46.2446 25.5959 46.1816 25.455 46.0788 25.3324C45.9761 25.2064 45.8419 25.1087 45.6761 25.0391C45.5137 24.9661 45.3248 24.9297 45.1094 24.9297C44.8277 24.9297 44.5874 24.986 44.3885 25.0987C44.1929 25.2114 44.0968 25.3639 44.1001 25.5561C44.0968 25.7053 44.1565 25.8345 44.2791 25.9439C44.4051 26.0533 44.6288 26.1411 44.9503 26.2074L46.4219 26.4858C47.1842 26.6316 47.7509 26.8736 48.1222 27.2116C48.4967 27.5497 48.6856 27.9972 48.6889 28.554C48.6856 29.0777 48.5298 29.5334 48.2216 29.9212C47.9167 30.3089 47.4991 30.6106 46.9688 30.826C46.4384 31.0381 45.8319 31.1442 45.1491 31.1442C44.0587 31.1442 43.1986 30.9205 42.5689 30.473C41.9425 30.0223 41.5845 29.419 41.495 28.6634L43.8963 28.6037C43.9493 28.8821 44.0869 29.0942 44.3089 29.2401C44.531 29.3859 44.8144 29.4588 45.1591 29.4588C45.4706 29.4588 45.7242 29.4008 45.9197 29.2848C46.1153 29.1688 46.2147 29.0147 46.218 28.8224C46.2147 28.6501 46.1385 28.5125 45.9893 28.4098C45.8402 28.3037 45.6065 28.2209 45.2884 28.1612L43.956 27.9077C43.1903 27.7685 42.6203 27.5116 42.2457 27.1371C41.8712 26.7592 41.6856 26.2786 41.6889 25.6953C41.6856 25.1849 41.8215 24.7491 42.0966 24.3878C42.3717 24.0232 42.7628 23.7448 43.2699 23.5526C43.777 23.3603 44.3752 23.2642 45.0646 23.2642C46.0987 23.2642 46.9141 23.4813 47.5107 23.9155C48.1072 24.3464 48.437 24.9396 48.5 25.6953ZM56.5527 25.6953L54.3205 25.755C54.2973 25.5959 54.2343 25.455 54.1316 25.3324C54.0288 25.2064 53.8946 25.1087 53.7289 25.0391C53.5665 24.9661 53.3775 24.9297 53.1621 24.9297C52.8804 24.9297 52.6401 24.986 52.4412 25.0987C52.2457 25.2114 52.1496 25.3639 52.1529 25.5561C52.1496 25.7053 52.2092 25.8345 52.3319 25.9439C52.4578 26.0533 52.6815 26.1411 53.003 26.2074L54.4746 26.4858C55.2369 26.6316 55.8037 26.8736 56.1749 27.2116C56.5494 27.5497 56.7383 27.9972 56.7417 28.554C56.7383 29.0777 56.5826 29.5334 56.2743 29.9212C55.9694 30.3089 55.5518 30.6106 55.0215 30.826C54.4912 31.0381 53.8846 31.1442 53.2019 31.1442C52.1114 31.1442 51.2514 30.9205 50.6216 30.473C49.9952 30.0223 49.6373 29.419 49.5478 28.6634L51.949 28.6037C52.0021 28.8821 52.1396 29.0942 52.3617 29.2401C52.5837 29.3859 52.8671 29.4588 53.2118 29.4588C53.5234 29.4588 53.7769 29.4008 53.9725 29.2848C54.168 29.1688 54.2675 29.0147 54.2708 28.8224C54.2675 28.6501 54.1912 28.5125 54.0421 28.4098C53.8929 28.3037 53.6593 28.2209 53.3411 28.1612L52.0087 27.9077C51.2431 27.7685 50.673 27.5116 50.2985 27.1371C49.9239 26.7592 49.7383 26.2786 49.7417 25.6953C49.7383 25.1849 49.8742 24.7491 50.1493 24.3878C50.4244 24.0232 50.8155 23.7448 51.3226 23.5526C51.8297 23.3603 52.428 23.2642 53.1174 23.2642C54.1515 23.2642 54.9668 23.4813 55.5634 23.9155C56.16 24.3464 56.4898 24.9396 56.5527 25.6953ZM59.3654 31L57.3768 23.3636H59.8178L60.8469 28.2557H60.9116L62.0153 23.3636H64.3967L65.5302 28.2209H65.5948L66.5941 23.3636H69.0352L67.0415 31H64.4414L63.2482 26.5504H63.1637L61.9705 31H59.3654ZM73.4114 31.1442C72.6093 31.1442 71.9199 30.9801 71.3432 30.652C70.7698 30.3205 70.3274 29.8598 70.0158 29.2699C69.7076 28.6766 69.5534 27.9889 69.5534 27.2067C69.5534 26.4212 69.7076 25.7334 70.0158 25.1435C70.3274 24.5502 70.7698 24.0895 71.3432 23.7614C71.9199 23.4299 72.6093 23.2642 73.4114 23.2642C74.2135 23.2642 74.9012 23.4299 75.4746 23.7614C76.0513 24.0895 76.4938 24.5502 76.802 25.1435C77.1136 25.7334 77.2694 26.4212 77.2694 27.2067C77.2694 27.9889 77.1136 28.6766 76.802 29.2699C76.4938 29.8598 76.0513 30.3205 75.4746 30.652C74.9012 30.9801 74.2135 31.1442 73.4114 31.1442ZM73.4263 29.3097C73.718 29.3097 73.9649 29.2202 74.1671 29.0412C74.3693 28.8622 74.5234 28.6136 74.6294 28.2955C74.7388 27.9773 74.7935 27.6094 74.7935 27.1918C74.7935 26.7675 74.7388 26.3963 74.6294 26.0781C74.5234 25.7599 74.3693 25.5114 74.1671 25.3324C73.9649 25.1534 73.718 25.0639 73.4263 25.0639C73.1247 25.0639 72.8695 25.1534 72.6607 25.3324C72.4552 25.5114 72.2978 25.7599 72.1884 26.0781C72.0823 26.3963 72.0293 26.7675 72.0293 27.1918C72.0293 27.6094 72.0823 27.9773 72.1884 28.2955C72.2978 28.6136 72.4552 28.8622 72.6607 29.0412C72.8695 29.2202 73.1247 29.3097 73.4263 29.3097ZM78.5147 31V23.3636H80.8762V24.7557H80.9558C81.095 24.2519 81.322 23.8774 81.6369 23.6321C81.9518 23.3835 82.318 23.2592 82.7356 23.2592C82.8483 23.2592 82.9643 23.2675 83.0836 23.2841C83.2029 23.2973 83.314 23.3189 83.4167 23.3487V25.4616C83.3007 25.4219 83.1483 25.3904 82.9593 25.3672C82.7737 25.344 82.608 25.3324 82.4622 25.3324C82.1738 25.3324 81.9136 25.397 81.6816 25.5263C81.4529 25.6522 81.2723 25.8295 81.1397 26.0582C81.0105 26.2836 80.9458 26.5488 80.9458 26.8537V31H78.5147ZM86.7999 31.1094C86.2364 31.1094 85.7244 30.9635 85.2637 30.6719C84.803 30.3802 84.4351 29.9427 84.16 29.3594C83.8849 28.776 83.7473 28.0518 83.7473 27.1868C83.7473 26.2886 83.8899 25.5495 84.1749 24.9695C84.4599 24.3894 84.8328 23.9602 85.2935 23.6818C85.7575 23.4034 86.2563 23.2642 86.79 23.2642C87.191 23.2642 87.534 23.3338 87.8191 23.473C88.1041 23.6089 88.3394 23.7846 88.525 24C88.7106 24.2154 88.8515 24.4392 88.9476 24.6712H88.9973V20.8182H91.4284V31H89.0222V29.7621H88.9476C88.8449 29.9974 88.699 30.2178 88.5101 30.4233C88.3212 30.6288 88.0842 30.7945 87.7992 30.9205C87.5175 31.0464 87.1844 31.1094 86.7999 31.1094ZM87.6451 29.2152C87.94 29.2152 88.1919 29.1323 88.4007 28.9666C88.6096 28.7976 88.7703 28.5606 88.883 28.2557C88.9957 27.9508 89.052 27.5928 89.052 27.1818C89.052 26.7642 88.9957 26.4046 88.883 26.103C88.7736 25.8014 88.6129 25.5694 88.4007 25.407C88.1919 25.2446 87.94 25.1634 87.6451 25.1634C87.3435 25.1634 87.0882 25.2462 86.8794 25.4119C86.6706 25.5777 86.5115 25.8113 86.4022 26.1129C86.2961 26.4145 86.2431 26.7708 86.2431 27.1818C86.2431 27.5928 86.2978 27.9508 86.4071 28.2557C86.5165 28.5606 86.6739 28.7976 86.8794 28.9666C87.0882 29.1323 87.3435 29.2152 87.6451 29.2152Z" fill="#101840"/>
<path d="M370.5 52C370.5 47.8579 373.858 44.5 378 44.5H641C645.142 44.5 648.5 47.8579 648.5 52V72C648.5 76.1421 645.142 79.5 641 79.5H378C373.858 79.5 370.5 76.1421 370.5 72V52Z" fill="#F9FAFB"/>
<path d="M370.5 52C370.5 47.8579 373.858 44.5 378 44.5H641C645.142 44.5 648.5 47.8579 648.5 52V72C648.5 76.1421 645.142 79.5 641 79.5H378C373.858 79.5 370.5 76.1421 370.5 72V52Z" stroke="#E7E8EF"/>
<path d="M387.575 60.1293H386.024C385.964 59.7978 385.853 59.5062 385.691 59.2543C385.529 59.0024 385.33 58.7886 385.094 58.6129C384.859 58.4373 384.596 58.3047 384.304 58.2152C384.016 58.1257 383.709 58.081 383.384 58.081C382.798 58.081 382.272 58.2285 381.808 58.5234C381.348 58.8184 380.983 59.2509 380.714 59.821C380.449 60.3911 380.317 61.0871 380.317 61.9091C380.317 62.7377 380.449 63.437 380.714 64.0071C380.983 64.5772 381.349 65.008 381.813 65.2997C382.277 65.5914 382.799 65.7372 383.379 65.7372C383.701 65.7372 384.006 65.6941 384.294 65.608C384.586 65.5185 384.849 65.3875 385.085 65.2152C385.32 65.0429 385.519 64.8324 385.681 64.5838C385.847 64.3319 385.961 64.0436 386.024 63.7188L387.575 63.7237C387.492 64.2242 387.332 64.6849 387.093 65.1058C386.858 65.5234 386.554 65.8847 386.183 66.1896C385.815 66.4912 385.394 66.7249 384.92 66.8906C384.446 67.0563 383.929 67.1392 383.369 67.1392C382.488 67.1392 381.702 66.9304 381.013 66.5128C380.323 66.0919 379.78 65.4903 379.382 64.7081C378.988 63.9259 378.79 62.9929 378.79 61.9091C378.79 60.822 378.989 59.889 379.387 59.1101C379.785 58.3279 380.328 57.728 381.018 57.3104C381.707 56.8894 382.491 56.679 383.369 56.679C383.91 56.679 384.413 56.7569 384.881 56.9126C385.351 57.0651 385.774 57.2905 386.148 57.5888C386.523 57.8838 386.833 58.245 387.078 58.6726C387.323 59.0968 387.489 59.5824 387.575 60.1293ZM392.511 67.1541C391.795 67.1541 391.17 66.9901 390.637 66.6619C390.103 66.3338 389.689 65.8748 389.394 65.2848C389.099 64.6948 388.951 64.0054 388.951 63.2166C388.951 62.4245 389.099 61.7318 389.394 61.1385C389.689 60.5452 390.103 60.0845 390.637 59.7564C391.17 59.4283 391.795 59.2642 392.511 59.2642C393.227 59.2642 393.852 59.4283 394.385 59.7564C394.919 60.0845 395.333 60.5452 395.628 61.1385C395.923 61.7318 396.07 62.4245 396.07 63.2166C396.07 64.0054 395.923 64.6948 395.628 65.2848C395.333 65.8748 394.919 66.3338 394.385 66.6619C393.852 66.9901 393.227 67.1541 392.511 67.1541ZM392.516 65.9062C392.98 65.9062 393.364 65.7836 393.669 65.5384C393.974 65.2931 394.2 64.9666 394.345 64.5589C394.494 64.1513 394.569 63.7022 394.569 63.2116C394.569 62.7244 394.494 62.277 394.345 61.8693C394.2 61.4583 393.974 61.1286 393.669 60.88C393.364 60.6314 392.98 60.5071 392.516 60.5071C392.048 60.5071 391.661 60.6314 391.352 60.88C391.048 61.1286 390.82 61.4583 390.671 61.8693C390.526 62.277 390.453 62.7244 390.453 63.2116C390.453 63.7022 390.526 64.1513 390.671 64.5589C390.82 64.9666 391.048 65.2931 391.352 65.5384C391.661 65.7836 392.048 65.9062 392.516 65.9062ZM399.216 62.4659V67H397.73V59.3636H399.157V60.6065H399.251C399.427 60.2022 399.702 59.8774 400.076 59.6321C400.454 59.3868 400.93 59.2642 401.503 59.2642C402.024 59.2642 402.479 59.3736 402.87 59.5923C403.261 59.8078 403.565 60.1293 403.78 60.5568C403.996 60.9844 404.103 61.513 404.103 62.1428V67H402.617V62.3217C402.617 61.7682 402.473 61.3357 402.184 61.0241C401.896 60.7093 401.5 60.5518 400.996 60.5518C400.651 60.5518 400.345 60.6264 400.076 60.7756C399.811 60.9247 399.601 61.1435 399.445 61.4318C399.292 61.7169 399.216 62.0616 399.216 62.4659ZM409.662 59.3636V60.5568H405.49V59.3636H409.662ZM406.609 57.5341H408.096V64.7578C408.096 65.0462 408.139 65.2633 408.225 65.4091C408.311 65.5516 408.422 65.6494 408.558 65.7024C408.697 65.7521 408.848 65.777 409.01 65.777C409.13 65.777 409.234 65.7687 409.324 65.7521C409.413 65.7356 409.483 65.7223 409.532 65.7124L409.801 66.9403C409.715 66.9735 409.592 67.0066 409.433 67.0398C409.274 67.0762 409.075 67.0961 408.836 67.0994C408.445 67.1061 408.081 67.0365 407.743 66.8906C407.404 66.7448 407.131 66.5194 406.922 66.2145C406.713 65.9096 406.609 65.5268 406.609 65.0661V57.5341ZM414.515 67.1541C413.763 67.1541 413.115 66.9934 412.571 66.6719C412.031 66.3471 411.613 65.8913 411.318 65.3047C411.027 64.7147 410.881 64.0237 410.881 63.2315C410.881 62.4493 411.027 61.7599 411.318 61.1634C411.613 60.5668 412.024 60.1011 412.551 59.7663C413.082 59.4316 413.701 59.2642 414.411 59.2642C414.842 59.2642 415.259 59.3355 415.664 59.478C416.068 59.6205 416.431 59.8442 416.752 60.1491C417.074 60.4541 417.327 60.8501 417.513 61.3374C417.699 61.8213 417.791 62.4096 417.791 63.1023V63.6293H411.721V62.5156H416.335C416.335 62.1245 416.255 61.7782 416.096 61.4766C415.937 61.1716 415.713 60.9313 415.425 60.7557C415.14 60.58 414.805 60.4922 414.421 60.4922C414.003 60.4922 413.638 60.5949 413.327 60.8004C413.019 61.0026 412.78 61.2678 412.611 61.5959C412.445 61.9207 412.362 62.2737 412.362 62.6548V63.5249C412.362 64.0353 412.452 64.4695 412.631 64.8274C412.813 65.1854 413.067 65.4588 413.392 65.6477C413.716 65.8333 414.096 65.9261 414.53 65.9261C414.812 65.9261 415.069 65.8864 415.301 65.8068C415.533 65.724 415.733 65.6013 415.902 65.4389C416.071 65.2765 416.2 65.076 416.29 64.8374L417.697 65.0909C417.584 65.5052 417.382 65.8681 417.09 66.1797C416.802 66.4879 416.439 66.7282 416.002 66.9006C415.567 67.0696 415.072 67.1541 414.515 67.1541ZM420.927 62.4659V67H419.441V59.3636H420.868V60.6065H420.962C421.138 60.2022 421.413 59.8774 421.787 59.6321C422.165 59.3868 422.641 59.2642 423.214 59.2642C423.734 59.2642 424.19 59.3736 424.581 59.5923C424.972 59.8078 425.276 60.1293 425.491 60.5568C425.707 60.9844 425.814 61.513 425.814 62.1428V67H424.328V62.3217C424.328 61.7682 424.184 61.3357 423.895 61.0241C423.607 60.7093 423.211 60.5518 422.707 60.5518C422.362 60.5518 422.056 60.6264 421.787 60.7756C421.522 60.9247 421.312 61.1435 421.156 61.4318C421.003 61.7169 420.927 62.0616 420.927 62.4659ZM431.373 59.3636V60.5568H427.201V59.3636H431.373ZM428.32 57.5341H429.806V64.7578C429.806 65.0462 429.85 65.2633 429.936 65.4091C430.022 65.5516 430.133 65.6494 430.269 65.7024C430.408 65.7521 430.559 65.777 430.721 65.777C430.841 65.777 430.945 65.7687 431.034 65.7521C431.124 65.7356 431.194 65.7223 431.243 65.7124L431.512 66.9403C431.426 66.9735 431.303 67.0066 431.144 67.0398C430.985 67.0762 430.786 67.0961 430.547 67.0994C430.156 67.1061 429.792 67.0365 429.453 66.8906C429.115 66.7448 428.842 66.5194 428.633 66.2145C428.424 65.9096 428.32 65.5268 428.32 65.0661V57.5341Z" fill="#101840"/>
<path fill-rule="evenodd" clip-rule="evenodd" d="M638.55 56.2171C639.038 55.729 639.038 54.9375 638.55 54.4494C638.062 53.9612 637.27 53.9612 636.782 54.4494L635.17 56.0617C633.874 55.2775 632.455 54.8583 630.999 54.8583C629.516 54.8583 628.074 55.2916 626.758 56.1C625.441 56.9166 624.258 58.1083 623.291 59.625C622.458 60.9333 622.458 63.0583 623.291 64.3666C623.765 65.1142 624.294 65.7828 624.866 66.3659L623.865 67.366C623.377 67.8542 623.377 68.6456 623.865 69.1338C624.354 69.622 625.145 69.622 625.633 69.1338L638.55 56.2171ZM627.615 63.6167L628.937 62.2948C628.923 62.1985 628.916 62.1 628.916 61.9999C628.916 60.8493 629.849 59.9166 630.999 59.9166C631.099 59.9166 631.198 59.9236 631.294 59.9373L632.616 58.6154C632.127 58.3811 631.578 58.2499 630.999 58.2499C628.928 58.2499 627.249 59.9289 627.249 61.9999C627.249 62.5789 627.381 63.1271 627.615 63.6167Z" fill="#6F7595"/>
<path d="M638.708 59.625C638.456 59.2294 637.906 59.1886 637.574 59.5201L634.732 62.3624C634.561 64.1441 633.144 65.5617 631.362 65.7326L629.345 67.7495C628.911 68.183 629.083 68.9143 629.687 69.0196C630.12 69.0949 630.558 69.1333 630.999 69.1333C632.483 69.1333 633.924 68.7 635.241 67.8916C636.558 67.075 637.741 65.8833 638.708 64.3666C639.541 63.0666 639.541 60.9333 638.708 59.625Z" fill="#6F7595"/>
<path d="M370.771 31V20.8182H374.977C375.739 20.8182 376.397 20.9673 376.95 21.2656C377.507 21.5606 377.936 21.9732 378.238 22.5036C378.54 23.0305 378.69 23.6437 378.69 24.343C378.69 25.0457 378.536 25.6605 378.228 26.1875C377.923 26.7112 377.487 27.1172 376.92 27.4055C376.354 27.6939 375.681 27.8381 374.902 27.8381H372.307V25.8991H374.445C374.816 25.8991 375.126 25.8345 375.374 25.7053C375.626 25.576 375.817 25.3954 375.946 25.1634C376.075 24.928 376.14 24.6546 376.14 24.343C376.14 24.0282 376.075 23.7564 375.946 23.5277C375.817 23.2957 375.626 23.1167 375.374 22.9908C375.122 22.8648 374.813 22.8018 374.445 22.8018H373.232V31H370.771ZM381.783 31.1293C381.295 31.1293 380.863 31.0481 380.485 30.8857C380.111 30.7199 379.814 30.4714 379.595 30.1399C379.38 29.8052 379.272 29.3859 379.272 28.8821C379.272 28.4579 379.347 28.0999 379.496 27.8082C379.645 27.5166 379.85 27.2796 380.112 27.0973C380.374 26.915 380.676 26.7775 381.017 26.6847C381.358 26.5885 381.723 26.5239 382.111 26.4908C382.545 26.451 382.895 26.4096 383.16 26.3665C383.425 26.3201 383.617 26.2554 383.737 26.1726C383.859 26.0864 383.92 25.9654 383.92 25.8097V25.7848C383.92 25.5296 383.833 25.3324 383.657 25.1932C383.481 25.054 383.244 24.9844 382.946 24.9844C382.625 24.9844 382.366 25.054 382.17 25.1932C381.975 25.3324 381.851 25.5246 381.798 25.7699L379.555 25.6903C379.622 25.2263 379.792 24.812 380.067 24.4474C380.346 24.0795 380.727 23.7912 381.211 23.5824C381.698 23.3703 382.283 23.2642 382.966 23.2642C383.453 23.2642 383.902 23.3222 384.313 23.4382C384.724 23.5509 385.082 23.7166 385.387 23.9354C385.692 24.1508 385.927 24.416 386.093 24.7308C386.262 25.0457 386.347 25.4053 386.347 25.8097V31H384.06V29.9361H384C383.864 30.1946 383.69 30.4134 383.478 30.5923C383.269 30.7713 383.022 30.9055 382.737 30.995C382.455 31.0845 382.137 31.1293 381.783 31.1293ZM382.533 29.5384C382.795 29.5384 383.031 29.4853 383.239 29.3793C383.451 29.2732 383.621 29.1274 383.746 28.9418C383.872 28.7528 383.935 28.5341 383.935 28.2855V27.5597C383.866 27.5961 383.781 27.6293 383.682 27.6591C383.586 27.6889 383.48 27.7171 383.364 27.7436C383.248 27.7701 383.128 27.7933 383.006 27.8132C382.883 27.8331 382.765 27.8513 382.653 27.8679C382.424 27.9044 382.228 27.9607 382.066 28.0369C381.907 28.1132 381.784 28.2126 381.698 28.3352C381.615 28.4545 381.574 28.5971 381.574 28.7628C381.574 29.0147 381.663 29.2069 381.842 29.3395C382.025 29.4721 382.255 29.5384 382.533 29.5384ZM394.5 25.6953L392.268 25.755C392.245 25.5959 392.182 25.455 392.079 25.3324C391.976 25.2064 391.842 25.1087 391.676 25.0391C391.514 24.9661 391.325 24.9297 391.109 24.9297C390.828 24.9297 390.587 24.986 390.388 25.0987C390.193 25.2114 390.097 25.3639 390.1 25.5561C390.097 25.7053 390.156 25.8345 390.279 25.9439C390.405 26.0533 390.629 26.1411 390.95 26.2074L392.422 26.4858C393.184 26.6316 393.751 26.8736 394.122 27.2116C394.497 27.5497 394.686 27.9972 394.689 28.554C394.686 29.0777 394.53 29.5334 394.222 29.9212C393.917 30.3089 393.499 30.6106 392.969 30.826C392.438 31.0381 391.832 31.1442 391.149 31.1442C390.059 31.1442 389.199 30.9205 388.569 30.473C387.942 30.0223 387.585 29.419 387.495 28.6634L389.896 28.6037C389.949 28.8821 390.087 29.0942 390.309 29.2401C390.531 29.3859 390.814 29.4588 391.159 29.4588C391.471 29.4588 391.724 29.4008 391.92 29.2848C392.115 29.1688 392.215 29.0147 392.218 28.8224C392.215 28.6501 392.138 28.5125 391.989 28.4098C391.84 28.3037 391.607 28.2209 391.288 28.1612L389.956 27.9077C389.19 27.7685 388.62 27.5116 388.246 27.1371C387.871 26.7592 387.686 26.2786 387.689 25.6953C387.686 25.1849 387.821 24.7491 388.097 24.3878C388.372 24.0232 388.763 23.7448 389.27 23.5526C389.777 23.3603 390.375 23.2642 391.065 23.2642C392.099 23.2642 392.914 23.4813 393.511 23.9155C394.107 24.3464 394.437 24.9396 394.5 25.6953ZM402.553 25.6953L400.32 25.755C400.297 25.5959 400.234 25.455 400.132 25.3324C400.029 25.2064 399.895 25.1087 399.729 25.0391C399.566 24.9661 399.378 24.9297 399.162 24.9297C398.88 24.9297 398.64 24.986 398.441 25.0987C398.246 25.2114 398.15 25.3639 398.153 25.5561C398.15 25.7053 398.209 25.8345 398.332 25.9439C398.458 26.0533 398.682 26.1411 399.003 26.2074L400.475 26.4858C401.237 26.6316 401.804 26.8736 402.175 27.2116C402.549 27.5497 402.738 27.9972 402.742 28.554C402.738 29.0777 402.583 29.5334 402.274 29.9212C401.969 30.3089 401.552 30.6106 401.021 30.826C400.491 31.0381 399.885 31.1442 399.202 31.1442C398.111 31.1442 397.251 30.9205 396.622 30.473C395.995 30.0223 395.637 29.419 395.548 28.6634L397.949 28.6037C398.002 28.8821 398.14 29.0942 398.362 29.2401C398.584 29.3859 398.867 29.4588 399.212 29.4588C399.523 29.4588 399.777 29.4008 399.972 29.2848C400.168 29.1688 400.267 29.0147 400.271 28.8224C400.267 28.6501 400.191 28.5125 400.042 28.4098C399.893 28.3037 399.659 28.2209 399.341 28.1612L398.009 27.9077C397.243 27.7685 396.673 27.5116 396.298 27.1371C395.924 26.7592 395.738 26.2786 395.742 25.6953C395.738 25.1849 395.874 24.7491 396.149 24.3878C396.424 24.0232 396.816 23.7448 397.323 23.5526C397.83 23.3603 398.428 23.2642 399.117 23.2642C400.151 23.2642 400.967 23.4813 401.563 23.9155C402.16 24.3464 402.49 24.9396 402.553 25.6953ZM405.365 31L403.377 23.3636H405.818L406.847 28.2557H406.912L408.015 23.3636H410.397L411.53 28.2209H411.595L412.594 23.3636H415.035L413.042 31H410.441L409.248 26.5504H409.164L407.971 31H405.365ZM419.411 31.1442C418.609 31.1442 417.92 30.9801 417.343 30.652C416.77 30.3205 416.327 29.8598 416.016 29.2699C415.708 28.6766 415.553 27.9889 415.553 27.2067C415.553 26.4212 415.708 25.7334 416.016 25.1435C416.327 24.5502 416.77 24.0895 417.343 23.7614C417.92 23.4299 418.609 23.2642 419.411 23.2642C420.213 23.2642 420.901 23.4299 421.475 23.7614C422.051 24.0895 422.494 24.5502 422.802 25.1435C423.114 25.7334 423.269 26.4212 423.269 27.2067C423.269 27.9889 423.114 28.6766 422.802 29.2699C422.494 29.8598 422.051 30.3205 421.475 30.652C420.901 30.9801 420.213 31.1442 419.411 31.1442ZM419.426 29.3097C419.718 29.3097 419.965 29.2202 420.167 29.0412C420.369 28.8622 420.523 28.6136 420.629 28.2955C420.739 27.9773 420.794 27.6094 420.794 27.1918C420.794 26.7675 420.739 26.3963 420.629 26.0781C420.523 25.7599 420.369 25.5114 420.167 25.3324C419.965 25.1534 419.718 25.0639 419.426 25.0639C419.125 25.0639 418.869 25.1534 418.661 25.3324C418.455 25.5114 418.298 25.7599 418.188 26.0781C418.082 26.3963 418.029 26.7675 418.029 27.1918C418.029 27.6094 418.082 27.9773 418.188 28.2955C418.298 28.6136 418.455 28.8622 418.661 29.0412C418.869 29.2202 419.125 29.3097 419.426 29.3097ZM424.515 31V23.3636H426.876V24.7557H426.956C427.095 24.2519 427.322 23.8774 427.637 23.6321C427.952 23.3835 428.318 23.2592 428.736 23.2592C428.848 23.2592 428.964 23.2675 429.084 23.2841C429.203 23.2973 429.314 23.3189 429.417 23.3487V25.4616C429.301 25.4219 429.148 25.3904 428.959 25.3672C428.774 25.344 428.608 25.3324 428.462 25.3324C428.174 25.3324 427.914 25.397 427.682 25.5263C427.453 25.6522 427.272 25.8295 427.14 26.0582C427.01 26.2836 426.946 26.5488 426.946 26.8537V31H424.515ZM432.8 31.1094C432.236 31.1094 431.724 30.9635 431.264 30.6719C430.803 30.3802 430.435 29.9427 430.16 29.3594C429.885 28.776 429.747 28.0518 429.747 27.1868C429.747 26.2886 429.89 25.5495 430.175 24.9695C430.46 24.3894 430.833 23.9602 431.294 23.6818C431.758 23.4034 432.256 23.2642 432.79 23.2642C433.191 23.2642 433.534 23.3338 433.819 23.473C434.104 23.6089 434.339 23.7846 434.525 24C434.711 24.2154 434.852 24.4392 434.948 24.6712H434.997V20.8182H437.428V31H435.022V29.7621H434.948C434.845 29.9974 434.699 30.2178 434.51 30.4233C434.321 30.6288 434.084 30.7945 433.799 30.9205C433.517 31.0464 433.184 31.1094 432.8 31.1094ZM433.645 29.2152C433.94 29.2152 434.192 29.1323 434.401 28.9666C434.61 28.7976 434.77 28.5606 434.883 28.2557C434.996 27.9508 435.052 27.5928 435.052 27.1818C435.052 26.7642 434.996 26.4046 434.883 26.103C434.774 25.8014 434.613 25.5694 434.401 25.407C434.192 25.2446 433.94 25.1634 433.645 25.1634C433.343 25.1634 433.088 25.2462 432.879 25.4119C432.671 25.5777 432.512 25.8113 432.402 26.1129C432.296 26.4145 432.243 26.7708 432.243 27.1818C432.243 27.5928 432.298 27.9508 432.407 28.2557C432.517 28.5606 432.674 28.7976 432.879 28.9666C433.088 29.1323 433.343 29.2152 433.645 29.2152Z" fill="#101840"/>
<path d="M481.382 129.228C482.409 129.228 483.309 129.429 484.084 129.83C484.868 130.231 485.47 130.805 485.89 131.552C486.319 132.289 486.534 133.148 486.534 134.128C486.534 135.108 486.319 135.967 485.89 136.704C485.47 137.432 484.868 137.997 484.084 138.398C483.309 138.799 482.409 139 481.382 139H477.966V129.228H481.382ZM481.312 137.334C482.339 137.334 483.132 137.054 483.692 136.494C484.252 135.934 484.532 135.145 484.532 134.128C484.532 133.111 484.252 132.317 483.692 131.748C483.132 131.169 482.339 130.88 481.312 130.88H479.926V137.334H481.312ZM489.275 130.32C488.93 130.32 488.64 130.213 488.407 129.998C488.183 129.774 488.071 129.499 488.071 129.172C488.071 128.845 488.183 128.575 488.407 128.36C488.64 128.136 488.93 128.024 489.275 128.024C489.62 128.024 489.905 128.136 490.129 128.36C490.362 128.575 490.479 128.845 490.479 129.172C490.479 129.499 490.362 129.774 490.129 129.998C489.905 130.213 489.62 130.32 489.275 130.32ZM490.241 131.244V139H488.281V131.244H490.241ZM495.426 139.126C494.791 139.126 494.222 139.014 493.718 138.79C493.214 138.557 492.812 138.244 492.514 137.852C492.224 137.46 492.066 137.026 492.038 136.55H494.012C494.049 136.849 494.194 137.096 494.446 137.292C494.707 137.488 495.029 137.586 495.412 137.586C495.785 137.586 496.074 137.511 496.28 137.362C496.494 137.213 496.602 137.021 496.602 136.788C496.602 136.536 496.471 136.349 496.21 136.228C495.958 136.097 495.552 135.957 494.992 135.808C494.413 135.668 493.937 135.523 493.564 135.374C493.2 135.225 492.882 134.996 492.612 134.688C492.35 134.38 492.22 133.965 492.22 133.442C492.22 133.013 492.341 132.621 492.584 132.266C492.836 131.911 493.19 131.631 493.648 131.426C494.114 131.221 494.66 131.118 495.286 131.118C496.21 131.118 496.947 131.351 497.498 131.818C498.048 132.275 498.352 132.896 498.408 133.68H496.532C496.504 133.372 496.373 133.129 496.14 132.952C495.916 132.765 495.612 132.672 495.23 132.672C494.875 132.672 494.6 132.737 494.404 132.868C494.217 132.999 494.124 133.181 494.124 133.414C494.124 133.675 494.254 133.876 494.516 134.016C494.777 134.147 495.183 134.282 495.734 134.422C496.294 134.562 496.756 134.707 497.12 134.856C497.484 135.005 497.796 135.239 498.058 135.556C498.328 135.864 498.468 136.275 498.478 136.788C498.478 137.236 498.352 137.637 498.1 137.992C497.857 138.347 497.502 138.627 497.036 138.832C496.578 139.028 496.042 139.126 495.426 139.126ZM499.863 135.094C499.863 134.31 500.017 133.615 500.325 133.008C500.642 132.401 501.067 131.935 501.599 131.608C502.14 131.281 502.742 131.118 503.405 131.118C503.983 131.118 504.487 131.235 504.917 131.468C505.355 131.701 505.705 131.995 505.967 132.35V131.244H507.941V139H505.967V137.866C505.715 138.23 505.365 138.533 504.917 138.776C504.478 139.009 503.969 139.126 503.391 139.126C502.737 139.126 502.14 138.958 501.599 138.622C501.067 138.286 500.642 137.815 500.325 137.208C500.017 136.592 499.863 135.887 499.863 135.094ZM505.967 135.122C505.967 134.646 505.873 134.24 505.687 133.904C505.5 133.559 505.248 133.297 504.931 133.12C504.613 132.933 504.273 132.84 503.909 132.84C503.545 132.84 503.209 132.929 502.901 133.106C502.593 133.283 502.341 133.545 502.145 133.89C501.958 134.226 501.865 134.627 501.865 135.094C501.865 135.561 501.958 135.971 502.145 136.326C502.341 136.671 502.593 136.937 502.901 137.124C503.218 137.311 503.554 137.404 503.909 137.404C504.273 137.404 504.613 137.315 504.931 137.138C505.248 136.951 505.5 136.69 505.687 136.354C505.873 136.009 505.967 135.598 505.967 135.122ZM512.095 132.378C512.347 132.005 512.692 131.701 513.131 131.468C513.579 131.235 514.087 131.118 514.657 131.118C515.319 131.118 515.917 131.281 516.449 131.608C516.99 131.935 517.415 132.401 517.723 133.008C518.04 133.605 518.199 134.301 518.199 135.094C518.199 135.887 518.04 136.592 517.723 137.208C517.415 137.815 516.99 138.286 516.449 138.622C515.917 138.958 515.319 139.126 514.657 139.126C514.078 139.126 513.569 139.014 513.131 138.79C512.701 138.557 512.356 138.258 512.095 137.894V139H510.135V128.64H512.095V132.378ZM516.197 135.094C516.197 134.627 516.099 134.226 515.903 133.89C515.716 133.545 515.464 133.283 515.147 133.106C514.839 132.929 514.503 132.84 514.139 132.84C513.784 132.84 513.448 132.933 513.131 133.12C512.823 133.297 512.571 133.559 512.375 133.904C512.188 134.249 512.095 134.655 512.095 135.122C512.095 135.589 512.188 135.995 512.375 136.34C512.571 136.685 512.823 136.951 513.131 137.138C513.448 137.315 513.784 137.404 514.139 137.404C514.503 137.404 514.839 137.311 515.147 137.124C515.464 136.937 515.716 136.671 515.903 136.326C516.099 135.981 516.197 135.57 516.197 135.094ZM521.863 128.64V139H519.903V128.64H521.863ZM531.29 134.954C531.29 135.234 531.271 135.486 531.234 135.71H525.564C525.61 136.27 525.806 136.709 526.152 137.026C526.497 137.343 526.922 137.502 527.426 137.502C528.154 137.502 528.672 137.189 528.98 136.564H531.094C530.87 137.311 530.44 137.927 529.806 138.412C529.171 138.888 528.392 139.126 527.468 139.126C526.721 139.126 526.049 138.963 525.452 138.636C524.864 138.3 524.402 137.829 524.066 137.222C523.739 136.615 523.576 135.915 523.576 135.122C523.576 134.319 523.739 133.615 524.066 133.008C524.392 132.401 524.85 131.935 525.438 131.608C526.026 131.281 526.702 131.118 527.468 131.118C528.205 131.118 528.863 131.277 529.442 131.594C530.03 131.911 530.482 132.364 530.8 132.952C531.126 133.531 531.29 134.198 531.29 134.954ZM529.26 134.394C529.25 133.89 529.068 133.489 528.714 133.19C528.359 132.882 527.925 132.728 527.412 132.728C526.926 132.728 526.516 132.877 526.18 133.176C525.853 133.465 525.652 133.871 525.578 134.394H529.26ZM532.496 135.094C532.496 134.31 532.65 133.615 532.958 133.008C533.276 132.401 533.705 131.935 534.246 131.608C534.788 131.281 535.39 131.118 536.052 131.118C536.556 131.118 537.037 131.23 537.494 131.454C537.952 131.669 538.316 131.958 538.586 132.322V128.64H540.574V139H538.586V137.852C538.344 138.235 538.003 138.543 537.564 138.776C537.126 139.009 536.617 139.126 536.038 139.126C535.385 139.126 534.788 138.958 534.246 138.622C533.705 138.286 533.276 137.815 532.958 137.208C532.65 136.592 532.496 135.887 532.496 135.094ZM538.6 135.122C538.6 134.646 538.507 134.24 538.32 133.904C538.134 133.559 537.882 133.297 537.564 133.12C537.247 132.933 536.906 132.84 536.542 132.84C536.178 132.84 535.842 132.929 535.534 133.106C535.226 133.283 534.974 133.545 534.778 133.89C534.592 134.226 534.498 134.627 534.498 135.094C534.498 135.561 534.592 135.971 534.778 136.326C534.974 136.671 535.226 136.937 535.534 137.124C535.852 137.311 536.188 137.404 536.542 137.404C536.906 137.404 537.247 137.315 537.564 137.138C537.882 136.951 538.134 136.69 538.32 136.354C538.507 136.009 538.6 135.598 538.6 135.122Z" fill="#FFE838"/>
<defs>
<filter id="filter0_dd_1148_15722" x="11" y="35" width="316" height="62" filterUnits="userSpaceOnUse" color-interpolation-filters="sRGB">
<feFlood flood-opacity="0" result="BackgroundImageFix"/>
<feColorMatrix in="SourceAlpha" type="matrix" values="0 0 0 0 0 0 0 0 0 0 0 0 0 0 0 0 0 0 127 0" result="hardAlpha"/>
<feMorphology radius="3" operator="erode" in="SourceAlpha" result="effect1_dropShadow_1148_15722"/>
<feOffset dy="4"/>
<feGaussianBlur stdDeviation="8"/>
<feComposite in2="hardAlpha" operator="out"/>
<feColorMatrix type="matrix" values="0 0 0 0 0.2 0 0 0 0 0.4 0 0 0 0 1 0 0 0 0.35 0"/>
<feBlend mode="normal" in2="BackgroundImageFix" result="effect1_dropShadow_1148_15722"/>
<feColorMatrix in="SourceAlpha" type="matrix" values="0 0 0 0 0 0 0 0 0 0 0 0 0 0 0 0 0 0 127 0" result="hardAlpha"/>
<feMorphology radius="2" operator="erode" in="SourceAlpha" result="effect2_dropShadow_1148_15722"/>
<feOffset dy="1"/>
<feGaussianBlur stdDeviation="2.5"/>
<feComposite in2="hardAlpha" operator="out"/>
<feColorMatrix type="matrix" values="0 0 0 0 0.2 0 0 0 0 0.4 0 0 0 0 1 0 0 0 0.35 0"/>
<feBlend mode="normal" in2="effect1_dropShadow_1148_15722" result="effect2_dropShadow_1148_15722"/>
<feBlend mode="normal" in="SourceGraphic" in2="effect2_dropShadow_1148_15722" result="shape"/>
</filter>
</defs>
</svg>
