<svg width="327" height="117" viewBox="0 0 327 117" fill="none" xmlns="http://www.w3.org/2000/svg">
<path d="M24.5 52C24.5 47.8579 27.8579 44.5 32 44.5H295C299.142 44.5 302.5 47.8579 302.5 52V72C302.5 76.1421 299.142 79.5 295 79.5H32C27.8579 79.5 24.5 76.1421 24.5 72V52Z" fill="white"/>
<path d="M24.5 52C24.5 47.8579 27.8579 44.5 32 44.5H295C299.142 44.5 302.5 47.8579 302.5 52V72C302.5 76.1421 299.142 79.5 295 79.5H32C27.8579 79.5 24.5 76.1421 24.5 72V52Z" stroke="#E7E8EF"/>
<path d="M32.6165 58.1406V56.8182H40.4964V58.1406H37.3196V67H35.7884V58.1406H32.6165ZM42.1831 69.8636C41.961 69.8636 41.7588 69.8454 41.5765 69.8089C41.3942 69.7758 41.2583 69.7393 41.1689 69.6996L41.5268 68.4815C41.7986 68.5545 42.0405 68.5859 42.2527 68.576C42.4648 68.5661 42.652 68.4865 42.8145 68.3374C42.9802 68.1882 43.126 67.9446 43.252 67.6065L43.4359 67.0994L40.6419 59.3636H42.2328L44.1667 65.2898H44.2463L46.1802 59.3636H47.7761L44.6291 68.0192C44.4833 68.4169 44.2976 68.7533 44.0723 69.0284C43.8469 69.3068 43.5784 69.5156 43.2669 69.6548C42.9553 69.794 42.594 69.8636 42.1831 69.8636ZM49.1731 69.8636V59.3636H50.6248V60.6016H50.7491C50.8353 60.4425 50.9596 60.2585 51.122 60.0497C51.2844 59.8409 51.5098 59.6586 51.7981 59.5028C52.0865 59.3438 52.4676 59.2642 52.9416 59.2642C53.5581 59.2642 54.1083 59.42 54.5922 59.7315C55.0761 60.0431 55.4556 60.4922 55.7306 61.0788C56.0091 61.6655 56.1483 62.3714 56.1483 63.1967C56.1483 64.022 56.0107 64.7296 55.7356 65.3196C55.4605 65.9062 55.0827 66.3587 54.6021 66.6768C54.1215 66.9917 53.573 67.1491 52.9565 67.1491C52.4925 67.1491 52.113 67.0713 51.818 66.9155C51.5263 66.7597 51.2976 66.5774 51.1319 66.3686C50.9662 66.1598 50.8386 65.9742 50.7491 65.8118H50.6596V69.8636H49.1731ZM50.6298 63.1818C50.6298 63.7187 50.7077 64.1894 50.8635 64.5938C51.0192 64.9981 51.2446 65.3146 51.5396 65.5433C51.8346 65.7687 52.1958 65.8814 52.6234 65.8814C53.0675 65.8814 53.4387 65.7637 53.737 65.5284C54.0353 65.2898 54.2607 64.9666 54.4132 64.5589C54.569 64.1513 54.6468 63.6922 54.6468 63.1818C54.6468 62.678 54.5706 62.2256 54.4181 61.8246C54.269 61.4235 54.0436 61.107 53.742 60.875C53.4437 60.643 53.0708 60.527 52.6234 60.527C52.1925 60.527 51.8279 60.638 51.5297 60.8601C51.2347 61.0821 51.0109 61.392 50.8585 61.7898C50.706 62.1875 50.6298 62.6515 50.6298 63.1818ZM61.1049 67.1541C60.3526 67.1541 59.7046 66.9934 59.161 66.6719C58.6208 66.3471 58.2032 65.8913 57.9082 65.3047C57.6165 64.7147 57.4707 64.0237 57.4707 63.2315C57.4707 62.4493 57.6165 61.7599 57.9082 61.1634C58.2032 60.5668 58.6142 60.1011 59.1412 59.7663C59.6715 59.4316 60.2913 59.2642 61.0005 59.2642C61.4314 59.2642 61.849 59.3355 62.2534 59.478C62.6577 59.6205 63.0207 59.8442 63.3422 60.1491C63.6636 60.4541 63.9172 60.8501 64.1028 61.3374C64.2884 61.8213 64.3812 62.4096 64.3812 63.1023V63.6293H58.3109V62.5156H62.9245C62.9245 62.1245 62.845 61.7782 62.6859 61.4766C62.5268 61.1716 62.3031 60.9313 62.0147 60.7557C61.7297 60.58 61.3949 60.4922 61.0105 60.4922C60.5929 60.4922 60.2283 60.5949 59.9167 60.8004C59.6085 61.0026 59.3699 61.2678 59.2008 61.5959C59.0351 61.9207 58.9522 62.2737 58.9522 62.6548V63.5249C58.9522 64.0353 59.0417 64.4695 59.2207 64.8274C59.403 65.1854 59.6565 65.4588 59.9814 65.6477C60.3062 65.8333 60.6857 65.9261 61.1199 65.9261C61.4016 65.9261 61.6584 65.8864 61.8904 65.8068C62.1225 65.724 62.323 65.6013 62.492 65.4389C62.661 65.2765 62.7903 65.076 62.8798 64.8374L64.2868 65.0909C64.1741 65.5052 63.9719 65.8681 63.6802 66.1797C63.3919 66.4879 63.0289 66.7282 62.5914 66.9006C62.1573 67.0696 61.6618 67.1541 61.1049 67.1541ZM73.3002 59.3636V60.5568H69.1291V59.3636H73.3002ZM70.2477 57.5341H71.7342V64.7578C71.7342 65.0462 71.7773 65.2633 71.8635 65.4091C71.9496 65.5516 72.0607 65.6494 72.1966 65.7024C72.3358 65.7521 72.4866 65.777 72.649 65.777C72.7683 65.777 72.8727 65.7687 72.9622 65.7521C73.0517 65.7356 73.1213 65.7223 73.171 65.7124L73.4395 66.9403C73.3533 66.9735 73.2306 67.0066 73.0716 67.0398C72.9125 67.0762 72.7136 67.0961 72.475 67.0994C72.0839 67.1061 71.7193 67.0365 71.3812 66.8906C71.0431 66.7448 70.7697 66.5194 70.5609 66.2145C70.3521 65.9096 70.2477 65.5268 70.2477 65.0661V57.5341ZM78.1538 67.1541C77.4014 67.1541 76.7534 66.9934 76.2099 66.6719C75.6696 66.3471 75.252 65.8913 74.957 65.3047C74.6654 64.7147 74.5195 64.0237 74.5195 63.2315C74.5195 62.4493 74.6654 61.7599 74.957 61.1634C75.252 60.5668 75.663 60.1011 76.19 59.7663C76.7203 59.4316 77.3401 59.2642 78.0494 59.2642C78.4802 59.2642 78.8978 59.3355 79.3022 59.478C79.7066 59.6205 80.0695 59.8442 80.391 60.1491C80.7125 60.4541 80.966 60.8501 81.1516 61.3374C81.3372 61.8213 81.43 62.4096 81.43 63.1023V63.6293H75.3597V62.5156H79.9734C79.9734 62.1245 79.8938 61.7782 79.7347 61.4766C79.5756 61.1716 79.3519 60.9313 79.0636 60.7557C78.7785 60.58 78.4438 60.4922 78.0593 60.4922C77.6417 60.4922 77.2771 60.5949 76.9656 60.8004C76.6573 61.0026 76.4187 61.2678 76.2496 61.5959C76.0839 61.9207 76.0011 62.2737 76.0011 62.6548V63.5249C76.0011 64.0353 76.0906 64.4695 76.2695 64.8274C76.4518 65.1854 76.7054 65.4588 77.0302 65.6477C77.355 65.8333 77.7345 65.9261 78.1687 65.9261C78.4504 65.9261 78.7073 65.8864 78.9393 65.8068C79.1713 65.724 79.3718 65.6013 79.5408 65.4389C79.7099 65.2765 79.8391 65.076 79.9286 64.8374L81.3356 65.0909C81.2229 65.5052 81.0207 65.8681 80.729 66.1797C80.4407 66.4879 80.0778 66.7282 79.6403 66.9006C79.2061 67.0696 78.7106 67.1541 78.1538 67.1541ZM84.0749 59.3636L85.7603 62.3366L87.4606 59.3636H89.0863L86.7049 63.1818L89.1062 67H87.4805L85.7603 64.1463L84.0451 67H82.4144L84.7908 63.1818L82.4442 59.3636H84.0749ZM94.1772 59.3636V60.5568H90.006V59.3636H94.1772ZM91.1246 57.5341H92.6112V64.7578C92.6112 65.0462 92.6542 65.2633 92.7404 65.4091C92.8266 65.5516 92.9376 65.6494 93.0735 65.7024C93.2127 65.7521 93.3635 65.777 93.5259 65.777C93.6452 65.777 93.7496 65.7687 93.8391 65.7521C93.9286 65.7356 93.9982 65.7223 94.0479 65.7124L94.3164 66.9403C94.2302 66.9735 94.1076 67.0066 93.9485 67.0398C93.7894 67.0762 93.5906 67.0961 93.3519 67.0994C92.9608 67.1061 92.5962 67.0365 92.2582 66.8906C91.9201 66.7448 91.6467 66.5194 91.4379 66.2145C91.229 65.9096 91.1246 65.5268 91.1246 65.0661V57.5341ZM101.013 62.4659V67H99.5266V56.8182H100.993V60.6065H101.088C101.267 60.1955 101.54 59.8691 101.908 59.6271C102.276 59.3852 102.757 59.2642 103.35 59.2642C103.873 59.2642 104.331 59.3719 104.722 59.5874C105.116 59.8028 105.421 60.1243 105.637 60.5518C105.855 60.9761 105.965 61.5064 105.965 62.1428V67H104.478V62.3217C104.478 61.7616 104.334 61.3274 104.046 61.0192C103.757 60.7076 103.356 60.5518 102.843 60.5518C102.491 60.5518 102.176 60.6264 101.898 60.7756C101.623 60.9247 101.406 61.1435 101.247 61.4318C101.091 61.7169 101.013 62.0616 101.013 62.4659ZM111.24 67.1541C110.487 67.1541 109.839 66.9934 109.296 66.6719C108.756 66.3471 108.338 65.8913 108.043 65.3047C107.751 64.7147 107.605 64.0237 107.605 63.2315C107.605 62.4493 107.751 61.7599 108.043 61.1634C108.338 60.5668 108.749 60.1011 109.276 59.7663C109.806 59.4316 110.426 59.2642 111.135 59.2642C111.566 59.2642 111.984 59.3355 112.388 59.478C112.792 59.6205 113.155 59.8442 113.477 60.1491C113.798 60.4541 114.052 60.8501 114.238 61.3374C114.423 61.8213 114.516 62.4096 114.516 63.1023V63.6293H108.446V62.5156H113.059C113.059 62.1245 112.98 61.7782 112.821 61.4766C112.662 61.1716 112.438 60.9313 112.15 60.7557C111.864 60.58 111.53 60.4922 111.145 60.4922C110.728 60.4922 110.363 60.5949 110.051 60.8004C109.743 61.0026 109.505 61.2678 109.336 61.5959C109.17 61.9207 109.087 62.2737 109.087 62.6548V63.5249C109.087 64.0353 109.176 64.4695 109.355 64.8274C109.538 65.1854 109.791 65.4588 110.116 65.6477C110.441 65.8333 110.82 65.9261 111.255 65.9261C111.536 65.9261 111.793 65.8864 112.025 65.8068C112.257 65.724 112.458 65.6013 112.627 65.4389C112.796 65.2765 112.925 65.076 113.015 64.8374L114.422 65.0909C114.309 65.5052 114.107 65.8681 113.815 66.1797C113.527 66.4879 113.164 66.7282 112.726 66.9006C112.292 67.0696 111.797 67.1541 111.24 67.1541ZM116.165 67V59.3636H117.602V60.5767H117.682C117.821 60.1657 118.066 59.8426 118.417 59.6072C118.772 59.3686 119.173 59.2493 119.621 59.2493C119.713 59.2493 119.823 59.2526 119.949 59.2592C120.078 59.2659 120.179 59.2741 120.252 59.2841V60.706C120.192 60.6894 120.086 60.6712 119.934 60.6513C119.781 60.6281 119.629 60.6165 119.476 60.6165C119.125 60.6165 118.812 60.6911 118.537 60.8402C118.265 60.986 118.05 61.1899 117.89 61.4517C117.731 61.7102 117.652 62.0052 117.652 62.3366V67H116.165ZM124.556 67.1541C123.804 67.1541 123.156 66.9934 122.612 66.6719C122.072 66.3471 121.654 65.8913 121.359 65.3047C121.068 64.7147 120.922 64.0237 120.922 63.2315C120.922 62.4493 121.068 61.7599 121.359 61.1634C121.654 60.5668 122.065 60.1011 122.592 59.7663C123.123 59.4316 123.742 59.2642 124.452 59.2642C124.883 59.2642 125.3 59.3355 125.705 59.478C126.109 59.6205 126.472 59.8442 126.793 60.1491C127.115 60.4541 127.368 60.8501 127.554 61.3374C127.74 61.8213 127.832 62.4096 127.832 63.1023V63.6293H121.762V62.5156H126.376C126.376 62.1245 126.296 61.7782 126.137 61.4766C125.978 61.1716 125.754 60.9313 125.466 60.7557C125.181 60.58 124.846 60.4922 124.462 60.4922C124.044 60.4922 123.679 60.5949 123.368 60.8004C123.06 61.0026 122.821 61.2678 122.652 61.5959C122.486 61.9207 122.403 62.2737 122.403 62.6548V63.5249C122.403 64.0353 122.493 64.4695 122.672 64.8274C122.854 65.1854 123.108 65.4588 123.433 65.6477C123.757 65.8333 124.137 65.9261 124.571 65.9261C124.853 65.9261 125.11 65.8864 125.342 65.8068C125.574 65.724 125.774 65.6013 125.943 65.4389C126.112 65.2765 126.241 65.076 126.331 64.8374L127.738 65.0909C127.625 65.5052 127.423 65.8681 127.131 66.1797C126.843 66.4879 126.48 66.7282 126.043 66.9006C125.608 67.0696 125.113 67.1541 124.556 67.1541ZM130.461 67.0945C130.189 67.0945 129.956 66.9983 129.76 66.8061C129.565 66.6106 129.467 66.3752 129.467 66.1001C129.467 65.8284 129.565 65.5964 129.76 65.4041C129.956 65.2086 130.189 65.1108 130.461 65.1108C130.733 65.1108 130.967 65.2086 131.162 65.4041C131.358 65.5964 131.455 65.8284 131.455 66.1001C131.455 66.2824 131.409 66.4498 131.316 66.6023C131.227 66.7514 131.107 66.8707 130.958 66.9602C130.809 67.0497 130.643 67.0945 130.461 67.0945ZM134.426 67.0945C134.154 67.0945 133.921 66.9983 133.725 66.8061C133.529 66.6106 133.432 66.3752 133.432 66.1001C133.432 65.8284 133.529 65.5964 133.725 65.4041C133.921 65.2086 134.154 65.1108 134.426 65.1108C134.698 65.1108 134.931 65.2086 135.127 65.4041C135.323 65.5964 135.42 65.8284 135.42 66.1001C135.42 66.2824 135.374 66.4498 135.281 66.6023C135.192 66.7514 135.072 66.8707 134.923 66.9602C134.774 67.0497 134.608 67.0945 134.426 67.0945ZM138.391 67.0945C138.119 67.0945 137.885 66.9983 137.69 66.8061C137.494 66.6106 137.396 66.3752 137.396 66.1001C137.396 65.8284 137.494 65.5964 137.69 65.4041C137.885 65.2086 138.119 65.1108 138.391 65.1108C138.663 65.1108 138.896 65.2086 139.092 65.4041C139.287 65.5964 139.385 65.8284 139.385 66.1001C139.385 66.2824 139.339 66.4498 139.246 66.6023C139.156 66.7514 139.037 66.8707 138.888 66.9602C138.739 67.0497 138.573 67.0945 138.391 67.0945Z" fill="#6F7595"/>
<path fill-rule="evenodd" clip-rule="evenodd" d="M284.167 53.25C279.794 53.25 276.25 56.7944 276.25 61.1667C276.25 65.5389 279.794 69.0833 284.167 69.0833C285.902 69.0833 287.506 68.5252 288.811 67.5787L292.033 70.8006C292.521 71.2887 293.312 71.2887 293.801 70.8006C294.289 70.3124 294.289 69.5209 293.801 69.0328L290.579 65.8109C291.525 64.5064 292.083 62.9017 292.083 61.1667C292.083 56.7944 288.539 53.25 284.167 53.25ZM278.75 61.1667C278.75 58.1751 281.175 55.75 284.167 55.75C287.158 55.75 289.583 58.1751 289.583 61.1667C289.583 64.1582 287.158 66.5833 284.167 66.5833C281.175 66.5833 278.75 64.1582 278.75 61.1667Z" fill="#6F7595"/>
<path d="M30.2741 23.8707C30.241 23.5062 30.0935 23.2228 29.8317 23.0206C29.5732 22.8151 29.2036 22.7124 28.723 22.7124C28.4048 22.7124 28.1397 22.7538 27.9276 22.8366C27.7154 22.9195 27.5563 23.0339 27.4503 23.1797C27.3442 23.3222 27.2895 23.4863 27.2862 23.6719C27.2796 23.8243 27.3094 23.9586 27.3757 24.0746C27.4453 24.1906 27.5447 24.2933 27.674 24.3828C27.8066 24.469 27.9657 24.5452 28.1513 24.6115C28.3369 24.6778 28.5457 24.7358 28.7777 24.7855L29.6527 24.9844C30.1565 25.0938 30.6006 25.2396 30.9851 25.4219C31.3729 25.6042 31.6977 25.8213 31.9595 26.0732C32.2247 26.325 32.4252 26.6151 32.5611 26.9432C32.697 27.2713 32.7666 27.6392 32.7699 28.0469C32.7666 28.6899 32.6042 29.2417 32.2827 29.7024C31.9612 30.1631 31.4988 30.5161 30.8956 30.7614C30.2957 31.0066 29.5715 31.1293 28.723 31.1293C27.8712 31.1293 27.1288 31.0017 26.4957 30.7464C25.8627 30.4912 25.3705 30.1035 25.0192 29.5831C24.6679 29.0627 24.4872 28.4048 24.4773 27.6094H26.8338C26.8537 27.9375 26.9415 28.2109 27.0973 28.4297C27.2531 28.6484 27.4669 28.8142 27.7386 28.9268C28.0137 29.0395 28.3319 29.0959 28.6932 29.0959C29.0246 29.0959 29.3063 29.0511 29.5384 28.9616C29.7737 28.8722 29.9543 28.7479 30.0803 28.5888C30.2062 28.4297 30.2708 28.2474 30.2741 28.0419C30.2708 27.8497 30.2112 27.6856 30.0952 27.5497C29.9792 27.4105 29.8002 27.2912 29.5582 27.1918C29.3196 27.089 29.0147 26.9946 28.6435 26.9084L27.5795 26.6598C26.6979 26.4576 26.0036 26.1312 25.4964 25.6804C24.9893 25.2263 24.7375 24.6132 24.7408 23.8409C24.7375 23.2112 24.9065 22.6593 25.2479 22.1854C25.5893 21.7114 26.0616 21.3419 26.6648 21.0767C27.268 20.8116 27.9557 20.679 28.728 20.679C29.5168 20.679 30.2012 20.8132 30.7812 21.0817C31.3646 21.3468 31.817 21.7197 32.1385 22.2003C32.46 22.6809 32.6241 23.2377 32.6307 23.8707H30.2741ZM37.5824 31.1442C36.7836 31.1442 36.0942 30.9867 35.5142 30.6719C34.9375 30.3537 34.4934 29.9013 34.1818 29.3146C33.8736 28.7247 33.7195 28.0237 33.7195 27.2116C33.7195 26.4228 33.8752 25.7334 34.1868 25.1435C34.4983 24.5502 34.9375 24.0895 35.5043 23.7614C36.071 23.4299 36.7389 23.2642 37.5078 23.2642C38.0514 23.2642 38.5485 23.3487 38.9993 23.5178C39.45 23.6868 39.8395 23.937 40.1676 24.2685C40.4957 24.5999 40.7509 25.0092 40.9332 25.4964C41.1155 25.9804 41.2067 26.5355 41.2067 27.1619V27.7685H34.5696V26.3565H38.9446C38.9413 26.098 38.88 25.8677 38.7607 25.6655C38.6413 25.4633 38.4773 25.3059 38.2685 25.1932C38.063 25.0772 37.826 25.0192 37.5575 25.0192C37.2857 25.0192 37.0421 25.0805 36.8267 25.2031C36.6113 25.3224 36.4406 25.4865 36.3146 25.6953C36.1887 25.9008 36.1224 26.1345 36.1158 26.3963V27.8331C36.1158 28.1446 36.1771 28.4181 36.2997 28.6534C36.4223 28.8854 36.5964 29.0661 36.8217 29.1953C37.0471 29.3246 37.3156 29.3892 37.6271 29.3892C37.8426 29.3892 38.0381 29.3594 38.2138 29.2997C38.3894 29.2401 38.5402 29.1522 38.6662 29.0362C38.7921 28.9202 38.8866 28.7777 38.9496 28.6087L41.1818 28.6733C41.089 29.1738 40.8852 29.6096 40.5703 29.9808C40.2588 30.3487 39.8494 30.6354 39.3423 30.8409C38.8352 31.0431 38.2486 31.1442 37.5824 31.1442ZM44.601 31.1293C44.1138 31.1293 43.6813 31.0481 43.3034 30.8857C42.9289 30.7199 42.6323 30.4714 42.4135 30.1399C42.1981 29.8052 42.0904 29.3859 42.0904 28.8821C42.0904 28.4579 42.165 28.0999 42.3141 27.8082C42.4632 27.5166 42.6687 27.2796 42.9306 27.0973C43.1924 26.915 43.494 26.7775 43.8354 26.6847C44.1768 26.5885 44.5414 26.5239 44.9292 26.4908C45.3633 26.451 45.713 26.4096 45.9782 26.3665C46.2433 26.3201 46.4355 26.2554 46.5549 26.1726C46.6775 26.0864 46.7388 25.9654 46.7388 25.8097V25.7848C46.7388 25.5296 46.651 25.3324 46.4753 25.1932C46.2997 25.054 46.0627 24.9844 45.7644 24.9844C45.4429 24.9844 45.1844 25.054 44.9888 25.1932C44.7933 25.3324 44.669 25.5246 44.6159 25.7699L42.3738 25.6903C42.44 25.2263 42.6107 24.812 42.8858 24.4474C43.1642 24.0795 43.5454 23.7912 44.0293 23.5824C44.5165 23.3703 45.1015 23.2642 45.7843 23.2642C46.2715 23.2642 46.7206 23.3222 47.1316 23.4382C47.5426 23.5509 47.9005 23.7166 48.2054 23.9354C48.5104 24.1508 48.7457 24.416 48.9114 24.7308C49.0804 25.0457 49.165 25.4053 49.165 25.8097V31H46.878V29.9361H46.8184C46.6825 30.1946 46.5085 30.4134 46.2963 30.5923C46.0875 30.7713 45.8406 30.9055 45.5556 30.995C45.2739 31.0845 44.9557 31.1293 44.601 31.1293ZM45.3517 29.5384C45.6136 29.5384 45.8489 29.4853 46.0577 29.3793C46.2698 29.2732 46.4389 29.1274 46.5648 28.9418C46.6908 28.7528 46.7537 28.5341 46.7537 28.2855V27.5597C46.6841 27.5961 46.5996 27.6293 46.5002 27.6591C46.4041 27.6889 46.298 27.7171 46.182 27.7436C46.066 27.7701 45.9467 27.7933 45.824 27.8132C45.7014 27.8331 45.5837 27.8513 45.4711 27.8679C45.2424 27.9044 45.0468 27.9607 44.8844 28.0369C44.7253 28.1132 44.6027 28.2126 44.5165 28.3352C44.4337 28.4545 44.3922 28.5971 44.3922 28.7628C44.3922 29.0147 44.4817 29.2069 44.6607 29.3395C44.843 29.4721 45.0733 29.5384 45.3517 29.5384ZM50.6515 31V23.3636H53.013V24.7557H53.0925C53.2317 24.2519 53.4587 23.8774 53.7736 23.6321C54.0885 23.3835 54.4547 23.2592 54.8723 23.2592C54.985 23.2592 55.101 23.2675 55.2203 23.2841C55.3397 23.2973 55.4507 23.3189 55.5534 23.3487V25.4616C55.4374 25.4219 55.285 25.3904 55.0961 25.3672C54.9105 25.344 54.7447 25.3324 54.5989 25.3324C54.3105 25.3324 54.0504 25.397 53.8184 25.5263C53.5897 25.6522 53.409 25.8295 53.2765 26.0582C53.1472 26.2836 53.0826 26.5488 53.0826 26.8537V31H50.6515ZM59.7122 31.1442C58.9068 31.1442 58.2157 30.9785 57.639 30.647C57.0656 30.3156 56.6248 29.8549 56.3166 29.2649C56.0083 28.6716 55.8542 27.9856 55.8542 27.2067C55.8542 26.4245 56.0083 25.7384 56.3166 25.1484C56.6281 24.5552 57.0706 24.0928 57.644 23.7614C58.2207 23.4299 58.9084 23.2642 59.7072 23.2642C60.4132 23.2642 61.028 23.3918 61.5517 23.647C62.0787 23.9022 62.4896 24.2635 62.7846 24.7308C63.0829 25.1948 63.2404 25.7401 63.2569 26.3665H60.9849C60.9385 25.9754 60.8059 25.6688 60.5872 25.4467C60.3717 25.2247 60.09 25.1136 59.742 25.1136C59.4603 25.1136 59.2134 25.1932 59.0012 25.3523C58.7891 25.508 58.6234 25.7401 58.5041 26.0483C58.3881 26.3532 58.3301 26.7311 58.3301 27.1818C58.3301 27.6326 58.3881 28.0137 58.5041 28.3253C58.6234 28.6335 58.7891 28.8672 59.0012 29.0263C59.2134 29.1821 59.4603 29.2599 59.742 29.2599C59.9674 29.2599 60.1663 29.2119 60.3386 29.1158C60.5143 29.0196 60.6584 28.8788 60.7711 28.6932C60.8838 28.5043 60.9551 28.2756 60.9849 28.0071H63.2569C63.2337 28.6368 63.0763 29.187 62.7846 29.6577C62.4963 30.1283 62.0903 30.4946 61.5666 30.7564C61.0462 31.0149 60.4281 31.1442 59.7122 31.1442ZM66.9322 26.6449V31H64.5011V20.8182H66.8526V24.7656H66.9371C67.1095 24.295 67.3912 23.9271 67.7823 23.6619C68.1767 23.3968 68.659 23.2642 69.229 23.2642C69.766 23.2642 70.2333 23.3835 70.631 23.6222C71.0288 23.8575 71.337 24.1906 71.5558 24.6214C71.7778 25.0523 71.8872 25.5561 71.8839 26.1328V31H69.4528V26.6101C69.4561 26.1858 69.35 25.8544 69.1346 25.6158C68.9192 25.3771 68.6159 25.2578 68.2248 25.2578C67.9696 25.2578 67.7442 25.3142 67.5487 25.4268C67.3564 25.5362 67.2056 25.6937 67.0962 25.8991C66.9902 26.1046 66.9355 26.3532 66.9322 26.6449Z" fill="#101940"/>
<path d="M141.84 111.098C141.159 111.098 140.543 110.981 139.992 110.748C139.451 110.515 139.021 110.179 138.704 109.74C138.387 109.301 138.223 108.783 138.214 108.186H140.314C140.342 108.587 140.482 108.905 140.734 109.138C140.995 109.371 141.35 109.488 141.798 109.488C142.255 109.488 142.615 109.381 142.876 109.166C143.137 108.942 143.268 108.653 143.268 108.298C143.268 108.009 143.179 107.771 143.002 107.584C142.825 107.397 142.601 107.253 142.33 107.15C142.069 107.038 141.705 106.917 141.238 106.786C140.603 106.599 140.085 106.417 139.684 106.24C139.292 106.053 138.951 105.778 138.662 105.414C138.382 105.041 138.242 104.546 138.242 103.93C138.242 103.351 138.387 102.847 138.676 102.418C138.965 101.989 139.371 101.662 139.894 101.438C140.417 101.205 141.014 101.088 141.686 101.088C142.694 101.088 143.511 101.335 144.136 101.83C144.771 102.315 145.121 102.997 145.186 103.874H143.03C143.011 103.538 142.867 103.263 142.596 103.048C142.335 102.824 141.985 102.712 141.546 102.712C141.163 102.712 140.855 102.81 140.622 103.006C140.398 103.202 140.286 103.487 140.286 103.86C140.286 104.121 140.37 104.341 140.538 104.518C140.715 104.686 140.93 104.826 141.182 104.938C141.443 105.041 141.807 105.162 142.274 105.302C142.909 105.489 143.427 105.675 143.828 105.862C144.229 106.049 144.575 106.329 144.864 106.702C145.153 107.075 145.298 107.565 145.298 108.172C145.298 108.695 145.163 109.18 144.892 109.628C144.621 110.076 144.225 110.435 143.702 110.706C143.179 110.967 142.559 111.098 141.84 111.098ZM154.487 106.954C154.487 107.234 154.469 107.486 154.431 107.71H148.761C148.808 108.27 149.004 108.709 149.349 109.026C149.695 109.343 150.119 109.502 150.623 109.502C151.351 109.502 151.869 109.189 152.177 108.564H154.291C154.067 109.311 153.638 109.927 153.003 110.412C152.369 110.888 151.589 111.126 150.665 111.126C149.919 111.126 149.247 110.963 148.649 110.636C148.061 110.3 147.599 109.829 147.263 109.222C146.937 108.615 146.773 107.915 146.773 107.122C146.773 106.319 146.937 105.615 147.263 105.008C147.59 104.401 148.047 103.935 148.635 103.608C149.223 103.281 149.9 103.118 150.665 103.118C151.403 103.118 152.061 103.277 152.639 103.594C153.227 103.911 153.68 104.364 153.997 104.952C154.324 105.531 154.487 106.198 154.487 106.954ZM152.457 106.394C152.448 105.89 152.266 105.489 151.911 105.19C151.557 104.882 151.123 104.728 150.609 104.728C150.124 104.728 149.713 104.877 149.377 105.176C149.051 105.465 148.85 105.871 148.775 106.394H152.457ZM155.694 107.094C155.694 106.31 155.848 105.615 156.156 105.008C156.473 104.401 156.898 103.935 157.43 103.608C157.971 103.281 158.573 103.118 159.236 103.118C159.815 103.118 160.319 103.235 160.748 103.468C161.187 103.701 161.537 103.995 161.798 104.35V103.244H163.772V111H161.798V109.866C161.546 110.23 161.196 110.533 160.748 110.776C160.309 111.009 159.801 111.126 159.222 111.126C158.569 111.126 157.971 110.958 157.43 110.622C156.898 110.286 156.473 109.815 156.156 109.208C155.848 108.592 155.694 107.887 155.694 107.094ZM161.798 107.122C161.798 106.646 161.705 106.24 161.518 105.904C161.331 105.559 161.079 105.297 160.762 105.12C160.445 104.933 160.104 104.84 159.74 104.84C159.376 104.84 159.04 104.929 158.732 105.106C158.424 105.283 158.172 105.545 157.976 105.89C157.789 106.226 157.696 106.627 157.696 107.094C157.696 107.561 157.789 107.971 157.976 108.326C158.172 108.671 158.424 108.937 158.732 109.124C159.049 109.311 159.385 109.404 159.74 109.404C160.104 109.404 160.445 109.315 160.762 109.138C161.079 108.951 161.331 108.69 161.518 108.354C161.705 108.009 161.798 107.598 161.798 107.122ZM167.926 104.448C168.178 104.037 168.505 103.715 168.906 103.482C169.317 103.249 169.783 103.132 170.306 103.132V105.19H169.788C169.172 105.19 168.705 105.335 168.388 105.624C168.08 105.913 167.926 106.417 167.926 107.136V111H165.966V103.244H167.926V104.448ZM171.402 107.122C171.402 106.319 171.566 105.619 171.892 105.022C172.219 104.415 172.672 103.949 173.25 103.622C173.829 103.286 174.492 103.118 175.238 103.118C176.2 103.118 176.993 103.361 177.618 103.846C178.253 104.322 178.678 104.994 178.892 105.862H176.778C176.666 105.526 176.475 105.265 176.204 105.078C175.943 104.882 175.616 104.784 175.224 104.784C174.664 104.784 174.221 104.989 173.894 105.4C173.568 105.801 173.404 106.375 173.404 107.122C173.404 107.859 173.568 108.433 173.894 108.844C174.221 109.245 174.664 109.446 175.224 109.446C176.018 109.446 176.536 109.091 176.778 108.382H178.892C178.678 109.222 178.253 109.889 177.618 110.384C176.984 110.879 176.19 111.126 175.238 111.126C174.492 111.126 173.829 110.963 173.25 110.636C172.672 110.3 172.219 109.833 171.892 109.236C171.566 108.629 171.402 107.925 171.402 107.122ZM184.976 103.132C185.564 103.132 186.087 103.263 186.544 103.524C187.002 103.776 187.356 104.154 187.608 104.658C187.87 105.153 188 105.75 188 106.45V111H186.04V106.716C186.04 106.1 185.886 105.629 185.578 105.302C185.27 104.966 184.85 104.798 184.318 104.798C183.777 104.798 183.348 104.966 183.03 105.302C182.722 105.629 182.568 106.1 182.568 106.716V111H180.608V100.64H182.568V104.21C182.82 103.874 183.156 103.613 183.576 103.426C183.996 103.23 184.463 103.132 184.976 103.132Z" fill="#FFE838"/>
</svg>
