<svg width="2021" height="1356" viewBox="0 0 2021 1356" fill="none" xmlns="http://www.w3.org/2000/svg">
<path d="M35.7439 168.574C22.1906 213.811 196.819 295.032 315.15 324.333C433.481 353.634 793.164 111 918.793 168.574C1044.42 226.148 1173.27 581.874 960.924 782.949C748.578 984.024 546.458 948.989 466.964 815.848C387.471 682.708 530.545 419.947 805.022 411.208C1079.5 402.469 963.561 502.196 1379.08 487.288C1488.48 483.363 1828.95 303.257 1694.46 113.571C1559.97 -76.1156 1337.9 113.571 1410.36 303.257C1482.82 492.943 2007.23 282.254 1985.33 517.177C1963.44 752.1 1333 584 1285.5 756.5C1238 929 1716.5 772.5 1796.5 880C1876.5 987.5 1556 964.5 1556 1141V1356" stroke="#2656FF" stroke-width="70" stroke-dasharray="6 6"/>
</svg>
