<svg width="319" height="315" fill="none" xmlns="http://www.w3.org/2000/svg"><path d="M112.2 218H77.4c7.8-15.8 13-40.8 15.4-56H91c-6.6 33.4-24.9 56-59.5 56C12.3 218 0 214 0 198.6c0-27.8 32.8-36.2 73.8-43.4 22.8-4.2 28.4-11.8 26.8-15.8-1.6-4-9-3.2-16.8.8-10.6 5.4-36.6 21.6-58.4 17.8-32.2-5-25.4-45.8-7.6-58.4l1.4 1c-1.4 1.2-3.4 8.8 7.6 8.8 22 0 35.4-10.4 56.4-10.4 16.2 0 26.2 8.6 26.2 24.8 0 17.2-8.8 26.6-17.2 33h1.6l15.2-1.3c-1.6 6.8.4 17.7.4 28.7 0 10.2 1.4 27.2 2.8 33.8ZM67 189.8c5.8 5.2 17.8-8 21.2-30.4-2.2 1.4-6.2 4.4-10.4 8.4-5.8 5.4-16.2 17-10.8 22ZM167 217.904h62.4v-49.6c.133-3.999.333-7.734.6-11.2.4-3.466.8-6.467 1.2-9 .533-2.533 1.067-4.8 1.6-6.8.667-2 1.333-3.667 2-5 .667-1.333 1.333-2.4 2-3.2.8-.8 1.533-1.333 2.2-1.6.8-.267 1.6-.333 2.4-.2 11.733 3.067 16.533 18.336 14.4 45.8-1.6 21.065-8.4 29.829-20.4 32.896v7.904c27.733.133 55.533.133 83.4 0V210c-12.133-3.067-18.933-11.831-20.4-32.896-.4-5.466-.733-14.801-1-28 .533-13.865-2.067-25.468-7.8-34.8-5.6-9.332-13.067-14.4-22.4-15.2-6.933-.667-13.8 1.867-20.6 7.6-6.667 5.733-12.333 14.468-17 26.2v-4.5c-16.207-.114-25.135-.173-41.838-.104.105.892.163 1.866.045 2.79a4.013 4.013 0 0 1-.021.153c.932 15.22.803 30.442-.386 45.661-1.6 21.198-8.4 33.333-20.4 36.4v4.6Z" fill="#0123FF"/><path d="M117.13 95.606c-.077 30.117 26.58 51.209 55.592 51.282 20.528.052 39.654-7.319 53.219-12.547 11.813-4.554 17.305-13.59 17.935-8.572.47 4.521 4.853 5.765 10.363 7.33 1.333.378 2.732.775 4.157 1.242 14.9-2.934 26.309-7.866 26.953-19.243.856-10.773-9.076-16.6-21.513-15.25-13.498 1.398-22.935 9.001-31.616 15.995-11.404 9.189-21.505 17.327-37.8 8.971-31.456-16.658.267-104.994 30.911-94.97 12.165 3.737 6.939 17.695.61 34.602-6.887 18.396-15.081 40.284-3.604 56.295l1.109-1.379c.03-11.615 13.98-18.339 28.976-25.568 16.396-7.903 34.041-16.409 36.103-32.567 3.66-26.792-29.469-37.652-64.009-36.91-38.133 1.284-107.251 18.24-107.386 71.29Z" fill="#0123FF"/><path d="m160.199 85.199.928 83.11c0 10.524 1.935 19.578 5.804 27.162 3.869 7.428 9.828 12.149 17.876 14.161L185 218h-37.84c-9.441 0-17.76-6.666-24.57-13.476-6.809-6.809-10.214-14.935-10.214-24.375 0-19.81.077-35.21.232-46.198-.31-5.417-.851-10.292-1.625-14.626-.619-4.333-1.78-9.053-3.482-14.161-1.548-5.107-4.024-9.364-7.429-12.768-3.25-3.56-7.274-5.959-12.072-7.197v-5.572c27.703-5.571 46.894-15.786 57.573-30.643a25.52 25.52 0 0 1-10.679 2.321c-7.119 0-13.232-2.476-18.34-7.429-4.952-5.107-7.428-11.22-7.428-18.34 0-4.643 1.16-8.899 3.482-12.768 2.321-4.024 5.417-7.119 9.286-9.286 4.024-2.321 8.357-3.482 13-3.482 7.429 0 13.542 2.786 18.34 8.357 4.798 5.417 7.197 12.072 7.197 19.965v51.305H204.5v5.34h-44.069v.232h-.232Z" fill="#0123FF"/><path d="m163.596 83.105.393 35.219c0 4.46.82 8.297 2.46 11.511 1.639 3.148 4.164 5.148 7.575 6.001V138h-16.036c-4.001 0-7.444-1.443-10.33-4.329-2.885-2.885-4.328-6.329-4.328-10.329 0-8.395.033-14.921.098-19.578-.131-2.295-.361-4.361-.689-6.198-.262-1.836-.754-3.836-1.475-6-.656-2.165-1.705-3.969-3.148-5.411-1.378-1.509-3.083-2.526-5.116-3.05V80.744c11.74-2.361 19.872-6.69 24.398-12.986a10.818 10.818 0 0 1-4.526.984c-3.017 0-5.607-1.05-7.771-3.148-2.099-2.165-3.149-4.755-3.149-7.772 0-1.968.492-3.772 1.476-5.411.984-1.705 2.296-3.017 3.935-3.935A10.84 10.84 0 0 1 152.872 47c3.149 0 5.739 1.18 7.772 3.542 2.033 2.295 3.05 5.115 3.05 8.46v21.742h10.33v2.263h-10.33v.098h-.098Z" fill="#FBEFDF"/><path d="M105.729 276.228c.043 2.896.596 5.387 1.661 7.474 1.065 2.044 2.704 3.343 4.919 3.897v1.405h-10.413c-2.64 0-4.897-.937-6.771-2.811-1.831-1.874-2.747-4.109-2.747-6.707 0-5.451.021-9.689.064-12.713-.34-6.26-1.789-10.348-4.344-12.265-1.022-.681-2.747-1.171-5.174-1.469a25.595 25.595 0 0 0-7.219 0c-2.342.298-3.854.916-4.535 1.853-.426.511-.554 1.107-.383 1.788.17.639.638 1.257 1.405 1.853a270.04 270.04 0 0 1 4.28 3.449c1.703 1.321 3.13 2.47 4.28 3.45 1.192.979 1.874 1.533 2.044 1.661 2.087 1.533 3.62 3.386 4.6 5.557 1.022 2.172 1.447 4.323 1.277 6.452-.17 2.13-.958 4.153-2.364 6.069-1.362 1.874-3.236 3.301-5.621 4.28-3.407 1.363-7.24 1.938-11.499 1.725-4.216-.213-7.601-1.129-10.157-2.747-1.575-.98-2.768-2.342-3.577-4.088-.809-1.746-1.171-3.45-1.086-5.111.085-1.703.681-3.236 1.789-4.599 1.107-1.406 2.619-2.279 4.535-2.619a7.154 7.154 0 0 1 1.853-.256c2.087 0 3.854.724 5.302 2.172 1.448 1.448 2.172 3.215 2.172 5.302 0 2.044-.724 3.79-2.172 5.238-1.448 1.448-3.215 2.172-5.302 2.172-.213 0-.426-.021-.639-.064.682 1.278 1.704 2.087 3.066 2.428 1.406.341 2.854.298 4.344-.128a8.225 8.225 0 0 0 3.897-2.555c1.107-1.235 1.66-2.662 1.66-4.28 0-1.15-.255-2.278-.766-3.386-.51-1.15-1.107-2.129-1.788-2.938-.64-.809-1.619-1.704-2.939-2.683-1.32-1.022-2.385-1.789-3.194-2.3-.81-.511-2.001-1.256-3.577-2.236a3.03 3.03 0 0 0-.32-.191 2.334 2.334 0 0 0-.32-.128.808.808 0 0 0-.319-.192c-1.575-.979-2.874-1.916-3.896-2.811-.98-.936-1.682-2.001-2.108-3.194-.554-1.32-.575-2.81-.064-4.471.553-1.704 1.66-3.152 3.322-4.344 1.235-.937 2.896-1.576 4.982-1.917 2.13-.383 4.387-.553 6.772-.511 2.385.043 4.77.149 7.154.32 2.385.128 4.77.17 7.155.128 2.427-.086 4.429-.341 6.005-.767a23.598 23.598 0 0 0 4.344-1.405 23.726 23.726 0 0 0 3.96-2.364 10.138 10.138 0 0 0 3.13-3.577c.767-1.448 1.15-3.024 1.15-4.727 0-1.917-.468-3.684-1.405-5.302-.937-1.661-2.215-2.96-3.833-3.897a10.505 10.505 0 0 0-5.302-1.533c1.533.553 2.768 1.511 3.705 2.874.98 1.363 1.47 2.875 1.47 4.536 0 2.214-.767 4.088-2.3 5.621-1.534 1.533-3.407 2.3-5.622 2.3-2.172 0-4.024-.767-5.558-2.3-1.533-1.533-2.3-3.407-2.3-5.621A7.82 7.82 0 0 1 83.5 231a7.616 7.616 0 0 1 2.938-2.874c2.044-1.278 4.28-1.917 6.708-1.917 3.151 0 5.877 1.044 8.176 3.13 2.343 2.045 3.727 4.621 4.153 7.73.042.511.064 1.022.064 1.533v13.223h6.771v1.47h-6.771c0 1.873.063 9.518.191 22.933Zm35.046-8.049v-16.354h13.287v16.609c0 .554.022 3.152.064 7.794.043 2.896.596 5.387 1.661 7.474 1.065 2.044 2.683 3.343 4.855 3.897v1.405h-10.413c-2.597 0-4.833-.937-6.707-2.811-1.831-1.874-2.747-4.109-2.747-6.707v-.639c-1.022 2.513-2.214 4.621-3.577 6.324-1.363 1.704-2.747 2.896-4.152 3.577-1.406.682-2.832.959-4.28.831-2.981-.256-5.388-1.853-7.219-4.791-1.789-2.981-2.619-6.686-2.491-11.115-.043-4.174-.128-7.134-.256-8.88-.468-6.686-2.64-10.519-6.516-11.498v-1.406c7.368-.042 14.012-.064 19.931-.064v16.29c0 6.644 1.597 10.391 4.791 11.243.682.17 1.278-.149 1.789-.958.553-.852.958-1.981 1.214-3.386.255-1.448.447-2.704.575-3.769.127-1.107.191-2.129.191-3.066Zm42.099 20.825H181.405c-9.028-.341-15.459-3.62-19.292-9.838-2.81-4.514-3.747-9.603-2.81-15.267.766-4.813 2.597-8.39 5.493-10.732 1.619-1.32 3.386-1.98 5.302-1.98 2.257-.043 4.387.596 6.388 1.916 2.002 1.278 3.599 3.194 4.791 5.749 0-2.64-.021-4.344-.063-5.11v-7.283c6.047-.042 12.754-.042 20.122 0v1.406c-3.833.979-6.005 4.876-6.516 11.69a104.784 104.784 0 0 0 0 16.353c.511 6.772 2.683 10.647 6.516 11.627v1.469h-18.462Zm-8.56-18.845c-.042 3.492.618 6.963 1.981 10.413 1.363 3.407 3.023 5.685 4.982 6.835 0-.767-.021-3.684-.063-8.752v-8.56c0-3.364-.235-5.941-.703-7.729-.469-1.832-1.044-2.726-1.725-2.683-.639 0-1.299.426-1.98 1.277-.682.852-1.278 2.151-1.789 3.897a20.393 20.393 0 0 0-.703 5.302Zm47.249 6.069c.469 6.558 2.641 10.348 6.516 11.371v1.405c-8.901.042-17.78.042-26.638 0v-1.405c3.875-1.023 6.047-4.813 6.516-11.371a75.707 75.707 0 0 0 0-11.626c-.469-6.559-2.641-10.349-6.516-11.371v-1.406c5.153 1.235 9.561 1.853 13.223 1.853 3.705-.043 8.177-.66 13.415-1.853v1.406c-3.875 1.022-6.047 4.812-6.516 11.371a75.707 75.707 0 0 0 0 11.626Zm-12.393-29.577c-1.533-1.576-2.299-3.449-2.299-5.621 0-2.172.766-4.025 2.299-5.558 1.533-1.576 3.386-2.364 5.558-2.364 2.214 0 4.088.788 5.621 2.364 1.534 1.533 2.3 3.386 2.3 5.558 0 2.172-.766 4.045-2.3 5.621-1.533 1.533-3.407 2.3-5.621 2.3-2.172 0-4.025-.767-5.558-2.3Zm55.245 24.402c0 2.896-.532 5.537-1.597 7.922s-2.491 4.344-4.28 5.877a20.065 20.065 0 0 1-6.005 3.449 21.069 21.069 0 0 1-6.899 1.278c-1.874 0-3.726-.234-5.557-.703a18.527 18.527 0 0 1-5.111-2.363 18.69 18.69 0 0 1-4.152-3.833c-1.193-1.491-2.151-3.322-2.875-5.494-.681-2.215-1.022-4.599-1.022-7.155 0-2.938.532-5.6 1.597-7.985 1.065-2.427 2.47-4.386 4.216-5.877a20.672 20.672 0 0 1 5.941-3.577 19.053 19.053 0 0 1 6.899-1.278c2.428-.042 4.727.341 6.899 1.15a18.737 18.737 0 0 1 6.005 3.578c1.789 1.575 3.215 3.662 4.28 6.26 1.107 2.598 1.661 5.515 1.661 8.751Zm-18.845-17.822c-1.277.085-2.363 1.639-3.258 4.663-.894 2.981-1.362 7.155-1.405 12.521-.043 3.577.17 6.707.639 9.39.468 2.683 1.043 4.663 1.725 5.941.724 1.235 1.511 1.874 2.363 1.916.809.043 1.555-.511 2.236-1.66.724-1.193 1.32-3.088 1.789-5.686.468-2.64.724-5.77.766-9.39 0-2.854-.128-5.451-.383-7.794-.256-2.342-.618-4.216-1.086-5.621-.469-1.448-1.001-2.534-1.597-3.258-.596-.767-1.193-1.107-1.789-1.022Z" fill="#0123FF"/></svg>