<svg width="391" height="558" fill="none" xmlns="http://www.w3.org/2000/svg"><path fill="#0123FF" d="M0 0h391v558H0z"/><path d="M158.69 326.321h-27.508c6.166-12.489 10.276-32.251 12.173-44.266h-1.423c-5.217 26.402-19.682 44.266-47.032 44.266-15.177 0-24.9-3.162-24.9-15.335 0-21.975 25.927-28.615 58.336-34.306 18.023-3.32 22.449-9.328 21.185-12.489-1.265-3.162-7.114-2.53-13.28.632-8.379 4.268-28.931 17.074-46.163 14.07C64.625 274.941 70 242.69 84.07 232.73l1.107.791c-1.107.948-2.688 6.956 6.007 6.956 17.391 0 27.983-8.221 44.583-8.221 12.805 0 20.71 6.798 20.71 19.603 0 13.596-6.956 21.027-13.596 26.086h1.265l12.015-1.028c-1.265 5.375.316 13.991.316 22.686 0 8.063 1.106 21.501 2.213 26.718Zm-35.729-22.291c4.585 4.11 14.07-6.324 16.758-24.03-1.739 1.107-4.901 3.478-8.221 6.64-4.585 4.268-12.805 13.438-8.537 17.39ZM202.007 326.245h49.325v-39.207c.106-3.161.264-6.113.475-8.853.316-2.74.632-5.112.948-7.114.422-2.002.843-3.794 1.265-5.375.527-1.581 1.054-2.899 1.581-3.952.527-1.054 1.054-1.898 1.581-2.53.632-.632 1.212-1.054 1.739-1.265a3.905 3.905 0 0 1 1.897-.158c9.275 2.424 13.069 14.494 11.383 36.203-1.265 16.651-6.64 23.579-16.126 26.003v6.248c21.922.106 43.897.106 65.925 0v-6.248c-9.591-2.424-14.966-9.352-16.126-26.003-.316-4.32-.579-11.7-.79-22.133.421-10.96-1.634-20.131-6.166-27.508-4.426-7.377-10.329-11.383-17.706-12.015-5.481-.527-10.909 1.476-16.284 6.008-5.27 4.531-9.749 11.436-13.438 20.71v-3.557c-12.811-.09-19.868-.137-33.071-.082.083.704.129 1.475.036 2.205l-.017.121a259.43 259.43 0 0 1-.305 36.093c-1.265 16.757-6.64 26.349-16.126 28.773v3.636Z" fill="#fff"/><path d="M162.587 229.573c-.061 23.807 21.011 40.479 43.943 40.537 16.227.041 31.345-5.786 42.068-9.918 9.338-3.6 13.679-10.743 14.177-6.776.371 3.573 3.836 4.557 8.192 5.794a84.9 84.9 0 0 1 3.286.982c11.778-2.32 20.796-6.218 21.305-15.211.677-8.516-7.174-13.122-17.005-12.055-10.67 1.105-18.129 7.115-24.991 12.644-9.015 7.263-17 13.697-29.88 7.091-24.865-13.167.211-82.994 24.434-75.07 9.616 2.953 5.485 13.987.482 27.351-5.444 14.542-11.921 31.843-2.848 44.499l.876-1.09c.023-9.181 11.051-14.496 22.904-20.21 12.961-6.247 26.909-12.97 28.538-25.743 2.894-21.178-23.294-29.763-50.596-29.177-30.143 1.016-84.779 14.418-84.885 56.352Z" fill="#fff"/><path d="m196.631 221.347.734 65.695c0 8.319 1.53 15.476 4.588 21.471 3.059 5.871 7.769 9.603 14.13 11.193l.153 6.615h-29.911c-7.463 0-14.039-5.269-19.422-10.652-5.382-5.383-8.074-11.806-8.074-19.268 0-15.659.061-27.832.184-36.518-.245-4.282-.673-8.135-1.285-11.561-.489-3.425-1.407-7.156-2.752-11.194-1.224-4.037-3.181-7.401-5.873-10.092-2.569-2.814-5.749-4.711-9.542-5.689v-4.404c21.898-4.405 37.068-12.479 45.51-24.223a20.185 20.185 0 0 1-8.442 1.835c-5.627 0-10.46-1.958-14.497-5.872-3.915-4.037-5.872-8.87-5.872-14.497 0-3.67.918-7.035 2.753-10.093 1.835-3.181 4.281-5.628 7.34-7.34 3.181-1.835 6.606-2.753 10.276-2.753 5.872 0 10.705 2.202 14.497 6.606 3.793 4.282 5.689 9.543 5.689 15.782v40.555h34.835v4.22h-34.835v.184h-.184Z" fill="#fff"/><path d="m199.317 219.691.311 27.84c0 3.525.648 6.558 1.944 9.099 1.296 2.488 3.292 4.069 5.988 4.743v1.711h-12.676c-3.162 0-5.884-1.141-8.165-3.422-2.281-2.281-3.422-5.003-3.422-8.165 0-6.636.026-11.794.078-15.475-.104-1.814-.285-3.447-.544-4.899-.208-1.452-.597-3.033-1.167-4.744-.518-1.711-1.348-3.136-2.488-4.277-1.089-1.192-2.437-1.996-4.044-2.411v-1.866c9.28-1.866 15.708-5.288 19.285-10.265a8.536 8.536 0 0 1-3.577.778c-2.385 0-4.432-.83-6.143-2.489-1.659-1.71-2.489-3.758-2.489-6.143 0-1.555.389-2.981 1.167-4.277.778-1.348 1.814-2.385 3.11-3.111a8.577 8.577 0 0 1 4.355-1.166c2.489 0 4.537.933 6.144 2.799 1.607 1.815 2.41 4.044 2.41 6.688v17.186h8.166v1.789h-8.166v.077h-.077Z" fill="#0123FF"/><path d="M153.26 372.016c.033 2.289.471 4.258 1.313 5.908.841 1.615 2.137 2.642 3.888 3.08v1.111h-8.231c-2.087 0-3.871-.741-5.353-2.222-1.447-1.481-2.171-3.249-2.171-5.302 0-4.309.017-7.659.051-10.049-.27-4.948-1.414-8.18-3.434-9.695-.808-.538-2.171-.925-4.09-1.161a20.273 20.273 0 0 0-5.706 0c-1.852.236-3.047.724-3.585 1.464-.337.404-.438.875-.303 1.414.134.505.505.993 1.111 1.464.942.741 2.07 1.65 3.383 2.727a97.523 97.523 0 0 1 3.383 2.727 96.665 96.665 0 0 0 1.616 1.313c1.649 1.212 2.861 2.676 3.635 4.393.808 1.717 1.145 3.417 1.01 5.1-.134 1.683-.757 3.282-1.868 4.797-1.077 1.481-2.558 2.609-4.444 3.383-2.693 1.077-5.722 1.532-9.089 1.364-3.332-.169-6.009-.892-8.028-2.172-1.246-.774-2.189-1.851-2.828-3.231-.64-1.381-.926-2.727-.859-4.04.068-1.347.539-2.558 1.414-3.636.876-1.111 2.071-1.801 3.585-2.07a5.668 5.668 0 0 1 1.465-.202c1.649 0 3.046.572 4.191 1.717 1.144 1.144 1.717 2.541 1.717 4.191 0 1.616-.573 2.996-1.717 4.141-1.145 1.144-2.542 1.716-4.191 1.716-.169 0-.337-.016-.505-.05.538 1.01 1.346 1.649 2.424 1.919 1.111.269 2.255.235 3.433-.101a6.516 6.516 0 0 0 3.081-2.02c.875-.976 1.312-2.104 1.312-3.383 0-.909-.202-1.801-.606-2.676-.404-.909-.875-1.684-1.413-2.323-.505-.64-1.28-1.347-2.323-2.121-1.044-.808-1.885-1.414-2.525-1.818-.64-.404-1.582-.993-2.828-1.767a2.466 2.466 0 0 0-.252-.152 2.174 2.174 0 0 0-.253-.101.625.625 0 0 0-.252-.151c-1.246-.774-2.272-1.515-3.08-2.222-.775-.741-1.33-1.582-1.667-2.525-.437-1.043-.454-2.222-.05-3.534.437-1.347 1.313-2.492 2.626-3.434.976-.741 2.289-1.246 3.938-1.515a27.398 27.398 0 0 1 5.353-.404c1.885.034 3.77.118 5.655.253 1.885.101 3.77.134 5.656.101 1.918-.068 3.501-.27 4.746-.606 1.212-.27 2.357-.64 3.434-1.111a18.743 18.743 0 0 0 3.131-1.869 8.019 8.019 0 0 0 2.474-2.827 7.867 7.867 0 0 0 .909-3.737 8.223 8.223 0 0 0-1.111-4.191 8.07 8.07 0 0 0-3.03-3.08 8.297 8.297 0 0 0-4.191-1.212 5.915 5.915 0 0 1 2.929 2.272 6.002 6.002 0 0 1 1.161 3.585c0 1.751-.606 3.232-1.818 4.444-1.212 1.212-2.693 1.818-4.443 1.818-1.717 0-3.181-.606-4.393-1.818-1.212-1.212-1.818-2.693-1.818-4.444 0-1.144.286-2.205.858-3.181a6.027 6.027 0 0 1 2.323-2.272 9.81 9.81 0 0 1 5.302-1.515c2.491 0 4.646.825 6.463 2.474 1.852 1.616 2.946 3.653 3.283 6.11.033.404.05.808.05 1.212v10.452h5.353v1.162h-5.353c0 1.481.051 7.524.152 18.128Zm27.702-6.363v-12.927h10.503v13.129c0 .438.017 2.491.051 6.161.033 2.289.471 4.258 1.313 5.908.841 1.615 2.12 2.642 3.837 3.08v1.111h-8.23c-2.054 0-3.821-.741-5.302-2.222-1.448-1.481-2.172-3.249-2.172-5.302v-.505c-.808 1.986-1.75 3.652-2.828 4.999-1.077 1.347-2.171 2.289-3.282 2.828-1.111.538-2.238.757-3.383.656-2.356-.202-4.258-1.464-5.706-3.787-1.414-2.356-2.07-5.285-1.969-8.786-.034-3.299-.101-5.639-.202-7.019-.37-5.285-2.087-8.315-5.151-9.089v-1.111c5.824-.034 11.076-.051 15.755-.051v12.877c0 5.251 1.262 8.214 3.787 8.887.539.135 1.01-.118 1.414-.757.438-.674.757-1.566.959-2.677.202-1.144.354-2.137.455-2.979a21.24 21.24 0 0 0 .151-2.424Zm33.278 16.462h-1.161c-7.137-.27-12.22-2.862-15.25-7.777-2.222-3.568-2.962-7.591-2.222-12.068.606-3.804 2.054-6.632 4.343-8.483 1.279-1.044 2.676-1.565 4.191-1.565 1.784-.034 3.468.471 5.05 1.514 1.582 1.01 2.844 2.525 3.787 4.545 0-2.087-.017-3.434-.051-4.04v-5.756a1237.22 1237.22 0 0 1 15.906 0v1.111c-3.029.774-4.746 3.854-5.15 9.24a82.77 82.77 0 0 0 0 12.927c.404 5.353 2.121 8.416 5.15 9.19v1.162H214.24Zm-6.766-14.896c-.034 2.76.488 5.504 1.565 8.23 1.077 2.693 2.39 4.494 3.939 5.403 0-.606-.017-2.912-.051-6.917v-6.767c0-2.659-.185-4.696-.555-6.11-.37-1.447-.825-2.154-1.363-2.121-.505 0-1.027.337-1.566 1.01-.538.674-1.01 1.7-1.414 3.081a16.116 16.116 0 0 0-.555 4.191Zm37.348 4.797c.371 5.184 2.087 8.18 5.151 8.988v1.111c-7.036.033-14.055.033-21.057 0v-1.111c3.064-.808 4.78-3.804 5.151-8.988a59.986 59.986 0 0 0 0-9.19c-.371-5.185-2.087-8.181-5.151-8.989v-1.111c4.074.977 7.558 1.465 10.453 1.465 2.928-.034 6.463-.522 10.604-1.465v1.111c-3.064.808-4.78 3.804-5.151 8.989a59.986 59.986 0 0 0 0 9.19Zm-9.796-23.38c-1.212-1.245-1.818-2.726-1.818-4.443 0-1.717.606-3.181 1.818-4.393 1.212-1.246 2.676-1.869 4.393-1.869 1.751 0 3.232.623 4.444 1.869 1.212 1.212 1.818 2.676 1.818 4.393 0 1.717-.606 3.198-1.818 4.443-1.212 1.212-2.693 1.818-4.444 1.818-1.717 0-3.181-.606-4.393-1.818Zm43.669 19.29c0 2.289-.421 4.376-1.262 6.261-.842 1.885-1.97 3.434-3.383 4.646a15.843 15.843 0 0 1-4.747 2.726c-1.75.64-3.568.977-5.453 1.01-1.482 0-2.946-.185-4.394-.555a14.633 14.633 0 0 1-4.039-1.869 14.736 14.736 0 0 1-3.282-3.029c-.943-1.179-1.7-2.626-2.273-4.343-.538-1.75-.808-3.636-.808-5.655 0-2.323.421-4.427 1.263-6.312.841-1.919 1.952-3.468 3.332-4.646a16.35 16.35 0 0 1 4.697-2.828 15.065 15.065 0 0 1 5.453-1.009c1.919-.034 3.737.269 5.454.908 1.75.64 3.332 1.583 4.746 2.828 1.414 1.246 2.542 2.895 3.383 4.949.876 2.053 1.313 4.359 1.313 6.918Zm-14.896-14.089c-1.01.068-1.868 1.296-2.575 3.687-.707 2.356-1.077 5.655-1.111 9.897-.034 2.827.135 5.302.505 7.422.37 2.121.825 3.687 1.363 4.696.572.977 1.195 1.482 1.869 1.515.639.034 1.228-.404 1.767-1.313.572-.942 1.043-2.44 1.414-4.494.37-2.087.572-4.561.606-7.422 0-2.256-.101-4.309-.303-6.161-.202-1.851-.488-3.333-.859-4.443-.37-1.145-.791-2.003-1.262-2.576-.471-.606-.943-.875-1.414-.808Z" fill="#fff"/></svg>