<svg width="101" height="101" fill="none" xmlns="http://www.w3.org/2000/svg"><path d="M35.546 69.065H24.521c2.471-5.005 4.119-12.926 4.88-17.741h-.571c-2.091 10.581-7.889 17.741-18.85 17.741-6.083 0-9.98-1.267-9.98-6.146 0-8.807 10.392-11.469 23.38-13.75 7.224-1.33 8.998-3.738 8.491-5.005-.506-1.267-2.85-1.014-5.322.253-3.358 1.711-11.595 6.843-18.502 5.64C-2.154 48.471 0 35.547 5.64 31.555l.444.316c-.444.38-1.077 2.788 2.408 2.788 6.97 0 11.215-3.294 17.868-3.294 5.132 0 8.3 2.724 8.3 7.857 0 5.449-2.788 8.427-5.449 10.454h.507l4.816-.412c-.507 2.155.126 5.608.126 9.093 0 3.232.444 8.617.887 10.708Zm-14.32-8.934c1.838 1.648 5.64-2.534 6.717-9.631-.697.444-1.964 1.394-3.295 2.661-1.837 1.711-5.132 5.386-3.421 6.97ZM52.907 69.035h19.77V53.32c.042-1.267.105-2.45.19-3.548.126-1.099.253-2.05.38-2.852.169-.802.338-1.52.507-2.154.21-.634.422-1.162.633-1.584.211-.422.423-.76.634-1.014.253-.253.486-.422.697-.507.253-.084.507-.105.76-.063 3.717.971 5.238 5.809 4.562 14.51-.507 6.673-2.661 9.45-6.463 10.422v2.504c8.787.042 17.594.042 26.422 0V66.53c-3.843-.972-5.998-3.749-6.463-10.422-.126-1.732-.232-4.69-.316-8.87.168-4.393-.655-8.07-2.471-11.026-1.775-2.956-4.14-4.562-7.097-4.816-2.197-.21-4.372.592-6.526 2.408-2.113 1.816-3.908 4.584-5.386 8.3V40.68a1001.21 1001.21 0 0 0-13.255-.033 3.683 3.683 0 0 1 .008.933c.295 4.821.254 9.644-.123 14.465-.507 6.716-2.661 10.561-6.463 11.532v1.458Z" fill="#000"/><path d="M37.108 30.29c-.024 9.54 8.421 16.223 17.612 16.246 6.504.017 12.563-2.319 16.86-3.975 3.743-1.443 5.483-4.306 5.683-2.716.149 1.433 1.537 1.827 3.283 2.322.422.12.865.246 1.317.394 4.72-.93 8.335-2.492 8.539-6.096.271-3.414-2.875-5.26-6.816-4.832-4.276.443-7.266 2.852-10.016 5.068-3.613 2.91-6.813 5.49-11.975 2.842-9.966-5.278.084-33.264 9.793-30.088 3.853 1.184 2.198 5.606.193 10.962-2.182 5.828-4.778 12.763-1.142 17.835l.351-.437c.01-3.68 4.43-5.81 9.18-8.1 5.195-2.504 10.785-5.198 11.438-10.317 1.16-8.489-9.336-11.929-20.279-11.694-12.08.407-33.978 5.778-34.021 22.585Z" fill="#000"/><path d="m50.753 26.992.294 26.33c0 3.334.613 6.203 1.84 8.606 1.225 2.353 3.113 3.849 5.662 4.486l.062 2.651H46.622c-2.99 0-5.626-2.112-7.783-4.27-2.158-2.156-3.237-4.73-3.237-7.721 0-6.277.025-11.155.074-14.637-.098-1.716-.27-3.26-.515-4.633-.196-1.373-.564-2.869-1.103-4.487-.49-1.618-1.275-2.966-2.354-4.045-1.03-1.128-2.304-1.888-3.824-2.28V25.227c8.777-1.765 14.857-5.001 18.24-9.708a8.086 8.086 0 0 1-3.383.735c-2.256 0-4.193-.784-5.81-2.353-1.57-1.618-2.354-3.555-2.354-5.81 0-1.472.367-2.82 1.103-4.046.735-1.275 1.716-2.255 2.942-2.942A8.104 8.104 0 0 1 42.737 0c2.353 0 4.29.883 5.81 2.648 1.52 1.716 2.28 3.824 2.28 6.325v16.254h13.962v1.692H50.827v.073h-.074Z" fill="#000"/><path d="m51.829 26.329.124 11.158c0 1.413.26 2.628.78 3.646.52.998 1.32 1.631 2.4 1.902v.685h-5.08c-1.268 0-2.359-.457-3.273-1.371-.915-.914-1.372-2.005-1.372-3.273 0-2.66.01-4.727.032-6.202a16.636 16.636 0 0 0-.219-1.964 10.966 10.966 0 0 0-.467-1.9c-.208-.687-.54-1.258-.997-1.715a3.242 3.242 0 0 0-1.621-.966v-.748c3.72-.748 6.296-2.12 7.73-4.114a3.426 3.426 0 0 1-1.434.311 3.413 3.413 0 0 1-2.463-.997 3.412 3.412 0 0 1-.997-2.462c0-.624.156-1.195.468-1.715.311-.54.727-.955 1.246-1.246a3.435 3.435 0 0 1 1.746-.468c.997 0 1.818.374 2.462 1.122.644.727.966 1.621.966 2.68v6.889h3.273v.717H51.86v.03h-.031Z" fill="#FBEFDF"/><path d="M33.237 87.336c.014.917.189 1.706.526 2.368.337.647.857 1.059 1.559 1.234v.445h-3.3a2.924 2.924 0 0 1-2.144-.89 2.935 2.935 0 0 1-.87-2.125c0-1.727.006-3.07.02-4.028-.108-1.983-.567-3.278-1.377-3.885-.324-.216-.87-.371-1.639-.466a8.112 8.112 0 0 0-2.287 0c-.742.095-1.221.29-1.437.587a.608.608 0 0 0-.121.567c.054.202.202.398.445.587.378.296.83.66 1.356 1.093.54.418.992.782 1.356 1.092.378.31.593.486.647.527.662.485 1.147 1.072 1.458 1.76.323.688.458 1.37.404 2.044-.054.675-.303 1.316-.748 1.923-.432.594-1.026 1.046-1.781 1.356-1.08.432-2.294.614-3.643.546-1.336-.067-2.409-.357-3.218-.87-.5-.31-.877-.742-1.134-1.295-.256-.553-.37-1.093-.344-1.62.027-.539.216-1.025.567-1.456.35-.446.83-.722 1.437-.83.202-.054.398-.081.587-.081.661 0 1.221.23 1.68.688.459.459.688 1.019.688 1.68 0 .647-.23 1.2-.688 1.66a2.285 2.285 0 0 1-1.68.688c-.068 0-.135-.007-.202-.02.216.404.54.66.971.768.445.108.904.095 1.376-.04a2.607 2.607 0 0 0 1.235-.81 1.97 1.97 0 0 0 .526-1.356c0-.364-.081-.722-.243-1.072a3.885 3.885 0 0 0-.567-.931c-.202-.257-.512-.54-.93-.85a13.834 13.834 0 0 0-1.013-.729 200.642 200.642 0 0 0-1.234-.769.785.785 0 0 0-.101-.04.254.254 0 0 0-.101-.061c-.5-.31-.911-.607-1.235-.89a2.602 2.602 0 0 1-.668-1.012c-.175-.419-.182-.891-.02-1.417.175-.54.526-.999 1.052-1.376.392-.297.918-.5 1.579-.608.675-.12 1.39-.175 2.145-.161.756.013 1.511.047 2.267.1.755.041 1.511.055 2.267.041.769-.027 1.403-.108 1.902-.243a7.47 7.47 0 0 0 1.376-.445 7.51 7.51 0 0 0 1.255-.749 3.213 3.213 0 0 0 1.356-2.63c0-.608-.148-1.168-.445-1.68a3.235 3.235 0 0 0-1.215-1.235 3.331 3.331 0 0 0-1.68-.486 2.37 2.37 0 0 1 1.174.911c.31.432.466.91.466 1.437 0 .702-.243 1.295-.729 1.78a2.422 2.422 0 0 1-1.78.73 2.399 2.399 0 0 1-1.761-.73 2.422 2.422 0 0 1-.729-1.78c0-.459.115-.884.344-1.275.23-.391.54-.695.931-.91a3.932 3.932 0 0 1 2.125-.608c.998 0 1.862.33 2.59.992a3.84 3.84 0 0 1 1.316 2.449c.014.161.02.323.02.485v4.19h2.145v.465h-2.145c0 .594.02 3.016.061 7.266Zm11.103-2.55v-5.181h4.21v5.262c0 .175.006.998.02 2.469.013.917.189 1.706.526 2.368.337.647.85 1.059 1.538 1.234v.445h-3.299c-.823 0-1.531-.297-2.125-.89a2.935 2.935 0 0 1-.87-2.125v-.203c-.324.796-.702 1.464-1.133 2.004-.432.54-.87.917-1.316 1.133a2.548 2.548 0 0 1-1.356.263c-.944-.08-1.706-.587-2.287-1.517-.566-.945-.83-2.119-.789-3.522-.014-1.322-.04-2.26-.08-2.813-.15-2.118-.837-3.333-2.065-3.643v-.445c2.334-.014 4.439-.02 6.314-.02v5.16c0 2.105.506 3.293 1.518 3.562.216.054.405-.047.567-.303.175-.27.303-.628.384-1.073.081-.459.142-.857.182-1.194.04-.35.061-.675.061-.971Zm13.338 6.597h-.466c-2.86-.108-4.898-1.147-6.112-3.116-.89-1.43-1.187-3.043-.89-4.837.243-1.525.823-2.658 1.74-3.4.513-.419 1.073-.628 1.68-.628.715-.013 1.39.19 2.024.607.634.405 1.14 1.012 1.518 1.822 0-.837-.007-1.376-.02-1.62v-2.306c1.915-.014 4.04-.014 6.374 0v.445c-1.214.31-1.902 1.545-2.064 3.704a33.213 33.213 0 0 0 0 5.18c.162 2.146.85 3.374 2.064 3.684v.465h-5.848Zm-2.712-5.97a8.623 8.623 0 0 0 .627 3.299c.432 1.08.958 1.801 1.579 2.165 0-.242-.007-1.167-.02-2.772v-2.712c0-1.066-.075-1.882-.223-2.45-.149-.58-.33-.863-.547-.85-.202 0-.411.136-.627.406-.216.27-.405.681-.567 1.234a6.456 6.456 0 0 0-.222 1.68Zm14.969 1.923c.148 2.077.836 3.278 2.064 3.602v.445c-2.82.014-5.633.014-8.44 0v-.445c1.228-.324 1.917-1.525 2.065-3.602a23.988 23.988 0 0 0 0-3.684c-.148-2.078-.837-3.278-2.064-3.602v-.445c1.632.39 3.029.587 4.189.587 1.174-.014 2.59-.21 4.25-.587v.445c-1.228.324-1.916 1.525-2.064 3.602a23.988 23.988 0 0 0 0 3.684Zm-3.927-9.37a2.466 2.466 0 0 1-.728-1.782c0-.688.243-1.275.728-1.76a2.366 2.366 0 0 1 1.761-.75c.702 0 1.295.25 1.781.75.486.485.729 1.072.729 1.76 0 .689-.243 1.282-.729 1.781a2.422 2.422 0 0 1-1.78.729 2.398 2.398 0 0 1-1.761-.729Zm17.503 7.73c0 .918-.169 1.754-.506 2.51-.337.755-.79 1.376-1.356 1.862-.567.472-1.201.836-1.903 1.093a6.672 6.672 0 0 1-2.185.404c-.594 0-1.18-.074-1.761-.222a5.866 5.866 0 0 1-1.62-.749 5.919 5.919 0 0 1-1.315-1.214c-.377-.472-.68-1.053-.91-1.74a7.673 7.673 0 0 1-.324-2.267c0-.931.169-1.775.506-2.53.337-.77.782-1.39 1.336-1.862a6.545 6.545 0 0 1 1.882-1.133 6.038 6.038 0 0 1 2.185-.405 5.909 5.909 0 0 1 2.186.364 5.938 5.938 0 0 1 1.903 1.133c.566.5 1.018 1.16 1.356 1.984.35.823.526 1.747.526 2.772Zm-5.97-5.646c-.405.027-.75.52-1.033 1.477-.283.945-.431 2.267-.445 3.967-.013 1.133.054 2.125.203 2.975.148.85.33 1.477.546 1.882.23.391.479.594.749.607.256.014.492-.162.708-.526.23-.378.418-.978.567-1.801.148-.837.23-1.828.243-2.975 0-.904-.04-1.727-.122-2.47-.08-.741-.195-1.335-.344-1.78-.148-.459-.317-.803-.506-1.032-.189-.243-.378-.351-.567-.324Z" fill="#000"/></svg>