<svg xmlns="http://www.w3.org/2000/svg" width="408" height="391" fill="none"><g clip-path="url(#a)"><path fill="#000" d="M0 0h407.689v390.597H0z"/><path fill="#fff" d="m216.926 149.868.511 45.706c0 5.787 1.064 10.766 3.191 14.937 2.128 4.085 5.405 6.681 9.831 7.788v2.808h-20.81c-5.192 0-9.66-1.872-13.405-5.617-3.745-3.745-5.618-8.213-5.618-13.405 0-10.895.043-19.364.128-25.407-.17-2.979-.468-5.66-.894-8.043-.34-2.383-.979-4.979-1.915-7.788-.851-2.808-2.213-5.149-4.085-7.021-1.788-1.958-4.001-3.277-6.639-3.958v-3.064c15.235-3.064 25.789-8.682 31.662-16.853a14.024 14.024 0 0 1-5.873 1.277c-3.915 0-7.277-1.362-10.086-4.085-2.723-2.809-4.085-6.171-4.085-10.086 0-2.554.638-4.894 1.915-7.022 1.277-2.213 2.979-3.915 5.107-5.107a14.074 14.074 0 0 1 7.149-1.915c4.086 0 7.447 1.532 10.086 4.596 2.638 2.979 3.958 6.639 3.958 10.98v28.215h13.405v2.936h-13.405v.128h-.128Z"/><path stroke="#fff" stroke-width=".503" d="M-44.74 241.044h494.655M-27.648 220.936h494.655M-50.772 82.191h494.656M-50.773 102.299h494.655M258.891-12.568V366.72M238.781-12.568V366.72M146.789-12.568V366.72M166.896-12.568V366.72"/></g><defs><clipPath id="a"><path fill="#fff" d="M0 0h407.689v390.597H0z"/></clipPath></defs></svg>