<svg xmlns="http://www.w3.org/2000/svg" width="408" height="391" fill="none"><g clip-path="url(#a)"><path fill="#000" d="M0 0h407.689v390.597H0z"/><path fill="#fff" d="M238.66 213.235h-22.214c4.979-10.085 8.298-21.831 9.83-31.534h-1.149c-4.213 21.321-15.448 39.705-37.535 39.705-12.256 0-20.555-6.511-20.555-16.341 0-17.746 20.938-23.109 47.111-27.705 14.554-2.681 18.129-7.532 17.107-10.086-1.021-2.553-5.745-2.042-10.724.511-6.766 3.447-23.364 13.788-37.279 11.363-20.555-3.192-16.215-29.237-4.852-37.28l.894.639c-.894.766-2.171 5.617 4.851 5.617 14.044 0 22.598-6.639 36.003-6.639 10.341 0 16.725 5.49 16.725 15.831 0 10.98-5.618 16.98-10.98 21.066h12.767c-1.021 4.34-1.787 10.469-1.787 17.49 0 6.512.893 13.15 1.787 17.363Zm-28.853-13.788c3.702 3.32 11.362-5.107 13.533-19.406-1.405.894-3.958 2.809-6.639 5.362-3.702 3.448-10.341 10.852-6.894 14.044Z"/><path stroke="#fff" stroke-width=".503" d="M-44.74 241.044h494.655M-27.648 220.936h494.655M-50.773 120.899h494.656M-50.773 141.006h494.656M258.89-12.567v379.286M238.782-12.567v379.286M146.788-12.567v379.286M166.896-12.567v379.286"/></g><defs><clipPath id="a"><path fill="#fff" d="M0 0h407.689v390.597H0z"/></clipPath></defs></svg>