<svg xmlns="http://www.w3.org/2000/svg" width="408" height="392" fill="none"><g clip-path="url(#a)"><path fill="#000" d="M0 .597h407.689v390.597H0z"/><path fill="#fff" d="M166.896 220.23h31.296V197.183c.061-1.859.151-3.594.272-5.205.182-1.61.364-3.005.545-4.182.242-1.177.485-2.23.727-3.159.302-.929.605-1.704.908-2.324.303-.619.605-1.115.908-1.486.363-.372.696-.62.999-.744a2.183 2.183 0 0 1 1.089-.093c5.328 1.425 7.507 8.52 6.538 21.282-.726 9.788-3.813 13.86-9.262 15.285v3.673c12.592.062 25.214.062 37.866 0v-3.673c-5.508-1.425-8.596-5.497-9.262-15.285-.181-2.54-.333-6.878-.454-13.011.242-6.443-.938-11.834-3.541-16.17-2.543-4.337-5.933-6.691-10.171-7.063-3.148-.31-6.265.868-9.353 3.531-3.027 2.664-5.599 6.723-7.718 12.175v-2.091c-7.359-.054-11.412-.081-18.996-.049.048.414.074.867.021 1.296-.003.024-2.971.048-2.974.072.423 7.072.365 14.145-.175 21.217-.727 9.85-3.814 15.489-9.263 16.914v2.137Z"/><path fill="#fff" d="M145.34 163.506c-.035 13.968 12.329 23.751 25.785 23.785 9.521.024 18.392-3.395 24.684-5.82 5.479-2.111 8.026-6.303 8.319-3.975.217 2.097 2.25 2.674 4.806 3.399.618.176 1.267.36 1.928.576 6.911-1.36 12.203-3.648 12.501-8.924.398-4.997-4.209-7.7-9.978-7.074-6.26.649-10.637 4.175-14.664 7.419-5.289 4.262-9.974 8.037-17.532 4.161-14.59-7.726.124-48.698 14.337-44.049 5.642 1.733 3.219 8.207.283 16.049-3.194 8.532-6.995 18.684-1.671 26.111l.514-.64c.013-5.387 6.484-8.506 13.439-11.859 7.605-3.665 15.789-7.61 16.746-15.105 1.697-12.426-13.669-17.464-29.689-17.12-17.687.596-49.745 8.46-49.808 33.066Z"/><path stroke="#fff" stroke-width=".503" d="M-44.74 241.64h494.655M-27.648 221.533h494.655M-50.773 82.788h494.655M-50.773 102.896h494.655M258.891-11.97v379.285M238.781-11.97v379.285M146.787-11.97v379.285M166.896-11.97v379.285"/></g><defs><clipPath id="a"><path fill="#fff" d="M0 .597h407.689v390.597H0z"/></clipPath></defs></svg>