<svg xmlns="http://www.w3.org/2000/svg" width="614" height="391" fill="none"><g clip-path="url(#a)"><path fill="#000" d="M0 0h614v391H0z"/><path fill="#fff" d="M238.66 213.235h-22.215c4.979-10.085 8.299-21.831 9.831-31.534h-1.149c-4.213 21.321-15.448 39.705-37.535 39.705-12.256 0-20.555-6.511-20.555-16.341 0-17.746 20.938-23.109 47.11-27.705 14.554-2.681 18.129-7.532 17.108-10.086-1.022-2.553-5.745-2.042-10.724.511-6.767 3.447-23.364 13.788-37.28 11.363-20.555-3.192-16.214-29.237-4.851-37.28l.893.639c-.893.766-2.17 5.617 4.852 5.617 14.043 0 22.597-6.639 36.003-6.639 10.341 0 16.724 5.49 16.724 15.831 0 10.98-5.617 16.98-10.979 21.066h12.767c-1.022 4.34-1.788 10.469-1.788 17.49 0 6.512.894 13.15 1.788 17.363Zm-28.854-13.788c3.703 3.32 11.363-5.107 13.533-19.406-1.404.894-3.958 2.809-6.639 5.362-3.702 3.448-10.341 10.852-6.894 14.044Z"/><path stroke="#fff" stroke-width=".503" d="M-45 240.749h651M-22 220.749h650M-51 120.749h703M-51 140.749h703M258.891-12.567v379.286M330-12v379.286M409-12v379.286M350-12v379.286M429-12v379.286M238.781-12.567v379.286M146.787-12.567v379.286M166.896-12.567v379.286"/><path fill="#fff" d="m275.264 131.954.62 55.558c0 7.035 1.294 13.087 3.88 18.157 2.587 4.966 6.57 8.122 11.95 9.467l.129 5.594h-25.296c-6.311 0-11.872-4.457-16.424-9.009-4.552-4.552-6.828-9.984-6.828-16.294 0-13.243.052-23.538.155-30.883-.207-3.621-.569-6.88-1.086-9.777-.414-2.897-1.19-6.052-2.328-9.467-1.035-3.414-2.69-6.259-4.966-8.535-2.173-2.379-4.863-3.983-8.07-4.811v-3.724c18.519-3.725 31.348-10.553 38.487-20.485a17.071 17.071 0 0 1-7.139 1.552c-4.759 0-8.846-1.656-12.26-4.966-3.31-3.414-4.966-7.501-4.966-12.26 0-3.104.776-5.95 2.328-8.536 1.552-2.69 3.621-4.759 6.208-6.207a17.095 17.095 0 0 1 8.69-2.328c4.966 0 9.053 1.862 12.26 5.587 3.207 3.62 4.811 8.07 4.811 13.346V120H330v4.5h-54.581v7.454h-.155Z"/><path fill="#fff" d="M291 221h51.468v-40.04c.099-3.056.249-5.91.448-8.558.298-2.649.597-4.942.896-6.878.398-1.936.796-3.668 1.194-5.196.498-1.529.996-2.802 1.494-3.821.498-1.019.995-1.834 1.493-2.446.597-.611 1.145-1.018 1.643-1.222a3.592 3.592 0 0 1 1.792-.153c8.761 2.343 12.345 14.012 10.752 34.999-1.195 16.097-6.272 22.795-15.232 25.138v7.677c20.708.102 41.465.102 62.273 0v-7.677c-9.059-2.343-14.137-9.041-15.232-25.138-.299-4.177-.548-11.311-.747-21.397.398-10.595-1.543-19.462-5.824-26.593-4.181-7.131-9.757-11.004-16.726-11.615-5.177-.51-10.304 1.427-15.381 5.807-4.978 4.381-9.209 11.056-12.694 20.022v-3.439c-12.101-.087-18.768-.132-31.24-.079.079.681.122 1.426.034 2.131-.005.039-4.885.078-4.89.117a256.696 256.696 0 0 1-.289 34.893c-1.194 16.199-6.272 25.472-15.232 27.816V221Z"/><path fill="#fff" d="M259.099 127.621c-.059 22.972 20.275 39.06 42.404 39.117 15.659.039 30.248-5.583 40.594-9.571 9.012-3.473 13.2-10.366 13.681-6.539.358 3.449 3.702 4.398 7.905 5.591 1.017.289 2.084.592 3.171.948 11.365-2.238 20.068-6 20.559-14.678.653-8.218-6.923-12.663-16.41-11.633-10.296 1.067-17.494 6.866-24.116 12.201-8.699 7.009-16.404 13.217-28.833 6.843-23.994-12.706.204-80.088 23.579-72.44 9.278 2.849 5.292 13.496.464 26.392-5.253 14.033-11.503 30.728-2.748 42.941l.846-1.052c.022-8.859 10.664-13.989 22.102-19.502 12.507-6.029 25.966-12.517 27.538-24.842 2.792-20.436-22.478-28.72-48.824-28.154-29.087.98-81.809 13.913-81.912 54.378Z"/><path fill="#000" d="m290.066 123.531.27 24.249c0 3.071.565 5.713 1.694 7.925 1.129 2.168 2.867 3.545 5.215 4.132v1.49h-11.04c-2.755 0-5.126-.993-7.113-2.98-1.986-1.987-2.98-4.358-2.98-7.112 0-5.78.023-10.273.068-13.479-.09-1.581-.248-3.003-.474-4.268-.181-1.264-.52-2.641-1.016-4.132-.452-1.49-1.174-2.732-2.168-3.725-.948-1.039-2.122-1.738-3.522-2.1v-1.625c8.083-1.626 13.682-4.606 16.798-8.941a7.454 7.454 0 0 1-3.116.677c-2.077 0-3.86-.723-5.351-2.168-1.445-1.49-2.167-3.273-2.167-5.351a7.11 7.11 0 0 1 1.016-3.725c.677-1.174 1.58-2.077 2.709-2.71a7.465 7.465 0 0 1 3.793-1.015c2.168 0 3.952.812 5.351 2.438 1.4 1.581 2.1 3.522 2.1 5.825v14.97h7.112v1.558h-7.112v.067h-.067Z"/></g><defs><clipPath id="a"><path fill="#fff" d="M0 0h614v391H0z"/></clipPath></defs></svg>