<svg width="594" height="408" fill="none" xmlns="http://www.w3.org/2000/svg"><path d="M209.055 407.09h-64.841c14.534-29.439 24.223-76.02 28.694-104.341h-3.354C157.257 364.981 123.16 407.09 58.692 407.09 22.918 407.09 0 399.637 0 370.943c0-51.798 61.114-67.449 137.507-80.864 42.482-7.826 52.916-21.986 49.935-29.439-2.982-7.453-16.77-5.963-31.303 1.49-19.75 10.062-68.194 40.246-108.813 33.166C-12.67 285.98 0 209.96 33.166 186.483l2.608 1.863c-2.608 2.236-6.335 16.397 14.16 16.397 40.992 0 65.959-19.378 105.087-19.378 30.185 0 48.817 16.024 48.817 46.208 0 32.048-16.396 49.562-32.048 61.487h2.982l28.321-2.422c-2.981 12.67.745 32.979.745 53.475 0 19.005 2.609 50.68 5.217 62.977Zm-84.218-52.543c10.807 9.688 33.165-14.906 39.5-56.643-4.099 2.609-11.552 8.199-19.377 15.651-10.807 10.062-30.185 31.675-20.123 40.992ZM311.162 406.911h116.266v-92.417c.248-7.452.621-14.409 1.118-20.868.745-6.458 1.491-12.049 2.236-16.769.993-4.719 1.987-8.944 2.981-12.67 1.242-3.726 2.484-6.832 3.726-9.316 1.243-2.484 2.485-4.472 3.727-5.962 1.491-1.491 2.857-2.485 4.099-2.982 1.491-.496 2.981-.621 4.472-.372 21.862 5.713 30.805 34.164 26.83 85.336-2.981 39.249-15.651 55.579-38.01 61.293v14.727c51.674.248 103.471.248 155.394 0v-14.727c-22.606-5.714-35.276-22.044-38.01-61.293-.745-10.185-1.366-27.579-1.863-52.171.993-25.834-3.851-47.452-14.533-64.84-10.434-17.388-24.347-26.831-41.737-28.322-12.918-1.242-25.712 3.48-38.382 14.161-12.422 10.681-22.98 26.957-31.675 48.817v-8.385c-30.197-.213-46.833-.322-77.954-.193.196 1.661.304 3.477.084 5.197a8.94 8.94 0 0 1-.04.286 611.304 611.304 0 0 1-.719 85.077c-2.981 39.497-15.651 62.108-38.01 67.822v8.571Z" fill="#fff"/><path d="M218.24 179.038c-.142 56.115 49.526 95.413 103.582 95.55 38.248.097 73.884-13.637 99.159-23.379 22.011-8.484 32.243-25.32 33.418-15.971.874 8.423 9.041 10.742 19.309 13.657 2.483.705 5.089 1.445 7.745 2.314 27.762-5.466 49.019-14.655 50.219-35.853 1.595-20.073-16.911-30.932-40.084-28.416-25.15 2.606-42.732 16.772-58.907 29.804-21.249 17.121-40.07 32.285-70.43 16.715-58.611-31.037.497-195.629 57.594-176.95 22.665 6.96 12.929 32.968 1.136 64.47-12.832 34.276-28.1 75.058-6.714 104.89l2.066-2.569c.054-21.641 26.048-34.17 53.989-47.638 30.55-14.726 63.427-30.574 67.268-60.68 6.819-49.92-54.908-70.155-119.263-68.774-71.051 2.394-199.836 33.986-200.087 132.83Z" fill="#fff"/><path d="m298.488 159.65 1.73 154.853c0 19.609 3.605 36.479 10.814 50.609 7.209 13.84 18.311 22.637 33.306 26.386l.361 15.592h-70.506c-17.59 0-33.09-12.421-45.778-25.11-12.688-12.687-19.032-27.827-19.032-45.416 0-36.911.144-65.605.432-86.078-.577-10.093-1.586-19.176-3.028-27.252-1.153-8.073-3.316-16.867-6.488-26.385-2.884-9.515-7.497-17.446-13.842-23.79-6.055-6.632-13.553-11.102-22.492-13.409v-10.381c51.617-10.381 87.375-29.413 107.272-57.097-6.344 2.884-12.976 4.326-19.897 4.326-13.265 0-24.655-4.614-34.172-13.842-9.227-9.516-13.841-20.906-13.841-34.171 0-8.651 2.163-16.581 6.488-23.79 4.326-7.498 10.093-13.265 17.302-17.302C234.615 3.067 242.689.904 251.34.904c13.842 0 25.232 5.19 34.171 15.572 8.94 10.093 13.41 22.493 13.41 37.2v95.593h82.111v9.949h-82.111v.432h-.433Z" fill="#fff"/><path d="m304.816 155.749.733 65.622c0 8.31 1.527 15.459 4.582 21.447 3.055 5.865 7.76 9.593 14.115 11.181v4.033h-29.879c-7.454 0-13.87-2.689-19.246-8.066-5.377-5.376-8.066-11.792-8.066-19.246 0-15.642.061-27.801.184-36.477-.245-4.277-.672-8.127-1.284-11.549-.488-3.421-1.405-7.148-2.749-11.181-1.222-4.032-3.177-7.393-5.866-10.081-2.566-2.811-5.743-4.705-9.531-5.683v-4.399c21.874-4.399 37.027-12.465 45.459-24.196a20.157 20.157 0 0 1-8.432 1.833c-5.622 0-10.449-1.955-14.481-5.865-3.911-4.033-5.866-8.86-5.866-14.481 0-3.666.917-7.027 2.75-10.082 1.833-3.177 4.277-5.621 7.332-7.332a20.197 20.197 0 0 1 10.265-2.75c5.865 0 10.692 2.2 14.48 6.6 3.789 4.276 5.683 9.531 5.683 15.763v40.51h19.247v4.216h-19.247v.183h-.183Z" fill="#000"/></svg>