<svg width="348" height="752" fill="none" xmlns="http://www.w3.org/2000/svg"><g clip-path="url(#a)"><path fill="#fff" d="M.898.255h346.805v750.947H.898z"/><g clip-path="url(#b)"><path fill-rule="evenodd" clip-rule="evenodd" d="M279.33 18.806h.789c.435 0 .788.353.788.789v4.733a.788.788 0 0 1-.788.789h-.789a.789.789 0 0 1-.789-.79v-4.732c0-.436.353-.789.789-.789ZM275.781 20.384h.789a.79.79 0 0 1 .789.789v3.155a.79.79 0 0 1-.789.789h-.789a.789.789 0 0 1-.789-.79v-3.154c0-.436.353-.79.789-.79ZM272.231 21.567h.789c.436 0 .789.354.789.79v1.971a.789.789 0 0 1-.789.789h-.789a.79.79 0 0 1-.789-.789v-1.972a.79.79 0 0 1 .789-.789Z" fill="#FAF9FA"/><path fill-rule="evenodd" clip-rule="evenodd" d="M282.881 17.229h.788c.436 0 .789.353.789.789v6.31a.789.789 0 0 1-.789.79h-.788a.789.789 0 0 1-.789-.79v-6.31c0-.436.353-.789.789-.789Z" fill="#999"/><path fill-rule="evenodd" clip-rule="evenodd" d="M279.33 18.806h.789c.435 0 .788.353.788.789v4.733a.788.788 0 0 1-.788.789h-.789a.789.789 0 0 1-.789-.79v-4.732c0-.436.353-.789.789-.789ZM275.781 20.384h.789a.79.79 0 0 1 .789.789v3.155a.79.79 0 0 1-.789.789h-.789a.789.789 0 0 1-.789-.79v-3.154c0-.436.353-.79.789-.79ZM272.231 21.567h.789c.436 0 .789.354.789.79v1.971a.789.789 0 0 1-.789.789h-.789a.79.79 0 0 1-.789-.789v-1.972a.79.79 0 0 1 .789-.789Z" fill="#000"/><path d="M295.211 22.702c.505 0 .995.133 1.427.385l.175.103c.133.077.156.26.047.368l-1.494 1.49a.235.235 0 0 1-.332 0l-1.485-1.48a.234.234 0 0 1 .046-.368l.173-.103c.436-.259.932-.395 1.443-.395ZM295.211 19.966c1.255 0 2.46.416 3.442 1.187l.138.109c.111.087.121.25.021.35l-.892.89a.236.236 0 0 1-.307.021l-.108-.08a3.834 3.834 0 0 0-2.294-.757c-.836 0-1.64.267-2.305.766l-.109.081a.235.235 0 0 1-.307-.021l-.892-.89a.234.234 0 0 1 .02-.349l.138-.109a5.554 5.554 0 0 1 3.455-1.198Z" fill="#000"/><path d="M295.211 17.229c1.992 0 3.896.703 5.404 1.99l.128.11a.234.234 0 0 1 .014.344l-.889.886a.237.237 0 0 1-.318.014l-.11-.092a6.568 6.568 0 0 0-4.229-1.532c-1.56 0-3.052.543-4.241 1.542l-.11.093a.235.235 0 0 1-.317-.014l-.889-.886a.233.233 0 0 1 .013-.344l.128-.11a8.292 8.292 0 0 1 5.416-2.001ZM323.503 19.595c.436 0 .789.353.789.789v1.578a.789.789 0 0 1-.789.788v-3.155Z" fill="#000"/><path fill-rule="evenodd" clip-rule="evenodd" d="M306.939 16.44h13.409a2.367 2.367 0 0 1 2.367 2.366v4.733a2.367 2.367 0 0 1-2.367 2.367h-13.409a2.367 2.367 0 0 1-2.367-2.367v-4.733a2.367 2.367 0 0 1 2.367-2.366Zm0 .789c-.872 0-1.578.706-1.578 1.577v4.733c0 .871.706 1.578 1.578 1.578h13.409c.872 0 1.578-.707 1.578-1.578v-4.733c0-.87-.706-1.577-1.578-1.577h-13.409Z" fill="#000"/><rect x="306.15" y="18.017" width="14.987" height="6.31" rx=".789" fill="#000"/><path d="M33.546 25.187c2.12 0 3.38-1.658 3.38-4.466 0-1.057-.203-1.947-.59-2.634-.56-1.07-1.525-1.647-2.744-1.647-1.814 0-3.097 1.219-3.097 2.93 0 1.605 1.156 2.772 2.744 2.772.977 0 1.768-.456 2.161-1.248h.098c0 1.907-.722 3.045-1.94 3.045-.717 0-1.272-.393-1.462-1.023H30.61c.248 1.37 1.41 2.271 2.935 2.271Zm.052-4.23c-.96 0-1.641-.68-1.641-1.634 0-.93.716-1.64 1.646-1.64.93 0 1.647.721 1.647 1.663 0 .93-.7 1.612-1.652 1.612ZM39.364 25.106c.549 0 .924-.393.924-.913 0-.526-.375-.913-.924-.913-.543 0-.925.387-.925.913 0 .52.382.913.925.913Zm0-4.333c.549 0 .924-.387.924-.907 0-.526-.375-.913-.924-.913-.543 0-.925.387-.925.913 0 .52.382.907.925.907ZM45.696 24.985h1.427V23.43h1.127v-1.26h-1.127v-5.523H45.02c-1.473 2.218-2.646 4.073-3.397 5.454v1.329h4.073v1.554Zm-2.692-2.866a62.78 62.78 0 0 1 2.634-4.258h.081v4.345h-2.715v-.087ZM51.427 24.985h1.491v-8.337h-1.485l-2.178 1.525v1.433l2.074-1.456h.098v6.835Z" fill="#000"/></g><path d="M24.933 91.174c-1.598 0-2.966-.348-4.106-1.043-1.14-.703-2.016-1.68-2.63-2.93-.607-1.25-.91-2.7-.91-4.35 0-1.65.303-3.1.91-4.35.614-1.25 1.49-2.224 2.63-2.92 1.14-.702 2.508-1.053 4.106-1.053 1.843 0 3.378.462 4.606 1.387 1.228.917 2.09 2.156 2.586 3.718l-2.697.743c-.31-1.043-.84-1.857-1.587-2.441-.747-.592-1.716-.888-2.908-.888-1.073 0-1.968.24-2.685.721-.71.481-1.247 1.158-1.61 2.031-.355.866-.536 1.883-.543 3.052 0 1.169.177 2.19.532 3.063.363.865.903 1.539 1.62 2.02.718.48 1.613.721 2.686.721 1.192 0 2.16-.296 2.908-.888.747-.592 1.276-1.405 1.587-2.441l2.697.743c-.496 1.561-1.358 2.804-2.586 3.73-1.228.916-2.764 1.375-4.606 1.375Zm14.922 0c-1.199 0-2.245-.27-3.14-.81a5.564 5.564 0 0 1-2.087-2.23c-.488-.955-.733-2.05-.733-3.285 0-1.258.252-2.36.755-3.308a5.565 5.565 0 0 1 2.098-2.22c.895-.532 1.93-.798 3.107-.798 1.206 0 2.257.27 3.152.81a5.547 5.547 0 0 1 2.086 2.242c.496.947.744 2.038.744 3.273 0 1.243-.252 2.342-.755 3.297a5.565 5.565 0 0 1-2.086 2.23c-.896.533-1.943.8-3.141.8Zm0-2.508c1.065 0 1.857-.355 2.375-1.065s.777-1.628.777-2.752c0-1.162-.263-2.087-.788-2.775-.526-.695-1.313-1.043-2.364-1.043-.718 0-1.31.163-1.776.488-.458.318-.799.766-1.02 1.343-.223.57-.334 1.232-.334 1.987 0 1.161.263 2.09.788 2.785.533.688 1.314 1.032 2.342 1.032Zm16.717 2.175v-5.77c0-.378-.026-.796-.078-1.255a4.334 4.334 0 0 0-.366-1.32 2.504 2.504 0 0 0-.844-1.054c-.37-.274-.873-.411-1.509-.411-.34 0-.677.055-1.01.166-.333.111-.636.304-.91.578-.266.266-.48.636-.643 1.11-.163.465-.245 1.065-.245 1.797l-1.587-.677c0-1.02.197-1.946.589-2.774.4-.829.984-1.487 1.753-1.976.77-.495 1.716-.743 2.841-.743.888 0 1.62.148 2.197.444.578.296 1.036.673 1.377 1.132.34.458.591.947.754 1.465a7.22 7.22 0 0 1 .31 1.475c.053.46.079.833.079 1.121v6.692h-2.708Zm-8.313 0V78.856h2.387v3.718h.321v8.267H48.26Zm18.544.333c-1.48 0-2.682-.333-3.606-.999-.925-.665-1.488-1.601-1.687-2.807l2.73-.422c.14.592.451 1.058.932 1.398.48.34 1.088.51 1.82.51.644 0 1.14-.125 1.487-.376.355-.26.533-.61.533-1.055 0-.273-.067-.492-.2-.655-.126-.17-.407-.332-.843-.488-.437-.155-1.106-.351-2.01-.588-1.005-.266-1.804-.551-2.396-.855-.592-.31-1.018-.677-1.276-1.098-.26-.422-.389-.933-.389-1.532 0-.747.196-1.398.588-1.953.393-.555.94-.98 1.643-1.276.703-.303 1.531-.455 2.486-.455.932 0 1.757.144 2.475.433.724.288 1.309.699 1.753 1.231.444.533.718 1.158.821 1.876l-2.73.488c-.066-.51-.3-.913-.699-1.21-.392-.295-.917-.462-1.576-.499-.629-.037-1.136.06-1.52.289-.385.222-.577.536-.577.943 0 .23.077.425.233.588.155.163.466.326.932.489.473.162 1.176.362 2.108.599.955.244 1.717.525 2.287.843.577.311.991.685 1.243 1.121.259.437.388.966.388 1.587 0 1.206-.44 2.153-1.32 2.841-.874.688-2.083 1.032-3.63 1.032Zm12.83 0c-1.214 0-2.279-.262-3.197-.788a5.61 5.61 0 0 1-2.152-2.186c-.51-.932-.766-2.005-.766-3.218 0-1.31.251-2.445.754-3.407.504-.97 1.203-1.72 2.098-2.253.895-.533 1.931-.8 3.107-.8 1.243 0 2.298.293 3.163.877.873.578 1.52 1.395 1.942 2.453.422 1.058.581 2.305.478 3.74h-2.653v-.977c-.007-1.302-.237-2.252-.688-2.852-.451-.599-1.161-.899-2.13-.899-1.096 0-1.91.34-2.442 1.021-.533.674-.8 1.661-.8 2.963 0 1.214.267 2.153.8 2.82.532.665 1.31.998 2.33.998.659 0 1.225-.144 1.698-.433.481-.296.851-.721 1.11-1.276l2.641.8c-.458 1.08-1.169 1.919-2.13 2.518a5.83 5.83 0 0 1-3.163.9Zm-4.129-5.582v-2.02h8.246v2.02h-8.246Zm12.254-8.556v-2.453h2.674v2.453h-2.674Zm0 13.805V78.856h2.674V90.84h-2.674Zm6.22 0V74.528h2.675V90.84h-2.675Zm10.627.333c-1.48 0-2.682-.333-3.607-.999-.925-.665-1.487-1.601-1.687-2.807l2.73-.422c.141.592.452 1.058.933 1.398.481.34 1.087.51 1.82.51.643 0 1.139-.125 1.487-.376.355-.26.533-.61.533-1.055 0-.273-.067-.492-.2-.655-.126-.17-.407-.332-.844-.488-.436-.155-1.106-.351-2.008-.588-1.007-.266-1.806-.551-2.397-.855-.592-.31-1.018-.677-1.277-1.098-.259-.422-.388-.933-.388-1.532 0-.747.196-1.398.588-1.953.392-.555.94-.98 1.642-1.276.703-.303 1.532-.455 2.486-.455.933 0 1.758.144 2.475.433.725.288 1.31.699 1.754 1.231.444.533.717 1.158.821 1.876l-2.73.488c-.067-.51-.3-.913-.699-1.21-.392-.295-.918-.462-1.576-.499-.629-.037-1.136.06-1.521.289-.384.222-.577.536-.577.943 0 .23.078.425.233.588.156.163.466.326.933.489.473.162 1.176.362 2.108.599.955.244 1.717.525 2.286.843.577.311.992.685 1.243 1.121.259.437.389.966.389 1.587 0 1.206-.441 2.153-1.321 2.841-.873.688-2.083 1.032-3.629 1.032Z" fill="#333"/><rect x="16.621" y="113.488" width="61.594" height="33.293" rx="7.399" fill="#000"/><g clip-path="url(#c)"><path d="M32.324 134.634v-9.322h5.613v1.56h-4.053v2.324h3.276v1.554h-3.276v3.884h-1.56Zm5.544 0v-1.599h1.6v1.599h-1.6Zm3.026 0 2.94-9.322h2.285l2.939 9.322h-1.606l-2.667-8.364h.35l-2.635 8.364h-1.606Zm1.638-2.02v-1.456h4.894v1.456h-4.894Zm7.955 2.02v-1.599h1.599v1.599h-1.599Zm10.97.194-2.662-2.647.978-.978 2.648 2.648-.965.977Zm-3.354 0c-.932 0-1.73-.202-2.395-.608a4.068 4.068 0 0 1-1.535-1.709c-.354-.729-.53-1.575-.53-2.538 0-.962.176-1.808.53-2.537.358-.73.87-1.297 1.535-1.703.664-.41 1.463-.615 2.395-.615.932 0 1.73.205 2.395.615.669.406 1.18.973 1.534 1.703.359.729.538 1.575.538 2.537 0 .963-.18 1.809-.538 2.538a4.012 4.012 0 0 1-1.534 1.709c-.665.406-1.463.608-2.395.608Zm0-1.469c.626.004 1.146-.134 1.56-.414.419-.281.732-.676.939-1.185.211-.509.317-1.105.317-1.787 0-.682-.106-1.273-.317-1.774a2.535 2.535 0 0 0-.939-1.178c-.414-.28-.934-.425-1.56-.434-.626-.004-1.146.134-1.56.415-.415.28-.728.675-.939 1.184-.207.51-.31 1.105-.31 1.787 0 .682.103 1.276.31 1.78.207.501.518.892.932 1.172.419.281.941.425 1.567.434Z" fill="#fff"/></g><rect x="86.076" y="113.95" width="97.105" height="32.368" rx="6.936" fill="#fff"/><rect x="86.076" y="113.95" width="97.105" height="32.368" rx="6.936" stroke="#C4C4C4" stroke-width=".925"/><path d="M106.774 134.634v-7.859h-3.017v-1.463h7.594v1.463h-3.017v7.859h-1.56Zm4.967 0v-6.991h1.379v1.702l-.168-.22c.086-.233.201-.444.343-.634a1.91 1.91 0 0 1 .524-.479 2.17 2.17 0 0 1 .57-.272 2.56 2.56 0 0 1 .647-.123c.22-.017.434-.009.641.026v1.456a1.998 1.998 0 0 0-.718-.058 1.64 1.64 0 0 0-.725.227 1.622 1.622 0 0 0-.531.446 1.897 1.897 0 0 0-.298.622 2.71 2.71 0 0 0-.097.744v3.554h-1.567Zm6.962.194c-.505 0-.932-.094-1.281-.284a2.021 2.021 0 0 1-.797-.771 2.138 2.138 0 0 1-.265-1.055c0-.337.056-.639.168-.906.112-.272.285-.505.518-.699.233-.199.535-.361.906-.486a8.49 8.49 0 0 1 .984-.246c.38-.073.79-.14 1.23-.201.445-.064.909-.133 1.392-.207l-.557.317c.005-.483-.103-.839-.323-1.068-.22-.228-.591-.343-1.114-.343-.315 0-.619.074-.912.22-.294.147-.499.399-.615.758l-1.425-.447a2.65 2.65 0 0 1 .984-1.424c.488-.358 1.144-.538 1.968-.538.622 0 1.168.102 1.638.305a2.03 2.03 0 0 1 1.055.997c.126.246.201.498.227.757.026.255.039.533.039.835v4.292h-1.366v-1.515l.226.246c-.315.505-.684.877-1.107 1.114-.418.233-.943.349-1.573.349Zm.311-1.242c.354 0 .656-.063.906-.188.251-.125.449-.279.596-.46.151-.181.252-.352.304-.511a1.93 1.93 0 0 0 .136-.68c.013-.259.02-.468.02-.628l.479.142c-.471.074-.874.139-1.211.195-.337.056-.626.11-.867.162a5.481 5.481 0 0 0-.641.161 1.992 1.992 0 0 0-.46.227 1.003 1.003 0 0 0-.291.298.774.774 0 0 0-.097.395c0 .172.043.325.129.459a.9.9 0 0 0 .376.311c.168.078.375.117.621.117Zm10.03 1.048v-3.366c0-.22-.015-.464-.045-.732a2.56 2.56 0 0 0-.214-.77 1.466 1.466 0 0 0-.492-.615c-.216-.16-.509-.239-.88-.239a1.84 1.84 0 0 0-.589.097 1.34 1.34 0 0 0-.531.336 1.661 1.661 0 0 0-.376.648c-.095.272-.142.621-.142 1.048l-.926-.395c0-.595.114-1.135.343-1.618a2.755 2.755 0 0 1 1.023-1.152c.449-.289 1.001-.434 1.657-.434.518 0 .945.086 1.282.259.337.173.604.393.803.66.198.268.345.553.44.855.095.302.155.589.181.861.03.267.046.485.046.654v3.903h-1.58Zm-4.849 0v-6.991h1.392v2.168h.188v4.823h-1.58Zm10.817.194c-.863 0-1.564-.194-2.103-.582-.54-.389-.868-.935-.984-1.638l1.592-.246c.082.345.263.617.544.816.28.198.634.297 1.062.297.375 0 .664-.073.867-.22a.722.722 0 0 0 .311-.615.585.585 0 0 0-.117-.382c-.073-.099-.237-.194-.492-.284a15.676 15.676 0 0 0-1.172-.344c-.586-.155-1.053-.321-1.398-.498-.345-.181-.593-.395-.744-.641-.151-.246-.227-.544-.227-.893 0-.436.114-.816.343-1.14.229-.323.548-.571.958-.744.41-.177.894-.266 1.45-.266.544 0 1.025.085 1.444.253.423.168.764.408 1.023.719.259.31.419.675.479 1.094l-1.593.284a.998.998 0 0 0-.407-.705c-.229-.173-.536-.27-.92-.292-.367-.021-.662.035-.887.169-.224.129-.336.313-.336.55 0 .134.045.248.136.343.09.095.272.19.544.285.276.095.686.211 1.23.35.556.142 1.001.306 1.333.492.337.181.578.399.725.653.151.255.227.564.227.926 0 .704-.257 1.256-.771 1.657-.509.402-1.215.602-2.117.602Zm7.665 0c-.681 0-1.253-.161-1.715-.485a2.971 2.971 0 0 1-1.042-1.321c-.233-.561-.35-1.189-.35-1.884 0-.703.117-1.333.35-1.89.233-.557.574-.995 1.023-1.314.453-.324 1.012-.486 1.676-.486.661 0 1.232.162 1.716.486.487.319.865.757 1.133 1.314.267.553.401 1.183.401 1.89 0 .7-.132 1.328-.395 1.884a3.213 3.213 0 0 1-1.113 1.321c-.479.324-1.04.485-1.684.485Zm-3.372 2.914v-10.099h1.379v4.907h.194v5.192h-1.573Zm3.133-4.312c.406 0 .74-.101 1.003-.304.264-.203.458-.477.583-.822.129-.35.194-.738.194-1.166 0-.422-.065-.807-.194-1.152a1.765 1.765 0 0 0-.602-.828c-.272-.208-.617-.311-1.036-.311-.397 0-.721.097-.971.291-.25.19-.436.458-.557.803a3.72 3.72 0 0 0-.174 1.197c0 .454.058.853.174 1.198.121.345.309.615.564.809.259.19.597.285 1.016.285Zm7.946 1.398c-.699 0-1.31-.157-1.832-.472a3.248 3.248 0 0 1-1.217-1.301c-.285-.557-.427-1.196-.427-1.917 0-.733.146-1.376.44-1.929a3.239 3.239 0 0 1 1.223-1.294c.522-.311 1.127-.467 1.813-.467.703 0 1.316.158 1.838.473.523.315.928.751 1.217 1.308.29.552.434 1.189.434 1.909 0 .726-.147 1.366-.44 1.923a3.242 3.242 0 0 1-1.217 1.301c-.522.311-1.133.466-1.832.466Zm0-1.463c.621 0 1.083-.207 1.385-.621.302-.414.453-.95.453-1.606 0-.677-.153-1.217-.459-1.618-.307-.406-.766-.608-1.379-.608-.419 0-.764.094-1.036.284a1.641 1.641 0 0 0-.595.784c-.13.332-.195.718-.195 1.158 0 .678.154 1.22.46 1.625.311.402.766.602 1.366.602Zm4.916 1.269v-6.991h1.378v1.702l-.168-.22c.086-.233.201-.444.343-.634.147-.194.322-.354.525-.479a2.15 2.15 0 0 1 .569-.272c.212-.069.428-.11.648-.123.22-.017.433-.009.641.026v1.456a2.006 2.006 0 0 0-.719-.058 1.644 1.644 0 0 0-.725.227 1.622 1.622 0 0 0-.531.446 1.897 1.897 0 0 0-.298.622 2.75 2.75 0 0 0-.097.744v3.554H155.3Zm9.269 0a6.33 6.33 0 0 1-1.36.11 3.1 3.1 0 0 1-1.184-.239 1.645 1.645 0 0 1-.797-.732 2.095 2.095 0 0 1-.252-.925 38.037 38.037 0 0 1-.013-1.069v-6.078h1.554v5.988c0 .28.002.526.006.738.009.211.054.384.136.518.155.259.404.403.745.433.34.031.729.013 1.165-.051v1.307Zm-4.875-5.768v-1.223h4.875v1.223h-4.875Z" fill="#C4C4C4"/><rect x="191.504" y="113.95" width="89.669" height="32.368" rx="6.936" fill="#fff"/><rect x="191.504" y="113.95" width="89.669" height="32.368" rx="6.936" stroke="#C4C4C4" stroke-width=".925"/><g clip-path="url(#d)"><path d="M211.465 135.856c-.848 0-1.596-.172-2.242-.518a3.798 3.798 0 0 1-1.509-1.457c-.36-.627-.54-1.361-.54-2.205v-6.681l1.805-.015v6.652c0 .399.067.757.2 1.072.138.316.323.585.555.807.231.217.498.382.799.496.301.113.611.17.932.17.33 0 .644-.057.94-.17.3-.119.567-.286.799-.503.231-.222.414-.491.547-.807.133-.316.2-.671.2-1.065v-6.652h1.805v6.696c0 .844-.182 1.578-.547 2.205a3.743 3.743 0 0 1-1.51 1.457c-.641.346-1.386.518-2.234.518Zm6.359-.222v-7.99h1.575v1.946l-.192-.252c.099-.266.229-.508.392-.725.168-.222.368-.404.599-.547.198-.134.415-.237.652-.311.241-.079.488-.126.739-.141.252-.019.496-.01.733.03v1.665a2.281 2.281 0 0 0-.821-.067 1.887 1.887 0 0 0-.829.259 1.86 1.86 0 0 0-.607.51 2.158 2.158 0 0 0-.34.711 3.112 3.112 0 0 0-.111.851v4.061h-1.79Zm8.98 3.774c-.444 0-.871-.07-1.28-.208a3.577 3.577 0 0 1-1.095-.599 3.145 3.145 0 0 1-.799-.932l1.642-.814c.153.291.368.506.644.644.281.143.579.214.895.214.37 0 .7-.066.991-.2.291-.128.516-.32.674-.577.162-.251.239-.567.229-.947v-2.271h.222v-6.074h1.561v8.375c0 .202-.01.395-.03.577-.014.188-.041.37-.081.548-.118.517-.345.942-.681 1.272a3.076 3.076 0 0 1-1.25.747 5.212 5.212 0 0 1-1.642.245Zm-.156-3.552c-.735 0-1.376-.185-1.923-.555a3.672 3.672 0 0 1-1.273-1.509c-.301-.636-.451-1.354-.451-2.153 0-.809.15-1.529.451-2.16a3.626 3.626 0 0 1 1.295-1.502c.557-.37 1.213-.555 1.968-.555.759 0 1.396.185 1.909.555.518.365.91.865 1.176 1.502.266.636.4 1.356.4 2.16 0 .794-.134 1.512-.4 2.153a3.394 3.394 0 0 1-1.191 1.509c-.528.37-1.181.555-1.961.555Zm.274-1.598c.478 0 .863-.108 1.154-.325.296-.222.511-.531.644-.925.138-.395.207-.851.207-1.369 0-.523-.069-.979-.207-1.369-.133-.394-.343-.7-.629-.917-.286-.222-.656-.333-1.11-.333-.478 0-.873.118-1.184.355-.31.232-.54.548-.688.947a3.729 3.729 0 0 0-.222 1.317c0 .488.072.932.215 1.332.148.394.372.708.673.939.301.232.683.348 1.147.348Zm9.273 1.598c-.808 0-1.519-.175-2.13-.525a3.741 3.741 0 0 1-1.436-1.458c-.34-.621-.51-1.336-.51-2.145 0-.873.168-1.63.503-2.271a3.665 3.665 0 0 1 1.398-1.502c.597-.355 1.288-.533 2.072-.533.828 0 1.531.195 2.108.584.582.385 1.014.93 1.295 1.635.281.706.387 1.537.318 2.494h-1.768v-.651c-.005-.868-.158-1.502-.459-1.902-.301-.399-.774-.599-1.42-.599-.73 0-1.273.227-1.628.681-.355.449-.533 1.107-.533 1.975 0 .809.178 1.435.533 1.879.355.444.873.666 1.554.666.439 0 .816-.096 1.132-.288.32-.198.567-.481.74-.851l1.76.532a3.564 3.564 0 0 1-1.42 1.68 3.89 3.89 0 0 1-2.109.599Zm-2.752-3.721v-1.347h5.497v1.347h-5.497Zm13.331 3.499v-3.847c0-.251-.017-.53-.052-.836a2.876 2.876 0 0 0-.244-.88 1.668 1.668 0 0 0-.562-.703c-.247-.183-.582-.274-1.006-.274a2.12 2.12 0 0 0-.674.111 1.535 1.535 0 0 0-.606.385c-.178.177-.321.424-.429.74-.109.31-.163.71-.163 1.198l-1.058-.451c0-.681.13-1.297.392-1.85a3.15 3.15 0 0 1 1.169-1.317c.513-.33 1.144-.495 1.894-.495.592 0 1.08.098 1.465.295a2.6 2.6 0 0 1 .917.755c.227.306.395.631.503.977.109.345.178.673.207.984.035.306.052.555.052.747v4.461h-1.805Zm-5.541 0v-7.99h1.59v2.478h.215v5.512h-1.805Zm12.617.222c-.824 0-1.527-.182-2.109-.547a3.645 3.645 0 0 1-1.339-1.51c-.306-.636-.461-1.356-.466-2.16.005-.819.165-1.544.481-2.175a3.627 3.627 0 0 1 1.361-1.495c.587-.365 1.285-.547 2.094-.547.907 0 1.674.229 2.301.688.631.454 1.043 1.075 1.235 1.864l-1.775.481c-.138-.429-.368-.762-.688-.998a1.772 1.772 0 0 0-1.095-.363c-.464 0-.846.111-1.147.333a1.89 1.89 0 0 0-.666.903 3.736 3.736 0 0 0-.214 1.309c0 .76.17 1.374.51 1.842.34.469.846.703 1.517.703.473 0 .846-.108 1.117-.325.276-.217.483-.531.621-.94l1.82.407c-.246.814-.678 1.44-1.294 1.879-.617.434-1.372.651-2.264.651Zm8.457 0c-.809 0-1.519-.175-2.131-.525a3.739 3.739 0 0 1-1.435-1.458c-.341-.621-.511-1.336-.511-2.145 0-.873.168-1.63.503-2.271a3.674 3.674 0 0 1 1.399-1.502c.597-.355 1.287-.533 2.071-.533.829 0 1.532.195 2.109.584.582.385 1.013.93 1.295 1.635.281.706.387 1.537.318 2.494h-1.768v-.651c-.005-.868-.158-1.502-.459-1.902-.301-.399-.775-.599-1.421-.599-.73 0-1.272.227-1.627.681-.355.449-.533 1.107-.533 1.975 0 .809.178 1.435.533 1.879.355.444.873.666 1.553.666.439 0 .817-.096 1.132-.288.321-.198.568-.481.74-.851l1.761.532a3.566 3.566 0 0 1-1.421 1.68 3.889 3.889 0 0 1-2.108.599Zm-2.752-3.721v-1.347h5.497v1.347h-5.497Z" fill="#C4C4C4"/></g><path stroke="#000" stroke-width=".675" d="M25.745 161.916h298.039v109.377H25.745z"/><path d="m25.407 161.578 298.715 110.053V161.578L25.407 271.631V161.578Z" stroke="#000" stroke-width=".675"/><path d="M40.657 233.645c-1.331 0-2.472-.29-3.421-.869-.95-.586-1.68-1.4-2.192-2.442-.506-1.042-.759-2.25-.759-3.625s.253-2.583.759-3.625c.511-1.042 1.242-1.853 2.192-2.432.949-.586 2.09-.879 3.421-.879 1.536 0 2.815.385 3.838 1.156 1.024.764 1.742 1.797 2.155 3.098l-2.247.62c-.26-.87-.7-1.548-1.323-2.035-.622-.493-1.43-.74-2.423-.74-.894 0-1.64.201-2.238.601-.592.401-1.039.965-1.34 1.693-.297.721-.448 1.569-.454 2.543 0 .974.148 1.825.444 2.553.302.721.752 1.282 1.35 1.683.598.4 1.344.601 2.238.601.993 0 1.8-.247 2.423-.74s1.064-1.171 1.323-2.035l2.247.62c-.413 1.301-1.131 2.337-2.155 3.107-1.023.765-2.302 1.147-3.838 1.147Zm12.435 0c-.999 0-1.871-.225-2.617-.675a4.638 4.638 0 0 1-1.739-1.859c-.407-.795-.61-1.708-.61-2.737 0-1.048.21-1.967.629-2.756a4.64 4.64 0 0 1 1.747-1.85c.746-.444 1.61-.666 2.59-.666 1.005 0 1.88.225 2.627.675a4.624 4.624 0 0 1 1.738 1.868c.413.79.62 1.699.62 2.729 0 1.035-.21 1.951-.63 2.746a4.632 4.632 0 0 1-1.738 1.859c-.746.444-1.618.666-2.617.666Zm0-2.09c.888 0 1.547-.296 1.98-.888.43-.592.646-1.356.646-2.293 0-.968-.218-1.739-.656-2.312-.438-.58-1.094-.87-1.97-.87-.598 0-1.091.136-1.48.407-.382.265-.666.638-.85 1.119-.185.475-.278 1.027-.278 1.656 0 .968.219 1.741.657 2.321.444.573 1.094.86 1.951.86Zm19.017 1.813v-6.067c0-.684-.17-1.218-.508-1.6-.34-.388-.799-.583-1.379-.583-.357 0-.678.084-.961.25-.284.16-.509.401-.675.721-.167.315-.25.691-.25 1.129l-.99-.583c-.006-.69.148-1.298.463-1.822a3.38 3.38 0 0 1 1.294-1.239 3.722 3.722 0 0 1 1.813-.444c1.104 0 1.948.333 2.534.999.592.66.888 1.529.888 2.608v6.631h-2.229Zm-12.013 0v-9.988h1.97v3.098h.277v6.89h-2.247Zm6.02 0v-6.039c0-.697-.17-1.24-.508-1.628-.34-.388-.802-.583-1.388-.583-.567 0-1.023.195-1.368.583-.34.388-.509.894-.509 1.517l-.999-.666c0-.648.16-1.23.481-1.748.32-.518.752-.925 1.295-1.221a3.753 3.753 0 0 1 1.84-.453c.746 0 1.37.16 1.869.481.505.314.881.746 1.128 1.295.253.542.379 1.156.379 1.84v6.622h-2.22Zm22.629 0v-6.067c0-.684-.17-1.218-.509-1.6-.339-.388-.798-.583-1.378-.583-.357 0-.678.084-.962.25-.283.16-.508.401-.675.721-.166.315-.25.691-.25 1.129l-.989-.583c-.006-.69.148-1.298.463-1.822a3.38 3.38 0 0 1 1.294-1.239 3.722 3.722 0 0 1 1.813-.444c1.103 0 1.948.333 2.534.999.592.66.888 1.529.888 2.608v6.631h-2.23Zm-12.013 0v-9.988h1.97v3.098h.277v6.89h-2.247Zm6.02 0v-6.039c0-.697-.17-1.24-.508-1.628-.34-.388-.802-.583-1.388-.583-.567 0-1.023.195-1.368.583-.34.388-.51.894-.51 1.517l-.998-.666c0-.648.16-1.23.481-1.748.32-.518.752-.925 1.295-1.221a3.752 3.752 0 0 1 1.84-.453c.746 0 1.369.16 1.868.481.506.314.882.746 1.129 1.295.252.542.379 1.156.379 1.84v6.622h-2.22Zm15.012.277c-1.011 0-1.899-.219-2.663-.656a4.683 4.683 0 0 1-1.794-1.822c-.426-.777-.639-1.671-.639-2.682 0-1.092.21-2.038.63-2.84a4.598 4.598 0 0 1 1.747-1.877c.746-.444 1.61-.666 2.59-.666 1.035 0 1.914.244 2.635.731.728.481 1.267 1.162 1.619 2.044.351.881.484 1.92.397 3.116h-2.21v-.814c-.006-1.085-.197-1.877-.573-2.376-.376-.5-.968-.749-1.776-.749-.912 0-1.59.283-2.034.85-.444.561-.666 1.385-.666 2.47 0 1.011.222 1.794.666 2.349.444.555 1.09.832 1.942.832.548 0 1.02-.12 1.415-.361.4-.246.709-.601.925-1.063l2.201.666c-.383.9-.975 1.6-1.776 2.099a4.861 4.861 0 0 1-2.636.749Zm-3.44-4.652v-1.683h6.871v1.683h-6.871Zm16.663 4.375v-4.809c0-.315-.021-.663-.064-1.045a3.62 3.62 0 0 0-.306-1.101 2.082 2.082 0 0 0-.702-.878c-.309-.229-.728-.343-1.258-.343-.284 0-.564.047-.842.139a1.94 1.94 0 0 0-.758.481c-.222.222-.401.53-.536.925-.136.388-.204.888-.204 1.498l-1.322-.564c0-.851.163-1.622.49-2.312a3.933 3.933 0 0 1 1.461-1.646c.641-.413 1.43-.62 2.367-.62.74 0 1.351.123 1.832.37a3.23 3.23 0 0 1 1.146.943c.284.383.494.789.629 1.221.136.432.222.842.259 1.23.043.382.065.694.065.934v5.577h-2.257Zm-6.926 0v-9.988h1.988v3.098h.268v6.89h-2.256Zm17.45 0a9.153 9.153 0 0 1-1.942.157c-.629-.012-1.193-.126-1.692-.342a2.348 2.348 0 0 1-1.138-1.045 2.979 2.979 0 0 1-.36-1.323c-.013-.45-.019-.959-.019-1.526v-8.684h2.22v8.555c0 .401.003.752.009 1.054.012.302.077.549.194.74.222.37.577.576 1.064.62a7.172 7.172 0 0 0 1.664-.074v1.868Zm-6.964-8.24v-1.748h6.964v1.748h-6.964Zm16.671 8.517c-1.233 0-2.235-.277-3.005-.832-.771-.555-1.24-1.335-1.406-2.34l2.275-.351c.117.493.376.881.777 1.165.401.283.906.425 1.517.425.536 0 .949-.105 1.239-.314.296-.216.444-.509.444-.879 0-.228-.056-.41-.167-.545-.105-.142-.339-.278-.703-.407a21.86 21.86 0 0 0-1.673-.49c-.839-.222-1.505-.46-1.998-.713-.493-.259-.848-.564-1.064-.915-.215-.352-.323-.777-.323-1.276 0-.623.163-1.166.49-1.628.327-.462.783-.817 1.369-1.064.585-.252 1.276-.379 2.071-.379.777 0 1.464.12 2.062.361.605.24 1.092.583 1.462 1.026.37.444.598.965.684 1.563l-2.275.407a1.432 1.432 0 0 0-.583-1.008c-.326-.246-.764-.385-1.313-.416-.524-.031-.946.049-1.267.241-.32.185-.481.447-.481.786 0 .191.065.354.194.49.13.135.389.271.777.407.395.135.981.302 1.757.499.796.204 1.431.438 1.906.703.48.259.826.57 1.035.934.216.364.324.805.324 1.323 0 1.004-.367 1.794-1.1 2.367-.728.573-1.736.86-3.025.86Zm10.691 0c-1.011 0-1.898-.219-2.663-.656a4.683 4.683 0 0 1-1.794-1.822c-.426-.777-.638-1.671-.638-2.682 0-1.092.209-2.038.629-2.84a4.596 4.596 0 0 1 1.748-1.877c.746-.444 1.609-.666 2.589-.666 1.036 0 1.914.244 2.636.731.727.481 1.267 1.162 1.618 2.044.352.881.484 1.92.398 3.116h-2.21v-.814c-.007-1.085-.198-1.877-.574-2.376-.376-.5-.968-.749-1.776-.749-.912 0-1.59.283-2.034.85-.444.561-.666 1.385-.666 2.47 0 1.011.222 1.794.666 2.349.444.555 1.091.832 1.942.832.549 0 1.02-.12 1.415-.361.401-.246.709-.601.925-1.063l2.201.666c-.382.9-.974 1.6-1.776 2.099a4.86 4.86 0 0 1-2.636.749Zm-3.44-4.652v-1.683h6.872v1.683h-6.872Zm13.729 4.375v-9.988h1.97v2.432l-.24-.314c.123-.333.286-.636.49-.907.209-.277.459-.505.749-.684.246-.167.518-.296.814-.389.302-.098.61-.157.924-.175.315-.025.62-.013.916.037v2.081a2.84 2.84 0 0 0-1.027-.084 2.35 2.35 0 0 0-1.035.324 2.324 2.324 0 0 0-.759.638 2.686 2.686 0 0 0-.425.888 3.871 3.871 0 0 0-.139 1.063v5.078h-2.238Zm11.748.277c-1.011 0-1.899-.219-2.663-.656a4.685 4.685 0 0 1-1.795-1.822c-.425-.777-.638-1.671-.638-2.682 0-1.092.21-2.038.629-2.84a4.596 4.596 0 0 1 1.748-1.877c.746-.444 1.609-.666 2.59-.666 1.035 0 1.914.244 2.635.731.728.481 1.267 1.162 1.619 2.044.351.881.484 1.92.397 3.116h-2.21v-.814c-.006-1.085-.197-1.877-.573-2.376-.376-.5-.968-.749-1.776-.749-.912 0-1.591.283-2.035.85-.443.561-.665 1.385-.665 2.47 0 1.011.222 1.794.665 2.349.444.555 1.092.832 1.943.832.548 0 1.02-.12 1.415-.361.4-.246.709-.601.924-1.063l2.201.666c-.382.9-.974 1.6-1.775 2.099a4.863 4.863 0 0 1-2.636.749Zm-3.44-4.652v-1.683h6.871v1.683h-6.871Zm16.663 4.375v-4.809c0-.315-.021-.663-.064-1.045a3.62 3.62 0 0 0-.306-1.101 2.077 2.077 0 0 0-.703-.878c-.308-.229-.727-.343-1.257-.343-.284 0-.564.047-.842.139a1.94 1.94 0 0 0-.758.481c-.222.222-.401.53-.537.925-.135.388-.203.888-.203 1.498l-1.323-.564c0-.851.164-1.622.491-2.312a3.933 3.933 0 0 1 1.461-1.646c.641-.413 1.43-.62 2.367-.62.74 0 1.351.123 1.831.37.481.247.864.561 1.147.943.284.383.493.789.629 1.221.136.432.222.842.259 1.23.043.382.065.694.065.934v5.577h-2.257Zm-6.927 0v-9.988h1.989v3.098h.268v6.89h-2.257Zm15.439.277c-.919 0-1.72-.231-2.405-.693-.684-.463-1.214-1.092-1.59-1.887-.376-.795-.564-1.693-.564-2.691 0-1.011.188-1.912.564-2.701.382-.795.922-1.421 1.618-1.877.697-.463 1.517-.694 2.46-.694.95 0 1.745.231 2.386.694.648.456 1.138 1.082 1.471 1.877.333.796.499 1.696.499 2.701 0 .992-.166 1.889-.499 2.691-.333.795-.83 1.424-1.489 1.887-.66.462-1.477.693-2.451.693Zm.342-1.997c.598 0 1.079-.136 1.443-.407.37-.278.638-.663.804-1.156.173-.494.259-1.064.259-1.711 0-.654-.086-1.224-.259-1.711-.166-.493-.428-.876-.786-1.147-.357-.277-.82-.416-1.387-.416-.598 0-1.091.148-1.48.444-.388.29-.675.684-.86 1.184a4.652 4.652 0 0 0-.277 1.646c0 .61.089 1.165.268 1.664.185.494.466.885.842 1.175.376.29.854.435 1.433.435Zm2.506 1.72v-7.01h-.277v-6.308h2.247v13.318h-1.97Zm4.563 0v-9.988h1.97v2.432l-.24-.314c.123-.333.286-.636.49-.907.209-.277.459-.505.749-.684.246-.167.518-.296.814-.389.302-.098.61-.157.924-.175.315-.025.62-.013.916.037v2.081a2.837 2.837 0 0 0-1.026-.084 2.35 2.35 0 0 0-1.036.324 2.324 2.324 0 0 0-.759.638 2.686 2.686 0 0 0-.425.888 3.871 3.871 0 0 0-.139 1.063v5.078h-2.238Zm11.748.277c-1.011 0-1.899-.219-2.663-.656a4.685 4.685 0 0 1-1.795-1.822c-.425-.777-.638-1.671-.638-2.682 0-1.092.21-2.038.629-2.84a4.596 4.596 0 0 1 1.748-1.877c.746-.444 1.609-.666 2.59-.666 1.035 0 1.914.244 2.635.731.728.481 1.267 1.162 1.619 2.044.351.881.484 1.92.397 3.116h-2.21v-.814c-.006-1.085-.197-1.877-.573-2.376-.376-.5-.968-.749-1.776-.749-.912 0-1.591.283-2.035.85-.443.561-.665 1.385-.665 2.47 0 1.011.222 1.794.665 2.349.444.555 1.092.832 1.943.832.548 0 1.02-.12 1.415-.361.4-.246.709-.601.924-1.063l2.201.666c-.382.9-.974 1.6-1.775 2.099a4.863 4.863 0 0 1-2.636.749Zm-3.44-4.652v-1.683h6.871v1.683H201.4Zm17.733 4.652c-.918 0-1.72-.231-2.404-.693-.685-.463-1.215-1.092-1.591-1.887-.376-.795-.564-1.693-.564-2.691 0-1.011.188-1.912.564-2.701.382-.795.922-1.421 1.618-1.877.697-.463 1.517-.694 2.46-.694.95 0 1.745.231 2.386.694.648.456 1.138 1.082 1.471 1.877.333.796.499 1.696.499 2.701 0 .992-.166 1.889-.499 2.691-.333.795-.829 1.424-1.489 1.887-.66.462-1.477.693-2.451.693Zm.342-1.997c.598 0 1.079-.136 1.443-.407.37-.278.638-.663.805-1.156.172-.494.259-1.064.259-1.711 0-.654-.087-1.224-.259-1.711-.167-.493-.429-.876-.786-1.147-.358-.277-.82-.416-1.388-.416-.598 0-1.091.148-1.479.444-.389.29-.675.684-.86 1.184a4.652 4.652 0 0 0-.278 1.646c0 .61.09 1.165.268 1.664.185.494.466.885.842 1.175.376.29.854.435 1.433.435Zm2.507 1.72v-7.01h-.278v-6.308h2.247v13.318h-1.969Zm7.355.277c-.721 0-1.331-.136-1.831-.407a2.877 2.877 0 0 1-1.137-1.1 3.06 3.06 0 0 1-.38-1.508c0-.481.081-.912.241-1.295.16-.388.407-.721.74-.998.333-.284.764-.515 1.295-.694.4-.129.869-.247 1.405-.351a32.52 32.52 0 0 1 1.757-.287c.635-.093 1.298-.191 1.989-.296l-.796.453c.007-.69-.148-1.199-.462-1.526-.314-.327-.845-.49-1.591-.49-.45 0-.884.105-1.304.315-.419.209-.712.57-.878 1.082l-2.035-.639a3.782 3.782 0 0 1 1.406-2.034c.697-.512 1.634-.768 2.811-.768.888 0 1.668.145 2.34.435.678.29 1.181.764 1.508 1.424.178.352.286.712.323 1.082.037.364.056.762.056 1.193v6.132h-1.952v-2.164l.324.351c-.45.721-.977 1.252-1.581 1.591-.598.333-1.348.499-2.248.499Zm.444-1.776c.506 0 .937-.089 1.295-.268.358-.179.641-.397.851-.656.216-.259.36-.503.434-.731.118-.284.182-.607.195-.971.018-.37.027-.669.027-.897l.685.203c-.672.105-1.249.198-1.73.278-.481.08-.894.157-1.239.231-.345.068-.65.145-.915.231a2.873 2.873 0 0 0-.657.324 1.421 1.421 0 0 0-.416.425 1.107 1.107 0 0 0-.139.564c0 .247.062.466.185.657.123.185.302.333.536.444.241.111.537.166.888.166Zm14.329 1.499v-4.809c0-.315-.022-.663-.065-1.045a3.617 3.617 0 0 0-.305-1.101 2.084 2.084 0 0 0-.703-.878c-.308-.229-.728-.343-1.258-.343-.283 0-.564.047-.841.139a1.937 1.937 0 0 0-.759.481c-.222.222-.4.53-.536.925-.136.388-.204.888-.204 1.498l-1.322-.564c0-.851.163-1.622.49-2.312a3.933 3.933 0 0 1 1.461-1.646c.642-.413 1.431-.62 2.368-.62.74 0 1.35.123 1.831.37.481.247.863.561 1.147.943.283.383.493.789.629 1.221.135.432.222.842.259 1.23.043.382.064.694.064.934v5.577h-2.256Zm-6.927 0v-9.988h1.988v3.098h.268v6.89h-2.256Zm15.453.277c-1.233 0-2.235-.277-3.006-.832-.77-.555-1.239-1.335-1.405-2.34l2.275-.351c.117.493.376.881.777 1.165.4.283.906.425 1.516.425.537 0 .95-.105 1.24-.314.295-.216.443-.509.443-.879 0-.228-.055-.41-.166-.545-.105-.142-.339-.278-.703-.407-.364-.13-.922-.293-1.674-.49-.838-.222-1.504-.46-1.997-.713-.494-.259-.848-.564-1.064-.915-.216-.352-.324-.777-.324-1.276 0-.623.164-1.166.491-1.628.326-.462.783-.817 1.368-1.064.586-.252 1.277-.379 2.072-.379.777 0 1.464.12 2.062.361.604.24 1.091.583 1.461 1.026.37.444.598.965.685 1.563l-2.275.407a1.436 1.436 0 0 0-.583-1.008c-.327-.246-.764-.385-1.313-.416-.524-.031-.947.049-1.267.241-.321.185-.481.447-.481.786 0 .191.065.354.194.49.13.135.389.271.777.407.395.135.98.302 1.757.499.795.204 1.431.438 1.905.703.481.259.826.57 1.036.934.216.364.324.805.324 1.323 0 1.004-.367 1.794-1.101 2.367-.727.573-1.735.86-3.024.86ZM35.21 258.368v-13.595h2.229v13.595H35.21Zm9.54.277c-1.011 0-1.899-.219-2.663-.656a4.684 4.684 0 0 1-1.795-1.822c-.425-.777-.638-1.671-.638-2.682 0-1.092.21-2.038.63-2.84a4.597 4.597 0 0 1 1.747-1.877c.746-.444 1.61-.666 2.59-.666 1.035 0 1.914.244 2.635.731.728.481 1.267 1.162 1.619 2.044.351.881.484 1.92.397 3.116h-2.21v-.814c-.006-1.085-.197-1.877-.573-2.376-.376-.5-.968-.749-1.776-.749-.912 0-1.59.283-2.035.85-.444.561-.665 1.385-.665 2.47 0 1.011.221 1.794.666 2.349.443.555 1.09.832 1.942.832.548 0 1.02-.12 1.414-.361.401-.246.71-.601.925-1.063l2.201.666c-.382.9-.974 1.6-1.775 2.099a4.861 4.861 0 0 1-2.636.749Zm-3.44-4.652v-1.683h6.871v1.683H41.31Zm25.724 4.375v-6.067c0-.684-.17-1.218-.51-1.6-.338-.388-.797-.583-1.377-.583-.358 0-.678.084-.962.25-.284.16-.509.401-.675.721-.166.315-.25.691-.25 1.129l-.99-.583c-.005-.69.149-1.298.463-1.822a3.38 3.38 0 0 1 1.295-1.239 3.722 3.722 0 0 1 1.813-.444c1.103 0 1.948.333 2.534.999.591.66.887 1.529.887 2.608v6.631h-2.228Zm-12.014 0v-9.988h1.97v3.098h.277v6.89H55.02Zm6.02 0v-6.039c0-.697-.169-1.24-.508-1.628-.339-.388-.801-.583-1.387-.583-.567 0-1.024.195-1.369.583-.339.388-.509.894-.509 1.517l-.998-.666c0-.648.16-1.23.48-1.748.321-.518.753-.925 1.295-1.221a3.752 3.752 0 0 1 1.84-.453c.747 0 1.37.16 1.869.481.505.314.882.746 1.128 1.295.253.542.38 1.156.38 1.84v6.622h-2.22Zm16.1-11.422h-1.692l1.424-3.422h1.692l-1.424 3.422Zm-.925 11.699c-1.01 0-1.899-.219-2.663-.656a4.684 4.684 0 0 1-1.794-1.822c-.426-.777-.638-1.671-.638-2.682 0-1.092.21-2.038.629-2.84a4.597 4.597 0 0 1 1.747-1.877c.746-.444 1.61-.666 2.59-.666 1.036 0 1.914.244 2.636.731.727.481 1.267 1.162 1.618 2.044.351.881.484 1.92.398 3.116h-2.21v-.814c-.007-1.085-.198-1.877-.574-2.376-.376-.5-.968-.749-1.776-.749-.912 0-1.59.283-2.034.85-.444.561-.666 1.385-.666 2.47 0 1.011.222 1.794.666 2.349.444.555 1.091.832 1.942.832.549 0 1.02-.12 1.415-.361.4-.246.709-.601.925-1.063l2.2.666c-.382.9-.974 1.6-1.775 2.099a4.86 4.86 0 0 1-2.636.749Zm-3.44-4.652v-1.683h6.871v1.683h-6.871Zm15.88 4.375a9.158 9.158 0 0 1-1.942.157c-.629-.012-1.193-.126-1.692-.342a2.349 2.349 0 0 1-1.138-1.045 2.98 2.98 0 0 1-.36-1.323c-.013-.45-.019-.959-.019-1.526v-8.684h2.22v8.555c0 .401.003.752.009 1.054.012.302.077.549.194.74.222.37.576.576 1.063.62a7.179 7.179 0 0 0 1.665-.074v1.868Zm-6.964-8.24v-1.748h6.964v1.748h-6.964Zm9.112 8.24v-9.988h1.97v2.432l-.24-.314a3.56 3.56 0 0 1 .49-.907c.21-.277.459-.505.749-.684.246-.167.517-.296.813-.389.303-.098.61-.157.925-.175.315-.025.62-.013.916.037v2.081a2.84 2.84 0 0 0-1.027-.084 2.353 2.353 0 0 0-1.035.324 2.322 2.322 0 0 0-.759.638 2.695 2.695 0 0 0-.425.888 3.89 3.89 0 0 0-.139 1.063v5.078h-2.238Zm11.618.277c-.998 0-1.871-.225-2.617-.675a4.637 4.637 0 0 1-1.739-1.859c-.406-.795-.61-1.708-.61-2.737 0-1.048.21-1.967.629-2.756a4.64 4.64 0 0 1 1.748-1.85c.746-.444 1.609-.666 2.589-.666 1.005 0 1.881.225 2.627.675a4.622 4.622 0 0 1 1.738 1.868c.414.79.62 1.699.62 2.729 0 1.035-.21 1.951-.629 2.746a4.63 4.63 0 0 1-1.738 1.859c-.746.444-1.619.666-2.618.666Zm0-2.09c.888 0 1.548-.296 1.979-.888.432-.592.648-1.356.648-2.293 0-.968-.219-1.739-.657-2.312-.438-.58-1.094-.87-1.97-.87-.598 0-1.091.136-1.479.407-.383.265-.666.638-.851 1.119-.185.475-.278 1.027-.278 1.656 0 .968.219 1.741.657 2.321.444.573 1.094.86 1.951.86Z" fill="#000"/><g filter="url(#e)"><circle cx="294.988" cy="243.424" r="19.884" fill="#fff"/><g clip-path="url(#f)"><path d="m299.309 242.962-4.961-4.96 1.308-1.308 7.193 7.193-7.193 7.193-1.308-1.307 4.961-4.961h-11.257v-1.85h11.257Z" fill="#000"/></g></g><path stroke="#000" stroke-width=".675" d="M25.745 286.765h298.039v109.377H25.745z"/><path d="M25.407 286.428 324.122 396.48V286.428L25.407 396.48V286.428Z" stroke="#000" stroke-width=".675"/><path d="M35.21 358.217V344.9h2.229v11.227h5.882v2.09h-8.11Zm14.218.278c-1.01 0-1.899-.219-2.663-.657a4.677 4.677 0 0 1-1.794-1.822c-.426-.777-.638-1.671-.638-2.682 0-1.091.21-2.037.628-2.839a4.592 4.592 0 0 1 1.748-1.877c.746-.444 1.61-.666 2.59-.666 1.036 0 1.914.243 2.636.73.727.481 1.267 1.163 1.618 2.044.351.882.484 1.921.398 3.117h-2.21v-.814c-.007-1.085-.198-1.877-.574-2.377-.376-.499-.968-.749-1.776-.749-.912 0-1.59.284-2.034.851-.444.561-.666 1.384-.666 2.469 0 1.011.222 1.794.666 2.349.444.555 1.091.833 1.942.833.548 0 1.02-.121 1.415-.361.4-.247.709-.601.925-1.064l2.2.666c-.382.9-.974 1.6-1.775 2.1a4.86 4.86 0 0 1-2.636.749Zm-3.44-4.652v-1.683h6.871v1.683h-6.871Zm13.883 4.652c-1.233 0-2.235-.278-3.006-.833-.77-.554-1.24-1.334-1.406-2.339l2.275-.352c.117.493.376.882.777 1.165.4.284.906.426 1.517.426.536 0 .95-.105 1.239-.315.296-.215.444-.508.444-.878 0-.228-.055-.41-.166-.546-.105-.142-.34-.277-.703-.407a22.46 22.46 0 0 0-1.674-.49c-.839-.222-1.505-.459-1.998-.712-.493-.259-.848-.564-1.063-.916-.216-.351-.324-.776-.324-1.276 0-.622.163-1.165.49-1.627.327-.463.783-.817 1.369-1.064.585-.253 1.276-.379 2.071-.379.777 0 1.465.12 2.063.361.604.24 1.091.582 1.46 1.026.37.444.599.965.685 1.563l-2.275.407a1.434 1.434 0 0 0-.582-1.008c-.327-.247-.765-.385-1.314-.416-.524-.031-.946.049-1.267.24-.32.185-.48.447-.48.786 0 .191.064.355.194.49.13.136.388.272.776.407.395.136.98.302 1.758.5.795.203 1.43.437 1.905.703.48.259.826.57 1.035.934.216.363.324.804.324 1.322 0 1.005-.367 1.794-1.1 2.368-.728.573-1.736.86-3.024.86Zm10.038-11.782v-2.044h2.228v2.044H69.91Zm0 11.504v-9.988h2.228v9.988H69.91Zm11.907 0v-4.809c0-.314-.022-.663-.065-1.045a3.606 3.606 0 0 0-.305-1.1 2.084 2.084 0 0 0-.703-.879c-.308-.228-.727-.342-1.257-.342-.284 0-.565.046-.842.139-.278.092-.53.252-.758.481-.222.222-.401.53-.537.924-.135.389-.203.888-.203 1.499l-1.323-.565c0-.85.164-1.621.49-2.312.333-.69.82-1.239 1.462-1.646.64-.413 1.43-.619 2.367-.619.74 0 1.35.123 1.831.37.481.246.863.561 1.147.943.284.382.493.789.629 1.221.136.431.222.841.259 1.23.043.382.065.693.065.934v5.576h-2.257Zm-6.927 0v-9.988h1.989v3.098h.268v6.89h-2.257Zm15.439.278c-.919 0-1.72-.231-2.405-.694-.684-.462-1.214-1.091-1.59-1.886-.376-.796-.564-1.693-.564-2.692 0-1.011.188-1.911.564-2.7.382-.795.921-1.421 1.618-1.878.697-.462 1.517-.693 2.46-.693.95 0 1.745.231 2.386.693.647.457 1.138 1.083 1.47 1.878.333.795.5 1.695.5 2.7 0 .993-.167 1.89-.5 2.692-.332.795-.829 1.424-1.488 1.886-.66.463-1.477.694-2.451.694Zm.342-1.998c.598 0 1.079-.136 1.443-.407.37-.277.638-.663.804-1.156.173-.493.26-1.063.26-1.711 0-.653-.087-1.224-.26-1.711-.166-.493-.428-.875-.786-1.146-.357-.278-.82-.417-1.387-.417-.598 0-1.091.148-1.48.444-.388.29-.675.685-.86 1.184a4.656 4.656 0 0 0-.277 1.646c0 .611.09 1.166.268 1.665.185.493.465.885.842 1.174.376.29.853.435 1.433.435Zm2.506 1.72v-7.01H92.9V344.9h2.247v13.317h-1.97Zm4.748-11.504v-2.044h2.229v2.044h-2.229Zm0 11.504v-9.988h2.229v9.988h-2.229Zm8.855.278c-1.233 0-2.234-.278-3.005-.833-.771-.554-1.239-1.334-1.406-2.339l2.275-.352c.117.493.376.882.777 1.165.401.284.906.426 1.517.426.536 0 .949-.105 1.239-.315.296-.215.444-.508.444-.878 0-.228-.056-.41-.167-.546-.104-.142-.339-.277-.702-.407a22.539 22.539 0 0 0-1.674-.49c-.839-.222-1.505-.459-1.998-.712-.493-.259-.848-.564-1.063-.916-.216-.351-.324-.776-.324-1.276 0-.622.163-1.165.49-1.627.327-.463.783-.817 1.369-1.064.585-.253 1.276-.379 2.071-.379.777 0 1.465.12 2.063.361.604.24 1.091.582 1.461 1.026.37.444.598.965.684 1.563l-2.275.407a1.432 1.432 0 0 0-.583-1.008c-.326-.247-.764-.385-1.313-.416-.524-.031-.946.049-1.267.24-.32.185-.481.447-.481.786 0 .191.065.355.195.49.129.136.388.272.776.407.395.136.981.302 1.758.5.795.203 1.43.437 1.905.703.481.259.826.57 1.035.934.216.363.324.804.324 1.322 0 1.005-.367 1.794-1.1 2.368-.728.573-1.736.86-3.025.86Zm10.951 0c-.975 0-1.792-.231-2.451-.694-.66-.462-1.156-1.091-1.489-1.886-.333-.802-.5-1.699-.5-2.692 0-1.005.167-1.905.5-2.7.333-.795.82-1.421 1.461-1.878.647-.462 1.446-.693 2.395-.693.944 0 1.761.231 2.451.693.697.457 1.236 1.083 1.618 1.878.383.789.574 1.689.574 2.7 0 .999-.188 1.896-.564 2.692-.376.795-.907 1.424-1.591 1.886-.684.463-1.486.694-2.404.694Zm-4.819 4.161v-14.427h1.97v7.01h.278v7.417h-2.248Zm4.476-6.159c.58 0 1.058-.145 1.434-.435.376-.289.653-.681.832-1.174a4.76 4.76 0 0 0 .278-1.665c0-.604-.093-1.153-.278-1.646-.185-.499-.471-.894-.86-1.184-.388-.296-.882-.444-1.48-.444-.567 0-1.029.139-1.387.417-.357.271-.623.653-.795 1.146-.167.487-.25 1.058-.25 1.711 0 .648.083 1.218.25 1.711.172.493.441.879.804 1.156.37.271.854.407 1.452.407Zm11.481 1.998c-1.011 0-1.899-.219-2.663-.657a4.67 4.67 0 0 1-1.794-1.822c-.426-.777-.639-1.671-.639-2.682 0-1.091.21-2.037.629-2.839a4.597 4.597 0 0 1 1.748-1.877c.746-.444 1.609-.666 2.59-.666 1.036 0 1.914.243 2.635.73.728.481 1.267 1.163 1.619 2.044.351.882.484 1.921.398 3.117h-2.211v-.814c-.006-1.085-.197-1.877-.573-2.377-.376-.499-.968-.749-1.776-.749-.912 0-1.59.284-2.034.851-.444.561-.666 1.384-.666 2.469 0 1.011.222 1.794.666 2.349.444.555 1.091.833 1.942.833.548 0 1.02-.121 1.415-.361.4-.247.709-.601.924-1.064l2.202.666c-.383.9-.975 1.6-1.776 2.1a4.86 4.86 0 0 1-2.636.749Zm-3.44-4.652v-1.683h6.871v1.683h-6.871Zm16.663 4.374v-4.809a9.41 9.41 0 0 0-.064-1.045 3.585 3.585 0 0 0-.306-1.1 2.085 2.085 0 0 0-.702-.879c-.309-.228-.728-.342-1.258-.342-.284 0-.564.046-.842.139-.277.092-.53.252-.758.481-.222.222-.401.53-.536.924-.136.389-.204.888-.204 1.499l-1.322-.565c0-.85.163-1.621.49-2.312a3.94 3.94 0 0 1 1.461-1.646c.641-.413 1.43-.619 2.368-.619.739 0 1.35.123 1.831.37a3.22 3.22 0 0 1 1.146.943c.284.382.494.789.629 1.221.136.431.222.841.259 1.23.043.382.065.693.065.934v5.576h-2.257Zm-6.926 0v-9.988h1.988v3.098h.268v6.89h-2.256Zm15.453.278c-1.233 0-2.235-.278-3.006-.833-.771-.554-1.239-1.334-1.406-2.339l2.275-.352c.118.493.377.882.777 1.165.401.284.907.426 1.517.426.536 0 .949-.105 1.239-.315.296-.215.444-.508.444-.878 0-.228-.055-.41-.166-.546-.105-.142-.339-.277-.703-.407a22.539 22.539 0 0 0-1.674-.49c-.839-.222-1.504-.459-1.998-.712-.493-.259-.847-.564-1.063-.916-.216-.351-.324-.776-.324-1.276 0-.622.163-1.165.49-1.627.327-.463.783-.817 1.369-1.064.586-.253 1.276-.379 2.072-.379.776 0 1.464.12 2.062.361.604.24 1.091.582 1.461 1.026.37.444.598.965.684 1.563l-2.275.407a1.431 1.431 0 0 0-.582-1.008c-.327-.247-.765-.385-1.313-.416-.525-.031-.947.049-1.267.24-.321.185-.481.447-.481.786a.68.68 0 0 0 .194.49c.129.136.388.272.777.407.394.136.98.302 1.757.5.795.203 1.43.437 1.905.703.481.259.826.57 1.036.934.216.363.323.804.323 1.322 0 1.005-.366 1.794-1.1 2.368-.728.573-1.736.86-3.024.86Zm8.943 0c-.721 0-1.332-.136-1.831-.407a2.875 2.875 0 0 1-1.138-1.101 3.063 3.063 0 0 1-.379-1.507c0-.481.08-.913.241-1.295.16-.388.407-.721.739-.999.333-.283.765-.515 1.295-.693.401-.13.87-.247 1.406-.352.542-.105 1.128-.2 1.757-.286.635-.093 1.298-.192 1.988-.296l-.795.453c.006-.691-.148-1.199-.462-1.526-.315-.327-.845-.49-1.591-.49-.45 0-.885.105-1.304.314-.419.21-.712.57-.879 1.082l-2.034-.638a3.776 3.776 0 0 1 1.406-2.035c.696-.511 1.633-.767 2.811-.767.888 0 1.668.145 2.34.435.678.289 1.18.764 1.507 1.424.179.351.287.712.324 1.082.037.364.055.761.055 1.193v6.131h-1.951v-2.164l.324.352c-.45.721-.978 1.251-1.582 1.59-.598.333-1.347.5-2.247.5Zm.444-1.776c.505 0 .937-.089 1.295-.268.357-.179.641-.398.85-.657.216-.259.361-.502.435-.73.117-.284.182-.608.194-.971.019-.37.028-.669.028-.897l.684.203c-.672.105-1.248.197-1.729.277-.481.081-.894.158-1.239.232a7.812 7.812 0 0 0-.916.231c-.259.092-.478.2-.656.324a1.437 1.437 0 0 0-.417.425c-.092.16-.138.348-.138.564 0 .247.061.466.185.657.123.185.302.333.536.444.241.111.536.166.888.166Zm12.22 1.776c-.974 0-1.791-.231-2.451-.694-.66-.462-1.156-1.091-1.489-1.886-.333-.802-.499-1.699-.499-2.692 0-1.005.166-1.905.499-2.7.333-.795.82-1.421 1.461-1.878.648-.462 1.446-.693 2.396-.693.943 0 1.76.231 2.45.693.697.457 1.237 1.083 1.619 1.878.382.789.573 1.689.573 2.7 0 .999-.188 1.896-.564 2.692-.376.795-.906 1.424-1.591 1.886-.684.463-1.486.694-2.404.694Zm-4.818-.278V344.9h2.247v6.307h-.278v7.01h-1.969Zm4.476-1.72c.579 0 1.057-.145 1.433-.435a2.52 2.52 0 0 0 .832-1.174 4.76 4.76 0 0 0 .278-1.665c0-.604-.093-1.153-.278-1.646-.185-.499-.471-.894-.86-1.184-.388-.296-.881-.444-1.479-.444-.568 0-1.03.139-1.388.417-.357.271-.622.653-.795 1.146-.166.487-.25 1.058-.25 1.711 0 .648.084 1.218.25 1.711.173.493.441.879.805 1.156.37.271.854.407 1.452.407Zm7.125 1.72v-13.594h2.228v13.594h-2.228Zm9.539.278c-1.011 0-1.898-.219-2.663-.657a4.67 4.67 0 0 1-1.794-1.822c-.426-.777-.638-1.671-.638-2.682 0-1.091.209-2.037.629-2.839a4.59 4.59 0 0 1 1.748-1.877c.746-.444 1.609-.666 2.589-.666 1.036 0 1.914.243 2.636.73.727.481 1.267 1.163 1.618 2.044.352.882.484 1.921.398 3.117h-2.211v-.814c-.006-1.085-.197-1.877-.573-2.377-.376-.499-.968-.749-1.776-.749-.912 0-1.59.284-2.034.851-.444.561-.666 1.384-.666 2.469 0 1.011.222 1.794.666 2.349.444.555 1.091.833 1.942.833.549 0 1.02-.121 1.415-.361.401-.247.709-.601.925-1.064l2.201.666c-.382.9-.974 1.6-1.776 2.1a4.86 4.86 0 0 1-2.636.749Zm-3.44-4.652v-1.683h6.872v1.683h-6.872Zm17.734 4.652c-.919 0-1.721-.231-2.405-.694-.684-.462-1.215-1.091-1.591-1.886-.376-.796-.564-1.693-.564-2.692 0-1.011.188-1.911.564-2.7.383-.795.922-1.421 1.619-1.878.697-.462 1.517-.693 2.46-.693.949 0 1.745.231 2.386.693.647.457 1.137 1.083 1.47 1.878.333.795.5 1.695.5 2.7 0 .993-.167 1.89-.5 2.692-.333.795-.829 1.424-1.489 1.886-.659.463-1.476.694-2.45.694Zm.342-1.998c.598 0 1.079-.136 1.442-.407.37-.277.639-.663.805-1.156.173-.493.259-1.063.259-1.711 0-.653-.086-1.224-.259-1.711-.166-.493-.428-.875-.786-1.146-.358-.278-.82-.417-1.387-.417-.598 0-1.092.148-1.48.444-.388.29-.675.685-.86 1.184a4.656 4.656 0 0 0-.277 1.646c0 .611.089 1.166.268 1.665.185.493.465.885.841 1.174.376.29.854.435 1.434.435Zm2.506 1.72v-7.01h-.277V344.9h2.247v13.317h-1.97Zm7.356.278c-.722 0-1.332-.136-1.831-.407a2.875 2.875 0 0 1-1.138-1.101 3.053 3.053 0 0 1-.379-1.507c0-.481.08-.913.24-1.295.161-.388.407-.721.74-.999.333-.283.765-.515 1.295-.693.401-.13.869-.247 1.406-.352.542-.105 1.128-.2 1.757-.286.635-.093 1.298-.192 1.988-.296l-.795.453c.006-.691-.148-1.199-.463-1.526-.314-.327-.844-.49-1.59-.49-.45 0-.885.105-1.304.314-.42.21-.712.57-.879 1.082l-2.034-.638a3.78 3.78 0 0 1 1.405-2.035c.697-.511 1.634-.767 2.812-.767.888 0 1.667.145 2.34.435.678.289 1.18.764 1.507 1.424.179.351.287.712.324 1.082.037.364.055.761.055 1.193v6.131h-1.951v-2.164l.323.352c-.45.721-.977 1.251-1.581 1.59-.598.333-1.347.5-2.247.5Zm.444-1.776c.505 0 .937-.089 1.294-.268.358-.179.642-.398.851-.657.216-.259.361-.502.435-.73.117-.284.182-.608.194-.971.019-.37.028-.669.028-.897l.684.203c-.672.105-1.248.197-1.729.277-.481.081-.894.158-1.239.232a7.762 7.762 0 0 0-.916.231c-.259.092-.478.2-.657.324a1.445 1.445 0 0 0-.416.425c-.092.16-.139.348-.139.564 0 .247.062.466.185.657.124.185.303.333.537.444.24.111.536.166.888.166Zm14.328 1.498v-4.809a9.19 9.19 0 0 0-.065-1.045 3.583 3.583 0 0 0-.305-1.1 2.08 2.08 0 0 0-.703-.879c-.308-.228-.727-.342-1.257-.342a2.63 2.63 0 0 0-.842.139c-.277.092-.53.252-.758.481-.222.222-.401.53-.537.924-.135.389-.203.888-.203 1.499l-1.323-.565c0-.85.164-1.621.491-2.312.332-.69.82-1.239 1.461-1.646.641-.413 1.43-.619 2.367-.619.74 0 1.35.123 1.831.37.481.246.864.561 1.147.943a4.1 4.1 0 0 1 .629 1.221c.136.431.222.841.259 1.23.043.382.065.693.065.934v5.576h-2.257Zm-6.927 0v-9.988h1.989v3.098h.268v6.89h-2.257Zm15.453.278c-1.233 0-2.234-.278-3.005-.833-.771-.554-1.239-1.334-1.406-2.339l2.275-.352c.117.493.376.882.777 1.165.401.284.906.426 1.517.426.536 0 .949-.105 1.239-.315.296-.215.444-.508.444-.878 0-.228-.056-.41-.167-.546-.104-.142-.339-.277-.702-.407a22.539 22.539 0 0 0-1.674-.49c-.839-.222-1.505-.459-1.998-.712-.493-.259-.848-.564-1.063-.916-.216-.351-.324-.776-.324-1.276 0-.622.163-1.165.49-1.627.327-.463.783-.817 1.369-1.064.585-.253 1.276-.379 2.071-.379.777 0 1.465.12 2.063.361.604.24 1.091.582 1.461 1.026.37.444.598.965.684 1.563l-2.275.407a1.435 1.435 0 0 0-.582-1.008c-.327-.247-.765-.385-1.314-.416-.524-.031-.946.049-1.267.24-.32.185-.481.447-.481.786 0 .191.065.355.195.49.129.136.388.272.776.407.395.136.981.302 1.758.5.795.203 1.43.437 1.905.703.481.259.826.57 1.035.934.216.363.324.804.324 1.322 0 1.005-.367 1.794-1.1 2.368-.728.573-1.736.86-3.025.86Zm10.039-.278v-13.594h2.228v13.594h-2.228Zm9.539.278c-1.011 0-1.898-.219-2.663-.657a4.676 4.676 0 0 1-1.794-1.822c-.426-.777-.638-1.671-.638-2.682 0-1.091.209-2.037.629-2.839a4.59 4.59 0 0 1 1.748-1.877c.746-.444 1.609-.666 2.589-.666 1.036 0 1.914.243 2.636.73.727.481 1.267 1.163 1.618 2.044.352.882.484 1.921.398 3.117h-2.21v-.814c-.007-1.085-.198-1.877-.574-2.377-.376-.499-.968-.749-1.776-.749-.912 0-1.59.284-2.034.851-.444.561-.666 1.384-.666 2.469 0 1.011.222 1.794.666 2.349.444.555 1.091.833 1.942.833.549 0 1.02-.121 1.415-.361.401-.247.709-.601.925-1.064l2.201.666c-.382.9-.974 1.6-1.776 2.1a4.86 4.86 0 0 1-2.636.749Zm-3.44-4.652v-1.683h6.872v1.683h-6.872Zm-213.6 29.652c-1.232 0-2.234-.278-3.005-.833-.77-.554-1.24-1.334-1.406-2.339l2.275-.352c.117.493.376.882.777 1.165.401.284.907.426 1.517.426.536 0 .95-.105 1.24-.315.295-.215.443-.508.443-.878 0-.228-.055-.41-.166-.546-.105-.142-.34-.277-.703-.407a22.46 22.46 0 0 0-1.674-.49c-.839-.222-1.505-.459-1.998-.712-.493-.259-.847-.564-1.063-.916-.216-.351-.324-.776-.324-1.276 0-.622.163-1.165.49-1.627.327-.463.783-.817 1.369-1.064.586-.253 1.276-.379 2.072-.379.776 0 1.464.12 2.062.361.604.24 1.091.582 1.461 1.026.37.444.598.965.684 1.563l-2.275.407a1.434 1.434 0 0 0-.582-1.008c-.327-.247-.765-.385-1.314-.416-.524-.031-.946.049-1.267.24-.32.185-.48.447-.48.786 0 .191.064.355.194.49.13.136.388.272.777.407.394.136.98.302 1.757.5.795.203 1.43.437 1.905.703.48.259.826.57 1.036.934.215.363.323.804.323 1.322 0 1.005-.367 1.794-1.1 2.368-.728.573-1.736.86-3.024.86Zm8.944 0c-.722 0-1.332-.136-1.831-.407a2.878 2.878 0 0 1-1.138-1.101 3.056 3.056 0 0 1-.379-1.507c0-.481.08-.913.24-1.295a2.56 2.56 0 0 1 .74-.999c.333-.283.765-.515 1.295-.693.4-.13.87-.247 1.406-.352.542-.105 1.128-.2 1.757-.286.635-.093 1.298-.192 1.988-.296l-.795.453c.006-.691-.148-1.199-.462-1.526-.315-.327-.845-.49-1.591-.49-.45 0-.885.105-1.304.314-.42.21-.712.57-.879 1.082l-2.034-.638a3.781 3.781 0 0 1 1.405-2.035c.697-.511 1.634-.767 2.812-.767.888 0 1.668.145 2.34.435a2.9 2.9 0 0 1 1.507 1.424c.179.351.287.712.324 1.082.037.364.055.761.055 1.193v6.131H51.33v-2.164l.324.352c-.45.721-.978 1.251-1.582 1.59-.598.333-1.347.5-2.247.5Zm.444-1.776c.505 0 .937-.089 1.294-.268a2.53 2.53 0 0 0 .851-.657c.216-.259.361-.502.435-.73.117-.284.182-.608.194-.971.019-.37.028-.669.028-.897l.684.203c-.672.105-1.248.197-1.73.277-.48.081-.893.158-1.238.232-.346.067-.65.145-.916.231-.259.092-.478.2-.657.324a1.431 1.431 0 0 0-.416.425c-.092.16-.138.348-.138.564 0 .247.061.466.185.657.123.185.302.333.536.444.24.111.536.166.888.166Zm11.757 1.776c-1.03 0-1.908-.228-2.635-.685a4.554 4.554 0 0 1-1.674-1.886c-.383-.796-.577-1.696-.583-2.701.006-1.023.207-1.929.601-2.719.401-.795.968-1.418 1.702-1.868.734-.456 1.606-.684 2.617-.684 1.134 0 2.093.287 2.876.86.79.567 1.304 1.344 1.545 2.33l-2.22.602c-.172-.537-.46-.953-.86-1.249a2.215 2.215 0 0 0-1.369-.453c-.58 0-1.057.139-1.433.416-.376.271-.654.647-.832 1.128-.18.481-.269 1.027-.269 1.637 0 .95.213 1.717.639 2.303.425.586 1.057.879 1.895.879.592 0 1.058-.136 1.397-.407.345-.272.604-.663.777-1.175l2.275.509c-.309 1.017-.848 1.8-1.619 2.349-.77.542-1.714.814-2.83.814Z" fill="#000"/><g filter="url(#g)"><circle cx="294.988" cy="368.274" r="19.884" fill="#fff"/><g clip-path="url(#h)"><path d="m299.309 367.811-4.961-4.961 1.308-1.308 7.193 7.194-7.193 7.193-1.308-1.308 4.961-4.961h-11.257v-1.849h11.257Z" fill="#000"/></g></g><path stroke="#000" stroke-width=".675" d="M25.745 411.615h298.039v109.377H25.745z"/><path d="M25.407 411.277 324.122 521.33V411.277L25.407 521.33V411.277Z" stroke="#000" stroke-width=".675"/><path d="M35.21 483.066v-13.317h2.229v11.227h5.882v2.09h-8.11Zm14.218.278c-1.01 0-1.899-.219-2.663-.657a4.677 4.677 0 0 1-1.794-1.822c-.426-.776-.638-1.67-.638-2.682 0-1.091.21-2.037.628-2.839a4.598 4.598 0 0 1 1.748-1.877c.746-.444 1.61-.666 2.59-.666 1.036 0 1.914.244 2.636.731.727.48 1.267 1.162 1.618 2.043.351.882.484 1.921.398 3.117h-2.21v-.814c-.007-1.085-.198-1.877-.574-2.377-.376-.499-.968-.749-1.776-.749-.912 0-1.59.284-2.034.851-.444.561-.666 1.384-.666 2.469 0 1.012.222 1.795.666 2.349.444.555 1.091.833 1.942.833.548 0 1.02-.12 1.415-.361.4-.247.709-.601.925-1.063l2.2.665a4.461 4.461 0 0 1-1.775 2.1 4.86 4.86 0 0 1-2.636.749Zm-3.44-4.652v-1.683h6.871v1.683h-6.871Zm13.883 4.652c-1.233 0-2.235-.278-3.006-.832-.77-.555-1.24-1.335-1.406-2.34l2.275-.352c.117.494.376.882.777 1.166.4.283.906.425 1.517.425.536 0 .95-.105 1.239-.314.296-.216.444-.509.444-.879 0-.228-.055-.41-.166-.546-.105-.141-.34-.277-.703-.407a22.96 22.96 0 0 0-1.674-.49c-.839-.222-1.505-.459-1.998-.712-.493-.259-.848-.564-1.063-.915-.216-.352-.324-.777-.324-1.277 0-.622.163-1.165.49-1.627.327-.463.783-.817 1.369-1.064.585-.253 1.276-.379 2.071-.379.777 0 1.465.12 2.063.361.604.24 1.091.582 1.46 1.026.37.444.599.965.685 1.563l-2.275.407a1.434 1.434 0 0 0-.582-1.008c-.327-.247-.765-.385-1.314-.416-.524-.031-.946.049-1.267.24-.32.185-.48.447-.48.786 0 .192.064.355.194.491.13.135.388.271.776.406.395.136.98.303 1.758.5.795.203 1.43.438 1.905.703.48.259.826.57 1.035.934.216.364.324.804.324 1.322 0 1.005-.367 1.794-1.1 2.368-.728.573-1.736.86-3.024.86Zm16.761-.278v-4.809c0-.314-.022-.662-.065-1.045a3.606 3.606 0 0 0-.305-1.1 2.084 2.084 0 0 0-.703-.879c-.308-.228-.727-.342-1.257-.342-.284 0-.565.046-.842.139-.277.092-.53.253-.758.481-.222.222-.401.53-.537.925-.135.388-.203.887-.203 1.498l-1.323-.564c0-.851.164-1.622.49-2.312.333-.691.82-1.24 1.462-1.647.64-.413 1.43-.619 2.367-.619.74 0 1.35.123 1.831.37.481.246.863.561 1.147.943.284.382.493.789.629 1.221.136.431.222.841.259 1.23.043.382.065.693.065.934v5.576h-2.257Zm-6.927 0v-9.988h1.989v3.099h.268v6.889h-2.257Zm15.846.278c-1 0-1.871-.225-2.618-.675a4.637 4.637 0 0 1-1.738-1.859c-.407-.795-.61-1.708-.61-2.738 0-1.048.21-1.966.628-2.756a4.637 4.637 0 0 1 1.748-1.849c.746-.444 1.61-.666 2.59-.666 1.005 0 1.88.225 2.626.675a4.623 4.623 0 0 1 1.739 1.868c.413.789.62 1.699.62 2.728 0 1.036-.21 1.952-.63 2.747a4.638 4.638 0 0 1-1.738 1.859c-.746.444-1.619.666-2.617.666Zm0-2.09c.888 0 1.547-.296 1.979-.888.431-.592.647-1.356.647-2.294 0-.968-.219-1.738-.656-2.312-.438-.579-1.095-.869-1.97-.869-.598 0-1.092.136-1.48.407-.382.265-.666.638-.85 1.119-.186.475-.278 1.027-.278 1.655 0 .968.219 1.742.656 2.322.444.573 1.095.86 1.952.86Zm10.768 2.099c-.74 0-1.35-.123-1.832-.37a3.23 3.23 0 0 1-1.146-.943 4.099 4.099 0 0 1-.63-1.221 6.52 6.52 0 0 1-.267-1.221 10.37 10.37 0 0 1-.056-.943v-5.577h2.257v4.809c0 .309.021.657.064 1.045.044.383.142.753.296 1.11.16.352.395.641.703.87.315.228.737.342 1.267.342.284 0 .564-.046.842-.139.277-.092.527-.25.749-.472.228-.228.41-.539.546-.934.135-.394.203-.894.203-1.498l1.322.564c0 .851-.166 1.622-.499 2.312a3.93 3.93 0 0 1-1.452 1.656c-.641.407-1.43.61-2.367.61Zm3.264-.287v-3.098h-.268v-6.89h2.238v9.988h-1.97Zm7.269 0-3.626-9.988h2.229l2.516 7.242 2.506-7.242h2.238l-3.625 9.988h-2.238Zm11.702.278c-1.011 0-1.899-.219-2.663-.657a4.67 4.67 0 0 1-1.794-1.822c-.426-.776-.638-1.67-.638-2.682 0-1.091.209-2.037.629-2.839a4.594 4.594 0 0 1 1.747-1.877c.746-.444 1.61-.666 2.59-.666 1.036 0 1.914.244 2.636.731.727.48 1.267 1.162 1.618 2.043.351.882.484 1.921.398 3.117h-2.211v-.814c-.006-1.085-.197-1.877-.573-2.377-.376-.499-.968-.749-1.776-.749-.912 0-1.59.284-2.034.851-.444.561-.666 1.384-.666 2.469 0 1.012.222 1.795.666 2.349.444.555 1.091.833 1.942.833.549 0 1.02-.12 1.415-.361a2.41 2.41 0 0 0 .925-1.063l2.201.665c-.383.901-.974 1.6-1.776 2.1a4.86 4.86 0 0 1-2.636.749Zm-3.44-4.652v-1.683h6.871v1.683h-6.871Zm10.211 4.374v-13.594h2.229v13.594h-2.229Zm5.184 0v-13.594h2.229v13.594h-2.229Zm9.54.278c-1.011 0-1.899-.219-2.663-.657a4.678 4.678 0 0 1-1.795-1.822c-.425-.776-.638-1.67-.638-2.682 0-1.091.21-2.037.629-2.839a4.596 4.596 0 0 1 1.748-1.877c.746-.444 1.609-.666 2.59-.666 1.035 0 1.914.244 2.635.731.728.48 1.267 1.162 1.619 2.043.351.882.484 1.921.397 3.117h-2.21v-.814c-.006-1.085-.197-1.877-.573-2.377-.376-.499-.968-.749-1.776-.749-.912 0-1.591.284-2.035.851-.443.561-.665 1.384-.665 2.469 0 1.012.222 1.795.665 2.349.444.555 1.092.833 1.943.833.548 0 1.02-.12 1.415-.361.4-.247.709-.601.924-1.063l2.201.665a4.462 4.462 0 0 1-1.775 2.1 4.863 4.863 0 0 1-2.636.749Zm-3.44-4.652v-1.683h6.871v1.683h-6.871Zm13.882 4.652c-1.233 0-2.235-.278-3.005-.832-.771-.555-1.24-1.335-1.406-2.34l2.275-.352c.117.494.376.882.777 1.166.401.283.906.425 1.517.425.536 0 .949-.105 1.239-.314.296-.216.444-.509.444-.879 0-.228-.056-.41-.167-.546-.105-.141-.339-.277-.703-.407a22.738 22.738 0 0 0-1.674-.49c-.838-.222-1.504-.459-1.997-.712-.493-.259-.848-.564-1.064-.915-.215-.352-.323-.777-.323-1.277 0-.622.163-1.165.49-1.627.327-.463.783-.817 1.369-1.064.585-.253 1.276-.379 2.071-.379.777 0 1.464.12 2.062.361.605.24 1.092.582 1.462 1.026.37.444.598.965.684 1.563l-2.275.407a1.436 1.436 0 0 0-.583-1.008c-.326-.247-.764-.385-1.313-.416-.524-.031-.946.049-1.267.24-.321.185-.481.447-.481.786 0 .192.065.355.194.491.13.135.389.271.777.406.395.136.981.303 1.757.5.796.203 1.431.438 1.906.703.48.259.826.57 1.035.934.216.364.324.804.324 1.322 0 1.005-.367 1.794-1.101 2.368-.727.573-1.735.86-3.024.86Zm9.853-.278v-9.988h1.97v2.433l-.24-.315a3.56 3.56 0 0 1 .49-.906c.21-.278.459-.506.749-.684.247-.167.518-.296.814-.389.302-.098.61-.157.925-.176.314-.024.619-.012.915.037v2.081a2.86 2.86 0 0 0-1.026-.083 2.354 2.354 0 0 0-1.036.324 2.32 2.32 0 0 0-.758.638 2.708 2.708 0 0 0-.426.888 3.905 3.905 0 0 0-.138 1.063v5.077h-2.239Zm10.976-11.421-1.424-3.422h1.683l1.434 3.422h-1.693Zm.953 11.699c-1.011 0-1.899-.219-2.664-.657a4.683 4.683 0 0 1-1.794-1.822c-.425-.776-.638-1.67-.638-2.682 0-1.091.21-2.037.629-2.839a4.596 4.596 0 0 1 1.748-1.877c.746-.444 1.609-.666 2.589-.666 1.036 0 1.915.244 2.636.731.728.48 1.267 1.162 1.619 2.043.351.882.484 1.921.397 3.117h-2.21v-.814c-.006-1.085-.197-1.877-.573-2.377-.377-.499-.968-.749-1.776-.749-.913 0-1.591.284-2.035.851-.444.561-.666 1.384-.666 2.469 0 1.012.222 1.795.666 2.349.444.555 1.092.833 1.942.833.549 0 1.021-.12 1.415-.361a2.41 2.41 0 0 0 .925-1.063l2.201.665a4.462 4.462 0 0 1-1.775 2.1 4.863 4.863 0 0 1-2.636.749Zm-3.44-4.652v-1.683h6.871v1.683h-6.871Zm14.224 9.091a4.967 4.967 0 0 1-1.6-.259 4.486 4.486 0 0 1-1.368-.749 3.958 3.958 0 0 1-.999-1.165l2.053-1.018c.191.364.459.632.805.805.351.179.724.268 1.119.268a2.94 2.94 0 0 0 1.239-.25c.364-.16.644-.4.841-.721.204-.314.3-.709.287-1.184v-2.839h.278v-7.593h1.951v10.469c0 .253-.012.494-.037.722a4.921 4.921 0 0 1-.102.684c-.148.647-.431 1.178-.851 1.591-.419.419-.94.73-1.563.934-.616.203-1.3.305-2.053.305Zm-.194-4.439c-.918 0-1.72-.231-2.404-.694-.685-.462-1.215-1.091-1.591-1.886-.376-.796-.564-1.693-.564-2.692 0-1.011.188-1.911.564-2.7.382-.795.922-1.421 1.618-1.877.697-.463 1.517-.694 2.46-.694.95 0 1.745.231 2.386.694.648.456 1.138 1.082 1.471 1.877.333.795.499 1.695.499 2.7 0 .993-.166 1.89-.499 2.692-.333.795-.829 1.424-1.489 1.886-.66.463-1.477.694-2.451.694Zm.342-1.998c.598 0 1.079-.135 1.443-.407.37-.277.638-.662.805-1.156.172-.493.259-1.063.259-1.711 0-.653-.087-1.223-.259-1.71-.167-.494-.429-.876-.786-1.147-.358-.278-.82-.416-1.388-.416-.598 0-1.091.148-1.479.443-.389.29-.675.685-.86 1.184a4.655 4.655 0 0 0-.278 1.646c0 .611.09 1.166.268 1.665.185.493.466.885.842 1.175.376.289.854.434 1.433.434Zm7.236 1.72v-13.594h2.229v13.594h-2.229Zm9.54.278c-1.011 0-1.899-.219-2.663-.657a4.67 4.67 0 0 1-1.794-1.822c-.426-.776-.639-1.67-.639-2.682 0-1.091.21-2.037.629-2.839a4.603 4.603 0 0 1 1.748-1.877c.746-.444 1.609-.666 2.59-.666 1.035 0 1.914.244 2.635.731.728.48 1.267 1.162 1.619 2.043.351.882.484 1.921.398 3.117h-2.211v-.814c-.006-1.085-.197-1.877-.573-2.377-.376-.499-.968-.749-1.776-.749-.912 0-1.59.284-2.034.851-.444.561-.666 1.384-.666 2.469 0 1.012.222 1.795.666 2.349.444.555 1.091.833 1.942.833.548 0 1.02-.12 1.415-.361.4-.247.709-.601.924-1.063l2.202.665a4.47 4.47 0 0 1-1.776 2.1 4.86 4.86 0 0 1-2.636.749Zm-3.44-4.652v-1.683h6.871v1.683h-6.871Zm13.882 4.652c-1.233 0-2.234-.278-3.005-.832-.771-.555-1.239-1.335-1.406-2.34l2.275-.352c.117.494.376.882.777 1.166.401.283.906.425 1.517.425.536 0 .949-.105 1.239-.314.296-.216.444-.509.444-.879 0-.228-.056-.41-.167-.546-.104-.141-.339-.277-.702-.407a23.043 23.043 0 0 0-1.674-.49c-.839-.222-1.505-.459-1.998-.712-.493-.259-.848-.564-1.064-.915-.215-.352-.323-.777-.323-1.277 0-.622.163-1.165.49-1.627.327-.463.783-.817 1.369-1.064.585-.253 1.276-.379 2.071-.379.777 0 1.465.12 2.063.361.604.24 1.091.582 1.461 1.026.37.444.598.965.684 1.563l-2.275.407a1.432 1.432 0 0 0-.583-1.008c-.326-.247-.764-.385-1.313-.416-.524-.031-.946.049-1.267.24-.32.185-.481.447-.481.786 0 .192.065.355.195.491.129.135.388.271.776.406.395.136.981.303 1.758.5.795.203 1.43.438 1.905.703.481.259.826.57 1.035.934.216.364.324.804.324 1.322 0 1.005-.367 1.794-1.1 2.368-.728.573-1.736.86-3.025.86Zm13.858 0c-.919 0-1.72-.231-2.404-.694-.685-.462-1.215-1.091-1.591-1.886-.376-.796-.564-1.693-.564-2.692 0-1.011.188-1.911.564-2.7.382-.795.922-1.421 1.618-1.877.697-.463 1.517-.694 2.46-.694.95 0 1.745.231 2.386.694.648.456 1.138 1.082 1.471 1.877.333.795.499 1.695.499 2.7 0 .993-.166 1.89-.499 2.692-.333.795-.83 1.424-1.489 1.886-.66.463-1.477.694-2.451.694Zm.342-1.998c.598 0 1.079-.135 1.443-.407.37-.277.638-.662.805-1.156.172-.493.258-1.063.258-1.711 0-.653-.086-1.223-.258-1.71-.167-.494-.429-.876-.787-1.147-.357-.278-.82-.416-1.387-.416-.598 0-1.091.148-1.479.443-.389.29-.676.685-.861 1.184a4.656 4.656 0 0 0-.277 1.646c0 .611.089 1.166.268 1.665.185.493.466.885.842 1.175.376.289.854.434 1.433.434Zm2.506 1.72v-7.01h-.277v-6.307h2.247v13.317h-1.97Zm9.104.278c-1.011 0-1.899-.219-2.663-.657a4.678 4.678 0 0 1-1.795-1.822c-.425-.776-.638-1.67-.638-2.682 0-1.091.21-2.037.629-2.839a4.596 4.596 0 0 1 1.748-1.877c.746-.444 1.609-.666 2.59-.666 1.035 0 1.914.244 2.635.731.728.48 1.267 1.162 1.619 2.043.351.882.484 1.921.397 3.117h-2.21v-.814c-.006-1.085-.197-1.877-.573-2.377-.376-.499-.968-.749-1.776-.749-.912 0-1.591.284-2.034.851-.444.561-.666 1.384-.666 2.469 0 1.012.222 1.795.666 2.349.443.555 1.091.833 1.942.833.548 0 1.02-.12 1.415-.361.4-.247.709-.601.924-1.063l2.201.665a4.462 4.462 0 0 1-1.775 2.1 4.863 4.863 0 0 1-2.636.749Zm-3.44-4.652v-1.683h6.871v1.683h-6.871Zm13.914 4.374v-13.594h2.229v13.594h-2.229Zm7.792.278c-.722 0-1.332-.136-1.831-.407a2.875 2.875 0 0 1-1.138-1.101 3.053 3.053 0 0 1-.379-1.507c0-.481.08-.913.24-1.295.161-.388.407-.721.74-.999.333-.283.765-.514 1.295-.693.401-.13.869-.247 1.406-.352a33.24 33.24 0 0 1 1.757-.286c.635-.093 1.298-.191 1.988-.296l-.795.453c.006-.691-.148-1.199-.463-1.526-.314-.327-.844-.49-1.59-.49-.45 0-.885.105-1.304.314-.42.21-.712.571-.879 1.082l-2.034-.638a3.777 3.777 0 0 1 1.405-2.034c.697-.512 1.634-.768 2.812-.768.888 0 1.667.145 2.339.435a2.9 2.9 0 0 1 1.508 1.424c.179.351.287.712.324 1.082.037.364.055.761.055 1.193v6.131h-1.951v-2.164l.323.352c-.45.721-.977 1.251-1.581 1.59-.598.333-1.347.5-2.247.5Zm.444-1.776c.505 0 .937-.089 1.294-.268.358-.179.642-.398.851-.657.216-.259.361-.502.435-.73.117-.284.182-.607.194-.971.019-.37.028-.669.028-.897l.684.203c-.672.105-1.248.197-1.729.278-.481.08-.894.157-1.239.231a7.963 7.963 0 0 0-.916.231c-.259.092-.478.2-.657.324a1.445 1.445 0 0 0-.416.425c-.092.16-.139.348-.139.564 0 .247.062.466.185.657.124.185.303.333.537.444.24.111.536.166.888.166ZM35.025 508.066v-13.317h5.503c.13 0 .296.006.5.019.203.006.39.024.563.055.771.117 1.406.373 1.905.768a3.51 3.51 0 0 1 1.12 1.498c.246.598.37 1.264.37 1.997 0 1.086-.275 2.02-.824 2.803-.548.777-1.39 1.257-2.524 1.442l-.953.084h-3.431v4.651h-2.229Zm7.648 0-2.626-5.419 2.266-.499 2.885 5.918h-2.525Zm-5.419-6.732h3.181c.124 0 .262-.006.416-.019.155-.012.297-.037.426-.074.37-.092.66-.256.87-.49.215-.234.366-.499.452-.795.093-.296.14-.586.14-.87 0-.283-.047-.573-.14-.869a1.97 1.97 0 0 0-.453-.804c-.21-.235-.5-.398-.87-.491a1.8 1.8 0 0 0-.425-.064 4.98 4.98 0 0 0-.416-.019h-3.181v4.495Zm9.057 6.732 4.198-13.317h3.265l4.199 13.317h-2.294l-3.81-11.948h.5l-3.765 11.948h-2.293Zm2.34-2.885V503.1h6.991v2.081h-6.991Zm13.092 2.885v-11.227h-4.31v-2.09h10.848v2.09h-4.31v11.227h-2.228Zm8.017 0v-13.317h5.502c.13 0 .296.006.5.019.203.006.391.024.564.055.77.117 1.406.373 1.905.768a3.51 3.51 0 0 1 1.12 1.498c.246.598.37 1.264.37 1.997 0 .728-.124 1.394-.37 1.998a3.598 3.598 0 0 1-1.13 1.489c-.499.395-1.13.65-1.895.768a8.887 8.887 0 0 1-1.063.074h-3.274v4.651h-2.23Zm2.229-6.732h3.181c.123 0 .262-.006.416-.019.154-.012.296-.037.426-.074.37-.092.66-.256.869-.49.216-.234.367-.499.453-.795a2.91 2.91 0 0 0 .139-.87 2.91 2.91 0 0 0-.139-.869 1.97 1.97 0 0 0-.453-.804c-.21-.235-.5-.398-.87-.491a1.802 1.802 0 0 0-.425-.064 4.984 4.984 0 0 0-.416-.019h-3.181v4.495Z" fill="#000"/><g filter="url(#i)"><circle cx="294.988" cy="493.123" r="19.884" fill="#fff"/><g clip-path="url(#j)"><path d="m299.309 492.661-4.961-4.961 1.308-1.307 7.193 7.193-7.193 7.193-1.308-1.308 4.961-4.96h-11.257v-1.85h11.257Z" fill="#000"/></g></g><path stroke="#000" stroke-width=".675" d="M25.745 536.465h298.039v109.377H25.745z"/><path d="M25.407 536.127 324.122 646.18V536.127L25.407 646.18V536.127Z" stroke="#000" stroke-width=".675"/><path d="M40.657 608.194c-1.331 0-2.472-.29-3.421-.869-.95-.586-1.68-1.4-2.192-2.442-.506-1.042-.759-2.25-.759-3.625s.253-2.583.759-3.625c.511-1.042 1.242-1.853 2.192-2.433.949-.585 2.09-.878 3.421-.878 1.536 0 2.815.385 3.838 1.156 1.024.764 1.742 1.797 2.155 3.098l-2.247.62c-.26-.87-.7-1.548-1.323-2.035-.622-.493-1.43-.74-2.423-.74-.894 0-1.64.2-2.238.601-.592.401-1.039.965-1.34 1.693-.297.721-.448 1.569-.454 2.543 0 .974.148 1.825.444 2.552.302.722.752 1.283 1.35 1.683.598.401 1.344.602 2.238.602.993 0 1.8-.247 2.423-.74s1.064-1.172 1.323-2.035l2.247.62c-.413 1.301-1.131 2.337-2.155 3.107-1.023.765-2.302 1.147-3.838 1.147Zm12.435 0c-.999 0-1.871-.225-2.617-.675a4.638 4.638 0 0 1-1.739-1.859c-.407-.795-.61-1.708-.61-2.737 0-1.049.21-1.967.629-2.756a4.634 4.634 0 0 1 1.747-1.85c.746-.444 1.61-.666 2.59-.666 1.005 0 1.88.225 2.627.675a4.624 4.624 0 0 1 1.738 1.868c.413.789.62 1.699.62 2.729 0 1.035-.21 1.951-.63 2.746a4.638 4.638 0 0 1-1.738 1.859c-.746.444-1.618.666-2.617.666Zm0-2.09c.888 0 1.547-.296 1.98-.888.43-.592.646-1.356.646-2.293 0-.968-.218-1.739-.656-2.313-.438-.579-1.094-.869-1.97-.869-.598 0-1.091.136-1.48.407-.382.265-.666.638-.85 1.119-.185.475-.278 1.027-.278 1.656 0 .967.219 1.741.657 2.321.444.573 1.094.86 1.951.86Zm19.017 1.813v-6.067c0-.685-.17-1.218-.508-1.6-.34-.389-.799-.583-1.379-.583a1.86 1.86 0 0 0-.961.25c-.284.16-.509.401-.675.721-.167.315-.25.691-.25 1.129l-.99-.583c-.006-.691.148-1.298.463-1.822a3.38 3.38 0 0 1 1.294-1.239 3.722 3.722 0 0 1 1.813-.444c1.104 0 1.948.333 2.534.999.592.659.888 1.529.888 2.608v6.631h-2.229Zm-12.013 0v-9.988h1.97v3.098h.277v6.89h-2.247Zm6.02 0v-6.04c0-.696-.17-1.239-.508-1.627-.34-.389-.802-.583-1.388-.583-.567 0-1.023.194-1.368.583-.34.388-.509.894-.509 1.517l-.999-.666c0-.648.16-1.23.481-1.748.32-.518.752-.925 1.295-1.221a3.753 3.753 0 0 1 1.84-.453c.746 0 1.37.16 1.869.481.505.314.881.746 1.128 1.294.253.543.379 1.156.379 1.841v6.622h-2.22Zm22.629 0v-6.067c0-.685-.17-1.218-.509-1.6-.339-.389-.798-.583-1.378-.583a1.86 1.86 0 0 0-.962.25c-.283.16-.508.401-.675.721-.166.315-.25.691-.25 1.129l-.989-.583c-.006-.691.148-1.298.463-1.822a3.38 3.38 0 0 1 1.294-1.239 3.722 3.722 0 0 1 1.813-.444c1.103 0 1.948.333 2.534.999.592.659.888 1.529.888 2.608v6.631h-2.23Zm-12.013 0v-9.988h1.97v3.098h.277v6.89h-2.247Zm6.02 0v-6.04c0-.696-.17-1.239-.508-1.627-.34-.389-.802-.583-1.388-.583-.567 0-1.023.194-1.368.583-.34.388-.51.894-.51 1.517l-.998-.666c0-.648.16-1.23.481-1.748.32-.518.752-.925 1.295-1.221a3.752 3.752 0 0 1 1.84-.453c.746 0 1.369.16 1.868.481.506.314.882.746 1.129 1.294.252.543.379 1.156.379 1.841v6.622h-2.22Zm15.012.277c-1.011 0-1.899-.219-2.663-.657a4.67 4.67 0 0 1-1.794-1.822c-.426-.776-.639-1.67-.639-2.682 0-1.091.21-2.037.63-2.839a4.598 4.598 0 0 1 1.747-1.877c.746-.444 1.61-.666 2.59-.666 1.035 0 1.914.244 2.635.731.728.481 1.267 1.162 1.619 2.044.351.881.484 1.92.397 3.116h-2.21v-.814c-.006-1.085-.197-1.877-.573-2.376-.376-.5-.968-.75-1.776-.75-.912 0-1.59.284-2.034.851-.444.561-.666 1.384-.666 2.47 0 1.011.222 1.794.666 2.349.444.554 1.09.832 1.942.832.548 0 1.02-.12 1.415-.361.4-.246.709-.601.925-1.063l2.201.666a4.472 4.472 0 0 1-1.776 2.099 4.861 4.861 0 0 1-2.636.749Zm-3.44-4.652v-1.683h6.871v1.683h-6.871Zm16.663 4.375v-4.81c0-.314-.021-.662-.064-1.045a3.613 3.613 0 0 0-.306-1.1 2.085 2.085 0 0 0-.702-.879c-.309-.228-.728-.342-1.258-.342-.284 0-.564.046-.842.139a1.93 1.93 0 0 0-.758.481c-.222.222-.401.53-.536.925-.136.388-.204.887-.204 1.498l-1.322-.564c0-.851.163-1.622.49-2.312.333-.691.82-1.24 1.461-1.647.641-.413 1.43-.619 2.367-.619.74 0 1.351.123 1.832.37a3.22 3.22 0 0 1 1.146.943c.284.382.494.789.629 1.221.136.431.222.841.259 1.23.043.382.065.693.065.934v5.577h-2.257Zm-6.926 0v-9.988h1.988v3.098h.268v6.89h-2.256Zm17.45 0a9.153 9.153 0 0 1-1.942.157c-.629-.013-1.193-.127-1.692-.342a2.348 2.348 0 0 1-1.138-1.045 2.979 2.979 0 0 1-.36-1.323c-.013-.45-.019-.959-.019-1.526v-8.684h2.22v8.555c0 .4.003.752.009 1.054.012.302.077.549.194.74.222.37.577.576 1.064.619a7.063 7.063 0 0 0 1.664-.074v1.869Zm-6.964-8.241v-1.747h6.964v1.747h-6.964Zm15.608 8.518c-.722 0-1.332-.136-1.831-.407a2.873 2.873 0 0 1-1.138-1.1 3.06 3.06 0 0 1-.379-1.508c0-.481.08-.912.24-1.295.161-.388.407-.721.74-.998.333-.284.765-.515 1.295-.694.401-.13.869-.247 1.406-.352a33.24 33.24 0 0 1 1.757-.286c.635-.093 1.298-.191 1.988-.296l-.795.453c.006-.691-.148-1.199-.462-1.526-.315-.327-.845-.49-1.591-.49-.45 0-.885.105-1.304.314-.419.21-.712.571-.879 1.082l-2.034-.638a3.777 3.777 0 0 1 1.405-2.034c.697-.512 1.634-.768 2.812-.768.888 0 1.668.145 2.34.435.678.29 1.18.764 1.507 1.424.179.351.287.712.324 1.082.037.364.055.761.055 1.193v6.132h-1.951v-2.165l.324.352c-.451.721-.978 1.251-1.582 1.591-.598.332-1.347.499-2.247.499Zm.444-1.776c.505 0 .937-.089 1.294-.268.358-.179.642-.398.851-.657.216-.258.361-.502.435-.73.117-.284.182-.607.194-.971.019-.37.028-.669.028-.897l.684.203c-.672.105-1.248.198-1.729.278-.481.08-.894.157-1.239.231a7.963 7.963 0 0 0-.916.231c-.259.093-.478.2-.657.324a1.445 1.445 0 0 0-.416.425c-.092.16-.138.349-.138.564 0 .247.061.466.185.657.123.185.302.333.536.444.24.111.536.166.888.166Zm7.605 1.499v-13.595h2.229v13.595h-2.229Zm5.184 0v-13.595h2.229v13.595h-2.229Zm9.54.277c-1.011 0-1.899-.219-2.664-.657a4.676 4.676 0 0 1-1.794-1.822c-.425-.776-.638-1.67-.638-2.682 0-1.091.21-2.037.629-2.839a4.596 4.596 0 0 1 1.748-1.877c.746-.444 1.609-.666 2.589-.666 1.036 0 1.915.244 2.636.731.728.481 1.267 1.162 1.618 2.044.352.881.484 1.92.398 3.116h-2.21v-.814c-.006-1.085-.198-1.877-.574-2.376-.376-.5-.968-.75-1.775-.75-.913 0-1.591.284-2.035.851-.444.561-.666 1.384-.666 2.47 0 1.011.222 1.794.666 2.349.444.554 1.091.832 1.942.832.549 0 1.021-.12 1.415-.361.401-.246.709-.601.925-1.063l2.201.666a4.46 4.46 0 0 1-1.776 2.099 4.857 4.857 0 0 1-2.635.749Zm-3.441-4.652v-1.683h6.872v1.683h-6.872Zm10.027 4.375v-9.988h1.969v2.432l-.24-.315a3.56 3.56 0 0 1 .49-.906c.21-.277.459-.506.749-.684.247-.167.518-.296.814-.389.302-.098.61-.157.925-.175.314-.025.619-.013.915.037v2.08a2.86 2.86 0 0 0-1.026-.083 2.354 2.354 0 0 0-1.036.324 2.32 2.32 0 0 0-.758.638 2.708 2.708 0 0 0-.426.888 3.91 3.91 0 0 0-.138 1.063v5.078h-2.238Zm15.095.277c-.919 0-1.721-.231-2.405-.694-.684-.462-1.215-1.091-1.591-1.886-.376-.796-.564-1.693-.564-2.691 0-1.012.188-1.912.564-2.701.383-.795.922-1.421 1.619-1.877.696-.463 1.516-.694 2.46-.694.949 0 1.745.231 2.386.694.647.456 1.137 1.082 1.47 1.877.333.795.5 1.696.5 2.701 0 .992-.167 1.889-.5 2.691-.333.795-.829 1.424-1.489 1.886-.659.463-1.476.694-2.45.694Zm.342-1.998c.598 0 1.079-.135 1.442-.407.37-.277.639-.662.805-1.156.173-.493.259-1.063.259-1.71 0-.654-.086-1.224-.259-1.711-.166-.494-.428-.876-.786-1.147-.358-.278-.82-.416-1.387-.416-.598 0-1.092.148-1.48.444a2.53 2.53 0 0 0-.86 1.183 4.661 4.661 0 0 0-.278 1.647c0 .61.09 1.165.269 1.664.185.493.465.885.841 1.175.376.289.854.434 1.434.434Zm2.506 1.721v-7.011h-.277v-6.307h2.247v13.318h-1.97Zm7.356.277c-.722 0-1.332-.136-1.831-.407a2.873 2.873 0 0 1-1.138-1.1 3.06 3.06 0 0 1-.379-1.508c0-.481.08-.912.24-1.295.161-.388.407-.721.74-.998.333-.284.765-.515 1.295-.694.401-.13.869-.247 1.406-.352a33.24 33.24 0 0 1 1.757-.286c.635-.093 1.298-.191 1.988-.296l-.795.453c.006-.691-.148-1.199-.463-1.526-.314-.327-.844-.49-1.59-.49-.45 0-.885.105-1.304.314-.42.21-.712.571-.879 1.082l-2.034-.638a3.777 3.777 0 0 1 1.405-2.034c.697-.512 1.634-.768 2.812-.768.887 0 1.667.145 2.339.435.679.29 1.181.764 1.508 1.424.179.351.287.712.324 1.082.037.364.055.761.055 1.193v6.132h-1.951v-2.165l.323.352c-.45.721-.977 1.251-1.581 1.591-.598.332-1.347.499-2.247.499Zm.444-1.776c.505 0 .937-.089 1.294-.268.358-.179.642-.398.851-.657.216-.258.361-.502.435-.73.117-.284.182-.607.194-.971.019-.37.028-.669.028-.897l.684.203c-.672.105-1.248.198-1.729.278-.481.08-.894.157-1.24.231-.345.068-.65.145-.915.231-.259.093-.478.2-.657.324a1.445 1.445 0 0 0-.416.425c-.092.16-.139.349-.139.564 0 .247.062.466.185.657.124.185.302.333.537.444.24.111.536.166.888.166Zm14.328 1.499v-4.81c0-.314-.021-.662-.065-1.045a3.611 3.611 0 0 0-.305-1.1 2.08 2.08 0 0 0-.703-.879c-.308-.228-.727-.342-1.257-.342a2.63 2.63 0 0 0-.842.139 1.93 1.93 0 0 0-.758.481c-.222.222-.401.53-.537.925-.135.388-.203.887-.203 1.498l-1.323-.564c0-.851.164-1.622.49-2.312.333-.691.82-1.24 1.462-1.647.641-.413 1.43-.619 2.367-.619.74 0 1.35.123 1.831.37.481.246.863.561 1.147.943a4.1 4.1 0 0 1 .629 1.221c.136.431.222.841.259 1.23.043.382.065.693.065.934v5.577h-2.257Zm-6.927 0v-9.988h1.989v3.098h.268v6.89h-2.257Zm15.453.277c-1.233 0-2.235-.277-3.005-.832-.771-.555-1.239-1.335-1.406-2.34l2.275-.352c.117.494.376.882.777 1.166.401.283.906.425 1.517.425.536 0 .949-.105 1.239-.314.296-.216.444-.509.444-.879 0-.228-.056-.41-.167-.546-.104-.141-.339-.277-.703-.406-.363-.13-.921-.293-1.673-.491-.839-.222-1.505-.459-1.998-.712-.493-.259-.848-.564-1.064-.915-.215-.352-.323-.777-.323-1.277 0-.622.163-1.165.49-1.627.327-.463.783-.817 1.369-1.064.585-.253 1.276-.379 2.071-.379.777 0 1.465.12 2.063.361.604.24 1.091.582 1.461 1.026.37.444.598.965.684 1.563l-2.275.407a1.432 1.432 0 0 0-.583-1.008c-.326-.247-.764-.385-1.313-.416-.524-.031-.946.049-1.267.24-.32.185-.481.447-.481.786 0 .192.065.355.195.491.129.135.388.271.776.407.395.135.981.302 1.758.499.795.203 1.43.438 1.905.703.481.259.826.57 1.035.934.216.364.324.804.324 1.322 0 1.005-.367 1.794-1.1 2.368-.728.573-1.736.86-3.025.86Zm10.039-.277v-13.595h2.228v13.595h-2.228Zm9.539.277c-1.011 0-1.899-.219-2.663-.657a4.663 4.663 0 0 1-1.794-1.822c-.426-.776-.638-1.67-.638-2.682 0-1.091.209-2.037.629-2.839a4.594 4.594 0 0 1 1.747-1.877c.746-.444 1.61-.666 2.59-.666 1.036 0 1.914.244 2.636.731.727.481 1.267 1.162 1.618 2.044.352.881.484 1.92.398 3.116h-2.211v-.814c-.006-1.085-.197-1.877-.573-2.376-.376-.5-.968-.75-1.776-.75-.912 0-1.59.284-2.034.851-.444.561-.666 1.384-.666 2.47 0 1.011.222 1.794.666 2.349.444.554 1.091.832 1.942.832.549 0 1.02-.12 1.415-.361.401-.246.709-.601.925-1.063l2.201.666a4.46 4.46 0 0 1-1.776 2.099 4.86 4.86 0 0 1-2.636.749Zm-3.44-4.652v-1.683h6.871v1.683h-6.871Zm13.883 4.652c-1.233 0-2.235-.277-3.006-.832-.771-.555-1.239-1.335-1.406-2.34l2.275-.352c.118.494.376.882.777 1.166.401.283.907.425 1.517.425.536 0 .949-.105 1.239-.314.296-.216.444-.509.444-.879 0-.228-.055-.41-.166-.546-.105-.141-.339-.277-.703-.406-.364-.13-.922-.293-1.674-.491-.839-.222-1.505-.459-1.998-.712-.493-.259-.847-.564-1.063-.915-.216-.352-.324-.777-.324-1.277 0-.622.163-1.165.49-1.627.327-.463.783-.817 1.369-1.064.586-.253 1.276-.379 2.071-.379.777 0 1.465.12 2.063.361.604.24 1.091.582 1.461 1.026.37.444.598.965.684 1.563l-2.275.407a1.431 1.431 0 0 0-.582-1.008c-.327-.247-.765-.385-1.314-.416-.524-.031-.946.049-1.267.24-.32.185-.48.447-.48.786 0 .192.064.355.194.491.129.135.388.271.777.407.394.135.98.302 1.757.499.795.203 1.43.438 1.905.703.481.259.826.57 1.036.934.215.364.323.804.323 1.322 0 1.005-.366 1.794-1.1 2.368-.728.573-1.736.86-3.024.86Zm-198.307 25c-.974 0-1.791-.231-2.45-.694-.66-.462-1.157-1.091-1.49-1.886-.333-.802-.5-1.699-.5-2.691 0-1.005.167-1.906.5-2.701.333-.795.82-1.421 1.462-1.877.647-.463 1.445-.694 2.395-.694.943 0 1.76.231 2.45.694.697.456 1.237 1.082 1.619 1.877.382.789.573 1.689.573 2.701 0 .998-.188 1.895-.564 2.691-.376.795-.906 1.424-1.59 1.886-.685.463-1.486.694-2.405.694Zm-4.818-.277v-13.318h2.247v6.307h-.277v7.011h-1.97Zm4.476-1.721c.58 0 1.057-.145 1.433-.434.376-.29.654-.682.833-1.175a4.758 4.758 0 0 0 .277-1.664c0-.605-.092-1.153-.277-1.647-.185-.499-.472-.894-.86-1.183-.389-.296-.882-.444-1.48-.444-.567 0-1.03.138-1.387.416-.358.271-.623.653-.796 1.147-.166.487-.25 1.057-.25 1.711 0 .647.084 1.217.25 1.71.173.494.441.879.805 1.156.37.272.854.407 1.452.407Zm11.351 1.998c-.999 0-1.871-.225-2.617-.675a4.638 4.638 0 0 1-1.739-1.859c-.407-.795-.61-1.708-.61-2.737 0-1.049.21-1.967.629-2.756a4.633 4.633 0 0 1 1.748-1.85c.746-.444 1.609-.666 2.59-.666 1.004 0 1.88.225 2.626.675a4.624 4.624 0 0 1 1.738 1.868c.413.789.62 1.699.62 2.729 0 1.035-.21 1.951-.629 2.746a4.638 4.638 0 0 1-1.739 1.859c-.746.444-1.618.666-2.617.666Zm0-2.09c.888 0 1.548-.296 1.98-.888.43-.592.647-1.356.647-2.293 0-.968-.22-1.739-.657-2.313-.438-.579-1.094-.869-1.97-.869-.598 0-1.091.136-1.48.407-.382.265-.665.638-.85 1.119-.185.475-.278 1.027-.278 1.656 0 .967.219 1.741.657 2.321.444.573 1.094.86 1.951.86Zm7.022 1.813v-9.988h1.97v2.432l-.24-.315c.123-.333.287-.635.49-.906.21-.277.46-.506.75-.684.246-.167.517-.296.813-.389.302-.098.61-.157.925-.175.314-.025.62-.013.915.037v2.08a2.863 2.863 0 0 0-1.026-.083 2.354 2.354 0 0 0-1.036.324 2.322 2.322 0 0 0-.758.638 2.695 2.695 0 0 0-.426.888 3.89 3.89 0 0 0-.139 1.063v5.078h-2.238Zm14.297 0v-4.81c0-.314-.022-.662-.065-1.045a3.609 3.609 0 0 0-.305-1.1 2.085 2.085 0 0 0-.703-.879c-.308-.228-.728-.342-1.258-.342-.284 0-.564.046-.842.139-.277.092-.53.253-.758.481-.222.222-.4.53-.536.925-.136.388-.204.887-.204 1.498l-1.322-.564c0-.851.163-1.622.49-2.312.333-.691.82-1.24 1.461-1.647.641-.413 1.43-.619 2.368-.619.74 0 1.35.123 1.83.37.482.246.864.561 1.148.943.283.382.493.789.628 1.221.136.431.222.841.26 1.23.043.382.064.693.064.934v5.577h-2.257Zm-6.927 0v-9.988h1.988v3.098h.268v6.89h-2.256Zm15.975.277c-1.011 0-1.9-.219-2.664-.657a4.67 4.67 0 0 1-1.794-1.822c-.425-.776-.638-1.67-.638-2.682 0-1.091.21-2.037.629-2.839a4.597 4.597 0 0 1 1.748-1.877c.746-.444 1.609-.666 2.59-.666 1.035 0 1.913.244 2.635.731.727.481 1.267 1.162 1.618 2.044.352.881.484 1.92.398 3.116h-2.21v-.814c-.007-1.085-.198-1.877-.574-2.376-.376-.5-.968-.75-1.775-.75-.913 0-1.591.284-2.035.851-.444.561-.666 1.384-.666 2.47 0 1.011.222 1.794.666 2.349.444.554 1.091.832 1.942.832.549 0 1.02-.12 1.415-.361.4-.246.71-.601.925-1.063l2.201.666a4.464 4.464 0 0 1-1.776 2.099 4.861 4.861 0 0 1-2.635.749Zm-3.44-4.652v-1.683h6.87v1.683h-6.87Zm13.882 4.652c-1.233 0-2.235-.277-3.006-.832-.77-.555-1.239-1.335-1.405-2.34l2.275-.352c.117.494.376.882.776 1.166.401.283.907.425 1.517.425.537 0 .95-.105 1.24-.314.295-.216.443-.509.443-.879 0-.228-.055-.41-.166-.546-.105-.141-.34-.277-.703-.406-.364-.13-.922-.293-1.674-.491-.838-.222-1.504-.459-1.998-.712-.493-.259-.847-.564-1.063-.915-.216-.352-.324-.777-.324-1.277 0-.622.164-1.165.49-1.627.327-.463.783-.817 1.37-1.064.585-.253 1.275-.379 2.07-.379.778 0 1.465.12 2.063.361.604.24 1.091.582 1.461 1.026.37.444.598.965.685 1.563l-2.275.407a1.434 1.434 0 0 0-.583-1.008c-.327-.247-.765-.385-1.313-.416-.524-.031-.947.049-1.267.24-.32.185-.481.447-.481.786 0 .192.064.355.194.491.13.135.388.271.777.407.394.135.98.302 1.757.499.795.203 1.43.438 1.905.703.481.259.826.57 1.036.934.216.364.324.804.324 1.322 0 1.005-.367 1.794-1.1 2.368-.729.573-1.737.86-3.025.86Zm13.858 0c-.919 0-1.721-.231-2.405-.694-.684-.462-1.215-1.091-1.591-1.886-.376-.796-.564-1.693-.564-2.691 0-1.012.188-1.912.564-2.701.383-.795.922-1.421 1.619-1.877.696-.463 1.516-.694 2.46-.694.949 0 1.745.231 2.386.694.647.456 1.137 1.082 1.47 1.877.333.795.5 1.696.5 2.701 0 .992-.167 1.889-.5 2.691-.333.795-.829 1.424-1.489 1.886-.659.463-1.476.694-2.45.694Zm.342-1.998c.598 0 1.079-.135 1.442-.407.37-.277.639-.662.805-1.156.173-.493.259-1.063.259-1.71 0-.654-.086-1.224-.259-1.711-.166-.494-.429-.876-.786-1.147-.358-.278-.82-.416-1.387-.416-.598 0-1.092.148-1.48.444a2.53 2.53 0 0 0-.86 1.183 4.661 4.661 0 0 0-.278 1.647c0 .61.09 1.165.269 1.664.185.493.465.885.841 1.175.376.289.854.434 1.434.434Zm2.506 1.721v-7.011h-.278v-6.307h2.248v13.318h-1.97Zm9.104.277c-1.012 0-1.899-.219-2.664-.657a4.676 4.676 0 0 1-1.794-1.822c-.425-.776-.638-1.67-.638-2.682 0-1.091.209-2.037.629-2.839a4.596 4.596 0 0 1 1.748-1.877c.746-.444 1.609-.666 2.589-.666 1.036 0 1.914.244 2.636.731.727.481 1.267 1.162 1.618 2.044.352.881.484 1.92.398 3.116h-2.21v-.814c-.007-1.085-.198-1.877-.574-2.376-.376-.5-.968-.75-1.775-.75-.913 0-1.591.284-2.035.851-.444.561-.666 1.384-.666 2.47 0 1.011.222 1.794.666 2.349.444.554 1.091.832 1.942.832.549 0 1.02-.12 1.415-.361.401-.246.709-.601.925-1.063l2.201.666a4.46 4.46 0 0 1-1.776 2.099 4.86 4.86 0 0 1-2.635.749Zm-3.441-4.652v-1.683h6.872v1.683h-6.872Zm13.914 4.375v-13.595h2.229v13.595h-2.229Zm7.792.277c-.721 0-1.332-.136-1.831-.407a2.87 2.87 0 0 1-1.137-1.1 3.06 3.06 0 0 1-.38-1.508c0-.481.08-.912.241-1.295.16-.388.407-.721.74-.998.333-.284.764-.515 1.294-.694.401-.13.87-.247 1.406-.352a33.41 33.41 0 0 1 1.757-.286c.635-.093 1.298-.191 1.989-.296l-.796.453c.006-.691-.148-1.199-.462-1.526-.315-.327-.845-.49-1.591-.49-.45 0-.885.105-1.304.314-.419.21-.712.571-.878 1.082l-2.035-.638a3.779 3.779 0 0 1 1.406-2.034c.696-.512 1.634-.768 2.811-.768.888 0 1.668.145 2.34.435.678.29 1.181.764 1.507 1.424.179.351.287.712.324 1.082.037.364.056.761.056 1.193v6.132h-1.952v-2.165l.324.352c-.45.721-.977 1.251-1.582 1.591-.598.332-1.347.499-2.247.499Zm.444-1.776c.506 0 .937-.089 1.295-.268.357-.179.641-.398.851-.657.215-.258.36-.502.434-.73.117-.284.182-.607.195-.971.018-.37.027-.669.027-.897l.685.203c-.672.105-1.249.198-1.73.278-.481.08-.894.157-1.239.231a8.07 8.07 0 0 0-.916.231c-.259.093-.477.2-.656.324a1.421 1.421 0 0 0-.416.425c-.093.16-.139.349-.139.564 0 .247.062.466.185.657.123.185.302.333.536.444.241.111.537.166.888.166Zm11.123 1.499v-13.318h5.503c.129 0 .296.006.499.019.204.006.392.024.564.055.771.117 1.406.373 1.905.768.506.394.879.894 1.119 1.498.247.598.37 1.264.37 1.998 0 1.085-.274 2.019-.823 2.802-.548.777-1.39 1.258-2.524 1.442l-.953.084h-3.431v4.652h-2.229Zm7.648 0-2.626-5.42 2.266-.499 2.885 5.919h-2.525Zm-5.419-6.733h3.181c.124 0 .262-.006.416-.019.155-.012.296-.037.426-.074.37-.092.66-.255.869-.49a1.97 1.97 0 0 0 .453-.795 2.89 2.89 0 0 0 .139-.869c0-.284-.046-.574-.139-.87a1.963 1.963 0 0 0-.453-.804c-.209-.235-.499-.398-.869-.49a1.803 1.803 0 0 0-.426-.065 4.963 4.963 0 0 0-.416-.019h-3.181v4.495Zm9.057 6.733 4.198-13.318h3.265l4.199 13.318h-2.294l-3.81-11.949h.499l-3.764 11.949h-2.293Zm2.339-2.886v-2.081h6.992v2.081h-6.992Zm13.093 2.886v-11.228h-4.31v-2.09h10.848v2.09h-4.31v11.228h-2.228Zm8.017 0v-13.318h5.502c.13 0 .296.006.5.019.203.006.391.024.564.055.771.117 1.406.373 1.905.768.506.394.879.894 1.119 1.498.247.598.37 1.264.37 1.998 0 .727-.123 1.393-.37 1.997a3.599 3.599 0 0 1-1.128 1.489c-.5.395-1.132.651-1.896.768a7.167 7.167 0 0 1-.573.055 8.011 8.011 0 0 1-.491.019h-3.273v4.652h-2.229Zm2.229-6.733h3.181c.123 0 .262-.006.416-.019.154-.012.296-.037.425-.074.37-.092.66-.255.87-.49a1.97 1.97 0 0 0 .453-.795c.092-.296.139-.586.139-.869 0-.284-.047-.574-.139-.87a1.963 1.963 0 0 0-.453-.804c-.21-.235-.5-.398-.87-.49a1.794 1.794 0 0 0-.425-.065 4.981 4.981 0 0 0-.416-.019h-3.181v4.495Z" fill="#000"/><g filter="url(#k)"><circle cx="294.988" cy="617.973" r="19.884" fill="#fff"/><g clip-path="url(#l)"><path d="m299.309 617.511-4.961-4.961 1.308-1.307 7.193 7.193-7.193 7.193-1.308-1.308 4.961-4.96h-11.257v-1.85h11.257Z" fill="#000"/></g></g><mask id="m" fill="#fff"><path d="M2.749 687.402h345.263v63.789H2.749v-63.789Z"/></mask><path d="M2.749 687.402h345.263v63.789H2.749v-63.789Z" fill="#fff"/><path d="M2.749 688.481h345.263v-2.158H2.749v2.158Z" fill="#CCC" fill-opacity=".8" mask="url(#m)"/><path d="M28.538 716.379v-9.71l6.474-4.891 6.474 4.891v9.71h-4.802v-5.905H33.34v5.905h-4.802ZM20.184 737.71l2.141-6.214h.842l2.14 6.214h-.66l-2.033-5.86h.25l-2.02 5.86h-.66Zm.954-1.506v-.595h3.211v.595h-3.21Zm6.882 1.636c-.469 0-.866-.105-1.191-.315a2.005 2.005 0 0 1-.742-.868 3.18 3.18 0 0 1-.26-1.277c.006-.489.095-.918.268-1.286.173-.371.422-.659.747-.863.325-.207.72-.311 1.182-.311.472 0 .882.115 1.23.345.351.23.592.545.721.945l-.621.199a1.31 1.31 0 0 0-.523-.647 1.438 1.438 0 0 0-.811-.234c-.342 0-.626.08-.85.238a1.376 1.376 0 0 0-.5.652c-.11.279-.166.599-.17.962.007.558.136 1.007.39 1.346.252.337.63.505 1.13.505.317 0 .585-.072.807-.215.224-.147.394-.36.51-.639l.638.19c-.173.414-.426.731-.76.949-.333.216-.732.324-1.195.324Zm4.653 0c-.469 0-.866-.105-1.191-.315a2.005 2.005 0 0 1-.742-.868 3.18 3.18 0 0 1-.26-1.277c.006-.489.096-.918.268-1.286.173-.371.422-.659.747-.863.325-.207.72-.311 1.182-.311.472 0 .882.115 1.23.345.351.23.592.545.721.945l-.621.199a1.31 1.31 0 0 0-.523-.647 1.437 1.437 0 0 0-.811-.234c-.342 0-.626.08-.85.238a1.376 1.376 0 0 0-.5.652c-.11.279-.166.599-.17.962.007.558.136 1.007.39 1.346.252.337.63.505 1.13.505.316 0 .585-.072.807-.215.224-.147.394-.36.51-.639l.638.19c-.173.414-.426.731-.76.949-.333.216-.732.324-1.195.324Zm4.628-.013c-.279 0-.523-.043-.733-.129a1.632 1.632 0 0 1-.531-.35 1.849 1.849 0 0 1-.35-.501c-.089-.19-.154-.39-.194-.6a3.401 3.401 0 0 1-.06-.634v-2.564h.638v2.378c0 .256.025.494.074.713.049.218.126.41.233.574.11.161.249.286.418.375.173.089.382.134.626.134.225 0 .422-.039.591-.117.173-.077.317-.188.432-.332.118-.147.207-.324.268-.531.06-.21.09-.446.09-.708l.449.1c0 .477-.083.879-.25 1.204a1.735 1.735 0 0 1-.69.738c-.294.167-.63.25-1.01.25Zm1.567-.117v-1.148h-.065v-3.513h.635v4.661h-.57Zm3.748.13c-.454 0-.849-.101-1.182-.302a2.055 2.055 0 0 1-.773-.85c-.184-.366-.276-.794-.276-1.286 0-.51.09-.95.272-1.321a2.02 2.02 0 0 1 .764-.859c.33-.201.72-.302 1.17-.302.46 0 .852.106 1.178.319.325.21.57.512.738.907.166.394.243.864.228 1.411h-.647v-.225c-.012-.604-.142-1.06-.393-1.368-.247-.308-.61-.461-1.087-.461-.501 0-.885.162-1.153.487-.264.325-.397.789-.397 1.39 0 .587.133 1.043.397 1.368.268.322.646.483 1.135.483.334 0 .625-.076.872-.228.25-.156.447-.379.591-.669l.592.228a2.117 2.117 0 0 1-.816.946 2.256 2.256 0 0 1-1.213.332Zm-1.782-2.283v-.531h3.56v.531h-3.56Zm4.945-3.392v-.712h.635v.712h-.635Zm0 5.545v-4.661h.635v4.661h-.635Zm2.015 0v-6.344h.634v6.344h-.634ZM133.42 713.818c.205 0 .378-.07.518-.211a.71.71 0 0 0 .21-.518.703.703 0 0 0-.211-.518.71.71 0 0 0-.518-.211.702.702 0 0 0-.518.212.705.705 0 0 0-.211.518.7.7 0 0 0 .213.518c.14.14.313.211.517.211m-.477-3.063h.893c.023-.402.099-.729.226-.981.128-.25.39-.571.787-.961.413-.413.72-.782.921-1.109.202-.327.303-.705.303-1.134 0-.729-.256-1.31-.768-1.742-.512-.433-1.118-.65-1.818-.65-.665 0-1.23.181-1.694.542-.464.362-.804.778-1.02 1.247l.851.352a2.7 2.7 0 0 1 .635-.892c.276-.259.673-.389 1.193-.389.6 0 1.038.165 1.313.494.277.33.415.691.415 1.086 0 .321-.086.607-.259.858a4.474 4.474 0 0 1-.676.76c-.536.495-.887.914-1.054 1.258-.165.344-.248.764-.248 1.261Zm.454 6.548a8.13 8.13 0 0 1-3.246-.654 8.44 8.44 0 0 1-2.644-1.78 8.398 8.398 0 0 1-1.78-2.641 8.099 8.099 0 0 1-.656-3.245c0-1.151.219-2.233.655-3.246a8.408 8.408 0 0 1 1.779-2.644 8.405 8.405 0 0 1 2.642-1.781 8.098 8.098 0 0 1 3.245-.655 8.13 8.13 0 0 1 3.246.654 8.44 8.44 0 0 1 2.644 1.78 8.38 8.38 0 0 1 1.78 2.641 8.099 8.099 0 0 1 .656 3.245 8.106 8.106 0 0 1-.655 3.246 8.408 8.408 0 0 1-1.779 2.644 8.395 8.395 0 0 1-2.641 1.781 8.106 8.106 0 0 1-3.246.655ZM119.015 737.84c-.619 0-1.141-.137-1.567-.41a2.602 2.602 0 0 1-.967-1.144c-.218-.486-.328-1.047-.328-1.683 0-.636.11-1.197.328-1.683.219-.486.541-.866.967-1.139.426-.277.948-.415 1.567-.415.722 0 1.312.186 1.769.557.458.368.771.863.941 1.485l-.647.168c-.133-.492-.37-.882-.712-1.17-.343-.287-.793-.431-1.351-.431-.486 0-.891.111-1.213.332a2.04 2.04 0 0 0-.729.928c-.161.394-.245.85-.251 1.368-.002.518.077.974.238 1.368.164.394.408.704.733.928.328.222.736.332 1.222.332.558 0 1.008-.143 1.351-.431.342-.291.579-.681.712-1.17l.647.169c-.17.621-.483 1.117-.941 1.489-.457.368-1.047.552-1.769.552Zm5.609 0c-.463 0-.859-.105-1.187-.315a2.047 2.047 0 0 1-.755-.872 2.947 2.947 0 0 1-.264-1.277c0-.49.09-.918.268-1.286a2.02 2.02 0 0 1 .76-.859c.33-.207.723-.311 1.178-.311.466 0 .863.105 1.191.315.331.207.583.496.755.867.176.369.264.793.264 1.274 0 .489-.088.919-.264 1.29a2.012 2.012 0 0 1-.759.863c-.331.207-.727.311-1.187.311Zm0-.609c.518 0 .903-.171 1.156-.513.254-.345.38-.793.38-1.342 0-.564-.128-1.013-.384-1.347-.253-.334-.637-.501-1.152-.501-.348 0-.636.08-.863.238a1.397 1.397 0 0 0-.505.652c-.11.276-.164.595-.164.958 0 .561.129 1.011.388 1.35.259.337.64.505 1.144.505Zm6.528.479v-2.378c0-.258-.025-.496-.074-.712a1.632 1.632 0 0 0-.237-.569 1.08 1.08 0 0 0-.419-.38 1.32 1.32 0 0 0-.621-.134c-.224 0-.423.039-.596.117-.169.077-.313.19-.431.336-.115.144-.203.32-.263.527a2.508 2.508 0 0 0-.091.708l-.449-.1c0-.477.084-.879.25-1.204.167-.325.397-.571.691-.738.293-.167.63-.25 1.01-.25.279 0 .522.043.729.129.21.087.387.203.531.35.147.147.265.315.354.505.089.187.154.387.194.6.04.21.061.42.061.63v2.563h-.639Zm-3.371 0v-4.661h.574v1.148h.065v3.513h-.639Zm6.869.126c-.547 0-.997-.118-1.351-.354a1.473 1.473 0 0 1-.647-.984l.647-.108c.069.265.226.476.47.634.248.156.553.233.915.233.354 0 .633-.073.838-.22a.714.714 0 0 0 .306-.608.574.574 0 0 0-.099-.35c-.064-.092-.194-.177-.393-.255a9.664 9.664 0 0 0-.889-.276 6.018 6.018 0 0 1-.993-.345c-.238-.115-.408-.247-.509-.397a.987.987 0 0 1-.151-.557c0-.265.075-.496.224-.695.15-.201.357-.356.622-.466.265-.112.572-.168.923-.168.352 0 .665.057.941.173.279.112.504.27.674.474.169.205.27.442.302.712l-.648.117a.929.929 0 0 0-.41-.647c-.227-.162-.516-.245-.867-.251-.331-.008-.6.055-.807.19-.207.132-.311.309-.311.531 0 .124.037.23.112.319.075.087.21.169.406.246.198.078.48.163.846.255.429.109.765.224 1.01.345.244.121.418.264.522.428.104.164.155.366.155.608 0 .44-.164.787-.492 1.04-.325.25-.774.376-1.346.376Zm4.768.004c-.455 0-.849-.101-1.183-.302a2.053 2.053 0 0 1-.772-.85c-.184-.366-.276-.794-.276-1.286 0-.51.09-.95.271-1.321.182-.371.436-.658.764-.859.331-.201.721-.302 1.17-.302.46 0 .853.106 1.178.319.325.21.571.512.738.907.167.394.243.864.229 1.411h-.648v-.225c-.011-.604-.142-1.06-.392-1.368-.248-.308-.61-.461-1.088-.461-.5 0-.885.162-1.152.487-.265.325-.397.789-.397 1.39 0 .587.132 1.043.397 1.368.267.322.646.483 1.135.483.334 0 .624-.076.872-.228a1.61 1.61 0 0 0 .591-.669l.591.228a2.12 2.12 0 0 1-.815.946 2.257 2.257 0 0 1-1.213.332Zm-1.783-2.283v-.531h3.561v.531h-3.561Zm4.946-3.392v-.712h.634v.712h-.634Zm0 5.545v-4.661h.634v4.661h-.634Zm2.015 0v-6.344h.634v6.344h-.634Zm3.667.126c-.547 0-.997-.118-1.351-.354a1.473 1.473 0 0 1-.647-.984l.647-.108c.069.265.226.476.471.634.247.156.552.233.915.233.354 0 .633-.073.837-.22a.714.714 0 0 0 .306-.608.574.574 0 0 0-.099-.35c-.063-.092-.194-.177-.393-.255a9.564 9.564 0 0 0-.889-.276 5.968 5.968 0 0 1-.992-.345c-.239-.115-.409-.247-.51-.397a.995.995 0 0 1-.151-.557c0-.265.075-.496.225-.695.149-.201.356-.356.621-.466.265-.112.573-.168.924-.168.351 0 .664.057.941.173.279.112.503.27.673.474.17.205.27.442.302.712l-.647.117a.935.935 0 0 0-.41-.647c-.228-.162-.517-.245-.868-.251-.331-.008-.6.055-.807.19-.207.132-.311.309-.311.531 0 .124.038.23.113.319.074.087.21.169.405.246.199.078.481.163.846.255.429.109.765.224 1.01.345.245.121.419.264.522.428.104.164.156.366.156.608 0 .44-.164.787-.492 1.04-.326.25-.774.376-1.347.376ZM219.029 702.644c-.403.458-.403 1.246-.403 2.82v8.688c0 1.115 0 1.673.291 2.093.291.42.799.596 1.817.949l1.196.415c.649.225 1.147.397 1.566.508.274.074.524-.141.524-.424v-14.011a.507.507 0 0 0-.393-.481c-.359-.091-.792-.241-1.385-.447-1.436-.498-2.155-.747-2.7-.494-.196.09-.371.221-.513.384Zm9.418-1.541-1.42.985c-.513.356-.891.617-1.212.803a.512.512 0 0 0-.183.178.507.507 0 0 0-.07.246v13.916c0 .342.355.556.644.371.31-.198.665-.444 1.095-.741l1.42-.985c.513-.356.891-.618 1.212-.804a.496.496 0 0 0 .253-.424v-13.916c0-.343-.355-.557-.644-.373-.309.199-.664.445-1.095.744Zm6.567-.334-1.196-.414c-.648-.225-1.147-.398-1.566-.509-.274-.073-.524.141-.524.424v14.011a.508.508 0 0 0 .393.481c.36.092.792.241 1.385.447 1.436.498 2.155.747 2.701.495.195-.091.37-.222.512-.384.403-.459.403-1.247.403-2.821v-8.687c0-1.116 0-1.674-.291-2.093-.29-.42-.799-.597-1.816-.949M218.478 737.71v-6.214h2.4c.348 0 .651.072.91.216.259.143.461.338.605.582.144.242.215.509.215.803 0 .334-.089.631-.267.893a1.387 1.387 0 0 1-.717.54l-.008-.212c.403.115.719.317.949.604.23.288.346.636.346 1.045 0 .36-.077.67-.229.932a1.547 1.547 0 0 1-.643.6 2.09 2.09 0 0 1-.963.211h-2.598Zm.639-.608h1.804c.253 0 .48-.045.682-.134.201-.092.36-.221.475-.388.118-.167.177-.369.177-.604a1.21 1.21 0 0 0-.596-1.062 1.157 1.157 0 0 0-.622-.168h-1.92v2.356Zm0-2.956h1.756c.199 0 .38-.045.544-.134a1.033 1.033 0 0 0 .535-.924.92.92 0 0 0-.306-.716c-.201-.184-.459-.276-.773-.276h-1.756v2.05Zm4.741-1.981v-.712h.635v.712h-.635Zm0 5.545v-4.661h.635v4.661h-.635Zm2.015 0v-6.344h.634v6.344h-.634Zm2.014 0v-6.344h.635v6.344h-.635Zm3.901.13c-.455 0-.849-.101-1.183-.302a2.06 2.06 0 0 1-.772-.85c-.184-.366-.276-.794-.276-1.286 0-.51.09-.95.272-1.321.181-.371.435-.658.763-.859.331-.201.721-.302 1.17-.302.46 0 .853.106 1.178.319.325.21.571.512.738.907.167.394.243.864.229 1.411h-.647v-.225c-.012-.604-.143-1.06-.393-1.368-.248-.308-.61-.461-1.088-.461-.5 0-.884.162-1.152.487-.265.325-.397.789-.397 1.39 0 .587.132 1.043.397 1.368.268.322.646.483 1.135.483.334 0 .624-.076.872-.228a1.61 1.61 0 0 0 .591-.669l.591.228a2.12 2.12 0 0 1-.815.946 2.257 2.257 0 0 1-1.213.332Zm-1.782-2.283v-.531h3.56v.531h-3.56Zm7.396 2.153c-.261.055-.52.077-.776.065a1.707 1.707 0 0 1-.682-.164.98.98 0 0 1-.453-.457 1.346 1.346 0 0 1-.139-.522 21.887 21.887 0 0 1-.008-.609v-4.268h.63v4.242c0 .196.001.36.004.492a.78.78 0 0 0 .091.345.65.65 0 0 0 .492.346c.227.037.508.028.841-.026v.556Zm-3.055-4.117v-.544h3.055v.544h-3.055ZM322.808 719.77h-10.013a3.658 3.658 0 0 1-3.431-4.478l.259-1.23a3.55 3.55 0 0 1 3.42-2.924h9.517a3.55 3.55 0 0 1 3.42 2.924l.259 1.23a3.658 3.658 0 0 1-3.431 4.478ZM318.341 708.98h-1.079a4.316 4.316 0 0 1-4.316-4.315v-2.849a3.61 3.61 0 0 1 1.059-2.566 3.611 3.611 0 0 1 2.567-1.059h2.46a3.61 3.61 0 0 1 2.566 1.059 3.61 3.61 0 0 1 1.059 2.566v2.849a4.316 4.316 0 0 1-4.316 4.315ZM307.906 739.56v-6.215h2.4a3.06 3.06 0 0 1 .435.034c.326.049.6.163.825.341.227.176.398.397.513.665.118.268.177.564.177.889 0 .322-.059.617-.177.885a1.72 1.72 0 0 1-.518.669 1.725 1.725 0 0 1-.82.336 3.018 3.018 0 0 1-.435.035h-1.766v2.361h-.634Zm.634-2.965h1.748a2.157 2.157 0 0 0 .384-.039 1.07 1.07 0 0 0 .523-.263 1.2 1.2 0 0 0 .306-.462 1.533 1.533 0 0 0 0-1.114 1.191 1.191 0 0 0-.306-.466 1.07 1.07 0 0 0-.523-.263 1.128 1.128 0 0 0-.202-.026 2.157 2.157 0 0 0-.182-.009h-1.748v2.642Zm4.575 2.965v-4.661h.57v1.122l-.112-.147a1.591 1.591 0 0 1 .474-.669 1.23 1.23 0 0 1 .423-.242 1.75 1.75 0 0 1 .488-.099c.164-.012.314 0 .449.035v.595a1.544 1.544 0 0 0-.557-.03 1.057 1.057 0 0 0-.557.242 1.16 1.16 0 0 0-.349.435c-.078.167-.13.346-.155.536a4.03 4.03 0 0 0-.039.556v2.327h-.635Zm4.973.129c-.463 0-.859-.105-1.187-.315a2.047 2.047 0 0 1-.755-.872 2.947 2.947 0 0 1-.264-1.277c0-.489.09-.918.268-1.286a2.02 2.02 0 0 1 .76-.859c.33-.207.723-.311 1.178-.311.466 0 .863.105 1.191.315.331.207.583.496.755.868.176.368.263.792.263 1.273 0 .489-.087.919-.263 1.29a2.012 2.012 0 0 1-.759.863c-.331.207-.727.311-1.187.311Zm0-.608c.518 0 .903-.172 1.156-.514.254-.345.38-.793.38-1.342 0-.564-.128-1.013-.384-1.347-.253-.334-.637-.5-1.152-.5-.348 0-.636.079-.863.237a1.402 1.402 0 0 0-.505.652c-.11.276-.164.595-.164.958 0 .561.129 1.011.388 1.351.259.336.64.505 1.144.505Zm3.623.479v-5.007c0-.121.006-.24.018-.358.014-.118.041-.23.082-.337a.89.89 0 0 1 .189-.302.88.88 0 0 1 .311-.224 1.22 1.22 0 0 1 .35-.095 3.21 3.21 0 0 1 .362-.022h.596v.536h-.553c-.241 0-.422.058-.543.176-.118.118-.177.304-.177.557v5.076h-.635Zm-.807-4.118v-.543h2.715v.543h-2.715Zm3.621-1.428v-.712h.635v.712h-.635Zm0 5.546v-4.661h.635v4.661h-.635Zm2.012 0v-6.345h.634v6.345h-.634Z" fill="#000"/></g><defs><clipPath id="c"><path fill="#fff" transform="translate(31.418 118.634)" d="M0 0h32v23H0z"/></clipPath><clipPath id="l"><path fill="#fff" transform="translate(284.353 607.338)" d="M0 0h22.195v22.195H0z"/></clipPath><clipPath id="j"><path fill="#fff" transform="translate(284.353 482.488)" d="M0 0h22.195v22.195H0z"/></clipPath><clipPath id="h"><path fill="#fff" transform="translate(284.353 357.638)" d="M0 0h22.195v22.195H0z"/></clipPath><clipPath id="a"><path fill="#fff" transform="translate(.898 .255)" d="M0 0h346.805v750.947H0z"/></clipPath><clipPath id="b"><path fill="#fff" transform="translate(.9 .255)" d="M0 0h346.805v36.992H0z"/></clipPath><clipPath id="f"><path fill="#fff" transform="translate(284.353 232.789)" d="M0 0h22.195v22.195H0z"/></clipPath><clipPath id="d"><path fill="#fff" transform="translate(205.839 118.634)" d="M0 0h61v23H0z"/></clipPath><filter id="g" x="271.405" y="348.39" width="47.165" height="47.166" filterUnits="userSpaceOnUse" color-interpolation-filters="sRGB"><feFlood flood-opacity="0" result="BackgroundImageFix"/><feColorMatrix in="SourceAlpha" values="0 0 0 0 0 0 0 0 0 0 0 0 0 0 0 0 0 0 127 0" result="hardAlpha"/><feOffset dy="3.699"/><feGaussianBlur stdDeviation="1.85"/><feComposite in2="hardAlpha" operator="out"/><feColorMatrix values="0 0 0 0 0 0 0 0 0 0 0 0 0 0 0 0 0 0 0.25 0"/><feBlend in2="BackgroundImageFix" result="effect1_dropShadow_342_483"/><feBlend in="SourceGraphic" in2="effect1_dropShadow_342_483" result="shape"/></filter><filter id="k" x="271.405" y="598.089" width="47.165" height="47.166" filterUnits="userSpaceOnUse" color-interpolation-filters="sRGB"><feFlood flood-opacity="0" result="BackgroundImageFix"/><feColorMatrix in="SourceAlpha" values="0 0 0 0 0 0 0 0 0 0 0 0 0 0 0 0 0 0 127 0" result="hardAlpha"/><feOffset dy="3.699"/><feGaussianBlur stdDeviation="1.85"/><feComposite in2="hardAlpha" operator="out"/><feColorMatrix values="0 0 0 0 0 0 0 0 0 0 0 0 0 0 0 0 0 0 0.25 0"/><feBlend in2="BackgroundImageFix" result="effect1_dropShadow_342_483"/><feBlend in="SourceGraphic" in2="effect1_dropShadow_342_483" result="shape"/></filter><filter id="i" x="271.405" y="473.24" width="47.165" height="47.166" filterUnits="userSpaceOnUse" color-interpolation-filters="sRGB"><feFlood flood-opacity="0" result="BackgroundImageFix"/><feColorMatrix in="SourceAlpha" values="0 0 0 0 0 0 0 0 0 0 0 0 0 0 0 0 0 0 127 0" result="hardAlpha"/><feOffset dy="3.699"/><feGaussianBlur stdDeviation="1.85"/><feComposite in2="hardAlpha" operator="out"/><feColorMatrix values="0 0 0 0 0 0 0 0 0 0 0 0 0 0 0 0 0 0 0.25 0"/><feBlend in2="BackgroundImageFix" result="effect1_dropShadow_342_483"/><feBlend in="SourceGraphic" in2="effect1_dropShadow_342_483" result="shape"/></filter><filter id="e" x="271.405" y="223.541" width="47.165" height="47.166" filterUnits="userSpaceOnUse" color-interpolation-filters="sRGB"><feFlood flood-opacity="0" result="BackgroundImageFix"/><feColorMatrix in="SourceAlpha" values="0 0 0 0 0 0 0 0 0 0 0 0 0 0 0 0 0 0 127 0" result="hardAlpha"/><feOffset dy="3.699"/><feGaussianBlur stdDeviation="1.85"/><feComposite in2="hardAlpha" operator="out"/><feColorMatrix values="0 0 0 0 0 0 0 0 0 0 0 0 0 0 0 0 0 0 0.25 0"/><feBlend in2="BackgroundImageFix" result="effect1_dropShadow_342_483"/><feBlend in="SourceGraphic" in2="effect1_dropShadow_342_483" result="shape"/></filter></defs></svg>