<svg width="2021" height="1356" fill="none" xmlns="http://www.w3.org/2000/svg"><path d="M35.744 168.574C22.19 213.811 196.819 295.032 315.15 324.333 433.481 353.634 793.164 111 918.793 168.574c125.627 57.574 254.477 413.3 42.131 614.375s-414.466 166.04-493.96 32.899c-79.493-133.14 63.581-395.901 338.058-404.64 274.478-8.739 158.539 90.988 574.058 76.08 109.4-3.925 449.87-184.031 315.38-373.717-134.49-189.687-356.56 0-284.1 189.686 72.46 189.686 596.87-21.003 574.97 213.92C1963.44 752.1 1333 584 1285.5 756.5s431 16 511 123.5-240.5 84.5-240.5 261v215" stroke="#2656FF" stroke-width="70" stroke-dasharray="6 6"/></svg>