<svg width="550" height="241" viewBox="0 0 550 241" fill="none" xmlns="http://www.w3.org/2000/svg">
<path d="M33.6775 98.5526C33.6775 97.7453 33.8577 97.0243 34.2182 96.3895C34.5866 95.7468 35.0843 95.2491 35.7113 94.8965C36.3461 94.5359 37.0554 94.3557 37.8391 94.3557C38.7561 94.3557 39.5594 94.5908 40.2491 95.061C40.9388 95.5313 41.4208 96.1818 41.6951 97.0126H39.8024C39.6143 96.6207 39.3478 96.3268 39.003 96.1308C38.666 95.9349 38.2741 95.8369 37.8274 95.8369C37.3493 95.8369 36.9221 95.9506 36.5459 96.1779C36.1776 96.3973 35.8876 96.7108 35.676 97.1184C35.4722 97.5259 35.3703 98.004 35.3703 98.5526C35.3703 99.0934 35.4722 99.5715 35.676 99.9868C35.8876 100.394 36.1776 100.712 36.5459 100.939C36.9221 101.159 37.3493 101.268 37.8274 101.268C38.2741 101.268 38.666 101.17 39.003 100.974C39.3478 100.771 39.6143 100.473 39.8024 100.081H41.6951C41.4208 100.919 40.9388 101.574 40.2491 102.044C39.5673 102.507 38.7639 102.738 37.8391 102.738C37.0554 102.738 36.3461 102.561 35.7113 102.209C35.0843 101.848 34.5866 101.351 34.2182 100.716C33.8577 100.081 33.6775 99.3599 33.6775 98.5526ZM46.228 102.773C45.601 102.773 45.0367 102.636 44.5351 102.362C44.0335 102.079 43.6378 101.684 43.3478 101.174C43.0656 100.665 42.9245 100.077 42.9245 99.4108C42.9245 98.7446 43.0695 98.1568 43.3595 97.6474C43.6573 97.138 44.061 96.7461 44.5704 96.4718C45.0798 96.1896 45.648 96.0486 46.275 96.0486C46.902 96.0486 47.4702 96.1896 47.9797 96.4718C48.4891 96.7461 48.8888 97.138 49.1788 97.6474C49.4766 98.1568 49.6255 98.7446 49.6255 99.4108C49.6255 100.077 49.4727 100.665 49.167 101.174C48.8692 101.684 48.4617 102.079 47.9444 102.362C47.435 102.636 46.8628 102.773 46.228 102.773ZM46.228 101.339C46.5258 101.339 46.8041 101.268 47.0627 101.127C47.3292 100.978 47.5408 100.759 47.6975 100.469C47.8543 100.179 47.9326 99.8262 47.9326 99.4108C47.9326 98.7916 47.7681 98.3175 47.4389 97.9883C47.1176 97.6513 46.7218 97.4828 46.2515 97.4828C45.7813 97.4828 45.3855 97.6513 45.0642 97.9883C44.7507 98.3175 44.5939 98.7916 44.5939 99.4108C44.5939 100.03 44.7467 100.508 45.0524 100.845C45.3659 101.174 45.7578 101.339 46.228 101.339ZM54.6771 96.0603C55.453 96.0603 56.08 96.3072 56.558 96.8009C57.0361 97.2869 57.2752 97.9687 57.2752 98.8465V102.667H55.6293V99.0699C55.6293 98.5526 55.5 98.1568 55.2414 97.8825C54.9827 97.6004 54.63 97.4593 54.1833 97.4593C53.7287 97.4593 53.3682 97.6004 53.1017 97.8825C52.8431 98.1568 52.7138 98.5526 52.7138 99.0699V102.667H51.0679V96.1544H52.7138V96.9655C52.9332 96.6834 53.2115 96.4639 53.5485 96.3072C53.8933 96.1426 54.2695 96.0603 54.6771 96.0603ZM60.9917 97.5063V100.657C60.9917 100.876 61.0426 101.037 61.1445 101.139C61.2542 101.233 61.4345 101.28 61.6853 101.28H62.4494V102.667H61.4149C60.0277 102.667 59.334 101.993 59.334 100.645V97.5063H58.5581V96.1544H59.334V94.5438H60.9917V96.1544H62.4494V97.5063H60.9917ZM69.9227 99.2697C69.9227 99.5048 69.907 99.7165 69.8757 99.9046H65.1145C65.1536 100.375 65.3182 100.743 65.6082 101.01C65.8982 101.276 66.2548 101.409 66.678 101.409C67.2893 101.409 67.7243 101.147 67.983 100.622H69.7581C69.57 101.249 69.2095 101.766 68.6766 102.173C68.1436 102.573 67.4892 102.773 66.7133 102.773C66.0863 102.773 65.522 102.636 65.0204 102.362C64.5267 102.079 64.1387 101.684 63.8566 101.174C63.5822 100.665 63.4451 100.077 63.4451 99.4108C63.4451 98.7368 63.5822 98.1451 63.8566 97.6356C64.1309 97.1262 64.5149 96.7343 65.0087 96.46C65.5024 96.1857 66.0706 96.0486 66.7133 96.0486C67.3324 96.0486 67.885 96.1818 68.3709 96.4483C68.8647 96.7147 69.2448 97.0948 69.5112 97.5886C69.7856 98.0745 69.9227 98.6349 69.9227 99.2697ZM68.2181 98.7995C68.2102 98.3763 68.0574 98.0393 67.7596 97.7885C67.4618 97.5298 67.0973 97.4005 66.6663 97.4005C66.2587 97.4005 65.9139 97.5259 65.6317 97.7767C65.3574 98.0197 65.1889 98.3606 65.1262 98.7995H68.2181ZM74.9683 96.0603C75.7442 96.0603 76.3712 96.3072 76.8493 96.8009C77.3273 97.2869 77.5664 97.9687 77.5664 98.8465V102.667H75.9205V99.0699C75.9205 98.5526 75.7912 98.1568 75.5326 97.8825C75.2739 97.6004 74.9213 97.4593 74.4745 97.4593C74.02 97.4593 73.6594 97.6004 73.393 97.8825C73.1343 98.1568 73.005 98.5526 73.005 99.0699V102.667H71.3592V96.1544H73.005V96.9655C73.2245 96.6834 73.5027 96.4639 73.8397 96.3072C74.1845 96.1426 74.5607 96.0603 74.9683 96.0603ZM81.2829 97.5063V100.657C81.2829 100.876 81.3338 101.037 81.4357 101.139C81.5454 101.233 81.7257 101.28 81.9765 101.28H82.7406V102.667H81.7061C80.3189 102.667 79.6253 101.993 79.6253 100.645V97.5063H78.8494V96.1544H79.6253V94.5438H81.2829V96.1544H82.7406V97.5063H81.2829Z" fill="#D3497B"/>
<line x1="89.9474" y1="98.2474" x2="177.181" y2="98.2474" stroke="#D3497B" stroke-width="0.839721"/>
<line x1="309.854" y1="197.335" x2="379.914" y2="197.335" stroke="#D3497B" stroke-width="0.839721"/>
<path d="M390.311 193.549C391.173 193.549 391.929 193.717 392.58 194.054C393.238 194.391 393.744 194.873 394.096 195.5C394.457 196.119 394.637 196.84 394.637 197.663C394.637 198.486 394.457 199.207 394.096 199.826C393.744 200.438 393.238 200.912 392.58 201.249C391.929 201.586 391.173 201.754 390.311 201.754H387.443V193.549H390.311ZM390.252 200.355C391.114 200.355 391.781 200.12 392.251 199.65C392.721 199.18 392.956 198.518 392.956 197.663C392.956 196.809 392.721 196.143 392.251 195.665C391.781 195.179 391.114 194.936 390.252 194.936H389.088V200.355H390.252ZM402.159 198.357C402.159 198.592 402.143 198.804 402.112 198.992H397.351C397.39 199.462 397.554 199.83 397.844 200.097C398.134 200.363 398.491 200.496 398.914 200.496C399.525 200.496 399.96 200.234 400.219 199.709H401.994C401.806 200.336 401.446 200.853 400.913 201.261C400.38 201.66 399.725 201.86 398.949 201.86C398.322 201.86 397.758 201.723 397.256 201.449C396.763 201.167 396.375 200.771 396.093 200.261C395.818 199.752 395.681 199.164 395.681 198.498C395.681 197.824 395.818 197.232 396.093 196.723C396.367 196.213 396.751 195.821 397.245 195.547C397.738 195.273 398.307 195.136 398.949 195.136C399.569 195.136 400.121 195.269 400.607 195.535C401.101 195.802 401.481 196.182 401.747 196.676C402.022 197.162 402.159 197.722 402.159 198.357ZM400.454 197.887C400.446 197.463 400.293 197.126 399.996 196.876C399.698 196.617 399.333 196.488 398.902 196.488C398.495 196.488 398.15 196.613 397.868 196.864C397.593 197.107 397.425 197.448 397.362 197.887H400.454ZM406.088 201.86C405.555 201.86 405.076 201.766 404.653 201.578C404.23 201.382 403.893 201.12 403.642 200.79C403.399 200.461 403.266 200.097 403.243 199.697H404.9C404.931 199.948 405.053 200.156 405.265 200.32C405.484 200.485 405.754 200.567 406.076 200.567C406.389 200.567 406.632 200.504 406.805 200.379C406.985 200.254 407.075 200.093 407.075 199.897C407.075 199.685 406.965 199.529 406.746 199.427C406.534 199.317 406.193 199.199 405.723 199.074C405.237 198.956 404.837 198.835 404.524 198.71C404.218 198.584 403.952 198.392 403.725 198.134C403.505 197.875 403.395 197.526 403.395 197.087C403.395 196.727 403.497 196.398 403.701 196.1C403.913 195.802 404.21 195.567 404.594 195.394C404.986 195.222 405.445 195.136 405.97 195.136C406.746 195.136 407.365 195.332 407.827 195.724C408.29 196.108 408.545 196.629 408.592 197.287H407.016C406.993 197.028 406.883 196.825 406.687 196.676C406.499 196.519 406.244 196.441 405.923 196.441C405.625 196.441 405.394 196.495 405.229 196.605C405.073 196.715 404.994 196.868 404.994 197.064C404.994 197.283 405.104 197.452 405.323 197.569C405.543 197.679 405.884 197.793 406.346 197.91C406.816 198.028 407.204 198.149 407.51 198.275C407.816 198.4 408.078 198.596 408.298 198.862C408.525 199.121 408.643 199.466 408.65 199.897C408.65 200.273 408.545 200.61 408.333 200.908C408.129 201.206 407.831 201.441 407.439 201.613C407.055 201.778 406.605 201.86 406.088 201.86ZM409.813 198.498C409.813 197.824 409.95 197.236 410.225 196.735C410.499 196.225 410.879 195.833 411.365 195.559C411.851 195.277 412.407 195.136 413.034 195.136C413.842 195.136 414.508 195.339 415.033 195.747C415.566 196.147 415.923 196.711 416.103 197.44H414.328C414.234 197.158 414.073 196.938 413.846 196.782C413.626 196.617 413.352 196.535 413.023 196.535C412.552 196.535 412.18 196.707 411.906 197.052C411.632 197.389 411.494 197.871 411.494 198.498C411.494 199.117 411.632 199.599 411.906 199.944C412.18 200.281 412.552 200.449 413.023 200.449C413.689 200.449 414.124 200.152 414.328 199.556H416.103C415.923 200.261 415.566 200.822 415.033 201.237C414.5 201.653 413.834 201.86 413.034 201.86C412.407 201.86 411.851 201.723 411.365 201.449C410.879 201.167 410.499 200.775 410.225 200.273C409.95 199.764 409.813 199.172 409.813 198.498ZM419.189 196.253C419.401 195.908 419.675 195.637 420.012 195.441C420.357 195.245 420.749 195.147 421.188 195.147V196.876H420.753C420.236 196.876 419.844 196.997 419.577 197.24C419.319 197.483 419.189 197.906 419.189 198.51V201.754H417.544V195.242H419.189V196.253ZM423.366 194.466C423.076 194.466 422.833 194.375 422.638 194.195C422.449 194.007 422.355 193.776 422.355 193.502C422.355 193.227 422.449 193 422.638 192.82C422.833 192.632 423.076 192.538 423.366 192.538C423.656 192.538 423.895 192.632 424.084 192.82C424.279 193 424.377 193.227 424.377 193.502C424.377 193.776 424.279 194.007 424.084 194.195C423.895 194.375 423.656 194.466 423.366 194.466ZM424.178 195.242V201.754H422.532V195.242H424.178ZM427.685 196.182C427.896 195.884 428.186 195.637 428.555 195.441C428.931 195.238 429.358 195.136 429.836 195.136C430.392 195.136 430.894 195.273 431.341 195.547C431.795 195.821 432.152 196.213 432.411 196.723C432.677 197.224 432.81 197.808 432.81 198.474C432.81 199.141 432.677 199.732 432.411 200.25C432.152 200.759 431.795 201.155 431.341 201.437C430.894 201.719 430.392 201.86 429.836 201.86C429.358 201.86 428.935 201.762 428.566 201.566C428.206 201.37 427.912 201.123 427.685 200.826V204.858H426.039V195.242H427.685V196.182ZM431.129 198.474C431.129 198.083 431.047 197.746 430.882 197.463C430.726 197.173 430.514 196.954 430.247 196.805C429.989 196.656 429.707 196.582 429.401 196.582C429.103 196.582 428.821 196.66 428.555 196.817C428.296 196.966 428.084 197.185 427.92 197.475C427.763 197.765 427.685 198.106 427.685 198.498C427.685 198.89 427.763 199.231 427.92 199.521C428.084 199.811 428.296 200.034 428.555 200.191C428.821 200.34 429.103 200.414 429.401 200.414C429.707 200.414 429.989 200.336 430.247 200.179C430.514 200.022 430.726 199.799 430.882 199.509C431.047 199.219 431.129 198.874 431.129 198.474ZM436.158 196.593V199.744C436.158 199.964 436.209 200.124 436.311 200.226C436.42 200.32 436.6 200.367 436.851 200.367H437.615V201.754H436.581C435.194 201.754 434.5 201.08 434.5 199.732V196.593H433.724V195.242H434.5V193.631H436.158V195.242H437.615V196.593H436.158ZM439.869 194.466C439.579 194.466 439.336 194.375 439.14 194.195C438.952 194.007 438.858 193.776 438.858 193.502C438.858 193.227 438.952 193 439.14 192.82C439.336 192.632 439.579 192.538 439.869 192.538C440.159 192.538 440.398 192.632 440.586 192.82C440.782 193 440.88 193.227 440.88 193.502C440.88 193.776 440.782 194.007 440.586 194.195C440.398 194.375 440.159 194.466 439.869 194.466ZM440.68 195.242V201.754H439.034V195.242H440.68ZM445.433 201.86C444.806 201.86 444.242 201.723 443.741 201.449C443.239 201.167 442.843 200.771 442.553 200.261C442.271 199.752 442.13 199.164 442.13 198.498C442.13 197.832 442.275 197.244 442.565 196.735C442.863 196.225 443.266 195.833 443.776 195.559C444.285 195.277 444.853 195.136 445.48 195.136C446.107 195.136 446.676 195.277 447.185 195.559C447.695 195.833 448.094 196.225 448.384 196.735C448.682 197.244 448.831 197.832 448.831 198.498C448.831 199.164 448.678 199.752 448.372 200.261C448.075 200.771 447.667 201.167 447.15 201.449C446.64 201.723 446.068 201.86 445.433 201.86ZM445.433 200.426C445.731 200.426 446.009 200.355 446.268 200.214C446.535 200.065 446.746 199.846 446.903 199.556C447.06 199.266 447.138 198.913 447.138 198.498C447.138 197.879 446.973 197.405 446.644 197.075C446.323 196.738 445.927 196.57 445.457 196.57C444.987 196.57 444.591 196.738 444.27 197.075C443.956 197.405 443.799 197.879 443.799 198.498C443.799 199.117 443.952 199.595 444.258 199.932C444.571 200.261 444.963 200.426 445.433 200.426ZM453.882 195.147C454.658 195.147 455.285 195.394 455.763 195.888C456.242 196.374 456.481 197.056 456.481 197.934V201.754H454.835V198.157C454.835 197.64 454.705 197.244 454.447 196.97C454.188 196.688 453.835 196.546 453.389 196.546C452.934 196.546 452.574 196.688 452.307 196.97C452.049 197.244 451.919 197.64 451.919 198.157V201.754H450.273V195.242H451.919V196.053C452.139 195.771 452.417 195.551 452.754 195.394C453.099 195.23 453.475 195.147 453.882 195.147Z" fill="#D3497B"/>
<path opacity="0.5" d="M464.62 201.819C464.017 201.819 463.463 201.677 462.958 201.394C462.453 201.111 462.052 200.72 461.757 200.221C461.461 199.716 461.314 199.146 461.314 198.512C461.314 197.884 461.461 197.321 461.757 196.822C462.052 196.317 462.453 195.923 462.958 195.64C463.463 195.356 464.017 195.215 464.62 195.215C465.23 195.215 465.784 195.356 466.283 195.64C466.788 195.923 467.185 196.317 467.475 196.822C467.77 197.321 467.918 197.884 467.918 198.512C467.918 199.146 467.77 199.716 467.475 200.221C467.185 200.72 466.788 201.111 466.283 201.394C465.778 201.677 465.224 201.819 464.62 201.819ZM464.62 200.664C465.008 200.664 465.35 200.578 465.646 200.406C465.941 200.227 466.172 199.975 466.338 199.648C466.505 199.322 466.588 198.943 466.588 198.512C466.588 198.081 466.505 197.706 466.338 197.385C466.172 197.059 465.941 196.81 465.646 196.637C465.35 196.465 465.008 196.378 464.62 196.378C464.232 196.378 463.888 196.465 463.586 196.637C463.29 196.81 463.059 197.059 462.893 197.385C462.727 197.706 462.644 198.081 462.644 198.512C462.644 198.943 462.727 199.322 462.893 199.648C463.059 199.975 463.29 200.227 463.586 200.406C463.888 200.578 464.232 200.664 464.62 200.664ZM470.358 197.376C470.524 197.142 470.752 196.948 471.041 196.794C471.337 196.634 471.673 196.554 472.048 196.554C472.486 196.554 472.88 196.662 473.231 196.877C473.588 197.093 473.868 197.401 474.071 197.801C474.281 198.195 474.385 198.654 474.385 199.177C474.385 199.701 474.281 200.166 474.071 200.572C473.868 200.972 473.588 201.283 473.231 201.505C472.88 201.727 472.486 201.838 472.048 201.838C471.673 201.838 471.34 201.761 471.051 201.607C470.767 201.453 470.537 201.259 470.358 201.025V204.193H469.065V196.637H470.358V197.376ZM473.064 199.177C473.064 198.869 473 198.605 472.87 198.383C472.747 198.155 472.581 197.983 472.372 197.866C472.168 197.749 471.947 197.69 471.707 197.69C471.473 197.69 471.251 197.752 471.041 197.875C470.838 197.992 470.672 198.164 470.543 198.392C470.42 198.62 470.358 198.888 470.358 199.196C470.358 199.504 470.42 199.772 470.543 199.999C470.672 200.227 470.838 200.403 471.041 200.526C471.251 200.643 471.473 200.701 471.707 200.701C471.947 200.701 472.168 200.64 472.372 200.517C472.581 200.393 472.747 200.218 472.87 199.99C473 199.762 473.064 199.491 473.064 199.177ZM477.015 197.699V200.175C477.015 200.347 477.055 200.474 477.135 200.554C477.222 200.627 477.363 200.664 477.56 200.664H478.161V201.754H477.348C476.258 201.754 475.713 201.225 475.713 200.166V197.699H475.103V196.637H475.713V195.372H477.015V196.637H478.161V197.699H477.015ZM479.931 196.027C479.704 196.027 479.513 195.957 479.359 195.815C479.211 195.667 479.137 195.486 479.137 195.27C479.137 195.055 479.211 194.876 479.359 194.734C479.513 194.587 479.704 194.513 479.931 194.513C480.159 194.513 480.347 194.587 480.495 194.734C480.649 194.876 480.726 195.055 480.726 195.27C480.726 195.486 480.649 195.667 480.495 195.815C480.347 195.957 480.159 196.027 479.931 196.027ZM480.569 196.637V201.754H479.276V196.637H480.569ZM484.303 201.838C483.811 201.838 483.367 201.73 482.973 201.514C482.579 201.293 482.268 200.982 482.04 200.581C481.819 200.181 481.708 199.719 481.708 199.196C481.708 198.672 481.822 198.21 482.05 197.81C482.284 197.41 482.601 197.102 483.001 196.887C483.401 196.665 483.848 196.554 484.34 196.554C484.833 196.554 485.279 196.665 485.68 196.887C486.08 197.102 486.394 197.41 486.622 197.81C486.856 198.21 486.973 198.672 486.973 199.196C486.973 199.719 486.853 200.181 486.613 200.581C486.379 200.982 486.058 201.293 485.652 201.514C485.252 201.73 484.802 201.838 484.303 201.838ZM484.303 200.711C484.537 200.711 484.756 200.655 484.959 200.544C485.169 200.427 485.335 200.255 485.458 200.027C485.581 199.799 485.643 199.522 485.643 199.196C485.643 198.709 485.513 198.337 485.255 198.078C485.002 197.813 484.691 197.681 484.322 197.681C483.952 197.681 483.641 197.813 483.389 198.078C483.143 198.337 483.019 198.709 483.019 199.196C483.019 199.682 483.14 200.058 483.38 200.323C483.626 200.581 483.934 200.711 484.303 200.711ZM490.942 196.563C491.552 196.563 492.044 196.757 492.42 197.145C492.795 197.527 492.983 198.063 492.983 198.752V201.754H491.69V198.928C491.69 198.521 491.589 198.21 491.385 197.995C491.182 197.773 490.905 197.662 490.554 197.662C490.197 197.662 489.914 197.773 489.704 197.995C489.501 198.21 489.399 198.521 489.399 198.928V201.754H488.106V196.637H489.399V197.274C489.572 197.053 489.79 196.88 490.055 196.757C490.326 196.628 490.622 196.563 490.942 196.563ZM494.065 199.177C494.065 198.66 494.167 198.201 494.37 197.801C494.579 197.401 494.86 197.093 495.211 196.877C495.568 196.662 495.965 196.554 496.402 196.554C496.784 196.554 497.117 196.631 497.4 196.785C497.689 196.939 497.92 197.133 498.093 197.367V196.637H499.395V201.754H498.093V201.006C497.926 201.246 497.695 201.446 497.4 201.607C497.11 201.761 496.775 201.838 496.393 201.838C495.962 201.838 495.568 201.727 495.211 201.505C494.86 201.283 494.579 200.972 494.37 200.572C494.167 200.166 494.065 199.701 494.065 199.177ZM498.093 199.196C498.093 198.882 498.031 198.614 497.908 198.392C497.785 198.164 497.618 197.992 497.409 197.875C497.2 197.752 496.975 197.69 496.735 197.69C496.495 197.69 496.273 197.749 496.07 197.866C495.866 197.983 495.7 198.155 495.571 198.383C495.448 198.605 495.386 198.869 495.386 199.177C495.386 199.485 495.448 199.756 495.571 199.99C495.7 200.218 495.866 200.393 496.07 200.517C496.279 200.64 496.501 200.701 496.735 200.701C496.975 200.701 497.2 200.643 497.409 200.526C497.618 200.403 497.785 200.23 497.908 200.009C498.031 199.781 498.093 199.51 498.093 199.196ZM502.136 194.919V201.754H500.843V194.919H502.136Z" fill="#D3497B"/>
<path d="M135.205 31.8998H133.117C133.09 31.6855 133.033 31.4921 132.946 31.3195C132.86 31.147 132.746 30.9995 132.604 30.877C132.462 30.7546 132.294 30.6613 132.099 30.5973C131.907 30.5305 131.694 30.4971 131.46 30.4971C131.045 30.4971 130.688 30.5987 130.387 30.8019C130.089 31.005 129.86 31.2987 129.698 31.6827C129.54 32.0668 129.46 32.5316 129.46 33.0771C129.46 33.6449 129.541 34.1208 129.703 34.5049C129.867 34.8862 130.096 35.1742 130.391 35.369C130.689 35.5611 131.041 35.6571 131.448 35.6571C131.676 35.6571 131.883 35.6279 132.07 35.5694C132.259 35.511 132.424 35.4261 132.566 35.3148C132.711 35.2007 132.829 35.0629 132.921 34.9015C133.016 34.7373 133.081 34.5522 133.117 34.3462L135.205 34.3588C135.169 34.7373 135.059 35.1102 134.875 35.4776C134.694 35.845 134.445 36.1803 134.128 36.4837C133.81 36.7843 133.424 37.0236 132.967 37.2018C132.514 37.3799 131.993 37.4689 131.406 37.4689C130.632 37.4689 129.939 37.2992 129.327 36.9596C128.717 36.6173 128.236 36.1191 127.882 35.4651C127.529 34.811 127.352 34.015 127.352 33.0771C127.352 32.1364 127.532 31.339 127.891 30.685C128.25 30.0309 128.735 29.5341 129.348 29.1946C129.96 28.855 130.646 28.6853 131.406 28.6853C131.923 28.6853 132.402 28.7576 132.842 28.9024C133.282 29.0443 133.669 29.253 134.002 29.5286C134.336 29.8013 134.608 30.1367 134.817 30.5347C135.025 30.9327 135.155 31.3877 135.205 31.8998ZM139.381 37.4731C138.707 37.4731 138.128 37.3354 137.644 37.0598C137.162 36.7815 136.791 36.3946 136.529 35.8992C136.27 35.4011 136.141 34.8235 136.141 34.1667C136.141 33.5071 136.27 32.9296 136.529 32.4342C136.791 31.936 137.162 31.5491 137.644 31.2736C138.128 30.9953 138.707 30.8561 139.381 30.8561C140.054 30.8561 140.632 30.9953 141.113 31.2736C141.597 31.5491 141.969 31.936 142.228 32.4342C142.489 32.9296 142.62 33.5071 142.62 34.1667C142.62 34.8235 142.489 35.4011 142.228 35.8992C141.969 36.3946 141.597 36.7815 141.113 37.0598C140.632 37.3354 140.054 37.4731 139.381 37.4731ZM139.393 35.9326C139.638 35.9326 139.845 35.8575 140.015 35.7072C140.185 35.5569 140.314 35.3482 140.403 35.081C140.495 34.8138 140.541 34.5049 140.541 34.1542C140.541 33.7979 140.495 33.4862 140.403 33.219C140.314 32.9519 140.185 32.7431 140.015 32.5928C139.845 32.4425 139.638 32.3674 139.393 32.3674C139.14 32.3674 138.926 32.4425 138.75 32.5928C138.578 32.7431 138.445 32.9519 138.354 33.219C138.265 33.4862 138.22 33.7979 138.22 34.1542C138.22 34.5049 138.265 34.8138 138.354 35.081C138.445 35.3482 138.578 35.5569 138.75 35.7072C138.926 35.8575 139.14 35.9326 139.393 35.9326ZM143.666 37.3521V30.9396H145.607V32.1169H145.678C145.812 31.7273 146.037 31.4197 146.355 31.1943C146.672 30.9689 147.05 30.8561 147.49 30.8561C147.935 30.8561 148.317 30.9702 148.634 31.1985C148.951 31.4267 149.153 31.7328 149.239 32.1169H149.306C149.426 31.7356 149.66 31.4309 150.007 31.2026C150.355 30.9716 150.766 30.8561 151.239 30.8561C151.846 30.8561 152.338 31.051 152.717 31.4406C153.095 31.8275 153.285 32.359 153.285 33.0354V37.3521H151.243V33.5029C151.243 33.1829 151.161 32.9393 150.997 32.7723C150.833 32.6026 150.62 32.5177 150.358 32.5177C150.077 32.5177 149.856 32.6095 149.694 32.7932C149.536 32.9741 149.456 33.2177 149.456 33.5238V37.3521H147.494V33.4821C147.494 33.1843 147.414 32.9491 147.252 32.7765C147.091 32.604 146.878 32.5177 146.613 32.5177C146.435 32.5177 146.278 32.5608 146.142 32.6471C146.005 32.7306 145.898 32.8503 145.82 33.0061C145.745 33.162 145.707 33.3457 145.707 33.5572V37.3521H143.666ZM154.55 37.3521V30.9396H156.491V32.1169H156.562C156.695 31.7273 156.921 31.4197 157.238 31.1943C157.555 30.9689 157.934 30.8561 158.374 30.8561C158.819 30.8561 159.2 30.9702 159.518 31.1985C159.835 31.4267 160.037 31.7328 160.123 32.1169H160.19C160.309 31.7356 160.543 31.4309 160.891 31.2026C161.239 30.9716 161.649 30.8561 162.123 30.8561C162.729 30.8561 163.222 31.051 163.6 31.4406C163.979 31.8275 164.168 32.359 164.168 33.0354V37.3521H162.127V33.5029C162.127 33.1829 162.045 32.9393 161.88 32.7723C161.716 32.6026 161.503 32.5177 161.242 32.5177C160.961 32.5177 160.739 32.6095 160.578 32.7932C160.419 32.9741 160.34 33.2177 160.34 33.5238V37.3521H158.378V33.4821C158.378 33.1843 158.297 32.9491 158.136 32.7765C157.974 32.604 157.761 32.5177 157.497 32.5177C157.319 32.5177 157.162 32.5608 157.025 32.6471C156.889 32.7306 156.782 32.8503 156.704 33.0061C156.629 33.162 156.591 33.3457 156.591 33.5572V37.3521H154.55ZM168.431 37.4731C167.76 37.4731 167.181 37.3409 166.694 37.0765C166.21 36.8093 165.837 36.4294 165.575 35.9368C165.316 35.4414 165.187 34.8528 165.187 34.1709C165.187 33.5085 165.318 32.9296 165.579 32.4342C165.841 31.936 166.21 31.5491 166.686 31.2736C167.162 30.9953 167.722 30.8561 168.368 30.8561C168.824 30.8561 169.242 30.9271 169.62 31.069C169.999 31.211 170.326 31.4211 170.601 31.6994C170.877 31.9778 171.091 32.3215 171.244 32.7306C171.397 33.1369 171.474 33.6031 171.474 34.1291V34.6385H165.901V33.4528H169.575C169.572 33.2357 169.52 33.0423 169.42 32.8725C169.32 32.7028 169.182 32.5706 169.007 32.4759C168.834 32.3785 168.635 32.3298 168.41 32.3298C168.182 32.3298 167.977 32.3813 167.796 32.4843C167.615 32.5845 167.472 32.7223 167.366 32.8976C167.26 33.0701 167.205 33.2664 167.199 33.4862V34.6927C167.199 34.9544 167.251 35.184 167.354 35.3816C167.457 35.5764 167.603 35.7281 167.792 35.8366C167.981 35.9452 168.207 35.9994 168.468 35.9994C168.649 35.9994 168.813 35.9744 168.961 35.9243C169.108 35.8742 169.235 35.8004 169.341 35.703C169.446 35.6056 169.526 35.4859 169.579 35.344L171.453 35.3983C171.375 35.8185 171.204 36.1845 170.94 36.4962C170.678 36.8052 170.334 37.0459 169.908 37.2185C169.483 37.3882 168.99 37.4731 168.431 37.4731ZM174.558 33.695V37.3521H172.517V30.9396H174.458V32.1169H174.529C174.671 31.7245 174.913 31.4169 175.255 31.1943C175.598 30.9689 176.005 30.8561 176.479 30.8561C176.929 30.8561 177.32 30.9577 177.652 31.1609C177.986 31.3613 178.244 31.6424 178.428 32.0042C178.615 32.3632 178.706 32.7835 178.704 33.265V37.3521H176.662V33.6657C176.665 33.3095 176.575 33.0312 176.391 32.8308C176.21 32.6304 175.958 32.5302 175.635 32.5302C175.421 32.5302 175.232 32.5775 175.067 32.6722C174.906 32.764 174.781 32.8962 174.692 33.0688C174.605 33.2413 174.561 33.45 174.558 33.695ZM183.587 30.9396V32.4425H179.542V30.9396H183.587ZM180.389 29.4033H182.431V35.3356C182.431 35.4609 182.45 35.5625 182.489 35.6404C182.531 35.7155 182.591 35.7698 182.669 35.8032C182.747 35.8338 182.84 35.8491 182.948 35.8491C183.026 35.8491 183.108 35.8422 183.195 35.8283C183.284 35.8116 183.35 35.7977 183.395 35.7865L183.704 37.2602C183.607 37.288 183.469 37.3228 183.291 37.3646C183.115 37.4063 182.905 37.4328 182.66 37.4439C182.182 37.4662 181.771 37.4105 181.429 37.2769C181.089 37.1405 180.829 36.929 180.648 36.6423C180.47 36.3557 180.384 35.9953 180.389 35.5611V29.4033Z" fill="#FFF0E3"/>
<path d="M133.538 48.4897H354.338C357.829 48.4897 360.659 51.3199 360.659 54.8111V175.684C360.659 179.175 357.829 182.005 354.338 182.005H133.538C130.047 182.005 127.217 179.175 127.217 175.684V54.8111C127.217 51.3199 130.047 48.4897 133.538 48.4897Z" fill="white"/>
<path d="M133.538 48.4897H354.338C357.829 48.4897 360.659 51.3199 360.659 54.8111V175.684C360.659 179.175 357.829 182.005 354.338 182.005H133.538C130.047 182.005 127.217 179.175 127.217 175.684V54.8111C127.217 51.3199 130.047 48.4897 133.538 48.4897Z" stroke="#D14343" stroke-width="0.839721"/>
<path d="M134.032 60.3482V59.2377H140.649V60.3482H137.982V67.7876H136.696V60.3482H134.032ZM142.066 70.1923C141.879 70.1923 141.709 70.1769 141.556 70.1463C141.403 70.1185 141.289 70.0879 141.214 70.0545L141.515 69.0317C141.743 69.0929 141.946 69.1193 142.124 69.111C142.302 69.1026 142.459 69.0358 142.596 68.9106C142.735 68.7854 142.857 68.5808 142.963 68.2969L143.118 67.8711L140.771 61.3752H142.107L143.731 66.3515H143.798L145.422 61.3752H146.762L144.12 68.6434C143.997 68.9774 143.841 69.2599 143.652 69.4909C143.463 69.7247 143.237 69.9 142.976 70.0169C142.714 70.1338 142.411 70.1923 142.066 70.1923ZM147.935 70.1923V61.3752H149.154V62.4147H149.259C149.331 62.2811 149.435 62.1266 149.572 61.9513C149.708 61.776 149.897 61.6229 150.14 61.4921C150.382 61.3585 150.702 61.2917 151.1 61.2917C151.617 61.2917 152.079 61.4225 152.486 61.6841C152.892 61.9457 153.211 62.3228 153.442 62.8155C153.676 63.3081 153.792 63.9009 153.792 64.5939C153.792 65.2869 153.677 65.8811 153.446 66.3765C153.215 66.8692 152.898 67.2491 152.494 67.5162C152.091 67.7806 151.63 67.9128 151.112 67.9128C150.723 67.9128 150.404 67.8474 150.156 67.7166C149.911 67.5858 149.719 67.4327 149.58 67.2574C149.441 67.0821 149.334 66.9262 149.259 66.7898H149.184V70.1923H147.935ZM149.158 64.5814C149.158 65.0323 149.224 65.4275 149.355 65.767C149.486 66.1066 149.675 66.3724 149.922 66.5644C150.17 66.7537 150.474 66.8483 150.833 66.8483C151.206 66.8483 151.517 66.7495 151.768 66.5519C152.018 66.3515 152.207 66.0801 152.335 65.7378C152.466 65.3955 152.532 65.01 152.532 64.5814C152.532 64.1583 152.468 63.7784 152.34 63.4417C152.214 63.1049 152.025 62.8391 151.772 62.6443C151.521 62.4495 151.208 62.3521 150.833 62.3521C150.471 62.3521 150.165 62.4453 149.914 62.6318C149.666 62.8183 149.479 63.0785 149.351 63.4125C149.222 63.7464 149.158 64.1361 149.158 64.5814ZM157.955 67.917C157.323 67.917 156.779 67.782 156.322 67.5121C155.869 67.2393 155.518 66.8566 155.27 66.364C155.025 65.8686 154.903 65.2883 154.903 64.6231C154.903 63.9663 155.025 63.3874 155.27 62.8864C155.518 62.3855 155.863 61.9944 156.306 61.7133C156.751 61.4322 157.271 61.2917 157.867 61.2917C158.229 61.2917 158.58 61.3515 158.919 61.4712C159.259 61.5909 159.563 61.7787 159.833 62.0348C160.103 62.2908 160.316 62.6234 160.472 63.0326C160.628 63.4389 160.706 63.9329 160.706 64.5146V64.9571H155.608V64.022H159.483C159.483 63.6936 159.416 63.4027 159.282 63.1494C159.149 62.8934 158.961 62.6916 158.719 62.5441C158.479 62.3966 158.198 62.3228 157.875 62.3228C157.525 62.3228 157.219 62.4091 156.957 62.5817C156.698 62.7515 156.498 62.9741 156.356 63.2496C156.217 63.5224 156.147 63.8188 156.147 64.1389V64.8694C156.147 65.2981 156.222 65.6626 156.372 65.9632C156.526 66.2638 156.738 66.4934 157.011 66.6521C157.284 66.8079 157.603 66.8859 157.967 66.8859C158.204 66.8859 158.419 66.8525 158.614 66.7857C158.809 66.7161 158.977 66.6131 159.119 66.4767C159.261 66.3404 159.37 66.172 159.445 65.9716L160.627 66.1845C160.532 66.5324 160.362 66.8371 160.117 67.0988C159.875 67.3576 159.57 67.5594 159.203 67.7041C158.838 67.846 158.422 67.917 157.955 67.917ZM168.195 61.3752V62.3771H164.693V61.3752H168.195ZM165.632 59.8389H166.88V65.9048C166.88 66.1469 166.916 66.3292 166.989 66.4517C167.061 66.5714 167.154 66.6535 167.269 66.698C167.385 66.7397 167.512 66.7606 167.648 66.7606C167.749 66.7606 167.836 66.7537 167.911 66.7397C167.987 66.7258 168.045 66.7147 168.087 66.7063L168.312 67.7375C168.24 67.7653 168.137 67.7932 168.003 67.821C167.87 67.8516 167.703 67.8683 167.502 67.8711C167.174 67.8767 166.868 67.8182 166.584 67.6958C166.3 67.5733 166.07 67.384 165.895 67.128C165.72 66.8719 165.632 66.5505 165.632 66.1636V59.8389ZM172.271 67.917C171.639 67.917 171.095 67.782 170.639 67.5121C170.185 67.2393 169.834 66.8566 169.587 66.364C169.342 65.8686 169.219 65.2883 169.219 64.6231C169.219 63.9663 169.342 63.3874 169.587 62.8864C169.834 62.3855 170.179 61.9944 170.622 61.7133C171.067 61.4322 171.588 61.2917 172.183 61.2917C172.545 61.2917 172.896 61.3515 173.235 61.4712C173.575 61.5909 173.88 61.7787 174.15 62.0348C174.42 62.2908 174.632 62.6234 174.788 63.0326C174.944 63.4389 175.022 63.9329 175.022 64.5146V64.9571H169.925V64.022H173.799C173.799 63.6936 173.732 63.4027 173.599 63.1494C173.465 62.8934 173.277 62.6916 173.035 62.5441C172.796 62.3966 172.514 62.3228 172.192 62.3228C171.841 62.3228 171.535 62.4091 171.273 62.5817C171.014 62.7515 170.814 62.9741 170.672 63.2496C170.533 63.5224 170.463 63.8188 170.463 64.1389V64.8694C170.463 65.2981 170.538 65.6626 170.689 65.9632C170.842 66.2638 171.055 66.4934 171.327 66.6521C171.6 66.8079 171.919 66.8859 172.283 66.8859C172.52 66.8859 172.736 66.8525 172.931 66.7857C173.125 66.7161 173.294 66.6131 173.436 66.4767C173.578 66.3404 173.686 66.172 173.761 65.9716L174.943 66.1845C174.848 66.5324 174.678 66.8371 174.433 67.0988C174.191 67.3576 173.887 67.5594 173.519 67.7041C173.155 67.846 172.739 67.917 172.271 67.917ZM177.243 61.3752L178.658 63.8717L180.086 61.3752H181.451L179.452 64.5814L181.468 67.7876H180.103L178.658 65.3913L177.218 67.7876H175.849L177.844 64.5814L175.874 61.3752H177.243ZM185.726 61.3752V62.3771H182.224V61.3752H185.726ZM183.163 59.8389H184.411V65.9048C184.411 66.1469 184.447 66.3292 184.52 66.4517C184.592 66.5714 184.685 66.6535 184.799 66.698C184.916 66.7397 185.043 66.7606 185.179 66.7606C185.279 66.7606 185.367 66.7537 185.442 66.7397C185.517 66.7258 185.576 66.7147 185.618 66.7063L185.843 67.7375C185.771 67.7653 185.668 67.7932 185.534 67.821C185.401 67.8516 185.234 67.8683 185.033 67.8711C184.705 67.8767 184.399 67.8182 184.115 67.6958C183.831 67.5733 183.601 67.384 183.426 67.128C183.251 66.8719 183.163 66.5505 183.163 66.1636V59.8389ZM191.466 63.9802V67.7876H190.218V59.2377H191.45V62.4189H191.529C191.679 62.0738 191.909 61.7996 192.218 61.5964C192.527 61.3933 192.93 61.2917 193.429 61.2917C193.868 61.2917 194.252 61.3821 194.581 61.563C194.912 61.7439 195.168 62.0139 195.349 62.3729C195.533 62.7292 195.625 63.1745 195.625 63.7089V67.7876H194.376V63.8592C194.376 63.3888 194.255 63.0242 194.013 62.7654C193.771 62.5038 193.434 62.3729 193.003 62.3729C192.708 62.3729 192.443 62.4356 192.21 62.5608C191.979 62.6861 191.796 62.8697 191.663 63.1119C191.532 63.3512 191.466 63.6407 191.466 63.9802ZM200.054 67.917C199.422 67.917 198.878 67.782 198.422 67.5121C197.968 67.2393 197.617 66.8566 197.37 66.364C197.125 65.8686 197.002 65.2883 197.002 64.6231C197.002 63.9663 197.125 63.3874 197.37 62.8864C197.617 62.3855 197.962 61.9944 198.405 61.7133C198.85 61.4322 199.371 61.2917 199.966 61.2917C200.328 61.2917 200.679 61.3515 201.018 61.4712C201.358 61.5909 201.663 61.7787 201.933 62.0348C202.203 62.2908 202.415 62.6234 202.571 63.0326C202.727 63.4389 202.805 63.9329 202.805 64.5146V64.9571H197.708V64.022H201.582C201.582 63.6936 201.515 63.4027 201.381 63.1494C201.248 62.8934 201.06 62.6916 200.818 62.5441C200.579 62.3966 200.297 62.3228 199.975 62.3228C199.624 62.3228 199.318 62.4091 199.056 62.5817C198.797 62.7515 198.597 62.9741 198.455 63.2496C198.316 63.5224 198.246 63.8188 198.246 64.1389V64.8694C198.246 65.2981 198.321 65.6626 198.472 65.9632C198.625 66.2638 198.838 66.4934 199.11 66.6521C199.383 66.8079 199.702 66.8859 200.066 66.8859C200.303 66.8859 200.519 66.8525 200.714 66.7857C200.908 66.7161 201.077 66.6131 201.219 66.4767C201.361 66.3404 201.469 66.172 201.544 65.9716L202.726 66.1845C202.631 66.5324 202.461 66.8371 202.216 67.0988C201.974 67.3576 201.67 67.5594 201.302 67.7041C200.938 67.846 200.521 67.917 200.054 67.917ZM204.19 67.7876V61.3752H205.397V62.3938H205.463C205.58 62.0487 205.786 61.7773 206.081 61.5797C206.379 61.3794 206.716 61.2792 207.092 61.2792C207.169 61.2792 207.261 61.2819 207.367 61.2875C207.476 61.2931 207.56 61.3 207.622 61.3084V62.5024C207.572 62.4884 207.483 62.4731 207.355 62.4564C207.226 62.437 207.098 62.4272 206.97 62.4272C206.675 62.4272 206.412 62.4898 206.181 62.6151C205.953 62.7375 205.772 62.9087 205.639 63.1286C205.505 63.3457 205.438 63.5934 205.438 63.8717V67.7876H204.19ZM211.236 67.917C210.604 67.917 210.06 67.782 209.604 67.5121C209.15 67.2393 208.799 66.8566 208.552 66.364C208.307 65.8686 208.184 65.2883 208.184 64.6231C208.184 63.9663 208.307 63.3874 208.552 62.8864C208.799 62.3855 209.144 61.9944 209.587 61.7133C210.032 61.4322 210.553 61.2917 211.148 61.2917C211.51 61.2917 211.861 61.3515 212.2 61.4712C212.54 61.5909 212.845 61.7787 213.115 62.0348C213.385 62.2908 213.598 62.6234 213.753 63.0326C213.909 63.4389 213.987 63.9329 213.987 64.5146V64.9571H208.89V64.022H212.764C212.764 63.6936 212.697 63.4027 212.564 63.1494C212.43 62.8934 212.242 62.6916 212 62.5441C211.761 62.3966 211.48 62.3228 211.157 62.3228C210.806 62.3228 210.5 62.4091 210.238 62.5817C209.979 62.7515 209.779 62.9741 209.637 63.2496C209.498 63.5224 209.428 63.8188 209.428 64.1389V64.8694C209.428 65.2981 209.503 65.6626 209.654 65.9632C209.807 66.2638 210.02 66.4934 210.293 66.6521C210.565 66.8079 210.884 66.8859 211.249 66.8859C211.485 66.8859 211.701 66.8525 211.896 66.7857C212.09 66.7161 212.259 66.6131 212.401 66.4767C212.543 66.3404 212.651 66.172 212.726 65.9716L213.908 66.1845C213.813 66.5324 213.643 66.8371 213.399 67.0988C213.156 67.3576 212.852 67.5594 212.484 67.7041C212.12 67.846 211.704 67.917 211.236 67.917ZM216.195 67.8669C215.966 67.8669 215.77 67.7862 215.606 67.6248C215.442 67.4606 215.36 67.263 215.36 67.032C215.36 66.8037 215.442 66.6089 215.606 66.4475C215.77 66.2833 215.966 66.2012 216.195 66.2012C216.423 66.2012 216.619 66.2833 216.783 66.4475C216.947 66.6089 217.03 66.8037 217.03 67.032C217.03 67.185 216.991 67.3256 216.913 67.4536C216.837 67.5789 216.737 67.6791 216.612 67.7542C216.487 67.8293 216.348 67.8669 216.195 67.8669ZM219.524 67.8669C219.296 67.8669 219.099 67.7862 218.935 67.6248C218.771 67.4606 218.689 67.263 218.689 67.032C218.689 66.8037 218.771 66.6089 218.935 66.4475C219.099 66.2833 219.296 66.2012 219.524 66.2012C219.752 66.2012 219.948 66.2833 220.113 66.4475C220.277 66.6089 220.359 66.8037 220.359 67.032C220.359 67.185 220.32 67.3256 220.242 67.4536C220.167 67.5789 220.067 67.6791 219.941 67.7542C219.816 67.8293 219.677 67.8669 219.524 67.8669ZM222.853 67.8669C222.625 67.8669 222.429 67.7862 222.265 67.6248C222.1 67.4606 222.018 67.263 222.018 67.032C222.018 66.8037 222.1 66.6089 222.265 66.4475C222.429 66.2833 222.625 66.2012 222.853 66.2012C223.082 66.2012 223.278 66.2833 223.442 66.4475C223.606 66.6089 223.688 66.8037 223.688 67.032C223.688 67.185 223.649 67.3256 223.571 67.4536C223.496 67.5789 223.396 67.6791 223.271 67.7542C223.146 67.8293 223.006 67.8669 222.853 67.8669Z" fill="#6F7595"/>
<path d="M127.736 193.593H129.302L132.024 200.239H132.124L134.846 193.593H136.411V202.143H135.184V195.956H135.105L132.583 202.131H131.564L129.043 195.952H128.964V202.143H127.736V193.593ZM140.95 202.272C140.319 202.272 139.774 202.138 139.318 201.868C138.864 201.595 138.514 201.212 138.266 200.719C138.021 200.224 137.899 199.644 137.899 198.979C137.899 198.322 138.021 197.743 138.266 197.242C138.514 196.741 138.859 196.35 139.301 196.069C139.747 195.788 140.267 195.647 140.863 195.647C141.224 195.647 141.575 195.707 141.915 195.827C142.254 195.946 142.559 196.134 142.829 196.39C143.099 196.646 143.312 196.979 143.468 197.388C143.624 197.794 143.701 198.288 143.701 198.87V199.313H138.604V198.377H142.478C142.478 198.049 142.411 197.758 142.278 197.505C142.144 197.249 141.956 197.047 141.714 196.9C141.475 196.752 141.194 196.678 140.871 196.678C140.52 196.678 140.214 196.765 139.953 196.937C139.694 197.107 139.493 197.33 139.351 197.605C139.212 197.878 139.143 198.174 139.143 198.494V199.225C139.143 199.654 139.218 200.018 139.368 200.319C139.521 200.619 139.734 200.849 140.007 201.008C140.28 201.163 140.598 201.241 140.963 201.241C141.199 201.241 141.415 201.208 141.61 201.141C141.805 201.072 141.973 200.969 142.115 200.832C142.257 200.696 142.366 200.527 142.441 200.327L143.622 200.54C143.528 200.888 143.358 201.193 143.113 201.454C142.871 201.713 142.566 201.915 142.199 202.06C141.834 202.202 141.418 202.272 140.95 202.272ZM149.892 197.296L148.76 197.497C148.713 197.352 148.638 197.214 148.535 197.083C148.435 196.952 148.298 196.845 148.126 196.762C147.953 196.678 147.737 196.637 147.479 196.637C147.125 196.637 146.83 196.716 146.594 196.875C146.357 197.03 146.239 197.232 146.239 197.48C146.239 197.694 146.318 197.867 146.477 197.998C146.635 198.128 146.891 198.235 147.245 198.319L148.263 198.553C148.853 198.689 149.293 198.899 149.583 199.183C149.872 199.467 150.017 199.836 150.017 200.289C150.017 200.674 149.906 201.016 149.683 201.316C149.463 201.614 149.155 201.848 148.76 202.018C148.368 202.188 147.913 202.272 147.395 202.272C146.677 202.272 146.091 202.119 145.638 201.813C145.184 201.504 144.906 201.066 144.803 200.498L146.009 200.315C146.084 200.629 146.239 200.867 146.472 201.028C146.706 201.187 147.011 201.266 147.387 201.266C147.796 201.266 148.123 201.181 148.368 201.012C148.613 200.839 148.735 200.629 148.735 200.381C148.735 200.181 148.66 200.013 148.51 199.876C148.362 199.74 148.135 199.637 147.829 199.567L146.744 199.329C146.145 199.193 145.703 198.976 145.416 198.678C145.132 198.38 144.99 198.003 144.99 197.547C144.99 197.168 145.096 196.837 145.308 196.553C145.519 196.269 145.811 196.048 146.184 195.889C146.557 195.728 146.985 195.647 147.466 195.647C148.159 195.647 148.705 195.797 149.103 196.098C149.501 196.396 149.764 196.795 149.892 197.296ZM156.194 197.296L155.063 197.497C155.016 197.352 154.941 197.214 154.838 197.083C154.737 196.952 154.601 196.845 154.429 196.762C154.256 196.678 154.04 196.637 153.781 196.637C153.428 196.637 153.133 196.716 152.896 196.875C152.66 197.03 152.542 197.232 152.542 197.48C152.542 197.694 152.621 197.867 152.779 197.998C152.938 198.128 153.194 198.235 153.548 198.319L154.566 198.553C155.156 198.689 155.596 198.899 155.885 199.183C156.175 199.467 156.32 199.836 156.32 200.289C156.32 200.674 156.208 201.016 155.986 201.316C155.766 201.614 155.458 201.848 155.063 202.018C154.671 202.188 154.216 202.272 153.698 202.272C152.98 202.272 152.394 202.119 151.94 201.813C151.487 201.504 151.208 201.066 151.105 200.498L152.312 200.315C152.387 200.629 152.542 200.867 152.775 201.028C153.009 201.187 153.314 201.266 153.69 201.266C154.099 201.266 154.426 201.181 154.671 201.012C154.916 200.839 155.038 200.629 155.038 200.381C155.038 200.181 154.963 200.013 154.813 199.876C154.665 199.74 154.438 199.637 154.132 199.567L153.047 199.329C152.448 199.193 152.006 198.976 151.719 198.678C151.435 198.38 151.293 198.003 151.293 197.547C151.293 197.168 151.399 196.837 151.611 196.553C151.822 196.269 152.114 196.048 152.487 195.889C152.86 195.728 153.287 195.647 153.769 195.647C154.462 195.647 155.007 195.797 155.405 196.098C155.803 196.396 156.066 196.795 156.194 197.296ZM159.558 202.285C159.152 202.285 158.785 202.21 158.456 202.06C158.128 201.906 157.867 201.685 157.675 201.396C157.486 201.106 157.392 200.751 157.392 200.331C157.392 199.969 157.461 199.672 157.6 199.438C157.739 199.204 157.927 199.019 158.164 198.883C158.4 198.746 158.665 198.643 158.957 198.574C159.249 198.504 159.547 198.451 159.85 198.415C160.235 198.37 160.546 198.334 160.786 198.306C161.025 198.276 161.199 198.227 161.307 198.16C161.416 198.094 161.47 197.985 161.47 197.835V197.805C161.47 197.441 161.367 197.158 161.161 196.958C160.958 196.758 160.655 196.657 160.251 196.657C159.831 196.657 159.5 196.751 159.258 196.937C159.018 197.121 158.853 197.325 158.761 197.551L157.588 197.284C157.727 196.894 157.93 196.58 158.197 196.34C158.467 196.098 158.778 195.923 159.128 195.814C159.479 195.703 159.848 195.647 160.235 195.647C160.491 195.647 160.762 195.678 161.049 195.739C161.338 195.797 161.608 195.906 161.859 196.065C162.112 196.223 162.319 196.45 162.481 196.745C162.642 197.037 162.723 197.417 162.723 197.885V202.143H161.504V201.266H161.454C161.373 201.428 161.252 201.586 161.09 201.742C160.929 201.898 160.722 202.028 160.468 202.131C160.215 202.234 159.912 202.285 159.558 202.285ZM159.83 201.283C160.175 201.283 160.47 201.215 160.715 201.079C160.962 200.942 161.15 200.764 161.278 200.544C161.409 200.321 161.474 200.084 161.474 199.83V199.004C161.43 199.048 161.344 199.09 161.216 199.129C161.09 199.165 160.947 199.197 160.786 199.225C160.624 199.25 160.467 199.274 160.314 199.296C160.161 199.315 160.033 199.332 159.93 199.346C159.688 199.377 159.466 199.428 159.266 199.5C159.068 199.573 158.91 199.677 158.79 199.814C158.673 199.947 158.615 200.125 158.615 200.348C158.615 200.657 158.729 200.891 158.957 201.049C159.185 201.205 159.476 201.283 159.83 201.283ZM167.074 204.681C166.565 204.681 166.126 204.615 165.759 204.481C165.394 204.347 165.096 204.171 164.865 203.951C164.634 203.731 164.462 203.49 164.348 203.229L165.421 202.786C165.496 202.908 165.596 203.038 165.721 203.174C165.849 203.313 166.022 203.432 166.239 203.529C166.459 203.626 166.741 203.675 167.086 203.675C167.559 203.675 167.951 203.56 168.259 203.329C168.568 203.1 168.723 202.736 168.723 202.235V200.974H168.644C168.568 201.111 168.46 201.262 168.318 201.429C168.179 201.596 167.987 201.741 167.742 201.863C167.497 201.986 167.178 202.047 166.786 202.047C166.279 202.047 165.823 201.929 165.416 201.692C165.013 201.453 164.693 201.101 164.456 200.636C164.222 200.168 164.106 199.594 164.106 198.912C164.106 198.23 164.221 197.645 164.452 197.158C164.686 196.671 165.006 196.298 165.412 196.04C165.819 195.778 166.279 195.647 166.794 195.647C167.192 195.647 167.514 195.714 167.758 195.848C168.003 195.978 168.194 196.131 168.33 196.307C168.47 196.482 168.577 196.637 168.652 196.77H168.744V195.731H169.967V202.285C169.967 202.836 169.839 203.288 169.583 203.642C169.327 203.995 168.98 204.257 168.543 204.427C168.109 204.596 167.619 204.681 167.074 204.681ZM167.061 201.012C167.42 201.012 167.724 200.928 167.971 200.761C168.222 200.591 168.411 200.349 168.539 200.035C168.67 199.718 168.735 199.338 168.735 198.895C168.735 198.464 168.671 198.084 168.543 197.755C168.415 197.427 168.227 197.171 167.98 196.987C167.732 196.801 167.426 196.708 167.061 196.708C166.686 196.708 166.372 196.805 166.122 197C165.872 197.192 165.682 197.453 165.554 197.785C165.429 198.116 165.366 198.486 165.366 198.895C165.366 199.315 165.43 199.684 165.558 200.001C165.686 200.319 165.876 200.566 166.126 200.745C166.379 200.923 166.691 201.012 167.061 201.012ZM174.405 202.272C173.773 202.272 173.229 202.138 172.772 201.868C172.319 201.595 171.968 201.212 171.72 200.719C171.475 200.224 171.353 199.644 171.353 198.979C171.353 198.322 171.475 197.743 171.72 197.242C171.968 196.741 172.313 196.35 172.756 196.069C173.201 195.788 173.721 195.647 174.317 195.647C174.679 195.647 175.03 195.707 175.369 195.827C175.709 195.946 176.013 196.134 176.283 196.39C176.553 196.646 176.766 196.979 176.922 197.388C177.078 197.794 177.156 198.288 177.156 198.87V199.313H172.058V198.377H175.933C175.933 198.049 175.866 197.758 175.732 197.505C175.599 197.249 175.411 197.047 175.169 196.9C174.929 196.752 174.648 196.678 174.325 196.678C173.975 196.678 173.669 196.765 173.407 196.937C173.148 197.107 172.948 197.33 172.806 197.605C172.667 197.878 172.597 198.174 172.597 198.494V199.225C172.597 199.654 172.672 200.018 172.822 200.319C172.976 200.619 173.188 200.849 173.461 201.008C173.734 201.163 174.053 201.241 174.417 201.241C174.654 201.241 174.869 201.208 175.064 201.141C175.259 201.072 175.428 200.969 175.569 200.832C175.711 200.696 175.82 200.527 175.895 200.327L177.077 200.54C176.982 200.888 176.812 201.193 176.567 201.454C176.325 201.713 176.02 201.915 175.653 202.06C175.288 202.202 174.872 202.272 174.405 202.272ZM184.416 202.272C183.784 202.272 183.24 202.138 182.783 201.868C182.33 201.595 181.979 201.212 181.731 200.719C181.486 200.224 181.364 199.644 181.364 198.979C181.364 198.322 181.486 197.743 181.731 197.242C181.979 196.741 182.324 196.35 182.767 196.069C183.212 195.788 183.732 195.647 184.328 195.647C184.69 195.647 185.041 195.707 185.38 195.827C185.72 195.946 186.024 196.134 186.294 196.39C186.564 196.646 186.777 196.979 186.933 197.388C187.089 197.794 187.167 198.288 187.167 198.87V199.313H182.07V198.377H185.944C185.944 198.049 185.877 197.758 185.743 197.505C185.61 197.249 185.422 197.047 185.18 196.9C184.94 196.752 184.659 196.678 184.336 196.678C183.986 196.678 183.68 196.765 183.418 196.937C183.159 197.107 182.959 197.33 182.817 197.605C182.678 197.878 182.608 198.174 182.608 198.494V199.225C182.608 199.654 182.683 200.018 182.834 200.319C182.987 200.619 183.2 200.849 183.472 201.008C183.745 201.163 184.064 201.241 184.428 201.241C184.665 201.241 184.881 201.208 185.075 201.141C185.27 201.072 185.439 200.969 185.581 200.832C185.722 200.696 185.831 200.527 185.906 200.327L187.088 200.54C186.993 200.888 186.823 201.193 186.578 201.454C186.336 201.713 186.031 201.915 185.664 202.06C185.299 202.202 184.883 202.272 184.416 202.272ZM188.552 202.143V195.731H189.758V196.749H189.825C189.942 196.404 190.148 196.133 190.443 195.935C190.741 195.735 191.078 195.635 191.453 195.635C191.531 195.635 191.623 195.637 191.729 195.643C191.837 195.649 191.922 195.656 191.984 195.664V196.858C191.933 196.844 191.844 196.829 191.716 196.812C191.588 196.792 191.46 196.783 191.332 196.783C191.037 196.783 190.774 196.845 190.543 196.971C190.315 197.093 190.134 197.264 190.001 197.484C189.867 197.701 189.8 197.949 189.8 198.227V202.143H188.552ZM193.064 202.143V195.731H194.27V196.749H194.337C194.454 196.404 194.66 196.133 194.955 195.935C195.253 195.735 195.589 195.635 195.965 195.635C196.043 195.635 196.135 195.637 196.241 195.643C196.349 195.649 196.434 195.656 196.495 195.664V196.858C196.445 196.844 196.356 196.829 196.228 196.812C196.1 196.792 195.972 196.783 195.844 196.783C195.549 196.783 195.286 196.845 195.055 196.971C194.827 197.093 194.646 197.264 194.512 197.484C194.379 197.701 194.312 197.949 194.312 198.227V202.143H193.064ZM200.047 202.272C199.446 202.272 198.921 202.135 198.473 201.859C198.025 201.584 197.677 201.198 197.429 200.703C197.182 200.207 197.058 199.628 197.058 198.966C197.058 198.301 197.182 197.719 197.429 197.221C197.677 196.723 198.025 196.336 198.473 196.06C198.921 195.785 199.446 195.647 200.047 195.647C200.648 195.647 201.173 195.785 201.621 196.06C202.069 196.336 202.417 196.723 202.665 197.221C202.912 197.719 203.036 198.301 203.036 198.966C203.036 199.628 202.912 200.207 202.665 200.703C202.417 201.198 202.069 201.584 201.621 201.859C201.173 202.135 200.648 202.272 200.047 202.272ZM200.051 201.225C200.441 201.225 200.764 201.122 201.02 200.916C201.276 200.71 201.465 200.436 201.588 200.093C201.713 199.751 201.775 199.374 201.775 198.962C201.775 198.553 201.713 198.177 201.588 197.835C201.465 197.49 201.276 197.213 201.02 197.004C200.764 196.795 200.441 196.691 200.051 196.691C199.659 196.691 199.333 196.795 199.074 197.004C198.818 197.213 198.628 197.49 198.502 197.835C198.38 198.177 198.319 198.553 198.319 198.962C198.319 199.374 198.38 199.751 198.502 200.093C198.628 200.436 198.818 200.71 199.074 200.916C199.333 201.122 199.659 201.225 200.051 201.225ZM204.43 202.143V195.731H205.636V196.749H205.703C205.82 196.404 206.026 196.133 206.321 195.935C206.618 195.735 206.955 195.635 207.331 195.635C207.409 195.635 207.501 195.637 207.606 195.643C207.715 195.649 207.8 195.656 207.861 195.664V196.858C207.811 196.844 207.722 196.829 207.594 196.812C207.466 196.792 207.338 196.783 207.21 196.783C206.915 196.783 206.652 196.845 206.421 196.971C206.193 197.093 206.012 197.264 205.878 197.484C205.745 197.701 205.678 197.949 205.678 198.227V202.143H204.43Z" fill="#D14343"/>
</svg>
