<svg width="395" height="223" fill="none" xmlns="http://www.w3.org/2000/svg"><path fill="#F3B7F9" d="M0 0h394.963v222.167H0z"/><path fill-rule="evenodd" clip-rule="evenodd" d="M241.301 68.1c7.891 0 14.288 6.393 14.288 14.28v35.991c0 8.557 3.935 15.994 10.497 19.671l-14.911 14.903c-10.718-7.503-17.717-19.925-17.717-34.574v-7.92c0-2.753.338-5.496 1.006-8.167h-1.006L206.33 142.91a12.648 12.648 0 0 1-10.52 5.624c-6.985 0-12.648-5.66-12.648-12.642v-33.608l-27.128 40.626a12.65 12.65 0 0 1-10.52 5.624c-6.986 0-12.649-5.66-12.649-12.642l.327-20.66a135.453 135.453 0 0 0-4.476-36.743l21.877-5.655 2.719 13.218a82.125 82.125 0 0 1 1.684 16.548c0 2.461-.302 4.913-.899 7.301l-.107.426h1.006l24.15-35.913a14.29 14.29 0 0 1 11.858-6.315c7.891 0 14.288 6.394 14.288 14.281v27.947l24.15-35.913a14.291 14.291 0 0 1 11.859-6.315Z" fill="#FBEFDF"/><path fill-rule="evenodd" clip-rule="evenodd" d="M135.033 98.838c7.046 0 12.945 5.816 12.945 13.575 0 7.756-6.186 13.576-13.026 13.576-2.695 0-4.941-.778-6.479-1.937l-.325-.001c.216.859.325 1.741.325 2.626v7.715h-7.152v-34.91h7.152c0 .861-.106 1.719-.316 2.554l-.009.035h.325c1.315-1.688 3.901-3.233 6.56-3.233Zm99.348.648c2.55 0 4.618 2.055 4.618 4.591v11.57c0 2.751 1.271 5.142 3.392 6.324l-4.819 4.791c-3.463-2.412-5.725-6.405-5.725-11.115v-2.546c0-.885.109-1.767.325-2.626h-.325l-8.767 13.061a4.092 4.092 0 0 1-3.399 1.808c-2.258 0-4.088-1.82-4.088-4.064v-10.805l-8.766 13.061a4.094 4.094 0 0 1-3.4 1.808c-2.258 0-4.088-1.82-4.088-4.064l.106-6.642a43.335 43.335 0 0 0-1.446-11.812l7.069-1.818.879 4.249c.362 1.751.544 3.533.544 5.32 0 .791-.097 1.579-.29 2.347l-.035.137h.325l7.804-11.545a4.626 4.626 0 0 1 3.832-2.03c2.551 0 4.618 2.055 4.618 4.591v8.984l7.804-11.545a4.626 4.626 0 0 1 3.832-2.03ZM77.375 90.567l.04.001c2.812.017 5.399.983 7.29 2.727 1.915 1.764 2.97 4.18 2.97 6.801 0 1.512-.371 2.76-.702 3.715-3.366-2.254-6.781-2.726-6.781-2.726.054-.303.08-.656.098-.988 0-1.54-1.205-2.618-2.932-2.625-1.727.007-2.932 1.084-2.932 2.625 0 1.144.712 2.012 2.115 2.578l4.668 1.708c2.699.99 4.796 2.483 6.235 4.44a10.446 10.446 0 0 1 2.029 6.235c0 3.002-1.206 5.788-3.395 7.846-2.209 2.075-5.237 3.219-8.526 3.219h-.003c-3.288-.001-6.315-1.144-8.524-3.219a10.665 10.665 0 0 1-3.395-7.846c0-2.274.702-4.43 2.03-6.235l.104.029c1.462 1.438 3.318 2.583 5.542 3.415l.75.272c-.868.899-1.041 1.882-1.041 2.519 0 2.411 1.908 4.16 4.537 4.161 2.628-.001 4.536-1.75 4.536-4.161 0-.986-.411-2.796-3.168-3.848l-4.584-1.666c-2.425-.907-4.286-2.233-5.537-3.942-1.167-1.594-1.758-3.447-1.758-5.505 0-2.622 1.054-5.038 2.97-6.802 1.9-1.752 4.503-2.72 7.33-2.727h.034Zm22.491 8.918v15.191c0 2.496 2.042 4.526 4.551 4.526 2.51 0 4.552-2.03 4.552-4.526V99.485h7.151v14.869c0 4.822-2.949 8.958-7.151 10.724a11.738 11.738 0 0 1-4.552.912c-1.614 0-3.152-.325-4.55-.912-4.203-1.766-7.152-5.902-7.152-10.724V99.486h7.151Zm156.712-.648c7.54 0 13.628 5.819 13.628 13.575 0 7.759-6.088 13.576-13.628 13.576-7.541 0-13.679-5.817-13.679-13.576 0-7.756 6.138-13.575 13.679-13.575Zm29.907 0c7.54 0 13.628 5.819 13.628 13.575 0 7.759-6.088 13.576-13.628 13.576-7.541 0-13.679-5.817-13.679-13.576 0-7.756 6.138-13.575 13.679-13.575Zm42.884-8.403v34.909h-7.151c0-.861.106-1.718.316-2.553l.009-.036h-.325c-1.315 1.689-3.901 3.234-6.561 3.234-7.045 0-12.944-5.817-12.944-13.576 0-7.756 6.186-13.575 13.026-13.575 2.695 0 4.941.778 6.479 1.937l.325.001c-.216-.86-.325-1.74-.325-2.626v-7.715h7.151Zm-165.763 8.403c7.54 0 12.978 5.819 12.978 13.575 0 .89-.081 1.754-.234 2.588h-18.866c.245 2.58 2.836 4.515 6.103 4.523 2.04-.008 3.816-.767 4.919-1.966h7.196a13.634 13.634 0 0 1-.753 1.697c-2.163 4.087-6.298 6.724-11.364 6.734l-.029-.001c-7.514-.025-12.978-5.833-12.978-13.575 0-7.756 5.488-13.575 13.028-13.575Zm30.591.326c.641 0 1.273.05 1.892.143v6.857a6.47 6.47 0 0 0-2.626-.535c-2.764 0-5.826 1.292-5.826 6.463v13.252h-7.152V99.486h7.152c0 .858-.106 1.714-.316 2.547l-.009.038h.325c1.3-1.939 4.11-2.907 6.56-2.907Zm62.381 6.138c-3.944 0-6.527 3.19-6.527 7.111s2.583 7.111 6.527 7.111c3.943 0 6.476-3.19 6.476-7.111s-2.533-7.111-6.476-7.111Zm29.907 0c-3.944 0-6.527 3.19-6.527 7.111s2.583 7.111 6.527 7.111c3.943 0 6.476-3.19 6.476-7.111s-2.533-7.111-6.476-7.111Zm-152.186 0c-2.763 0-4.834 1.567-5.826 3.855a8.185 8.185 0 0 0-.65 3.256 8.19 8.19 0 0 0 .65 3.257c.992 2.287 3.063 3.854 5.826 3.854 3.944 0 6.527-3.19 6.527-7.111s-2.583-7.111-6.527-7.111Zm182.093 0c-3.944 0-6.527 3.19-6.527 7.111s2.583 7.111 6.527 7.111c2.763 0 4.834-1.567 5.826-3.854a8.19 8.19 0 0 0 .65-3.257c0-1.173-.227-2.28-.65-3.256-.992-2.288-3.063-3.855-5.826-3.855Zm-152.786 0c-3.276 0-5.876 1.941-6.123 4.527h12.203c-.253-2.586-2.854-4.527-6.08-4.527Z" fill="#141414"/></svg>