<svg width="391" height="558" viewBox="0 0 391 558" fill="none" xmlns="http://www.w3.org/2000/svg">
<rect width="391" height="558" fill="#0123FF"/>
<path d="M158.69 326.321H131.182C137.348 313.832 141.458 294.07 143.355 282.055H141.932C136.715 308.457 122.25 326.321 94.8996 326.321C79.7227 326.321 70 323.159 70 310.986C70 289.011 95.9272 282.371 128.336 276.68C146.359 273.36 150.785 267.352 149.521 264.191C148.256 261.029 142.407 261.661 136.241 264.823C127.862 269.091 107.31 281.897 90.0778 278.893C64.6248 274.941 70 242.69 84.0703 232.73L85.1769 233.521C84.0703 234.469 82.4893 240.477 91.1844 240.477C108.575 240.477 119.167 232.256 135.767 232.256C148.572 232.256 156.477 239.054 156.477 251.859C156.477 265.455 149.521 272.886 142.881 277.945H144.146L156.161 276.917C154.896 282.292 156.477 290.908 156.477 299.603C156.477 307.666 157.583 321.104 158.69 326.321ZM122.961 304.03C127.546 308.14 137.031 297.706 139.719 280C137.98 281.107 134.818 283.478 131.498 286.64C126.913 290.908 118.693 300.078 122.961 304.03Z" fill="white"/>
<path d="M202.007 326.245H251.332V294.153V287.038C251.438 283.877 251.596 280.925 251.807 278.185C252.123 275.445 252.439 273.073 252.755 271.071C253.177 269.069 253.598 267.277 254.02 265.696C254.547 264.115 255.074 262.797 255.601 261.744C256.128 260.69 256.655 259.846 257.182 259.214C257.814 258.582 258.394 258.16 258.921 257.949C259.553 257.739 260.185 257.686 260.818 257.791C270.093 260.215 273.887 272.285 272.201 293.994C270.936 310.645 265.561 317.573 256.075 319.997V326.245C277.997 326.351 299.972 326.351 322 326.245V319.997C312.409 317.573 307.034 310.645 305.874 293.994C305.558 289.674 305.295 282.294 305.084 271.861C305.505 260.901 303.45 251.73 298.918 244.353C294.492 236.976 288.589 232.97 281.212 232.338C275.731 231.811 270.303 233.814 264.928 238.346C259.658 242.877 255.179 249.782 251.49 259.056V255.499C238.679 255.409 231.622 255.362 218.419 255.417C218.502 256.121 218.548 256.892 218.455 257.622C218.45 257.662 218.444 257.703 218.438 257.743C219.174 269.774 219.073 281.807 218.133 293.836C216.868 310.593 211.493 320.185 202.007 322.609V326.245Z" fill="white"/>
<path d="M162.587 229.573C162.526 253.38 183.598 270.052 206.53 270.11C222.757 270.151 237.875 264.324 248.598 260.192C257.936 256.592 262.277 249.449 262.775 253.416C263.146 256.989 266.611 257.973 270.967 259.21C272.021 259.509 273.126 259.823 274.253 260.192C286.031 257.872 295.049 253.974 295.558 244.981C296.235 236.465 288.384 231.859 278.553 232.926C267.883 234.031 260.424 240.041 253.562 245.57C244.547 252.833 236.562 259.267 223.682 252.661C198.817 239.494 223.893 169.667 248.116 177.591C257.732 180.544 253.601 191.578 248.598 204.942C243.154 219.484 236.677 236.785 245.75 249.441L246.626 248.351C246.649 239.17 257.677 233.855 269.53 228.141C282.491 221.894 296.439 215.171 298.068 202.398C300.962 181.22 274.774 172.635 247.472 173.221C217.329 174.237 162.693 187.639 162.587 229.573Z" fill="white"/>
<path d="M196.631 221.347L197.365 287.042C197.365 295.361 198.895 302.518 201.953 308.513C205.012 314.384 209.722 318.116 216.083 319.706L216.236 326.321H186.325C178.862 326.321 172.286 321.052 166.903 315.669C161.521 310.286 158.829 303.863 158.829 296.401C158.829 280.742 158.89 268.569 159.013 259.883C158.768 255.601 158.34 251.748 157.728 248.322C157.239 244.897 156.321 241.166 154.976 237.128C153.752 233.091 151.795 229.727 149.103 227.036C146.534 224.222 143.354 222.325 139.561 221.347C139.561 220.857 139.561 220.123 139.561 219.145C139.561 218.166 139.561 217.432 139.561 216.943C161.459 212.538 176.629 204.464 185.071 192.72C182.379 193.943 179.565 194.555 176.629 194.555C171.002 194.555 166.169 192.597 162.132 188.683C158.217 184.646 156.26 179.813 156.26 174.186C156.26 170.516 157.178 167.151 159.013 164.093C160.848 160.912 163.294 158.465 166.353 156.753C169.534 154.918 172.959 154 176.629 154C182.501 154 187.334 156.202 191.126 160.606C194.919 164.888 196.815 170.149 196.815 176.388V216.943H231.65V221.163H196.815V221.347H196.631Z" fill="white"/>
<path d="M199.317 219.691L199.628 247.531C199.628 251.056 200.276 254.089 201.572 256.63C202.868 259.118 204.864 260.699 207.56 261.373V263.084H194.884C191.722 263.084 189 261.943 186.719 259.662C184.438 257.381 183.297 254.659 183.297 251.497C183.297 244.861 183.323 239.703 183.375 236.022C183.271 234.208 183.09 232.575 182.831 231.123C182.623 229.671 182.234 228.09 181.664 226.379C181.146 224.668 180.316 223.243 179.176 222.102C178.087 220.91 176.739 220.106 175.132 219.691C175.132 219.484 175.132 219.173 175.132 218.758C175.132 218.344 175.132 218.032 175.132 217.825C184.412 215.959 190.84 212.537 194.417 207.56C193.277 208.079 192.085 208.338 190.84 208.338C188.455 208.338 186.408 207.508 184.697 205.849C183.038 204.139 182.208 202.091 182.208 199.706C182.208 198.151 182.597 196.725 183.375 195.429C184.153 194.081 185.189 193.044 186.485 192.318C187.833 191.541 189.285 191.152 190.84 191.152C193.329 191.152 195.377 192.085 196.984 193.951C198.591 195.766 199.394 197.995 199.394 200.639V217.825H207.56V219.614H199.394V219.691H199.317Z" fill="#0123FF"/>
<path d="M153.26 372.016C153.293 374.305 153.731 376.274 154.573 377.924C155.414 379.539 156.71 380.566 158.461 381.004V382.115H150.23C148.143 382.115 146.359 381.374 144.877 379.893C143.43 378.412 142.706 376.644 142.706 374.591C142.706 370.282 142.723 366.932 142.757 364.542C142.487 359.594 141.343 356.362 139.323 354.847C138.515 354.309 137.152 353.922 135.233 353.686C133.314 353.417 131.412 353.417 129.527 353.686C127.675 353.922 126.48 354.41 125.942 355.15C125.605 355.554 125.504 356.025 125.639 356.564C125.773 357.069 126.144 357.557 126.75 358.028C127.692 358.769 128.82 359.678 130.133 360.755C131.479 361.799 132.607 362.708 133.516 363.482C134.459 364.256 134.997 364.694 135.132 364.795C136.781 366.007 137.993 367.471 138.767 369.188C139.575 370.905 139.912 372.605 139.777 374.288C139.643 375.971 139.02 377.57 137.909 379.085C136.832 380.566 135.351 381.694 133.465 382.468C130.772 383.545 127.743 384 124.376 383.832C121.044 383.663 118.367 382.94 116.348 381.66C115.102 380.886 114.159 379.809 113.52 378.429C112.88 377.048 112.594 375.702 112.661 374.389C112.729 373.042 113.2 371.831 114.075 370.753C114.951 369.642 116.146 368.952 117.66 368.683C118.165 368.548 118.654 368.481 119.125 368.481C120.774 368.481 122.171 369.053 123.316 370.198C124.46 371.342 125.033 372.739 125.033 374.389C125.033 376.005 124.46 377.385 123.316 378.53C122.171 379.674 120.774 380.246 119.125 380.246C118.956 380.246 118.788 380.23 118.62 380.196C119.158 381.206 119.966 381.845 121.044 382.115C122.155 382.384 123.299 382.35 124.477 382.014C125.689 381.643 126.716 380.97 127.558 379.994C128.433 379.018 128.87 377.89 128.87 376.611C128.87 375.702 128.668 374.81 128.264 373.935C127.86 373.026 127.389 372.251 126.851 371.612C126.346 370.972 125.571 370.265 124.528 369.491C123.484 368.683 122.643 368.077 122.003 367.673C121.363 367.269 120.421 366.68 119.175 365.906C119.074 365.838 118.99 365.788 118.923 365.754C118.855 365.721 118.771 365.687 118.67 365.653C118.603 365.586 118.519 365.535 118.418 365.502C117.172 364.728 116.146 363.987 115.338 363.28C114.563 362.539 114.008 361.698 113.671 360.755C113.234 359.712 113.217 358.533 113.621 357.221C114.058 355.874 114.934 354.729 116.247 353.787C117.223 353.046 118.536 352.541 120.185 352.272C121.868 351.969 123.653 351.834 125.538 351.868C127.423 351.902 129.308 351.986 131.193 352.121C133.078 352.222 134.963 352.255 136.849 352.222C138.767 352.154 140.35 351.952 141.595 351.616C142.807 351.346 143.952 350.976 145.029 350.505C146.106 350 147.15 349.377 148.16 348.636C149.203 347.896 150.028 346.953 150.634 345.809C151.24 344.664 151.543 343.418 151.543 342.072C151.543 340.557 151.172 339.16 150.432 337.881C149.691 336.568 148.681 335.541 147.402 334.801C146.123 334.026 144.726 333.622 143.211 333.589C144.423 334.026 145.399 334.784 146.14 335.861C146.914 336.938 147.301 338.133 147.301 339.446C147.301 341.197 146.695 342.678 145.483 343.89C144.271 345.102 142.79 345.708 141.04 345.708C139.323 345.708 137.859 345.102 136.647 343.89C135.435 342.678 134.829 341.197 134.829 339.446C134.829 338.302 135.115 337.241 135.687 336.265C136.26 335.289 137.034 334.531 138.01 333.993C139.626 332.983 141.393 332.478 143.312 332.478C145.803 332.478 147.958 333.303 149.775 334.952C151.627 336.568 152.721 338.605 153.058 341.062C153.091 341.466 153.108 341.87 153.108 342.274V352.726H158.461V353.888H153.108C153.108 355.369 153.159 361.412 153.26 372.016ZM180.962 365.653V352.726C184.497 352.726 187.998 352.726 191.465 352.726V365.855C191.465 366.293 191.482 368.346 191.516 372.016C191.549 374.305 191.987 376.274 192.829 377.924C193.67 379.539 194.949 380.566 196.666 381.004V382.115H188.436C186.382 382.115 184.615 381.374 183.134 379.893C181.686 378.412 180.962 376.644 180.962 374.591V374.086C180.154 376.072 179.212 377.738 178.134 379.085C177.057 380.432 175.963 381.374 174.852 381.913C173.741 382.451 172.614 382.67 171.469 382.569C169.113 382.367 167.211 381.105 165.763 378.782C164.349 376.426 163.693 373.497 163.794 369.996C163.76 366.697 163.693 364.357 163.592 362.977C163.222 357.692 161.505 354.662 158.441 353.888V352.777C164.265 352.743 169.517 352.726 174.196 352.726V365.603C174.196 370.854 175.458 373.817 177.983 374.49C178.522 374.625 178.993 374.372 179.397 373.733C179.835 373.059 180.154 372.167 180.356 371.056C180.558 369.912 180.71 368.919 180.811 368.077C180.912 367.202 180.962 366.394 180.962 365.653ZM214.24 382.115H214.19C213.55 382.115 213.18 382.115 213.079 382.115C205.942 381.845 200.859 379.253 197.829 374.338C195.607 370.77 194.867 366.747 195.607 362.27C196.213 358.466 197.661 355.638 199.95 353.787C201.229 352.743 202.626 352.222 204.141 352.222C205.925 352.188 207.609 352.693 209.191 353.736C210.773 354.746 212.035 356.261 212.978 358.281C212.978 356.194 212.961 354.847 212.927 354.241V348.485C217.708 348.451 223.01 348.451 228.833 348.485V349.596C225.804 350.37 224.087 353.45 223.683 358.836C223.346 363.145 223.346 367.454 223.683 371.763C224.087 377.116 225.804 380.179 228.833 380.953V382.115C223.346 382.115 218.482 382.115 214.24 382.115ZM207.474 367.219C207.44 369.979 207.962 372.723 209.039 375.449C210.116 378.142 211.429 379.943 212.978 380.852C212.978 380.246 212.961 377.94 212.927 373.935C212.927 369.895 212.927 367.639 212.927 367.168C212.927 364.509 212.742 362.472 212.372 361.058C212.002 359.611 211.547 358.904 211.009 358.937C210.504 358.937 209.982 359.274 209.443 359.947C208.905 360.621 208.433 361.647 208.029 363.028C207.659 364.408 207.474 365.805 207.474 367.219ZM244.822 372.016C245.193 377.2 246.909 380.196 249.973 381.004V382.115C242.937 382.148 235.918 382.148 228.916 382.115V381.004C231.98 380.196 233.696 377.2 234.067 372.016C234.302 368.952 234.302 365.889 234.067 362.826C233.696 357.641 231.98 354.645 228.916 353.837V352.726C232.99 353.703 236.474 354.191 239.369 354.191C242.297 354.157 245.832 353.669 249.973 352.726V353.837C246.909 354.645 245.193 357.641 244.822 362.826C244.587 365.889 244.587 368.952 244.822 372.016ZM235.026 348.636C233.814 347.391 233.208 345.91 233.208 344.193C233.208 342.476 233.814 341.012 235.026 339.8C236.238 338.554 237.702 337.931 239.419 337.931C241.17 337.931 242.651 338.554 243.863 339.8C245.075 341.012 245.681 342.476 245.681 344.193C245.681 345.91 245.075 347.391 243.863 348.636C242.651 349.848 241.17 350.454 239.419 350.454C237.702 350.454 236.238 349.848 235.026 348.636ZM278.695 367.926C278.695 370.215 278.274 372.302 277.433 374.187C276.591 376.072 275.463 377.621 274.05 378.833C272.636 380.011 271.054 380.92 269.303 381.559C267.553 382.199 265.735 382.536 263.85 382.569C262.368 382.569 260.904 382.384 259.456 382.014C258.043 381.61 256.696 380.987 255.417 380.145C254.171 379.304 253.077 378.294 252.135 377.116C251.192 375.937 250.435 374.49 249.862 372.773C249.324 371.023 249.054 369.137 249.054 367.118C249.054 364.795 249.475 362.691 250.317 360.806C251.158 358.887 252.269 357.338 253.649 356.16C255.063 354.948 256.629 354.006 258.346 353.332C260.096 352.659 261.914 352.323 263.799 352.323C265.718 352.289 267.536 352.592 269.253 353.231C271.003 353.871 272.585 354.814 273.999 356.059C275.413 357.305 276.541 358.954 277.382 361.008C278.258 363.061 278.695 365.367 278.695 367.926ZM263.799 353.837C262.789 353.905 261.931 355.133 261.224 357.524C260.517 359.88 260.147 363.179 260.113 367.421C260.079 370.248 260.248 372.723 260.618 374.843C260.988 376.964 261.443 378.53 261.981 379.539C262.553 380.516 263.176 381.021 263.85 381.054C264.489 381.088 265.078 380.65 265.617 379.741C266.189 378.799 266.66 377.301 267.031 375.247C267.401 373.16 267.603 370.686 267.637 367.825C267.637 365.569 267.536 363.516 267.334 361.664C267.132 359.813 266.846 358.331 266.475 357.221C266.105 356.076 265.684 355.218 265.213 354.645C264.742 354.039 264.27 353.77 263.799 353.837Z" fill="white"/>
</svg>
