<svg width="391" height="558" viewBox="0 0 391 558" fill="none" xmlns="http://www.w3.org/2000/svg">
<rect width="391" height="558" fill="#0123FF"/>
<path d="M130.394 342.759C121.197 342.759 113.469 341.1 107.211 337.783C101.029 334.466 96.3928 330.055 93.3017 324.552C90.2107 319.048 88.6652 313.055 88.6652 306.571C88.6652 299.936 89.9845 294.282 92.6232 289.608C95.3373 284.858 98.9938 280.975 103.593 277.96C108.267 274.944 113.657 272.645 119.764 271.061C125.946 269.554 132.769 268.234 140.233 267.103C147.772 265.897 155.123 264.879 162.285 264.05C169.523 263.145 175.856 262.278 181.284 261.449L175.403 265.068C175.629 253.005 173.292 244.071 168.392 238.266C163.491 232.461 154.972 229.558 142.834 229.558C134.466 229.558 127.379 231.443 121.574 235.213C115.844 238.982 111.81 244.938 109.473 253.081L93.3017 248.331C96.0912 237.399 101.708 228.918 110.152 222.886C118.596 216.855 129.565 213.839 143.06 213.839C154.218 213.839 163.68 215.95 171.445 220.172C179.286 224.319 184.827 230.35 188.069 238.266C189.577 241.809 190.557 245.768 191.009 250.14C191.462 254.513 191.688 258.961 191.688 263.485V339.366H176.873V308.72L181.171 310.529C177.024 321.008 170.578 329 161.833 334.503C153.087 340.007 142.608 342.759 130.394 342.759ZM132.317 328.397C140.082 328.397 146.867 327.002 152.673 324.213C158.478 321.423 163.152 317.616 166.695 312.791C170.239 307.89 172.538 302.387 173.594 296.28C174.498 292.36 174.989 288.062 175.064 283.388C175.139 278.638 175.177 275.095 175.177 272.758L181.51 276.037C175.856 276.791 169.711 277.545 163.077 278.299C156.518 279.053 150.034 279.92 143.626 280.9C137.293 281.88 131.563 283.049 126.436 284.406C122.968 285.386 119.613 286.781 116.372 288.59C113.13 290.324 110.453 292.661 108.342 295.601C106.307 298.542 105.289 302.198 105.289 306.571C105.289 310.114 106.156 313.545 107.89 316.862C109.699 320.179 112.564 322.931 116.485 325.117C120.48 327.304 125.758 328.397 132.317 328.397Z" fill="white"/>
<path d="M217.371 338C210.51 339.432 203.725 339.998 197.015 339.696C190.381 339.395 184.425 337.962 179.148 335.399C173.946 332.836 169.987 328.84 167.273 323.412C165.087 318.888 163.881 314.327 163.655 309.728C163.504 305.054 163.428 299.739 163.428 293.783V181.939H179.939V293.104C179.939 298.231 179.977 302.528 180.052 305.996C180.203 309.389 180.995 312.405 182.427 315.043C185.141 320.094 189.438 323.11 195.319 324.09C201.275 325.07 208.626 324.844 217.371 323.412V338ZM137.305 230.115V215.866H217.371V230.115H137.305Z" fill="white"/>
<path d="M183.382 210.441H235.331V215.636H183.382V210.441Z" fill="white"/>
<path d="M78.6843 453.245C73.9723 453.245 70.1438 452.185 67.1988 450.064C64.2539 447.944 62.4633 444.963 61.8272 441.123L70.5208 439.78C70.9684 441.665 71.9579 443.149 73.4893 444.233C75.0207 445.317 76.9526 445.859 79.285 445.859C81.3348 445.859 82.9133 445.458 84.0206 444.657C85.1515 443.833 85.7169 442.714 85.7169 441.3C85.7169 440.428 85.5049 439.733 85.0808 439.215C84.6803 438.673 83.785 438.155 82.395 437.66C81.0049 437.165 78.8728 436.541 75.9984 435.787C72.7943 434.939 70.2498 434.032 68.365 433.066C66.4803 432.076 65.1256 430.91 64.301 429.567C63.4764 428.224 63.0641 426.599 63.0641 424.69C63.0641 422.311 63.6884 420.237 64.9371 418.47C66.1858 416.703 67.9292 415.349 70.1674 414.406C72.4056 413.44 75.0443 412.957 78.0835 412.957C81.052 412.957 83.679 413.417 85.9643 414.336C88.2731 415.254 90.1344 416.562 91.548 418.258C92.9616 419.955 93.8333 421.945 94.1631 424.231L85.4695 425.786C85.2575 424.16 84.5153 422.876 83.2431 421.934C81.9944 420.991 80.3217 420.461 78.2249 420.343C76.2223 420.226 74.6084 420.532 73.3833 421.262C72.1582 421.969 71.5456 422.97 71.5456 424.266C71.5456 424.996 71.793 425.621 72.2878 426.139C72.7825 426.657 73.772 427.176 75.2563 427.694C76.7641 428.212 79.0023 428.849 81.9709 429.602C85.0101 430.38 87.4368 431.275 89.2509 432.288C91.0885 433.278 92.4079 434.468 93.2089 435.858C94.0335 437.248 94.4458 438.932 94.4458 440.911C94.4458 444.751 93.044 447.767 90.2404 449.958C87.4603 452.149 83.6083 453.245 78.6843 453.245ZM124.556 452.185C122.036 452.656 119.562 452.856 117.135 452.785C114.732 452.738 112.576 452.302 110.668 451.478C108.76 450.63 107.311 449.298 106.321 447.484C105.449 445.835 104.99 444.151 104.943 442.431C104.896 440.711 104.872 438.767 104.872 436.6V403.416H113.354V436.105C113.354 437.636 113.366 438.979 113.389 440.134C113.436 441.288 113.684 442.231 114.131 442.961C114.979 444.374 116.334 445.164 118.195 445.329C120.057 445.494 122.177 445.399 124.556 445.046V452.185ZM97.9456 420.697V414.018H124.556V420.697H97.9456ZM147.076 453.28C144.249 453.28 141.917 452.809 140.079 451.867C138.241 450.924 136.781 449.723 135.697 448.262C134.613 446.801 133.812 445.246 133.294 443.597C132.775 441.948 132.434 440.393 132.269 438.932C132.127 437.448 132.057 436.246 132.057 435.327V414.018H140.68V432.394C140.68 433.572 140.762 434.903 140.927 436.388C141.092 437.848 141.469 439.262 142.058 440.628C142.67 441.971 143.566 443.079 144.744 443.95C145.945 444.822 147.559 445.258 149.585 445.258C150.669 445.258 151.741 445.081 152.801 444.728C153.861 444.374 154.816 443.774 155.664 442.926C156.535 442.054 157.23 440.864 157.749 439.356C158.267 437.848 158.526 435.94 158.526 433.631L163.58 435.787C163.58 439.038 162.944 441.983 161.672 444.622C160.423 447.261 158.573 449.369 156.123 450.948C153.673 452.503 150.657 453.28 147.076 453.28ZM159.551 452.185V440.346H158.526V414.018H167.079V452.185H159.551ZM192.309 453.245C188.799 453.245 185.736 452.361 183.121 450.594C180.506 448.827 178.48 446.424 177.043 443.385C175.606 440.346 174.887 436.918 174.887 433.101C174.887 429.237 175.606 425.798 177.043 422.782C178.503 419.743 180.565 417.351 183.227 415.608C185.889 413.841 189.023 412.957 192.628 412.957C196.256 412.957 199.295 413.841 201.745 415.608C204.219 417.351 206.092 419.743 207.364 422.782C208.636 425.821 209.273 429.261 209.273 433.101C209.273 436.894 208.636 440.322 207.364 443.385C206.092 446.424 204.195 448.827 201.675 450.594C199.154 452.361 196.032 453.245 192.309 453.245ZM193.617 445.611C195.902 445.611 197.74 445.093 199.13 444.056C200.544 442.996 201.569 441.524 202.205 439.639C202.864 437.754 203.194 435.575 203.194 433.101C203.194 430.604 202.864 428.424 202.205 426.563C201.569 424.678 200.567 423.218 199.201 422.181C197.834 421.121 196.067 420.591 193.9 420.591C191.614 420.591 189.73 421.156 188.245 422.287C186.761 423.394 185.666 424.902 184.959 426.811C184.252 428.695 183.899 430.792 183.899 433.101C183.899 435.434 184.24 437.554 184.923 439.462C185.63 441.347 186.702 442.843 188.139 443.95C189.577 445.058 191.402 445.611 193.617 445.611ZM203.194 452.185V425.397H202.134V401.295H210.722V452.185H203.194ZM221.337 408.222V400.412H229.854V408.222H221.337ZM221.337 452.185V414.018H229.854V452.185H221.337ZM257.297 453.245C253.48 453.245 250.146 452.385 247.295 450.665C244.445 448.945 242.23 446.577 240.652 443.562C239.097 440.522 238.319 437.036 238.319 433.101C238.319 429.096 239.12 425.585 240.722 422.57C242.324 419.554 244.551 417.198 247.401 415.502C250.252 413.806 253.551 412.957 257.297 412.957C261.137 412.957 264.482 413.817 267.333 415.537C270.184 417.257 272.398 419.637 273.977 422.676C275.556 425.691 276.345 429.167 276.345 433.101C276.345 437.059 275.544 440.558 273.942 443.597C272.363 446.613 270.149 448.98 267.298 450.7C264.447 452.397 261.113 453.245 257.297 453.245ZM257.297 445.258C260.689 445.258 263.21 444.127 264.859 441.865C266.509 439.604 267.333 436.682 267.333 433.101C267.333 429.402 266.497 426.457 264.824 424.266C263.151 422.051 260.642 420.944 257.297 420.944C255.011 420.944 253.127 421.462 251.642 422.499C250.182 423.512 249.098 424.938 248.391 426.775C247.684 428.589 247.331 430.698 247.331 433.101C247.331 436.8 248.167 439.757 249.84 441.971C251.536 444.162 254.022 445.258 257.297 445.258Z" fill="white"/>
</svg>
