<svg width="234" height="400" viewBox="0 0 234 400" fill="none" xmlns="http://www.w3.org/2000/svg">
<path d="M75.4505 261.056C65.6779 261.056 57.4673 259.294 50.8188 255.769C44.2503 252.245 39.3239 247.559 36.0397 241.711C32.7555 235.864 31.1134 229.496 31.1134 222.607C31.1134 215.558 32.5152 209.55 35.3188 204.583C38.2025 199.537 42.0875 195.412 46.9738 192.208C51.9402 189.003 57.6676 186.56 64.1559 184.878C70.7244 183.276 77.9738 181.874 85.904 180.673C93.9143 179.391 101.724 178.31 109.334 177.428C117.024 176.467 123.753 175.546 129.52 174.665L123.272 178.51C123.512 165.693 121.029 156.201 115.823 150.033C110.616 143.865 101.564 140.781 88.6675 140.781C79.7761 140.781 72.2464 142.784 66.0784 146.789C59.9906 150.794 55.7051 157.122 53.2219 165.773L36.0397 160.727C39.0035 149.112 44.9712 140.1 53.9428 133.692C62.9143 127.284 74.5694 124.08 88.9078 124.08C100.763 124.08 110.816 126.323 119.067 130.808C127.397 135.214 133.285 141.622 136.729 150.033C138.332 153.798 139.373 158.003 139.854 162.649C140.334 167.295 140.574 172.022 140.574 176.828V257.452H124.834V224.89L129.4 226.812C124.994 237.946 118.146 246.437 108.854 252.285C99.5616 258.132 88.4272 261.056 75.4505 261.056ZM77.4931 245.797C85.7438 245.797 92.9531 244.315 99.121 241.351C105.289 238.387 110.255 234.342 114.02 229.215C117.785 224.009 120.228 218.161 121.35 211.673C122.311 207.507 122.832 202.941 122.912 197.975C122.992 192.928 123.032 189.164 123.032 186.68L129.76 190.165C123.753 190.966 117.224 191.767 110.175 192.568C103.206 193.369 96.3174 194.29 89.5086 195.332C82.7799 196.373 76.6921 197.614 71.2451 199.056C67.5603 200.098 63.9957 201.58 60.5513 203.502C57.1069 205.344 54.2632 207.828 52.0203 210.952C49.8575 214.076 48.7761 217.961 48.7761 222.607C48.7761 226.372 49.6973 230.016 51.5397 233.541C53.4622 237.065 56.5061 239.989 60.6715 242.312C64.9169 244.635 70.5242 245.797 77.4931 245.797Z" fill="#0123FF"/>
<path d="M167.863 256C160.573 257.522 153.364 258.123 146.235 257.802C139.186 257.482 132.858 255.96 127.251 253.236C121.723 250.513 117.518 246.267 114.634 240.5C112.311 235.694 111.03 230.848 110.789 225.961C110.629 220.995 110.549 215.348 110.549 209.019V90.1863H128.092V208.299C128.092 213.746 128.132 218.311 128.212 221.996C128.372 225.601 129.213 228.805 130.735 231.609C133.619 236.975 138.185 240.18 144.433 241.221C150.761 242.262 158.571 242.022 167.863 240.5V256ZM82.7932 141.372V126.233H167.863V141.372H82.7932Z" fill="#0123FF"/>
<path d="M132.499 120.53L187.695 120.53V126.05L132.499 126.05V120.53Z" fill="#0123FF"/>
<path d="M20.9145 377.759C15.908 377.759 11.8403 376.632 8.71123 374.379C5.58219 372.126 3.67974 368.96 3.00387 364.88L12.2408 363.453C12.7164 365.455 13.7677 367.032 15.3948 368.184C17.0219 369.335 19.0746 369.911 21.5528 369.911C23.7306 369.911 25.4077 369.486 26.5843 368.634C27.7858 367.758 28.3866 366.569 28.3866 365.067C28.3866 364.141 28.1613 363.403 27.7107 362.852C27.2852 362.276 26.3339 361.726 24.857 361.2C23.3801 360.674 21.1147 360.011 18.0608 359.21C14.6564 358.309 11.9529 357.345 9.95032 356.319C7.94774 355.267 6.50839 354.028 5.63226 352.601C4.75613 351.174 4.31806 349.447 4.31806 347.42C4.31806 344.891 4.98142 342.689 6.30813 340.811C7.63484 338.934 9.48723 337.494 11.8653 336.493C14.2434 335.467 17.047 334.954 20.2761 334.954C23.4302 334.954 26.2213 335.442 28.6494 336.418C31.1026 337.394 33.0801 338.783 34.5821 340.586C36.084 342.388 37.0102 344.503 37.3606 346.931L28.1237 348.584C27.8985 346.856 27.1099 345.492 25.7582 344.491C24.4315 343.49 22.6542 342.926 20.4263 342.801C18.2986 342.676 16.5839 343.001 15.2822 343.777C13.9805 344.528 13.3297 345.592 13.3297 346.969C13.3297 347.745 13.5925 348.408 14.1182 348.959C14.6439 349.51 15.6952 350.061 17.2723 350.611C18.8743 351.162 21.2524 351.838 24.4065 352.639C27.6356 353.465 30.2139 354.416 32.1414 355.493C34.0939 356.544 35.4957 357.808 36.3468 359.285C37.223 360.762 37.661 362.552 37.661 364.654C37.661 368.735 36.1716 371.939 33.1928 374.267C30.239 376.595 26.1462 377.759 20.9145 377.759ZM69.6534 376.632C66.975 377.133 64.3466 377.346 61.7683 377.271C59.215 377.221 56.9245 376.757 54.8969 375.881C52.8693 374.98 51.3298 373.566 50.2785 371.638C49.3523 369.886 48.8641 368.096 48.8141 366.269C48.764 364.442 48.739 362.376 48.739 360.073V324.815H57.7506V359.548C57.7506 361.175 57.7631 362.602 57.7881 363.828C57.8382 365.055 58.1011 366.056 58.5767 366.832C59.4778 368.334 60.9172 369.173 62.8947 369.348C64.8723 369.523 67.1252 369.423 69.6534 369.047V376.632ZM41.3795 343.177V336.08H69.6534V343.177H41.3795ZM93.5806 377.796C90.5767 377.796 88.0985 377.296 86.146 376.294C84.1935 375.293 82.6415 374.016 81.49 372.464C80.3385 370.912 79.4874 369.26 78.9367 367.508C78.386 365.756 78.023 364.104 77.8478 362.552C77.6976 360.975 77.6225 359.698 77.6225 358.722V336.08H86.7843V355.605C86.7843 356.857 86.8719 358.271 87.0471 359.848C87.2224 361.4 87.6229 362.902 88.2487 364.354C88.8995 365.781 89.8508 366.957 91.1024 367.883C92.379 368.81 94.0937 369.273 96.2465 369.273C97.398 369.273 98.5369 369.085 99.6634 368.71C100.79 368.334 101.804 367.696 102.705 366.795C103.631 365.868 104.369 364.604 104.92 363.002C105.471 361.4 105.746 359.373 105.746 356.919L111.116 359.21C111.116 362.664 110.44 365.793 109.088 368.597C107.761 371.401 105.796 373.641 103.193 375.318C100.59 376.97 97.3855 377.796 93.5806 377.796ZM106.835 376.632V364.054H105.746V336.08H114.833V376.632H106.835ZM141.641 377.759C137.911 377.759 134.657 376.82 131.878 374.943C129.1 373.065 126.947 370.512 125.42 367.283C123.893 364.054 123.129 360.411 123.129 356.356C123.129 352.251 123.893 348.596 125.42 345.392C126.972 342.163 129.162 339.622 131.991 337.77C134.819 335.892 138.149 334.954 141.979 334.954C145.834 334.954 149.063 335.892 151.666 337.77C154.295 339.622 156.285 342.163 157.636 345.392C158.988 348.621 159.664 352.276 159.664 356.356C159.664 360.386 158.988 364.029 157.636 367.283C156.285 370.512 154.27 373.065 151.591 374.943C148.913 376.82 145.596 377.759 141.641 377.759ZM143.03 369.648C145.458 369.648 147.411 369.098 148.888 367.996C150.39 366.87 151.478 365.305 152.154 363.303C152.855 361.3 153.206 358.985 153.206 356.356C153.206 353.703 152.855 351.387 152.154 349.41C151.478 347.407 150.415 345.855 148.963 344.754C147.511 343.627 145.633 343.064 143.33 343.064C140.902 343.064 138.9 343.665 137.323 344.866C135.746 346.043 134.582 347.645 133.831 349.673C133.08 351.675 132.704 353.903 132.704 356.356C132.704 358.834 133.067 361.087 133.793 363.115C134.544 365.117 135.683 366.707 137.21 367.883C138.737 369.06 140.677 369.648 143.03 369.648ZM153.206 376.632V348.171H152.079V322.563H161.203V376.632H153.206ZM172.482 329.922V321.624H181.531V329.922H172.482ZM172.482 376.632V336.08H181.531V376.632H172.482ZM210.689 377.759C206.634 377.759 203.092 376.845 200.063 375.018C197.034 373.19 194.681 370.675 193.004 367.47C191.352 364.241 190.526 360.537 190.526 356.356C190.526 352.101 191.377 348.371 193.079 345.167C194.781 341.963 197.147 339.459 200.176 337.657C203.205 335.855 206.709 334.954 210.689 334.954C214.77 334.954 218.324 335.867 221.353 337.695C224.382 339.522 226.735 342.05 228.412 345.279C230.089 348.483 230.928 352.176 230.928 356.356C230.928 360.562 230.077 364.279 228.375 367.508C226.697 370.712 224.344 373.228 221.315 375.055C218.287 376.858 214.745 377.759 210.689 377.759ZM210.689 369.273C214.294 369.273 216.972 368.071 218.725 365.668C220.477 363.265 221.353 360.161 221.353 356.356C221.353 352.426 220.464 349.297 218.687 346.969C216.91 344.616 214.244 343.439 210.689 343.439C208.261 343.439 206.259 343.99 204.682 345.092C203.13 346.168 201.978 347.682 201.227 349.635C200.476 351.562 200.101 353.803 200.101 356.356C200.101 360.286 200.989 363.428 202.767 365.781C204.569 368.109 207.21 369.273 210.689 369.273Z" fill="#0123FF"/>
</svg>
