<svg width="391" height="558" viewBox="0 0 391 558" fill="none" xmlns="http://www.w3.org/2000/svg">
<rect width="391" height="558" fill="#0123FF"/>
<path d="M227.512 290.351C229.147 311.338 236.165 323.467 248.567 326.738V331.235C224.991 331.235 203.799 331.235 184.993 331.235V316.517C175.862 329.6 162.847 335.596 145.949 334.506C139.271 334.233 133.548 332.325 128.778 328.782C124.008 325.239 120.737 321.014 118.966 316.108C117.33 311.066 117.33 305.614 118.966 299.755C120.737 293.895 124.349 288.716 129.8 284.219C135.796 279.585 143.223 276.587 152.081 275.224C161.076 273.862 171.978 273.18 184.788 273.18V246.81C184.788 236.181 182.199 228.14 177.02 222.689C171.842 217.238 166.323 214.921 160.463 215.739C154.739 216.42 150.855 219.35 148.811 224.529C150.037 224.256 151.264 224.12 152.49 224.12C158.895 224.12 164.278 226.368 168.639 230.866C173.137 235.363 175.385 240.746 175.385 247.015C175.385 252.33 173.75 257.099 170.479 261.324C165.982 267.456 159.645 270.523 151.468 270.523C144.791 270.386 138.862 268.138 133.684 263.777C128.505 259.416 125.916 252.943 125.916 244.357C125.916 231.956 132.321 222.553 145.131 216.148C157.396 210.015 171.024 208.516 186.015 211.65C202.368 214.921 213.952 222.553 220.766 234.545C224.173 240.405 226.013 247.015 226.285 254.374C226.967 265.412 227.239 275.429 227.103 284.423C227.239 286.604 227.375 288.58 227.512 290.351ZM184.584 299.141C184.72 296.279 184.788 289.193 184.788 277.882C180.291 278.427 176.407 280.13 173.137 282.992C169.866 285.854 167.345 289.397 165.573 293.622C163.801 298.801 163.461 303.502 164.551 307.727C165.641 311.815 167.617 314.813 170.479 316.721C171.706 317.539 172.864 318.016 173.954 318.152C175.181 318.288 176.339 318.084 177.429 317.539C178.656 316.857 179.746 315.835 180.7 314.473C181.654 312.974 182.472 310.929 183.153 308.34C183.834 305.614 184.311 302.548 184.584 299.141Z" fill="white"/>
<path d="M227.524 215.935L228.341 289.116C228.341 298.383 230.045 306.356 233.452 313.033C236.859 319.575 242.105 323.731 249.192 325.503V330H215.872C207.559 330 200.404 327.002 194.408 321.006C188.412 315.009 185.413 307.855 185.413 299.542C185.413 282.098 185.482 268.538 185.618 258.863C185.345 254.093 184.868 249.8 184.187 245.984C183.642 242.168 182.62 238.012 181.121 233.515C179.758 229.018 177.577 225.27 174.579 222.272C171.717 219.137 168.174 217.025 163.95 215.935C163.95 215.39 163.95 214.572 163.95 213.482C163.95 212.392 163.95 211.574 163.95 211.029C188.343 206.123 205.242 197.128 214.645 184.046C211.647 185.408 208.513 186.09 205.242 186.09C198.973 186.09 193.59 183.909 189.093 179.548C184.732 175.051 182.552 169.668 182.552 163.399C182.552 159.311 183.574 155.563 185.618 152.156C187.662 148.613 190.388 145.888 193.795 143.98C197.338 141.936 201.154 140.913 205.242 140.913C211.783 140.913 217.166 143.366 221.391 148.272C225.616 153.042 227.728 158.902 227.728 165.852V211.029H249.192V215.73H227.728V215.935H227.524Z" fill="white"/>
<path d="M236.568 222.413C230.904 221.944 225.219 221.944 219.512 222.413C212.954 222.881 209.163 225.053 208.141 228.928H206.736C206.693 220.028 206.693 211.148 206.736 202.29H208.141C209.163 206.166 212.954 208.338 219.512 208.806C225.219 209.274 230.904 209.274 236.568 208.806C243.169 208.338 246.959 206.166 247.939 202.29H249.344C249.387 211.148 249.387 220.028 249.344 228.928H247.939C246.959 225.053 243.169 222.881 236.568 222.413Z" fill="white"/>
<path d="M141.829 414.552C141.872 417.448 142.425 419.94 143.49 422.026C144.555 424.07 146.194 425.369 148.409 425.923V427.328H137.996C135.356 427.328 133.099 426.391 131.225 424.518C129.394 422.644 128.478 420.408 128.478 417.81C128.478 412.359 128.5 408.122 128.542 405.098C128.201 398.838 126.753 394.749 124.198 392.833C123.176 392.151 121.451 391.662 119.024 391.364C116.596 391.023 114.19 391.023 111.805 391.364C109.463 391.662 107.951 392.279 107.27 393.216C106.844 393.727 106.716 394.323 106.887 395.005C107.057 395.644 107.525 396.261 108.292 396.857C109.484 397.794 110.911 398.944 112.572 400.307C114.275 401.627 115.702 402.777 116.852 403.756C118.044 404.736 118.726 405.29 118.896 405.417C120.983 406.95 122.516 408.803 123.496 410.975C124.518 413.147 124.943 415.298 124.773 417.427C124.603 419.556 123.815 421.579 122.41 423.496C121.047 425.369 119.173 426.796 116.788 427.776C113.381 429.138 109.548 429.713 105.29 429.5C101.073 429.287 97.6878 428.372 95.1325 426.753C93.5568 425.774 92.3644 424.411 91.5552 422.665C90.7461 420.919 90.3841 419.216 90.4693 417.555C90.5544 415.851 91.1506 414.318 92.2579 412.955C93.3652 411.55 94.877 410.677 96.7934 410.336C97.4322 410.166 98.0498 410.081 98.646 410.081C100.733 410.081 102.5 410.805 103.948 412.253C105.396 413.701 106.12 415.468 106.12 417.555C106.12 419.599 105.396 421.345 103.948 422.793C102.5 424.241 100.733 424.965 98.646 424.965C98.433 424.965 98.2201 424.943 98.0072 424.901C98.6886 426.179 99.7106 426.988 101.073 427.328C102.479 427.669 103.927 427.626 105.417 427.201C106.95 426.732 108.249 425.88 109.314 424.645C110.421 423.41 110.975 421.984 110.975 420.365C110.975 419.216 110.719 418.087 110.208 416.98C109.697 415.83 109.101 414.85 108.42 414.041C107.781 413.232 106.801 412.338 105.481 411.358C104.161 410.336 103.096 409.57 102.287 409.059C101.478 408.547 100.286 407.802 98.7099 406.823C98.5821 406.738 98.4756 406.674 98.3904 406.631C98.3053 406.588 98.1988 406.546 98.071 406.503C97.9859 406.418 97.8794 406.354 97.7516 406.312C96.1759 405.332 94.877 404.395 93.8549 403.501C92.8754 402.564 92.1727 401.499 91.7469 400.307C91.1932 398.987 91.1719 397.496 91.683 395.835C92.2366 394.132 93.3439 392.684 95.0048 391.491C96.2398 390.554 97.9007 389.916 99.9875 389.575C102.117 389.192 104.374 389.021 106.759 389.064C109.144 389.106 111.529 389.213 113.913 389.383C116.298 389.511 118.683 389.554 121.068 389.511C123.496 389.426 125.497 389.17 127.073 388.744C128.606 388.404 130.054 387.935 131.417 387.339C132.78 386.7 134.1 385.912 135.377 384.976C136.698 384.039 137.741 382.846 138.507 381.398C139.274 379.95 139.657 378.375 139.657 376.671C139.657 374.755 139.189 372.987 138.252 371.369C137.315 369.708 136.037 368.409 134.419 367.472C132.801 366.493 131.033 365.982 129.117 365.939C130.65 366.493 131.885 367.451 132.822 368.814C133.802 370.177 134.291 371.688 134.291 373.349C134.291 375.564 133.525 377.438 131.992 378.971C130.459 380.504 128.585 381.27 126.37 381.27C124.198 381.27 122.346 380.504 120.813 378.971C119.279 377.438 118.513 375.564 118.513 373.349C118.513 371.901 118.875 370.56 119.599 369.325C120.323 368.09 121.302 367.132 122.537 366.45C124.581 365.173 126.817 364.534 129.245 364.534C132.396 364.534 135.122 365.577 137.421 367.664C139.764 369.708 141.148 372.285 141.574 375.393C141.616 375.904 141.638 376.416 141.638 376.927V390.15H148.409V391.619H141.638C141.638 393.493 141.701 401.137 141.829 414.552ZM176.875 406.503V390.15C181.347 390.15 185.776 390.15 190.162 390.15V406.759C190.162 407.312 190.184 409.91 190.226 414.552C190.269 417.448 190.823 419.94 191.887 422.026C192.952 424.07 194.57 425.369 196.742 425.923V427.328H186.33C183.732 427.328 181.496 426.391 179.622 424.518C177.791 422.644 176.875 420.408 176.875 417.81V417.171C175.853 419.684 174.661 421.792 173.298 423.496C171.935 425.199 170.551 426.391 169.146 427.073C167.74 427.754 166.314 428.031 164.866 427.903C161.885 427.648 159.478 426.051 157.647 423.112C155.859 420.131 155.028 416.426 155.156 411.997C155.113 407.823 155.028 404.864 154.9 403.118C154.432 396.431 152.26 392.599 148.384 391.619V390.214C155.752 390.171 162.396 390.15 168.315 390.15V406.439C168.315 413.083 169.912 416.831 173.106 417.682C173.788 417.853 174.384 417.533 174.895 416.724C175.449 415.872 175.853 414.744 176.109 413.339C176.364 411.891 176.556 410.634 176.684 409.57C176.811 408.462 176.875 407.44 176.875 406.503ZM218.975 427.328H218.911C218.102 427.328 217.633 427.328 217.505 427.328C208.477 426.988 202.046 423.708 198.213 417.491C195.403 412.977 194.466 407.887 195.403 402.223C196.169 397.411 198 393.834 200.896 391.491C202.515 390.171 204.282 389.511 206.198 389.511C208.456 389.468 210.585 390.107 212.586 391.427C214.588 392.705 216.185 394.622 217.378 397.177C217.378 394.536 217.356 392.833 217.314 392.066V384.784C223.361 384.741 230.068 384.741 237.436 384.784V386.189C233.603 387.169 231.431 391.065 230.92 397.879C230.494 403.331 230.494 408.782 230.92 414.233C231.431 421.004 233.603 424.88 237.436 425.859V427.328C230.494 427.328 224.341 427.328 218.975 427.328ZM210.415 408.484C210.372 411.976 211.032 415.447 212.395 418.896C213.758 422.303 215.419 424.582 217.378 425.731C217.378 424.965 217.356 422.048 217.314 416.98C217.314 411.869 217.314 409.016 217.314 408.42C217.314 405.055 217.079 402.479 216.611 400.69C216.143 398.859 215.568 397.965 214.886 398.007C214.247 398.007 213.587 398.433 212.906 399.285C212.225 400.137 211.628 401.435 211.117 403.182C210.649 404.928 210.415 406.695 210.415 408.484ZM257.663 414.552C258.132 421.111 260.304 424.901 264.179 425.923V427.328C255.278 427.371 246.399 427.371 237.541 427.328V425.923C241.416 424.901 243.588 421.111 244.057 414.552C244.355 410.677 244.355 406.801 244.057 402.926C243.588 396.368 241.416 392.577 237.541 391.555V390.15C242.694 391.385 247.102 392.002 250.764 392.002C254.469 391.96 258.941 391.342 264.179 390.15V391.555C260.304 392.577 258.132 396.368 257.663 402.926C257.365 406.801 257.365 410.677 257.663 414.552ZM245.27 384.976C243.737 383.4 242.971 381.526 242.971 379.354C242.971 377.182 243.737 375.33 245.27 373.796C246.804 372.221 248.656 371.433 250.828 371.433C253.043 371.433 254.916 372.221 256.45 373.796C257.983 375.33 258.749 377.182 258.749 379.354C258.749 381.526 257.983 383.4 256.45 384.976C254.916 386.509 253.043 387.275 250.828 387.275C248.656 387.275 246.804 386.509 245.27 384.976ZM300.515 409.378C300.515 412.274 299.983 414.914 298.918 417.299C297.853 419.684 296.427 421.643 294.638 423.176C292.849 424.667 290.848 425.817 288.633 426.626C286.419 427.435 284.119 427.861 281.734 427.903C279.86 427.903 278.008 427.669 276.177 427.201C274.388 426.69 272.685 425.902 271.066 424.837C269.49 423.772 268.106 422.495 266.914 421.004C265.722 419.514 264.763 417.682 264.039 415.51C263.358 413.296 263.017 410.911 263.017 408.356C263.017 405.417 263.55 402.756 264.614 400.371C265.679 397.943 267.084 395.984 268.83 394.494C270.619 392.961 272.599 391.768 274.771 390.916C276.986 390.065 279.285 389.639 281.67 389.639C284.098 389.596 286.398 389.98 288.569 390.789C290.784 391.598 292.786 392.79 294.574 394.366C296.363 395.942 297.79 398.028 298.854 400.626C299.962 403.224 300.515 406.141 300.515 409.378ZM281.67 391.555C280.393 391.64 279.307 393.195 278.412 396.219C277.518 399.2 277.05 403.373 277.007 408.739C276.964 412.316 277.177 415.447 277.646 418.13C278.114 420.813 278.689 422.793 279.371 424.07C280.095 425.305 280.883 425.944 281.734 425.987C282.543 426.029 283.289 425.476 283.97 424.326C284.694 423.134 285.29 421.238 285.759 418.641C286.227 416 286.483 412.87 286.525 409.25C286.525 406.397 286.398 403.799 286.142 401.457C285.886 399.114 285.525 397.241 285.056 395.835C284.588 394.387 284.055 393.301 283.459 392.577C282.863 391.811 282.267 391.47 281.67 391.555Z" fill="white"/>
</svg>
