<svg width="319" height="315" viewBox="0 0 319 315" fill="none" xmlns="http://www.w3.org/2000/svg">
<path d="M112.2 218H77.4C85.2 202.2 90.4 177.2 92.8 162H91C84.4 195.4 66.1 218 31.5 218C12.3 218 0 214 0 198.6C0 170.8 32.8 162.4 73.8 155.2C96.6 151 102.2 143.4 100.6 139.4C99 135.4 91.6 136.2 83.8 140.2C73.2 145.6 47.2 161.8 25.4 158C-6.8 153 0 112.2 17.8 99.6L19.2 100.6C17.8 101.8 15.8 109.4 26.8 109.4C48.8 109.4 62.2 99 83.2 99C99.4 99 109.4 107.6 109.4 123.8C109.4 141 100.6 150.4 92.2 156.8H93.8L109 155.5C107.4 162.3 109.4 173.2 109.4 184.2C109.4 194.4 110.8 211.4 112.2 218ZM67 189.8C72.8 195 84.8 181.8 88.2 159.4C86 160.8 82 163.8 77.8 167.8C72 173.2 61.6 184.8 67 189.8Z" fill="#0123FF"/>
<path d="M167 217.904H229.4V177.304V168.304C229.533 164.305 229.733 160.57 230 157.104C230.4 153.638 230.8 150.637 231.2 148.104C231.733 145.571 232.267 143.304 232.8 141.304C233.467 139.304 234.133 137.637 234.8 136.304C235.467 134.971 236.133 133.904 236.8 133.104C237.6 132.304 238.333 131.771 239 131.504C239.8 131.237 240.6 131.171 241.4 131.304C253.133 134.371 257.933 149.64 255.8 177.104C254.2 198.169 247.4 206.933 235.4 210V217.904C263.133 218.037 290.933 218.037 318.8 217.904V210C306.667 206.933 299.867 198.169 298.4 177.104C298 171.638 297.667 162.303 297.4 149.104C297.933 135.239 295.333 123.636 289.6 114.304C284 104.972 276.533 99.904 267.2 99.104C260.267 98.4374 253.4 100.971 246.6 106.704C239.933 112.437 234.267 121.172 229.6 132.904V128.404C213.393 128.29 204.465 128.231 187.762 128.3C187.867 129.192 187.925 130.166 187.807 131.09C187.801 131.141 187.794 131.192 187.786 131.243C188.718 146.463 188.589 161.685 187.4 176.904C185.8 198.102 179 210.237 167 213.304V217.904Z" fill="#0123FF"/>
<path d="M117.13 95.6063C117.053 125.723 143.71 146.815 172.722 146.888C193.25 146.94 212.376 139.569 225.941 134.341C237.754 129.787 243.246 120.751 243.876 125.769C244.346 130.29 248.729 131.534 254.239 133.099C255.572 133.477 256.971 133.874 258.396 134.341C273.296 131.407 284.705 126.475 285.349 115.098C286.205 104.325 276.273 98.4972 263.836 99.8471C250.338 101.246 240.901 108.849 232.22 115.843C220.816 125.032 210.715 133.17 194.42 124.814C162.964 108.156 194.687 19.8199 225.331 29.8446C237.496 33.5806 232.27 47.5386 225.941 64.4458C219.054 82.8421 210.86 104.73 222.337 120.741L223.446 119.362C223.476 107.747 237.426 101.023 252.422 93.7944C268.818 85.891 286.463 77.3855 288.525 61.2274C292.185 34.4353 259.056 23.5753 224.516 24.3165C186.383 25.6012 117.265 42.5564 117.13 95.6063Z" fill="#0123FF"/>
<path d="M160.199 85.199L161.127 168.309C161.127 178.833 163.062 187.887 166.931 195.471C170.8 202.899 176.759 207.62 184.807 209.632L185 218H147.16C137.719 218 129.4 211.334 122.59 204.524C115.781 197.715 112.376 189.589 112.376 180.149C112.376 160.339 112.453 144.939 112.608 133.951C112.298 128.534 111.757 123.659 110.983 119.325C110.364 114.992 109.203 110.272 107.501 105.164C105.953 100.057 103.477 95.8005 100.072 92.3957C96.8217 88.836 92.7978 86.4371 88 85.199C88 84.5799 88 83.6513 88 82.4132C88 81.1751 88 80.2466 88 79.6274C115.703 74.0558 134.894 63.8412 145.573 48.9836C142.168 50.5313 138.609 51.3051 134.894 51.3051C127.775 51.3051 121.662 48.8288 116.554 43.8763C111.602 38.769 109.126 32.6557 109.126 25.5365C109.126 20.8935 110.286 16.6374 112.608 12.7682C114.929 8.74433 118.025 5.649 121.894 3.48226C125.918 1.16076 130.251 0 134.894 0C142.323 0 148.436 2.7858 153.234 8.35741C158.032 13.7742 160.431 20.4292 160.431 28.3223V79.6274H204.5V84.9669H160.431V85.199H160.199Z" fill="#0123FF"/>
<path d="M163.596 83.1049L163.989 118.324C163.989 122.784 164.809 126.621 166.449 129.835C168.088 132.983 170.613 134.983 174.024 135.836V138H157.988C153.987 138 150.544 136.557 147.658 133.671C144.773 130.786 143.33 127.342 143.33 123.342C143.33 114.947 143.363 108.421 143.428 103.764C143.297 101.469 143.067 99.403 142.739 97.5663C142.477 95.7301 141.985 93.7299 141.264 91.5653C140.608 89.4011 139.559 87.5975 138.116 86.1546C136.738 84.6461 135.033 83.6295 133 83.1049C133 82.8425 133 82.449 133 81.9243C133 81.3997 133 81.0061 133 80.7438C144.74 78.3827 152.872 74.0541 157.398 67.7578C155.955 68.4137 154.446 68.7416 152.872 68.7416C149.855 68.7416 147.265 67.6922 145.101 65.5935C143.002 63.4292 141.952 60.8385 141.952 57.8216C141.952 55.8541 142.444 54.0505 143.428 52.4108C144.412 50.7056 145.724 49.3939 147.363 48.4757C149.068 47.4919 150.905 47 152.872 47C156.021 47 158.611 48.1805 160.644 50.5416C162.677 52.8371 163.694 55.6573 163.694 59.0022V80.7438H174.024V83.0065H163.694V83.1049H163.596Z" fill="#FBEFDF"/>
<path d="M105.729 276.228C105.772 279.124 106.325 281.615 107.39 283.702C108.455 285.746 110.094 287.045 112.309 287.599V289.004H101.896C99.2559 289.004 96.9988 288.067 95.125 286.193C93.2937 284.319 92.3781 282.084 92.3781 279.486C92.3781 274.035 92.3994 269.797 92.442 266.773C92.1013 260.513 90.6533 256.425 88.0981 254.508C87.076 253.827 85.3512 253.337 82.9238 253.039C80.4963 252.698 78.0902 252.698 75.7053 253.039C73.363 253.337 71.8511 253.955 71.1698 254.892C70.7439 255.403 70.6161 255.999 70.7865 256.68C70.9568 257.319 71.4253 257.937 72.1918 258.533C73.3843 259.47 74.8109 260.62 76.4718 261.982C78.1753 263.303 79.602 264.452 80.7518 265.432C81.9443 266.411 82.6257 266.965 82.796 267.093C84.8828 268.626 86.4159 270.479 87.3954 272.65C88.4175 274.822 88.8434 276.973 88.673 279.102C88.5027 281.232 87.7148 283.255 86.3095 285.171C84.9467 287.045 83.0728 288.472 80.688 289.451C77.281 290.814 73.4482 291.389 69.1895 291.176C64.9733 290.963 61.5877 290.047 59.0324 288.429C57.4567 287.449 56.2643 286.087 55.4551 284.341C54.646 282.595 54.284 280.891 54.3692 279.23C54.4543 277.527 55.0505 275.994 56.1578 274.631C57.2651 273.225 58.7769 272.352 60.6933 272.012C61.3321 271.841 61.9497 271.756 62.5459 271.756C64.6326 271.756 66.4 272.48 67.848 273.928C69.2959 275.376 70.0199 277.143 70.0199 279.23C70.0199 281.274 69.2959 283.02 67.848 284.468C66.4 285.916 64.6326 286.64 62.5459 286.64C62.3329 286.64 62.12 286.619 61.9071 286.576C62.5885 287.854 63.6105 288.663 64.9733 289.004C66.3787 289.345 67.8267 289.302 69.3172 288.876C70.8504 288.408 72.1493 287.556 73.2139 286.321C74.3212 285.086 74.8748 283.659 74.8748 282.041C74.8748 280.891 74.6193 279.763 74.1083 278.655C73.5972 277.505 73.001 276.526 72.3196 275.717C71.6808 274.908 70.7013 274.013 69.3811 273.034C68.0609 272.012 66.9962 271.245 66.1871 270.734C65.3779 270.223 64.1855 269.478 62.6098 268.498C62.482 268.413 62.3755 268.349 62.2903 268.307C62.2052 268.264 62.0987 268.221 61.9709 268.179C61.8858 268.094 61.7793 268.03 61.6515 267.987C60.0758 267.008 58.7769 266.071 57.7548 265.176C56.7753 264.24 56.0726 263.175 55.6468 261.982C55.0931 260.662 55.0718 259.172 55.5829 257.511C56.1365 255.807 57.2438 254.359 58.9047 253.167C60.1397 252.23 61.8006 251.591 63.8874 251.25C66.0167 250.867 68.2738 250.697 70.6587 250.739C73.0436 250.782 75.4285 250.888 77.8133 251.059C80.1982 251.187 82.5831 251.229 84.968 251.187C87.3954 251.101 89.397 250.846 90.9727 250.42C92.5059 250.079 93.9538 249.611 95.3166 249.015C96.6794 248.376 97.9996 247.588 99.2772 246.651C100.597 245.714 101.641 244.522 102.407 243.074C103.174 241.626 103.557 240.05 103.557 238.347C103.557 236.43 103.089 234.663 102.152 233.045C101.215 231.384 99.9373 230.085 98.319 229.148C96.7007 228.168 94.9333 227.657 93.0169 227.615C94.5501 228.168 95.7851 229.126 96.722 230.489C97.7015 231.852 98.1912 233.364 98.1912 235.025C98.1912 237.239 97.4247 239.113 95.8915 240.646C94.3584 242.179 92.4846 242.946 90.2701 242.946C88.0981 242.946 86.2456 242.179 84.7124 240.646C83.1793 239.113 82.4127 237.239 82.4127 235.025C82.4127 233.577 82.7747 232.235 83.4987 231C84.2227 229.765 85.2022 228.807 86.4372 228.126C88.4814 226.848 90.7172 226.209 93.1447 226.209C96.2961 226.209 99.0217 227.253 101.321 229.339C103.664 231.384 105.048 233.96 105.474 237.069C105.516 237.58 105.538 238.091 105.538 238.602V251.825H112.309V253.295H105.538C105.538 255.168 105.601 262.813 105.729 276.228ZM140.775 268.179V251.825C145.247 251.825 149.676 251.825 154.062 251.825V268.434C154.062 268.988 154.084 271.586 154.126 276.228C154.169 279.124 154.722 281.615 155.787 283.702C156.852 285.746 158.47 287.045 160.642 287.599V289.004H150.229C147.632 289.004 145.396 288.067 143.522 286.193C141.691 284.319 140.775 282.084 140.775 279.486V278.847C139.753 281.36 138.561 283.468 137.198 285.171C135.835 286.875 134.451 288.067 133.046 288.748C131.64 289.43 130.214 289.707 128.766 289.579C125.785 289.323 123.378 287.726 121.547 284.788C119.758 281.807 118.928 278.102 119.056 273.673C119.013 269.499 118.928 266.539 118.8 264.793C118.332 258.107 116.16 254.274 112.284 253.295V251.889C119.652 251.847 126.296 251.825 132.215 251.825V268.115C132.215 274.759 133.812 278.506 137.006 279.358C137.688 279.528 138.284 279.209 138.795 278.4C139.348 277.548 139.753 276.419 140.009 275.014C140.264 273.566 140.456 272.31 140.584 271.245C140.711 270.138 140.775 269.116 140.775 268.179ZM182.874 289.004H182.811C182.001 289.004 181.533 289.004 181.405 289.004C172.377 288.663 165.946 285.384 162.113 279.166C159.303 274.652 158.366 269.563 159.303 263.899C160.069 259.086 161.9 255.509 164.796 253.167C166.415 251.847 168.182 251.187 170.098 251.187C172.355 251.144 174.485 251.783 176.486 253.103C178.488 254.381 180.085 256.297 181.277 258.852C181.277 256.212 181.256 254.508 181.214 253.742V246.459C187.261 246.417 193.968 246.417 201.336 246.459V247.865C197.503 248.844 195.331 252.741 194.82 259.555C194.394 265.006 194.394 270.457 194.82 275.908C195.331 282.68 197.503 286.555 201.336 287.535V289.004C194.394 289.004 188.24 289.004 182.874 289.004ZM174.314 270.159C174.272 273.651 174.932 277.122 176.295 280.572C177.658 283.979 179.318 286.257 181.277 287.407C181.277 286.64 181.256 283.723 181.214 278.655C181.214 273.545 181.214 270.691 181.214 270.095C181.214 266.731 180.979 264.154 180.511 262.366C180.042 260.534 179.467 259.64 178.786 259.683C178.147 259.683 177.487 260.109 176.806 260.96C176.124 261.812 175.528 263.111 175.017 264.857C174.549 266.603 174.314 268.37 174.314 270.159ZM221.563 276.228C222.032 282.786 224.204 286.576 228.079 287.599V289.004C219.178 289.046 210.299 289.046 201.441 289.004V287.599C205.316 286.576 207.488 282.786 207.957 276.228C208.255 272.352 208.255 268.477 207.957 264.602C207.488 258.043 205.316 254.253 201.441 253.231V251.825C206.594 253.06 211.002 253.678 214.664 253.678C218.369 253.635 222.841 253.018 228.079 251.825V253.231C224.204 254.253 222.032 258.043 221.563 264.602C221.265 268.477 221.265 272.352 221.563 276.228ZM209.17 246.651C207.637 245.075 206.871 243.202 206.871 241.03C206.871 238.858 207.637 237.005 209.17 235.472C210.703 233.896 212.556 233.108 214.728 233.108C216.942 233.108 218.816 233.896 220.349 235.472C221.883 237.005 222.649 238.858 222.649 241.03C222.649 243.202 221.883 245.075 220.349 246.651C218.816 248.184 216.942 248.951 214.728 248.951C212.556 248.951 210.703 248.184 209.17 246.651ZM264.415 271.053C264.415 273.949 263.883 276.59 262.818 278.975C261.753 281.36 260.327 283.319 258.538 284.852C256.749 286.342 254.748 287.492 252.533 288.301C250.319 289.11 248.019 289.536 245.634 289.579C243.76 289.579 241.908 289.345 240.077 288.876C238.288 288.365 236.584 287.577 234.966 286.513C233.39 285.448 232.006 284.17 230.814 282.68C229.621 281.189 228.663 279.358 227.939 277.186C227.258 274.971 226.917 272.587 226.917 270.031C226.917 267.093 227.449 264.431 228.514 262.046C229.579 259.619 230.984 257.66 232.73 256.169C234.519 254.636 236.499 253.444 238.671 252.592C240.886 251.74 243.185 251.314 245.57 251.314C247.998 251.272 250.297 251.655 252.469 252.464C254.684 253.273 256.685 254.466 258.474 256.042C260.263 257.617 261.689 259.704 262.754 262.302C263.861 264.9 264.415 267.817 264.415 271.053ZM245.57 253.231C244.293 253.316 243.207 254.87 242.312 257.894C241.418 260.875 240.95 265.049 240.907 270.415C240.864 273.992 241.077 277.122 241.546 279.805C242.014 282.488 242.589 284.468 243.271 285.746C243.995 286.981 244.782 287.62 245.634 287.662C246.443 287.705 247.189 287.151 247.87 286.002C248.594 284.809 249.19 282.914 249.659 280.316C250.127 277.676 250.383 274.546 250.425 270.926C250.425 268.072 250.297 265.475 250.042 263.132C249.786 260.79 249.424 258.916 248.956 257.511C248.487 256.063 247.955 254.977 247.359 254.253C246.763 253.486 246.166 253.146 245.57 253.231Z" fill="#0123FF"/>
</svg>
