<svg width="135" height="221" viewBox="0 0 135 221" fill="none" xmlns="http://www.w3.org/2000/svg">
<path d="M87.7805 117.881C88.8166 131.177 93.2629 138.861 101.12 140.933V143.782C86.1833 143.782 72.7579 143.782 60.8435 143.782V134.458C55.0589 142.746 46.8137 146.545 36.108 145.854C31.8775 145.682 28.2513 144.473 25.2295 142.228C22.2077 139.983 20.1357 137.307 19.0133 134.199C17.9772 131.004 17.9772 127.551 19.0133 123.838C20.1357 120.126 22.4236 116.845 25.8771 113.996C29.6759 111.061 34.3812 109.161 39.9931 108.298C45.6914 107.435 52.5983 107.003 60.714 107.003V90.2967C60.714 83.5624 59.0736 78.4685 55.7928 75.015C52.512 71.5616 49.0153 70.0938 45.3028 70.6119C41.6767 71.0436 39.2161 72.8998 37.921 76.1806C38.6981 76.0079 39.4751 75.9216 40.2521 75.9216C44.31 75.9216 47.7203 77.3461 50.483 80.1953C53.3322 83.0444 54.7567 86.4547 54.7567 90.4262C54.7567 93.7933 53.7207 96.8151 51.6486 99.4915C48.7995 103.377 44.7848 105.319 39.6046 105.319C35.3741 105.233 31.6185 103.808 28.3377 101.046C25.0569 98.2828 23.4165 94.1818 23.4165 88.7426C23.4165 80.8859 27.4743 74.9287 35.5899 70.8709C43.3603 66.9857 51.9939 66.036 61.491 68.0218C71.8514 70.0938 79.19 74.9287 83.5069 82.5263C85.6653 86.2388 86.8308 90.4262 87.0035 95.0883C87.4352 102.082 87.6079 108.427 87.5215 114.126C87.6079 115.507 87.6942 116.759 87.7805 117.881ZM60.5844 123.45C60.6708 121.637 60.714 117.147 60.714 109.981C57.8648 110.327 55.4042 111.406 53.3322 113.219C51.2601 115.032 49.6628 117.277 48.5405 119.953C47.4181 123.234 47.2022 126.213 47.8929 128.889C48.5836 131.479 49.8355 133.379 51.6486 134.587C52.4256 135.105 53.1595 135.408 53.8502 135.494C54.6272 135.58 55.3611 135.451 56.0518 135.105C56.8288 134.674 57.5195 134.026 58.1238 133.163C58.7282 132.213 59.2462 130.918 59.6779 129.278C60.1096 127.551 60.4118 125.608 60.5844 123.45Z" fill="#0123FF"/>
<path d="M87.7876 70.7361L88.3056 117.099C88.3056 122.97 89.3848 128.021 91.5433 132.251C93.7017 136.395 97.0256 139.029 101.515 140.151V143H80.4058C75.1393 143 70.6066 141.101 66.8078 137.302C63.0089 133.503 61.1095 128.97 61.1095 123.704C61.1095 112.653 61.1527 104.062 61.239 97.9322C61.0664 94.9104 60.7642 92.1908 60.3325 89.7734C59.9872 87.3559 59.3396 84.7227 58.3899 81.8736C57.5266 79.0245 56.1452 76.6502 54.2458 74.7508C52.4327 72.765 50.1879 71.4268 47.5115 70.7361C47.5115 70.3908 47.5115 69.8727 47.5115 69.1821C47.5115 68.4914 47.5115 67.9733 47.5115 67.628C62.9658 64.5199 73.6715 58.8216 79.6288 50.5333C77.7294 51.3967 75.7436 51.8284 73.6715 51.8284C69.7 51.8284 66.2897 50.447 63.4406 47.6842C60.6779 44.8351 59.2965 41.4248 59.2965 37.4533C59.2965 34.8632 59.944 32.4889 61.239 30.3305C62.5341 28.0858 64.2608 26.359 66.4193 25.1503C68.664 23.8552 71.0814 23.2077 73.6715 23.2077C77.8157 23.2077 81.226 24.7618 83.9024 27.8699C86.5789 30.8917 87.9171 34.6042 87.9171 39.0074V67.628H101.515V70.6066H87.9171V70.7361H87.7876Z" fill="#0123FF"/>
<path d="M93.865 74.3845C90.2766 74.0877 86.6748 74.0877 83.0594 74.3845C78.9044 74.6813 76.5032 76.0573 75.8557 78.5125H74.9653C74.9384 72.8736 74.9384 67.2482 74.9653 61.6364H75.8557C76.5032 64.0916 78.9044 65.4676 83.0594 65.7643C86.6748 66.0611 90.2766 66.0611 93.865 65.7643C98.0469 65.4676 100.448 64.0916 101.069 61.6364H101.959C101.986 67.2482 101.986 72.8736 101.959 78.5125H101.069C100.448 76.0573 98.0469 74.6813 93.865 74.3845Z" fill="#0123FF"/>
<path d="M33.469 195.764C33.496 197.599 33.8467 199.177 34.5212 200.499C35.1957 201.794 36.2345 202.617 37.6374 202.968V203.858H31.0408C29.368 203.858 27.938 203.264 26.7509 202.077C25.5908 200.89 25.0107 199.474 25.0107 197.828C25.0107 194.374 25.0242 191.69 25.0512 189.774C24.8353 185.808 23.918 183.218 22.2992 182.004C21.6516 181.572 20.5589 181.262 19.0211 181.073C17.4832 180.857 15.9588 180.857 14.4479 181.073C12.964 181.262 12.0062 181.653 11.5745 182.247C11.3047 182.571 11.2238 182.948 11.3317 183.38C11.4396 183.785 11.7364 184.176 12.222 184.554C12.9775 185.147 13.8813 185.876 14.9336 186.739C16.0128 187.575 16.9166 188.304 17.6451 188.924C18.4005 189.545 18.8322 189.896 18.9401 189.977C20.2622 190.948 21.2334 192.122 21.854 193.498C22.5015 194.874 22.7713 196.236 22.6634 197.585C22.5555 198.934 22.0563 200.216 21.166 201.43C20.3026 202.617 19.1155 203.521 17.6046 204.141C15.4462 205.005 13.018 205.369 10.3199 205.234C7.6489 205.099 5.50397 204.519 3.88515 203.494C2.88689 202.873 2.13144 202.01 1.61881 200.904C1.10619 199.797 0.876858 198.718 0.930818 197.666C0.984779 196.587 1.3625 195.615 2.06399 194.752C2.76547 193.862 3.72327 193.309 4.93738 193.093C5.34209 192.985 5.7333 192.931 6.11102 192.931C7.43306 192.931 8.55274 193.39 9.47006 194.307C10.3874 195.224 10.8461 196.344 10.8461 197.666C10.8461 198.961 10.3874 200.067 9.47006 200.985C8.55274 201.902 7.43306 202.361 6.11102 202.361C5.97612 202.361 5.84122 202.347 5.70632 202.32C6.138 203.129 6.78553 203.642 7.6489 203.858C8.53925 204.074 9.45657 204.047 10.4009 203.777C11.3722 203.48 12.1951 202.941 12.8696 202.158C13.5711 201.376 13.9218 200.472 13.9218 199.447C13.9218 198.718 13.7599 198.003 13.4362 197.302C13.1124 196.573 12.7347 195.953 12.303 195.44C11.8983 194.927 11.2777 194.361 10.4414 193.74C9.60497 193.093 8.93046 192.607 8.41783 192.283C7.90521 191.96 7.14976 191.487 6.15149 190.867C6.07055 190.813 6.0031 190.773 5.94914 190.746C5.89518 190.719 5.82773 190.692 5.74679 190.665C5.69283 190.611 5.62538 190.57 5.54444 190.543C4.54617 189.923 3.72327 189.329 3.07575 188.762C2.4552 188.169 2.01003 187.494 1.74023 186.739C1.38948 185.903 1.37599 184.958 1.69976 183.906C2.0505 182.827 2.75198 181.91 3.80421 181.154C4.58664 180.56 5.63887 180.156 6.9609 179.94C8.30991 179.697 9.73987 179.589 11.2508 179.616C12.7617 179.643 14.2725 179.711 15.7834 179.819C17.2943 179.899 18.8052 179.926 20.3161 179.899C21.854 179.846 23.1221 179.684 24.1203 179.414C25.0916 179.198 26.009 178.901 26.8723 178.523C27.7357 178.119 28.5721 177.62 29.3815 177.026C30.2179 176.433 30.8789 175.677 31.3645 174.76C31.8502 173.842 32.093 172.844 32.093 171.765C32.093 170.551 31.7962 169.431 31.2026 168.406C30.6091 167.354 29.7997 166.531 28.7744 165.937C27.7492 165.317 26.6295 164.993 25.4154 164.966C26.3867 165.317 27.1691 165.924 27.7627 166.787C28.3832 167.65 28.6935 168.608 28.6935 169.66C28.6935 171.063 28.2078 172.251 27.2366 173.222C26.2653 174.193 25.0781 174.679 23.6752 174.679C22.2992 174.679 21.1255 174.193 20.1542 173.222C19.1829 172.251 18.6973 171.063 18.6973 169.66C18.6973 168.743 18.9266 167.893 19.3853 167.111C19.844 166.328 20.4645 165.721 21.2469 165.29C22.542 164.48 23.9585 164.076 25.4963 164.076C27.4929 164.076 29.2196 164.737 30.6765 166.059C32.1604 167.354 33.0373 168.986 33.3071 170.956C33.3341 171.279 33.3476 171.603 33.3476 171.927V180.304H37.6374V181.235H33.3476C33.3476 182.422 33.388 187.265 33.469 195.764ZM55.6717 190.665V180.304C58.5046 180.304 61.3106 180.304 64.0896 180.304V190.826C64.0896 191.177 64.103 192.823 64.13 195.764C64.157 197.599 64.5077 199.177 65.1823 200.499C65.8568 201.794 66.882 202.617 68.258 202.968V203.858H61.6613C60.0155 203.858 58.5991 203.264 57.4119 202.077C56.2518 200.89 55.6717 199.474 55.6717 197.828V197.423C55.0242 199.015 54.2687 200.35 53.4054 201.43C52.542 202.509 51.6652 203.264 50.7748 203.696C49.8845 204.128 48.9806 204.303 48.0633 204.222C46.1747 204.06 44.6503 203.049 43.4901 201.187C42.357 199.298 41.8309 196.951 41.9118 194.145C41.8848 191.501 41.8309 189.626 41.7499 188.52C41.4531 184.284 40.0771 181.856 37.6219 181.235V180.345C42.2895 180.318 46.4984 180.304 50.2487 180.304V190.624C50.2487 194.833 51.2605 197.207 53.284 197.747C53.7157 197.855 54.0934 197.652 54.4171 197.14C54.7679 196.6 55.0242 195.885 55.1861 194.995C55.348 194.078 55.4694 193.282 55.5503 192.607C55.6312 191.906 55.6717 191.258 55.6717 190.665ZM82.3429 203.858H82.3025C81.7899 203.858 81.4931 203.858 81.4121 203.858C75.6923 203.642 71.6183 201.565 69.1901 197.625C67.4094 194.766 66.8158 191.541 67.4094 187.953C67.895 184.904 69.0552 182.638 70.8898 181.154C71.9151 180.318 73.0348 179.899 74.2489 179.899C75.6788 179.872 77.0278 180.277 78.2959 181.114C79.564 181.923 80.5757 183.137 81.3312 184.756C81.3312 183.083 81.3177 182.004 81.2907 181.518V176.905C85.1219 176.878 89.3713 176.878 94.0389 176.905V177.795C91.6107 178.416 90.2347 180.884 89.9109 185.201C89.6411 188.655 89.6411 192.108 89.9109 195.562C90.2347 199.851 91.6107 202.307 94.0389 202.927V203.858C89.6411 203.858 85.7425 203.858 82.3429 203.858ZM76.9199 191.919C76.8929 194.132 77.3111 196.33 78.1745 198.516C79.0379 200.674 80.0901 202.118 81.3312 202.846C81.3312 202.361 81.3177 200.512 81.2907 197.302C81.2907 194.064 81.2907 192.256 81.2907 191.879C81.2907 189.747 81.1423 188.115 80.8455 186.982C80.5488 185.822 80.1845 185.255 79.7528 185.282C79.3481 185.282 78.9299 185.552 78.4983 186.091C78.0666 186.631 77.6889 187.454 77.3651 188.56C77.0683 189.666 76.9199 190.786 76.9199 191.919ZM106.853 195.764C107.15 199.919 108.526 202.32 110.981 202.968V203.858C105.343 203.885 99.7172 203.885 94.1053 203.858V202.968C96.5605 202.32 97.9365 199.919 98.2333 195.764C98.4221 193.309 98.4221 190.853 98.2333 188.398C97.9365 184.243 96.5605 181.842 94.1053 181.195V180.304C97.3699 181.087 100.162 181.478 102.483 181.478C104.83 181.451 107.663 181.06 110.981 180.304V181.195C108.526 181.842 107.15 184.243 106.853 188.398C106.665 190.853 106.665 193.309 106.853 195.764ZM99.0022 177.026C98.0309 176.028 97.5453 174.841 97.5453 173.465C97.5453 172.089 98.0309 170.915 99.0022 169.944C99.9735 168.945 101.147 168.446 102.523 168.446C103.926 168.446 105.113 168.945 106.085 169.944C107.056 170.915 107.541 172.089 107.541 173.465C107.541 174.841 107.056 176.028 106.085 177.026C105.113 177.997 103.926 178.483 102.523 178.483C101.147 178.483 99.9735 177.997 99.0022 177.026ZM134.001 192.486C134.001 194.32 133.664 195.993 132.99 197.504C132.315 199.015 131.411 200.256 130.278 201.227C129.145 202.172 127.877 202.9 126.474 203.413C125.071 203.925 123.614 204.195 122.103 204.222C120.916 204.222 119.742 204.074 118.582 203.777C117.449 203.453 116.37 202.954 115.345 202.28C114.346 201.605 113.469 200.796 112.714 199.851C111.959 198.907 111.352 197.747 110.893 196.371C110.461 194.968 110.245 193.457 110.245 191.838C110.245 189.977 110.583 188.29 111.257 186.779C111.932 185.242 112.822 184 113.928 183.056C115.061 182.085 116.316 181.329 117.692 180.79C119.095 180.25 120.552 179.98 122.063 179.98C123.601 179.953 125.058 180.196 126.434 180.709C127.836 181.222 129.105 181.977 130.238 182.975C131.371 183.973 132.275 185.296 132.949 186.941C133.651 188.587 134.001 190.435 134.001 192.486ZM122.063 181.195C121.253 181.248 120.565 182.233 119.999 184.149C119.432 186.037 119.135 188.682 119.108 192.081C119.081 194.347 119.216 196.33 119.513 198.03C119.81 199.73 120.174 200.985 120.606 201.794C121.064 202.576 121.564 202.981 122.103 203.008C122.616 203.035 123.088 202.684 123.52 201.956C123.978 201.2 124.356 200 124.653 198.354C124.95 196.681 125.111 194.698 125.138 192.405C125.138 190.597 125.058 188.951 124.896 187.467C124.734 185.984 124.504 184.796 124.208 183.906C123.911 182.989 123.574 182.301 123.196 181.842C122.818 181.356 122.44 181.141 122.063 181.195Z" fill="#0123FF"/>
</svg>
