<svg width="101" height="101" viewBox="0 0 101 101" fill="none" xmlns="http://www.w3.org/2000/svg">
<path d="M35.5464 69.0653H24.5213C26.9925 64.0596 28.6399 56.1393 29.4002 51.3237H28.83C26.739 61.9053 20.9413 69.0653 9.97961 69.0653C3.8968 69.0653 0 67.798 0 62.9191C0 54.1117 10.3915 51.4504 23.3808 49.1694C30.6041 47.8388 32.3783 45.431 31.8714 44.1637C31.3645 42.8965 29.0201 43.1499 26.5489 44.4172C23.1907 46.128 14.9536 51.2604 8.04705 50.0565C-2.15433 48.4724 0 35.5464 5.63927 31.5546L6.08281 31.8714C5.63927 32.2516 5.00565 34.6594 8.49059 34.6594C15.4605 34.6594 19.7058 31.3645 26.3588 31.3645C31.4912 31.3645 34.6593 34.0891 34.6593 39.2215C34.6593 44.6706 31.8714 47.6487 29.2102 49.6763H29.7171L34.5326 49.2644C34.0257 51.4188 34.6593 54.872 34.6593 58.357C34.6593 61.5885 35.1029 66.9743 35.5464 69.0653ZM21.2265 60.1311C23.064 61.7786 26.8657 57.5966 27.9429 50.5C27.2459 50.9435 25.9787 51.894 24.6481 53.1612C22.8105 54.872 19.5157 58.5471 21.2265 60.1311Z" fill="black"/>
<path d="M52.9072 69.0349H72.6764V56.1723V53.321C72.7186 52.0538 72.782 50.8708 72.8664 49.7726C72.9932 48.6745 73.1199 47.7238 73.2466 46.9213C73.4156 46.1188 73.5846 45.4006 73.7535 44.767C73.9647 44.1334 74.1759 43.6053 74.3871 43.1829C74.5984 42.7606 74.8096 42.4226 75.0208 42.1691C75.2742 41.9157 75.5065 41.7467 75.7178 41.6622C75.9712 41.5778 76.2247 41.5567 76.4781 41.5989C80.1954 42.5703 81.7161 47.408 81.0402 56.1089C80.5333 62.7825 78.379 65.5592 74.5772 66.5307V69.0349C83.3635 69.077 92.1708 69.077 100.999 69.0349V66.5307C97.1555 65.5592 95.0012 62.7825 94.5364 56.1089C94.4097 54.3772 94.3042 51.4196 94.2196 47.2381C94.3885 42.8455 93.5648 39.1696 91.7485 36.213C89.9743 33.2565 87.6087 31.6509 84.6519 31.3975C82.4553 31.1863 80.2799 31.9891 78.1255 33.8053C76.0134 35.6214 74.2182 38.3889 72.7397 42.1058V40.6801C67.6052 40.6439 64.7766 40.6254 59.4849 40.6473C59.5183 40.9296 59.5366 41.2384 59.4992 41.531C59.4972 41.5472 59.4949 41.5634 59.4925 41.5796C59.7877 46.4014 59.7469 51.2241 59.3702 56.0455C58.8633 62.7613 56.709 66.606 52.9072 67.5775V69.0349Z" fill="black"/>
<path d="M37.108 30.2893C37.0838 39.8307 45.5291 46.5128 54.7203 46.5361C61.2239 46.5526 67.2832 44.2172 71.5807 42.5609C75.3234 41.1183 77.0632 38.2555 77.2629 39.8452C77.4116 41.2775 78.8002 41.6717 80.5461 42.1673C80.9684 42.2872 81.4115 42.413 81.8631 42.5609C86.5835 41.6314 90.198 40.0689 90.402 36.4647C90.6732 33.0514 87.5266 31.2052 83.5864 31.6329C79.31 32.076 76.3204 34.4847 73.5701 36.7007C69.9571 39.6117 66.757 42.1901 61.5947 39.5428C51.6289 34.2653 61.6792 6.2792 71.3876 9.45516C75.2415 10.6388 73.586 15.0609 71.5807 20.4173C69.3988 26.2454 66.8029 33.1798 70.4391 38.2522L70.7904 37.8154C70.7997 34.1357 75.2195 32.0053 79.9703 29.7153C85.1649 27.2114 90.7551 24.5167 91.4082 19.3976C92.5677 10.9095 82.0721 7.46896 71.1295 7.70378C59.0484 8.11078 37.1507 13.4824 37.108 30.2893Z" fill="black"/>
<path d="M50.7533 26.9922L51.0475 53.3224C51.0475 56.6565 51.6604 59.525 52.8862 61.9277C54.1121 64.281 55.9998 65.7766 58.5494 66.4141L58.6107 69.0652H46.6224C43.6314 69.0652 40.996 66.9533 38.8385 64.7958C36.6811 62.6386 35.6024 60.0642 35.6024 57.0735C35.6024 50.7974 35.6269 45.9185 35.676 42.4373C35.5779 40.7212 35.4063 39.1767 35.1611 37.8036C34.965 36.4309 34.5973 34.9355 34.0579 33.3172C33.5676 31.6993 32.7831 30.3509 31.7044 29.2722C30.6747 28.1444 29.3999 27.3844 27.8799 26.9922C27.8799 26.796 27.8799 26.5018 27.8799 26.1096C27.8799 25.7173 27.8799 25.4232 27.8799 25.227C36.6566 23.4619 42.7366 20.2257 46.1198 15.5187C45.0411 16.009 43.9134 16.2541 42.7366 16.2541C40.4811 16.2541 38.5443 15.4696 36.9263 13.9006C35.3573 12.2825 34.5727 10.3458 34.5727 8.09031C34.5727 6.61935 34.9405 5.27096 35.676 4.04515C36.4115 2.77032 37.3921 1.78968 38.6179 1.10322C39.8927 0.367743 41.2656 0 42.7366 0C45.0901 0 47.0269 0.882577 48.5469 2.64774C50.0669 4.36386 50.8269 6.47225 50.8269 8.97289V25.227H64.7886V26.9186H50.8269V26.9922H50.7533Z" fill="black"/>
<path d="M51.8288 26.3287L51.9535 37.4867C51.9535 38.8996 52.2132 40.1152 52.7327 41.1334C53.2522 42.1306 54.0521 42.7644 55.1326 43.0346V43.7202H50.0523C48.7848 43.7202 47.694 43.2631 46.7797 42.3488C45.8655 41.4346 45.4083 40.3437 45.4083 39.0763C45.4083 36.4167 45.4187 34.3491 45.4395 32.8739C45.398 32.1467 45.3252 31.4922 45.2213 30.9103C45.1382 30.3286 44.9824 29.6949 44.7538 29.0091C44.546 28.3235 44.2136 27.752 43.7565 27.2949C43.3201 26.817 42.7799 26.4949 42.1357 26.3287C42.1357 26.2456 42.1357 26.1209 42.1357 25.9547C42.1357 25.7885 42.1357 25.6638 42.1357 25.5807C45.8551 24.8327 48.4316 23.4613 49.8653 21.4666C49.4082 21.6744 48.9303 21.7783 48.4316 21.7783C47.4758 21.7783 46.655 21.4458 45.9693 20.7809C45.3044 20.0952 44.972 19.2745 44.972 18.3187C44.972 17.6953 45.1278 17.1239 45.4395 16.6044C45.7512 16.0642 46.1667 15.6486 46.6862 15.3577C47.2264 15.0461 47.8082 14.8902 48.4316 14.8902C49.4289 14.8902 50.2497 15.2642 50.8938 16.0123C51.538 16.7395 51.86 17.633 51.86 18.6927V25.5807H55.1326V26.2976H51.86V26.3287H51.8288Z" fill="#FBEFDF"/>
<path d="M33.237 87.3356C33.2505 88.2531 33.4259 89.0424 33.7632 89.7035C34.1005 90.3511 34.6199 90.7626 35.3215 90.938V91.3833H32.0227C31.1862 91.3833 30.4711 91.0864 29.8775 90.4928C29.2973 89.8991 29.0072 89.1908 29.0072 88.3678C29.0072 86.6408 29.014 85.2983 29.0274 84.3404C28.9195 82.357 28.4608 81.0618 27.6512 80.4546C27.3274 80.2388 26.781 80.0836 26.012 79.9892C25.2429 79.8812 24.4806 79.8812 23.725 79.9892C22.983 80.0836 22.504 80.2792 22.2881 80.5761C22.1532 80.738 22.1127 80.9269 22.1667 81.1427C22.2207 81.3451 22.3691 81.5408 22.6119 81.7296C22.9897 82.0265 23.4417 82.3908 23.9679 82.8225C24.5076 83.2408 24.9596 83.6051 25.3239 83.9154C25.7016 84.2257 25.9175 84.4011 25.9715 84.4416C26.6326 84.9273 27.1183 85.5142 27.4286 86.2023C27.7524 86.8904 27.8874 87.5717 27.8334 88.2463C27.7794 88.921 27.5298 89.5618 27.0846 90.169C26.6528 90.7626 26.0592 91.2146 25.3036 91.5249C24.2242 91.9567 23.01 92.1388 21.6607 92.0714C20.325 92.0039 19.2524 91.7138 18.4429 91.2011C17.9437 90.8908 17.5659 90.4591 17.3095 89.9059C17.0532 89.3527 16.9385 88.813 16.9655 88.2868C16.9925 87.7471 17.1814 87.2614 17.5321 86.8297C17.8829 86.3844 18.3619 86.1078 18.9691 85.9999C19.1714 85.9459 19.3671 85.919 19.556 85.919C20.2171 85.919 20.777 86.1483 21.2357 86.6071C21.6945 87.0658 21.9238 87.6257 21.9238 88.2868C21.9238 88.9344 21.6945 89.4876 21.2357 89.9464C20.777 90.4051 20.2171 90.6345 19.556 90.6345C19.4885 90.6345 19.421 90.6277 19.3536 90.6142C19.5695 91.019 19.8933 91.2753 20.325 91.3833C20.7703 91.4912 21.229 91.4777 21.7012 91.3428C22.1869 91.1944 22.5984 90.9245 22.9357 90.5333C23.2865 90.142 23.4619 89.69 23.4619 89.1773C23.4619 88.813 23.381 88.4555 23.2191 88.1047C23.0572 87.7404 22.8683 87.4301 22.6524 87.1737C22.45 86.9174 22.1397 86.634 21.7215 86.3237C21.3032 85.9999 20.9659 85.757 20.7095 85.5951C20.4532 85.4332 20.0754 85.1971 19.5762 84.8868C19.5357 84.8598 19.502 84.8396 19.475 84.8261C19.448 84.8126 19.4143 84.7991 19.3738 84.7856C19.3468 84.7586 19.3131 84.7384 19.2726 84.7249C18.7734 84.4146 18.3619 84.1178 18.0381 83.8344C17.7278 83.5376 17.5052 83.2003 17.3702 82.8225C17.1948 82.4043 17.1881 81.932 17.35 81.4058C17.5254 80.8661 17.8762 80.4074 18.4024 80.0296C18.7937 79.7328 19.3199 79.5304 19.981 79.4225C20.6556 79.3011 21.3707 79.2471 22.1262 79.2606C22.8818 79.2741 23.6373 79.3078 24.3929 79.3618C25.1485 79.4023 25.904 79.4157 26.6596 79.4023C27.4286 79.3753 28.0628 79.2943 28.562 79.1594C29.0477 79.0515 29.5064 78.903 29.9382 78.7142C30.3699 78.5118 30.7882 78.2622 31.1929 77.9653C31.6112 77.6685 31.9417 77.2907 32.1846 76.832C32.4275 76.3733 32.5489 75.8741 32.5489 75.3344C32.5489 74.7272 32.4005 74.1673 32.1037 73.6546C31.8068 73.1284 31.4021 72.7169 30.8894 72.4201C30.3767 72.1098 29.8167 71.9478 29.2096 71.9344C29.6953 72.1098 30.0866 72.4133 30.3834 72.8451C30.6937 73.2768 30.8489 73.7558 30.8489 74.282C30.8489 74.9836 30.606 75.5772 30.1203 76.0629C29.6346 76.5487 29.0409 76.7915 28.3393 76.7915C27.6513 76.7915 27.0643 76.5487 26.5786 76.0629C26.0929 75.5772 25.8501 74.9836 25.8501 74.282C25.8501 73.8233 25.9647 73.3983 26.1941 73.007C26.4235 72.6157 26.7338 72.3121 27.1251 72.0963C27.7727 71.6915 28.481 71.4891 29.2501 71.4891C30.2485 71.4891 31.112 71.8197 31.8406 72.4808C32.5826 73.1284 33.0211 73.9447 33.156 74.9296C33.1695 75.0915 33.1763 75.2534 33.1763 75.4153V79.6046H35.3215V80.0701H33.1763C33.1763 80.6638 33.1965 83.0856 33.237 87.3356ZM44.34 84.7856V79.6046C45.7567 79.6046 47.1599 79.6046 48.5496 79.6046V84.8666C48.5496 85.042 48.5563 85.865 48.5698 87.3356C48.5833 88.2531 48.7587 89.0424 49.096 89.7035C49.4333 90.3511 49.946 90.7626 50.6341 90.938V91.3833H47.3353C46.5123 91.3833 45.8039 91.0864 45.2103 90.4928C44.6301 89.8991 44.34 89.1908 44.34 88.3678V88.1654C44.0162 88.9614 43.6384 89.6293 43.2067 90.169C42.7749 90.7087 42.3364 91.0864 41.8912 91.3023C41.446 91.5182 40.994 91.6059 40.5352 91.5654C39.5908 91.4845 38.8285 90.9785 38.2483 90.0475C37.6817 89.1031 37.4186 87.9293 37.459 86.5261C37.4455 85.2039 37.4186 84.2662 37.3781 83.713C37.2297 81.5947 36.5416 80.3804 35.3138 80.0701V79.6249C37.6479 79.6114 39.7527 79.6046 41.6281 79.6046V84.7654C41.6281 86.8702 42.1341 88.0575 43.146 88.3273C43.3618 88.3813 43.5507 88.2801 43.7126 88.0237C43.888 87.7539 44.0162 87.3963 44.0972 86.9511C44.1781 86.4924 44.2388 86.0944 44.2793 85.757C44.3198 85.4063 44.34 85.0824 44.34 84.7856ZM57.6776 91.3833H57.6574C57.401 91.3833 57.2526 91.3833 57.2122 91.3833C54.3518 91.2753 52.3145 90.2364 51.1002 88.2666C50.2097 86.8364 49.9129 85.2241 50.2097 83.4297C50.4526 81.905 51.0328 80.7717 51.9502 80.0296C52.4629 79.6114 53.0228 79.4023 53.63 79.4023C54.3451 79.3888 55.0197 79.5911 55.6538 80.0094C56.2879 80.4142 56.7939 81.0213 57.1717 81.8308C57.1717 80.9943 57.1649 80.4546 57.1514 80.2118V77.9046C59.0673 77.8911 61.1923 77.8911 63.5265 77.9046V78.3499C62.3122 78.6602 61.6241 79.8947 61.4622 82.0535C61.3273 83.7805 61.3273 85.5074 61.4622 87.2344C61.6241 89.3797 62.3122 90.6075 63.5265 90.9178V91.3833C61.3273 91.3833 59.3776 91.3833 57.6776 91.3833ZM54.9657 85.413C54.9522 86.5194 55.1613 87.619 55.5931 88.7118C56.0248 89.7912 56.551 90.513 57.1717 90.8773C57.1717 90.6345 57.1649 89.7102 57.1514 88.1047C57.1514 86.4856 57.1514 85.5817 57.1514 85.3928C57.1514 84.3269 57.0772 83.5106 56.9288 82.9439C56.7804 82.3638 56.5983 82.0804 56.3824 82.0939C56.18 82.0939 55.9709 82.2289 55.755 82.4987C55.5391 82.7685 55.3502 83.1801 55.1883 83.7332C55.0399 84.2864 54.9657 84.8463 54.9657 85.413ZM69.9347 87.3356C70.0831 89.4134 70.7712 90.6142 71.999 90.938V91.3833C69.1791 91.3968 66.366 91.3968 63.5597 91.3833V90.938C64.7875 90.6142 65.4756 89.4134 65.624 87.3356C65.7184 86.1078 65.7184 84.8801 65.624 83.6523C65.4756 81.5745 64.7875 80.3737 63.5597 80.0499V79.6046C65.1922 79.9959 66.5887 80.1915 67.749 80.1915C68.9228 80.1781 70.3395 79.9824 71.999 79.6046V80.0499C70.7712 80.3737 70.0831 81.5745 69.9347 83.6523C69.8403 84.8801 69.8403 86.1078 69.9347 87.3356ZM66.0085 77.9653C65.5228 77.4661 65.2799 76.8725 65.2799 76.1844C65.2799 75.4963 65.5228 74.9094 66.0085 74.4237C66.4942 73.9244 67.0811 73.6748 67.7692 73.6748C68.4708 73.6748 69.0645 73.9244 69.5502 74.4237C70.0359 74.9094 70.2788 75.4963 70.2788 76.1844C70.2788 76.8725 70.0359 77.4661 69.5502 77.9653C69.0645 78.4511 68.4708 78.6939 67.7692 78.6939C67.0811 78.6939 66.4942 78.4511 66.0085 77.9653ZM83.5107 85.6963C83.5107 86.6138 83.3421 87.4503 83.0048 88.2059C82.6675 88.9614 82.2155 89.5821 81.6488 90.0678C81.0822 90.54 80.448 90.9043 79.7464 91.1607C79.0449 91.417 78.3163 91.5519 77.5607 91.5654C76.9671 91.5654 76.3802 91.4912 75.8 91.3428C75.2333 91.1809 74.6936 90.9313 74.1809 90.594C73.6817 90.2567 73.2432 89.8519 72.8655 89.3797C72.4877 88.9075 72.1841 88.3273 71.9547 87.6392C71.7389 86.9376 71.6309 86.1821 71.6309 85.3725C71.6309 84.4416 71.7996 83.5983 72.1369 82.8427C72.4742 82.0737 72.9194 81.4531 73.4726 80.9808C74.0393 80.4951 74.6667 80.1173 75.3548 79.8475C76.0563 79.5777 76.7849 79.4427 77.5405 79.4427C78.3095 79.4292 79.0381 79.5507 79.7262 79.807C80.4278 80.0634 81.0619 80.4411 81.6286 80.9404C82.1953 81.4396 82.6473 82.1007 82.9846 82.9237C83.3354 83.7467 83.5107 84.6709 83.5107 85.6963ZM77.5405 80.0499C77.1357 80.0769 76.7917 80.5693 76.5083 81.5273C76.225 82.4717 76.0766 83.7939 76.0631 85.494C76.0496 86.6273 76.1171 87.619 76.2655 88.469C76.4139 89.319 76.596 89.9464 76.8119 90.3511C77.0413 90.7424 77.2909 90.9448 77.5607 90.9583C77.8171 90.9718 78.0532 90.7964 78.2691 90.4321C78.4984 90.0543 78.6873 89.4539 78.8357 88.6309C78.9841 87.7944 79.0651 86.8027 79.0786 85.6559C79.0786 84.7519 79.0381 83.9289 78.9572 83.1868C78.8762 82.4447 78.7615 81.8511 78.6131 81.4058C78.4647 80.9471 78.296 80.6031 78.1071 80.3737C77.9183 80.1308 77.7294 80.0229 77.5405 80.0499Z" fill="black"/>
</svg>
