<svg width="1920" height="1080" viewBox="0 0 1920 1080" fill="none" xmlns="http://www.w3.org/2000/svg">
<path d="M0.743942 133.574C-12.8094 178.811 161.819 260.032 280.15 289.333C398.481 318.634 758.164 76.0001 883.793 133.574C1009.42 191.148 1138.27 546.874 925.924 747.949C713.578 949.024 511.458 913.989 431.964 780.848C352.471 647.708 495.545 384.947 770.022 376.208C1044.5 367.469 928.561 467.196 1344.08 452.288C1453.48 448.363 1793.95 268.257 1659.46 78.5705C1524.97 -111.116 1302.9 78.5708 1375.36 268.257C1447.82 457.943 1972.23 247.254 1950.33 482.177C1928.44 717.1 1298 549 1250.5 721.5C1203 894 1600.5 844 1765 844C1929.5 844 1742.5 1033.5 1543.5 1121.5" stroke="#2656FF" stroke-width="70" stroke-dasharray="6 6"/>
</svg>
