<svg width="690" height="446" viewBox="0 0 690 446" fill="none" xmlns="http://www.w3.org/2000/svg">
<path d="M182.202 76.3251L28.5409 90.6262C16.4877 91.748 7.60892 102.402 8.6784 114.46L24.6627 294.675C25.7967 307.461 37.5962 316.56 50.25 314.408L196.721 289.489C207.715 287.619 215.567 277.813 214.99 266.676L206.196 97.0779C205.549 84.5987 194.644 75.1671 182.202 76.3251Z" fill="#D9D9D9" stroke="white" stroke-width="0.785209"/>
<path d="M230.685 32.5954L149.184 15.2604C137.151 12.7009 125.359 20.5135 123.024 32.5927L92.8403 188.748C90.5881 200.399 97.9891 211.736 109.562 214.361L197.255 234.256C209.713 237.082 221.948 228.732 223.858 216.101L247.849 57.3863C249.588 45.8827 242.064 35.0158 230.685 32.5954Z" fill="#D9D9D9" stroke="white" stroke-width="0.785209"/>
<path d="M292.804 21.982L251.645 7.26814C240.357 3.23294 227.917 8.98346 223.678 20.1962L153.172 206.695C149.17 217.281 153.858 229.176 164.006 234.185L215.209 259.46C227.357 265.456 241.986 259.145 245.96 246.194L306.421 49.1337C309.869 37.8981 303.87 25.9382 292.804 21.982Z" fill="#D9D9D9" stroke="white" stroke-width="0.785209"/>
<path d="M370.209 18.4639L356.461 10.0628C349.639 5.89333 340.708 9.07387 338.057 16.6175L298.52 129.123C296.451 135.009 299.016 141.522 304.543 144.417L322.76 153.959C329.719 157.604 338.278 154.041 340.594 146.535L375.662 32.8883C377.356 27.3988 375.111 21.4596 370.209 18.4639Z" fill="#D9D9D9" stroke="white" stroke-width="0.785209"/>
<path d="M471.587 3.92603L456.668 26.3045L454.705 29.0527L395.029 185.309L411.518 164.894L471.587 3.92603Z" fill="white" stroke="white" stroke-width="0.785209"/>
<path d="M558.785 27.9178L539.052 32.4967C532.408 34.0385 526.855 38.577 524.022 44.7819L481.294 138.364C474.06 154.208 487.246 171.773 504.48 169.249L529.663 165.561C537.453 164.42 544.038 159.2 546.928 151.877L584.206 57.4045C590.71 40.9231 576.045 23.9128 558.785 27.9178Z" fill="#D9D9D9" stroke="white" stroke-width="0.785209"/>
<path d="M634.319 51.039L607.485 53.3723C599.054 54.1054 591.793 59.6122 588.813 67.5325L546.202 180.771C541.191 194.088 549.957 208.585 564.078 210.333L600.027 214.784C610.827 216.121 620.98 209.356 623.905 198.875L657.4 78.852C661.526 64.0653 649.613 49.7091 634.319 51.039Z" fill="#D9D9D9" stroke="white" stroke-width="0.785209"/>
<path d="M673.481 149.143L637.33 137.213C623.741 132.728 609.558 142.215 608.513 156.487L597.526 306.654C596.868 315.642 601.762 324.121 609.874 328.048L651.945 348.41C666.271 355.345 682.989 345.231 683.498 329.323L688.566 170.723C688.877 160.981 682.737 152.197 673.481 149.143Z" fill="#D9D9D9" stroke="white" stroke-width="0.785209"/>
<path d="M314.422 145.894L295.693 169.172C291.482 174.405 289.894 181.277 291.383 187.827L333.944 375.094C338.751 396.246 368.038 398.395 375.881 378.171L387.619 347.906C389.126 344.021 389.498 339.788 388.691 335.7L353.122 155.421C349.506 137.095 326.131 131.341 314.422 145.894Z" fill="#D9D9D9" stroke="white" stroke-width="0.785209"/>
<path d="M490.697 158.398L535.024 198.311C538.93 201.828 541.447 206.628 542.119 211.842L557.103 328.218L549.928 152.587C549.276 136.634 565.309 125.328 580.116 131.298L657.931 162.671C666.503 166.127 671.998 174.575 671.683 183.812L665.965 351.441C665.407 367.803 647.803 377.837 633.44 369.98L557.103 328.218L563.103 374.815C565.779 395.596 540.629 407.986 525.783 393.201L481.218 348.82C477.774 345.39 475.564 340.915 474.933 336.095L454.186 177.59C451.536 157.34 475.52 144.733 490.697 158.398Z" fill="#D9D9D9"/>
<path d="M557.103 328.218L542.119 211.842C541.447 206.628 538.93 201.828 535.024 198.311L490.697 158.398C475.52 144.733 451.536 157.34 454.186 177.59L474.933 336.095C475.564 340.915 477.774 345.39 481.218 348.82L525.783 393.201C540.629 407.986 565.779 395.596 563.103 374.815L557.103 328.218ZM557.103 328.218L633.44 369.98C647.803 377.837 665.407 367.803 665.965 351.441L671.683 183.812C671.998 174.575 666.503 166.127 657.931 162.671L580.116 131.298C565.309 125.328 549.276 136.634 549.928 152.587L557.103 328.218Z" stroke="white" stroke-width="0.785209"/>
<path d="M170.05 54.1794H22.4483C10.3058 54.1794 0.462402 64.0228 0.462402 76.1653V229.281C0.462402 241.424 10.3058 251.267 22.4483 251.267H164.56C176.396 251.267 186.108 241.897 186.532 230.069L192.022 76.9531C192.468 64.5098 182.502 54.1794 170.05 54.1794Z" fill="#D9D9D9" stroke="white" stroke-width="0.785209"/>
<path d="M187.668 42.6257L67.1381 32.1952C54.7331 31.1217 43.9129 40.5544 43.2847 52.9899L32.1608 273.178C31.5618 285.035 40.4846 295.226 52.317 296.199L183.971 307.024C196.78 308.077 207.758 297.965 207.758 285.112V64.5296C207.758 53.1219 199.033 43.6092 187.668 42.6257Z" fill="#D9D9D9" stroke="white" stroke-width="0.785209"/>
<path d="M233.403 97.4432L115.583 129.419C104.631 132.391 97.7403 143.211 99.6789 154.393L135.381 360.32C137.837 374.482 152.997 382.518 166.096 376.6L279.487 325.373C288.581 321.264 293.768 311.546 292.119 301.704L260.845 115.029C258.697 102.206 245.951 94.0378 233.403 97.4432Z" fill="#D9D9D9" stroke="white" stroke-width="0.785209"/>
</svg>
