<svg width="1025" height="501" viewBox="0 0 1025 501" fill="none" xmlns="http://www.w3.org/2000/svg">
<rect width="1025" height="501" fill="#F3B7F9"/>
<path fill-rule="evenodd" clip-rule="evenodd" d="M607.402 156.829C624.45 156.829 638.269 170.642 638.269 187.681V265.43C638.269 283.915 646.769 299.982 660.945 307.925L628.735 340.12C605.58 323.912 590.461 297.077 590.461 265.43V248.321C590.461 242.373 591.191 236.448 592.634 230.678H590.461L531.857 318.441C526.789 326.031 518.261 330.59 509.13 330.59C494.04 330.59 481.807 318.363 481.807 303.28V230.678L423.203 318.441C418.134 326.031 409.607 330.59 400.476 330.59C385.385 330.59 373.152 318.363 373.152 303.28L373.859 258.649C374.283 231.857 371.024 205.152 364.189 179.274L411.45 167.059L417.323 195.613C419.741 207.375 420.96 219.352 420.96 231.36C420.96 236.677 420.308 241.974 419.018 247.133L418.788 248.054H420.96L473.13 170.471C478.864 161.944 488.469 156.829 498.748 156.829C515.795 156.829 529.614 170.642 529.614 187.681V248.054L581.785 170.471C587.518 161.944 597.124 156.829 607.402 156.829Z" fill="#FBEFDF"/>
</svg>
