<svg width="220" height="402" viewBox="0 0 220 402" fill="none" xmlns="http://www.w3.org/2000/svg">
<g filter="url(#filter0_dd_1148_15790)">
<rect width="208" height="390" transform="translate(6 4)" fill="white"/>
<mask id="path-1-inside-1_1148_15790" fill="white">
<path d="M6 4H214V41.6H6V4Z"/>
</mask>
<path d="M6 4H214V41.6H6V4Z" fill="white"/>
<path d="M214 41.1667H6V42.0333H214V41.1667Z" fill="#D8DAE5" mask="url(#path-1-inside-1_1148_15790)"/>
<path d="M16.6604 13.8664H22.4584V15.1404H20.2831V19.9331H18.8444V15.1404H16.6604V13.8664ZM24.9487 13.4158H26.266L25.5467 14.8458H24.2294L24.9487 13.4158ZM27.2454 18.0958H23.7267C23.8394 18.6591 24.1947 18.9971 24.888 18.9971C25.33 18.9971 25.668 18.8498 25.798 18.5378H27.124C26.9854 19.3004 26.188 20.0631 24.81 20.0631C23.198 20.0631 22.3227 19.0231 22.3227 17.6798C22.3227 16.3364 23.2154 15.2964 24.8187 15.2964C26.4134 15.2964 27.384 16.3364 27.2454 18.0958ZM24.8187 16.3191C24.16 16.3191 23.8047 16.6484 23.718 17.2898H25.8847C25.7634 16.5964 25.408 16.3191 24.8187 16.3191ZM29.4022 19.9331H28.0068V13.7798H29.4022V19.9331ZM32.7859 13.4158H34.1033L33.3839 14.8458H32.0666L32.7859 13.4158ZM35.0826 18.0958H31.5639C31.6766 18.6591 32.0319 18.9971 32.7253 18.9971C33.1673 18.9971 33.5053 18.8498 33.6353 18.5378H34.9613C34.8226 19.3004 34.0253 20.0631 32.6473 20.0631C31.0353 20.0631 30.1599 19.0231 30.1599 17.6798C30.1599 16.3364 31.0526 15.2964 32.6559 15.2964C34.2506 15.2964 35.2213 16.3364 35.0826 18.0958ZM32.6559 16.3191C31.9973 16.3191 31.6419 16.6484 31.5553 17.2898H33.7219C33.6006 16.5964 33.2453 16.3191 32.6559 16.3191ZM38.208 20.0631C36.5787 20.0631 35.712 19.0058 35.712 17.6798C35.712 16.3538 36.5787 15.2964 38.208 15.2964C39.612 15.2964 40.4527 16.0938 40.5827 17.2291H39.2134C39.1007 16.7784 38.728 16.5358 38.208 16.5358C37.4974 16.5358 37.09 17.0124 37.09 17.6798C37.09 18.3471 37.4974 18.8238 38.208 18.8238C38.728 18.8238 39.1007 18.5811 39.2134 18.1304H40.5827C40.4614 19.2658 39.612 20.0631 38.208 20.0631ZM44.3442 15.2964C45.6182 15.2964 46.2076 16.0851 46.2076 17.3591V19.9331H44.8036V17.6191C44.8036 16.9518 44.5262 16.5184 43.7982 16.5184C43.0702 16.5184 42.7322 16.9518 42.7322 17.6191V19.9331H41.3369V13.7798H42.7322V16.0244L42.6196 16.2931C42.9229 15.7384 43.3996 15.2964 44.3442 15.2964ZM48.5376 20.0631C47.5583 20.0631 46.9516 19.5864 46.9516 18.6244C46.9516 17.7144 47.4976 17.2638 48.6763 17.2638H50.2449V16.9171C50.2449 16.4751 49.9849 16.3278 49.3436 16.3278C48.7543 16.3278 48.4769 16.4578 48.4249 16.8218H47.1856C47.1336 15.6518 48.0003 15.2964 49.3696 15.2964C50.9729 15.2964 51.6403 15.7991 51.6403 16.8218V19.9331H50.4616L50.3229 19.3004H50.2883C49.9676 19.7858 49.2829 20.0631 48.5376 20.0631ZM49.0403 19.0144H49.1009C49.7509 19.0144 50.2449 18.7458 50.2449 18.2951V18.1131H48.9016C48.5549 18.1131 48.3729 18.2691 48.3729 18.5551C48.3729 18.8324 48.5549 19.0144 49.0403 19.0144ZM54.0057 19.9331H52.6103V15.4264H53.9537L54.0057 16.0244L53.867 16.3364C54.1703 15.7471 54.5777 15.2964 55.453 15.2964C56.571 15.2964 57.091 16.0591 57.091 17.1944V17.6018H55.791V17.4371C55.791 16.9344 55.6003 16.5184 54.9503 16.5184C54.2917 16.5184 54.0057 16.9344 54.0057 17.5498V19.9331ZM60.0488 21.3718C59.2514 21.3718 58.6448 21.1984 58.3501 21.0078V19.9418C58.6274 20.1151 59.1648 20.3144 59.9188 20.3144C60.3781 20.3144 61.3401 20.2364 61.3401 19.3524V18.9364C61.0801 19.5344 60.4474 19.7164 59.8408 19.7164C58.5061 19.7164 57.7088 18.8238 57.7088 17.5411C57.7088 16.2498 58.5321 15.3051 59.8321 15.3051C60.5341 15.3051 61.0888 15.5824 61.5308 16.3711L61.2881 15.9204L61.3314 15.4264H62.6834V19.1878C62.6834 20.9298 61.3488 21.3718 60.0488 21.3718ZM60.1961 18.6244C60.8981 18.6244 61.2968 18.1564 61.2968 17.5411C61.2968 16.9258 60.8981 16.4578 60.1961 16.4578C59.4941 16.4578 59.0868 16.9258 59.0868 17.5411C59.0868 18.1564 59.4941 18.6244 60.1961 18.6244ZM68.3613 18.0958H64.8426C64.9553 18.6591 65.3106 18.9971 66.0039 18.9971C66.4459 18.9971 66.7839 18.8498 66.9139 18.5378H68.2399C68.1013 19.3004 67.3039 20.0631 65.9259 20.0631C64.3139 20.0631 63.4386 19.0231 63.4386 17.6798C63.4386 16.3364 64.3313 15.2964 65.9346 15.2964C67.5293 15.2964 68.4999 16.3364 68.3613 18.0958ZM65.9346 16.3191C65.2759 16.3191 64.9206 16.6484 64.8339 17.2898H67.0006C66.8793 16.5964 66.5239 16.3191 65.9346 16.3191ZM70.518 19.9331H69.1227V15.4264H70.466L70.518 16.0244L70.3794 16.3364C70.6827 15.7471 71.09 15.2964 71.9654 15.2964C73.0834 15.2964 73.6034 16.0591 73.6034 17.1944V17.6018H72.3034V17.4371C72.3034 16.9344 72.1127 16.5184 71.4627 16.5184C70.804 16.5184 70.518 16.9344 70.518 17.5498V19.9331Z" fill="#101940"/>
<path d="M16.8851 32.6665V28.2544H18.4578C18.8011 28.2544 19.0854 28.3169 19.3109 28.4418C19.5364 28.5668 19.7052 28.7377 19.8172 28.9545C19.9292 29.17 19.9852 29.4127 19.9852 29.6827C19.9852 29.9542 19.9285 30.1983 19.815 30.4152C19.703 30.6306 19.5335 30.8015 19.3066 30.9279C19.0811 31.0529 18.7975 31.1154 18.4556 31.1154H17.3742V30.5509H18.3953C18.6122 30.5509 18.7881 30.5136 18.9231 30.4389C19.0581 30.3628 19.1572 30.2594 19.2204 30.1287C19.2836 29.998 19.3152 29.8493 19.3152 29.6827C19.3152 29.5161 19.2836 29.3682 19.2204 29.2389C19.1572 29.1097 19.0574 29.0084 18.921 28.9352C18.786 28.8619 18.6079 28.8253 18.3867 28.8253H17.5508V32.6665H16.8851ZM22.0663 32.7333C21.7561 32.7333 21.4854 32.6622 21.2542 32.52C21.0229 32.3778 20.8434 32.1789 20.7156 31.9233C20.5877 31.6676 20.5238 31.3689 20.5238 31.027C20.5238 30.6838 20.5877 30.3836 20.7156 30.1265C20.8434 29.8694 21.0229 29.6698 21.2542 29.5276C21.4854 29.3854 21.7561 29.3143 22.0663 29.3143C22.3766 29.3143 22.6473 29.3854 22.8785 29.5276C23.1098 29.6698 23.2893 29.8694 23.4171 30.1265C23.545 30.3836 23.6089 30.6838 23.6089 31.027C23.6089 31.3689 23.545 31.6676 23.4171 31.9233C23.2893 32.1789 23.1098 32.3778 22.8785 32.52C22.6473 32.6622 22.3766 32.7333 22.0663 32.7333ZM22.0685 32.1925C22.2696 32.1925 22.4362 32.1394 22.5683 32.0331C22.7004 31.9268 22.7981 31.7854 22.8613 31.6087C22.9259 31.4321 22.9583 31.2374 22.9583 31.0249C22.9583 30.8138 22.9259 30.6199 22.8613 30.4432C22.7981 30.2651 22.7004 30.1222 22.5683 30.0145C22.4362 29.9068 22.2696 29.8529 22.0685 29.8529C21.866 29.8529 21.698 29.9068 21.5644 30.0145C21.4322 30.1222 21.3339 30.2651 21.2692 30.4432C21.206 30.6199 21.1744 30.8138 21.1744 31.0249C21.1744 31.2374 21.206 31.4321 21.2692 31.6087C21.3339 31.7854 21.4322 31.9268 21.5644 32.0331C21.698 32.1394 21.866 32.1925 22.0685 32.1925ZM24.9446 32.6665L23.9708 29.3574H24.6365L25.285 31.7875H25.3173L25.9679 29.3574H26.6336L27.2799 31.7768H27.3122L27.9564 29.3574H28.6221L27.6504 32.6665H26.9934L26.3212 30.2773H26.2717L25.5995 32.6665H24.9446ZM30.5588 32.7333C30.2328 32.7333 29.952 32.6636 29.7165 32.5243C29.4824 32.3836 29.3014 32.1861 29.1736 31.9319C29.0472 31.6762 28.984 31.3768 28.984 31.0335C28.984 30.6945 29.0472 30.3958 29.1736 30.1373C29.3014 29.8788 29.4795 29.677 29.7078 29.5319C29.9376 29.3869 30.2062 29.3143 30.5136 29.3143C30.7003 29.3143 30.8813 29.3452 31.0565 29.407C31.2317 29.4687 31.389 29.5657 31.5283 29.6978C31.6676 29.8299 31.7775 30.0016 31.8579 30.2127C31.9383 30.4224 31.9785 30.6773 31.9785 30.9775V31.2059H29.3481V30.7233H31.3473C31.3473 30.5538 31.3128 30.4037 31.2439 30.273C31.175 30.1409 31.078 30.0368 30.9531 29.9606C30.8295 29.8845 30.6845 29.8465 30.5179 29.8465C30.3369 29.8465 30.1789 29.891 30.0439 29.98C29.9104 30.0676 29.8069 30.1825 29.7337 30.3247C29.6619 30.4655 29.626 30.6184 29.626 30.7836V31.1606C29.626 31.3818 29.6648 31.5699 29.7423 31.7251C29.8213 31.8802 29.9312 31.9987 30.0719 32.0805C30.2127 32.1609 30.3771 32.2012 30.5653 32.2012C30.6874 32.2012 30.7987 32.1839 30.8992 32.1495C30.9997 32.1136 31.0866 32.0604 31.1599 31.99C31.2331 31.9197 31.2891 31.8328 31.3279 31.7294L31.9376 31.8392C31.8888 32.0188 31.8012 32.176 31.6748 32.311C31.5498 32.4446 31.3926 32.5487 31.203 32.6234C31.0148 32.6967 30.8001 32.7333 30.5588 32.7333ZM32.6932 32.6665V29.3574H33.3159V29.8831H33.3503C33.4106 29.705 33.5169 29.5649 33.6692 29.463C33.8228 29.3596 33.9966 29.3079 34.1905 29.3079C34.2307 29.3079 34.2781 29.3093 34.3327 29.3122C34.3887 29.315 34.4325 29.3186 34.4641 29.3229V29.9391C34.4383 29.9319 34.3923 29.924 34.3262 29.9154C34.2602 29.9053 34.1941 29.9003 34.128 29.9003C33.9758 29.9003 33.8401 29.9326 33.7209 29.9973C33.6031 30.0605 33.5097 30.1488 33.4408 30.2622C33.3719 30.3743 33.3374 30.5021 33.3374 30.6457V32.6665H32.6932ZM35.0216 33.9074V29.3574H35.6506V29.8938H35.7045C35.7418 29.8249 35.7957 29.7452 35.8661 29.6547C35.9364 29.5642 36.0341 29.4852 36.1591 29.4177C36.284 29.3488 36.4492 29.3143 36.6546 29.3143C36.9217 29.3143 37.1601 29.3818 37.3698 29.5168C37.5795 29.6518 37.744 29.8465 37.8632 30.1007C37.9838 30.3549 38.0441 30.6608 38.0441 31.0184C38.0441 31.376 37.9845 31.6827 37.8653 31.9383C37.7461 32.1925 37.5824 32.3886 37.3741 32.5265C37.1659 32.6629 36.9282 32.7311 36.661 32.7311C36.46 32.7311 36.2955 32.6974 36.1677 32.6299C36.0413 32.5624 35.9422 32.4834 35.8704 32.3929C35.7986 32.3024 35.7433 32.222 35.7045 32.1516H35.6657V33.9074H35.0216ZM35.6528 31.012C35.6528 31.2446 35.6865 31.4486 35.754 31.6238C35.8216 31.799 35.9192 31.9362 36.047 32.0353C36.1749 32.1329 36.3314 32.1818 36.5167 32.1818C36.7091 32.1818 36.87 32.1308 36.9993 32.0288C37.1285 31.9254 37.2262 31.7854 37.2923 31.6087C37.3598 31.4321 37.3935 31.2331 37.3935 31.012C37.3935 30.7937 37.3605 30.5976 37.2944 30.4238C37.2298 30.25 37.1321 30.1129 37.0014 30.0123C36.8722 29.9118 36.7106 29.8615 36.5167 29.8615C36.33 29.8615 36.172 29.9096 36.0427 30.0059C35.9149 30.1021 35.818 30.2364 35.7519 30.4087C35.6858 30.5811 35.6528 30.7822 35.6528 31.012ZM40.1597 32.7333C39.8495 32.7333 39.5787 32.6622 39.3475 32.52C39.1163 32.3778 38.9367 32.1789 38.8089 31.9233C38.6811 31.6676 38.6172 31.3689 38.6172 31.027C38.6172 30.6838 38.6811 30.3836 38.8089 30.1265C38.9367 29.8694 39.1163 29.6698 39.3475 29.5276C39.5787 29.3854 39.8495 29.3143 40.1597 29.3143C40.4699 29.3143 40.7407 29.3854 40.9719 29.5276C41.2031 29.6698 41.3827 29.8694 41.5105 30.1265C41.6383 30.3836 41.7022 30.6838 41.7022 31.027C41.7022 31.3689 41.6383 31.6676 41.5105 31.9233C41.3827 32.1789 41.2031 32.3778 40.9719 32.52C40.7407 32.6622 40.4699 32.7333 40.1597 32.7333ZM40.1619 32.1925C40.3629 32.1925 40.5295 32.1394 40.6617 32.0331C40.7938 31.9268 40.8915 31.7854 40.9547 31.6087C41.0193 31.4321 41.0516 31.2374 41.0516 31.0249C41.0516 30.8138 41.0193 30.6199 40.9547 30.4432C40.8915 30.2651 40.7938 30.1222 40.6617 30.0145C40.5295 29.9068 40.3629 29.8529 40.1619 29.8529C39.9594 29.8529 39.7913 29.9068 39.6577 30.0145C39.5256 30.1222 39.4272 30.2651 39.3626 30.4432C39.2994 30.6199 39.2678 30.8138 39.2678 31.0249C39.2678 31.2374 39.2994 31.4321 39.3626 31.6087C39.4272 31.7854 39.5256 31.9268 39.6577 32.0331C39.7913 32.1394 39.9594 32.1925 40.1619 32.1925ZM42.4212 32.6665V29.3574H43.0654V32.6665H42.4212ZM42.7465 28.8468C42.6345 28.8468 42.5383 28.8095 42.4579 28.7348C42.3789 28.6587 42.3394 28.5682 42.3394 28.4634C42.3394 28.3571 42.3789 28.2666 42.4579 28.1919C42.5383 28.1158 42.6345 28.0777 42.7465 28.0777C42.8586 28.0777 42.9541 28.1158 43.0331 28.1919C43.1135 28.2666 43.1537 28.3571 43.1537 28.4634C43.1537 28.5682 43.1135 28.6587 43.0331 28.7348C42.9541 28.8095 42.8586 28.8468 42.7465 28.8468ZM44.5761 30.7017V32.6665H43.932V29.3574H44.5503V29.896H44.5912C44.6673 29.7208 44.7865 29.58 44.9488 29.4737C45.1126 29.3675 45.3187 29.3143 45.5671 29.3143C45.7926 29.3143 45.9901 29.3617 46.1596 29.4565C46.3291 29.5499 46.4605 29.6892 46.5538 29.8745C46.6472 30.0597 46.6939 30.2888 46.6939 30.5617V32.6665H46.0497V30.6393C46.0497 30.3994 45.9872 30.212 45.8623 30.077C45.7373 29.9405 45.5657 29.8723 45.3474 29.8723C45.198 29.8723 45.0652 29.9046 44.9488 29.9693C44.8339 30.0339 44.7427 30.1287 44.6752 30.2536C44.6092 30.3771 44.5761 30.5265 44.5761 30.7017ZM49.1024 29.3574V29.8745H47.2949V29.3574H49.1024ZM47.7797 28.5646H48.4238V31.6949C48.4238 31.8198 48.4425 31.9139 48.4798 31.9771C48.5172 32.0389 48.5653 32.0812 48.6242 32.1042C48.6845 32.1258 48.7498 32.1365 48.8202 32.1365C48.8719 32.1365 48.9172 32.1329 48.9559 32.1258C48.9947 32.1186 49.0249 32.1128 49.0464 32.1085L49.1628 32.6407C49.1254 32.655 49.0723 32.6694 49.0033 32.6837C48.9344 32.6995 48.8482 32.7082 48.7448 32.7096C48.5753 32.7125 48.4174 32.6823 48.2709 32.6191C48.1244 32.5559 48.0059 32.4582 47.9154 32.3261C47.8249 32.194 47.7797 32.0281 47.7797 31.8285V28.5646ZM51.4722 32.6665V28.2544H53.0449C53.3882 28.2544 53.6725 28.3169 53.898 28.4418C54.1235 28.5668 54.2923 28.7377 54.4043 28.9545C54.5163 29.17 54.5723 29.4127 54.5723 29.6827C54.5723 29.9542 54.5156 30.1983 54.4022 30.4152C54.2901 30.6306 54.1207 30.8015 53.8937 30.9279C53.6682 31.0529 53.3846 31.1154 53.0428 31.1154H51.9613V30.5509H52.9824C53.1993 30.5509 53.3752 30.5136 53.5103 30.4389C53.6453 30.3628 53.7444 30.2594 53.8076 30.1287C53.8707 29.998 53.9023 29.8493 53.9023 29.6827C53.9023 29.5161 53.8707 29.3682 53.8076 29.2389C53.7444 29.1097 53.6445 29.0084 53.5081 28.9352C53.3731 28.8619 53.195 28.8253 52.9738 28.8253H52.1379V32.6665H51.4722ZM55.3528 32.6665V28.2544H56.9254C57.2687 28.2544 57.5531 28.3169 57.7786 28.4418C58.0041 28.5668 58.1728 28.7377 58.2848 28.9545C58.3969 29.17 58.4529 29.4127 58.4529 29.6827C58.4529 29.9542 58.3962 30.1983 58.2827 30.4152C58.1707 30.6306 58.0012 30.8015 57.7743 30.9279C57.5488 31.0529 57.2651 31.1154 56.9233 31.1154H55.8418V30.5509H56.863C57.0798 30.5509 57.2558 30.5136 57.3908 30.4389C57.5258 30.3628 57.6249 30.2594 57.6881 30.1287C57.7513 29.998 57.7829 29.8493 57.7829 29.6827C57.7829 29.5161 57.7513 29.3682 57.6881 29.2389C57.6249 29.1097 57.5251 29.0084 57.3886 28.9352C57.2536 28.8619 57.0755 28.8253 56.8544 28.8253H56.0185V32.6665H55.3528ZM59.0157 28.8274V28.2544H62.4304V28.8274H61.0537V32.6665H60.3902V28.8274H59.0157ZM63.6481 28.2544L64.7037 29.98H64.7382L65.7939 28.2544H66.5651L65.1906 30.4604L66.5737 32.6665H65.7982L64.7382 30.9646H64.7037L63.6438 32.6665H62.8682L64.275 30.4604L62.8769 28.2544H63.6481Z" fill="#6F7595"/>
<path fill-rule="evenodd" clip-rule="evenodd" d="M193.071 20.0698C193.282 19.8582 193.625 19.8582 193.837 20.0698L198.531 24.7642C198.743 24.9758 198.743 25.3187 198.531 25.5303C198.32 25.7418 197.977 25.7418 197.765 25.5303L193.071 20.8358C192.859 20.6243 192.859 20.2813 193.071 20.0698Z" fill="#6F7595"/>
<path fill-rule="evenodd" clip-rule="evenodd" d="M198.531 20.0698C198.743 20.2813 198.743 20.6243 198.531 20.8358L193.837 25.5303C193.625 25.7418 193.282 25.7418 193.071 25.5303C192.859 25.3187 192.859 24.9758 193.071 24.7642L197.765 20.0698C197.977 19.8582 198.32 19.8582 198.531 20.0698Z" fill="#6F7595"/>
<g clip-path="url(#clip0_1148_15790)">
<path d="M16.6171 53.7332C16.6171 50.981 18.8482 48.7499 21.6004 48.7499C24.3526 48.7499 26.5837 50.981 26.5837 53.7332C26.5837 56.4854 24.3526 58.7165 21.6004 58.7165C18.8482 58.7165 16.6171 56.4854 16.6171 53.7332Z" fill="white"/>
<path d="M16.6171 53.7332C16.6171 50.981 18.8482 48.7499 21.6004 48.7499C24.3526 48.7499 26.5837 50.981 26.5837 53.7332C26.5837 56.4854 24.3526 58.7165 21.6004 58.7165C18.8482 58.7165 16.6171 56.4854 16.6171 53.7332Z" stroke="#3366FF" stroke-width="0.433333"/>
<rect x="19" y="51.1333" width="5.2" height="5.2" rx="2.6" fill="#3366FF"/>
<path d="M30.7523 56.2334V51.8213H32.325C32.6668 51.8213 32.9505 51.8802 33.176 51.9979C33.4029 52.1157 33.5724 52.2787 33.6844 52.487C33.7964 52.6938 33.8524 52.9329 33.8524 53.2044C33.8524 53.4744 33.7957 53.7121 33.6822 53.9175C33.5702 54.1214 33.4007 54.2801 33.1738 54.3936C32.9483 54.507 32.6647 54.5638 32.3228 54.5638H31.1315V53.9907H32.2625C32.4779 53.9907 32.6532 53.9598 32.7882 53.8981C32.9246 53.8363 33.0244 53.7466 33.0876 53.6288C33.1508 53.511 33.1824 53.3695 33.1824 53.2044C33.1824 53.0378 33.1501 52.8934 33.0855 52.7713C33.0223 52.6493 32.9225 52.5559 32.786 52.4913C32.651 52.4252 32.4736 52.3922 32.2539 52.3922H31.418V56.2334H30.7523ZM32.9304 54.2428L34.0205 56.2334H33.2621L32.1936 54.2428H32.9304ZM35.9955 56.3002C35.6694 56.3002 35.3887 56.2305 35.1531 56.0912C34.919 55.9505 34.738 55.753 34.6102 55.4988C34.4838 55.2431 34.4206 54.9437 34.4206 54.6004C34.4206 54.2614 34.4838 53.9627 34.6102 53.7042C34.738 53.4457 34.9161 53.2439 35.1445 53.0988C35.3743 52.9538 35.6429 52.8812 35.9502 52.8812C36.1369 52.8812 36.3179 52.9121 36.4931 52.9739C36.6684 53.0356 36.8256 53.1326 36.9649 53.2647C37.1042 53.3968 37.2141 53.5685 37.2945 53.7796C37.375 53.9893 37.4152 54.2442 37.4152 54.5444V54.7727H34.7847V54.2902H36.784C36.784 54.1207 36.7495 53.9706 36.6806 53.8399C36.6116 53.7078 36.5147 53.6036 36.3897 53.5275C36.2662 53.4514 36.1211 53.4133 35.9545 53.4133C35.7736 53.4133 35.6156 53.4579 35.4806 53.5469C35.347 53.6345 35.2436 53.7494 35.1704 53.8916C35.0985 54.0324 35.0626 54.1853 35.0626 54.3505V54.7275C35.0626 54.9487 35.1014 55.1368 35.179 55.2919C35.258 55.4471 35.3678 55.5655 35.5086 55.6474C35.6493 55.7278 35.8138 55.7681 36.0019 55.7681C36.124 55.7681 36.2353 55.7508 36.3359 55.7164C36.4364 55.6804 36.5233 55.6273 36.5965 55.5569C36.6698 55.4866 36.7258 55.3997 36.7646 55.2963L37.3743 55.4061C37.3254 55.5857 37.2378 55.7429 37.1114 55.8779C36.9865 56.0115 36.8292 56.1156 36.6396 56.1903C36.4515 56.2636 36.2368 56.3002 35.9955 56.3002ZM35.6594 52.4827L36.1635 51.4895H36.8421L36.1743 52.4827H35.6594ZM40.6096 53.7322L40.0257 53.8356C40.0013 53.7609 39.9625 53.6898 39.9094 53.6223C39.8577 53.5548 39.7873 53.4995 39.6983 53.4564C39.6092 53.4133 39.4979 53.3918 39.3643 53.3918C39.1819 53.3918 39.0297 53.4327 38.9076 53.5146C38.7855 53.595 38.7245 53.6992 38.7245 53.827C38.7245 53.9376 38.7654 54.0266 38.8473 54.0941C38.9292 54.1616 39.0613 54.2169 39.2437 54.26L39.7694 54.3807C40.0738 54.451 40.3008 54.5595 40.4501 54.706C40.5995 54.8525 40.6742 55.0428 40.6742 55.2769C40.6742 55.4751 40.6167 55.6517 40.5018 55.8068C40.3884 55.9605 40.2297 56.0812 40.0257 56.1688C39.8232 56.2564 39.5884 56.3002 39.3213 56.3002C38.9507 56.3002 38.6484 56.2212 38.4143 56.0632C38.1802 55.9038 38.0365 55.6776 37.9834 55.3846L38.606 55.2898C38.6448 55.4521 38.7245 55.5749 38.8451 55.6582C38.9658 55.7401 39.1231 55.781 39.317 55.781C39.5281 55.781 39.6968 55.7372 39.8232 55.6496C39.9496 55.5605 40.0128 55.4521 40.0128 55.3243C40.0128 55.2209 39.974 55.134 39.8965 55.0636C39.8204 54.9932 39.7033 54.9401 39.5453 54.9042L38.9852 54.7814C38.6764 54.711 38.448 54.599 38.3001 54.4453C38.1536 54.2916 38.0804 54.097 38.0804 53.8615C38.0804 53.6661 38.1349 53.4952 38.2441 53.3487C38.3532 53.2022 38.504 53.088 38.6965 53.0062C38.889 52.9229 39.1094 52.8812 39.3579 52.8812C39.7155 52.8812 39.997 52.9588 40.2024 53.1139C40.4078 53.2676 40.5435 53.4737 40.6096 53.7322ZM43.4786 54.8611V52.9243H44.1249V56.2334H43.4916V55.6603H43.4571C43.381 55.837 43.2589 55.9842 43.0908 56.102C42.9242 56.2183 42.7167 56.2765 42.4682 56.2765C42.2557 56.2765 42.0675 56.2298 41.9038 56.1365C41.7415 56.0417 41.6137 55.9016 41.5203 55.7164C41.4284 55.5311 41.3824 55.302 41.3824 55.0291V52.9243H42.0266V54.9516C42.0266 55.177 42.0891 55.3566 42.214 55.4901C42.339 55.6237 42.5013 55.6905 42.7009 55.6905C42.8216 55.6905 42.9415 55.6603 43.0607 55.6C43.1813 55.5397 43.2811 55.4485 43.3601 55.3264C43.4406 55.2043 43.4801 55.0492 43.4786 54.8611ZM45.6346 51.8213V56.2334H44.9904V51.8213H45.6346ZM48.0459 52.9243V53.4414H46.2384V52.9243H48.0459ZM46.7231 52.1315H47.3672V55.2618C47.3672 55.3867 47.3859 55.4808 47.4233 55.544C47.4606 55.6058 47.5087 55.6481 47.5676 55.6711C47.6279 55.6927 47.6933 55.7034 47.7636 55.7034C47.8153 55.7034 47.8606 55.6998 47.8994 55.6927C47.9381 55.6855 47.9683 55.6797 47.9899 55.6754L48.1062 56.2075C48.0688 56.2219 48.0157 56.2363 47.9468 56.2506C47.8778 56.2664 47.7917 56.275 47.6882 56.2765C47.5188 56.2794 47.3608 56.2492 47.2143 56.186C47.0678 56.1228 46.9493 56.0251 46.8588 55.893C46.7683 55.7609 46.7231 55.595 46.7231 55.3954V52.1315ZM49.7214 56.3066C49.5117 56.3066 49.3221 56.2679 49.1527 56.1903C48.9832 56.1113 48.8489 55.9971 48.7498 55.8478C48.6521 55.6984 48.6033 55.5153 48.6033 55.2984C48.6033 55.1117 48.6392 54.958 48.711 54.8374C48.7828 54.7167 48.8798 54.6212 49.0019 54.5508C49.1239 54.4805 49.2604 54.4273 49.4112 54.3914C49.562 54.3555 49.7157 54.3282 49.8722 54.3096C50.0704 54.2866 50.2313 54.2679 50.3548 54.2535C50.4783 54.2377 50.5681 54.2126 50.6241 54.1781C50.6801 54.1437 50.7081 54.0877 50.7081 54.0101V53.995C50.7081 53.8069 50.655 53.6611 50.5487 53.5577C50.4438 53.4543 50.2873 53.4026 50.079 53.4026C49.8622 53.4026 49.6913 53.4507 49.5663 53.5469C49.4428 53.6417 49.3573 53.7473 49.3099 53.8636L48.7046 53.7257C48.7764 53.5247 48.8812 53.3624 49.0191 53.2388C49.1584 53.1139 49.3186 53.0234 49.4995 52.9674C49.6805 52.9099 49.8708 52.8812 50.0704 52.8812C50.2026 52.8812 50.3426 52.897 50.4905 52.9286C50.6399 52.9588 50.7792 53.0148 50.9085 53.0967C51.0392 53.1785 51.1462 53.2956 51.2295 53.4478C51.3128 53.5986 51.3544 53.7947 51.3544 54.036V56.2334H50.7253V55.781H50.6995C50.6578 55.8643 50.5954 55.9462 50.5121 56.0266C50.4288 56.107 50.3218 56.1738 50.1911 56.2269C50.0604 56.2801 49.9038 56.3066 49.7214 56.3066ZM49.8614 55.7896C50.0395 55.7896 50.1918 55.7544 50.3182 55.684C50.446 55.6137 50.5429 55.5217 50.609 55.4083C50.6765 55.2934 50.7103 55.1706 50.7103 55.0399V54.6133C50.6873 54.6363 50.6428 54.6578 50.5767 54.678C50.5121 54.6966 50.4381 54.7131 50.3548 54.7275C50.2715 54.7404 50.1903 54.7526 50.1114 54.7641C50.0324 54.7742 49.9663 54.7828 49.9132 54.79C49.7882 54.8058 49.674 54.8323 49.5706 54.8697C49.4686 54.907 49.3868 54.9609 49.325 55.0313C49.2647 55.1002 49.2345 55.1921 49.2345 55.307C49.2345 55.4664 49.2934 55.5871 49.4112 55.669C49.529 55.7494 49.679 55.7896 49.8614 55.7896ZM53.7571 52.9243V53.4414H51.9496V52.9243H53.7571ZM52.4343 52.1315H53.0784V55.2618C53.0784 55.3867 53.0971 55.4808 53.1345 55.544C53.1718 55.6058 53.2199 55.6481 53.2788 55.6711C53.3391 55.6927 53.4045 55.7034 53.4748 55.7034C53.5265 55.7034 53.5718 55.6998 53.6106 55.6927C53.6493 55.6855 53.6795 55.6797 53.701 55.6754L53.8174 56.2075C53.78 56.2219 53.7269 56.2363 53.658 56.2506C53.589 56.2664 53.5028 56.275 53.3994 56.2765C53.23 56.2794 53.072 56.2492 52.9255 56.186C52.779 56.1228 52.6605 56.0251 52.57 55.893C52.4795 55.7609 52.4343 55.595 52.4343 55.3954V52.1315ZM56.896 53.7322L56.3121 53.8356C56.2877 53.7609 56.2489 53.6898 56.1958 53.6223C56.1441 53.5548 56.0737 53.4995 55.9847 53.4564C55.8956 53.4133 55.7843 53.3918 55.6507 53.3918C55.4683 53.3918 55.3161 53.4327 55.194 53.5146C55.0719 53.595 55.0109 53.6992 55.0109 53.827C55.0109 53.9376 55.0518 54.0266 55.1337 54.0941C55.2156 54.1616 55.3477 54.2169 55.5301 54.26L56.0558 54.3807C56.3602 54.451 56.5872 54.5595 56.7365 54.706C56.8859 54.8525 56.9606 55.0428 56.9606 55.2769C56.9606 55.4751 56.9031 55.6517 56.7882 55.8068C56.6748 55.9605 56.5161 56.0812 56.3121 56.1688C56.1096 56.2564 55.8748 56.3002 55.6077 56.3002C55.2371 56.3002 54.9348 56.2212 54.7007 56.0632C54.4666 55.9038 54.3229 55.6776 54.2698 55.3846L54.8924 55.2898C54.9312 55.4521 55.0109 55.5749 55.1315 55.6582C55.2522 55.7401 55.4095 55.781 55.6033 55.781C55.8145 55.781 55.9832 55.7372 56.1096 55.6496C56.236 55.5605 56.2992 55.4521 56.2992 55.3243C56.2992 55.2209 56.2604 55.134 56.1829 55.0636C56.1067 54.9932 55.9897 54.9401 55.8317 54.9042L55.2716 54.7814C54.9628 54.711 54.7344 54.599 54.5865 54.4453C54.44 54.2916 54.3667 54.097 54.3667 53.8615C54.3667 53.6661 54.4213 53.4952 54.5305 53.3487C54.6396 53.2022 54.7904 53.088 54.9829 53.0062C55.1753 52.9229 55.3958 52.8812 55.6443 52.8812C56.0019 52.8812 56.2834 52.9588 56.4888 53.1139C56.6942 53.2676 56.8299 53.4737 56.896 53.7322ZM60.5131 56.298C60.246 56.298 60.0076 56.2298 59.7979 56.0934C59.5896 55.9555 59.4259 55.7594 59.3067 55.5052C59.1889 55.2496 59.13 54.9429 59.13 54.5853C59.13 54.2277 59.1896 53.9218 59.3088 53.6676C59.4295 53.4133 59.5946 53.2187 59.8043 53.0837C60.014 52.9487 60.2517 52.8812 60.5174 52.8812C60.7228 52.8812 60.888 52.9157 61.0129 52.9846C61.1393 53.0521 61.237 53.1311 61.3059 53.2216C61.3763 53.3121 61.4309 53.3918 61.4697 53.4607H61.5084V51.8213H62.1526V56.2334H61.5235V55.7185H61.4697C61.4309 55.7889 61.3749 55.8693 61.3016 55.9598C61.2298 56.0503 61.1307 56.1293 61.0043 56.1968C60.8779 56.2643 60.7142 56.298 60.5131 56.298ZM60.6553 55.7487C60.8406 55.7487 60.9971 55.6998 61.125 55.6022C61.2542 55.5031 61.3519 55.3659 61.418 55.1907C61.4855 55.0155 61.5192 54.8115 61.5192 54.5789C61.5192 54.3491 61.4862 54.148 61.4201 53.9756C61.354 53.8033 61.2571 53.669 61.1293 53.5728C61.0014 53.4765 60.8435 53.4284 60.6553 53.4284C60.4614 53.4284 60.2998 53.4787 60.1706 53.5792C60.0413 53.6798 59.9437 53.8169 59.8776 53.9907C59.813 54.1645 59.7806 54.3605 59.7806 54.5789C59.7806 54.8 59.8137 54.999 59.8797 55.1756C59.9458 55.3523 60.0435 55.4923 60.1727 55.5957C60.3034 55.6977 60.4643 55.7487 60.6553 55.7487ZM64.4981 56.3002C64.1721 56.3002 63.8913 56.2305 63.6558 56.0912C63.4217 55.9505 63.2407 55.753 63.1129 55.4988C62.9865 55.2431 62.9233 54.9437 62.9233 54.6004C62.9233 54.2614 62.9865 53.9627 63.1129 53.7042C63.2407 53.4457 63.4188 53.2439 63.6472 53.0988C63.877 52.9538 64.1455 52.8812 64.4529 52.8812C64.6396 52.8812 64.8206 52.9121 64.9958 52.9739C65.171 53.0356 65.3283 53.1326 65.4676 53.2647C65.6069 53.3968 65.7168 53.5685 65.7972 53.7796C65.8777 53.9893 65.9179 54.2442 65.9179 54.5444V54.7727H63.2874V54.2902H65.2866C65.2866 54.1207 65.2522 53.9706 65.1832 53.8399C65.1143 53.7078 65.0173 53.6036 64.8924 53.5275C64.7689 53.4514 64.6238 53.4133 64.4572 53.4133C64.2762 53.4133 64.1183 53.4579 63.9833 53.5469C63.8497 53.6345 63.7463 53.7494 63.673 53.8916C63.6012 54.0324 63.5653 54.1853 63.5653 54.3505V54.7275C63.5653 54.9487 63.6041 55.1368 63.6816 55.2919C63.7606 55.4471 63.8705 55.5655 64.0113 55.6474C64.152 55.7278 64.3165 55.7681 64.5046 55.7681C64.6267 55.7681 64.738 55.7508 64.8385 55.7164C64.9391 55.6804 65.026 55.6273 65.0992 55.5569C65.1725 55.4866 65.2285 55.3997 65.2672 55.2963L65.8769 55.4061C65.8281 55.5857 65.7405 55.7429 65.6141 55.8779C65.4891 56.0115 65.3319 56.1156 65.1423 56.1903C64.9541 56.2636 64.7394 56.3002 64.4981 56.3002ZM64.1621 52.4827L64.6662 51.4895H65.3448L64.677 52.4827H64.1621ZM68.1772 52.9243V53.4414H66.3697V52.9243H68.1772ZM66.8545 52.1315H67.4986V55.2618C67.4986 55.3867 67.5173 55.4808 67.5546 55.544C67.592 55.6058 67.6401 55.6481 67.699 55.6711C67.7593 55.6927 67.8246 55.7034 67.895 55.7034C67.9467 55.7034 67.992 55.6998 68.0307 55.6927C68.0695 55.6855 68.0997 55.6797 68.1212 55.6754L68.2376 56.2075C68.2002 56.2219 68.1471 56.2363 68.0781 56.2506C68.0092 56.2664 67.923 56.275 67.8196 56.2765C67.6501 56.2794 67.4922 56.2492 67.3457 56.186C67.1992 56.1228 67.0807 56.0251 66.9902 55.893C66.8997 55.7609 66.8545 55.595 66.8545 55.3954V52.1315ZM69.8528 56.3066C69.6431 56.3066 69.4535 56.2679 69.284 56.1903C69.1146 56.1113 68.9803 55.9971 68.8812 55.8478C68.7835 55.6984 68.7347 55.5153 68.7347 55.2984C68.7347 55.1117 68.7706 54.958 68.8424 54.8374C68.9142 54.7167 69.0112 54.6212 69.1332 54.5508C69.2553 54.4805 69.3918 54.4273 69.5426 54.3914C69.6934 54.3555 69.847 54.3282 70.0036 54.3096C70.2018 54.2866 70.3627 54.2679 70.4862 54.2535C70.6097 54.2377 70.6995 54.2126 70.7555 54.1781C70.8115 54.1437 70.8395 54.0877 70.8395 54.0101V53.995C70.8395 53.8069 70.7863 53.6611 70.6801 53.5577C70.5752 53.4543 70.4187 53.4026 70.2104 53.4026C69.9935 53.4026 69.8226 53.4507 69.6977 53.5469C69.5742 53.6417 69.4887 53.7473 69.4413 53.8636L68.8359 53.7257C68.9078 53.5247 69.0126 53.3624 69.1505 53.2388C69.2898 53.1139 69.4499 53.0234 69.6309 52.9674C69.8119 52.9099 70.0022 52.8812 70.2018 52.8812C70.3339 52.8812 70.474 52.897 70.6219 52.9286C70.7713 52.9588 70.9106 53.0148 71.0398 53.0967C71.1705 53.1785 71.2775 53.2956 71.3608 53.4478C71.4441 53.5986 71.4858 53.7947 71.4858 54.036V56.2334H70.8567V55.781H70.8309C70.7892 55.8643 70.7267 55.9462 70.6434 56.0266C70.5601 56.107 70.4531 56.1738 70.3224 56.2269C70.1917 56.2801 70.0352 56.3066 69.8528 56.3066ZM69.9928 55.7896C70.1709 55.7896 70.3232 55.7544 70.4496 55.684C70.5774 55.6137 70.6743 55.5217 70.7404 55.4083C70.8079 55.2934 70.8416 55.1706 70.8416 55.0399V54.6133C70.8187 54.6363 70.7741 54.6578 70.7081 54.678C70.6434 54.6966 70.5695 54.7131 70.4862 54.7275C70.4029 54.7404 70.3217 54.7526 70.2427 54.7641C70.1637 54.7742 70.0977 54.7828 70.0445 54.79C69.9196 54.8058 69.8054 54.8323 69.702 54.8697C69.6 54.907 69.5182 54.9609 69.4564 55.0313C69.3961 55.1002 69.3659 55.1921 69.3659 55.307C69.3659 55.4664 69.4248 55.5871 69.5426 55.669C69.6603 55.7494 69.8104 55.7896 69.9928 55.7896ZM72.3438 56.2334V52.9243H72.9879V56.2334H72.3438ZM72.6691 52.4137C72.5571 52.4137 72.4608 52.3764 72.3804 52.3017C72.3014 52.2256 72.2619 52.1351 72.2619 52.0302C72.2619 51.924 72.3014 51.8335 72.3804 51.7588C72.4608 51.6827 72.5571 51.6446 72.6691 51.6446C72.7811 51.6446 72.8766 51.6827 72.9556 51.7588C73.036 51.8335 73.0763 51.924 73.0763 52.0302C73.0763 52.1351 73.036 52.2256 72.9556 52.3017C72.8766 52.3764 72.7811 52.4137 72.6691 52.4137ZM74.4987 51.8213V56.2334H73.8545V51.8213H74.4987ZM76.0094 51.8213V56.2334H75.3653V51.8213H76.0094ZM78.3022 56.3002C77.9762 56.3002 77.6954 56.2305 77.4598 56.0912C77.2257 55.9505 77.0448 55.753 76.9169 55.4988C76.7905 55.2431 76.7273 54.9437 76.7273 54.6004C76.7273 54.2614 76.7905 53.9627 76.9169 53.7042C77.0448 53.4457 77.2229 53.2439 77.4512 53.0988C77.681 52.9538 77.9496 52.8812 78.2569 52.8812C78.4437 52.8812 78.6246 52.9121 78.7998 52.9739C78.9751 53.0356 79.1323 53.1326 79.2716 53.2647C79.411 53.3968 79.5208 53.5685 79.6013 53.7796C79.6817 53.9893 79.7219 54.2442 79.7219 54.5444V54.7727H77.0914V54.2902H79.0907C79.0907 54.1207 79.0562 53.9706 78.9873 53.8399C78.9183 53.7078 78.8214 53.6036 78.6964 53.5275C78.5729 53.4514 78.4279 53.4133 78.2613 53.4133C78.0803 53.4133 77.9223 53.4579 77.7873 53.5469C77.6537 53.6345 77.5503 53.7494 77.4771 53.8916C77.4053 54.0324 77.3693 54.1853 77.3693 54.3505V54.7275C77.3693 54.9487 77.4081 55.1368 77.4857 55.2919C77.5647 55.4471 77.6745 55.5655 77.8153 55.6474C77.9561 55.7278 78.1205 55.7681 78.3086 55.7681C78.4307 55.7681 78.542 55.7508 78.6426 55.7164C78.7431 55.6804 78.83 55.6273 78.9032 55.5569C78.9765 55.4866 79.0325 55.3997 79.0713 55.2963L79.681 55.4061C79.6321 55.5857 79.5445 55.7429 79.4181 55.8779C79.2932 56.0115 79.1359 56.1156 78.9463 56.1903C78.7582 56.2636 78.5435 56.3002 78.3022 56.3002ZM77.9661 52.4827L78.4702 51.4895H79.1488L78.481 52.4827H77.9661ZM82.9163 53.7322L82.3324 53.8356C82.308 53.7609 82.2693 53.6898 82.2161 53.6223C82.1644 53.5548 82.094 53.4995 82.005 53.4564C81.9159 53.4133 81.8046 53.3918 81.6711 53.3918C81.4887 53.3918 81.3364 53.4327 81.2143 53.5146C81.0923 53.595 81.0312 53.6992 81.0312 53.827C81.0312 53.9376 81.0721 54.0266 81.154 54.0941C81.2359 54.1616 81.368 54.2169 81.5504 54.26L82.0761 54.3807C82.3806 54.451 82.6075 54.5595 82.7569 54.706C82.9062 54.8525 82.9809 55.0428 82.9809 55.2769C82.9809 55.4751 82.9235 55.6517 82.8086 55.8068C82.6951 55.9605 82.5364 56.0812 82.3324 56.1688C82.1299 56.2564 81.8951 56.3002 81.628 56.3002C81.2574 56.3002 80.9551 56.2212 80.721 56.0632C80.4869 55.9038 80.3433 55.6776 80.2901 55.3846L80.9127 55.2898C80.9515 55.4521 81.0312 55.5749 81.1519 55.6582C81.2725 55.7401 81.4298 55.781 81.6237 55.781C81.8348 55.781 82.0035 55.7372 82.1299 55.6496C82.2563 55.5605 82.3195 55.4521 82.3195 55.3243C82.3195 55.2209 82.2807 55.134 82.2032 55.0636C82.1271 54.9932 82.01 54.9401 81.852 54.9042L81.2919 54.7814C80.9831 54.711 80.7547 54.599 80.6068 54.4453C80.4603 54.2916 80.3871 54.097 80.3871 53.8615C80.3871 53.6661 80.4416 53.4952 80.5508 53.3487C80.6599 53.2022 80.8108 53.088 81.0032 53.0062C81.1957 52.9229 81.4161 52.8812 81.6646 52.8812C82.0222 52.8812 82.3037 52.9588 82.5091 53.1139C82.7145 53.2676 82.8502 53.4737 82.9163 53.7322Z" fill="#101940"/>
<path d="M16.6171 77.9998C16.6171 75.2476 18.8482 73.0165 21.6004 73.0165C24.3526 73.0165 26.5837 75.2476 26.5837 77.9998C26.5837 80.752 24.3526 82.9831 21.6004 82.9831C18.8482 82.9831 16.6171 80.752 16.6171 77.9998Z" fill="white"/>
<path d="M16.6171 77.9998C16.6171 75.2476 18.8482 73.0165 21.6004 73.0165C24.3526 73.0165 26.5837 75.2476 26.5837 77.9998C26.5837 80.752 24.3526 82.9831 21.6004 82.9831C18.8482 82.9831 16.6171 80.752 16.6171 77.9998Z" stroke="#D8DAE5" stroke-width="0.433333"/>
<rect x="21.3828" y="77.7832" width="0.433333" height="0.433333" rx="0.216667" fill="white"/>
<path d="M33.1587 77.2469C33.1357 77.043 33.041 76.885 32.8743 76.773C32.7077 76.6595 32.4981 76.6028 32.2453 76.6028C32.0643 76.6028 31.9078 76.6315 31.7756 76.6889C31.6435 76.745 31.5408 76.8225 31.4676 76.9216C31.3957 77.0193 31.3598 77.1306 31.3598 77.2555C31.3598 77.3604 31.3843 77.4509 31.4331 77.527C31.4834 77.6031 31.5487 77.667 31.6291 77.7187C31.711 77.769 31.7986 77.8114 31.892 77.8458C31.9853 77.8789 32.0751 77.9062 32.1613 77.9277L32.5921 78.0397C32.7329 78.0742 32.8772 78.1209 33.0252 78.1798C33.1731 78.2386 33.3102 78.3162 33.4366 78.4124C33.563 78.5087 33.665 78.6279 33.7426 78.7701C33.8215 78.9122 33.861 79.0824 33.861 79.2806C33.861 79.5305 33.7964 79.7524 33.6672 79.9463C33.5393 80.1402 33.3533 80.2932 33.1092 80.4052C32.8664 80.5172 32.5727 80.5732 32.228 80.5732C31.8977 80.5732 31.6119 80.5208 31.3706 80.416C31.1293 80.3111 30.9405 80.1625 30.804 79.97C30.6676 79.7761 30.5922 79.5463 30.5778 79.2806H31.2457C31.2586 79.4401 31.3103 79.5729 31.4008 79.6792C31.4927 79.784 31.6097 79.8623 31.7519 79.914C31.8956 79.9643 32.0528 79.9894 32.2237 79.9894C32.4119 79.9894 32.5792 79.96 32.7257 79.9011C32.8736 79.8408 32.99 79.7575 33.0747 79.6512C33.1594 79.5435 33.2018 79.4178 33.2018 79.2742C33.2018 79.1435 33.1645 79.0365 33.0898 78.9532C33.0165 78.8699 32.9167 78.8009 32.7903 78.7464C32.6654 78.6918 32.5239 78.6437 32.3659 78.602L31.8446 78.4598C31.4913 78.3636 31.2112 78.2221 31.0044 78.0354C30.799 77.8487 30.6963 77.6017 30.6963 77.2943C30.6963 77.0401 30.7652 76.8182 30.9031 76.6286C31.041 76.439 31.2277 76.2918 31.4632 76.187C31.6988 76.0807 31.9645 76.0276 32.2604 76.0276C32.5591 76.0276 32.8226 76.08 33.051 76.1848C33.2808 76.2897 33.4618 76.434 33.5939 76.6178C33.726 76.8003 33.795 77.0099 33.8007 77.2469H33.1587ZM35.012 81.7409C34.9158 81.7409 34.8282 81.733 34.7492 81.7172C34.6702 81.7028 34.6113 81.6871 34.5725 81.6698L34.7276 81.142C34.8454 81.1736 34.9503 81.1872 35.0422 81.1829C35.1341 81.1786 35.2152 81.1442 35.2856 81.0795C35.3574 81.0149 35.4206 80.9093 35.4752 80.7628L35.5549 80.5431L34.3442 77.1909H35.0336L35.8716 79.7589H35.9061L36.7441 77.1909H37.4357L36.072 80.9416C36.0088 81.114 35.9283 81.2598 35.8307 81.379C35.733 81.4996 35.6167 81.5901 35.4817 81.6504C35.3467 81.7107 35.1901 81.7409 35.012 81.7409ZM38.6852 78.5352V80.5H38.041V77.1909H38.6593V77.7295H38.7003C38.7764 77.5543 38.8956 77.4135 39.0579 77.3072C39.2216 77.201 39.4277 77.1478 39.6762 77.1478C39.9017 77.1478 40.0992 77.1952 40.2686 77.29C40.4381 77.3834 40.5695 77.5227 40.6629 77.708C40.7562 77.8932 40.8029 78.1223 40.8029 78.3952V80.5H40.1588V78.4728C40.1588 78.2329 40.0963 78.0455 39.9713 77.9105C39.8464 77.774 39.6748 77.7058 39.4564 77.7058C39.3071 77.7058 39.1742 77.7381 39.0579 77.8027C38.943 77.8674 38.8518 77.9622 38.7843 78.0871C38.7182 78.2106 38.6852 78.36 38.6852 78.5352ZM43.2115 77.1909V77.708H41.404V77.1909H43.2115ZM41.8887 76.3981H42.5329V79.5284C42.5329 79.6533 42.5515 79.7474 42.5889 79.8106C42.6262 79.8724 42.6743 79.9147 42.7332 79.9377C42.7935 79.9593 42.8589 79.97 42.9293 79.97C42.981 79.97 43.0262 79.9664 43.065 79.9593C43.1038 79.9521 43.1339 79.9463 43.1555 79.942L43.2718 80.4741C43.2345 80.4885 43.1813 80.5029 43.1124 80.5172C43.0434 80.533 42.9573 80.5417 42.8539 80.5431C42.6844 80.546 42.5264 80.5158 42.3799 80.4526C42.2334 80.3894 42.1149 80.2917 42.0244 80.1596C41.934 80.0275 41.8887 79.8616 41.8887 79.662V76.3981ZM44.6393 78.5352V80.5H43.9951V76.0879H44.6307V77.7295H44.6716C44.7492 77.5514 44.8677 77.4099 45.0271 77.3051C45.1865 77.2002 45.3948 77.1478 45.6518 77.1478C45.8788 77.1478 46.077 77.1945 46.2464 77.2879C46.4174 77.3812 46.5495 77.5205 46.6428 77.7058C46.7376 77.8896 46.785 78.1194 46.785 78.3952V80.5H46.1409V78.4728C46.1409 78.23 46.0784 78.0419 45.9534 77.9083C45.8285 77.7733 45.6547 77.7058 45.4321 77.7058C45.2799 77.7058 45.1434 77.7381 45.0228 77.8027C44.9036 77.8674 44.8095 77.9622 44.7405 78.0871C44.673 78.2106 44.6393 78.36 44.6393 78.5352ZM49.0708 80.5668C48.7448 80.5668 48.464 80.4971 48.2284 80.3578C47.9943 80.2171 47.8134 80.0196 47.6855 79.7654C47.5592 79.5097 47.496 79.2103 47.496 78.867C47.496 78.528 47.5592 78.2293 47.6855 77.9708C47.8134 77.7123 47.9915 77.5105 48.2198 77.3654C48.4496 77.2204 48.7182 77.1478 49.0256 77.1478C49.2123 77.1478 49.3932 77.1787 49.5685 77.2405C49.7437 77.3022 49.9009 77.3992 50.0403 77.5313C50.1796 77.6634 50.2894 77.8351 50.3699 78.0462C50.4503 78.2559 50.4905 78.5108 50.4905 78.811V79.0393H47.8601V78.5568H49.8593C49.8593 78.3873 49.8248 78.2372 49.7559 78.1065C49.6869 77.9744 49.59 77.8702 49.465 77.7941C49.3415 77.718 49.1965 77.6799 49.0299 77.6799C48.8489 77.6799 48.6909 77.7245 48.5559 77.8135C48.4223 77.9011 48.3189 78.016 48.2457 78.1582C48.1739 78.299 48.138 78.4519 48.138 78.6171V78.9941C48.138 79.2153 48.1767 79.4034 48.2543 79.5585C48.3333 79.7137 48.4432 79.8321 48.5839 79.914C48.7247 79.9944 48.8891 80.0347 49.0773 80.0347C49.1993 80.0347 49.3107 80.0174 49.4112 79.983C49.5117 79.947 49.5986 79.8939 49.6719 79.8235C49.7451 79.7532 49.8011 79.6663 49.8399 79.5629L50.4496 79.6727C50.4008 79.8523 50.3131 80.0095 50.1868 80.1445C50.0618 80.2781 49.9045 80.3822 49.715 80.4569C49.5268 80.5302 49.3121 80.5668 49.0708 80.5668ZM48.7498 76.7493L48.0841 75.7561H48.7627L49.2647 76.7493H48.7498ZM53.6849 77.9988L53.1011 78.1022C53.0766 78.0275 53.0379 77.9564 52.9847 77.8889C52.933 77.8214 52.8626 77.7661 52.7736 77.723C52.6846 77.6799 52.5732 77.6584 52.4397 77.6584C52.2573 77.6584 52.105 77.6993 51.9829 77.7812C51.8609 77.8616 51.7998 77.9658 51.7998 78.0936C51.7998 78.2042 51.8408 78.2932 51.9226 78.3607C52.0045 78.4282 52.1366 78.4835 52.319 78.5266L52.8447 78.6473C53.1492 78.7176 53.3761 78.8261 53.5255 78.9726C53.6748 79.1191 53.7495 79.3094 53.7495 79.5435C53.7495 79.7417 53.6921 79.9183 53.5772 80.0734C53.4637 80.2271 53.305 80.3478 53.1011 80.4354C52.8986 80.523 52.6637 80.5668 52.3966 80.5668C52.026 80.5668 51.7237 80.4878 51.4896 80.3298C51.2555 80.1704 51.1119 79.9442 51.0587 79.6512L51.6813 79.5564C51.7201 79.7187 51.7998 79.8415 51.9205 79.9248C52.0411 80.0067 52.1984 80.0476 52.3923 80.0476C52.6034 80.0476 52.7722 80.0038 52.8986 79.9162C53.0249 79.8271 53.0881 79.7187 53.0881 79.5909C53.0881 79.4875 53.0494 79.4006 52.9718 79.3302C52.8957 79.2598 52.7786 79.2067 52.6206 79.1708L52.0605 79.048C51.7517 78.9776 51.5234 78.8656 51.3754 78.7119C51.2289 78.5582 51.1557 78.3636 51.1557 78.1281C51.1557 77.9327 51.2103 77.7618 51.3194 77.6153C51.4286 77.4688 51.5794 77.3546 51.7718 77.2728C51.9643 77.1895 52.1847 77.1478 52.4332 77.1478C52.7908 77.1478 53.0723 77.2254 53.2777 77.3805C53.4831 77.5342 53.6188 77.7403 53.6849 77.9988ZM55.884 80.5668C55.5579 80.5668 55.2771 80.4971 55.0416 80.3578C54.8075 80.2171 54.6265 80.0196 54.4987 79.7654C54.3723 79.5097 54.3091 79.2103 54.3091 78.867C54.3091 78.528 54.3723 78.2293 54.4987 77.9708C54.6265 77.7123 54.8046 77.5105 55.033 77.3654C55.2628 77.2204 55.5314 77.1478 55.8387 77.1478C56.0254 77.1478 56.2064 77.1787 56.3816 77.2405C56.5568 77.3022 56.7141 77.3992 56.8534 77.5313C56.9927 77.6634 57.1026 77.8351 57.183 78.0462C57.2635 78.2559 57.3037 78.5108 57.3037 78.811V79.0393H54.6732V78.5568H56.6724C56.6724 78.3873 56.638 78.2372 56.569 78.1065C56.5001 77.9744 56.4032 77.8702 56.2782 77.7941C56.1547 77.718 56.0096 77.6799 55.843 77.6799C55.6621 77.6799 55.5041 77.7245 55.3691 77.8135C55.2355 77.9011 55.1321 78.016 55.0588 78.1582C54.987 78.299 54.9511 78.4519 54.9511 78.6171V78.9941C54.9511 79.2153 54.9899 79.4034 55.0675 79.5585C55.1464 79.7137 55.2563 79.8321 55.3971 79.914C55.5378 79.9944 55.7023 80.0347 55.8904 80.0347C56.0125 80.0347 56.1238 80.0174 56.2243 79.983C56.3249 79.947 56.4118 79.8939 56.485 79.8235C56.5583 79.7532 56.6143 79.6663 56.6531 79.5629L57.2627 79.6727C57.2139 79.8523 57.1263 80.0095 56.9999 80.1445C56.875 80.2781 56.7177 80.3822 56.5281 80.4569C56.34 80.5302 56.1252 80.5668 55.884 80.5668Z" fill="#101940"/>
<mask id="path-13-inside-2_1148_15790" fill="white">
<path d="M6 90.1333H214V119.933H6V90.1333Z"/>
</mask>
<path d="M6 90.5666H214V89.7H6V90.5666Z" fill="#D8DAE5" mask="url(#path-13-inside-2_1148_15790)"/>
<path d="M16.6171 100.476C16.6171 98.7127 18.0467 97.2831 19.8102 97.2831H59.3239C61.0874 97.2831 62.5171 98.7127 62.5171 100.476V109.59C62.5171 111.353 61.0874 112.783 59.3239 112.783H19.8102C18.0467 112.783 16.6171 111.353 16.6171 109.59V100.476Z" fill="white"/>
<path d="M16.6171 100.476C16.6171 98.7127 18.0467 97.2831 19.8102 97.2831H59.3239C61.0874 97.2831 62.5171 98.7127 62.5171 100.476V109.59C62.5171 111.353 61.0874 112.783 59.3239 112.783H19.8102C18.0467 112.783 16.6171 111.353 16.6171 109.59V100.476Z" stroke="#D8DAE5" stroke-width="0.433333"/>
<path d="M25.2294 101.629C25.4346 101.441 25.7673 101.441 25.9725 101.629L27.7452 103.261L25.9725 104.892C25.7673 105.08 25.4346 105.08 25.2294 104.892C25.0242 104.703 25.0242 104.397 25.2294 104.208L25.7336 103.744H23.1489C22.8587 103.744 22.6234 103.528 22.6234 103.261C22.6234 102.994 22.8587 102.777 23.1489 102.777H25.7336L25.2294 102.313C25.0242 102.124 25.0242 101.818 25.2294 101.629Z" fill="#101940"/>
<path d="M23.1701 108.437C22.9649 108.626 22.6322 108.626 22.427 108.437L20.6543 106.806L22.427 105.175C22.6322 104.986 22.9649 104.986 23.1701 105.175C23.3753 105.364 23.3753 105.67 23.1701 105.859L22.6659 106.323H25.2506C25.5408 106.323 25.7761 106.539 25.7761 106.806C25.7761 107.073 25.5408 107.289 25.2506 107.289L22.6659 107.289L23.1701 107.753C23.3753 107.942 23.3753 108.248 23.1701 108.437Z" fill="#101940"/>
<path d="M34.4169 104.556H33.7447C33.7189 104.412 33.6707 104.286 33.6004 104.177C33.53 104.068 33.4438 103.975 33.3418 103.899C33.2399 103.823 33.1257 103.765 32.9993 103.726C32.8743 103.688 32.7415 103.668 32.6007 103.668C32.3465 103.668 32.1189 103.732 31.9178 103.86C31.7182 103.988 31.5602 104.175 31.4439 104.422C31.329 104.669 31.2715 104.971 31.2715 105.327C31.2715 105.686 31.329 105.989 31.4439 106.236C31.5602 106.483 31.7189 106.67 31.92 106.796C32.121 106.923 32.3472 106.986 32.5986 106.986C32.7379 106.986 32.87 106.967 32.995 106.93C33.1214 106.891 33.2356 106.834 33.3375 106.76C33.4395 106.685 33.5257 106.594 33.5961 106.486C33.6679 106.377 33.7174 106.252 33.7447 106.111L34.4169 106.113C34.381 106.33 34.3113 106.53 34.2079 106.712C34.1059 106.893 33.9745 107.05 33.8136 107.182C33.6542 107.313 33.4718 107.414 33.2664 107.486C33.0611 107.558 32.837 107.594 32.5943 107.594C32.2122 107.594 31.8719 107.503 31.5731 107.322C31.2744 107.14 31.0388 106.879 30.8665 106.54C30.6956 106.201 30.6101 105.797 30.6101 105.327C30.6101 104.856 30.6963 104.452 30.8686 104.114C31.041 103.775 31.2765 103.515 31.5753 103.334C31.874 103.152 32.2137 103.061 32.5943 103.061C32.8284 103.061 33.0467 103.095 33.2492 103.162C33.4532 103.228 33.6363 103.326 33.7986 103.455C33.9609 103.583 34.0952 103.739 34.2014 103.925C34.3077 104.108 34.3795 104.319 34.4169 104.556ZM36.5556 107.6C36.2454 107.6 35.9746 107.529 35.7434 107.387C35.5122 107.245 35.3326 107.046 35.2048 106.79C35.077 106.534 35.0131 106.236 35.0131 105.894C35.0131 105.55 35.077 105.25 35.2048 104.993C35.3326 104.736 35.5122 104.536 35.7434 104.394C35.9746 104.252 36.2454 104.181 36.5556 104.181C36.8658 104.181 37.1366 104.252 37.3678 104.394C37.599 104.536 37.7786 104.736 37.9064 104.993C38.0342 105.25 38.0981 105.55 38.0981 105.894C38.0981 106.236 38.0342 106.534 37.9064 106.79C37.7786 107.046 37.599 107.245 37.3678 107.387C37.1366 107.529 36.8658 107.6 36.5556 107.6ZM36.5578 107.059C36.7588 107.059 36.9254 107.006 37.0576 106.9C37.1897 106.794 37.2874 106.652 37.3506 106.475C37.4152 106.299 37.4475 106.104 37.4475 105.892C37.4475 105.68 37.4152 105.487 37.3506 105.31C37.2874 105.132 37.1897 104.989 37.0576 104.881C36.9254 104.773 36.7588 104.72 36.5578 104.72C36.3553 104.72 36.1872 104.773 36.0536 104.881C35.9215 104.989 35.8231 105.132 35.7585 105.31C35.6953 105.487 35.6637 105.68 35.6637 105.892C35.6637 106.104 35.6953 106.299 35.7585 106.475C35.8231 106.652 35.9215 106.794 36.0536 106.9C36.1872 107.006 36.3553 107.059 36.5578 107.059ZM38.8171 107.533V104.224H39.4354V104.763H39.4764C39.5453 104.58 39.6581 104.438 39.8146 104.336C39.9712 104.233 40.1586 104.181 40.3769 104.181C40.5981 104.181 40.7833 104.233 40.9327 104.336C41.0835 104.44 41.1948 104.582 41.2666 104.763H41.3011C41.3801 104.586 41.5058 104.445 41.6781 104.34C41.8505 104.234 42.0559 104.181 42.2943 104.181C42.5944 104.181 42.8393 104.275 43.0289 104.463C43.2199 104.651 43.3154 104.935 43.3154 105.314V107.533H42.6713V105.375C42.6713 105.15 42.6102 104.988 42.4882 104.888C42.3661 104.787 42.2203 104.737 42.0508 104.737C41.8411 104.737 41.6781 104.801 41.5618 104.931C41.4455 105.059 41.3873 105.223 41.3873 105.424V107.533H40.7453V105.334C40.7453 105.154 40.6893 105.01 40.5772 104.901C40.4652 104.791 40.3194 104.737 40.1399 104.737C40.0178 104.737 39.9051 104.769 39.8017 104.834C39.6997 104.897 39.6171 104.985 39.5539 105.099C39.4922 105.212 39.4613 105.344 39.4613 105.493V107.533H38.8171ZM44.1788 108.774V104.224H44.8079V104.761H44.8617C44.8991 104.692 44.9529 104.612 45.0233 104.521C45.0937 104.431 45.1913 104.352 45.3163 104.284C45.4412 104.215 45.6064 104.181 45.8118 104.181C46.0789 104.181 46.3174 104.249 46.527 104.384C46.7367 104.519 46.9012 104.713 47.0204 104.967C47.141 105.222 47.2014 105.527 47.2014 105.885C47.2014 106.243 47.1418 106.549 47.0225 106.805C46.9033 107.059 46.7396 107.255 46.5314 107.393C46.3231 107.53 46.0854 107.598 45.8183 107.598C45.6172 107.598 45.4527 107.564 45.3249 107.497C45.1985 107.429 45.0994 107.35 45.0276 107.26C44.9558 107.169 44.9005 107.089 44.8617 107.018H44.8229V108.774H44.1788ZM44.81 105.879C44.81 106.111 44.8438 106.315 44.9113 106.49C44.9788 106.666 45.0764 106.803 45.2043 106.902C45.3321 107 45.4886 107.048 45.6739 107.048C45.8664 107.048 46.0272 106.997 46.1565 106.896C46.2858 106.792 46.3834 106.652 46.4495 106.475C46.517 106.299 46.5507 106.1 46.5507 105.879C46.5507 105.66 46.5177 105.464 46.4516 105.291C46.387 105.117 46.2893 104.98 46.1586 104.879C46.0294 104.778 45.8678 104.728 45.6739 104.728C45.4872 104.728 45.3292 104.776 45.2 104.873C45.0721 104.969 44.9752 105.103 44.9091 105.275C44.8431 105.448 44.81 105.649 44.81 105.879ZM48.8861 107.606C48.6764 107.606 48.4868 107.568 48.3173 107.49C48.1478 107.411 48.0135 107.297 47.9144 107.148C47.8168 106.998 47.768 106.815 47.768 106.598C47.768 106.412 47.8039 106.258 47.8757 106.137C47.9475 106.017 48.0444 105.921 48.1665 105.851C48.2886 105.78 48.425 105.727 48.5758 105.691C48.7266 105.655 48.8803 105.628 49.0369 105.609C49.2351 105.586 49.3959 105.568 49.5194 105.553C49.643 105.538 49.7327 105.512 49.7887 105.478C49.8448 105.443 49.8728 105.387 49.8728 105.31V105.295C49.8728 105.107 49.8196 104.961 49.7133 104.857C49.6085 104.754 49.4519 104.702 49.2437 104.702C49.0268 104.702 48.8559 104.75 48.7309 104.847C48.6074 104.942 48.522 105.047 48.4746 105.163L47.8692 105.026C47.941 104.824 48.0459 104.662 48.1837 104.539C48.3231 104.414 48.4832 104.323 48.6642 104.267C48.8451 104.21 49.0354 104.181 49.2351 104.181C49.3672 104.181 49.5072 104.197 49.6552 104.228C49.8045 104.259 49.9439 104.315 50.0731 104.396C50.2038 104.478 50.3108 104.595 50.3941 104.748C50.4774 104.898 50.5191 105.094 50.5191 105.336V107.533H49.89V107.081H49.8641C49.8225 107.164 49.76 107.246 49.6767 107.326C49.5934 107.407 49.4864 107.474 49.3557 107.527C49.225 107.58 49.0685 107.606 48.8861 107.606ZM49.0261 107.089C49.2042 107.089 49.3564 107.054 49.4828 106.984C49.6106 106.913 49.7076 106.822 49.7737 106.708C49.8412 106.593 49.8749 106.47 49.8749 106.34V105.913C49.8519 105.936 49.8074 105.958 49.7413 105.978C49.6767 105.996 49.6027 106.013 49.5194 106.027C49.4361 106.04 49.355 106.052 49.276 106.064C49.197 106.074 49.1309 106.083 49.0778 106.09C48.9528 106.106 48.8387 106.132 48.7353 106.169C48.6333 106.207 48.5514 106.261 48.4897 106.331C48.4293 106.4 48.3992 106.492 48.3992 106.607C48.3992 106.766 48.4581 106.887 48.5758 106.969C48.6936 107.049 48.8437 107.089 49.0261 107.089ZM51.377 107.533V104.224H51.9996V104.75H52.0341C52.0944 104.572 52.2007 104.432 52.353 104.33C52.5066 104.226 52.6804 104.175 52.8743 104.175C52.9145 104.175 52.9619 104.176 53.0165 104.179C53.0725 104.182 53.1163 104.185 53.1479 104.19V104.806C53.1221 104.799 53.0761 104.791 53.01 104.782C52.944 104.772 52.8779 104.767 52.8118 104.767C52.6596 104.767 52.5239 104.799 52.4047 104.864C52.2869 104.927 52.1935 105.015 52.1246 105.129C52.0557 105.241 52.0212 105.369 52.0212 105.512V107.533H51.377ZM55.0131 107.6C54.687 107.6 54.4062 107.53 54.1707 107.391C53.9366 107.25 53.7556 107.053 53.6278 106.799C53.5014 106.543 53.4382 106.243 53.4382 105.9C53.4382 105.561 53.5014 105.263 53.6278 105.004C53.7556 104.745 53.9337 104.544 54.1621 104.399C54.3919 104.254 54.6605 104.181 54.9678 104.181C55.1545 104.181 55.3355 104.212 55.5107 104.274C55.6859 104.335 55.8432 104.432 55.9825 104.565C56.1218 104.697 56.2317 104.868 56.3121 105.079C56.3926 105.289 56.4328 105.544 56.4328 105.844V106.073H53.8023V105.59H55.8015C55.8015 105.42 55.7671 105.27 55.6981 105.14C55.6292 105.008 55.5323 104.903 55.4073 104.827C55.2838 104.751 55.1387 104.713 54.9721 104.713C54.7912 104.713 54.6332 104.758 54.4982 104.847C54.3646 104.934 54.2612 105.049 54.1879 105.191C54.1161 105.332 54.0802 105.485 54.0802 105.65V106.027C54.0802 106.248 54.119 106.437 54.1965 106.592C54.2755 106.747 54.3854 106.865 54.5262 106.947C54.6669 107.028 54.8314 107.068 55.0195 107.068C55.1416 107.068 55.2529 107.051 55.3534 107.016C55.454 106.98 55.5409 106.927 55.6141 106.857C55.6874 106.786 55.7434 106.699 55.7822 106.596L56.3918 106.706C56.343 106.885 56.2554 107.043 56.129 107.178C56.0041 107.311 55.8468 107.415 55.6572 107.49C55.4691 107.563 55.2543 107.6 55.0131 107.6ZM57.1475 107.533V104.224H57.7701V104.75H57.8046C57.8649 104.572 57.9712 104.432 58.1234 104.33C58.2771 104.226 58.4509 104.175 58.6448 104.175C58.685 104.175 58.7324 104.176 58.7869 104.179C58.843 104.182 58.8868 104.185 58.9184 104.19V104.806C58.8925 104.799 58.8465 104.791 58.7805 104.782C58.7144 104.772 58.6483 104.767 58.5823 104.767C58.43 104.767 58.2943 104.799 58.1751 104.864C58.0573 104.927 57.964 105.015 57.895 105.129C57.8261 105.241 57.7916 105.369 57.7916 105.512V107.533H57.1475Z" fill="#101940"/>
<mask id="path-18-inside-3_1148_15790" fill="white">
<path d="M6 119.934H214V161.867H6V119.934Z"/>
</mask>
<path d="M6 120.367H214V119.5H6V120.367Z" fill="#D8DAE5" mask="url(#path-18-inside-3_1148_15790)"/>
<path d="M16.6171 142.8C16.6171 141.005 18.0721 139.55 19.8671 139.55H200.134C201.929 139.55 203.384 141.005 203.384 142.8V151.467C203.384 153.262 201.929 154.717 200.134 154.717H19.867C18.0721 154.717 16.6171 153.262 16.6171 151.467V142.8Z" fill="white"/>
<path d="M16.6171 142.8C16.6171 141.005 18.0721 139.55 19.8671 139.55H200.134C201.929 139.55 203.384 141.005 203.384 142.8V151.467C203.384 153.262 201.929 154.717 200.134 154.717H19.867C18.0721 154.717 16.6171 153.262 16.6171 151.467V142.8Z" stroke="#D8DAE5" stroke-width="0.433333"/>
<path d="M20.3519 149.8V145.388H23.0879V145.961H21.0176V147.306H22.8919V147.876H21.0176V149.8H20.3519ZM23.8134 149.8V146.491H24.436V147.017H24.4705C24.5308 146.839 24.6371 146.699 24.7894 146.597C24.943 146.493 25.1168 146.442 25.3107 146.442C25.3509 146.442 25.3983 146.443 25.4529 146.446C25.5089 146.449 25.5527 146.452 25.5843 146.457V147.073C25.5585 147.066 25.5125 147.058 25.4464 147.049C25.3804 147.039 25.3143 147.034 25.2482 147.034C25.096 147.034 24.9603 147.066 24.8411 147.131C24.7233 147.194 24.6299 147.283 24.561 147.396C24.4921 147.508 24.4576 147.636 24.4576 147.78V149.8H23.8134ZM27.0751 149.874C26.8654 149.874 26.6759 149.835 26.5064 149.757C26.3369 149.678 26.2026 149.564 26.1035 149.415C26.0058 149.265 25.957 149.082 25.957 148.865C25.957 148.679 25.9929 148.525 26.0647 148.404C26.1365 148.284 26.2335 148.188 26.3556 148.118C26.4776 148.047 26.6141 147.994 26.7649 147.958C26.9157 147.922 27.0694 147.895 27.2259 147.876C27.4241 147.853 27.585 147.835 27.7085 147.82C27.832 147.805 27.9218 147.78 27.9778 147.745C28.0338 147.711 28.0618 147.655 28.0618 147.577V147.562C28.0618 147.374 28.0087 147.228 27.9024 147.125C27.7976 147.021 27.641 146.969 27.4327 146.969C27.2159 146.969 27.045 147.018 26.92 147.114C26.7965 147.209 26.711 147.314 26.6636 147.431L26.0583 147.293C26.1301 147.092 26.2349 146.929 26.3728 146.806C26.5121 146.681 26.6723 146.59 26.8532 146.534C27.0342 146.477 27.2245 146.448 27.4241 146.448C27.5563 146.448 27.6963 146.464 27.8442 146.496C27.9936 146.526 28.1329 146.582 28.2622 146.664C28.3929 146.745 28.4999 146.862 28.5832 147.015C28.6665 147.166 28.7081 147.362 28.7081 147.603V149.8H28.0791V149.348H28.0532C28.0116 149.431 27.9491 149.513 27.8658 149.593C27.7825 149.674 27.6755 149.741 27.5448 149.794C27.4141 149.847 27.2575 149.874 27.0751 149.874ZM27.2152 149.356C27.3933 149.356 27.5455 149.321 27.6719 149.251C27.7997 149.181 27.8967 149.089 27.9627 148.975C28.0302 148.86 28.064 148.737 28.064 148.607V148.18C28.041 148.203 27.9965 148.225 27.9304 148.245C27.8658 148.264 27.7918 148.28 27.7085 148.294C27.6252 148.307 27.5441 148.32 27.4651 148.331C27.3861 148.341 27.32 148.35 27.2669 148.357C27.1419 148.373 27.0277 148.399 26.9243 148.437C26.8223 148.474 26.7405 148.528 26.6787 148.598C26.6184 148.667 26.5882 148.759 26.5882 148.874C26.5882 149.033 26.6471 149.154 26.7649 149.236C26.8827 149.316 27.0328 149.356 27.2152 149.356ZM30.2103 147.836V149.8H29.5661V146.491H30.1844V147.03H30.2253C30.3015 146.855 30.4207 146.714 30.583 146.608C30.7467 146.501 30.9528 146.448 31.2013 146.448C31.4267 146.448 31.6242 146.496 31.7937 146.59C31.9632 146.684 32.0946 146.823 32.1879 147.008C32.2813 147.194 32.328 147.423 32.328 147.695V149.8H31.6838V147.773C31.6838 147.533 31.6214 147.346 31.4964 147.211C31.3714 147.074 31.1998 147.006 30.9815 147.006C30.8321 147.006 30.6993 147.038 30.583 147.103C30.4681 147.168 30.3769 147.262 30.3094 147.387C30.2433 147.511 30.2103 147.66 30.2103 147.836ZM34.5857 149.867C34.2655 149.867 33.9897 149.795 33.7585 149.649C33.5287 149.503 33.352 149.301 33.2285 149.044C33.105 148.787 33.0432 148.493 33.0432 148.161C33.0432 147.825 33.1064 147.528 33.2328 147.271C33.3592 147.013 33.5373 146.811 33.7671 146.666C33.9969 146.521 34.2676 146.448 34.5793 146.448C34.8306 146.448 35.0547 146.495 35.2514 146.588C35.4482 146.68 35.6069 146.809 35.7276 146.976C35.8496 147.143 35.9222 147.337 35.9451 147.56H35.3182C35.2838 147.405 35.2048 147.271 35.0812 147.159C34.9592 147.047 34.7954 146.991 34.5901 146.991C34.4105 146.991 34.2533 147.038 34.1183 147.133C33.9847 147.227 33.8806 147.36 33.8059 147.534C33.7312 147.706 33.6938 147.91 33.6938 148.146C33.6938 148.387 33.7305 148.595 33.8037 148.771C33.877 148.946 33.9804 149.081 34.1139 149.178C34.249 149.274 34.4077 149.322 34.5901 149.322C34.7121 149.322 34.8227 149.3 34.9218 149.255C35.0224 149.209 35.1064 149.144 35.1739 149.059C35.2428 148.974 35.2909 148.872 35.3182 148.753H35.9451C35.9222 148.967 35.8525 149.158 35.7362 149.326C35.6198 149.494 35.464 149.627 35.2687 149.723C35.0748 149.819 34.8471 149.867 34.5857 149.867ZM34.3531 149.783H34.7753L34.7409 149.96C34.8658 149.98 34.975 150.03 35.0683 150.111C35.1617 150.191 35.2084 150.312 35.2084 150.475C35.2098 150.668 35.1258 150.826 34.9563 150.946C34.7883 151.067 34.5448 151.127 34.226 151.127L34.213 150.768C34.3624 150.768 34.4831 150.746 34.575 150.703C34.6683 150.66 34.7157 150.59 34.7172 150.494C34.7186 150.398 34.6827 150.33 34.6094 150.291C34.5376 150.253 34.4227 150.225 34.2647 150.21L34.3531 149.783ZM37.597 149.874C37.3873 149.874 37.1977 149.835 37.0283 149.757C36.8588 149.678 36.7245 149.564 36.6254 149.415C36.5277 149.265 36.4789 149.082 36.4789 148.865C36.4789 148.679 36.5148 148.525 36.5866 148.404C36.6584 148.284 36.7554 148.188 36.8774 148.118C36.9995 148.047 37.136 147.994 37.2868 147.958C37.4376 147.922 37.5913 147.895 37.7478 147.876C37.946 147.853 38.1069 147.835 38.2304 147.82C38.3539 147.805 38.4437 147.78 38.4997 147.745C38.5557 147.711 38.5837 147.655 38.5837 147.577V147.562C38.5837 147.374 38.5306 147.228 38.4243 147.125C38.3194 147.021 38.1629 146.969 37.9546 146.969C37.7378 146.969 37.5668 147.018 37.4419 147.114C37.3184 147.209 37.2329 147.314 37.1855 147.431L36.5801 147.293C36.652 147.092 36.7568 146.929 36.8947 146.806C37.034 146.681 37.1941 146.59 37.3751 146.534C37.5561 146.477 37.7464 146.448 37.946 146.448C38.0781 146.448 38.2182 146.464 38.3661 146.496C38.5155 146.526 38.6548 146.582 38.7841 146.664C38.9147 146.745 39.0217 146.862 39.105 147.015C39.1884 147.166 39.23 147.362 39.23 147.603V149.8H38.6009V149.348H38.5751C38.5334 149.431 38.471 149.513 38.3876 149.593C38.3043 149.674 38.1973 149.741 38.0666 149.794C37.936 149.847 37.7794 149.874 37.597 149.874ZM37.737 149.356C37.9151 149.356 38.0674 149.321 38.1938 149.251C38.3216 149.181 38.4185 149.089 38.4846 148.975C38.5521 148.86 38.5858 148.737 38.5858 148.607V148.18C38.5629 148.203 38.5183 148.225 38.4523 148.245C38.3876 148.264 38.3137 148.28 38.2304 148.294C38.1471 148.307 38.0659 148.32 37.9869 148.331C37.9079 148.341 37.8419 148.35 37.7887 148.357C37.6638 148.373 37.5496 148.399 37.4462 148.437C37.3442 148.474 37.2624 148.528 37.2006 148.598C37.1403 148.667 37.1101 148.759 37.1101 148.874C37.1101 149.033 37.169 149.154 37.2868 149.236C37.4045 149.316 37.5546 149.356 37.737 149.356ZM40.088 149.8V146.491H40.7321V149.8H40.088ZM40.4133 145.981C40.3013 145.981 40.205 145.943 40.1246 145.869C40.0456 145.792 40.0061 145.702 40.0061 145.597C40.0061 145.491 40.0456 145.4 40.1246 145.326C40.205 145.25 40.3013 145.212 40.4133 145.212C40.5253 145.212 40.6208 145.25 40.6998 145.326C40.7802 145.4 40.8205 145.491 40.8205 145.597C40.8205 145.702 40.7802 145.792 40.6998 145.869C40.6208 145.943 40.5253 145.981 40.4133 145.981ZM44.0784 147.299L43.4945 147.402C43.4701 147.328 43.4314 147.257 43.3782 147.189C43.3265 147.122 43.2561 147.066 43.1671 147.023C43.078 146.98 42.9667 146.959 42.8332 146.959C42.6508 146.959 42.4985 147 42.3764 147.081C42.2544 147.162 42.1933 147.266 42.1933 147.394C42.1933 147.504 42.2343 147.594 42.3161 147.661C42.398 147.729 42.5301 147.784 42.7125 147.827L43.2382 147.948C43.5427 148.018 43.7696 148.126 43.919 148.273C44.0683 148.419 44.143 148.61 44.143 148.844C44.143 149.042 44.0856 149.219 43.9707 149.374C43.8572 149.527 43.6985 149.648 43.4945 149.736C43.292 149.823 43.0572 149.867 42.7901 149.867C42.4195 149.867 42.1172 149.788 41.8831 149.63C41.649 149.471 41.5054 149.244 41.4522 148.951L42.0748 148.857C42.1136 149.019 42.1933 149.142 42.314 149.225C42.4346 149.307 42.5919 149.348 42.7858 149.348C42.9969 149.348 43.1656 149.304 43.292 149.216C43.4184 149.127 43.4816 149.019 43.4816 148.891C43.4816 148.788 43.4428 148.701 43.3653 148.63C43.2892 148.56 43.1721 148.507 43.0141 148.471L42.454 148.348C42.1452 148.278 41.9168 148.166 41.7689 148.012C41.6224 147.858 41.5492 147.664 41.5492 147.428C41.5492 147.233 41.6037 147.062 41.7129 146.916C41.822 146.769 41.9729 146.655 42.1653 146.573C42.3578 146.49 42.5782 146.448 42.8267 146.448C43.1843 146.448 43.4658 146.526 43.6712 146.681C43.8766 146.834 44.0123 147.041 44.0784 147.299Z" fill="#101840"/>
<path fill-rule="evenodd" clip-rule="evenodd" d="M192.53 145.487C192.741 145.275 193.084 145.275 193.296 145.487L195.802 147.993L198.308 145.487C198.519 145.275 198.862 145.275 199.074 145.487C199.285 145.698 199.285 146.041 199.074 146.253L196.185 149.142C195.973 149.353 195.63 149.353 195.419 149.142L192.53 146.253C192.318 146.041 192.318 145.698 192.53 145.487Z" fill="#6F7595"/>
<path d="M16.7343 133.867V129.455H17.8007V133.001H19.6362V133.867H16.7343ZM21.1211 133.923C20.91 133.923 20.7226 133.888 20.5588 133.817C20.3965 133.745 20.268 133.638 20.1732 133.494C20.0799 133.349 20.0332 133.167 20.0332 132.949C20.0332 132.765 20.0655 132.61 20.1301 132.484C20.1948 132.357 20.2838 132.255 20.3973 132.176C20.5107 132.097 20.6414 132.037 20.7894 131.997C20.9373 131.955 21.0953 131.927 21.2633 131.913C21.4515 131.895 21.603 131.878 21.7179 131.859C21.8328 131.839 21.9161 131.811 21.9678 131.775C22.0209 131.737 22.0475 131.685 22.0475 131.618V131.607C22.0475 131.496 22.0094 131.411 21.9333 131.35C21.8572 131.29 21.7545 131.26 21.6252 131.26C21.4859 131.26 21.3739 131.29 21.2892 131.35C21.2044 131.411 21.1506 131.494 21.1276 131.6L20.156 131.566C20.1847 131.365 20.2587 131.185 20.3779 131.027C20.4985 130.868 20.6637 130.743 20.8734 130.652C21.0845 130.56 21.338 130.515 21.6339 130.515C21.845 130.515 22.0396 130.54 22.2177 130.59C22.3958 130.639 22.5509 130.711 22.683 130.805C22.8152 130.899 22.9171 131.014 22.989 131.15C23.0622 131.286 23.0988 131.442 23.0988 131.618V133.867H22.1078V133.406H22.082C22.0231 133.518 21.9477 133.612 21.8558 133.69C21.7653 133.768 21.6583 133.826 21.5348 133.865C21.4127 133.903 21.2748 133.923 21.1211 133.923ZM21.4464 133.233C21.5599 133.233 21.6619 133.21 21.7523 133.164C21.8443 133.118 21.9175 133.055 21.9721 132.975C22.0267 132.893 22.054 132.798 22.054 132.69V132.376C22.0238 132.392 21.9872 132.406 21.9441 132.419C21.9024 132.432 21.8565 132.444 21.8062 132.456C21.7559 132.467 21.7042 132.477 21.6511 132.486C21.598 132.494 21.547 132.502 21.4981 132.509C21.399 132.525 21.3143 132.55 21.2439 132.583C21.175 132.616 21.1218 132.659 21.0845 132.712C21.0486 132.764 21.0306 132.825 21.0306 132.897C21.0306 133.006 21.0694 133.09 21.147 133.147C21.226 133.205 21.3258 133.233 21.4464 133.233ZM24.7965 131.979V133.867H23.743V130.558H24.7448V131.165H24.7814C24.8546 130.963 24.9796 130.804 25.1562 130.689C25.3329 130.573 25.5433 130.515 25.7875 130.515C26.0201 130.515 26.2219 130.567 26.3928 130.672C26.5652 130.775 26.6988 130.92 26.7935 131.107C26.8898 131.292 26.9372 131.509 26.9357 131.758V133.867H25.8823V131.964C25.8837 131.781 25.837 131.637 25.7422 131.534C25.6489 131.43 25.5189 131.378 25.3523 131.378C25.2417 131.378 25.144 131.403 25.0593 131.452C24.976 131.499 24.9114 131.567 24.8654 131.656C24.8209 131.745 24.7979 131.853 24.7965 131.979ZM29.1305 135.177C28.8159 135.177 28.5466 135.133 28.3226 135.045C28.0985 134.958 27.9226 134.838 27.7948 134.685C27.667 134.533 27.5901 134.361 27.5643 134.168L28.5617 134.112C28.5804 134.18 28.6149 134.239 28.6651 134.289C28.7168 134.339 28.7836 134.378 28.8655 134.405C28.9488 134.433 29.0465 134.446 29.1585 134.446C29.3351 134.446 29.4809 134.403 29.5958 134.317C29.7122 134.232 29.7703 134.084 29.7703 133.871V133.289H29.7337C29.692 133.391 29.6289 133.483 29.5441 133.563C29.4594 133.643 29.3538 133.707 29.2274 133.753C29.1025 133.798 28.9588 133.821 28.7966 133.821C28.5553 133.821 28.3341 133.765 28.133 133.653C27.9334 133.54 27.7732 133.365 27.6526 133.128C27.5334 132.889 27.4738 132.583 27.4738 132.208C27.4738 131.821 27.5355 131.503 27.6591 131.253C27.7826 131.002 27.9441 130.816 28.1438 130.695C28.3449 130.575 28.561 130.515 28.7922 130.515C28.966 130.515 29.1147 130.545 29.2382 130.605C29.3632 130.664 29.4658 130.74 29.5463 130.833C29.6267 130.927 29.6877 131.024 29.7294 131.124H29.7596V130.558H30.8087V133.88C30.8087 134.16 30.7383 134.396 30.5976 134.588C30.4568 134.781 30.2601 134.927 30.0073 135.026C29.7545 135.126 29.4623 135.177 29.1305 135.177ZM29.1628 133.055C29.2906 133.055 29.3998 133.021 29.4903 132.953C29.5807 132.886 29.6504 132.789 29.6992 132.662C29.7481 132.536 29.7725 132.385 29.7725 132.208C29.7725 132.028 29.7481 131.874 29.6992 131.745C29.6518 131.614 29.5822 131.513 29.4903 131.443C29.3998 131.373 29.2906 131.337 29.1628 131.337C29.0321 131.337 28.9215 131.373 28.831 131.445C28.7405 131.517 28.6716 131.618 28.6242 131.749C28.5782 131.878 28.5553 132.031 28.5553 132.208C28.5553 132.385 28.579 132.536 28.6264 132.662C28.6738 132.789 28.742 132.886 28.831 132.953C28.9215 133.021 29.0321 133.055 29.1628 133.055ZM33.6153 132.438V130.558H34.6666V133.867H33.6627V133.251H33.6282C33.555 133.453 33.43 133.614 33.2534 133.733C33.0782 133.851 32.8663 133.91 32.6178 133.91C32.3924 133.91 32.1942 133.858 32.0232 133.755C31.8523 133.651 31.7195 133.507 31.6247 133.322C31.5299 133.135 31.4818 132.917 31.4803 132.667V130.558H32.5338V132.46C32.5353 132.639 32.5827 132.781 32.676 132.884C32.7694 132.988 32.8965 133.039 33.0573 133.039C33.1622 133.039 33.2563 133.016 33.3396 132.97C33.4243 132.923 33.4911 132.855 33.5399 132.766C33.5902 132.675 33.6153 132.566 33.6153 132.438ZM36.884 133.929C36.5379 133.929 36.2391 133.861 35.9878 133.725C35.7379 133.587 35.5454 133.391 35.4104 133.136C35.2769 132.881 35.2101 132.577 35.2101 132.225C35.2101 131.883 35.2776 131.585 35.4126 131.329C35.5476 131.072 35.7379 130.872 35.9835 130.73C36.2291 130.586 36.5185 130.515 36.8517 130.515C37.0872 130.515 37.3027 130.551 37.498 130.624C37.6933 130.698 37.8621 130.806 38.0043 130.95C38.1465 131.093 38.2571 131.271 38.336 131.482C38.415 131.692 38.4545 131.932 38.4545 132.204V132.466H35.5785V131.855H37.4743C37.4729 131.743 37.4463 131.643 37.3946 131.555C37.3429 131.467 37.2718 131.399 37.1813 131.35C37.0923 131.3 36.9896 131.275 36.8732 131.275C36.7555 131.275 36.6499 131.302 36.5565 131.355C36.4632 131.406 36.3892 131.478 36.3346 131.568C36.2801 131.657 36.2513 131.758 36.2485 131.872V132.494C36.2485 132.629 36.275 132.748 36.3282 132.85C36.3813 132.95 36.4567 133.029 36.5544 133.085C36.6521 133.141 36.7684 133.169 36.9034 133.169C36.9968 133.169 37.0815 133.156 37.1576 133.13C37.2337 133.104 37.2991 133.066 37.3537 133.016C37.4082 132.965 37.4492 132.904 37.4765 132.83L38.4438 132.858C38.4035 133.075 38.3152 133.264 38.1788 133.425C38.0438 133.584 37.8664 133.709 37.6467 133.798C37.4269 133.885 37.1727 133.929 36.884 133.929Z" fill="#101940"/>
</g>
<mask id="path-24-inside-4_1148_15790" fill="white">
<path d="M6 161.867H214V191.667H6V161.867Z"/>
</mask>
<path d="M6 162.3H214V161.433H6V162.3Z" fill="#D8DAE5" mask="url(#path-24-inside-4_1148_15790)"/>
<path d="M16.4004 172.266C16.4004 170.352 17.9525 168.8 19.8671 168.8H74.8671C76.7816 168.8 78.3337 170.352 78.3337 172.266V181.266C78.3337 183.181 76.7816 184.733 74.8671 184.733H19.8671C17.9525 184.733 16.4004 183.181 16.4004 181.266V172.266Z" fill="#3366FF"/>
<path d="M20.3519 179.267V174.854H23.1181V175.428H21.0176V176.772H22.9738V177.343H21.0176V178.694H23.144V179.267H20.3519ZM24.464 175.958L25.1944 177.246L25.9312 175.958H26.6356L25.6037 177.612L26.6443 179.267H25.9398L25.1944 178.03L24.4511 179.267H23.7445L24.7743 177.612L23.7574 175.958H24.464ZM27.297 180.508V175.958H27.9261V176.494H27.98C28.0173 176.425 28.0712 176.345 28.1415 176.255C28.2119 176.164 28.3096 176.085 28.4345 176.018C28.5595 175.949 28.7246 175.914 28.93 175.914C29.1972 175.914 29.4356 175.982 29.6453 176.117C29.855 176.252 30.0194 176.447 30.1386 176.701C30.2593 176.955 30.3196 177.261 30.3196 177.619C30.3196 177.976 30.26 178.283 30.1408 178.538C30.0216 178.793 29.8578 178.989 29.6496 179.127C29.4413 179.263 29.2036 179.331 28.9365 179.331C28.7354 179.331 28.571 179.297 28.4431 179.23C28.3168 179.162 28.2177 179.083 28.1458 178.993C28.074 178.903 28.0187 178.822 27.98 178.752H27.9412V180.508H27.297ZM27.9282 177.612C27.9282 177.845 27.962 178.049 28.0295 178.224C28.097 178.399 28.1947 178.536 28.3225 178.635C28.4503 178.733 28.6069 178.782 28.7921 178.782C28.9846 178.782 29.1455 178.731 29.2747 178.629C29.404 178.526 29.5016 178.385 29.5677 178.209C29.6352 178.032 29.669 177.833 29.669 177.612C29.669 177.394 29.6359 177.198 29.5699 177.024C29.5052 176.85 29.4076 176.713 29.2769 176.612C29.1476 176.512 28.986 176.462 28.7921 176.462C28.6054 176.462 28.4474 176.51 28.3182 176.606C28.1904 176.702 28.0934 176.836 28.0273 177.009C27.9613 177.181 27.9282 177.382 27.9282 177.612ZM32.4352 179.333C32.1249 179.333 31.8542 179.262 31.623 179.12C31.3917 178.978 31.2122 178.779 31.0844 178.523C30.9566 178.268 30.8926 177.969 30.8926 177.627C30.8926 177.284 30.9566 176.984 31.0844 176.727C31.2122 176.47 31.3917 176.27 31.623 176.128C31.8542 175.986 32.1249 175.914 32.4352 175.914C32.7454 175.914 33.0161 175.986 33.2474 176.128C33.4786 176.27 33.6581 176.47 33.7859 176.727C33.9138 176.984 33.9777 177.284 33.9777 177.627C33.9777 177.969 33.9138 178.268 33.7859 178.523C33.6581 178.779 33.4786 178.978 33.2474 179.12C33.0161 179.262 32.7454 179.333 32.4352 179.333ZM32.4373 178.793C32.6384 178.793 32.805 178.74 32.9371 178.633C33.0693 178.527 33.1669 178.385 33.2301 178.209C33.2947 178.032 33.3271 177.838 33.3271 177.625C33.3271 177.414 33.2947 177.22 33.2301 177.043C33.1669 176.865 33.0693 176.722 32.9371 176.615C32.805 176.507 32.6384 176.453 32.4373 176.453C32.2348 176.453 32.0668 176.507 31.9332 176.615C31.8011 176.722 31.7027 176.865 31.6381 177.043C31.5749 177.22 31.5433 177.414 31.5433 177.625C31.5433 177.838 31.5749 178.032 31.6381 178.209C31.7027 178.385 31.8011 178.527 31.9332 178.633C32.0668 178.74 32.2348 178.793 32.4373 178.793ZM34.6967 179.267V175.958H35.3193V176.483H35.3538C35.4141 176.305 35.5204 176.165 35.6726 176.063C35.8263 175.96 36.0001 175.908 36.194 175.908C36.2342 175.908 36.2816 175.909 36.3362 175.912C36.3922 175.915 36.436 175.919 36.4676 175.923V176.539C36.4417 176.532 36.3958 176.524 36.3297 176.515C36.2636 176.505 36.1976 176.5 36.1315 176.5C35.9793 176.5 35.8435 176.533 35.7243 176.597C35.6066 176.661 35.5132 176.749 35.4443 176.862C35.3753 176.974 35.3408 177.102 35.3408 177.246V179.267H34.6967ZM38.7652 175.958V176.475H36.9577V175.958H38.7652ZM37.4424 175.165H38.0866V178.295C38.0866 178.42 38.1052 178.514 38.1426 178.577C38.1799 178.639 38.228 178.681 38.2869 178.704C38.3473 178.726 38.4126 178.737 38.483 178.737C38.5347 178.737 38.5799 178.733 38.6187 178.726C38.6575 178.719 38.6876 178.713 38.7092 178.709L38.8255 179.241C38.7882 179.255 38.735 179.269 38.6661 179.284C38.5972 179.3 38.511 179.308 38.4076 179.31C38.2381 179.313 38.0801 179.282 37.9336 179.219C37.7871 179.156 37.6686 179.058 37.5781 178.926C37.4877 178.794 37.4424 178.628 37.4424 178.429V175.165ZM40.8684 179.333C40.5424 179.333 40.2616 179.264 40.026 179.124C39.7919 178.984 39.611 178.786 39.4831 178.532C39.3567 178.276 39.2936 177.977 39.2936 177.634C39.2936 177.295 39.3567 176.996 39.4831 176.737C39.611 176.479 39.7891 176.277 40.0174 176.132C40.2472 175.987 40.5158 175.914 40.8231 175.914C41.0099 175.914 41.1908 175.945 41.366 176.007C41.5413 176.069 41.6985 176.166 41.8378 176.298C41.9772 176.43 42.087 176.602 42.1675 176.813C42.2479 177.022 42.2881 177.277 42.2881 177.578V177.806H39.6576V177.323H41.6569C41.6569 177.154 41.6224 177.004 41.5535 176.873C41.4845 176.741 41.3876 176.637 41.2626 176.561C41.1391 176.485 40.9941 176.447 40.8275 176.447C40.6465 176.447 40.4885 176.491 40.3535 176.58C40.2199 176.668 40.1165 176.783 40.0433 176.925C39.9715 177.066 39.9356 177.219 39.9356 177.384V177.761C39.9356 177.982 39.9743 178.17 40.0519 178.325C40.1309 178.48 40.2408 178.599 40.3815 178.681C40.5223 178.761 40.6867 178.801 40.8749 178.801C40.9969 178.801 41.1082 178.784 41.2088 178.75C41.3093 178.714 41.3962 178.661 41.4695 178.59C41.5427 178.52 41.5987 178.433 41.6375 178.329L42.2472 178.439C42.1983 178.619 42.1107 178.776 41.9843 178.911C41.8594 179.045 41.7021 179.149 41.5125 179.224C41.3244 179.297 41.1097 179.333 40.8684 179.333ZM43.0028 179.267V175.958H43.6254V176.483H43.6599C43.7202 176.305 43.8265 176.165 43.9787 176.063C44.1324 175.96 44.3062 175.908 44.5001 175.908C44.5403 175.908 44.5877 175.909 44.6423 175.912C44.6983 175.915 44.7421 175.919 44.7737 175.923V176.539C44.7478 176.532 44.7019 176.524 44.6358 176.515C44.5698 176.505 44.5037 176.5 44.4376 176.5C44.2854 176.5 44.1497 176.533 44.0304 176.597C43.9127 176.661 43.8193 176.749 43.7504 176.862C43.6814 176.974 43.647 177.102 43.647 177.246V179.267H43.0028ZM47.5808 174.854V179.267H46.9367V174.854H47.5808ZM49.8736 179.333C49.5476 179.333 49.2668 179.264 49.0312 179.124C48.7971 178.984 48.6162 178.786 48.4883 178.532C48.362 178.276 48.2988 177.977 48.2988 177.634C48.2988 177.295 48.362 176.996 48.4883 176.737C48.6162 176.479 48.7943 176.277 49.0226 176.132C49.2524 175.987 49.521 175.914 49.8284 175.914C50.0151 175.914 50.196 175.945 50.3713 176.007C50.5465 176.069 50.7037 176.166 50.8431 176.298C50.9824 176.43 51.0922 176.602 51.1727 176.813C51.2531 177.022 51.2933 177.277 51.2933 177.578V177.806H48.6628V177.323H50.6621C50.6621 177.154 50.6276 177.004 50.5587 176.873C50.4897 176.741 50.3928 176.637 50.2678 176.561C50.1443 176.485 49.9993 176.447 49.8327 176.447C49.6517 176.447 49.4937 176.491 49.3587 176.58C49.2251 176.668 49.1217 176.783 49.0485 176.925C48.9767 177.066 48.9408 177.219 48.9408 177.384V177.761C48.9408 177.982 48.9795 178.17 49.0571 178.325C49.1361 178.48 49.246 178.599 49.3867 178.681C49.5275 178.761 49.6919 178.801 49.8801 178.801C50.0021 178.801 50.1134 178.784 50.214 178.75C50.3145 178.714 50.4014 178.661 50.4747 178.59C50.5479 178.52 50.6039 178.433 50.6427 178.329L51.2524 178.439C51.2036 178.619 51.1159 178.776 50.9896 178.911C50.8646 179.045 50.7073 179.149 50.5177 179.224C50.3296 179.297 50.1149 179.333 49.8736 179.333ZM53.6136 179.267V175.958H54.2362V176.483H54.2706C54.331 176.305 54.4372 176.165 54.5895 176.063C54.7432 175.96 54.9169 175.908 55.1108 175.908C55.1511 175.908 55.1984 175.909 55.253 175.912C55.309 175.915 55.3528 175.919 55.3844 175.923V176.539C55.3586 176.532 55.3126 176.524 55.2466 176.515C55.1805 176.505 55.1144 176.5 55.0484 176.5C54.8961 176.5 54.7604 176.533 54.6412 176.597C54.5234 176.661 54.4301 176.749 54.3611 176.862C54.2922 176.974 54.2577 177.102 54.2577 177.246V179.267H53.6136ZM56.8753 179.34C56.6656 179.34 56.476 179.301 56.3065 179.224C56.137 179.145 56.0027 179.03 55.9036 178.881C55.806 178.732 55.7571 178.548 55.7571 178.332C55.7571 178.145 55.7931 177.991 55.8649 177.871C55.9367 177.75 56.0336 177.654 56.1557 177.584C56.2778 177.514 56.4142 177.461 56.565 177.425C56.7158 177.389 56.8695 177.361 57.0261 177.343C57.2243 177.32 57.3851 177.301 57.5086 177.287C57.6322 177.271 57.7219 177.246 57.7779 177.211C57.8339 177.177 57.862 177.121 57.862 177.043V177.028C57.862 176.84 57.8088 176.694 57.7025 176.591C57.5977 176.487 57.4411 176.436 57.2329 176.436C57.016 176.436 56.8451 176.484 56.7201 176.58C56.5966 176.675 56.5112 176.78 56.4638 176.897L55.8584 176.759C55.9302 176.558 56.0351 176.396 56.1729 176.272C56.3123 176.147 56.4724 176.057 56.6534 176.001C56.8343 175.943 57.0246 175.914 57.2243 175.914C57.3564 175.914 57.4964 175.93 57.6444 175.962C57.7937 175.992 57.933 176.048 58.0623 176.13C58.193 176.212 58.3 176.329 58.3833 176.481C58.4666 176.632 58.5083 176.828 58.5083 177.069V179.267H57.8792V178.814H57.8533C57.8117 178.897 57.7492 178.979 57.6659 179.06C57.5826 179.14 57.4756 179.207 57.3449 179.26C57.2142 179.313 57.0577 179.34 56.8753 179.34ZM57.0153 178.823C57.1934 178.823 57.3456 178.788 57.472 178.717C57.5998 178.647 57.6968 178.555 57.7629 178.441C57.8304 178.327 57.8641 178.204 57.8641 178.073V177.647C57.8411 177.67 57.7966 177.691 57.7305 177.711C57.6659 177.73 57.5919 177.746 57.5086 177.761C57.4253 177.774 57.3442 177.786 57.2652 177.797C57.1862 177.807 57.1201 177.816 57.067 177.823C56.942 177.839 56.8279 177.866 56.7245 177.903C56.6225 177.94 56.5406 177.994 56.4789 178.064C56.4185 178.133 56.3884 178.225 56.3884 178.34C56.3884 178.5 56.4473 178.62 56.565 178.702C56.6828 178.783 56.8329 178.823 57.0153 178.823ZM59.3662 180.508V175.958H59.9953V176.494H60.0492C60.0865 176.425 60.1404 176.345 60.2107 176.255C60.2811 176.164 60.3788 176.085 60.5037 176.018C60.6287 175.949 60.7939 175.914 60.9992 175.914C61.2664 175.914 61.5048 175.982 61.7145 176.117C61.9242 176.252 62.0886 176.447 62.2078 176.701C62.3285 176.955 62.3888 177.261 62.3888 177.619C62.3888 177.976 62.3292 178.283 62.21 178.538C62.0908 178.793 61.927 178.989 61.7188 179.127C61.5105 179.263 61.2728 179.331 61.0057 179.331C60.8046 179.331 60.6402 179.297 60.5123 179.23C60.386 179.162 60.2869 179.083 60.215 178.993C60.1432 178.903 60.0879 178.822 60.0492 178.752H60.0104V180.508H59.3662ZM59.9975 177.612C59.9975 177.845 60.0312 178.049 60.0987 178.224C60.1662 178.399 60.2639 178.536 60.3917 178.635C60.5195 178.733 60.6761 178.782 60.8614 178.782C61.0538 178.782 61.2147 178.731 61.3439 178.629C61.4732 178.526 61.5709 178.385 61.6369 178.209C61.7044 178.032 61.7382 177.833 61.7382 177.612C61.7382 177.394 61.7051 177.198 61.6391 177.024C61.5744 176.85 61.4768 176.713 61.3461 176.612C61.2168 176.512 61.0552 176.462 60.8614 176.462C60.6746 176.462 60.5167 176.51 60.3874 176.606C60.2596 176.702 60.1626 176.836 60.0966 177.009C60.0305 177.181 59.9975 177.382 59.9975 177.612ZM63.1105 180.508V175.958H63.7396V176.494H63.7934C63.8308 176.425 63.8846 176.345 63.955 176.255C64.0254 176.164 64.123 176.085 64.248 176.018C64.373 175.949 64.5381 175.914 64.7435 175.914C65.0106 175.914 65.2491 175.982 65.4587 176.117C65.6684 176.252 65.8329 176.447 65.9521 176.701C66.0727 176.955 66.1331 177.261 66.1331 177.619C66.1331 177.976 66.0735 178.283 65.9543 178.538C65.835 178.793 65.6713 178.989 65.4631 179.127C65.2548 179.263 65.0171 179.331 64.75 179.331C64.5489 179.331 64.3844 179.297 64.2566 179.23C64.1302 179.162 64.0311 179.083 63.9593 178.993C63.8875 178.903 63.8322 178.822 63.7934 178.752H63.7547V180.508H63.1105ZM63.7417 177.612C63.7417 177.845 63.7755 178.049 63.843 178.224C63.9105 178.399 64.0081 178.536 64.136 178.635C64.2638 178.733 64.4203 178.782 64.6056 178.782C64.7981 178.782 64.9589 178.731 65.0882 178.629C65.2175 178.526 65.3151 178.385 65.3812 178.209C65.4487 178.032 65.4824 177.833 65.4824 177.612C65.4824 177.394 65.4494 177.198 65.3833 177.024C65.3187 176.85 65.2211 176.713 65.0904 176.612C64.9611 176.512 64.7995 176.462 64.6056 176.462C64.4189 176.462 64.2609 176.51 64.1317 176.606C64.0038 176.702 63.9069 176.836 63.8408 177.009C63.7748 177.181 63.7417 177.382 63.7417 177.612ZM68.2486 179.333C67.9384 179.333 67.6677 179.262 67.4364 179.12C67.2052 178.978 67.0257 178.779 66.8979 178.523C66.77 178.268 66.7061 177.969 66.7061 177.627C66.7061 177.284 66.77 176.984 66.8979 176.727C67.0257 176.47 67.2052 176.27 67.4364 176.128C67.6677 175.986 67.9384 175.914 68.2486 175.914C68.5589 175.914 68.8296 175.986 69.0608 176.128C69.2921 176.27 69.4716 176.47 69.5994 176.727C69.7272 176.984 69.7912 177.284 69.7912 177.627C69.7912 177.969 69.7272 178.268 69.5994 178.523C69.4716 178.779 69.2921 178.978 69.0608 179.12C68.8296 179.262 68.5589 179.333 68.2486 179.333ZM68.2508 178.793C68.4519 178.793 68.6185 178.74 68.7506 178.633C68.8827 178.527 68.9804 178.385 69.0436 178.209C69.1082 178.032 69.1405 177.838 69.1405 177.625C69.1405 177.414 69.1082 177.22 69.0436 177.043C68.9804 176.865 68.8827 176.722 68.7506 176.615C68.6185 176.507 68.4519 176.453 68.2508 176.453C68.0483 176.453 67.8802 176.507 67.7467 176.615C67.6145 176.722 67.5162 176.865 67.4515 177.043C67.3883 177.22 67.3567 177.414 67.3567 177.625C67.3567 177.838 67.3883 178.032 67.4515 178.209C67.5162 178.385 67.6145 178.527 67.7467 178.633C67.8802 178.74 68.0483 178.793 68.2508 178.793ZM70.5102 179.267V175.958H71.1328V176.483H71.1673C71.2276 176.305 71.3339 176.165 71.4861 176.063C71.6398 175.96 71.8136 175.908 72.0075 175.908C72.0477 175.908 72.0951 175.909 72.1496 175.912C72.2057 175.915 72.2495 175.919 72.2811 175.923V176.539C72.2552 176.532 72.2092 176.524 72.1432 176.515C72.0771 176.505 72.011 176.5 71.945 176.5C71.7927 176.5 71.657 176.533 71.5378 176.597C71.42 176.661 71.3267 176.749 71.2577 176.862C71.1888 176.974 71.1543 177.102 71.1543 177.246V179.267H70.5102ZM74.5787 175.958V176.475H72.7712V175.958H74.5787ZM73.2559 175.165H73.9001V178.295C73.9001 178.42 73.9187 178.514 73.9561 178.577C73.9934 178.639 74.0415 178.681 74.1004 178.704C74.1607 178.726 74.2261 178.737 74.2965 178.737C74.3482 178.737 74.3934 178.733 74.4322 178.726C74.471 178.719 74.5011 178.713 74.5227 178.709L74.639 179.241C74.6017 179.255 74.5485 179.269 74.4796 179.284C74.4106 179.3 74.3245 179.308 74.2211 179.31C74.0516 179.313 73.8936 179.282 73.7471 179.219C73.6006 179.156 73.4821 179.058 73.3916 178.926C73.3011 178.794 73.2559 178.628 73.2559 178.429V175.165Z" fill="white"/>
</g>
<defs>
<filter id="filter0_dd_1148_15790" x="0.366667" y="0.0999999" width="219.267" height="401.267" filterUnits="userSpaceOnUse" color-interpolation-filters="sRGB">
<feFlood flood-opacity="0" result="BackgroundImageFix"/>
<feColorMatrix in="SourceAlpha" type="matrix" values="0 0 0 0 0 0 0 0 0 0 0 0 0 0 0 0 0 0 127 0" result="hardAlpha"/>
<feMorphology radius="1.3" operator="erode" in="SourceAlpha" result="effect1_dropShadow_1148_15790"/>
<feOffset dy="1.73333"/>
<feGaussianBlur stdDeviation="3.46667"/>
<feComposite in2="hardAlpha" operator="out"/>
<feColorMatrix type="matrix" values="0 0 0 0 0.0627451 0 0 0 0 0.0941176 0 0 0 0 0.25098 0 0 0 0.15 0"/>
<feBlend mode="normal" in2="BackgroundImageFix" result="effect1_dropShadow_1148_15790"/>
<feColorMatrix in="SourceAlpha" type="matrix" values="0 0 0 0 0 0 0 0 0 0 0 0 0 0 0 0 0 0 127 0" result="hardAlpha"/>
<feMorphology radius="0.866667" operator="erode" in="SourceAlpha" result="effect2_dropShadow_1148_15790"/>
<feOffset dy="0.433333"/>
<feGaussianBlur stdDeviation="1.08333"/>
<feComposite in2="hardAlpha" operator="out"/>
<feColorMatrix type="matrix" values="0 0 0 0 0.0627451 0 0 0 0 0.0941176 0 0 0 0 0.25098 0 0 0 0.15 0"/>
<feBlend mode="normal" in2="effect1_dropShadow_1148_15790" result="effect2_dropShadow_1148_15790"/>
<feBlend mode="normal" in="SourceGraphic" in2="effect2_dropShadow_1148_15790" result="shape"/>
</filter>
<clipPath id="clip0_1148_15790">
<rect width="208" height="120.267" fill="white" transform="translate(6 41.6001)"/>
</clipPath>
</defs>
</svg>
