<svg width="371" height="404" viewBox="0 0 371 404" fill="none" xmlns="http://www.w3.org/2000/svg">
<rect width="370.568" height="403.824" rx="30.9187" fill="white"/>
<g clip-path="url(#clip0_1387_22957)">
<path d="M74.8694 79.7022H295.603V226.71C295.603 226.71 304.211 324.121 185.239 324.121C66.2672 324.121 75.3773 227.159 75.3773 227.159L74.8694 79.7022Z" stroke="#FF002E" stroke-width="25.7229" stroke-miterlimit="10"/>
<path d="M224.358 130.52C233.112 127.959 241.859 125.398 250.613 122.838C247.822 124.936 245.032 127.042 242.241 129.14C245.731 130.738 249.227 132.341 252.717 133.938C243.264 132.797 233.811 131.661 224.358 130.52Z" fill="#FF002E"/>
<path d="M170.26 114.067L104.194 210.818L135.436 229.244L194.285 143.264L223.548 136.512L226.636 132.486L199.444 132.915L228.984 126.349L232.889 120.026L210.942 116.284L191.587 111.031L170.26 114.067Z" fill="#FF002E"/>
<path d="M95.3381 178.348L117.081 191.949C112.786 198.239 108.492 204.528 104.198 210.818C101.242 199.994 98.2935 189.171 95.3381 178.348Z" fill="#FF002E"/>
<path d="M108.213 159.558L129.956 173.16C125.661 179.45 121.367 185.739 117.073 192.029C114.117 181.205 111.168 170.382 108.213 159.558Z" fill="#FF002E"/>
<path d="M121.073 140.696C128.322 145.23 135.566 149.764 142.815 154.298C138.521 160.588 134.226 166.877 129.932 173.167C126.977 162.343 124.028 151.52 121.073 140.696Z" fill="#FF002E"/>
<path d="M145.397 258.283C136.643 260.844 127.896 263.404 119.142 265.965C121.932 263.866 124.723 261.761 127.513 259.662C124.023 258.065 120.527 256.462 117.037 254.864C126.49 256.006 135.944 257.141 145.397 258.283Z" fill="#FF002E"/>
<path d="M199.501 274.736L265.561 177.985L234.319 159.558L175.47 245.532L146.206 252.284L143.119 256.316L170.311 255.881L140.771 262.447L136.865 268.777L158.813 272.519L178.168 277.765L199.501 274.736Z" fill="#FF002E"/>
<path d="M274.417 210.455C267.167 205.921 259.924 201.387 252.674 196.853C256.968 190.564 261.263 184.274 265.557 177.985C268.513 188.808 271.461 199.632 274.417 210.455Z" fill="#FF002E"/>
<path d="M261.538 229.245C254.288 224.711 247.045 220.177 239.795 215.643C244.09 209.353 248.384 203.064 252.679 196.774C255.634 207.598 258.583 218.421 261.538 229.245Z" fill="#FF002E"/>
<path d="M248.682 248.106C241.432 243.572 234.189 239.038 226.939 234.504C231.234 228.215 235.528 221.925 239.823 215.636C242.778 226.459 245.727 237.283 248.682 248.106Z" fill="#FF002E"/>
</g>
<defs>
<clipPath id="clip0_1387_22957">
<rect width="244" height="267.518" fill="white" transform="translate(63.2837 68.1527)"/>
</clipPath>
</defs>
</svg>
