<svg width="371" height="404" viewBox="0 0 371 404" fill="none" xmlns="http://www.w3.org/2000/svg">
<rect x="0.432617" width="370.568" height="403.824" rx="30.9187" fill="#100D11"/>
<g clip-path="url(#clip0_1387_22989)">
<path d="M75.302 79.7022H296.035V226.71C296.035 226.71 304.644 324.121 185.672 324.121C66.6999 324.121 75.81 227.159 75.81 227.159L75.302 79.7022Z" stroke="#FF002E" stroke-width="25.7229" stroke-miterlimit="10"/>
<path d="M224.79 130.52C233.544 127.959 242.291 125.398 251.045 122.838C248.255 124.936 245.464 127.042 242.674 129.14C246.164 130.738 249.66 132.341 253.15 133.938C243.697 132.797 234.243 131.661 224.79 130.52Z" fill="#FF002E"/>
<path d="M170.693 114.067L104.626 210.818L135.868 229.244L194.718 143.264L223.981 136.512L227.068 132.486L199.876 132.915L229.417 126.349L233.322 120.026L211.375 116.284L192.02 111.031L170.693 114.067Z" fill="#FF002E"/>
<path d="M95.7708 178.348L117.514 191.949C113.219 198.239 108.925 204.528 104.63 210.818C101.675 199.994 98.7261 189.171 95.7708 178.348Z" fill="#FF002E"/>
<path d="M108.646 159.558L130.389 173.16C126.094 179.45 121.8 185.739 117.505 192.029C114.55 181.205 111.601 170.382 108.646 159.558Z" fill="#FF002E"/>
<path d="M121.505 140.696C128.755 145.23 135.998 149.764 143.248 154.298C138.953 160.588 134.659 166.877 130.365 173.167C127.409 162.343 124.46 151.52 121.505 140.696Z" fill="#FF002E"/>
<path d="M145.829 258.283C137.075 260.844 128.328 263.404 119.574 265.965C122.365 263.866 125.155 261.761 127.946 259.662C124.456 258.065 120.96 256.462 117.47 254.864C126.923 256.006 136.376 257.141 145.829 258.283Z" fill="#FF002E"/>
<path d="M199.934 274.736L265.994 177.985L234.752 159.558L175.902 245.532L146.639 252.284L143.552 256.316L170.744 255.881L141.203 262.447L137.298 268.777L159.245 272.519L178.6 277.765L199.934 274.736Z" fill="#FF002E"/>
<path d="M274.849 210.455C267.599 205.921 260.356 201.387 253.106 196.853C257.401 190.564 261.695 184.274 265.99 177.985C268.945 188.808 271.894 199.632 274.849 210.455Z" fill="#FF002E"/>
<path d="M261.971 229.245C254.721 224.711 247.478 220.177 240.228 215.643C244.522 209.353 248.817 203.064 253.111 196.774C256.067 207.598 259.015 218.421 261.971 229.245Z" fill="#FF002E"/>
<path d="M249.115 248.106C241.865 243.572 234.622 239.038 227.372 234.504C231.667 228.215 235.961 221.925 240.255 215.636C243.211 226.459 246.16 237.283 249.115 248.106Z" fill="#FF002E"/>
</g>
<defs>
<clipPath id="clip0_1387_22989">
<rect width="244" height="267.518" fill="white" transform="translate(63.7163 68.1527)"/>
</clipPath>
</defs>
</svg>
