<svg width="371" height="404" viewBox="0 0 371 404" fill="none" xmlns="http://www.w3.org/2000/svg">
<rect x="0.216309" width="370.568" height="403.824" rx="30.9187" fill="#FF002E"/>
<g clip-path="url(#clip0_1387_22973)">
<path d="M75.0857 79.7022H295.819V226.71C295.819 226.71 304.428 324.121 185.456 324.121C66.4835 324.121 75.5936 227.159 75.5936 227.159L75.0857 79.7022Z" stroke="white" stroke-width="25.7229" stroke-miterlimit="10"/>
<path d="M224.574 130.52C233.328 127.959 242.075 125.398 250.829 122.838C248.039 124.936 245.248 127.042 242.458 129.14C245.947 130.738 249.444 132.341 252.933 133.938C243.48 132.797 234.027 131.661 224.574 130.52Z" fill="white"/>
<path d="M170.476 114.067L104.41 210.818L135.652 229.244L194.502 143.264L223.765 136.512L226.852 132.486L199.66 132.915L229.2 126.349L233.106 120.026L211.158 116.284L191.803 111.031L170.476 114.067Z" fill="white"/>
<path d="M95.5544 178.348L117.297 191.949C113.003 198.239 108.708 204.528 104.414 210.818C101.459 199.994 98.5098 189.171 95.5544 178.348Z" fill="white"/>
<path d="M108.429 159.558L130.172 173.16C125.878 179.45 121.583 185.739 117.289 192.029C114.334 181.205 111.385 170.382 108.429 159.558Z" fill="white"/>
<path d="M121.289 140.696C128.539 145.23 135.782 149.764 143.032 154.298C138.737 160.588 134.443 166.877 130.148 173.167C127.193 162.343 124.244 151.52 121.289 140.696Z" fill="white"/>
<path d="M145.613 258.283C136.859 260.844 128.112 263.404 119.358 265.965C122.148 263.866 124.939 261.761 127.729 259.662C124.24 258.065 120.743 256.462 117.254 254.864C126.707 256.006 136.16 257.141 145.613 258.283Z" fill="white"/>
<path d="M199.718 274.736L265.777 177.985L234.535 159.558L175.686 245.532L146.423 252.284L143.335 256.316L170.527 255.881L140.987 262.447L137.082 268.777L159.029 272.519L178.384 277.765L199.718 274.736Z" fill="white"/>
<path d="M274.633 210.455C267.383 205.921 260.14 201.387 252.89 196.853C257.185 190.564 261.479 184.274 265.774 177.985C268.729 188.808 271.678 199.632 274.633 210.455Z" fill="white"/>
<path d="M261.754 229.245C254.504 224.711 247.261 220.177 240.011 215.643C244.306 209.353 248.6 203.064 252.895 196.774C255.85 207.598 258.799 218.421 261.754 229.245Z" fill="white"/>
<path d="M248.899 248.106C241.649 243.572 234.406 239.038 227.156 234.504C231.45 228.215 235.745 221.925 240.039 215.636C242.995 226.459 245.943 237.283 248.899 248.106Z" fill="white"/>
</g>
<defs>
<clipPath id="clip0_1387_22973">
<rect width="244" height="267.518" fill="white" transform="translate(63.5 68.1527)"/>
</clipPath>
</defs>
</svg>
