<svg width="164" height="252" viewBox="0 0 164 252" fill="none" xmlns="http://www.w3.org/2000/svg">
<path d="M0 2.08916C0 0.935346 0.935354 0 2.08917 0H161.911C163.065 0 164 0.935354 164 2.08917V474.242C164 475.396 163.065 476.331 161.911 476.331H2.08918C0.935359 476.331 0 475.396 0 474.242V2.08916Z" fill="white"/>
<path d="M29.5092 27.1592C29.5092 26.1496 30.3276 25.3312 31.3372 25.3312H39.6939C40.7035 25.3312 41.5219 26.1496 41.5219 27.1592V35.5159C41.5219 36.5255 40.7035 37.344 39.6939 37.344H31.3372C30.3276 37.344 29.5092 36.5255 29.5092 35.5159V27.1592Z" fill="white"/>
<path d="M29.5092 27.1592C29.5092 26.1496 30.3276 25.3312 31.3372 25.3312H39.6939C40.7035 25.3312 41.5219 26.1496 41.5219 27.1592V35.5159C41.5219 36.5255 40.7035 37.344 39.6939 37.344H31.3372C30.3276 37.344 29.5092 36.5255 29.5092 35.5159V27.1592Z" stroke="#E7E8EF" stroke-width="0.522293"/>
<path d="M46.2829 29.2105V28.5198H50.3986V29.2105H48.7393V33.8376H47.9396V29.2105H46.2829ZM51.2795 35.3333C51.1635 35.3333 51.0579 35.3238 50.9627 35.3047C50.8675 35.2874 50.7965 35.2684 50.7498 35.2476L50.9367 34.6114C51.0787 34.6495 51.205 34.666 51.3158 34.6608C51.4266 34.6556 51.5244 34.614 51.6093 34.5361C51.6958 34.4582 51.772 34.331 51.8378 34.1544L51.9338 33.8896L50.4745 29.8492H51.3054L52.3155 32.9444H52.3571L53.3672 29.8492H54.2007L52.557 34.37C52.4809 34.5777 52.3839 34.7534 52.2662 34.8971C52.1485 35.0425 52.0083 35.1515 51.8455 35.2242C51.6828 35.297 51.4941 35.3333 51.2795 35.3333ZM54.9303 35.3333V29.8492H55.6886V30.4958H55.7535C55.7985 30.4127 55.8634 30.3166 55.9482 30.2076C56.033 30.0985 56.1508 30.0033 56.3014 29.9219C56.452 29.8388 56.651 29.7973 56.8986 29.7973C57.2206 29.7973 57.5079 29.8787 57.7607 30.0414C58.0134 30.2041 58.2116 30.4387 58.3553 30.7451C58.5007 31.0515 58.5734 31.4202 58.5734 31.8512C58.5734 32.2823 58.5016 32.6519 58.3579 32.96C58.2142 33.2664 58.0169 33.5027 57.7659 33.6689C57.5148 33.8333 57.2284 33.9155 56.9064 33.9155C56.664 33.9155 56.4658 33.8749 56.3117 33.7935C56.1594 33.7121 56.04 33.6169 55.9534 33.5079C55.8669 33.3988 55.8002 33.3019 55.7535 33.2171H55.7067V35.3333H54.9303ZM55.6911 31.8434C55.6911 32.1239 55.7318 32.3697 55.8132 32.5809C55.8946 32.7921 56.0123 32.9574 56.1663 33.0768C56.3204 33.1945 56.5091 33.2534 56.7324 33.2534C56.9644 33.2534 57.1582 33.192 57.314 33.069C57.4698 32.9444 57.5876 32.7756 57.6672 32.5627C57.7485 32.3498 57.7892 32.11 57.7892 31.8434C57.7892 31.5803 57.7494 31.344 57.6698 31.1346C57.5919 30.9251 57.4742 30.7598 57.3166 30.6386C57.1608 30.5174 56.9661 30.4568 56.7324 30.4568C56.5074 30.4568 56.3169 30.5148 56.1611 30.6308C56.0071 30.7468 55.8902 30.9087 55.8106 31.1164C55.731 31.3241 55.6911 31.5665 55.6911 31.8434ZM61.1622 33.9181C60.7693 33.9181 60.4309 33.8342 60.147 33.6663C59.8648 33.4966 59.6467 33.2586 59.4926 32.9522C59.3403 32.6441 59.2641 32.2831 59.2641 31.8694C59.2641 31.4609 59.3403 31.1008 59.4926 30.7892C59.6467 30.4776 59.8613 30.2344 60.1366 30.0596C60.4135 29.8847 60.7373 29.7973 61.1077 29.7973C61.3328 29.7973 61.5509 29.8345 61.7621 29.9089C61.9733 29.9834 62.1628 30.1002 62.3307 30.2595C62.4986 30.4188 62.6311 30.6256 62.728 30.8801C62.8249 31.1328 62.8734 31.4401 62.8734 31.8019V32.0771H59.7029V31.4955H62.1126C62.1126 31.2912 62.0711 31.1103 61.988 30.9528C61.9049 30.7935 61.788 30.668 61.6374 30.5763C61.4886 30.4845 61.3137 30.4387 61.1129 30.4387C60.8948 30.4387 60.7044 30.4923 60.5416 30.5997C60.3807 30.7052 60.256 30.8437 60.1677 31.0151C60.0812 31.1848 60.0379 31.3691 60.0379 31.5682V32.0226C60.0379 32.2892 60.0846 32.516 60.1781 32.7029C60.2733 32.8899 60.4058 33.0327 60.5754 33.1314C60.7451 33.2283 60.9433 33.2768 61.17 33.2768C61.3172 33.2768 61.4513 33.256 61.5725 33.2145C61.6937 33.1712 61.7984 33.1071 61.8867 33.0223C61.975 32.9375 62.0425 32.8328 62.0892 32.7081L62.8241 32.8405C62.7652 33.0569 62.6596 33.2465 62.5073 33.4092C62.3567 33.5702 62.1671 33.6957 61.9386 33.7857C61.7119 33.874 61.4531 33.9181 61.1622 33.9181ZM67.5318 29.8492V30.4724H65.3532V29.8492H67.5318ZM65.9374 28.8937H66.7138V32.6666C66.7138 32.8172 66.7363 32.9306 66.7813 33.0067C66.8264 33.0812 66.8843 33.1322 66.9553 33.1599C67.028 33.1859 67.1068 33.1989 67.1916 33.1989C67.2539 33.1989 67.3085 33.1945 67.3552 33.1859C67.4019 33.1772 67.4383 33.1703 67.4643 33.1651L67.6045 33.8065C67.5595 33.8238 67.4954 33.8411 67.4123 33.8584C67.3292 33.8775 67.2254 33.8878 67.1007 33.8896C66.8965 33.893 66.706 33.8567 66.5295 33.7805C66.3529 33.7044 66.2101 33.5866 66.101 33.4274C65.992 33.2681 65.9374 33.0682 65.9374 32.8276V28.8937ZM70.0667 33.9181C69.6738 33.9181 69.3353 33.8342 69.0514 33.6663C68.7693 33.4966 68.5512 33.2586 68.3971 32.9522C68.2448 32.6441 68.1686 32.2831 68.1686 31.8694C68.1686 31.4609 68.2448 31.1008 68.3971 30.7892C68.5512 30.4776 68.7658 30.2344 69.0411 30.0596C69.318 29.8847 69.6417 29.7973 70.0122 29.7973C70.2372 29.7973 70.4554 29.8345 70.6665 29.9089C70.8777 29.9834 71.0673 30.1002 71.2352 30.2595C71.4031 30.4188 71.5356 30.6256 71.6325 30.8801C71.7294 31.1328 71.7779 31.4401 71.7779 31.8019V32.0771H68.6074V31.4955H71.0171C71.0171 31.2912 70.9755 31.1103 70.8925 30.9528C70.8094 30.7935 70.6925 30.668 70.5419 30.5763C70.393 30.4845 70.2182 30.4387 70.0174 30.4387C69.7993 30.4387 69.6089 30.4923 69.4461 30.5997C69.2851 30.7052 69.1605 30.8437 69.0722 31.0151C68.9857 31.1848 68.9424 31.3691 68.9424 31.5682V32.0226C68.9424 32.2892 68.9891 32.516 69.0826 32.7029C69.1778 32.8899 69.3102 33.0327 69.4799 33.1314C69.6495 33.2283 69.8477 33.2768 70.0745 33.2768C70.2217 33.2768 70.3558 33.256 70.477 33.2145C70.5982 33.1712 70.7029 33.1071 70.7912 33.0223C70.8795 32.9375 70.947 32.8328 70.9937 32.7081L71.7286 32.8405C71.6697 33.0569 71.5641 33.2465 71.4118 33.4092C71.2612 33.5702 71.0716 33.6957 70.8431 33.7857C70.6163 33.874 70.3575 33.9181 70.0667 33.9181ZM73.1593 29.8492L74.0396 31.402L74.9276 29.8492H75.7767L74.5329 31.8434L75.7871 33.8376H74.938L74.0396 32.3472L73.1437 33.8376H72.292L73.5332 31.8434L72.3076 29.8492H73.1593ZM78.4357 29.8492V30.4724H76.2571V29.8492H78.4357ZM76.8413 28.8937H77.6177V32.6666C77.6177 32.8172 77.6402 32.9306 77.6852 33.0067C77.7302 33.0812 77.7882 33.1322 77.8592 33.1599C77.9319 33.1859 78.0107 33.1989 78.0955 33.1989C78.1578 33.1989 78.2123 33.1945 78.2591 33.1859C78.3058 33.1772 78.3422 33.1703 78.3681 33.1651L78.5084 33.8065C78.4634 33.8238 78.3993 33.8411 78.3162 33.8584C78.2331 33.8775 78.1293 33.8878 78.0046 33.8896C77.8003 33.893 77.6099 33.8567 77.4334 33.7805C77.2568 33.7044 77.114 33.5866 77.0049 33.4274C76.8959 33.2681 76.8413 33.0682 76.8413 32.8276V28.8937ZM82.006 31.4695V33.8376H81.2296V28.5198H81.9956V30.4984H82.045C82.1384 30.2837 82.2813 30.1132 82.4734 29.9868C82.6656 29.8605 82.9166 29.7973 83.2264 29.7973C83.4999 29.7973 83.7388 29.8536 83.9431 29.9661C84.1491 30.0786 84.3084 30.2465 84.4209 30.4698C84.5351 30.6914 84.5923 30.9684 84.5923 31.3007V33.8376H83.8159V31.3942C83.8159 31.1017 83.7406 30.8749 83.59 30.7139C83.4394 30.5512 83.2299 30.4698 82.9616 30.4698C82.7781 30.4698 82.6136 30.5088 82.4682 30.5867C82.3245 30.6646 82.2112 30.7788 82.1281 30.9294C82.0467 31.0783 82.006 31.2583 82.006 31.4695ZM87.3473 33.9181C86.9543 33.9181 86.6159 33.8342 86.332 33.6663C86.0498 33.4966 85.8317 33.2586 85.6776 32.9522C85.5253 32.6441 85.4491 32.2831 85.4491 31.8694C85.4491 31.4609 85.5253 31.1008 85.6776 30.7892C85.8317 30.4776 86.0464 30.2344 86.3216 30.0596C86.5986 29.8847 86.9223 29.7973 87.2928 29.7973C87.5178 29.7973 87.7359 29.8345 87.9471 29.9089C88.1583 29.9834 88.3478 30.1002 88.5158 30.2595C88.6837 30.4188 88.8161 30.6256 88.913 30.8801C89.01 31.1328 89.0585 31.4401 89.0585 31.8019V32.0771H85.888V31.4955H88.2976C88.2976 31.2912 88.2561 31.1103 88.173 30.9528C88.0899 30.7935 87.9731 30.668 87.8225 30.5763C87.6736 30.4845 87.4988 30.4387 87.2979 30.4387C87.0798 30.4387 86.8894 30.4923 86.7267 30.5997C86.5657 30.7052 86.4411 30.8437 86.3528 31.0151C86.2662 31.1848 86.2229 31.3691 86.2229 31.5682V32.0226C86.2229 32.2892 86.2697 32.516 86.3632 32.7029C86.4584 32.8899 86.5908 33.0327 86.7604 33.1314C86.9301 33.2283 87.1283 33.2768 87.3551 33.2768C87.5022 33.2768 87.6364 33.256 87.7575 33.2145C87.8787 33.1712 87.9835 33.1071 88.0717 33.0223C88.16 32.9375 88.2275 32.8328 88.2743 32.7081L89.0091 32.8405C88.9503 33.0569 88.8447 33.2465 88.6923 33.4092C88.5417 33.5702 88.3522 33.6957 88.1237 33.7857C87.8969 33.874 87.6381 33.9181 87.3473 33.9181ZM89.9199 33.8376V29.8492H90.6703V30.4828H90.7119C90.7846 30.2681 90.9127 30.0994 91.0962 29.9765C91.2814 29.8518 91.4908 29.7895 91.7245 29.7895C91.773 29.7895 91.8301 29.7912 91.8959 29.7947C91.9634 29.7982 92.0162 29.8025 92.0543 29.8077V30.5503C92.0232 30.5417 91.9678 30.5321 91.8881 30.5218C91.8085 30.5096 91.7289 30.5036 91.6492 30.5036C91.4657 30.5036 91.3022 30.5425 91.1585 30.6204C91.0165 30.6966 90.904 30.8031 90.8209 30.9398C90.7378 31.0748 90.6963 31.2289 90.6963 31.402V33.8376H89.9199ZM94.3023 33.9181C93.9094 33.9181 93.571 33.8342 93.2871 33.6663C93.0049 33.4966 92.7868 33.2586 92.6327 32.9522C92.4804 32.6441 92.4042 32.2831 92.4042 31.8694C92.4042 31.4609 92.4804 31.1008 92.6327 30.7892C92.7868 30.4776 93.0014 30.2344 93.2767 30.0596C93.5537 29.8847 93.8774 29.7973 94.2478 29.7973C94.4729 29.7973 94.691 29.8345 94.9022 29.9089C95.1134 29.9834 95.3029 30.1002 95.4708 30.2595C95.6387 30.4188 95.7712 30.6256 95.8681 30.8801C95.9651 31.1328 96.0135 31.4401 96.0135 31.8019V32.0771H92.843V31.4955H95.2527C95.2527 31.2912 95.2112 31.1103 95.1281 30.9528C95.045 30.7935 94.9281 30.668 94.7775 30.5763C94.6287 30.4845 94.4538 30.4387 94.253 30.4387C94.0349 30.4387 93.8445 30.4923 93.6818 30.5997C93.5208 30.7052 93.3961 30.8437 93.3078 31.0151C93.2213 31.1848 93.178 31.3691 93.178 31.5682V32.0226C93.178 32.2892 93.2247 32.516 93.3182 32.7029C93.4134 32.8899 93.5459 33.0327 93.7155 33.1314C93.8852 33.2283 94.0834 33.2768 94.3101 33.2768C94.4573 33.2768 94.5914 33.256 94.7126 33.2145C94.8338 33.1712 94.9385 33.1071 95.0268 33.0223C95.1151 32.9375 95.1826 32.8328 95.2293 32.7081L95.9642 32.8405C95.9053 33.0569 95.7997 33.2465 95.6474 33.4092C95.4968 33.5702 95.3072 33.6957 95.0787 33.7857C94.852 33.874 94.5932 33.9181 94.3023 33.9181Z" fill="#101940"/>
<rect width="130.573" height="29.2484" transform="translate(16.7129 54.3184)" fill="#EFF7FF"/>
<path d="M29.5092 64.7642C29.5092 63.7546 30.3276 62.9362 31.3372 62.9362H39.6939C40.7035 62.9362 41.5219 63.7546 41.5219 64.7642V73.1209C41.5219 74.1305 40.7035 74.9489 39.6939 74.9489H31.3372C30.3276 74.9489 29.5092 74.1305 29.5092 73.1209V64.7642Z" fill="white"/>
<path d="M29.5092 64.7642C29.5092 63.7546 30.3276 62.9362 31.3372 62.9362H39.6939C40.7035 62.9362 41.5219 63.7546 41.5219 64.7642V73.1209C41.5219 74.1305 40.7035 74.9489 39.6939 74.9489H31.3372C30.3276 74.9489 29.5092 74.1305 29.5092 73.1209V64.7642Z" stroke="#E7E8EF" stroke-width="0.522293"/>
<path d="M46.2829 66.8154V66.1247H50.3986V66.8154H48.7393V71.4426H47.9396V66.8154H46.2829ZM51.2795 72.9383C51.1635 72.9383 51.0579 72.9288 50.9627 72.9097C50.8675 72.8924 50.7965 72.8734 50.7498 72.8526L50.9367 72.2164C51.0787 72.2545 51.205 72.271 51.3158 72.2658C51.4266 72.2606 51.5244 72.219 51.6093 72.1411C51.6958 72.0632 51.772 71.936 51.8378 71.7594L51.9338 71.4946L50.4745 67.4542H51.3054L52.3155 70.5494H52.3571L53.3672 67.4542H54.2007L52.557 71.9749C52.4809 72.1827 52.3839 72.3584 52.2662 72.5021C52.1485 72.6475 52.0083 72.7565 51.8455 72.8292C51.6828 72.9019 51.4941 72.9383 51.2795 72.9383ZM54.9303 72.9383V67.4542H55.6886V68.1008H55.7535C55.7985 68.0177 55.8634 67.9216 55.9482 67.8125C56.033 67.7035 56.1508 67.6083 56.3014 67.5269C56.452 67.4438 56.651 67.4023 56.8986 67.4023C57.2206 67.4023 57.5079 67.4836 57.7607 67.6464C58.0134 67.8091 58.2116 68.0436 58.3553 68.35C58.5007 68.6564 58.5734 69.0252 58.5734 69.4562C58.5734 69.8872 58.5016 70.2568 58.3579 70.565C58.2142 70.8714 58.0169 71.1077 57.7659 71.2738C57.5148 71.4383 57.2284 71.5205 56.9064 71.5205C56.664 71.5205 56.4658 71.4798 56.3117 71.3985C56.1594 71.3171 56.04 71.2219 55.9534 71.1129C55.8669 71.0038 55.8002 70.9069 55.7535 70.822H55.7067V72.9383H54.9303ZM55.6911 69.4484C55.6911 69.7289 55.7318 69.9747 55.8132 70.1859C55.8946 70.3971 56.0123 70.5624 56.1663 70.6818C56.3204 70.7995 56.5091 70.8584 56.7324 70.8584C56.9644 70.8584 57.1582 70.7969 57.314 70.674C57.4698 70.5494 57.5876 70.3806 57.6672 70.1677C57.7485 69.9548 57.7892 69.715 57.7892 69.4484C57.7892 69.1853 57.7494 68.949 57.6698 68.7395C57.5919 68.5301 57.4742 68.3648 57.3166 68.2436C57.1608 68.1224 56.9661 68.0618 56.7324 68.0618C56.5074 68.0618 56.3169 68.1198 56.1611 68.2358C56.0071 68.3518 55.8902 68.5136 55.8106 68.7214C55.731 68.9291 55.6911 69.1714 55.6911 69.4484ZM61.1622 71.5231C60.7693 71.5231 60.4309 71.4392 60.147 71.2712C59.8648 71.1016 59.6467 70.8636 59.4926 70.5572C59.3403 70.249 59.2641 69.8881 59.2641 69.4744C59.2641 69.0658 59.3403 68.7058 59.4926 68.3942C59.6467 68.0826 59.8613 67.8394 60.1366 67.6645C60.4135 67.4897 60.7373 67.4023 61.1077 67.4023C61.3328 67.4023 61.5509 67.4395 61.7621 67.5139C61.9733 67.5884 62.1628 67.7052 62.3307 67.8645C62.4986 68.0237 62.6311 68.2306 62.728 68.4851C62.8249 68.7378 62.8734 69.0451 62.8734 69.4069V69.6821H59.7029V69.1005H62.1126C62.1126 68.8962 62.0711 68.7153 61.988 68.5578C61.9049 68.3985 61.788 68.273 61.6374 68.1813C61.4886 68.0895 61.3137 68.0436 61.1129 68.0436C60.8948 68.0436 60.7044 68.0973 60.5416 68.2046C60.3807 68.3102 60.256 68.4487 60.1677 68.6201C60.0812 68.7897 60.0379 68.9741 60.0379 69.1732V69.6276C60.0379 69.8942 60.0846 70.1209 60.1781 70.3079C60.2733 70.4949 60.4058 70.6377 60.5754 70.7363C60.7451 70.8333 60.9433 70.8818 61.17 70.8818C61.3172 70.8818 61.4513 70.861 61.5725 70.8194C61.6937 70.7762 61.7984 70.7121 61.8867 70.6273C61.975 70.5425 62.0425 70.4377 62.0892 70.3131L62.8241 70.4455C62.7652 70.6619 62.6596 70.8515 62.5073 71.0142C62.3567 71.1752 62.1671 71.3007 61.9386 71.3907C61.7119 71.479 61.4531 71.5231 61.1622 71.5231ZM67.5318 67.4542V68.0774H65.3532V67.4542H67.5318ZM65.9374 66.4986H66.7138V70.2715C66.7138 70.4222 66.7363 70.5355 66.7813 70.6117C66.8264 70.6861 66.8843 70.7372 66.9553 70.7649C67.028 70.7909 67.1068 70.8039 67.1916 70.8039C67.2539 70.8039 67.3085 70.7995 67.3552 70.7909C67.4019 70.7822 67.4383 70.7753 67.4643 70.7701L67.6045 71.4115C67.5595 71.4288 67.4954 71.4461 67.4123 71.4634C67.3292 71.4824 67.2254 71.4928 67.1007 71.4946C66.8965 71.498 66.706 71.4617 66.5295 71.3855C66.3529 71.3093 66.2101 71.1916 66.101 71.0324C65.992 70.8731 65.9374 70.6732 65.9374 70.4325V66.4986ZM70.0667 71.5231C69.6738 71.5231 69.3353 71.4392 69.0514 71.2712C68.7693 71.1016 68.5512 70.8636 68.3971 70.5572C68.2448 70.249 68.1686 69.8881 68.1686 69.4744C68.1686 69.0658 68.2448 68.7058 68.3971 68.3942C68.5512 68.0826 68.7658 67.8394 69.0411 67.6645C69.318 67.4897 69.6417 67.4023 70.0122 67.4023C70.2372 67.4023 70.4554 67.4395 70.6665 67.5139C70.8777 67.5884 71.0673 67.7052 71.2352 67.8645C71.4031 68.0237 71.5356 68.2306 71.6325 68.4851C71.7294 68.7378 71.7779 69.0451 71.7779 69.4069V69.6821H68.6074V69.1005H71.0171C71.0171 68.8962 70.9755 68.7153 70.8925 68.5578C70.8094 68.3985 70.6925 68.273 70.5419 68.1813C70.393 68.0895 70.2182 68.0436 70.0174 68.0436C69.7993 68.0436 69.6089 68.0973 69.4461 68.2046C69.2851 68.3102 69.1605 68.4487 69.0722 68.6201C68.9857 68.7897 68.9424 68.9741 68.9424 69.1732V69.6276C68.9424 69.8942 68.9891 70.1209 69.0826 70.3079C69.1778 70.4949 69.3102 70.6377 69.4799 70.7363C69.6495 70.8333 69.8477 70.8818 70.0745 70.8818C70.2217 70.8818 70.3558 70.861 70.477 70.8194C70.5982 70.7762 70.7029 70.7121 70.7912 70.6273C70.8795 70.5425 70.947 70.4377 70.9937 70.3131L71.7286 70.4455C71.6697 70.6619 71.5641 70.8515 71.4118 71.0142C71.2612 71.1752 71.0716 71.3007 70.8431 71.3907C70.6163 71.479 70.3575 71.5231 70.0667 71.5231ZM73.1593 67.4542L74.0396 69.007L74.9276 67.4542H75.7767L74.5329 69.4484L75.7871 71.4426H74.938L74.0396 69.9522L73.1437 71.4426H72.292L73.5332 69.4484L72.3076 67.4542H73.1593ZM78.4357 67.4542V68.0774H76.2571V67.4542H78.4357ZM76.8413 66.4986H77.6177V70.2715C77.6177 70.4222 77.6402 70.5355 77.6852 70.6117C77.7302 70.6861 77.7882 70.7372 77.8592 70.7649C77.9319 70.7909 78.0107 70.8039 78.0955 70.8039C78.1578 70.8039 78.2123 70.7995 78.2591 70.7909C78.3058 70.7822 78.3422 70.7753 78.3681 70.7701L78.5084 71.4115C78.4634 71.4288 78.3993 71.4461 78.3162 71.4634C78.2331 71.4824 78.1293 71.4928 78.0046 71.4946C77.8003 71.498 77.6099 71.4617 77.4334 71.3855C77.2568 71.3093 77.114 71.1916 77.0049 71.0324C76.8959 70.8731 76.8413 70.6732 76.8413 70.4325V66.4986ZM82.006 69.0745V71.4426H81.2296V66.1247H81.9956V68.1034H82.045C82.1384 67.8887 82.2813 67.7182 82.4734 67.5918C82.6656 67.4655 82.9166 67.4023 83.2264 67.4023C83.4999 67.4023 83.7388 67.4585 83.9431 67.5711C84.1491 67.6836 84.3084 67.8515 84.4209 68.0748C84.5351 68.2964 84.5923 68.5734 84.5923 68.9057V71.4426H83.8159V68.9992C83.8159 68.7066 83.7406 68.4799 83.59 68.3189C83.4394 68.1562 83.2299 68.0748 82.9616 68.0748C82.7781 68.0748 82.6136 68.1138 82.4682 68.1916C82.3245 68.2695 82.2112 68.3838 82.1281 68.5344C82.0467 68.6833 82.006 68.8633 82.006 69.0745ZM87.3473 71.5231C86.9543 71.5231 86.6159 71.4392 86.332 71.2712C86.0498 71.1016 85.8317 70.8636 85.6776 70.5572C85.5253 70.249 85.4491 69.8881 85.4491 69.4744C85.4491 69.0658 85.5253 68.7058 85.6776 68.3942C85.8317 68.0826 86.0464 67.8394 86.3216 67.6645C86.5986 67.4897 86.9223 67.4023 87.2928 67.4023C87.5178 67.4023 87.7359 67.4395 87.9471 67.5139C88.1583 67.5884 88.3478 67.7052 88.5158 67.8645C88.6837 68.0237 88.8161 68.2306 88.913 68.4851C89.01 68.7378 89.0585 69.0451 89.0585 69.4069V69.6821H85.888V69.1005H88.2976C88.2976 68.8962 88.2561 68.7153 88.173 68.5578C88.0899 68.3985 87.9731 68.273 87.8225 68.1813C87.6736 68.0895 87.4988 68.0436 87.2979 68.0436C87.0798 68.0436 86.8894 68.0973 86.7267 68.2046C86.5657 68.3102 86.4411 68.4487 86.3528 68.6201C86.2662 68.7897 86.2229 68.9741 86.2229 69.1732V69.6276C86.2229 69.8942 86.2697 70.1209 86.3632 70.3079C86.4584 70.4949 86.5908 70.6377 86.7604 70.7363C86.9301 70.8333 87.1283 70.8818 87.3551 70.8818C87.5022 70.8818 87.6364 70.861 87.7575 70.8194C87.8787 70.7762 87.9835 70.7121 88.0717 70.6273C88.16 70.5425 88.2275 70.4377 88.2743 70.3131L89.0091 70.4455C88.9503 70.6619 88.8447 70.8515 88.6923 71.0142C88.5417 71.1752 88.3522 71.3007 88.1237 71.3907C87.8969 71.479 87.6381 71.5231 87.3473 71.5231ZM89.9199 71.4426V67.4542H90.6703V68.0878H90.7119C90.7846 67.8731 90.9127 67.7043 91.0962 67.5814C91.2814 67.4568 91.4908 67.3945 91.7245 67.3945C91.773 67.3945 91.8301 67.3962 91.8959 67.3997C91.9634 67.4031 92.0162 67.4075 92.0543 67.4127V68.1553C92.0232 68.1466 91.9678 68.1371 91.8881 68.1267C91.8085 68.1146 91.7289 68.1086 91.6492 68.1086C91.4657 68.1086 91.3022 68.1475 91.1585 68.2254C91.0165 68.3016 90.904 68.408 90.8209 68.5448C90.7378 68.6798 90.6963 68.8339 90.6963 69.007V71.4426H89.9199ZM94.3023 71.5231C93.9094 71.5231 93.571 71.4392 93.2871 71.2712C93.0049 71.1016 92.7868 70.8636 92.6327 70.5572C92.4804 70.249 92.4042 69.8881 92.4042 69.4744C92.4042 69.0658 92.4804 68.7058 92.6327 68.3942C92.7868 68.0826 93.0014 67.8394 93.2767 67.6645C93.5537 67.4897 93.8774 67.4023 94.2478 67.4023C94.4729 67.4023 94.691 67.4395 94.9022 67.5139C95.1134 67.5884 95.3029 67.7052 95.4708 67.8645C95.6387 68.0237 95.7712 68.2306 95.8681 68.4851C95.9651 68.7378 96.0135 69.0451 96.0135 69.4069V69.6821H92.843V69.1005H95.2527C95.2527 68.8962 95.2112 68.7153 95.1281 68.5578C95.045 68.3985 94.9281 68.273 94.7775 68.1813C94.6287 68.0895 94.4538 68.0436 94.253 68.0436C94.0349 68.0436 93.8445 68.0973 93.6818 68.2046C93.5208 68.3102 93.3961 68.4487 93.3078 68.6201C93.2213 68.7897 93.178 68.9741 93.178 69.1732V69.6276C93.178 69.8942 93.2247 70.1209 93.3182 70.3079C93.4134 70.4949 93.5459 70.6377 93.7155 70.7363C93.8852 70.8333 94.0834 70.8818 94.3101 70.8818C94.4573 70.8818 94.5914 70.861 94.7126 70.8194C94.8338 70.7762 94.9385 70.7121 95.0268 70.6273C95.1151 70.5425 95.1826 70.4377 95.2293 70.3131L95.9642 70.4455C95.9053 70.6619 95.7997 70.8515 95.6474 71.0142C95.4968 71.1752 95.3072 71.3007 95.0787 71.3907C94.852 71.479 94.5932 71.5231 94.3023 71.5231Z" fill="#101940"/>
<path d="M29.5092 102.369C29.5092 101.36 30.3276 100.541 31.3372 100.541H39.6939C40.7035 100.541 41.5219 101.36 41.5219 102.369V110.726C41.5219 111.736 40.7035 112.554 39.6939 112.554H31.3372C30.3276 112.554 29.5092 111.736 29.5092 110.726V102.369Z" fill="#3366FF"/>
<path d="M29.5092 102.369C29.5092 101.36 30.3276 100.541 31.3372 100.541H39.6939C40.7035 100.541 41.5219 101.36 41.5219 102.369V110.726C41.5219 111.736 40.7035 112.554 39.6939 112.554H31.3372C30.3276 112.554 29.5092 111.736 29.5092 110.726V102.369Z" stroke="#3366FF" stroke-width="0.522293"/>
<path fill-rule="evenodd" clip-rule="evenodd" d="M39.8675 102.501C40.2275 102.741 40.3247 103.227 40.0847 103.587L35.3841 110.638C35.2476 110.843 35.0227 110.972 34.777 110.986C34.5312 111 34.2932 110.898 34.1342 110.71L31.2616 107.315C30.9821 106.985 31.0233 106.49 31.3536 106.211C31.6839 105.931 32.1782 105.973 32.4577 106.303L34.6578 108.903L38.781 102.718C39.021 102.358 39.5074 102.261 39.8675 102.501Z" fill="white"/>
<path d="M46.2829 104.421V103.73H50.3986V104.421H48.7393V109.048H47.9396V104.421H46.2829ZM51.2795 110.544C51.1635 110.544 51.0579 110.534 50.9627 110.515C50.8675 110.498 50.7965 110.479 50.7498 110.458L50.9367 109.822C51.0787 109.86 51.205 109.876 51.3158 109.871C51.4266 109.866 51.5244 109.824 51.6093 109.746C51.6958 109.668 51.772 109.541 51.8378 109.365L51.9338 109.1L50.4745 105.059H51.3054L52.3155 108.155H52.3571L53.3672 105.059H54.2007L52.557 109.58C52.4809 109.788 52.3839 109.964 52.2662 110.107C52.1485 110.253 52.0083 110.362 51.8455 110.434C51.6828 110.507 51.4941 110.544 51.2795 110.544ZM54.9303 110.544V105.059H55.6886V105.706H55.7535C55.7985 105.623 55.8634 105.527 55.9482 105.418C56.033 105.309 56.1508 105.213 56.3014 105.132C56.452 105.049 56.651 105.007 56.8986 105.007C57.2206 105.007 57.5079 105.089 57.7607 105.252C58.0134 105.414 58.2116 105.649 58.3553 105.955C58.5007 106.262 58.5734 106.63 58.5734 107.061C58.5734 107.492 58.5016 107.862 58.3579 108.17C58.2142 108.477 58.0169 108.713 57.7659 108.879C57.5148 109.044 57.2284 109.126 56.9064 109.126C56.664 109.126 56.4658 109.085 56.3117 109.004C56.1594 108.922 56.04 108.827 55.9534 108.718C55.8669 108.609 55.8002 108.512 55.7535 108.427H55.7067V110.544H54.9303ZM55.6911 107.054C55.6911 107.334 55.7318 107.58 55.8132 107.791C55.8946 108.002 56.0123 108.168 56.1663 108.287C56.3204 108.405 56.5091 108.464 56.7324 108.464C56.9644 108.464 57.1582 108.402 57.314 108.279C57.4698 108.155 57.5876 107.986 57.6672 107.773C57.7485 107.56 57.7892 107.32 57.7892 107.054C57.7892 106.791 57.7494 106.554 57.6698 106.345C57.5919 106.135 57.4742 105.97 57.3166 105.849C57.1608 105.728 56.9661 105.667 56.7324 105.667C56.5074 105.667 56.3169 105.725 56.1611 105.841C56.0071 105.957 55.8902 106.119 55.8106 106.327C55.731 106.534 55.6911 106.777 55.6911 107.054ZM61.1622 109.128C60.7693 109.128 60.4309 109.044 60.147 108.876C59.8648 108.707 59.6467 108.469 59.4926 108.162C59.3403 107.854 59.2641 107.493 59.2641 107.08C59.2641 106.671 59.3403 106.311 59.4926 105.999C59.6467 105.688 59.8613 105.445 60.1366 105.27C60.4135 105.095 60.7373 105.007 61.1077 105.007C61.3328 105.007 61.5509 105.045 61.7621 105.119C61.9733 105.194 62.1628 105.31 62.3307 105.47C62.4986 105.629 62.6311 105.836 62.728 106.09C62.8249 106.343 62.8734 106.65 62.8734 107.012V107.287H59.7029V106.706H62.1126C62.1126 106.501 62.0711 106.321 61.988 106.163C61.9049 106.004 61.788 105.878 61.6374 105.786C61.4886 105.695 61.3137 105.649 61.1129 105.649C60.8948 105.649 60.7044 105.703 60.5416 105.81C60.3807 105.915 60.256 106.054 60.1677 106.225C60.0812 106.395 60.0379 106.579 60.0379 106.778V107.233C60.0379 107.499 60.0846 107.726 60.1781 107.913C60.2733 108.1 60.4058 108.243 60.5754 108.342C60.7451 108.439 60.9433 108.487 61.17 108.487C61.3172 108.487 61.4513 108.466 61.5725 108.425C61.6937 108.381 61.7984 108.317 61.8867 108.233C61.975 108.148 62.0425 108.043 62.0892 107.918L62.8241 108.051C62.7652 108.267 62.6596 108.457 62.5073 108.619C62.3567 108.78 62.1671 108.906 61.9386 108.996C61.7119 109.084 61.4531 109.128 61.1622 109.128ZM67.5318 105.059V105.683H65.3532V105.059H67.5318ZM65.9374 104.104H66.7138V107.877C66.7138 108.027 66.7363 108.141 66.7813 108.217C66.8264 108.291 66.8843 108.342 66.9553 108.37C67.028 108.396 67.1068 108.409 67.1916 108.409C67.2539 108.409 67.3085 108.405 67.3552 108.396C67.4019 108.387 67.4383 108.381 67.4643 108.375L67.6045 109.017C67.5595 109.034 67.4954 109.051 67.4123 109.069C67.3292 109.088 67.2254 109.098 67.1007 109.1C66.8965 109.103 66.706 109.067 66.5295 108.991C66.3529 108.915 66.2101 108.797 66.101 108.638C65.992 108.478 65.9374 108.278 65.9374 108.038V104.104ZM70.0667 109.128C69.6738 109.128 69.3353 109.044 69.0514 108.876C68.7693 108.707 68.5512 108.469 68.3971 108.162C68.2448 107.854 68.1686 107.493 68.1686 107.08C68.1686 106.671 68.2448 106.311 68.3971 105.999C68.5512 105.688 68.7658 105.445 69.0411 105.27C69.318 105.095 69.6417 105.007 70.0122 105.007C70.2372 105.007 70.4554 105.045 70.6665 105.119C70.8777 105.194 71.0673 105.31 71.2352 105.47C71.4031 105.629 71.5356 105.836 71.6325 106.09C71.7294 106.343 71.7779 106.65 71.7779 107.012V107.287H68.6074V106.706H71.0171C71.0171 106.501 70.9755 106.321 70.8925 106.163C70.8094 106.004 70.6925 105.878 70.5419 105.786C70.393 105.695 70.2182 105.649 70.0174 105.649C69.7993 105.649 69.6089 105.703 69.4461 105.81C69.2851 105.915 69.1605 106.054 69.0722 106.225C68.9857 106.395 68.9424 106.579 68.9424 106.778V107.233C68.9424 107.499 68.9891 107.726 69.0826 107.913C69.1778 108.1 69.3102 108.243 69.4799 108.342C69.6495 108.439 69.8477 108.487 70.0745 108.487C70.2217 108.487 70.3558 108.466 70.477 108.425C70.5982 108.381 70.7029 108.317 70.7912 108.233C70.8795 108.148 70.947 108.043 70.9937 107.918L71.7286 108.051C71.6697 108.267 71.5641 108.457 71.4118 108.619C71.2612 108.78 71.0716 108.906 70.8431 108.996C70.6163 109.084 70.3575 109.128 70.0667 109.128ZM73.1593 105.059L74.0396 106.612L74.9276 105.059H75.7767L74.5329 107.054L75.7871 109.048H74.938L74.0396 107.557L73.1437 109.048H72.292L73.5332 107.054L72.3076 105.059H73.1593ZM78.4357 105.059V105.683H76.2571V105.059H78.4357ZM76.8413 104.104H77.6177V107.877C77.6177 108.027 77.6402 108.141 77.6852 108.217C77.7302 108.291 77.7882 108.342 77.8592 108.37C77.9319 108.396 78.0107 108.409 78.0955 108.409C78.1578 108.409 78.2123 108.405 78.2591 108.396C78.3058 108.387 78.3422 108.381 78.3681 108.375L78.5084 109.017C78.4634 109.034 78.3993 109.051 78.3162 109.069C78.2331 109.088 78.1293 109.098 78.0046 109.1C77.8003 109.103 77.6099 109.067 77.4334 108.991C77.2568 108.915 77.114 108.797 77.0049 108.638C76.8959 108.478 76.8413 108.278 76.8413 108.038V104.104ZM82.006 106.68V109.048H81.2296V103.73H81.9956V105.709H82.045C82.1384 105.494 82.2813 105.323 82.4734 105.197C82.6656 105.071 82.9166 105.007 83.2264 105.007C83.4999 105.007 83.7388 105.064 83.9431 105.176C84.1491 105.289 84.3084 105.457 84.4209 105.68C84.5351 105.902 84.5923 106.179 84.5923 106.511V109.048H83.8159V106.604C83.8159 106.312 83.7406 106.085 83.59 105.924C83.4394 105.761 83.2299 105.68 82.9616 105.68C82.7781 105.68 82.6136 105.719 82.4682 105.797C82.3245 105.875 82.2112 105.989 82.1281 106.14C82.0467 106.289 82.006 106.469 82.006 106.68ZM87.3473 109.128C86.9543 109.128 86.6159 109.044 86.332 108.876C86.0498 108.707 85.8317 108.469 85.6776 108.162C85.5253 107.854 85.4491 107.493 85.4491 107.08C85.4491 106.671 85.5253 106.311 85.6776 105.999C85.8317 105.688 86.0464 105.445 86.3216 105.27C86.5986 105.095 86.9223 105.007 87.2928 105.007C87.5178 105.007 87.7359 105.045 87.9471 105.119C88.1583 105.194 88.3478 105.31 88.5158 105.47C88.6837 105.629 88.8161 105.836 88.913 106.09C89.01 106.343 89.0585 106.65 89.0585 107.012V107.287H85.888V106.706H88.2976C88.2976 106.501 88.2561 106.321 88.173 106.163C88.0899 106.004 87.9731 105.878 87.8225 105.786C87.6736 105.695 87.4988 105.649 87.2979 105.649C87.0798 105.649 86.8894 105.703 86.7267 105.81C86.5657 105.915 86.4411 106.054 86.3528 106.225C86.2662 106.395 86.2229 106.579 86.2229 106.778V107.233C86.2229 107.499 86.2697 107.726 86.3632 107.913C86.4584 108.1 86.5908 108.243 86.7604 108.342C86.9301 108.439 87.1283 108.487 87.3551 108.487C87.5022 108.487 87.6364 108.466 87.7575 108.425C87.8787 108.381 87.9835 108.317 88.0717 108.233C88.16 108.148 88.2275 108.043 88.2743 107.918L89.0091 108.051C88.9503 108.267 88.8447 108.457 88.6923 108.619C88.5417 108.78 88.3522 108.906 88.1237 108.996C87.8969 109.084 87.6381 109.128 87.3473 109.128ZM89.9199 109.048V105.059H90.6703V105.693H90.7119C90.7846 105.478 90.9127 105.31 91.0962 105.187C91.2814 105.062 91.4908 105 91.7245 105C91.773 105 91.8301 105.001 91.8959 105.005C91.9634 105.008 92.0162 105.013 92.0543 105.018V105.761C92.0232 105.752 91.9678 105.742 91.8881 105.732C91.8085 105.72 91.7289 105.714 91.6492 105.714C91.4657 105.714 91.3022 105.753 91.1585 105.831C91.0165 105.907 90.904 106.013 90.8209 106.15C90.7378 106.285 90.6963 106.439 90.6963 106.612V109.048H89.9199ZM94.3023 109.128C93.9094 109.128 93.571 109.044 93.2871 108.876C93.0049 108.707 92.7868 108.469 92.6327 108.162C92.4804 107.854 92.4042 107.493 92.4042 107.08C92.4042 106.671 92.4804 106.311 92.6327 105.999C92.7868 105.688 93.0014 105.445 93.2767 105.27C93.5537 105.095 93.8774 105.007 94.2478 105.007C94.4729 105.007 94.691 105.045 94.9022 105.119C95.1134 105.194 95.3029 105.31 95.4708 105.47C95.6387 105.629 95.7712 105.836 95.8681 106.09C95.9651 106.343 96.0135 106.65 96.0135 107.012V107.287H92.843V106.706H95.2527C95.2527 106.501 95.2112 106.321 95.1281 106.163C95.045 106.004 94.9281 105.878 94.7775 105.786C94.6287 105.695 94.4538 105.649 94.253 105.649C94.0349 105.649 93.8445 105.703 93.6818 105.81C93.5208 105.915 93.3961 106.054 93.3078 106.225C93.2213 106.395 93.178 106.579 93.178 106.778V107.233C93.178 107.499 93.2247 107.726 93.3182 107.913C93.4134 108.1 93.5459 108.243 93.7155 108.342C93.8852 108.439 94.0834 108.487 94.3101 108.487C94.4573 108.487 94.5914 108.466 94.7126 108.425C94.8338 108.381 94.9385 108.317 95.0268 108.233C95.1151 108.148 95.1826 108.043 95.2293 107.918L95.9642 108.051C95.9053 108.267 95.7997 108.457 95.6474 108.619C95.4968 108.78 95.3072 108.906 95.0787 108.996C94.852 109.084 94.5932 109.128 94.3023 109.128Z" fill="#101940"/>
<rect width="130.573" height="29.2484" transform="translate(16.7129 129.529)" fill="#EFF7FF"/>
<path d="M29.5092 139.974C29.5092 138.965 30.3276 138.146 31.3372 138.146H39.6939C40.7035 138.146 41.5219 138.965 41.5219 139.974V148.331C41.5219 149.341 40.7035 150.159 39.6939 150.159H31.3372C30.3276 150.159 29.5092 149.341 29.5092 148.331V139.974Z" fill="#3366FF"/>
<path d="M29.5092 139.974C29.5092 138.965 30.3276 138.146 31.3372 138.146H39.6939C40.7035 138.146 41.5219 138.965 41.5219 139.974V148.331C41.5219 149.341 40.7035 150.159 39.6939 150.159H31.3372C30.3276 150.159 29.5092 149.341 29.5092 148.331V139.974Z" stroke="#3366FF" stroke-width="0.522293"/>
<path fill-rule="evenodd" clip-rule="evenodd" d="M39.8675 140.106C40.2275 140.346 40.3247 140.832 40.0847 141.192L35.3841 148.243C35.2476 148.448 35.0227 148.577 34.777 148.591C34.5312 148.605 34.2932 148.503 34.1342 148.315L31.2616 144.92C30.9821 144.59 31.0233 144.095 31.3536 143.816C31.6839 143.536 32.1782 143.578 32.4577 143.908L34.6578 146.508L38.781 140.323C39.021 139.963 39.5074 139.866 39.8675 140.106Z" fill="white"/>
<path d="M46.2829 142.026V141.335H50.3986V142.026H48.7393V146.653H47.9396V142.026H46.2829ZM51.2795 148.148C51.1635 148.148 51.0579 148.139 50.9627 148.12C50.8675 148.103 50.7965 148.084 50.7498 148.063L50.9367 147.427C51.0787 147.465 51.205 147.481 51.3158 147.476C51.4266 147.471 51.5244 147.429 51.6093 147.351C51.6958 147.273 51.772 147.146 51.8378 146.97L51.9338 146.705L50.4745 142.664H51.3054L52.3155 145.76H52.3571L53.3672 142.664H54.2007L52.557 147.185C52.4809 147.393 52.3839 147.569 52.2662 147.712C52.1485 147.858 52.0083 147.967 51.8455 148.039C51.6828 148.112 51.4941 148.148 51.2795 148.148ZM54.9303 148.148V142.664H55.6886V143.311H55.7535C55.7985 143.228 55.8634 143.132 55.9482 143.023C56.033 142.914 56.1508 142.818 56.3014 142.737C56.452 142.654 56.651 142.612 56.8986 142.612C57.2206 142.612 57.5079 142.694 57.7607 142.857C58.0134 143.019 58.2116 143.254 58.3553 143.56C58.5007 143.867 58.5734 144.235 58.5734 144.666C58.5734 145.097 58.5016 145.467 58.3579 145.775C58.2142 146.082 58.0169 146.318 57.7659 146.484C57.5148 146.649 57.2284 146.731 56.9064 146.731C56.664 146.731 56.4658 146.69 56.3117 146.609C56.1594 146.527 56.04 146.432 55.9534 146.323C55.8669 146.214 55.8002 146.117 55.7535 146.032H55.7067V148.148H54.9303ZM55.6911 144.659C55.6911 144.939 55.7318 145.185 55.8132 145.396C55.8946 145.607 56.0123 145.773 56.1663 145.892C56.3204 146.01 56.5091 146.069 56.7324 146.069C56.9644 146.069 57.1582 146.007 57.314 145.884C57.4698 145.76 57.5876 145.591 57.6672 145.378C57.7485 145.165 57.7892 144.925 57.7892 144.659C57.7892 144.395 57.7494 144.159 57.6698 143.95C57.5919 143.74 57.4742 143.575 57.3166 143.454C57.1608 143.333 56.9661 143.272 56.7324 143.272C56.5074 143.272 56.3169 143.33 56.1611 143.446C56.0071 143.562 55.8902 143.724 55.8106 143.932C55.731 144.139 55.6911 144.382 55.6911 144.659ZM61.1622 146.733C60.7693 146.733 60.4309 146.649 60.147 146.481C59.8648 146.312 59.6467 146.074 59.4926 145.767C59.3403 145.459 59.2641 145.098 59.2641 144.685C59.2641 144.276 59.3403 143.916 59.4926 143.604C59.6467 143.293 59.8613 143.05 60.1366 142.875C60.4135 142.7 60.7373 142.612 61.1077 142.612C61.3328 142.612 61.5509 142.65 61.7621 142.724C61.9733 142.799 62.1628 142.915 62.3307 143.075C62.4986 143.234 62.6311 143.441 62.728 143.695C62.8249 143.948 62.8734 144.255 62.8734 144.617V144.892H59.7029V144.311H62.1126C62.1126 144.106 62.0711 143.926 61.988 143.768C61.9049 143.609 61.788 143.483 61.6374 143.391C61.4886 143.3 61.3137 143.254 61.1129 143.254C60.8948 143.254 60.7044 143.308 60.5416 143.415C60.3807 143.52 60.256 143.659 60.1677 143.83C60.0812 144 60.0379 144.184 60.0379 144.383V144.838C60.0379 145.104 60.0846 145.331 60.1781 145.518C60.2733 145.705 60.4058 145.848 60.5754 145.947C60.7451 146.043 60.9433 146.092 61.17 146.092C61.3172 146.092 61.4513 146.071 61.5725 146.03C61.6937 145.986 61.7984 145.922 61.8867 145.837C61.975 145.753 62.0425 145.648 62.0892 145.523L62.8241 145.656C62.7652 145.872 62.6596 146.062 62.5073 146.224C62.3567 146.385 62.1671 146.511 61.9386 146.601C61.7119 146.689 61.4531 146.733 61.1622 146.733ZM67.5318 142.664V143.288H65.3532V142.664H67.5318ZM65.9374 141.709H66.7138V145.482C66.7138 145.632 66.7363 145.746 66.7813 145.822C66.8264 145.896 66.8843 145.947 66.9553 145.975C67.028 146.001 67.1068 146.014 67.1916 146.014C67.2539 146.014 67.3085 146.01 67.3552 146.001C67.4019 145.992 67.4383 145.985 67.4643 145.98L67.6045 146.622C67.5595 146.639 67.4954 146.656 67.4123 146.674C67.3292 146.693 67.2254 146.703 67.1007 146.705C66.8965 146.708 66.706 146.672 66.5295 146.596C66.3529 146.52 66.2101 146.402 66.101 146.243C65.992 146.083 65.9374 145.883 65.9374 145.643V141.709ZM70.0667 146.733C69.6738 146.733 69.3353 146.649 69.0514 146.481C68.7693 146.312 68.5512 146.074 68.3971 145.767C68.2448 145.459 68.1686 145.098 68.1686 144.685C68.1686 144.276 68.2448 143.916 68.3971 143.604C68.5512 143.293 68.7658 143.05 69.0411 142.875C69.318 142.7 69.6417 142.612 70.0122 142.612C70.2372 142.612 70.4554 142.65 70.6665 142.724C70.8777 142.799 71.0673 142.915 71.2352 143.075C71.4031 143.234 71.5356 143.441 71.6325 143.695C71.7294 143.948 71.7779 144.255 71.7779 144.617V144.892H68.6074V144.311H71.0171C71.0171 144.106 70.9755 143.926 70.8925 143.768C70.8094 143.609 70.6925 143.483 70.5419 143.391C70.393 143.3 70.2182 143.254 70.0174 143.254C69.7993 143.254 69.6089 143.308 69.4461 143.415C69.2851 143.52 69.1605 143.659 69.0722 143.83C68.9857 144 68.9424 144.184 68.9424 144.383V144.838C68.9424 145.104 68.9891 145.331 69.0826 145.518C69.1778 145.705 69.3102 145.848 69.4799 145.947C69.6495 146.043 69.8477 146.092 70.0745 146.092C70.2217 146.092 70.3558 146.071 70.477 146.03C70.5982 145.986 70.7029 145.922 70.7912 145.837C70.8795 145.753 70.947 145.648 70.9937 145.523L71.7286 145.656C71.6697 145.872 71.5641 146.062 71.4118 146.224C71.2612 146.385 71.0716 146.511 70.8431 146.601C70.6163 146.689 70.3575 146.733 70.0667 146.733ZM73.1593 142.664L74.0396 144.217L74.9276 142.664H75.7767L74.5329 144.659L75.7871 146.653H74.938L74.0396 145.162L73.1437 146.653H72.292L73.5332 144.659L72.3076 142.664H73.1593ZM78.4357 142.664V143.288H76.2571V142.664H78.4357ZM76.8413 141.709H77.6177V145.482C77.6177 145.632 77.6402 145.746 77.6852 145.822C77.7302 145.896 77.7882 145.947 77.8592 145.975C77.9319 146.001 78.0107 146.014 78.0955 146.014C78.1578 146.014 78.2123 146.01 78.2591 146.001C78.3058 145.992 78.3422 145.985 78.3681 145.98L78.5084 146.622C78.4634 146.639 78.3993 146.656 78.3162 146.674C78.2331 146.693 78.1293 146.703 78.0046 146.705C77.8003 146.708 77.6099 146.672 77.4334 146.596C77.2568 146.52 77.114 146.402 77.0049 146.243C76.8959 146.083 76.8413 145.883 76.8413 145.643V141.709ZM82.006 144.285V146.653H81.2296V141.335H81.9956V143.314H82.045C82.1384 143.099 82.2813 142.928 82.4734 142.802C82.6656 142.676 82.9166 142.612 83.2264 142.612C83.4999 142.612 83.7388 142.669 83.9431 142.781C84.1491 142.894 84.3084 143.062 84.4209 143.285C84.5351 143.507 84.5923 143.784 84.5923 144.116V146.653H83.8159V144.209C83.8159 143.917 83.7406 143.69 83.59 143.529C83.4394 143.366 83.2299 143.285 82.9616 143.285C82.7781 143.285 82.6136 143.324 82.4682 143.402C82.3245 143.48 82.2112 143.594 82.1281 143.745C82.0467 143.893 82.006 144.074 82.006 144.285ZM87.3473 146.733C86.9543 146.733 86.6159 146.649 86.332 146.481C86.0498 146.312 85.8317 146.074 85.6776 145.767C85.5253 145.459 85.4491 145.098 85.4491 144.685C85.4491 144.276 85.5253 143.916 85.6776 143.604C85.8317 143.293 86.0464 143.05 86.3216 142.875C86.5986 142.7 86.9223 142.612 87.2928 142.612C87.5178 142.612 87.7359 142.65 87.9471 142.724C88.1583 142.799 88.3478 142.915 88.5158 143.075C88.6837 143.234 88.8161 143.441 88.913 143.695C89.01 143.948 89.0585 144.255 89.0585 144.617V144.892H85.888V144.311H88.2976C88.2976 144.106 88.2561 143.926 88.173 143.768C88.0899 143.609 87.9731 143.483 87.8225 143.391C87.6736 143.3 87.4988 143.254 87.2979 143.254C87.0798 143.254 86.8894 143.308 86.7267 143.415C86.5657 143.52 86.4411 143.659 86.3528 143.83C86.2662 144 86.2229 144.184 86.2229 144.383V144.838C86.2229 145.104 86.2697 145.331 86.3632 145.518C86.4584 145.705 86.5908 145.848 86.7604 145.947C86.9301 146.043 87.1283 146.092 87.3551 146.092C87.5022 146.092 87.6364 146.071 87.7575 146.03C87.8787 145.986 87.9835 145.922 88.0717 145.837C88.16 145.753 88.2275 145.648 88.2743 145.523L89.0091 145.656C88.9503 145.872 88.8447 146.062 88.6923 146.224C88.5417 146.385 88.3522 146.511 88.1237 146.601C87.8969 146.689 87.6381 146.733 87.3473 146.733ZM89.9199 146.653V142.664H90.6703V143.298H90.7119C90.7846 143.083 90.9127 142.915 91.0962 142.792C91.2814 142.667 91.4908 142.605 91.7245 142.605C91.773 142.605 91.8301 142.606 91.8959 142.61C91.9634 142.613 92.0162 142.618 92.0543 142.623V143.366C92.0232 143.357 91.9678 143.347 91.8881 143.337C91.8085 143.325 91.7289 143.319 91.6492 143.319C91.4657 143.319 91.3022 143.358 91.1585 143.436C91.0165 143.512 90.904 143.618 90.8209 143.755C90.7378 143.89 90.6963 144.044 90.6963 144.217V146.653H89.9199ZM94.3023 146.733C93.9094 146.733 93.571 146.649 93.2871 146.481C93.0049 146.312 92.7868 146.074 92.6327 145.767C92.4804 145.459 92.4042 145.098 92.4042 144.685C92.4042 144.276 92.4804 143.916 92.6327 143.604C92.7868 143.293 93.0014 143.05 93.2767 142.875C93.5537 142.7 93.8774 142.612 94.2478 142.612C94.4729 142.612 94.691 142.65 94.9022 142.724C95.1134 142.799 95.3029 142.915 95.4708 143.075C95.6387 143.234 95.7712 143.441 95.8681 143.695C95.9651 143.948 96.0135 144.255 96.0135 144.617V144.892H92.843V144.311H95.2527C95.2527 144.106 95.2112 143.926 95.1281 143.768C95.045 143.609 94.9281 143.483 94.7775 143.391C94.6287 143.3 94.4538 143.254 94.253 143.254C94.0349 143.254 93.8445 143.308 93.6818 143.415C93.5208 143.52 93.3961 143.659 93.3078 143.83C93.2213 144 93.178 144.184 93.178 144.383V144.838C93.178 145.104 93.2247 145.331 93.3182 145.518C93.4134 145.705 93.5459 145.848 93.7155 145.947C93.8852 146.043 94.0834 146.092 94.3101 146.092C94.4573 146.092 94.5914 146.071 94.7126 146.03C94.8338 145.986 94.9385 145.922 95.0268 145.837C95.1151 145.753 95.1826 145.648 95.2293 145.523L95.9642 145.656C95.9053 145.872 95.7997 146.062 95.6474 146.224C95.4968 146.385 95.3072 146.511 95.0787 146.601C94.852 146.689 94.5932 146.733 94.3023 146.733Z" fill="#101940"/>
<path d="M29.5092 177.58C29.5092 176.57 30.3276 175.752 31.3372 175.752H39.6939C40.7035 175.752 41.5219 176.57 41.5219 177.58V185.936C41.5219 186.946 40.7035 187.764 39.6939 187.764H31.3372C30.3276 187.764 29.5092 186.946 29.5092 185.936V177.58Z" fill="#3366FF"/>
<path d="M29.5092 177.58C29.5092 176.57 30.3276 175.752 31.3372 175.752H39.6939C40.7035 175.752 41.5219 176.57 41.5219 177.58V185.936C41.5219 186.946 40.7035 187.764 39.6939 187.764H31.3372C30.3276 187.764 29.5092 186.946 29.5092 185.936V177.58Z" stroke="#3366FF" stroke-width="0.522293"/>
<rect x="30.8145" y="180.191" width="9.40127" height="3.13376" rx="1.56688" fill="white"/>
<path d="M46.2829 179.631V178.94H50.3986V179.631H48.7393V184.258H47.9396V179.631H46.2829ZM51.2795 185.754C51.1635 185.754 51.0579 185.744 50.9627 185.725C50.8675 185.708 50.7965 185.689 50.7498 185.668L50.9367 185.032C51.0787 185.07 51.205 185.086 51.3158 185.081C51.4266 185.076 51.5244 185.034 51.6093 184.957C51.6958 184.879 51.772 184.751 51.8378 184.575L51.9338 184.31L50.4745 180.27H51.3054L52.3155 183.365H52.3571L53.3672 180.27H54.2007L52.557 184.79C52.4809 184.998 52.3839 185.174 52.2662 185.317C52.1485 185.463 52.0083 185.572 51.8455 185.645C51.6828 185.717 51.4941 185.754 51.2795 185.754ZM54.9303 185.754V180.27H55.6886V180.916H55.7535C55.7985 180.833 55.8634 180.737 55.9482 180.628C56.033 180.519 56.1508 180.424 56.3014 180.342C56.452 180.259 56.651 180.218 56.8986 180.218C57.2206 180.218 57.5079 180.299 57.7607 180.462C58.0134 180.625 58.2116 180.859 58.3553 181.165C58.5007 181.472 58.5734 181.841 58.5734 182.272C58.5734 182.703 58.5016 183.072 58.3579 183.38C58.2142 183.687 58.0169 183.923 57.7659 184.089C57.5148 184.254 57.2284 184.336 56.9064 184.336C56.664 184.336 56.4658 184.295 56.3117 184.214C56.1594 184.133 56.04 184.037 55.9534 183.928C55.8669 183.819 55.8002 183.722 55.7535 183.637H55.7067V185.754H54.9303ZM55.6911 182.264C55.6911 182.544 55.7318 182.79 55.8132 183.001C55.8946 183.212 56.0123 183.378 56.1663 183.497C56.3204 183.615 56.5091 183.674 56.7324 183.674C56.9644 183.674 57.1582 183.612 57.314 183.489C57.4698 183.365 57.5876 183.196 57.6672 182.983C57.7485 182.77 57.7892 182.53 57.7892 182.264C57.7892 182.001 57.7494 181.764 57.6698 181.555C57.5919 181.346 57.4742 181.18 57.3166 181.059C57.1608 180.938 56.9661 180.877 56.7324 180.877C56.5074 180.877 56.3169 180.935 56.1611 181.051C56.0071 181.167 55.8902 181.329 55.8106 181.537C55.731 181.745 55.6911 181.987 55.6911 182.264ZM61.1622 184.339C60.7693 184.339 60.4309 184.255 60.147 184.087C59.8648 183.917 59.6467 183.679 59.4926 183.373C59.3403 183.064 59.2641 182.704 59.2641 182.29C59.2641 181.881 59.3403 181.521 59.4926 181.21C59.6467 180.898 59.8613 180.655 60.1366 180.48C60.4135 180.305 60.7373 180.218 61.1077 180.218C61.3328 180.218 61.5509 180.255 61.7621 180.329C61.9733 180.404 62.1628 180.521 62.3307 180.68C62.4986 180.839 62.6311 181.046 62.728 181.3C62.8249 181.553 62.8734 181.861 62.8734 182.222V182.498H59.7029V181.916H62.1126C62.1126 181.712 62.0711 181.531 61.988 181.373C61.9049 181.214 61.788 181.088 61.6374 180.997C61.4886 180.905 61.3137 180.859 61.1129 180.859C60.8948 180.859 60.7044 180.913 60.5416 181.02C60.3807 181.126 60.256 181.264 60.1677 181.436C60.0812 181.605 60.0379 181.79 60.0379 181.989V182.443C60.0379 182.71 60.0846 182.936 60.1781 183.123C60.2733 183.31 60.4058 183.453 60.5754 183.552C60.7451 183.649 60.9433 183.697 61.17 183.697C61.3172 183.697 61.4513 183.676 61.5725 183.635C61.6937 183.592 61.7984 183.528 61.8867 183.443C61.975 183.358 62.0425 183.253 62.0892 183.129L62.8241 183.261C62.7652 183.477 62.6596 183.667 62.5073 183.83C62.3567 183.991 62.1671 184.116 61.9386 184.206C61.7119 184.294 61.4531 184.339 61.1622 184.339ZM67.5318 180.27V180.893H65.3532V180.27H67.5318ZM65.9374 179.314H66.7138V183.087C66.7138 183.238 66.7363 183.351 66.7813 183.427C66.8264 183.502 66.8843 183.553 66.9553 183.58C67.028 183.606 67.1068 183.619 67.1916 183.619C67.2539 183.619 67.3085 183.615 67.3552 183.606C67.4019 183.598 67.4383 183.591 67.4643 183.586L67.6045 184.227C67.5595 184.244 67.4954 184.262 67.4123 184.279C67.3292 184.298 67.2254 184.308 67.1007 184.31C66.8965 184.313 66.706 184.277 66.5295 184.201C66.3529 184.125 66.2101 184.007 66.101 183.848C65.992 183.689 65.9374 183.489 65.9374 183.248V179.314ZM70.0667 184.339C69.6738 184.339 69.3353 184.255 69.0514 184.087C68.7693 183.917 68.5512 183.679 68.3971 183.373C68.2448 183.064 68.1686 182.704 68.1686 182.29C68.1686 181.881 68.2448 181.521 68.3971 181.21C68.5512 180.898 68.7658 180.655 69.0411 180.48C69.318 180.305 69.6417 180.218 70.0122 180.218C70.2372 180.218 70.4554 180.255 70.6665 180.329C70.8777 180.404 71.0673 180.521 71.2352 180.68C71.4031 180.839 71.5356 181.046 71.6325 181.3C71.7294 181.553 71.7779 181.861 71.7779 182.222V182.498H68.6074V181.916H71.0171C71.0171 181.712 70.9755 181.531 70.8925 181.373C70.8094 181.214 70.6925 181.088 70.5419 180.997C70.393 180.905 70.2182 180.859 70.0174 180.859C69.7993 180.859 69.6089 180.913 69.4461 181.02C69.2851 181.126 69.1605 181.264 69.0722 181.436C68.9857 181.605 68.9424 181.79 68.9424 181.989V182.443C68.9424 182.71 68.9891 182.936 69.0826 183.123C69.1778 183.31 69.3102 183.453 69.4799 183.552C69.6495 183.649 69.8477 183.697 70.0745 183.697C70.2217 183.697 70.3558 183.676 70.477 183.635C70.5982 183.592 70.7029 183.528 70.7912 183.443C70.8795 183.358 70.947 183.253 70.9937 183.129L71.7286 183.261C71.6697 183.477 71.5641 183.667 71.4118 183.83C71.2612 183.991 71.0716 184.116 70.8431 184.206C70.6163 184.294 70.3575 184.339 70.0667 184.339ZM73.1593 180.27L74.0396 181.822L74.9276 180.27H75.7767L74.5329 182.264L75.7871 184.258H74.938L74.0396 182.768L73.1437 184.258H72.292L73.5332 182.264L72.3076 180.27H73.1593ZM78.4357 180.27V180.893H76.2571V180.27H78.4357ZM76.8413 179.314H77.6177V183.087C77.6177 183.238 77.6402 183.351 77.6852 183.427C77.7302 183.502 77.7882 183.553 77.8592 183.58C77.9319 183.606 78.0107 183.619 78.0955 183.619C78.1578 183.619 78.2123 183.615 78.2591 183.606C78.3058 183.598 78.3422 183.591 78.3681 183.586L78.5084 184.227C78.4634 184.244 78.3993 184.262 78.3162 184.279C78.2331 184.298 78.1293 184.308 78.0046 184.31C77.8003 184.313 77.6099 184.277 77.4334 184.201C77.2568 184.125 77.114 184.007 77.0049 183.848C76.8959 183.689 76.8413 183.489 76.8413 183.248V179.314ZM82.006 181.89V184.258H81.2296V178.94H81.9956V180.919H82.045C82.1384 180.704 82.2813 180.534 82.4734 180.407C82.6656 180.281 82.9166 180.218 83.2264 180.218C83.4999 180.218 83.7388 180.274 83.9431 180.386C84.1491 180.499 84.3084 180.667 84.4209 180.89C84.5351 181.112 84.5923 181.389 84.5923 181.721V184.258H83.8159V181.815C83.8159 181.522 83.7406 181.295 83.59 181.134C83.4394 180.972 83.2299 180.89 82.9616 180.89C82.7781 180.89 82.6136 180.929 82.4682 181.007C82.3245 181.085 82.2112 181.199 82.1281 181.35C82.0467 181.499 82.006 181.679 82.006 181.89ZM87.3473 184.339C86.9543 184.339 86.6159 184.255 86.332 184.087C86.0498 183.917 85.8317 183.679 85.6776 183.373C85.5253 183.064 85.4491 182.704 85.4491 182.29C85.4491 181.881 85.5253 181.521 85.6776 181.21C85.8317 180.898 86.0464 180.655 86.3216 180.48C86.5986 180.305 86.9223 180.218 87.2928 180.218C87.5178 180.218 87.7359 180.255 87.9471 180.329C88.1583 180.404 88.3478 180.521 88.5158 180.68C88.6837 180.839 88.8161 181.046 88.913 181.3C89.01 181.553 89.0585 181.861 89.0585 182.222V182.498H85.888V181.916H88.2976C88.2976 181.712 88.2561 181.531 88.173 181.373C88.0899 181.214 87.9731 181.088 87.8225 180.997C87.6736 180.905 87.4988 180.859 87.2979 180.859C87.0798 180.859 86.8894 180.913 86.7267 181.02C86.5657 181.126 86.4411 181.264 86.3528 181.436C86.2662 181.605 86.2229 181.79 86.2229 181.989V182.443C86.2229 182.71 86.2697 182.936 86.3632 183.123C86.4584 183.31 86.5908 183.453 86.7604 183.552C86.9301 183.649 87.1283 183.697 87.3551 183.697C87.5022 183.697 87.6364 183.676 87.7575 183.635C87.8787 183.592 87.9835 183.528 88.0717 183.443C88.16 183.358 88.2275 183.253 88.2743 183.129L89.0091 183.261C88.9503 183.477 88.8447 183.667 88.6923 183.83C88.5417 183.991 88.3522 184.116 88.1237 184.206C87.8969 184.294 87.6381 184.339 87.3473 184.339ZM89.9199 184.258V180.27H90.6703V180.903H90.7119C90.7846 180.689 90.9127 180.52 91.0962 180.397C91.2814 180.272 91.4908 180.21 91.7245 180.21C91.773 180.21 91.8301 180.212 91.8959 180.215C91.9634 180.219 92.0162 180.223 92.0543 180.228V180.971C92.0232 180.962 91.9678 180.953 91.8881 180.942C91.8085 180.93 91.7289 180.924 91.6492 180.924C91.4657 180.924 91.3022 180.963 91.1585 181.041C91.0165 181.117 90.904 181.223 90.8209 181.36C90.7378 181.495 90.6963 181.649 90.6963 181.822V184.258H89.9199ZM94.3023 184.339C93.9094 184.339 93.571 184.255 93.2871 184.087C93.0049 183.917 92.7868 183.679 92.6327 183.373C92.4804 183.064 92.4042 182.704 92.4042 182.29C92.4042 181.881 92.4804 181.521 92.6327 181.21C92.7868 180.898 93.0014 180.655 93.2767 180.48C93.5537 180.305 93.8774 180.218 94.2478 180.218C94.4729 180.218 94.691 180.255 94.9022 180.329C95.1134 180.404 95.3029 180.521 95.4708 180.68C95.6387 180.839 95.7712 181.046 95.8681 181.3C95.9651 181.553 96.0135 181.861 96.0135 182.222V182.498H92.843V181.916H95.2527C95.2527 181.712 95.2112 181.531 95.1281 181.373C95.045 181.214 94.9281 181.088 94.7775 180.997C94.6287 180.905 94.4538 180.859 94.253 180.859C94.0349 180.859 93.8445 180.913 93.6818 181.02C93.5208 181.126 93.3961 181.264 93.3078 181.436C93.2213 181.605 93.178 181.79 93.178 181.989V182.443C93.178 182.71 93.2247 182.936 93.3182 183.123C93.4134 183.31 93.5459 183.453 93.7155 183.552C93.8852 183.649 94.0834 183.697 94.3101 183.697C94.4573 183.697 94.5914 183.676 94.7126 183.635C94.8338 183.592 94.9385 183.528 95.0268 183.443C95.1151 183.358 95.1826 183.253 95.2293 183.129L95.9642 183.261C95.9053 183.477 95.7997 183.667 95.6474 183.83C95.4968 183.991 95.3072 184.116 95.0787 184.206C94.852 184.294 94.5932 184.339 94.3023 184.339Z" fill="#101940"/>
<rect width="130.573" height="29.2484" transform="translate(16.7129 204.739)" fill="#EFF7FF"/>
<path d="M29.5092 215.185C29.5092 214.175 30.3276 213.357 31.3372 213.357H39.6939C40.7035 213.357 41.5219 214.175 41.5219 215.185V223.541C41.5219 224.551 40.7035 225.369 39.6939 225.369H31.3372C30.3276 225.369 29.5092 224.551 29.5092 223.541V215.185Z" fill="#3366FF"/>
<path d="M29.5092 215.185C29.5092 214.175 30.3276 213.357 31.3372 213.357H39.6939C40.7035 213.357 41.5219 214.175 41.5219 215.185V223.541C41.5219 224.551 40.7035 225.369 39.6939 225.369H31.3372C30.3276 225.369 29.5092 224.551 29.5092 223.541V215.185Z" stroke="#3366FF" stroke-width="0.522293"/>
<rect x="30.8145" y="217.796" width="9.40127" height="3.13376" rx="1.56688" fill="white"/>
<path d="M46.2829 217.236V216.545H50.3986V217.236H48.7393V221.863H47.9396V217.236H46.2829ZM51.2795 223.359C51.1635 223.359 51.0579 223.349 50.9627 223.33C50.8675 223.313 50.7965 223.294 50.7498 223.273L50.9367 222.637C51.0787 222.675 51.205 222.691 51.3158 222.686C51.4266 222.681 51.5244 222.639 51.6093 222.562C51.6958 222.484 51.772 222.356 51.8378 222.18L51.9338 221.915L50.4745 217.875H51.3054L52.3155 220.97H52.3571L53.3672 217.875H54.2007L52.557 222.395C52.4809 222.603 52.3839 222.779 52.2662 222.922C52.1485 223.068 52.0083 223.177 51.8455 223.25C51.6828 223.322 51.4941 223.359 51.2795 223.359ZM54.9303 223.359V217.875H55.6886V218.521H55.7535C55.7985 218.438 55.8634 218.342 55.9482 218.233C56.033 218.124 56.1508 218.029 56.3014 217.947C56.452 217.864 56.651 217.823 56.8986 217.823C57.2206 217.823 57.5079 217.904 57.7607 218.067C58.0134 218.229 58.2116 218.464 58.3553 218.77C58.5007 219.077 58.5734 219.446 58.5734 219.877C58.5734 220.308 58.5016 220.677 58.3579 220.985C58.2142 221.292 58.0169 221.528 57.7659 221.694C57.5148 221.859 57.2284 221.941 56.9064 221.941C56.664 221.941 56.4658 221.9 56.3117 221.819C56.1594 221.738 56.04 221.642 55.9534 221.533C55.8669 221.424 55.8002 221.327 55.7535 221.242H55.7067V223.359H54.9303ZM55.6911 219.869C55.6911 220.149 55.7318 220.395 55.8132 220.606C55.8946 220.817 56.0123 220.983 56.1663 221.102C56.3204 221.22 56.5091 221.279 56.7324 221.279C56.9644 221.279 57.1582 221.217 57.314 221.094C57.4698 220.97 57.5876 220.801 57.6672 220.588C57.7485 220.375 57.7892 220.135 57.7892 219.869C57.7892 219.606 57.7494 219.369 57.6698 219.16C57.5919 218.95 57.4742 218.785 57.3166 218.664C57.1608 218.543 56.9661 218.482 56.7324 218.482C56.5074 218.482 56.3169 218.54 56.1611 218.656C56.0071 218.772 55.8902 218.934 55.8106 219.142C55.731 219.35 55.6911 219.592 55.6911 219.869ZM61.1622 221.944C60.7693 221.944 60.4309 221.86 60.147 221.692C59.8648 221.522 59.6467 221.284 59.4926 220.978C59.3403 220.669 59.2641 220.309 59.2641 219.895C59.2641 219.486 59.3403 219.126 59.4926 218.815C59.6467 218.503 59.8613 218.26 60.1366 218.085C60.4135 217.91 60.7373 217.823 61.1077 217.823C61.3328 217.823 61.5509 217.86 61.7621 217.934C61.9733 218.009 62.1628 218.126 62.3307 218.285C62.4986 218.444 62.6311 218.651 62.728 218.905C62.8249 219.158 62.8734 219.465 62.8734 219.827V220.103H59.7029V219.521H62.1126C62.1126 219.317 62.0711 219.136 61.988 218.978C61.9049 218.819 61.788 218.693 61.6374 218.602C61.4886 218.51 61.3137 218.464 61.1129 218.464C60.8948 218.464 60.7044 218.518 60.5416 218.625C60.3807 218.731 60.256 218.869 60.1677 219.041C60.0812 219.21 60.0379 219.395 60.0379 219.594V220.048C60.0379 220.315 60.0846 220.541 60.1781 220.728C60.2733 220.915 60.4058 221.058 60.5754 221.157C60.7451 221.254 60.9433 221.302 61.17 221.302C61.3172 221.302 61.4513 221.281 61.5725 221.24C61.6937 221.197 61.7984 221.133 61.8867 221.048C61.975 220.963 62.0425 220.858 62.0892 220.734L62.8241 220.866C62.7652 221.082 62.6596 221.272 62.5073 221.435C62.3567 221.596 62.1671 221.721 61.9386 221.811C61.7119 221.899 61.4531 221.944 61.1622 221.944ZM67.5318 217.875V218.498H65.3532V217.875H67.5318ZM65.9374 216.919H66.7138V220.692C66.7138 220.843 66.7363 220.956 66.7813 221.032C66.8264 221.107 66.8843 221.158 66.9553 221.185C67.028 221.211 67.1068 221.224 67.1916 221.224C67.2539 221.224 67.3085 221.22 67.3552 221.211C67.4019 221.203 67.4383 221.196 67.4643 221.191L67.6045 221.832C67.5595 221.849 67.4954 221.866 67.4123 221.884C67.3292 221.903 67.2254 221.913 67.1007 221.915C66.8965 221.918 66.706 221.882 66.5295 221.806C66.3529 221.73 66.2101 221.612 66.101 221.453C65.992 221.294 65.9374 221.094 65.9374 220.853V216.919ZM70.0667 221.944C69.6738 221.944 69.3353 221.86 69.0514 221.692C68.7693 221.522 68.5512 221.284 68.3971 220.978C68.2448 220.669 68.1686 220.309 68.1686 219.895C68.1686 219.486 68.2448 219.126 68.3971 218.815C68.5512 218.503 68.7658 218.26 69.0411 218.085C69.318 217.91 69.6417 217.823 70.0122 217.823C70.2372 217.823 70.4554 217.86 70.6665 217.934C70.8777 218.009 71.0673 218.126 71.2352 218.285C71.4031 218.444 71.5356 218.651 71.6325 218.905C71.7294 219.158 71.7779 219.465 71.7779 219.827V220.103H68.6074V219.521H71.0171C71.0171 219.317 70.9755 219.136 70.8925 218.978C70.8094 218.819 70.6925 218.693 70.5419 218.602C70.393 218.51 70.2182 218.464 70.0174 218.464C69.7993 218.464 69.6089 218.518 69.4461 218.625C69.2851 218.731 69.1605 218.869 69.0722 219.041C68.9857 219.21 68.9424 219.395 68.9424 219.594V220.048C68.9424 220.315 68.9891 220.541 69.0826 220.728C69.1778 220.915 69.3102 221.058 69.4799 221.157C69.6495 221.254 69.8477 221.302 70.0745 221.302C70.2217 221.302 70.3558 221.281 70.477 221.24C70.5982 221.197 70.7029 221.133 70.7912 221.048C70.8795 220.963 70.947 220.858 70.9937 220.734L71.7286 220.866C71.6697 221.082 71.5641 221.272 71.4118 221.435C71.2612 221.596 71.0716 221.721 70.8431 221.811C70.6163 221.899 70.3575 221.944 70.0667 221.944ZM73.1593 217.875L74.0396 219.427L74.9276 217.875H75.7767L74.5329 219.869L75.7871 221.863H74.938L74.0396 220.373L73.1437 221.863H72.292L73.5332 219.869L72.3076 217.875H73.1593ZM78.4357 217.875V218.498H76.2571V217.875H78.4357ZM76.8413 216.919H77.6177V220.692C77.6177 220.843 77.6402 220.956 77.6852 221.032C77.7302 221.107 77.7882 221.158 77.8592 221.185C77.9319 221.211 78.0107 221.224 78.0955 221.224C78.1578 221.224 78.2123 221.22 78.2591 221.211C78.3058 221.203 78.3422 221.196 78.3681 221.191L78.5084 221.832C78.4634 221.849 78.3993 221.866 78.3162 221.884C78.2331 221.903 78.1293 221.913 78.0046 221.915C77.8003 221.918 77.6099 221.882 77.4334 221.806C77.2568 221.73 77.114 221.612 77.0049 221.453C76.8959 221.294 76.8413 221.094 76.8413 220.853V216.919ZM82.006 219.495V221.863H81.2296V216.545H81.9956V218.524H82.045C82.1384 218.309 82.2813 218.139 82.4734 218.012C82.6656 217.886 82.9166 217.823 83.2264 217.823C83.4999 217.823 83.7388 217.879 83.9431 217.991C84.1491 218.104 84.3084 218.272 84.4209 218.495C84.5351 218.717 84.5923 218.994 84.5923 219.326V221.863H83.8159V219.42C83.8159 219.127 83.7406 218.9 83.59 218.739C83.4394 218.577 83.2299 218.495 82.9616 218.495C82.7781 218.495 82.6136 218.534 82.4682 218.612C82.3245 218.69 82.2112 218.804 82.1281 218.955C82.0467 219.104 82.006 219.284 82.006 219.495ZM87.3473 221.944C86.9543 221.944 86.6159 221.86 86.332 221.692C86.0498 221.522 85.8317 221.284 85.6776 220.978C85.5253 220.669 85.4491 220.309 85.4491 219.895C85.4491 219.486 85.5253 219.126 85.6776 218.815C85.8317 218.503 86.0464 218.26 86.3216 218.085C86.5986 217.91 86.9223 217.823 87.2928 217.823C87.5178 217.823 87.7359 217.86 87.9471 217.934C88.1583 218.009 88.3478 218.126 88.5158 218.285C88.6837 218.444 88.8161 218.651 88.913 218.905C89.01 219.158 89.0585 219.465 89.0585 219.827V220.103H85.888V219.521H88.2976C88.2976 219.317 88.2561 219.136 88.173 218.978C88.0899 218.819 87.9731 218.693 87.8225 218.602C87.6736 218.51 87.4988 218.464 87.2979 218.464C87.0798 218.464 86.8894 218.518 86.7267 218.625C86.5657 218.731 86.4411 218.869 86.3528 219.041C86.2662 219.21 86.2229 219.395 86.2229 219.594V220.048C86.2229 220.315 86.2697 220.541 86.3632 220.728C86.4584 220.915 86.5908 221.058 86.7604 221.157C86.9301 221.254 87.1283 221.302 87.3551 221.302C87.5022 221.302 87.6364 221.281 87.7575 221.24C87.8787 221.197 87.9835 221.133 88.0717 221.048C88.16 220.963 88.2275 220.858 88.2743 220.734L89.0091 220.866C88.9503 221.082 88.8447 221.272 88.6923 221.435C88.5417 221.596 88.3522 221.721 88.1237 221.811C87.8969 221.899 87.6381 221.944 87.3473 221.944ZM89.9199 221.863V217.875H90.6703V218.508H90.7119C90.7846 218.294 90.9127 218.125 91.0962 218.002C91.2814 217.877 91.4908 217.815 91.7245 217.815C91.773 217.815 91.8301 217.817 91.8959 217.82C91.9634 217.824 92.0162 217.828 92.0543 217.833V218.576C92.0232 218.567 91.9678 218.558 91.8881 218.547C91.8085 218.535 91.7289 218.529 91.6492 218.529C91.4657 218.529 91.3022 218.568 91.1585 218.646C91.0165 218.722 90.904 218.828 90.8209 218.965C90.7378 219.1 90.6963 219.254 90.6963 219.427V221.863H89.9199ZM94.3023 221.944C93.9094 221.944 93.571 221.86 93.2871 221.692C93.0049 221.522 92.7868 221.284 92.6327 220.978C92.4804 220.669 92.4042 220.309 92.4042 219.895C92.4042 219.486 92.4804 219.126 92.6327 218.815C92.7868 218.503 93.0014 218.26 93.2767 218.085C93.5537 217.91 93.8774 217.823 94.2478 217.823C94.4729 217.823 94.691 217.86 94.9022 217.934C95.1134 218.009 95.3029 218.126 95.4708 218.285C95.6387 218.444 95.7712 218.651 95.8681 218.905C95.9651 219.158 96.0135 219.465 96.0135 219.827V220.103H92.843V219.521H95.2527C95.2527 219.317 95.2112 219.136 95.1281 218.978C95.045 218.819 94.9281 218.693 94.7775 218.602C94.6287 218.51 94.4538 218.464 94.253 218.464C94.0349 218.464 93.8445 218.518 93.6818 218.625C93.5208 218.731 93.3961 218.869 93.3078 219.041C93.2213 219.21 93.178 219.395 93.178 219.594V220.048C93.178 220.315 93.2247 220.541 93.3182 220.728C93.4134 220.915 93.5459 221.058 93.7155 221.157C93.8852 221.254 94.0834 221.302 94.3101 221.302C94.4573 221.302 94.5914 221.281 94.7126 221.24C94.8338 221.197 94.9385 221.133 95.0268 221.048C95.1151 220.963 95.1826 220.858 95.2293 220.734L95.9642 220.866C95.9053 221.082 95.7997 221.272 95.6474 221.435C95.4968 221.596 95.3072 221.721 95.0787 221.811C94.852 221.899 94.5932 221.944 94.3023 221.944Z" fill="#101940"/>
<path d="M29.5092 252.79C29.5092 251.781 30.3276 250.962 31.3372 250.962H39.6939C40.7035 250.962 41.5219 251.781 41.5219 252.79V261.147C41.5219 262.156 40.7035 262.975 39.6939 262.975H31.3372C30.3276 262.975 29.5092 262.156 29.5092 261.147V252.79Z" fill="white"/>
<path d="M29.5092 252.79C29.5092 251.781 30.3276 250.962 31.3372 250.962H39.6939C40.7035 250.962 41.5219 251.781 41.5219 252.79V261.147C41.5219 262.156 40.7035 262.975 39.6939 262.975H31.3372C30.3276 262.975 29.5092 262.156 29.5092 261.147V252.79Z" stroke="black" stroke-width="0.522293"/>
</svg>
