<svg width="201" height="280" viewBox="0 0 201 280" fill="none" xmlns="http://www.w3.org/2000/svg">
<g filter="url(#filter0_dd_1148_15397)">
<path d="M24 24C24 19.5817 27.5817 16 32 16H169C173.418 16 177 19.5817 177 24V344C177 348.418 173.418 352 169 352H32C27.5817 352 24 348.418 24 344V24Z" fill="white" shape-rendering="crispEdges"/>
<path d="M47.3327 48.6667C47.3327 49.0334 47.6327 49.3067 47.9993 49.3067C48.366 49.3067 48.666 48.9801 48.666 48.6134C48.666 48.2467 48.366 47.9467 47.9993 47.9467C47.6327 47.9467 47.3327 48.2467 47.3327 48.6134V48.6667Z" fill="#101940"/>
<path d="M52.286 47.2334C52.4193 47.3601 52.586 47.4267 52.7593 47.4267C52.9327 47.4267 53.0993 47.3601 53.226 47.2334C53.486 46.9734 53.486 46.5534 53.226 46.2934L53.1393 46.2067C52.8793 45.9467 52.4593 45.9467 52.1993 46.2067C51.9393 46.4667 51.9393 46.8867 52.1993 47.1467L52.286 47.2334Z" fill="#101940"/>
<path d="M42.766 47.2334C42.8993 47.3601 43.066 47.4267 43.2393 47.4267C43.406 47.4267 43.5793 47.3601 43.706 47.2334L43.7927 47.1467C44.0527 46.8867 44.0527 46.4667 43.7927 46.2067C43.5327 45.9467 43.1127 45.9467 42.8527 46.2067L42.766 46.2934C42.506 46.5534 42.506 46.9734 42.766 47.2334Z" fill="#101940"/>
<path d="M54.6127 42.6667H54.666C55.0327 42.6667 55.306 42.3667 55.306 42.0001C55.306 41.6334 54.9793 41.3334 54.6127 41.3334C54.246 41.3334 53.946 41.6334 53.946 42.0001C53.946 42.3667 54.246 42.6667 54.6127 42.6667Z" fill="#101940"/>
<path d="M41.3327 42.6667H41.386C41.7527 42.6667 42.026 42.3667 42.026 42.0001C42.026 41.6334 41.6993 41.3334 41.3327 41.3334C40.966 41.3334 40.666 41.6334 40.666 42.0001C40.666 42.3667 40.966 42.6667 41.3327 42.6667Z" fill="#101940"/>
<path d="M52.1993 37.8001C52.3327 37.9267 52.4993 37.9934 52.6727 37.9934C52.846 37.9934 53.0127 37.9267 53.1393 37.8001L53.226 37.7134C53.486 37.4534 53.486 37.0334 53.226 36.7734C52.966 36.5134 52.546 36.5134 52.286 36.7734L52.1993 36.8601C51.9393 37.1201 51.9393 37.5401 52.1993 37.8001Z" fill="#101940"/>
<path d="M42.8527 37.8001C42.986 37.9267 43.1527 37.9934 43.326 37.9934C43.4927 37.9934 43.666 37.9267 43.7927 37.7934C44.0527 37.5334 44.0527 37.1134 43.7927 36.8534L43.706 36.7667C43.446 36.5067 43.026 36.5067 42.766 36.7667C42.506 37.0267 42.506 37.4467 42.766 37.7067L42.8527 37.8001Z" fill="#101940"/>
<path d="M47.3327 35.3867C47.3327 35.7534 47.6327 36.0267 47.9993 36.0267C48.366 36.0267 48.666 35.7001 48.666 35.3334C48.666 34.9667 48.366 34.6667 47.9993 34.6667C47.6327 34.6667 47.3327 34.9667 47.3327 35.3334V35.3867Z" fill="#101940"/>
<path d="M52.666 42.0001C52.666 44.5774 50.5767 46.6667 47.9993 46.6667C45.422 46.6667 43.3327 44.5774 43.3327 42.0001C43.3327 39.4228 45.422 37.3334 47.9993 37.3334C50.5767 37.3334 52.666 39.4228 52.666 42.0001Z" fill="#101940"/>
<path d="M64.6165 38.1406V36.8182H72.4964V38.1406H69.3196V47H67.7884V38.1406H64.6165ZM74.1831 49.8636C73.961 49.8636 73.7588 49.8454 73.5765 49.8089C73.3942 49.7758 73.2583 49.7393 73.1689 49.6996L73.5268 48.4815C73.7986 48.5545 74.0405 48.5859 74.2527 48.576C74.4648 48.5661 74.652 48.4865 74.8145 48.3374C74.9802 48.1882 75.126 47.9446 75.252 47.6065L75.4359 47.0994L72.6419 39.3636H74.2328L76.1667 45.2898H76.2463L78.1802 39.3636H79.7761L76.6291 48.0192C76.4833 48.4169 76.2976 48.7533 76.0723 49.0284C75.8469 49.3068 75.5784 49.5156 75.2669 49.6548C74.9553 49.794 74.594 49.8636 74.1831 49.8636ZM81.1731 49.8636V39.3636H82.6248V40.6016H82.7491C82.8353 40.4425 82.9596 40.2585 83.122 40.0497C83.2844 39.8409 83.5098 39.6586 83.7981 39.5028C84.0865 39.3438 84.4676 39.2642 84.9416 39.2642C85.5581 39.2642 86.1083 39.42 86.5922 39.7315C87.0761 40.0431 87.4556 40.4922 87.7306 41.0788C88.0091 41.6655 88.1483 42.3714 88.1483 43.1967C88.1483 44.022 88.0107 44.7296 87.7356 45.3196C87.4605 45.9062 87.0827 46.3587 86.6021 46.6768C86.1215 46.9917 85.573 47.1491 84.9565 47.1491C84.4925 47.1491 84.113 47.0713 83.818 46.9155C83.5263 46.7597 83.2976 46.5774 83.1319 46.3686C82.9662 46.1598 82.8386 45.9742 82.7491 45.8118H82.6596V49.8636H81.1731ZM82.6298 43.1818C82.6298 43.7187 82.7077 44.1894 82.8635 44.5938C83.0192 44.9981 83.2446 45.3146 83.5396 45.5433C83.8346 45.7687 84.1958 45.8814 84.6234 45.8814C85.0675 45.8814 85.4387 45.7637 85.737 45.5284C86.0353 45.2898 86.2607 44.9666 86.4132 44.5589C86.569 44.1513 86.6468 43.6922 86.6468 43.1818C86.6468 42.678 86.5706 42.2256 86.4181 41.8246C86.269 41.4235 86.0436 41.107 85.742 40.875C85.4437 40.643 85.0708 40.527 84.6234 40.527C84.1925 40.527 83.8279 40.638 83.5297 40.8601C83.2347 41.0821 83.0109 41.392 82.8585 41.7898C82.706 42.1875 82.6298 42.6515 82.6298 43.1818ZM93.1049 47.1541C92.3526 47.1541 91.7046 46.9934 91.161 46.6719C90.6208 46.3471 90.2032 45.8913 89.9082 45.3047C89.6165 44.7147 89.4707 44.0237 89.4707 43.2315C89.4707 42.4493 89.6165 41.7599 89.9082 41.1634C90.2032 40.5668 90.6142 40.1011 91.1412 39.7663C91.6715 39.4316 92.2913 39.2642 93.0005 39.2642C93.4314 39.2642 93.849 39.3355 94.2534 39.478C94.6577 39.6205 95.0207 39.8442 95.3422 40.1491C95.6636 40.4541 95.9172 40.8501 96.1028 41.3374C96.2884 41.8213 96.3812 42.4096 96.3812 43.1023V43.6293H90.3109V42.5156H94.9245C94.9245 42.1245 94.845 41.7782 94.6859 41.4766C94.5268 41.1716 94.3031 40.9313 94.0147 40.7557C93.7297 40.58 93.3949 40.4922 93.0105 40.4922C92.5929 40.4922 92.2283 40.5949 91.9167 40.8004C91.6085 41.0026 91.3699 41.2678 91.2008 41.5959C91.0351 41.9207 90.9522 42.2737 90.9522 42.6548V43.5249C90.9522 44.0353 91.0417 44.4695 91.2207 44.8274C91.403 45.1854 91.6565 45.4588 91.9814 45.6477C92.3062 45.8333 92.6857 45.9261 93.1199 45.9261C93.4016 45.9261 93.6584 45.8864 93.8904 45.8068C94.1225 45.724 94.323 45.6013 94.492 45.4389C94.661 45.2765 94.7903 45.076 94.8798 44.8374L96.2868 45.0909C96.1741 45.5052 95.9719 45.8681 95.6802 46.1797C95.3919 46.4879 95.0289 46.7282 94.5914 46.9006C94.1573 47.0696 93.6618 47.1541 93.1049 47.1541ZM105.3 39.3636V40.5568H101.129V39.3636H105.3ZM102.248 37.5341H103.734V44.7578C103.734 45.0462 103.777 45.2633 103.863 45.4091C103.95 45.5516 104.061 45.6494 104.197 45.7024C104.336 45.7521 104.487 45.777 104.649 45.777C104.768 45.777 104.873 45.7687 104.962 45.7521C105.052 45.7356 105.121 45.7223 105.171 45.7124L105.439 46.9403C105.353 46.9735 105.231 47.0066 105.072 47.0398C104.912 47.0762 104.714 47.0961 104.475 47.0994C104.084 47.1061 103.719 47.0365 103.381 46.8906C103.043 46.7448 102.77 46.5194 102.561 46.2145C102.352 45.9096 102.248 45.5268 102.248 45.0661V37.5341ZM110.154 47.1541C109.401 47.1541 108.753 46.9934 108.21 46.6719C107.67 46.3471 107.252 45.8913 106.957 45.3047C106.665 44.7147 106.52 44.0237 106.52 43.2315C106.52 42.4493 106.665 41.7599 106.957 41.1634C107.252 40.5668 107.663 40.1011 108.19 39.7663C108.72 39.4316 109.34 39.2642 110.049 39.2642C110.48 39.2642 110.898 39.3355 111.302 39.478C111.707 39.6205 112.069 39.8442 112.391 40.1491C112.712 40.4541 112.966 40.8501 113.152 41.3374C113.337 41.8213 113.43 42.4096 113.43 43.1023V43.6293H107.36V42.5156H111.973C111.973 42.1245 111.894 41.7782 111.735 41.4766C111.576 41.1716 111.352 40.9313 111.064 40.7557C110.779 40.58 110.444 40.4922 110.059 40.4922C109.642 40.4922 109.277 40.5949 108.966 40.8004C108.657 41.0026 108.419 41.2678 108.25 41.5959C108.084 41.9207 108.001 42.2737 108.001 42.6548V43.5249C108.001 44.0353 108.091 44.4695 108.27 44.8274C108.452 45.1854 108.705 45.4588 109.03 45.6477C109.355 45.8333 109.734 45.9261 110.169 45.9261C110.45 45.9261 110.707 45.8864 110.939 45.8068C111.171 45.724 111.372 45.6013 111.541 45.4389C111.71 45.2765 111.839 45.076 111.929 44.8374L113.336 45.0909C113.223 45.5052 113.021 45.8681 112.729 46.1797C112.441 46.4879 112.078 46.7282 111.64 46.9006C111.206 47.0696 110.711 47.1541 110.154 47.1541ZM116.075 39.3636L117.76 42.3366L119.461 39.3636H121.086L118.705 43.1818L121.106 47H119.48L117.76 44.1463L116.045 47H114.414L116.791 43.1818L114.444 39.3636H116.075ZM126.177 39.3636V40.5568H122.006V39.3636H126.177ZM123.125 37.5341H124.611V44.7578C124.611 45.0462 124.654 45.2633 124.74 45.4091C124.827 45.5516 124.938 45.6494 125.074 45.7024C125.213 45.7521 125.364 45.777 125.526 45.777C125.645 45.777 125.75 45.7687 125.839 45.7521C125.929 45.7356 125.998 45.7223 126.048 45.7124L126.316 46.9403C126.23 46.9735 126.108 47.0066 125.949 47.0398C125.789 47.0762 125.591 47.0961 125.352 47.0994C124.961 47.1061 124.596 47.0365 124.258 46.8906C123.92 46.7448 123.647 46.5194 123.438 46.2145C123.229 45.9096 123.125 45.5268 123.125 45.0661V37.5341ZM133.013 42.4659V47H131.527V36.8182H132.993V40.6065H133.088C133.267 40.1955 133.54 39.8691 133.908 39.6271C134.276 39.3852 134.757 39.2642 135.35 39.2642C135.873 39.2642 136.331 39.3719 136.722 39.5874C137.116 39.8028 137.421 40.1243 137.637 40.5518C137.855 40.9761 137.965 41.5064 137.965 42.1428V47H136.478V42.3217C136.478 41.7616 136.334 41.3274 136.046 41.0192C135.757 40.7076 135.356 40.5518 134.843 40.5518C134.491 40.5518 134.176 40.6264 133.898 40.7756C133.623 40.9247 133.406 41.1435 133.247 41.4318C133.091 41.7169 133.013 42.0616 133.013 42.4659ZM143.24 47.1541C142.487 47.1541 141.839 46.9934 141.296 46.6719C140.756 46.3471 140.338 45.8913 140.043 45.3047C139.751 44.7147 139.605 44.0237 139.605 43.2315C139.605 42.4493 139.751 41.7599 140.043 41.1634C140.338 40.5668 140.749 40.1011 141.276 39.7663C141.806 39.4316 142.426 39.2642 143.135 39.2642C143.566 39.2642 143.984 39.3355 144.388 39.478C144.792 39.6205 145.155 39.8442 145.477 40.1491C145.798 40.4541 146.052 40.8501 146.238 41.3374C146.423 41.8213 146.516 42.4096 146.516 43.1023V43.6293H140.446V42.5156H145.059C145.059 42.1245 144.98 41.7782 144.821 41.4766C144.662 41.1716 144.438 40.9313 144.15 40.7557C143.864 40.58 143.53 40.4922 143.145 40.4922C142.728 40.4922 142.363 40.5949 142.051 40.8004C141.743 41.0026 141.505 41.2678 141.336 41.5959C141.17 41.9207 141.087 42.2737 141.087 42.6548V43.5249C141.087 44.0353 141.176 44.4695 141.355 44.8274C141.538 45.1854 141.791 45.4588 142.116 45.6477C142.441 45.8333 142.82 45.9261 143.255 45.9261C143.536 45.9261 143.793 45.8864 144.025 45.8068C144.257 45.724 144.458 45.6013 144.627 45.4389C144.796 45.2765 144.925 45.076 145.015 44.8374L146.422 45.0909C146.309 45.5052 146.107 45.8681 145.815 46.1797C145.527 46.4879 145.164 46.7282 144.726 46.9006C144.292 47.0696 143.797 47.1541 143.24 47.1541ZM148.165 47V39.3636H149.602V40.5767H149.682C149.821 40.1657 150.066 39.8426 150.417 39.6072C150.772 39.3686 151.173 39.2493 151.621 39.2493C151.713 39.2493 151.823 39.2526 151.949 39.2592C152.078 39.2659 152.179 39.2741 152.252 39.2841V40.706C152.192 40.6894 152.086 40.6712 151.934 40.6513C151.781 40.6281 151.629 40.6165 151.476 40.6165C151.125 40.6165 150.812 40.6911 150.537 40.8402C150.265 40.986 150.05 41.1899 149.89 41.4517C149.731 41.7102 149.652 42.0052 149.652 42.3366V47H148.165ZM156.556 47.1541C155.804 47.1541 155.156 46.9934 154.612 46.6719C154.072 46.3471 153.654 45.8913 153.359 45.3047C153.068 44.7147 152.922 44.0237 152.922 43.2315C152.922 42.4493 153.068 41.7599 153.359 41.1634C153.654 40.5668 154.065 40.1011 154.592 39.7663C155.123 39.4316 155.742 39.2642 156.452 39.2642C156.883 39.2642 157.3 39.3355 157.705 39.478C158.109 39.6205 158.472 39.8442 158.793 40.1491C159.115 40.4541 159.368 40.8501 159.554 41.3374C159.74 41.8213 159.832 42.4096 159.832 43.1023V43.6293H153.762V42.5156H158.376C158.376 42.1245 158.296 41.7782 158.137 41.4766C157.978 41.1716 157.754 40.9313 157.466 40.7557C157.181 40.58 156.846 40.4922 156.462 40.4922C156.044 40.4922 155.679 40.5949 155.368 40.8004C155.06 41.0026 154.821 41.2678 154.652 41.5959C154.486 41.9207 154.403 42.2737 154.403 42.6548V43.5249C154.403 44.0353 154.493 44.4695 154.672 44.8274C154.854 45.1854 155.108 45.4588 155.433 45.6477C155.757 45.8333 156.137 45.9261 156.571 45.9261C156.853 45.9261 157.11 45.8864 157.342 45.8068C157.574 45.724 157.774 45.6013 157.943 45.4389C158.112 45.2765 158.241 45.076 158.331 44.8374L159.738 45.0909C159.625 45.5052 159.423 45.8681 159.131 46.1797C158.843 46.4879 158.48 46.7282 158.043 46.9006C157.608 47.0696 157.113 47.1541 156.556 47.1541Z" fill="#101940"/>
<path d="M47.3327 84.6667C47.3327 85.0334 47.6327 85.3067 47.9993 85.3067C48.366 85.3067 48.666 84.9801 48.666 84.6134C48.666 84.2467 48.366 83.9467 47.9993 83.9467C47.6327 83.9467 47.3327 84.2467 47.3327 84.6134V84.6667Z" fill="#101940"/>
<path d="M52.286 83.2334C52.4193 83.3601 52.586 83.4267 52.7593 83.4267C52.9327 83.4267 53.0993 83.3601 53.226 83.2334C53.486 82.9734 53.486 82.5534 53.226 82.2934L53.1393 82.2067C52.8793 81.9467 52.4593 81.9467 52.1993 82.2067C51.9393 82.4667 51.9393 82.8867 52.1993 83.1467L52.286 83.2334Z" fill="#101940"/>
<path d="M42.766 83.2334C42.8993 83.3601 43.066 83.4267 43.2393 83.4267C43.406 83.4267 43.5793 83.3601 43.706 83.2334L43.7927 83.1467C44.0527 82.8867 44.0527 82.4667 43.7927 82.2067C43.5327 81.9467 43.1127 81.9467 42.8527 82.2067L42.766 82.2934C42.506 82.5534 42.506 82.9734 42.766 83.2334Z" fill="#101940"/>
<path d="M54.6127 78.6667H54.666C55.0327 78.6667 55.306 78.3667 55.306 78.0001C55.306 77.6334 54.9793 77.3334 54.6127 77.3334C54.246 77.3334 53.946 77.6334 53.946 78.0001C53.946 78.3667 54.246 78.6667 54.6127 78.6667Z" fill="#101940"/>
<path d="M41.3327 78.6667H41.386C41.7527 78.6667 42.026 78.3667 42.026 78.0001C42.026 77.6334 41.6993 77.3334 41.3327 77.3334C40.966 77.3334 40.666 77.6334 40.666 78.0001C40.666 78.3667 40.966 78.6667 41.3327 78.6667Z" fill="#101940"/>
<path d="M52.1993 73.8001C52.3327 73.9267 52.4993 73.9934 52.6727 73.9934C52.846 73.9934 53.0127 73.9267 53.1393 73.8001L53.226 73.7134C53.486 73.4534 53.486 73.0334 53.226 72.7734C52.966 72.5134 52.546 72.5134 52.286 72.7734L52.1993 72.8601C51.9393 73.1201 51.9393 73.5401 52.1993 73.8001Z" fill="#101940"/>
<path d="M42.8527 73.8001C42.986 73.9267 43.1527 73.9934 43.326 73.9934C43.4927 73.9934 43.666 73.9267 43.7927 73.7934C44.0527 73.5334 44.0527 73.1134 43.7927 72.8534L43.706 72.7667C43.446 72.5067 43.026 72.5067 42.766 72.7667C42.506 73.0267 42.506 73.4467 42.766 73.7067L42.8527 73.8001Z" fill="#101940"/>
<path d="M47.3327 71.3867C47.3327 71.7534 47.6327 72.0267 47.9993 72.0267C48.366 72.0267 48.666 71.7001 48.666 71.3334C48.666 70.9667 48.366 70.6667 47.9993 70.6667C47.6327 70.6667 47.3327 70.9667 47.3327 71.3334V71.3867Z" fill="#101940"/>
<path d="M52.666 78.0001C52.666 80.5774 50.5767 82.6667 47.9993 82.6667C45.422 82.6667 43.3327 80.5774 43.3327 78.0001C43.3327 75.4228 45.422 73.3334 47.9993 73.3334C50.5767 73.3334 52.666 75.4228 52.666 78.0001Z" fill="#101940"/>
<path d="M64.6165 74.1406V72.8182H72.4964V74.1406H69.3196V83H67.7884V74.1406H64.6165ZM74.1831 85.8636C73.961 85.8636 73.7588 85.8454 73.5765 85.8089C73.3942 85.7758 73.2583 85.7393 73.1689 85.6996L73.5268 84.4815C73.7986 84.5545 74.0405 84.5859 74.2527 84.576C74.4648 84.5661 74.652 84.4865 74.8145 84.3374C74.9802 84.1882 75.126 83.9446 75.252 83.6065L75.4359 83.0994L72.6419 75.3636H74.2328L76.1667 81.2898H76.2463L78.1802 75.3636H79.7761L76.6291 84.0192C76.4833 84.4169 76.2976 84.7533 76.0723 85.0284C75.8469 85.3068 75.5784 85.5156 75.2669 85.6548C74.9553 85.794 74.594 85.8636 74.1831 85.8636ZM81.1731 85.8636V75.3636H82.6248V76.6016H82.7491C82.8353 76.4425 82.9596 76.2585 83.122 76.0497C83.2844 75.8409 83.5098 75.6586 83.7981 75.5028C84.0865 75.3438 84.4676 75.2642 84.9416 75.2642C85.5581 75.2642 86.1083 75.42 86.5922 75.7315C87.0761 76.0431 87.4556 76.4922 87.7306 77.0788C88.0091 77.6655 88.1483 78.3714 88.1483 79.1967C88.1483 80.022 88.0107 80.7296 87.7356 81.3196C87.4605 81.9062 87.0827 82.3587 86.6021 82.6768C86.1215 82.9917 85.573 83.1491 84.9565 83.1491C84.4925 83.1491 84.113 83.0713 83.818 82.9155C83.5263 82.7597 83.2976 82.5774 83.1319 82.3686C82.9662 82.1598 82.8386 81.9742 82.7491 81.8118H82.6596V85.8636H81.1731ZM82.6298 79.1818C82.6298 79.7187 82.7077 80.1894 82.8635 80.5938C83.0192 80.9981 83.2446 81.3146 83.5396 81.5433C83.8346 81.7687 84.1958 81.8814 84.6234 81.8814C85.0675 81.8814 85.4387 81.7637 85.737 81.5284C86.0353 81.2898 86.2607 80.9666 86.4132 80.5589C86.569 80.1513 86.6468 79.6922 86.6468 79.1818C86.6468 78.678 86.5706 78.2256 86.4181 77.8246C86.269 77.4235 86.0436 77.107 85.742 76.875C85.4437 76.643 85.0708 76.527 84.6234 76.527C84.1925 76.527 83.8279 76.638 83.5297 76.8601C83.2347 77.0821 83.0109 77.392 82.8585 77.7898C82.706 78.1875 82.6298 78.6515 82.6298 79.1818ZM93.1049 83.1541C92.3526 83.1541 91.7046 82.9934 91.161 82.6719C90.6208 82.3471 90.2032 81.8913 89.9082 81.3047C89.6165 80.7147 89.4707 80.0237 89.4707 79.2315C89.4707 78.4493 89.6165 77.7599 89.9082 77.1634C90.2032 76.5668 90.6142 76.1011 91.1412 75.7663C91.6715 75.4316 92.2913 75.2642 93.0005 75.2642C93.4314 75.2642 93.849 75.3355 94.2534 75.478C94.6577 75.6205 95.0207 75.8442 95.3422 76.1491C95.6636 76.4541 95.9172 76.8501 96.1028 77.3374C96.2884 77.8213 96.3812 78.4096 96.3812 79.1023V79.6293H90.3109V78.5156H94.9245C94.9245 78.1245 94.845 77.7782 94.6859 77.4766C94.5268 77.1716 94.3031 76.9313 94.0147 76.7557C93.7297 76.58 93.3949 76.4922 93.0105 76.4922C92.5929 76.4922 92.2283 76.5949 91.9167 76.8004C91.6085 77.0026 91.3699 77.2678 91.2008 77.5959C91.0351 77.9207 90.9522 78.2737 90.9522 78.6548V79.5249C90.9522 80.0353 91.0417 80.4695 91.2207 80.8274C91.403 81.1854 91.6565 81.4588 91.9814 81.6477C92.3062 81.8333 92.6857 81.9261 93.1199 81.9261C93.4016 81.9261 93.6584 81.8864 93.8904 81.8068C94.1225 81.724 94.323 81.6013 94.492 81.4389C94.661 81.2765 94.7903 81.076 94.8798 80.8374L96.2868 81.0909C96.1741 81.5052 95.9719 81.8681 95.6802 82.1797C95.3919 82.4879 95.0289 82.7282 94.5914 82.9006C94.1573 83.0696 93.6618 83.1541 93.1049 83.1541ZM105.3 75.3636V76.5568H101.129V75.3636H105.3ZM102.248 73.5341H103.734V80.7578C103.734 81.0462 103.777 81.2633 103.863 81.4091C103.95 81.5516 104.061 81.6494 104.197 81.7024C104.336 81.7521 104.487 81.777 104.649 81.777C104.768 81.777 104.873 81.7687 104.962 81.7521C105.052 81.7356 105.121 81.7223 105.171 81.7124L105.439 82.9403C105.353 82.9735 105.231 83.0066 105.072 83.0398C104.912 83.0762 104.714 83.0961 104.475 83.0994C104.084 83.1061 103.719 83.0365 103.381 82.8906C103.043 82.7448 102.77 82.5194 102.561 82.2145C102.352 81.9096 102.248 81.5268 102.248 81.0661V73.5341ZM110.154 83.1541C109.401 83.1541 108.753 82.9934 108.21 82.6719C107.67 82.3471 107.252 81.8913 106.957 81.3047C106.665 80.7147 106.52 80.0237 106.52 79.2315C106.52 78.4493 106.665 77.7599 106.957 77.1634C107.252 76.5668 107.663 76.1011 108.19 75.7663C108.72 75.4316 109.34 75.2642 110.049 75.2642C110.48 75.2642 110.898 75.3355 111.302 75.478C111.707 75.6205 112.069 75.8442 112.391 76.1491C112.712 76.4541 112.966 76.8501 113.152 77.3374C113.337 77.8213 113.43 78.4096 113.43 79.1023V79.6293H107.36V78.5156H111.973C111.973 78.1245 111.894 77.7782 111.735 77.4766C111.576 77.1716 111.352 76.9313 111.064 76.7557C110.779 76.58 110.444 76.4922 110.059 76.4922C109.642 76.4922 109.277 76.5949 108.966 76.8004C108.657 77.0026 108.419 77.2678 108.25 77.5959C108.084 77.9207 108.001 78.2737 108.001 78.6548V79.5249C108.001 80.0353 108.091 80.4695 108.27 80.8274C108.452 81.1854 108.705 81.4588 109.03 81.6477C109.355 81.8333 109.734 81.9261 110.169 81.9261C110.45 81.9261 110.707 81.8864 110.939 81.8068C111.171 81.724 111.372 81.6013 111.541 81.4389C111.71 81.2765 111.839 81.076 111.929 80.8374L113.336 81.0909C113.223 81.5052 113.021 81.8681 112.729 82.1797C112.441 82.4879 112.078 82.7282 111.64 82.9006C111.206 83.0696 110.711 83.1541 110.154 83.1541ZM116.075 75.3636L117.76 78.3366L119.461 75.3636H121.086L118.705 79.1818L121.106 83H119.48L117.76 80.1463L116.045 83H114.414L116.791 79.1818L114.444 75.3636H116.075ZM126.177 75.3636V76.5568H122.006V75.3636H126.177ZM123.125 73.5341H124.611V80.7578C124.611 81.0462 124.654 81.2633 124.74 81.4091C124.827 81.5516 124.938 81.6494 125.074 81.7024C125.213 81.7521 125.364 81.777 125.526 81.777C125.645 81.777 125.75 81.7687 125.839 81.7521C125.929 81.7356 125.998 81.7223 126.048 81.7124L126.316 82.9403C126.23 82.9735 126.108 83.0066 125.949 83.0398C125.789 83.0762 125.591 83.0961 125.352 83.0994C124.961 83.1061 124.596 83.0365 124.258 82.8906C123.92 82.7448 123.647 82.5194 123.438 82.2145C123.229 81.9096 123.125 81.5268 123.125 81.0661V73.5341ZM133.013 78.4659V83H131.527V72.8182H132.993V76.6065H133.088C133.267 76.1955 133.54 75.8691 133.908 75.6271C134.276 75.3852 134.757 75.2642 135.35 75.2642C135.873 75.2642 136.331 75.3719 136.722 75.5874C137.116 75.8028 137.421 76.1243 137.637 76.5518C137.855 76.9761 137.965 77.5064 137.965 78.1428V83H136.478V78.3217C136.478 77.7616 136.334 77.3274 136.046 77.0192C135.757 76.7076 135.356 76.5518 134.843 76.5518C134.491 76.5518 134.176 76.6264 133.898 76.7756C133.623 76.9247 133.406 77.1435 133.247 77.4318C133.091 77.7169 133.013 78.0616 133.013 78.4659ZM143.24 83.1541C142.487 83.1541 141.839 82.9934 141.296 82.6719C140.756 82.3471 140.338 81.8913 140.043 81.3047C139.751 80.7147 139.605 80.0237 139.605 79.2315C139.605 78.4493 139.751 77.7599 140.043 77.1634C140.338 76.5668 140.749 76.1011 141.276 75.7663C141.806 75.4316 142.426 75.2642 143.135 75.2642C143.566 75.2642 143.984 75.3355 144.388 75.478C144.792 75.6205 145.155 75.8442 145.477 76.1491C145.798 76.4541 146.052 76.8501 146.238 77.3374C146.423 77.8213 146.516 78.4096 146.516 79.1023V79.6293H140.446V78.5156H145.059C145.059 78.1245 144.98 77.7782 144.821 77.4766C144.662 77.1716 144.438 76.9313 144.15 76.7557C143.864 76.58 143.53 76.4922 143.145 76.4922C142.728 76.4922 142.363 76.5949 142.051 76.8004C141.743 77.0026 141.505 77.2678 141.336 77.5959C141.17 77.9207 141.087 78.2737 141.087 78.6548V79.5249C141.087 80.0353 141.176 80.4695 141.355 80.8274C141.538 81.1854 141.791 81.4588 142.116 81.6477C142.441 81.8333 142.82 81.9261 143.255 81.9261C143.536 81.9261 143.793 81.8864 144.025 81.8068C144.257 81.724 144.458 81.6013 144.627 81.4389C144.796 81.2765 144.925 81.076 145.015 80.8374L146.422 81.0909C146.309 81.5052 146.107 81.8681 145.815 82.1797C145.527 82.4879 145.164 82.7282 144.726 82.9006C144.292 83.0696 143.797 83.1541 143.24 83.1541ZM148.165 83V75.3636H149.602V76.5767H149.682C149.821 76.1657 150.066 75.8426 150.417 75.6072C150.772 75.3686 151.173 75.2493 151.621 75.2493C151.713 75.2493 151.823 75.2526 151.949 75.2592C152.078 75.2659 152.179 75.2741 152.252 75.2841V76.706C152.192 76.6894 152.086 76.6712 151.934 76.6513C151.781 76.6281 151.629 76.6165 151.476 76.6165C151.125 76.6165 150.812 76.6911 150.537 76.8402C150.265 76.986 150.05 77.1899 149.89 77.4517C149.731 77.7102 149.652 78.0052 149.652 78.3366V83H148.165ZM156.556 83.1541C155.804 83.1541 155.156 82.9934 154.612 82.6719C154.072 82.3471 153.654 81.8913 153.359 81.3047C153.068 80.7147 152.922 80.0237 152.922 79.2315C152.922 78.4493 153.068 77.7599 153.359 77.1634C153.654 76.5668 154.065 76.1011 154.592 75.7663C155.123 75.4316 155.742 75.2642 156.452 75.2642C156.883 75.2642 157.3 75.3355 157.705 75.478C158.109 75.6205 158.472 75.8442 158.793 76.1491C159.115 76.4541 159.368 76.8501 159.554 77.3374C159.74 77.8213 159.832 78.4096 159.832 79.1023V79.6293H153.762V78.5156H158.376C158.376 78.1245 158.296 77.7782 158.137 77.4766C157.978 77.1716 157.754 76.9313 157.466 76.7557C157.181 76.58 156.846 76.4922 156.462 76.4922C156.044 76.4922 155.679 76.5949 155.368 76.8004C155.06 77.0026 154.821 77.2678 154.652 77.5959C154.486 77.9207 154.403 78.2737 154.403 78.6548V79.5249C154.403 80.0353 154.493 80.4695 154.672 80.8274C154.854 81.1854 155.108 81.4588 155.433 81.6477C155.757 81.8333 156.137 81.9261 156.571 81.9261C156.853 81.9261 157.11 81.8864 157.342 81.8068C157.574 81.724 157.774 81.6013 157.943 81.4389C158.112 81.2765 158.241 81.076 158.331 80.8374L159.738 81.0909C159.625 81.5052 159.423 81.8681 159.131 82.1797C158.843 82.4879 158.48 82.7282 158.043 82.9006C157.608 83.0696 157.113 83.1541 156.556 83.1541Z" fill="#101940"/>
<path d="M47.3327 120.667C47.3327 121.033 47.6327 121.307 47.9993 121.307C48.366 121.307 48.666 120.98 48.666 120.613C48.666 120.247 48.366 119.947 47.9993 119.947C47.6327 119.947 47.3327 120.247 47.3327 120.613V120.667Z" fill="#101940"/>
<path d="M52.286 119.233C52.4193 119.36 52.586 119.427 52.7593 119.427C52.9327 119.427 53.0993 119.36 53.226 119.233C53.486 118.973 53.486 118.553 53.226 118.293L53.1393 118.207C52.8793 117.947 52.4593 117.947 52.1993 118.207C51.9393 118.467 51.9393 118.887 52.1993 119.147L52.286 119.233Z" fill="#101940"/>
<path d="M42.766 119.233C42.8993 119.36 43.066 119.427 43.2393 119.427C43.406 119.427 43.5793 119.36 43.706 119.233L43.7927 119.147C44.0527 118.887 44.0527 118.467 43.7927 118.207C43.5327 117.947 43.1127 117.947 42.8527 118.207L42.766 118.293C42.506 118.553 42.506 118.973 42.766 119.233Z" fill="#101940"/>
<path d="M54.6127 114.667H54.666C55.0327 114.667 55.306 114.367 55.306 114C55.306 113.633 54.9793 113.333 54.6127 113.333C54.246 113.333 53.946 113.633 53.946 114C53.946 114.367 54.246 114.667 54.6127 114.667Z" fill="#101940"/>
<path d="M41.3327 114.667H41.386C41.7527 114.667 42.026 114.367 42.026 114C42.026 113.633 41.6993 113.333 41.3327 113.333C40.966 113.333 40.666 113.633 40.666 114C40.666 114.367 40.966 114.667 41.3327 114.667Z" fill="#101940"/>
<path d="M52.1993 109.8C52.3327 109.927 52.4993 109.993 52.6727 109.993C52.846 109.993 53.0127 109.927 53.1393 109.8L53.226 109.713C53.486 109.453 53.486 109.033 53.226 108.773C52.966 108.513 52.546 108.513 52.286 108.773L52.1993 108.86C51.9393 109.12 51.9393 109.54 52.1993 109.8Z" fill="#101940"/>
<path d="M42.8527 109.8C42.986 109.927 43.1527 109.993 43.326 109.993C43.4927 109.993 43.666 109.927 43.7927 109.793C44.0527 109.533 44.0527 109.113 43.7927 108.853L43.706 108.767C43.446 108.507 43.026 108.507 42.766 108.767C42.506 109.027 42.506 109.447 42.766 109.707L42.8527 109.8Z" fill="#101940"/>
<path d="M47.3327 107.387C47.3327 107.753 47.6327 108.027 47.9993 108.027C48.366 108.027 48.666 107.7 48.666 107.333C48.666 106.967 48.366 106.667 47.9993 106.667C47.6327 106.667 47.3327 106.967 47.3327 107.333V107.387Z" fill="#101940"/>
<path d="M52.666 114C52.666 116.577 50.5767 118.667 47.9993 118.667C45.422 118.667 43.3327 116.577 43.3327 114C43.3327 111.423 45.422 109.333 47.9993 109.333C50.5767 109.333 52.666 111.423 52.666 114Z" fill="#101940"/>
<path d="M64.6165 110.141V108.818H72.4964V110.141H69.3196V119H67.7884V110.141H64.6165ZM74.1831 121.864C73.961 121.864 73.7588 121.845 73.5765 121.809C73.3942 121.776 73.2583 121.739 73.1689 121.7L73.5268 120.482C73.7986 120.554 74.0405 120.586 74.2527 120.576C74.4648 120.566 74.652 120.487 74.8145 120.337C74.9802 120.188 75.126 119.945 75.252 119.607L75.4359 119.099L72.6419 111.364H74.2328L76.1667 117.29H76.2463L78.1802 111.364H79.7761L76.6291 120.019C76.4833 120.417 76.2976 120.753 76.0723 121.028C75.8469 121.307 75.5784 121.516 75.2669 121.655C74.9553 121.794 74.594 121.864 74.1831 121.864ZM81.1731 121.864V111.364H82.6248V112.602H82.7491C82.8353 112.442 82.9596 112.259 83.122 112.05C83.2844 111.841 83.5098 111.659 83.7981 111.503C84.0865 111.344 84.4676 111.264 84.9416 111.264C85.5581 111.264 86.1083 111.42 86.5922 111.732C87.0761 112.043 87.4556 112.492 87.7306 113.079C88.0091 113.665 88.1483 114.371 88.1483 115.197C88.1483 116.022 88.0107 116.73 87.7356 117.32C87.4605 117.906 87.0827 118.359 86.6021 118.677C86.1215 118.992 85.573 119.149 84.9565 119.149C84.4925 119.149 84.113 119.071 83.818 118.915C83.5263 118.76 83.2976 118.577 83.1319 118.369C82.9662 118.16 82.8386 117.974 82.7491 117.812H82.6596V121.864H81.1731ZM82.6298 115.182C82.6298 115.719 82.7077 116.189 82.8635 116.594C83.0192 116.998 83.2446 117.315 83.5396 117.543C83.8346 117.769 84.1958 117.881 84.6234 117.881C85.0675 117.881 85.4387 117.764 85.737 117.528C86.0353 117.29 86.2607 116.967 86.4132 116.559C86.569 116.151 86.6468 115.692 86.6468 115.182C86.6468 114.678 86.5706 114.226 86.4181 113.825C86.269 113.424 86.0436 113.107 85.742 112.875C85.4437 112.643 85.0708 112.527 84.6234 112.527C84.1925 112.527 83.8279 112.638 83.5297 112.86C83.2347 113.082 83.0109 113.392 82.8585 113.79C82.706 114.187 82.6298 114.652 82.6298 115.182ZM93.1049 119.154C92.3526 119.154 91.7046 118.993 91.161 118.672C90.6208 118.347 90.2032 117.891 89.9082 117.305C89.6165 116.715 89.4707 116.024 89.4707 115.232C89.4707 114.449 89.6165 113.76 89.9082 113.163C90.2032 112.567 90.6142 112.101 91.1412 111.766C91.6715 111.432 92.2913 111.264 93.0005 111.264C93.4314 111.264 93.849 111.335 94.2534 111.478C94.6577 111.621 95.0207 111.844 95.3422 112.149C95.6636 112.454 95.9172 112.85 96.1028 113.337C96.2884 113.821 96.3812 114.41 96.3812 115.102V115.629H90.3109V114.516H94.9245C94.9245 114.125 94.845 113.778 94.6859 113.477C94.5268 113.172 94.3031 112.931 94.0147 112.756C93.7297 112.58 93.3949 112.492 93.0105 112.492C92.5929 112.492 92.2283 112.595 91.9167 112.8C91.6085 113.003 91.3699 113.268 91.2008 113.596C91.0351 113.921 90.9522 114.274 90.9522 114.655V115.525C90.9522 116.035 91.0417 116.469 91.2207 116.827C91.403 117.185 91.6565 117.459 91.9814 117.648C92.3062 117.833 92.6857 117.926 93.1199 117.926C93.4016 117.926 93.6584 117.886 93.8904 117.807C94.1225 117.724 94.323 117.601 94.492 117.439C94.661 117.277 94.7903 117.076 94.8798 116.837L96.2868 117.091C96.1741 117.505 95.9719 117.868 95.6802 118.18C95.3919 118.488 95.0289 118.728 94.5914 118.901C94.1573 119.07 93.6618 119.154 93.1049 119.154ZM105.3 111.364V112.557H101.129V111.364H105.3ZM102.248 109.534H103.734V116.758C103.734 117.046 103.777 117.263 103.863 117.409C103.95 117.552 104.061 117.649 104.197 117.702C104.336 117.752 104.487 117.777 104.649 117.777C104.768 117.777 104.873 117.769 104.962 117.752C105.052 117.736 105.121 117.722 105.171 117.712L105.439 118.94C105.353 118.973 105.231 119.007 105.072 119.04C104.912 119.076 104.714 119.096 104.475 119.099C104.084 119.106 103.719 119.036 103.381 118.891C103.043 118.745 102.77 118.519 102.561 118.214C102.352 117.91 102.248 117.527 102.248 117.066V109.534ZM110.154 119.154C109.401 119.154 108.753 118.993 108.21 118.672C107.67 118.347 107.252 117.891 106.957 117.305C106.665 116.715 106.52 116.024 106.52 115.232C106.52 114.449 106.665 113.76 106.957 113.163C107.252 112.567 107.663 112.101 108.19 111.766C108.72 111.432 109.34 111.264 110.049 111.264C110.48 111.264 110.898 111.335 111.302 111.478C111.707 111.621 112.069 111.844 112.391 112.149C112.712 112.454 112.966 112.85 113.152 113.337C113.337 113.821 113.43 114.41 113.43 115.102V115.629H107.36V114.516H111.973C111.973 114.125 111.894 113.778 111.735 113.477C111.576 113.172 111.352 112.931 111.064 112.756C110.779 112.58 110.444 112.492 110.059 112.492C109.642 112.492 109.277 112.595 108.966 112.8C108.657 113.003 108.419 113.268 108.25 113.596C108.084 113.921 108.001 114.274 108.001 114.655V115.525C108.001 116.035 108.091 116.469 108.27 116.827C108.452 117.185 108.705 117.459 109.03 117.648C109.355 117.833 109.734 117.926 110.169 117.926C110.45 117.926 110.707 117.886 110.939 117.807C111.171 117.724 111.372 117.601 111.541 117.439C111.71 117.277 111.839 117.076 111.929 116.837L113.336 117.091C113.223 117.505 113.021 117.868 112.729 118.18C112.441 118.488 112.078 118.728 111.64 118.901C111.206 119.07 110.711 119.154 110.154 119.154ZM116.075 111.364L117.76 114.337L119.461 111.364H121.086L118.705 115.182L121.106 119H119.48L117.76 116.146L116.045 119H114.414L116.791 115.182L114.444 111.364H116.075ZM126.177 111.364V112.557H122.006V111.364H126.177ZM123.125 109.534H124.611V116.758C124.611 117.046 124.654 117.263 124.74 117.409C124.827 117.552 124.938 117.649 125.074 117.702C125.213 117.752 125.364 117.777 125.526 117.777C125.645 117.777 125.75 117.769 125.839 117.752C125.929 117.736 125.998 117.722 126.048 117.712L126.316 118.94C126.23 118.973 126.108 119.007 125.949 119.04C125.789 119.076 125.591 119.096 125.352 119.099C124.961 119.106 124.596 119.036 124.258 118.891C123.92 118.745 123.647 118.519 123.438 118.214C123.229 117.91 123.125 117.527 123.125 117.066V109.534ZM133.013 114.466V119H131.527V108.818H132.993V112.607H133.088C133.267 112.196 133.54 111.869 133.908 111.627C134.276 111.385 134.757 111.264 135.35 111.264C135.873 111.264 136.331 111.372 136.722 111.587C137.116 111.803 137.421 112.124 137.637 112.552C137.855 112.976 137.965 113.506 137.965 114.143V119H136.478V114.322C136.478 113.762 136.334 113.327 136.046 113.019C135.757 112.708 135.356 112.552 134.843 112.552C134.491 112.552 134.176 112.626 133.898 112.776C133.623 112.925 133.406 113.143 133.247 113.432C133.091 113.717 133.013 114.062 133.013 114.466ZM143.24 119.154C142.487 119.154 141.839 118.993 141.296 118.672C140.756 118.347 140.338 117.891 140.043 117.305C139.751 116.715 139.605 116.024 139.605 115.232C139.605 114.449 139.751 113.76 140.043 113.163C140.338 112.567 140.749 112.101 141.276 111.766C141.806 111.432 142.426 111.264 143.135 111.264C143.566 111.264 143.984 111.335 144.388 111.478C144.792 111.621 145.155 111.844 145.477 112.149C145.798 112.454 146.052 112.85 146.238 113.337C146.423 113.821 146.516 114.41 146.516 115.102V115.629H140.446V114.516H145.059C145.059 114.125 144.98 113.778 144.821 113.477C144.662 113.172 144.438 112.931 144.15 112.756C143.864 112.58 143.53 112.492 143.145 112.492C142.728 112.492 142.363 112.595 142.051 112.8C141.743 113.003 141.505 113.268 141.336 113.596C141.17 113.921 141.087 114.274 141.087 114.655V115.525C141.087 116.035 141.176 116.469 141.355 116.827C141.538 117.185 141.791 117.459 142.116 117.648C142.441 117.833 142.82 117.926 143.255 117.926C143.536 117.926 143.793 117.886 144.025 117.807C144.257 117.724 144.458 117.601 144.627 117.439C144.796 117.277 144.925 117.076 145.015 116.837L146.422 117.091C146.309 117.505 146.107 117.868 145.815 118.18C145.527 118.488 145.164 118.728 144.726 118.901C144.292 119.07 143.797 119.154 143.24 119.154ZM148.165 119V111.364H149.602V112.577H149.682C149.821 112.166 150.066 111.843 150.417 111.607C150.772 111.369 151.173 111.249 151.621 111.249C151.713 111.249 151.823 111.253 151.949 111.259C152.078 111.266 152.179 111.274 152.252 111.284V112.706C152.192 112.689 152.086 112.671 151.934 112.651C151.781 112.628 151.629 112.616 151.476 112.616C151.125 112.616 150.812 112.691 150.537 112.84C150.265 112.986 150.05 113.19 149.89 113.452C149.731 113.71 149.652 114.005 149.652 114.337V119H148.165ZM156.556 119.154C155.804 119.154 155.156 118.993 154.612 118.672C154.072 118.347 153.654 117.891 153.359 117.305C153.068 116.715 152.922 116.024 152.922 115.232C152.922 114.449 153.068 113.76 153.359 113.163C153.654 112.567 154.065 112.101 154.592 111.766C155.123 111.432 155.742 111.264 156.452 111.264C156.883 111.264 157.3 111.335 157.705 111.478C158.109 111.621 158.472 111.844 158.793 112.149C159.115 112.454 159.368 112.85 159.554 113.337C159.74 113.821 159.832 114.41 159.832 115.102V115.629H153.762V114.516H158.376C158.376 114.125 158.296 113.778 158.137 113.477C157.978 113.172 157.754 112.931 157.466 112.756C157.181 112.58 156.846 112.492 156.462 112.492C156.044 112.492 155.679 112.595 155.368 112.8C155.06 113.003 154.821 113.268 154.652 113.596C154.486 113.921 154.403 114.274 154.403 114.655V115.525C154.403 116.035 154.493 116.469 154.672 116.827C154.854 117.185 155.108 117.459 155.433 117.648C155.757 117.833 156.137 117.926 156.571 117.926C156.853 117.926 157.11 117.886 157.342 117.807C157.574 117.724 157.774 117.601 157.943 117.439C158.112 117.277 158.241 117.076 158.331 116.837L159.738 117.091C159.625 117.505 159.423 117.868 159.131 118.18C158.843 118.488 158.48 118.728 158.043 118.901C157.608 119.07 157.113 119.154 156.556 119.154Z" fill="#101940"/>
<path d="M47.3327 156.667C47.3327 157.033 47.6327 157.307 47.9993 157.307C48.366 157.307 48.666 156.98 48.666 156.613C48.666 156.247 48.366 155.947 47.9993 155.947C47.6327 155.947 47.3327 156.247 47.3327 156.613V156.667Z" fill="#101940"/>
<path d="M52.286 155.233C52.4193 155.36 52.586 155.427 52.7593 155.427C52.9327 155.427 53.0993 155.36 53.226 155.233C53.486 154.973 53.486 154.553 53.226 154.293L53.1393 154.207C52.8793 153.947 52.4593 153.947 52.1993 154.207C51.9393 154.467 51.9393 154.887 52.1993 155.147L52.286 155.233Z" fill="#101940"/>
<path d="M42.766 155.233C42.8993 155.36 43.066 155.427 43.2393 155.427C43.406 155.427 43.5793 155.36 43.706 155.233L43.7927 155.147C44.0527 154.887 44.0527 154.467 43.7927 154.207C43.5327 153.947 43.1127 153.947 42.8527 154.207L42.766 154.293C42.506 154.553 42.506 154.973 42.766 155.233Z" fill="#101940"/>
<path d="M54.6127 150.667H54.666C55.0327 150.667 55.306 150.367 55.306 150C55.306 149.633 54.9793 149.333 54.6127 149.333C54.246 149.333 53.946 149.633 53.946 150C53.946 150.367 54.246 150.667 54.6127 150.667Z" fill="#101940"/>
<path d="M41.3327 150.667H41.386C41.7527 150.667 42.026 150.367 42.026 150C42.026 149.633 41.6993 149.333 41.3327 149.333C40.966 149.333 40.666 149.633 40.666 150C40.666 150.367 40.966 150.667 41.3327 150.667Z" fill="#101940"/>
<path d="M52.1993 145.8C52.3327 145.927 52.4993 145.993 52.6727 145.993C52.846 145.993 53.0127 145.927 53.1393 145.8L53.226 145.713C53.486 145.453 53.486 145.033 53.226 144.773C52.966 144.513 52.546 144.513 52.286 144.773L52.1993 144.86C51.9393 145.12 51.9393 145.54 52.1993 145.8Z" fill="#101940"/>
<path d="M42.8527 145.8C42.986 145.927 43.1527 145.993 43.326 145.993C43.4927 145.993 43.666 145.927 43.7927 145.793C44.0527 145.533 44.0527 145.113 43.7927 144.853L43.706 144.767C43.446 144.507 43.026 144.507 42.766 144.767C42.506 145.027 42.506 145.447 42.766 145.707L42.8527 145.8Z" fill="#101940"/>
<path d="M47.3327 143.387C47.3327 143.753 47.6327 144.027 47.9993 144.027C48.366 144.027 48.666 143.7 48.666 143.333C48.666 142.967 48.366 142.667 47.9993 142.667C47.6327 142.667 47.3327 142.967 47.3327 143.333V143.387Z" fill="#101940"/>
<path d="M52.666 150C52.666 152.577 50.5767 154.667 47.9993 154.667C45.422 154.667 43.3327 152.577 43.3327 150C43.3327 147.423 45.422 145.333 47.9993 145.333C50.5767 145.333 52.666 147.423 52.666 150Z" fill="#101940"/>
<path d="M64.6165 146.141V144.818H72.4964V146.141H69.3196V155H67.7884V146.141H64.6165ZM74.1831 157.864C73.961 157.864 73.7588 157.845 73.5765 157.809C73.3942 157.776 73.2583 157.739 73.1689 157.7L73.5268 156.482C73.7986 156.554 74.0405 156.586 74.2527 156.576C74.4648 156.566 74.652 156.487 74.8145 156.337C74.9802 156.188 75.126 155.945 75.252 155.607L75.4359 155.099L72.6419 147.364H74.2328L76.1667 153.29H76.2463L78.1802 147.364H79.7761L76.6291 156.019C76.4833 156.417 76.2976 156.753 76.0723 157.028C75.8469 157.307 75.5784 157.516 75.2669 157.655C74.9553 157.794 74.594 157.864 74.1831 157.864ZM81.1731 157.864V147.364H82.6248V148.602H82.7491C82.8353 148.442 82.9596 148.259 83.122 148.05C83.2844 147.841 83.5098 147.659 83.7981 147.503C84.0865 147.344 84.4676 147.264 84.9416 147.264C85.5581 147.264 86.1083 147.42 86.5922 147.732C87.0761 148.043 87.4556 148.492 87.7306 149.079C88.0091 149.665 88.1483 150.371 88.1483 151.197C88.1483 152.022 88.0107 152.73 87.7356 153.32C87.4605 153.906 87.0827 154.359 86.6021 154.677C86.1215 154.992 85.573 155.149 84.9565 155.149C84.4925 155.149 84.113 155.071 83.818 154.915C83.5263 154.76 83.2976 154.577 83.1319 154.369C82.9662 154.16 82.8386 153.974 82.7491 153.812H82.6596V157.864H81.1731ZM82.6298 151.182C82.6298 151.719 82.7077 152.189 82.8635 152.594C83.0192 152.998 83.2446 153.315 83.5396 153.543C83.8346 153.769 84.1958 153.881 84.6234 153.881C85.0675 153.881 85.4387 153.764 85.737 153.528C86.0353 153.29 86.2607 152.967 86.4132 152.559C86.569 152.151 86.6468 151.692 86.6468 151.182C86.6468 150.678 86.5706 150.226 86.4181 149.825C86.269 149.424 86.0436 149.107 85.742 148.875C85.4437 148.643 85.0708 148.527 84.6234 148.527C84.1925 148.527 83.8279 148.638 83.5297 148.86C83.2347 149.082 83.0109 149.392 82.8585 149.79C82.706 150.187 82.6298 150.652 82.6298 151.182ZM93.1049 155.154C92.3526 155.154 91.7046 154.993 91.161 154.672C90.6208 154.347 90.2032 153.891 89.9082 153.305C89.6165 152.715 89.4707 152.024 89.4707 151.232C89.4707 150.449 89.6165 149.76 89.9082 149.163C90.2032 148.567 90.6142 148.101 91.1412 147.766C91.6715 147.432 92.2913 147.264 93.0005 147.264C93.4314 147.264 93.849 147.335 94.2534 147.478C94.6577 147.621 95.0207 147.844 95.3422 148.149C95.6636 148.454 95.9172 148.85 96.1028 149.337C96.2884 149.821 96.3812 150.41 96.3812 151.102V151.629H90.3109V150.516H94.9245C94.9245 150.125 94.845 149.778 94.6859 149.477C94.5268 149.172 94.3031 148.931 94.0147 148.756C93.7297 148.58 93.3949 148.492 93.0105 148.492C92.5929 148.492 92.2283 148.595 91.9167 148.8C91.6085 149.003 91.3699 149.268 91.2008 149.596C91.0351 149.921 90.9522 150.274 90.9522 150.655V151.525C90.9522 152.035 91.0417 152.469 91.2207 152.827C91.403 153.185 91.6565 153.459 91.9814 153.648C92.3062 153.833 92.6857 153.926 93.1199 153.926C93.4016 153.926 93.6584 153.886 93.8904 153.807C94.1225 153.724 94.323 153.601 94.492 153.439C94.661 153.277 94.7903 153.076 94.8798 152.837L96.2868 153.091C96.1741 153.505 95.9719 153.868 95.6802 154.18C95.3919 154.488 95.0289 154.728 94.5914 154.901C94.1573 155.07 93.6618 155.154 93.1049 155.154ZM105.3 147.364V148.557H101.129V147.364H105.3ZM102.248 145.534H103.734V152.758C103.734 153.046 103.777 153.263 103.863 153.409C103.95 153.552 104.061 153.649 104.197 153.702C104.336 153.752 104.487 153.777 104.649 153.777C104.768 153.777 104.873 153.769 104.962 153.752C105.052 153.736 105.121 153.722 105.171 153.712L105.439 154.94C105.353 154.973 105.231 155.007 105.072 155.04C104.912 155.076 104.714 155.096 104.475 155.099C104.084 155.106 103.719 155.036 103.381 154.891C103.043 154.745 102.77 154.519 102.561 154.214C102.352 153.91 102.248 153.527 102.248 153.066V145.534ZM110.154 155.154C109.401 155.154 108.753 154.993 108.21 154.672C107.67 154.347 107.252 153.891 106.957 153.305C106.665 152.715 106.52 152.024 106.52 151.232C106.52 150.449 106.665 149.76 106.957 149.163C107.252 148.567 107.663 148.101 108.19 147.766C108.72 147.432 109.34 147.264 110.049 147.264C110.48 147.264 110.898 147.335 111.302 147.478C111.707 147.621 112.069 147.844 112.391 148.149C112.712 148.454 112.966 148.85 113.152 149.337C113.337 149.821 113.43 150.41 113.43 151.102V151.629H107.36V150.516H111.973C111.973 150.125 111.894 149.778 111.735 149.477C111.576 149.172 111.352 148.931 111.064 148.756C110.779 148.58 110.444 148.492 110.059 148.492C109.642 148.492 109.277 148.595 108.966 148.8C108.657 149.003 108.419 149.268 108.25 149.596C108.084 149.921 108.001 150.274 108.001 150.655V151.525C108.001 152.035 108.091 152.469 108.27 152.827C108.452 153.185 108.705 153.459 109.03 153.648C109.355 153.833 109.734 153.926 110.169 153.926C110.45 153.926 110.707 153.886 110.939 153.807C111.171 153.724 111.372 153.601 111.541 153.439C111.71 153.277 111.839 153.076 111.929 152.837L113.336 153.091C113.223 153.505 113.021 153.868 112.729 154.18C112.441 154.488 112.078 154.728 111.64 154.901C111.206 155.07 110.711 155.154 110.154 155.154ZM116.075 147.364L117.76 150.337L119.461 147.364H121.086L118.705 151.182L121.106 155H119.48L117.76 152.146L116.045 155H114.414L116.791 151.182L114.444 147.364H116.075ZM126.177 147.364V148.557H122.006V147.364H126.177ZM123.125 145.534H124.611V152.758C124.611 153.046 124.654 153.263 124.74 153.409C124.827 153.552 124.938 153.649 125.074 153.702C125.213 153.752 125.364 153.777 125.526 153.777C125.645 153.777 125.75 153.769 125.839 153.752C125.929 153.736 125.998 153.722 126.048 153.712L126.316 154.94C126.23 154.973 126.108 155.007 125.949 155.04C125.789 155.076 125.591 155.096 125.352 155.099C124.961 155.106 124.596 155.036 124.258 154.891C123.92 154.745 123.647 154.519 123.438 154.214C123.229 153.91 123.125 153.527 123.125 153.066V145.534ZM133.013 150.466V155H131.527V144.818H132.993V148.607H133.088C133.267 148.196 133.54 147.869 133.908 147.627C134.276 147.385 134.757 147.264 135.35 147.264C135.873 147.264 136.331 147.372 136.722 147.587C137.116 147.803 137.421 148.124 137.637 148.552C137.855 148.976 137.965 149.506 137.965 150.143V155H136.478V150.322C136.478 149.762 136.334 149.327 136.046 149.019C135.757 148.708 135.356 148.552 134.843 148.552C134.491 148.552 134.176 148.626 133.898 148.776C133.623 148.925 133.406 149.143 133.247 149.432C133.091 149.717 133.013 150.062 133.013 150.466ZM143.24 155.154C142.487 155.154 141.839 154.993 141.296 154.672C140.756 154.347 140.338 153.891 140.043 153.305C139.751 152.715 139.605 152.024 139.605 151.232C139.605 150.449 139.751 149.76 140.043 149.163C140.338 148.567 140.749 148.101 141.276 147.766C141.806 147.432 142.426 147.264 143.135 147.264C143.566 147.264 143.984 147.335 144.388 147.478C144.792 147.621 145.155 147.844 145.477 148.149C145.798 148.454 146.052 148.85 146.238 149.337C146.423 149.821 146.516 150.41 146.516 151.102V151.629H140.446V150.516H145.059C145.059 150.125 144.98 149.778 144.821 149.477C144.662 149.172 144.438 148.931 144.15 148.756C143.864 148.58 143.53 148.492 143.145 148.492C142.728 148.492 142.363 148.595 142.051 148.8C141.743 149.003 141.505 149.268 141.336 149.596C141.17 149.921 141.087 150.274 141.087 150.655V151.525C141.087 152.035 141.176 152.469 141.355 152.827C141.538 153.185 141.791 153.459 142.116 153.648C142.441 153.833 142.82 153.926 143.255 153.926C143.536 153.926 143.793 153.886 144.025 153.807C144.257 153.724 144.458 153.601 144.627 153.439C144.796 153.277 144.925 153.076 145.015 152.837L146.422 153.091C146.309 153.505 146.107 153.868 145.815 154.18C145.527 154.488 145.164 154.728 144.726 154.901C144.292 155.07 143.797 155.154 143.24 155.154ZM148.165 155V147.364H149.602V148.577H149.682C149.821 148.166 150.066 147.843 150.417 147.607C150.772 147.369 151.173 147.249 151.621 147.249C151.713 147.249 151.823 147.253 151.949 147.259C152.078 147.266 152.179 147.274 152.252 147.284V148.706C152.192 148.689 152.086 148.671 151.934 148.651C151.781 148.628 151.629 148.616 151.476 148.616C151.125 148.616 150.812 148.691 150.537 148.84C150.265 148.986 150.05 149.19 149.89 149.452C149.731 149.71 149.652 150.005 149.652 150.337V155H148.165ZM156.556 155.154C155.804 155.154 155.156 154.993 154.612 154.672C154.072 154.347 153.654 153.891 153.359 153.305C153.068 152.715 152.922 152.024 152.922 151.232C152.922 150.449 153.068 149.76 153.359 149.163C153.654 148.567 154.065 148.101 154.592 147.766C155.123 147.432 155.742 147.264 156.452 147.264C156.883 147.264 157.3 147.335 157.705 147.478C158.109 147.621 158.472 147.844 158.793 148.149C159.115 148.454 159.368 148.85 159.554 149.337C159.74 149.821 159.832 150.41 159.832 151.102V151.629H153.762V150.516H158.376C158.376 150.125 158.296 149.778 158.137 149.477C157.978 149.172 157.754 148.931 157.466 148.756C157.181 148.58 156.846 148.492 156.462 148.492C156.044 148.492 155.679 148.595 155.368 148.8C155.06 149.003 154.821 149.268 154.652 149.596C154.486 149.921 154.403 150.274 154.403 150.655V151.525C154.403 152.035 154.493 152.469 154.672 152.827C154.854 153.185 155.108 153.459 155.433 153.648C155.757 153.833 156.137 153.926 156.571 153.926C156.853 153.926 157.11 153.886 157.342 153.807C157.574 153.724 157.774 153.601 157.943 153.439C158.112 153.277 158.241 153.076 158.331 152.837L159.738 153.091C159.625 153.505 159.423 153.868 159.131 154.18C158.843 154.488 158.48 154.728 158.043 154.901C157.608 155.07 157.113 155.154 156.556 155.154Z" fill="#101940"/>
<line x1="24" y1="175.5" x2="177" y2="175.5" stroke="#E7E8EF"/>
<path d="M47.3327 208.667C47.3327 209.033 47.6327 209.307 47.9993 209.307C48.366 209.307 48.666 208.98 48.666 208.613C48.666 208.247 48.366 207.947 47.9993 207.947C47.6327 207.947 47.3327 208.247 47.3327 208.613V208.667Z" fill="#101940"/>
<path d="M52.286 207.233C52.4193 207.36 52.586 207.427 52.7593 207.427C52.9327 207.427 53.0993 207.36 53.226 207.233C53.486 206.973 53.486 206.553 53.226 206.293L53.1393 206.207C52.8793 205.947 52.4593 205.947 52.1993 206.207C51.9393 206.467 51.9393 206.887 52.1993 207.147L52.286 207.233Z" fill="#101940"/>
<path d="M42.766 207.233C42.8993 207.36 43.066 207.427 43.2393 207.427C43.406 207.427 43.5793 207.36 43.706 207.233L43.7927 207.147C44.0527 206.887 44.0527 206.467 43.7927 206.207C43.5327 205.947 43.1127 205.947 42.8527 206.207L42.766 206.293C42.506 206.553 42.506 206.973 42.766 207.233Z" fill="#101940"/>
<path d="M54.6127 202.667H54.666C55.0327 202.667 55.306 202.367 55.306 202C55.306 201.633 54.9793 201.333 54.6127 201.333C54.246 201.333 53.946 201.633 53.946 202C53.946 202.367 54.246 202.667 54.6127 202.667Z" fill="#101940"/>
<path d="M41.3327 202.667H41.386C41.7527 202.667 42.026 202.367 42.026 202C42.026 201.633 41.6993 201.333 41.3327 201.333C40.966 201.333 40.666 201.633 40.666 202C40.666 202.367 40.966 202.667 41.3327 202.667Z" fill="#101940"/>
<path d="M52.1993 197.8C52.3327 197.927 52.4993 197.993 52.6727 197.993C52.846 197.993 53.0127 197.927 53.1393 197.8L53.226 197.713C53.486 197.453 53.486 197.033 53.226 196.773C52.966 196.513 52.546 196.513 52.286 196.773L52.1993 196.86C51.9393 197.12 51.9393 197.54 52.1993 197.8Z" fill="#101940"/>
<path d="M42.8527 197.8C42.986 197.927 43.1527 197.993 43.326 197.993C43.4927 197.993 43.666 197.927 43.7927 197.793C44.0527 197.533 44.0527 197.113 43.7927 196.853L43.706 196.767C43.446 196.507 43.026 196.507 42.766 196.767C42.506 197.027 42.506 197.447 42.766 197.707L42.8527 197.8Z" fill="#101940"/>
<path d="M47.3327 195.387C47.3327 195.753 47.6327 196.027 47.9993 196.027C48.366 196.027 48.666 195.7 48.666 195.333C48.666 194.967 48.366 194.667 47.9993 194.667C47.6327 194.667 47.3327 194.967 47.3327 195.333V195.387Z" fill="#101940"/>
<path d="M52.666 202C52.666 204.577 50.5767 206.667 47.9993 206.667C45.422 206.667 43.3327 204.577 43.3327 202C43.3327 199.423 45.422 197.333 47.9993 197.333C50.5767 197.333 52.666 199.423 52.666 202Z" fill="#101940"/>
<path d="M64.6165 198.141V196.818H72.4964V198.141H69.3196V207H67.7884V198.141H64.6165ZM74.1831 209.864C73.961 209.864 73.7588 209.845 73.5765 209.809C73.3942 209.776 73.2583 209.739 73.1689 209.7L73.5268 208.482C73.7986 208.554 74.0405 208.586 74.2527 208.576C74.4648 208.566 74.652 208.487 74.8145 208.337C74.9802 208.188 75.126 207.945 75.252 207.607L75.4359 207.099L72.6419 199.364H74.2328L76.1667 205.29H76.2463L78.1802 199.364H79.7761L76.6291 208.019C76.4833 208.417 76.2976 208.753 76.0723 209.028C75.8469 209.307 75.5784 209.516 75.2669 209.655C74.9553 209.794 74.594 209.864 74.1831 209.864ZM81.1731 209.864V199.364H82.6248V200.602H82.7491C82.8353 200.442 82.9596 200.259 83.122 200.05C83.2844 199.841 83.5098 199.659 83.7981 199.503C84.0865 199.344 84.4676 199.264 84.9416 199.264C85.5581 199.264 86.1083 199.42 86.5922 199.732C87.0761 200.043 87.4556 200.492 87.7306 201.079C88.0091 201.665 88.1483 202.371 88.1483 203.197C88.1483 204.022 88.0107 204.73 87.7356 205.32C87.4605 205.906 87.0827 206.359 86.6021 206.677C86.1215 206.992 85.573 207.149 84.9565 207.149C84.4925 207.149 84.113 207.071 83.818 206.915C83.5263 206.76 83.2976 206.577 83.1319 206.369C82.9662 206.16 82.8386 205.974 82.7491 205.812H82.6596V209.864H81.1731ZM82.6298 203.182C82.6298 203.719 82.7077 204.189 82.8635 204.594C83.0192 204.998 83.2446 205.315 83.5396 205.543C83.8346 205.769 84.1958 205.881 84.6234 205.881C85.0675 205.881 85.4387 205.764 85.737 205.528C86.0353 205.29 86.2607 204.967 86.4132 204.559C86.569 204.151 86.6468 203.692 86.6468 203.182C86.6468 202.678 86.5706 202.226 86.4181 201.825C86.269 201.424 86.0436 201.107 85.742 200.875C85.4437 200.643 85.0708 200.527 84.6234 200.527C84.1925 200.527 83.8279 200.638 83.5297 200.86C83.2347 201.082 83.0109 201.392 82.8585 201.79C82.706 202.187 82.6298 202.652 82.6298 203.182ZM93.1049 207.154C92.3526 207.154 91.7046 206.993 91.161 206.672C90.6208 206.347 90.2032 205.891 89.9082 205.305C89.6165 204.715 89.4707 204.024 89.4707 203.232C89.4707 202.449 89.6165 201.76 89.9082 201.163C90.2032 200.567 90.6142 200.101 91.1412 199.766C91.6715 199.432 92.2913 199.264 93.0005 199.264C93.4314 199.264 93.849 199.335 94.2534 199.478C94.6577 199.621 95.0207 199.844 95.3422 200.149C95.6636 200.454 95.9172 200.85 96.1028 201.337C96.2884 201.821 96.3812 202.41 96.3812 203.102V203.629H90.3109V202.516H94.9245C94.9245 202.125 94.845 201.778 94.6859 201.477C94.5268 201.172 94.3031 200.931 94.0147 200.756C93.7297 200.58 93.3949 200.492 93.0105 200.492C92.5929 200.492 92.2283 200.595 91.9167 200.8C91.6085 201.003 91.3699 201.268 91.2008 201.596C91.0351 201.921 90.9522 202.274 90.9522 202.655V203.525C90.9522 204.035 91.0417 204.469 91.2207 204.827C91.403 205.185 91.6565 205.459 91.9814 205.648C92.3062 205.833 92.6857 205.926 93.1199 205.926C93.4016 205.926 93.6584 205.886 93.8904 205.807C94.1225 205.724 94.323 205.601 94.492 205.439C94.661 205.277 94.7903 205.076 94.8798 204.837L96.2868 205.091C96.1741 205.505 95.9719 205.868 95.6802 206.18C95.3919 206.488 95.0289 206.728 94.5914 206.901C94.1573 207.07 93.6618 207.154 93.1049 207.154ZM105.3 199.364V200.557H101.129V199.364H105.3ZM102.248 197.534H103.734V204.758C103.734 205.046 103.777 205.263 103.863 205.409C103.95 205.552 104.061 205.649 104.197 205.702C104.336 205.752 104.487 205.777 104.649 205.777C104.768 205.777 104.873 205.769 104.962 205.752C105.052 205.736 105.121 205.722 105.171 205.712L105.439 206.94C105.353 206.973 105.231 207.007 105.072 207.04C104.912 207.076 104.714 207.096 104.475 207.099C104.084 207.106 103.719 207.036 103.381 206.891C103.043 206.745 102.77 206.519 102.561 206.214C102.352 205.91 102.248 205.527 102.248 205.066V197.534ZM110.154 207.154C109.401 207.154 108.753 206.993 108.21 206.672C107.67 206.347 107.252 205.891 106.957 205.305C106.665 204.715 106.52 204.024 106.52 203.232C106.52 202.449 106.665 201.76 106.957 201.163C107.252 200.567 107.663 200.101 108.19 199.766C108.72 199.432 109.34 199.264 110.049 199.264C110.48 199.264 110.898 199.335 111.302 199.478C111.707 199.621 112.069 199.844 112.391 200.149C112.712 200.454 112.966 200.85 113.152 201.337C113.337 201.821 113.43 202.41 113.43 203.102V203.629H107.36V202.516H111.973C111.973 202.125 111.894 201.778 111.735 201.477C111.576 201.172 111.352 200.931 111.064 200.756C110.779 200.58 110.444 200.492 110.059 200.492C109.642 200.492 109.277 200.595 108.966 200.8C108.657 201.003 108.419 201.268 108.25 201.596C108.084 201.921 108.001 202.274 108.001 202.655V203.525C108.001 204.035 108.091 204.469 108.27 204.827C108.452 205.185 108.705 205.459 109.03 205.648C109.355 205.833 109.734 205.926 110.169 205.926C110.45 205.926 110.707 205.886 110.939 205.807C111.171 205.724 111.372 205.601 111.541 205.439C111.71 205.277 111.839 205.076 111.929 204.837L113.336 205.091C113.223 205.505 113.021 205.868 112.729 206.18C112.441 206.488 112.078 206.728 111.64 206.901C111.206 207.07 110.711 207.154 110.154 207.154ZM116.075 199.364L117.76 202.337L119.461 199.364H121.086L118.705 203.182L121.106 207H119.48L117.76 204.146L116.045 207H114.414L116.791 203.182L114.444 199.364H116.075ZM126.177 199.364V200.557H122.006V199.364H126.177ZM123.125 197.534H124.611V204.758C124.611 205.046 124.654 205.263 124.74 205.409C124.827 205.552 124.938 205.649 125.074 205.702C125.213 205.752 125.364 205.777 125.526 205.777C125.645 205.777 125.75 205.769 125.839 205.752C125.929 205.736 125.998 205.722 126.048 205.712L126.316 206.94C126.23 206.973 126.108 207.007 125.949 207.04C125.789 207.076 125.591 207.096 125.352 207.099C124.961 207.106 124.596 207.036 124.258 206.891C123.92 206.745 123.647 206.519 123.438 206.214C123.229 205.91 123.125 205.527 123.125 205.066V197.534ZM133.013 202.466V207H131.527V196.818H132.993V200.607H133.088C133.267 200.196 133.54 199.869 133.908 199.627C134.276 199.385 134.757 199.264 135.35 199.264C135.873 199.264 136.331 199.372 136.722 199.587C137.116 199.803 137.421 200.124 137.637 200.552C137.855 200.976 137.965 201.506 137.965 202.143V207H136.478V202.322C136.478 201.762 136.334 201.327 136.046 201.019C135.757 200.708 135.356 200.552 134.843 200.552C134.491 200.552 134.176 200.626 133.898 200.776C133.623 200.925 133.406 201.143 133.247 201.432C133.091 201.717 133.013 202.062 133.013 202.466ZM143.24 207.154C142.487 207.154 141.839 206.993 141.296 206.672C140.756 206.347 140.338 205.891 140.043 205.305C139.751 204.715 139.605 204.024 139.605 203.232C139.605 202.449 139.751 201.76 140.043 201.163C140.338 200.567 140.749 200.101 141.276 199.766C141.806 199.432 142.426 199.264 143.135 199.264C143.566 199.264 143.984 199.335 144.388 199.478C144.792 199.621 145.155 199.844 145.477 200.149C145.798 200.454 146.052 200.85 146.238 201.337C146.423 201.821 146.516 202.41 146.516 203.102V203.629H140.446V202.516H145.059C145.059 202.125 144.98 201.778 144.821 201.477C144.662 201.172 144.438 200.931 144.15 200.756C143.864 200.58 143.53 200.492 143.145 200.492C142.728 200.492 142.363 200.595 142.051 200.8C141.743 201.003 141.505 201.268 141.336 201.596C141.17 201.921 141.087 202.274 141.087 202.655V203.525C141.087 204.035 141.176 204.469 141.355 204.827C141.538 205.185 141.791 205.459 142.116 205.648C142.441 205.833 142.82 205.926 143.255 205.926C143.536 205.926 143.793 205.886 144.025 205.807C144.257 205.724 144.458 205.601 144.627 205.439C144.796 205.277 144.925 205.076 145.015 204.837L146.422 205.091C146.309 205.505 146.107 205.868 145.815 206.18C145.527 206.488 145.164 206.728 144.726 206.901C144.292 207.07 143.797 207.154 143.24 207.154ZM148.165 207V199.364H149.602V200.577H149.682C149.821 200.166 150.066 199.843 150.417 199.607C150.772 199.369 151.173 199.249 151.621 199.249C151.713 199.249 151.823 199.253 151.949 199.259C152.078 199.266 152.179 199.274 152.252 199.284V200.706C152.192 200.689 152.086 200.671 151.934 200.651C151.781 200.628 151.629 200.616 151.476 200.616C151.125 200.616 150.812 200.691 150.537 200.84C150.265 200.986 150.05 201.19 149.89 201.452C149.731 201.71 149.652 202.005 149.652 202.337V207H148.165ZM156.556 207.154C155.804 207.154 155.156 206.993 154.612 206.672C154.072 206.347 153.654 205.891 153.359 205.305C153.068 204.715 152.922 204.024 152.922 203.232C152.922 202.449 153.068 201.76 153.359 201.163C153.654 200.567 154.065 200.101 154.592 199.766C155.123 199.432 155.742 199.264 156.452 199.264C156.883 199.264 157.3 199.335 157.705 199.478C158.109 199.621 158.472 199.844 158.793 200.149C159.115 200.454 159.368 200.85 159.554 201.337C159.74 201.821 159.832 202.41 159.832 203.102V203.629H153.762V202.516H158.376C158.376 202.125 158.296 201.778 158.137 201.477C157.978 201.172 157.754 200.931 157.466 200.756C157.181 200.58 156.846 200.492 156.462 200.492C156.044 200.492 155.679 200.595 155.368 200.8C155.06 201.003 154.821 201.268 154.652 201.596C154.486 201.921 154.403 202.274 154.403 202.655V203.525C154.403 204.035 154.493 204.469 154.672 204.827C154.854 205.185 155.108 205.459 155.433 205.648C155.757 205.833 156.137 205.926 156.571 205.926C156.853 205.926 157.11 205.886 157.342 205.807C157.574 205.724 157.774 205.601 157.943 205.439C158.112 205.277 158.241 205.076 158.331 204.837L159.738 205.091C159.625 205.505 159.423 205.868 159.131 206.18C158.843 206.488 158.48 206.728 158.043 206.901C157.608 207.07 157.113 207.154 156.556 207.154Z" fill="#101940"/>
<path d="M47.3327 244.667C47.3327 245.033 47.6327 245.307 47.9993 245.307C48.366 245.307 48.666 244.98 48.666 244.613C48.666 244.247 48.366 243.947 47.9993 243.947C47.6327 243.947 47.3327 244.247 47.3327 244.613V244.667Z" fill="#101940"/>
<path d="M52.286 243.233C52.4193 243.36 52.586 243.427 52.7593 243.427C52.9327 243.427 53.0993 243.36 53.226 243.233C53.486 242.973 53.486 242.553 53.226 242.293L53.1393 242.207C52.8793 241.947 52.4593 241.947 52.1993 242.207C51.9393 242.467 51.9393 242.887 52.1993 243.147L52.286 243.233Z" fill="#101940"/>
<path d="M42.766 243.233C42.8993 243.36 43.066 243.427 43.2393 243.427C43.406 243.427 43.5793 243.36 43.706 243.233L43.7927 243.147C44.0527 242.887 44.0527 242.467 43.7927 242.207C43.5327 241.947 43.1127 241.947 42.8527 242.207L42.766 242.293C42.506 242.553 42.506 242.973 42.766 243.233Z" fill="#101940"/>
<path d="M54.6127 238.667H54.666C55.0327 238.667 55.306 238.367 55.306 238C55.306 237.633 54.9793 237.333 54.6127 237.333C54.246 237.333 53.946 237.633 53.946 238C53.946 238.367 54.246 238.667 54.6127 238.667Z" fill="#101940"/>
<path d="M41.3327 238.667H41.386C41.7527 238.667 42.026 238.367 42.026 238C42.026 237.633 41.6993 237.333 41.3327 237.333C40.966 237.333 40.666 237.633 40.666 238C40.666 238.367 40.966 238.667 41.3327 238.667Z" fill="#101940"/>
<path d="M52.1993 233.8C52.3327 233.927 52.4993 233.993 52.6727 233.993C52.846 233.993 53.0127 233.927 53.1393 233.8L53.226 233.713C53.486 233.453 53.486 233.033 53.226 232.773C52.966 232.513 52.546 232.513 52.286 232.773L52.1993 232.86C51.9393 233.12 51.9393 233.54 52.1993 233.8Z" fill="#101940"/>
<path d="M42.8527 233.8C42.986 233.927 43.1527 233.993 43.326 233.993C43.4927 233.993 43.666 233.927 43.7927 233.793C44.0527 233.533 44.0527 233.113 43.7927 232.853L43.706 232.767C43.446 232.507 43.026 232.507 42.766 232.767C42.506 233.027 42.506 233.447 42.766 233.707L42.8527 233.8Z" fill="#101940"/>
<path d="M47.3327 231.387C47.3327 231.753 47.6327 232.027 47.9993 232.027C48.366 232.027 48.666 231.7 48.666 231.333C48.666 230.967 48.366 230.667 47.9993 230.667C47.6327 230.667 47.3327 230.967 47.3327 231.333V231.387Z" fill="#101940"/>
<path d="M52.666 238C52.666 240.577 50.5767 242.667 47.9993 242.667C45.422 242.667 43.3327 240.577 43.3327 238C43.3327 235.423 45.422 233.333 47.9993 233.333C50.5767 233.333 52.666 235.423 52.666 238Z" fill="#101940"/>
<path d="M64.6165 234.141V232.818H72.4964V234.141H69.3196V243H67.7884V234.141H64.6165ZM74.1831 245.864C73.961 245.864 73.7588 245.845 73.5765 245.809C73.3942 245.776 73.2583 245.739 73.1689 245.7L73.5268 244.482C73.7986 244.554 74.0405 244.586 74.2527 244.576C74.4648 244.566 74.652 244.487 74.8145 244.337C74.9802 244.188 75.126 243.945 75.252 243.607L75.4359 243.099L72.6419 235.364H74.2328L76.1667 241.29H76.2463L78.1802 235.364H79.7761L76.6291 244.019C76.4833 244.417 76.2976 244.753 76.0723 245.028C75.8469 245.307 75.5784 245.516 75.2669 245.655C74.9553 245.794 74.594 245.864 74.1831 245.864ZM81.1731 245.864V235.364H82.6248V236.602H82.7491C82.8353 236.442 82.9596 236.259 83.122 236.05C83.2844 235.841 83.5098 235.659 83.7981 235.503C84.0865 235.344 84.4676 235.264 84.9416 235.264C85.5581 235.264 86.1083 235.42 86.5922 235.732C87.0761 236.043 87.4556 236.492 87.7306 237.079C88.0091 237.665 88.1483 238.371 88.1483 239.197C88.1483 240.022 88.0107 240.73 87.7356 241.32C87.4605 241.906 87.0827 242.359 86.6021 242.677C86.1215 242.992 85.573 243.149 84.9565 243.149C84.4925 243.149 84.113 243.071 83.818 242.915C83.5263 242.76 83.2976 242.577 83.1319 242.369C82.9662 242.16 82.8386 241.974 82.7491 241.812H82.6596V245.864H81.1731ZM82.6298 239.182C82.6298 239.719 82.7077 240.189 82.8635 240.594C83.0192 240.998 83.2446 241.315 83.5396 241.543C83.8346 241.769 84.1958 241.881 84.6234 241.881C85.0675 241.881 85.4387 241.764 85.737 241.528C86.0353 241.29 86.2607 240.967 86.4132 240.559C86.569 240.151 86.6468 239.692 86.6468 239.182C86.6468 238.678 86.5706 238.226 86.4181 237.825C86.269 237.424 86.0436 237.107 85.742 236.875C85.4437 236.643 85.0708 236.527 84.6234 236.527C84.1925 236.527 83.8279 236.638 83.5297 236.86C83.2347 237.082 83.0109 237.392 82.8585 237.79C82.706 238.187 82.6298 238.652 82.6298 239.182ZM93.1049 243.154C92.3526 243.154 91.7046 242.993 91.161 242.672C90.6208 242.347 90.2032 241.891 89.9082 241.305C89.6165 240.715 89.4707 240.024 89.4707 239.232C89.4707 238.449 89.6165 237.76 89.9082 237.163C90.2032 236.567 90.6142 236.101 91.1412 235.766C91.6715 235.432 92.2913 235.264 93.0005 235.264C93.4314 235.264 93.849 235.335 94.2534 235.478C94.6577 235.621 95.0207 235.844 95.3422 236.149C95.6636 236.454 95.9172 236.85 96.1028 237.337C96.2884 237.821 96.3812 238.41 96.3812 239.102V239.629H90.3109V238.516H94.9245C94.9245 238.125 94.845 237.778 94.6859 237.477C94.5268 237.172 94.3031 236.931 94.0147 236.756C93.7297 236.58 93.3949 236.492 93.0105 236.492C92.5929 236.492 92.2283 236.595 91.9167 236.8C91.6085 237.003 91.3699 237.268 91.2008 237.596C91.0351 237.921 90.9522 238.274 90.9522 238.655V239.525C90.9522 240.035 91.0417 240.469 91.2207 240.827C91.403 241.185 91.6565 241.459 91.9814 241.648C92.3062 241.833 92.6857 241.926 93.1199 241.926C93.4016 241.926 93.6584 241.886 93.8904 241.807C94.1225 241.724 94.323 241.601 94.492 241.439C94.661 241.277 94.7903 241.076 94.8798 240.837L96.2868 241.091C96.1741 241.505 95.9719 241.868 95.6802 242.18C95.3919 242.488 95.0289 242.728 94.5914 242.901C94.1573 243.07 93.6618 243.154 93.1049 243.154ZM105.3 235.364V236.557H101.129V235.364H105.3ZM102.248 233.534H103.734V240.758C103.734 241.046 103.777 241.263 103.863 241.409C103.95 241.552 104.061 241.649 104.197 241.702C104.336 241.752 104.487 241.777 104.649 241.777C104.768 241.777 104.873 241.769 104.962 241.752C105.052 241.736 105.121 241.722 105.171 241.712L105.439 242.94C105.353 242.973 105.231 243.007 105.072 243.04C104.912 243.076 104.714 243.096 104.475 243.099C104.084 243.106 103.719 243.036 103.381 242.891C103.043 242.745 102.77 242.519 102.561 242.214C102.352 241.91 102.248 241.527 102.248 241.066V233.534ZM110.154 243.154C109.401 243.154 108.753 242.993 108.21 242.672C107.67 242.347 107.252 241.891 106.957 241.305C106.665 240.715 106.52 240.024 106.52 239.232C106.52 238.449 106.665 237.76 106.957 237.163C107.252 236.567 107.663 236.101 108.19 235.766C108.72 235.432 109.34 235.264 110.049 235.264C110.48 235.264 110.898 235.335 111.302 235.478C111.707 235.621 112.069 235.844 112.391 236.149C112.712 236.454 112.966 236.85 113.152 237.337C113.337 237.821 113.43 238.41 113.43 239.102V239.629H107.36V238.516H111.973C111.973 238.125 111.894 237.778 111.735 237.477C111.576 237.172 111.352 236.931 111.064 236.756C110.779 236.58 110.444 236.492 110.059 236.492C109.642 236.492 109.277 236.595 108.966 236.8C108.657 237.003 108.419 237.268 108.25 237.596C108.084 237.921 108.001 238.274 108.001 238.655V239.525C108.001 240.035 108.091 240.469 108.27 240.827C108.452 241.185 108.705 241.459 109.03 241.648C109.355 241.833 109.734 241.926 110.169 241.926C110.45 241.926 110.707 241.886 110.939 241.807C111.171 241.724 111.372 241.601 111.541 241.439C111.71 241.277 111.839 241.076 111.929 240.837L113.336 241.091C113.223 241.505 113.021 241.868 112.729 242.18C112.441 242.488 112.078 242.728 111.64 242.901C111.206 243.07 110.711 243.154 110.154 243.154ZM116.075 235.364L117.76 238.337L119.461 235.364H121.086L118.705 239.182L121.106 243H119.48L117.76 240.146L116.045 243H114.414L116.791 239.182L114.444 235.364H116.075ZM126.177 235.364V236.557H122.006V235.364H126.177ZM123.125 233.534H124.611V240.758C124.611 241.046 124.654 241.263 124.74 241.409C124.827 241.552 124.938 241.649 125.074 241.702C125.213 241.752 125.364 241.777 125.526 241.777C125.645 241.777 125.75 241.769 125.839 241.752C125.929 241.736 125.998 241.722 126.048 241.712L126.316 242.94C126.23 242.973 126.108 243.007 125.949 243.04C125.789 243.076 125.591 243.096 125.352 243.099C124.961 243.106 124.596 243.036 124.258 242.891C123.92 242.745 123.647 242.519 123.438 242.214C123.229 241.91 123.125 241.527 123.125 241.066V233.534ZM133.013 238.466V243H131.527V232.818H132.993V236.607H133.088C133.267 236.196 133.54 235.869 133.908 235.627C134.276 235.385 134.757 235.264 135.35 235.264C135.873 235.264 136.331 235.372 136.722 235.587C137.116 235.803 137.421 236.124 137.637 236.552C137.855 236.976 137.965 237.506 137.965 238.143V243H136.478V238.322C136.478 237.762 136.334 237.327 136.046 237.019C135.757 236.708 135.356 236.552 134.843 236.552C134.491 236.552 134.176 236.626 133.898 236.776C133.623 236.925 133.406 237.143 133.247 237.432C133.091 237.717 133.013 238.062 133.013 238.466ZM143.24 243.154C142.487 243.154 141.839 242.993 141.296 242.672C140.756 242.347 140.338 241.891 140.043 241.305C139.751 240.715 139.605 240.024 139.605 239.232C139.605 238.449 139.751 237.76 140.043 237.163C140.338 236.567 140.749 236.101 141.276 235.766C141.806 235.432 142.426 235.264 143.135 235.264C143.566 235.264 143.984 235.335 144.388 235.478C144.792 235.621 145.155 235.844 145.477 236.149C145.798 236.454 146.052 236.85 146.238 237.337C146.423 237.821 146.516 238.41 146.516 239.102V239.629H140.446V238.516H145.059C145.059 238.125 144.98 237.778 144.821 237.477C144.662 237.172 144.438 236.931 144.15 236.756C143.864 236.58 143.53 236.492 143.145 236.492C142.728 236.492 142.363 236.595 142.051 236.8C141.743 237.003 141.505 237.268 141.336 237.596C141.17 237.921 141.087 238.274 141.087 238.655V239.525C141.087 240.035 141.176 240.469 141.355 240.827C141.538 241.185 141.791 241.459 142.116 241.648C142.441 241.833 142.82 241.926 143.255 241.926C143.536 241.926 143.793 241.886 144.025 241.807C144.257 241.724 144.458 241.601 144.627 241.439C144.796 241.277 144.925 241.076 145.015 240.837L146.422 241.091C146.309 241.505 146.107 241.868 145.815 242.18C145.527 242.488 145.164 242.728 144.726 242.901C144.292 243.07 143.797 243.154 143.24 243.154ZM148.165 243V235.364H149.602V236.577H149.682C149.821 236.166 150.066 235.843 150.417 235.607C150.772 235.369 151.173 235.249 151.621 235.249C151.713 235.249 151.823 235.253 151.949 235.259C152.078 235.266 152.179 235.274 152.252 235.284V236.706C152.192 236.689 152.086 236.671 151.934 236.651C151.781 236.628 151.629 236.616 151.476 236.616C151.125 236.616 150.812 236.691 150.537 236.84C150.265 236.986 150.05 237.19 149.89 237.452C149.731 237.71 149.652 238.005 149.652 238.337V243H148.165ZM156.556 243.154C155.804 243.154 155.156 242.993 154.612 242.672C154.072 242.347 153.654 241.891 153.359 241.305C153.068 240.715 152.922 240.024 152.922 239.232C152.922 238.449 153.068 237.76 153.359 237.163C153.654 236.567 154.065 236.101 154.592 235.766C155.123 235.432 155.742 235.264 156.452 235.264C156.883 235.264 157.3 235.335 157.705 235.478C158.109 235.621 158.472 235.844 158.793 236.149C159.115 236.454 159.368 236.85 159.554 237.337C159.74 237.821 159.832 238.41 159.832 239.102V239.629H153.762V238.516H158.376C158.376 238.125 158.296 237.778 158.137 237.477C157.978 237.172 157.754 236.931 157.466 236.756C157.181 236.58 156.846 236.492 156.462 236.492C156.044 236.492 155.679 236.595 155.368 236.8C155.06 237.003 154.821 237.268 154.652 237.596C154.486 237.921 154.403 238.274 154.403 238.655V239.525C154.403 240.035 154.493 240.469 154.672 240.827C154.854 241.185 155.108 241.459 155.433 241.648C155.757 241.833 156.137 241.926 156.571 241.926C156.853 241.926 157.11 241.886 157.342 241.807C157.574 241.724 157.774 241.601 157.943 241.439C158.112 241.277 158.241 241.076 158.331 240.837L159.738 241.091C159.625 241.505 159.423 241.868 159.131 242.18C158.843 242.488 158.48 242.728 158.043 242.901C157.608 243.07 157.113 243.154 156.556 243.154Z" fill="#101940"/>
<path d="M47.3327 280.667C47.3327 281.033 47.6327 281.307 47.9993 281.307C48.366 281.307 48.666 280.98 48.666 280.613C48.666 280.247 48.366 279.947 47.9993 279.947C47.6327 279.947 47.3327 280.247 47.3327 280.613V280.667Z" fill="#101940"/>
<path d="M52.286 279.233C52.4193 279.36 52.586 279.427 52.7593 279.427C52.9327 279.427 53.0993 279.36 53.226 279.233C53.486 278.973 53.486 278.553 53.226 278.293L53.1393 278.207C52.8793 277.947 52.4593 277.947 52.1993 278.207C51.9393 278.467 51.9393 278.887 52.1993 279.147L52.286 279.233Z" fill="#101940"/>
<path d="M42.766 279.233C42.8993 279.36 43.066 279.427 43.2393 279.427C43.406 279.427 43.5793 279.36 43.706 279.233L43.7927 279.147C44.0527 278.887 44.0527 278.467 43.7927 278.207C43.5327 277.947 43.1127 277.947 42.8527 278.207L42.766 278.293C42.506 278.553 42.506 278.973 42.766 279.233Z" fill="#101940"/>
<path d="M54.6127 274.667H54.666C55.0327 274.667 55.306 274.367 55.306 274C55.306 273.633 54.9793 273.333 54.6127 273.333C54.246 273.333 53.946 273.633 53.946 274C53.946 274.367 54.246 274.667 54.6127 274.667Z" fill="#101940"/>
<path d="M41.3327 274.667H41.386C41.7527 274.667 42.026 274.367 42.026 274C42.026 273.633 41.6993 273.333 41.3327 273.333C40.966 273.333 40.666 273.633 40.666 274C40.666 274.367 40.966 274.667 41.3327 274.667Z" fill="#101940"/>
<path d="M52.1993 269.8C52.3327 269.927 52.4993 269.993 52.6727 269.993C52.846 269.993 53.0127 269.927 53.1393 269.8L53.226 269.713C53.486 269.453 53.486 269.033 53.226 268.773C52.966 268.513 52.546 268.513 52.286 268.773L52.1993 268.86C51.9393 269.12 51.9393 269.54 52.1993 269.8Z" fill="#101940"/>
<path d="M42.8527 269.8C42.986 269.927 43.1527 269.993 43.326 269.993C43.4927 269.993 43.666 269.927 43.7927 269.793C44.0527 269.533 44.0527 269.113 43.7927 268.853L43.706 268.767C43.446 268.507 43.026 268.507 42.766 268.767C42.506 269.027 42.506 269.447 42.766 269.707L42.8527 269.8Z" fill="#101940"/>
<path d="M47.3327 267.387C47.3327 267.753 47.6327 268.027 47.9993 268.027C48.366 268.027 48.666 267.7 48.666 267.333C48.666 266.967 48.366 266.667 47.9993 266.667C47.6327 266.667 47.3327 266.967 47.3327 267.333V267.387Z" fill="#101940"/>
<path d="M52.666 274C52.666 276.577 50.5767 278.667 47.9993 278.667C45.422 278.667 43.3327 276.577 43.3327 274C43.3327 271.423 45.422 269.333 47.9993 269.333C50.5767 269.333 52.666 271.423 52.666 274Z" fill="#101940"/>
<path d="M64.6165 270.141V268.818H72.4964V270.141H69.3196V279H67.7884V270.141H64.6165ZM74.1831 281.864C73.961 281.864 73.7588 281.845 73.5765 281.809C73.3942 281.776 73.2583 281.739 73.1689 281.7L73.5268 280.482C73.7986 280.554 74.0405 280.586 74.2527 280.576C74.4648 280.566 74.652 280.487 74.8145 280.337C74.9802 280.188 75.126 279.945 75.252 279.607L75.4359 279.099L72.6419 271.364H74.2328L76.1667 277.29H76.2463L78.1802 271.364H79.7761L76.6291 280.019C76.4833 280.417 76.2976 280.753 76.0723 281.028C75.8469 281.307 75.5784 281.516 75.2669 281.655C74.9553 281.794 74.594 281.864 74.1831 281.864ZM81.1731 281.864V271.364H82.6248V272.602H82.7491C82.8353 272.442 82.9596 272.259 83.122 272.05C83.2844 271.841 83.5098 271.659 83.7981 271.503C84.0865 271.344 84.4676 271.264 84.9416 271.264C85.5581 271.264 86.1083 271.42 86.5922 271.732C87.0761 272.043 87.4556 272.492 87.7306 273.079C88.0091 273.665 88.1483 274.371 88.1483 275.197C88.1483 276.022 88.0107 276.73 87.7356 277.32C87.4605 277.906 87.0827 278.359 86.6021 278.677C86.1215 278.992 85.573 279.149 84.9565 279.149C84.4925 279.149 84.113 279.071 83.818 278.915C83.5263 278.76 83.2976 278.577 83.1319 278.369C82.9662 278.16 82.8386 277.974 82.7491 277.812H82.6596V281.864H81.1731ZM82.6298 275.182C82.6298 275.719 82.7077 276.189 82.8635 276.594C83.0192 276.998 83.2446 277.315 83.5396 277.543C83.8346 277.769 84.1958 277.881 84.6234 277.881C85.0675 277.881 85.4387 277.764 85.737 277.528C86.0353 277.29 86.2607 276.967 86.4132 276.559C86.569 276.151 86.6468 275.692 86.6468 275.182C86.6468 274.678 86.5706 274.226 86.4181 273.825C86.269 273.424 86.0436 273.107 85.742 272.875C85.4437 272.643 85.0708 272.527 84.6234 272.527C84.1925 272.527 83.8279 272.638 83.5297 272.86C83.2347 273.082 83.0109 273.392 82.8585 273.79C82.706 274.187 82.6298 274.652 82.6298 275.182ZM93.1049 279.154C92.3526 279.154 91.7046 278.993 91.161 278.672C90.6208 278.347 90.2032 277.891 89.9082 277.305C89.6165 276.715 89.4707 276.024 89.4707 275.232C89.4707 274.449 89.6165 273.76 89.9082 273.163C90.2032 272.567 90.6142 272.101 91.1412 271.766C91.6715 271.432 92.2913 271.264 93.0005 271.264C93.4314 271.264 93.849 271.335 94.2534 271.478C94.6577 271.621 95.0207 271.844 95.3422 272.149C95.6636 272.454 95.9172 272.85 96.1028 273.337C96.2884 273.821 96.3812 274.41 96.3812 275.102V275.629H90.3109V274.516H94.9245C94.9245 274.125 94.845 273.778 94.6859 273.477C94.5268 273.172 94.3031 272.931 94.0147 272.756C93.7297 272.58 93.3949 272.492 93.0105 272.492C92.5929 272.492 92.2283 272.595 91.9167 272.8C91.6085 273.003 91.3699 273.268 91.2008 273.596C91.0351 273.921 90.9522 274.274 90.9522 274.655V275.525C90.9522 276.035 91.0417 276.469 91.2207 276.827C91.403 277.185 91.6565 277.459 91.9814 277.648C92.3062 277.833 92.6857 277.926 93.1199 277.926C93.4016 277.926 93.6584 277.886 93.8904 277.807C94.1225 277.724 94.323 277.601 94.492 277.439C94.661 277.277 94.7903 277.076 94.8798 276.837L96.2868 277.091C96.1741 277.505 95.9719 277.868 95.6802 278.18C95.3919 278.488 95.0289 278.728 94.5914 278.901C94.1573 279.07 93.6618 279.154 93.1049 279.154ZM105.3 271.364V272.557H101.129V271.364H105.3ZM102.248 269.534H103.734V276.758C103.734 277.046 103.777 277.263 103.863 277.409C103.95 277.552 104.061 277.649 104.197 277.702C104.336 277.752 104.487 277.777 104.649 277.777C104.768 277.777 104.873 277.769 104.962 277.752C105.052 277.736 105.121 277.722 105.171 277.712L105.439 278.94C105.353 278.973 105.231 279.007 105.072 279.04C104.912 279.076 104.714 279.096 104.475 279.099C104.084 279.106 103.719 279.036 103.381 278.891C103.043 278.745 102.77 278.519 102.561 278.214C102.352 277.91 102.248 277.527 102.248 277.066V269.534ZM110.154 279.154C109.401 279.154 108.753 278.993 108.21 278.672C107.67 278.347 107.252 277.891 106.957 277.305C106.665 276.715 106.52 276.024 106.52 275.232C106.52 274.449 106.665 273.76 106.957 273.163C107.252 272.567 107.663 272.101 108.19 271.766C108.72 271.432 109.34 271.264 110.049 271.264C110.48 271.264 110.898 271.335 111.302 271.478C111.707 271.621 112.069 271.844 112.391 272.149C112.712 272.454 112.966 272.85 113.152 273.337C113.337 273.821 113.43 274.41 113.43 275.102V275.629H107.36V274.516H111.973C111.973 274.125 111.894 273.778 111.735 273.477C111.576 273.172 111.352 272.931 111.064 272.756C110.779 272.58 110.444 272.492 110.059 272.492C109.642 272.492 109.277 272.595 108.966 272.8C108.657 273.003 108.419 273.268 108.25 273.596C108.084 273.921 108.001 274.274 108.001 274.655V275.525C108.001 276.035 108.091 276.469 108.27 276.827C108.452 277.185 108.705 277.459 109.03 277.648C109.355 277.833 109.734 277.926 110.169 277.926C110.45 277.926 110.707 277.886 110.939 277.807C111.171 277.724 111.372 277.601 111.541 277.439C111.71 277.277 111.839 277.076 111.929 276.837L113.336 277.091C113.223 277.505 113.021 277.868 112.729 278.18C112.441 278.488 112.078 278.728 111.64 278.901C111.206 279.07 110.711 279.154 110.154 279.154ZM116.075 271.364L117.76 274.337L119.461 271.364H121.086L118.705 275.182L121.106 279H119.48L117.76 276.146L116.045 279H114.414L116.791 275.182L114.444 271.364H116.075ZM126.177 271.364V272.557H122.006V271.364H126.177ZM123.125 269.534H124.611V276.758C124.611 277.046 124.654 277.263 124.74 277.409C124.827 277.552 124.938 277.649 125.074 277.702C125.213 277.752 125.364 277.777 125.526 277.777C125.645 277.777 125.75 277.769 125.839 277.752C125.929 277.736 125.998 277.722 126.048 277.712L126.316 278.94C126.23 278.973 126.108 279.007 125.949 279.04C125.789 279.076 125.591 279.096 125.352 279.099C124.961 279.106 124.596 279.036 124.258 278.891C123.92 278.745 123.647 278.519 123.438 278.214C123.229 277.91 123.125 277.527 123.125 277.066V269.534ZM133.013 274.466V279H131.527V268.818H132.993V272.607H133.088C133.267 272.196 133.54 271.869 133.908 271.627C134.276 271.385 134.757 271.264 135.35 271.264C135.873 271.264 136.331 271.372 136.722 271.587C137.116 271.803 137.421 272.124 137.637 272.552C137.855 272.976 137.965 273.506 137.965 274.143V279H136.478V274.322C136.478 273.762 136.334 273.327 136.046 273.019C135.757 272.708 135.356 272.552 134.843 272.552C134.491 272.552 134.176 272.626 133.898 272.776C133.623 272.925 133.406 273.143 133.247 273.432C133.091 273.717 133.013 274.062 133.013 274.466ZM143.24 279.154C142.487 279.154 141.839 278.993 141.296 278.672C140.756 278.347 140.338 277.891 140.043 277.305C139.751 276.715 139.605 276.024 139.605 275.232C139.605 274.449 139.751 273.76 140.043 273.163C140.338 272.567 140.749 272.101 141.276 271.766C141.806 271.432 142.426 271.264 143.135 271.264C143.566 271.264 143.984 271.335 144.388 271.478C144.792 271.621 145.155 271.844 145.477 272.149C145.798 272.454 146.052 272.85 146.238 273.337C146.423 273.821 146.516 274.41 146.516 275.102V275.629H140.446V274.516H145.059C145.059 274.125 144.98 273.778 144.821 273.477C144.662 273.172 144.438 272.931 144.15 272.756C143.864 272.58 143.53 272.492 143.145 272.492C142.728 272.492 142.363 272.595 142.051 272.8C141.743 273.003 141.505 273.268 141.336 273.596C141.17 273.921 141.087 274.274 141.087 274.655V275.525C141.087 276.035 141.176 276.469 141.355 276.827C141.538 277.185 141.791 277.459 142.116 277.648C142.441 277.833 142.82 277.926 143.255 277.926C143.536 277.926 143.793 277.886 144.025 277.807C144.257 277.724 144.458 277.601 144.627 277.439C144.796 277.277 144.925 277.076 145.015 276.837L146.422 277.091C146.309 277.505 146.107 277.868 145.815 278.18C145.527 278.488 145.164 278.728 144.726 278.901C144.292 279.07 143.797 279.154 143.24 279.154ZM148.165 279V271.364H149.602V272.577H149.682C149.821 272.166 150.066 271.843 150.417 271.607C150.772 271.369 151.173 271.249 151.621 271.249C151.713 271.249 151.823 271.253 151.949 271.259C152.078 271.266 152.179 271.274 152.252 271.284V272.706C152.192 272.689 152.086 272.671 151.934 272.651C151.781 272.628 151.629 272.616 151.476 272.616C151.125 272.616 150.812 272.691 150.537 272.84C150.265 272.986 150.05 273.19 149.89 273.452C149.731 273.71 149.652 274.005 149.652 274.337V279H148.165ZM156.556 279.154C155.804 279.154 155.156 278.993 154.612 278.672C154.072 278.347 153.654 277.891 153.359 277.305C153.068 276.715 152.922 276.024 152.922 275.232C152.922 274.449 153.068 273.76 153.359 273.163C153.654 272.567 154.065 272.101 154.592 271.766C155.123 271.432 155.742 271.264 156.452 271.264C156.883 271.264 157.3 271.335 157.705 271.478C158.109 271.621 158.472 271.844 158.793 272.149C159.115 272.454 159.368 272.85 159.554 273.337C159.74 273.821 159.832 274.41 159.832 275.102V275.629H153.762V274.516H158.376C158.376 274.125 158.296 273.778 158.137 273.477C157.978 273.172 157.754 272.931 157.466 272.756C157.181 272.58 156.846 272.492 156.462 272.492C156.044 272.492 155.679 272.595 155.368 272.8C155.06 273.003 154.821 273.268 154.652 273.596C154.486 273.921 154.403 274.274 154.403 274.655V275.525C154.403 276.035 154.493 276.469 154.672 276.827C154.854 277.185 155.108 277.459 155.433 277.648C155.757 277.833 156.137 277.926 156.571 277.926C156.853 277.926 157.11 277.886 157.342 277.807C157.574 277.724 157.774 277.601 157.943 277.439C158.112 277.277 158.241 277.076 158.331 276.837L159.738 277.091C159.625 277.505 159.423 277.868 159.131 278.18C158.843 278.488 158.48 278.728 158.043 278.901C157.608 279.07 157.113 279.154 156.556 279.154Z" fill="#101940"/>
</g>
<defs>
<filter id="filter0_dd_1148_15397" x="0" y="0" width="201" height="384" filterUnits="userSpaceOnUse" color-interpolation-filters="sRGB">
<feFlood flood-opacity="0" result="BackgroundImageFix"/>
<feColorMatrix in="SourceAlpha" type="matrix" values="0 0 0 0 0 0 0 0 0 0 0 0 0 0 0 0 0 0 127 0" result="hardAlpha"/>
<feOffset dy="8"/>
<feGaussianBlur stdDeviation="12"/>
<feComposite in2="hardAlpha" operator="out"/>
<feColorMatrix type="matrix" values="0 0 0 0 0.145098 0 0 0 0 0.113725 0 0 0 0 0.101961 0 0 0 0.15 0"/>
<feBlend mode="normal" in2="BackgroundImageFix" result="effect1_dropShadow_1148_15397"/>
<feColorMatrix in="SourceAlpha" type="matrix" values="0 0 0 0 0 0 0 0 0 0 0 0 0 0 0 0 0 0 127 0" result="hardAlpha"/>
<feOffset dy="1"/>
<feGaussianBlur stdDeviation="2"/>
<feComposite in2="hardAlpha" operator="out"/>
<feColorMatrix type="matrix" values="0 0 0 0 0.145098 0 0 0 0 0.113725 0 0 0 0 0.101961 0 0 0 0.2 0"/>
<feBlend mode="normal" in2="effect1_dropShadow_1148_15397" result="effect2_dropShadow_1148_15397"/>
<feBlend mode="normal" in="SourceGraphic" in2="effect2_dropShadow_1148_15397" result="shape"/>
</filter>
</defs>
</svg>
