<svg width="524" height="381" viewBox="0 0 524 381" fill="none" xmlns="http://www.w3.org/2000/svg">
<rect width="524" height="380.415" fill="#F9F9F9"/>
<mask id="path-1-inside-1_1148_15167" fill="white">
<path d="M17.7441 17.7439H506.256V68.7058H17.7441V17.7439Z"/>
</mask>
<path d="M17.7441 17.7439H506.256V68.7058H17.7441V17.7439Z" fill="white"/>
<path d="M506.256 68.1513H17.7441V69.2603H506.256V68.1513Z" fill="#E7E8EF" mask="url(#path-1-inside-1_1148_15167)"/>
<path d="M31.0527 28.834C31.0527 27.609 32.0458 26.616 33.2707 26.616H51.2707C52.4957 26.616 53.4887 27.609 53.4887 28.834V33.398C53.4887 34.6229 52.4957 35.616 51.2707 35.616H33.2707C32.0458 35.616 31.0527 34.6229 31.0527 33.398V28.834Z" fill="#FFF8D6"/>
<path d="M35.3107 33.6892C34.9531 33.6892 34.6451 33.6128 34.3868 33.46C34.13 33.3056 33.9315 33.089 33.7913 32.8102C33.6527 32.5298 33.5834 32.2014 33.5834 31.8249C33.5834 31.4531 33.6527 31.1255 33.7913 30.8419C33.9315 30.5584 34.1269 30.337 34.3773 30.1779C34.6294 30.0188 34.9239 29.9393 35.2611 29.9393C35.4658 29.9393 35.6643 29.9731 35.8565 30.0409C36.0487 30.1086 36.2212 30.2149 36.374 30.3599C36.5268 30.5048 36.6473 30.693 36.7355 30.9246C36.8237 31.1546 36.8678 31.4342 36.8678 31.7634V32.0139H33.9827V31.4846H36.1755C36.1755 31.2987 36.1377 31.1341 36.0621 30.9908C35.9865 30.8458 35.8801 30.7316 35.7431 30.6481C35.6076 30.5647 35.4485 30.5229 35.2658 30.5229C35.0673 30.5229 34.894 30.5717 34.7459 30.6694C34.5994 30.7655 34.486 30.8915 34.4057 31.0475C34.3269 31.2019 34.2875 31.3696 34.2875 31.5508V31.9643C34.2875 32.2069 34.3301 32.4132 34.4151 32.5834C34.5018 32.7535 34.6223 32.8835 34.7767 32.9733C34.931 33.0615 35.1114 33.1056 35.3178 33.1056C35.4517 33.1056 35.5738 33.0867 35.684 33.0489C35.7943 33.0095 35.8896 32.9512 35.9699 32.874C36.0503 32.7968 36.1117 32.7015 36.1542 32.5881L36.8229 32.7086C36.7694 32.9055 36.6733 33.078 36.5347 33.2261C36.3976 33.3726 36.2251 33.4868 36.0172 33.5687C35.8108 33.649 35.5753 33.6892 35.3107 33.6892ZM41.6143 28.7767V33.616H40.9433L38.4835 30.0669H38.4386V33.616H37.7084V28.7767H38.3842L40.8464 32.3305H40.8913V28.7767H41.6143ZM42.6794 33.616V28.7767H44.4044C44.7808 28.7767 45.0928 28.8452 45.3401 28.9823C45.5874 29.1193 45.7725 29.3068 45.8954 29.5447C46.0182 29.781 46.0797 30.0472 46.0797 30.3433C46.0797 30.6411 46.0174 30.9089 45.893 31.1467C45.7701 31.383 45.5842 31.5705 45.3353 31.7091C45.088 31.8461 44.7769 31.9147 44.402 31.9147H43.2158V31.2956H44.3358C44.5737 31.2956 44.7667 31.2546 44.9147 31.1727C45.0628 31.0892 45.1715 30.9758 45.2408 30.8325C45.3101 30.6891 45.3448 30.5261 45.3448 30.3433C45.3448 30.1606 45.3101 29.9983 45.2408 29.8566C45.1715 29.7148 45.062 29.6037 44.9124 29.5234C44.7643 29.4431 44.569 29.4029 44.3264 29.4029H43.4096V33.616H42.6794ZM49.575 30.048C49.5498 29.8243 49.4458 29.651 49.2631 29.5281C49.0804 29.4037 48.8504 29.3415 48.5731 29.3415C48.3746 29.3415 48.2029 29.373 48.058 29.436C47.9131 29.4974 47.8005 29.5825 47.7201 29.6912C47.6414 29.7983 47.602 29.9204 47.602 30.0574C47.602 30.1724 47.6288 30.2717 47.6823 30.3551C47.7374 30.4386 47.8091 30.5087 47.8973 30.5654C47.9871 30.6206 48.0832 30.667 48.1856 30.7049C48.288 30.7411 48.3865 30.771 48.481 30.7946L48.9536 30.9175C49.1079 30.9553 49.2663 31.0065 49.4285 31.0711C49.5908 31.1357 49.7412 31.2208 49.8798 31.3263C50.0184 31.4318 50.1303 31.5626 50.2154 31.7185C50.302 31.8745 50.3453 32.0612 50.3453 32.2786C50.3453 32.5527 50.2744 32.796 50.1327 33.0087C49.9925 33.2214 49.7885 33.3891 49.5207 33.512C49.2544 33.6349 48.9323 33.6963 48.5542 33.6963C48.1919 33.6963 47.8784 33.6388 47.6138 33.5238C47.3491 33.4088 47.142 33.2458 46.9923 33.0347C46.8427 32.822 46.76 32.57 46.7442 32.2786H47.4767C47.4909 32.4534 47.5476 32.5991 47.6469 32.7157C47.7477 32.8307 47.8761 32.9165 48.032 32.9733C48.1896 33.0284 48.362 33.056 48.5495 33.056C48.7559 33.056 48.9394 33.0237 49.1001 32.9591C49.2623 32.8929 49.3899 32.8015 49.4829 32.685C49.5758 32.5668 49.6223 32.429 49.6223 32.2715C49.6223 32.1281 49.5813 32.0108 49.4994 31.9194C49.4191 31.828 49.3096 31.7524 49.1709 31.6926C49.0339 31.6327 48.8787 31.5799 48.7055 31.5342L48.1336 31.3783C47.7461 31.2727 47.4389 31.1176 47.2121 30.9128C46.9868 30.708 46.8742 30.4371 46.8742 30.0999C46.8742 29.8211 46.9498 29.5777 47.101 29.3698C47.2523 29.1619 47.457 29.0004 47.7154 28.8854C47.9737 28.7688 48.2652 28.7106 48.5897 28.7106C48.9173 28.7106 49.2064 28.7681 49.4569 28.883C49.7089 28.998 49.9074 29.1564 50.0523 29.358C50.1972 29.5581 50.2729 29.788 50.2792 30.048H49.575Z" fill="#8F3700"/>
<path d="M36.2694 43.2852V40.6236H37.7422V46.834H36.2694V44.5273H33.0667V46.834H31.5939V40.6236H33.0667V43.2852H36.2694ZM43.6015 44.9531H39.9995C40.1148 45.5298 40.4786 45.8758 41.1883 45.8758C41.6408 45.8758 41.9868 45.725 42.1199 45.4056H43.4773C43.3353 46.1863 42.5191 46.9671 41.1085 46.9671C39.4583 46.9671 38.5622 45.9024 38.5622 44.5273C38.5622 43.1521 39.476 42.0875 41.1173 42.0875C42.7498 42.0875 43.7434 43.1521 43.6015 44.9531ZM41.1173 43.1344C40.4431 43.1344 40.0793 43.4715 39.9906 44.128H42.2086C42.0844 43.4183 41.7206 43.1344 41.1173 43.1344ZM45.7827 46.9671C44.7802 46.9671 44.1592 46.4791 44.1592 45.4943C44.1592 44.5628 44.7181 44.1014 45.9247 44.1014H47.5305V43.7465C47.5305 43.2941 47.2644 43.1432 46.6078 43.1432C46.0045 43.1432 45.7206 43.2763 45.6674 43.649H44.3987C44.3455 42.4512 45.2327 42.0875 46.6345 42.0875C48.2758 42.0875 48.9589 42.6021 48.9589 43.649V46.834H47.7523L47.6104 46.1863H47.5749C47.2466 46.6832 46.5457 46.9671 45.7827 46.9671ZM46.2973 45.8936H46.3594C47.0248 45.8936 47.5305 45.6185 47.5305 45.1572V44.9709H46.1554C45.8005 44.9709 45.6142 45.1306 45.6142 45.4233C45.6142 45.7072 45.8005 45.8936 46.2973 45.8936ZM53.5096 42.6997V40.5349H54.9469V46.834H53.5362L53.5185 46.2573C53.1459 46.763 52.6047 46.9671 51.9925 46.9671C50.6085 46.9671 49.7301 45.8847 49.7301 44.5273C49.7301 43.1787 50.6085 42.0964 51.9925 42.0964C52.7111 42.0964 53.2967 42.3803 53.7758 43.1876L53.5096 42.6997ZM52.3296 45.7161C53.066 45.7161 53.5273 45.2193 53.5273 44.5273C53.5273 43.8353 53.066 43.3384 52.3296 43.3384C51.5933 43.3384 51.1408 43.8353 51.1408 44.5273C51.1408 45.2193 51.5933 45.7161 52.3296 45.7161ZM57.3585 46.834H55.9301V40.5349H57.3585V46.834ZM59.0747 41.5729C58.5956 41.5729 58.3117 41.2447 58.3117 40.8454C58.3117 40.455 58.5956 40.1179 59.0747 40.1179C59.5538 40.1179 59.8377 40.455 59.8377 40.8454C59.8377 41.2447 59.5538 41.5729 59.0747 41.5729ZM59.7933 46.834H58.3649V42.2206H59.7933V46.834ZM62.219 46.834H60.7906V42.2206H62.1658L62.219 42.8327L62.1037 43.1078C62.4142 42.54 62.9022 42.0875 63.8692 42.0875C65.1734 42.0875 65.7767 42.8948 65.7767 44.199V46.834H64.3394V44.4652C64.3394 43.782 64.0555 43.3384 63.3103 43.3384C62.565 43.3384 62.219 43.782 62.219 44.4652V46.834ZM71.5776 44.9531H67.9756C68.0909 45.5298 68.4547 45.8758 69.1644 45.8758C69.6169 45.8758 69.9629 45.725 70.096 45.4056H71.4534C71.3115 46.1863 70.4952 46.9671 69.0846 46.9671C67.4344 46.9671 66.5383 45.9024 66.5383 44.5273C66.5383 43.1521 67.4522 42.0875 69.0935 42.0875C70.7259 42.0875 71.7196 43.1521 71.5776 44.9531ZM69.0935 43.1344C68.4192 43.1344 68.0555 43.4715 67.9667 44.128H70.1847C70.0605 43.4183 69.6968 43.1344 69.0935 43.1344Z" fill="#101940"/>
<path d="M33.151 57.834H31.5844V52.9947H33.2006C33.6748 52.9947 34.082 53.0916 34.4223 53.2854C34.7625 53.4776 35.0232 53.754 35.2044 54.1148C35.3871 54.4739 35.4785 54.9048 35.4785 55.4073C35.4785 55.9114 35.3863 56.3446 35.202 56.7069C35.0193 57.0692 34.7546 57.348 34.4081 57.5433C34.0615 57.7371 33.6425 57.834 33.151 57.834ZM32.3145 57.196H33.1108C33.4794 57.196 33.7858 57.1267 34.03 56.9881C34.2742 56.8479 34.4569 56.6454 34.5782 56.3808C34.6995 56.1146 34.7601 55.7901 34.7601 55.4073C34.7601 55.0276 34.6995 54.7055 34.5782 54.4408C34.4585 54.1762 34.2797 53.9753 34.0418 53.8383C33.804 53.7012 33.5086 53.6327 33.1557 53.6327H32.3145V57.196ZM37.894 57.9072C37.5364 57.9072 37.2284 57.8308 36.9701 57.678C36.7133 57.5237 36.5148 57.3071 36.3746 57.0282C36.236 56.7478 36.1667 56.4194 36.1667 56.0429C36.1667 55.6711 36.236 55.3435 36.3746 55.0599C36.5148 54.7764 36.7101 54.555 36.9606 54.3959C37.2127 54.2368 37.5072 54.1573 37.8443 54.1573C38.0491 54.1573 38.2476 54.1912 38.4398 54.2589C38.632 54.3266 38.8045 54.433 38.9573 54.5779C39.1101 54.7228 39.2306 54.9111 39.3188 55.1426C39.407 55.3726 39.4511 55.6522 39.4511 55.9815V56.2319H36.566V55.7026H38.7588C38.7588 55.5168 38.721 55.3521 38.6454 55.2088C38.5698 55.0639 38.4634 54.9497 38.3264 54.8662C38.1909 54.7827 38.0318 54.7409 37.8491 54.7409C37.6506 54.7409 37.4773 54.7898 37.3292 54.8874C37.1827 54.9835 37.0693 55.1095 36.989 55.2655C36.9102 55.4199 36.8708 55.5876 36.8708 55.7688V56.1823C36.8708 56.4249 36.9134 56.6313 36.9984 56.8014C37.0851 56.9715 37.2056 57.1015 37.3599 57.1913C37.5143 57.2795 37.6947 57.3236 37.9011 57.3236C38.035 57.3236 38.157 57.3047 38.2673 57.2669C38.3776 57.2275 38.4729 57.1692 38.5532 57.092C38.6336 57.0148 38.695 56.9195 38.7375 56.8061L39.4062 56.9266C39.3527 57.1235 39.2566 57.296 39.118 57.4441C38.9809 57.5906 38.8084 57.7048 38.6005 57.7867C38.3941 57.8671 38.1586 57.9072 37.894 57.9072ZM42.9547 55.0906L42.3144 55.2041C42.2876 55.1221 42.2451 55.0442 42.1868 54.9701C42.1301 54.8961 42.0529 54.8354 41.9552 54.7882C41.8576 54.7409 41.7355 54.7173 41.589 54.7173C41.3889 54.7173 41.2219 54.7622 41.088 54.852C40.9541 54.9402 40.8872 55.0544 40.8872 55.1946C40.8872 55.3159 40.9321 55.4136 41.0219 55.4876C41.1117 55.5616 41.2566 55.6223 41.4566 55.6696L42.0332 55.8019C42.3672 55.8791 42.6161 55.998 42.7799 56.1587C42.9437 56.3194 43.0256 56.5281 43.0256 56.7849C43.0256 57.0022 42.9626 57.196 42.8366 57.3661C42.7121 57.5347 42.5381 57.667 42.3144 57.7631C42.0923 57.8592 41.8347 57.9072 41.5417 57.9072C41.1353 57.9072 40.8037 57.8206 40.5469 57.6473C40.2902 57.4725 40.1326 57.2244 40.0743 56.903L40.7572 56.799C40.7998 56.977 40.8872 57.1117 41.0195 57.2031C41.1518 57.2929 41.3243 57.3378 41.537 57.3378C41.7686 57.3378 41.9536 57.2897 42.0923 57.1936C42.2309 57.096 42.3002 56.977 42.3002 56.8368C42.3002 56.7234 42.2577 56.6281 42.1726 56.5509C42.0891 56.4737 41.9607 56.4154 41.7875 56.3761L41.1731 56.2414C40.8344 56.1642 40.5839 56.0413 40.4217 55.8728C40.261 55.7042 40.1807 55.4908 40.1807 55.2324C40.1807 55.0182 40.2405 54.8307 40.3603 54.67C40.48 54.5094 40.6454 54.3841 40.8565 54.2943C41.0676 54.203 41.3094 54.1573 41.5819 54.1573C41.9741 54.1573 42.2829 54.2424 42.5081 54.4125C42.7334 54.581 42.8823 54.8071 42.9547 55.0906ZM45.3312 57.9072C44.98 57.9072 44.6775 57.8277 44.4239 57.6686C44.1718 57.5079 43.9781 57.2866 43.8426 57.0046C43.7071 56.7226 43.6394 56.3997 43.6394 56.0358C43.6394 55.6672 43.7087 55.3419 43.8473 55.0599C43.986 54.7764 44.1813 54.555 44.4333 54.3959C44.6854 54.2368 44.9823 54.1573 45.3241 54.1573C45.5998 54.1573 45.8456 54.2085 46.0614 54.3109C46.2772 54.4117 46.4513 54.5535 46.5836 54.7362C46.7175 54.9189 46.797 55.1324 46.8222 55.3766H46.1346C46.0968 55.2064 46.0102 55.0599 45.8747 54.9371C45.7408 54.8142 45.5612 54.7527 45.336 54.7527C45.1391 54.7527 44.9666 54.8047 44.8185 54.9087C44.672 55.0111 44.5578 55.1576 44.4759 55.3482C44.3939 55.5372 44.353 55.7609 44.353 56.0193C44.353 56.2839 44.3932 56.5123 44.4735 56.7045C44.5538 56.8967 44.6673 57.0456 44.8138 57.1511C44.9618 57.2566 45.1359 57.3094 45.336 57.3094C45.4699 57.3094 45.5912 57.285 45.6999 57.2362C45.8101 57.1858 45.9023 57.1141 45.9763 57.0211C46.0519 56.9282 46.1047 56.8164 46.1346 56.6856H46.8222C46.797 56.9203 46.7206 57.1298 46.593 57.3141C46.4654 57.4985 46.2945 57.6434 46.0803 57.7489C45.8676 57.8545 45.6179 57.9072 45.3312 57.9072ZM47.5778 57.834V54.2045H48.2607V54.7811H48.2985C48.3646 54.5858 48.4812 54.4322 48.6482 54.3203C48.8167 54.2069 49.0073 54.1502 49.22 54.1502C49.2641 54.1502 49.3161 54.1518 49.376 54.1549C49.4374 54.1581 49.4854 54.162 49.5201 54.1667V54.8425C49.4917 54.8347 49.4413 54.826 49.3689 54.8165C49.2964 54.8055 49.2239 54.8 49.1515 54.8C48.9845 54.8 48.8356 54.8354 48.7049 54.9063C48.5757 54.9756 48.4733 55.0725 48.3977 55.197C48.3221 55.3198 48.2843 55.46 48.2843 55.6176V57.834H47.5778ZM50.1315 57.834V54.2045H50.838V57.834H50.1315ZM50.4883 53.6445C50.3654 53.6445 50.2599 53.6036 50.1717 53.5217C50.085 53.4382 50.0417 53.3389 50.0417 53.2239C50.0417 53.1074 50.085 53.0081 50.1717 52.9262C50.2599 52.8427 50.3654 52.801 50.4883 52.801C50.6112 52.801 50.7159 52.8427 50.8026 52.9262C50.8908 53.0081 50.9349 53.1074 50.9349 53.2239C50.9349 53.3389 50.8908 53.4382 50.8026 53.5217C50.7159 53.6036 50.6112 53.6445 50.4883 53.6445ZM51.7885 59.195V54.2045H52.4785V54.7929H52.5375C52.5785 54.7173 52.6376 54.6299 52.7148 54.5306C52.7919 54.4314 52.8991 54.3447 53.0361 54.2707C53.1732 54.1951 53.3543 54.1573 53.5796 54.1573C53.8726 54.1573 54.1341 54.2313 54.3641 54.3794C54.5941 54.5275 54.7744 54.7409 54.9052 55.0198C55.0375 55.2986 55.1037 55.6341 55.1037 56.0264C55.1037 56.4186 55.0383 56.7549 54.9075 57.0353C54.7768 57.3141 54.5972 57.5292 54.3688 57.6804C54.1404 57.83 53.8797 57.9049 53.5867 57.9049C53.3661 57.9049 53.1858 57.8679 53.0456 57.7938C52.9069 57.7198 52.7982 57.6331 52.7195 57.5339C52.6407 57.4347 52.5801 57.3464 52.5375 57.2692H52.495V59.195H51.7885ZM52.4808 56.0193C52.4808 56.2745 52.5178 56.4981 52.5919 56.6903C52.6659 56.8825 52.773 57.033 52.9132 57.1417C53.0534 57.2488 53.2251 57.3023 53.4284 57.3023C53.6394 57.3023 53.8159 57.2464 53.9577 57.1346C54.0994 57.0211 54.2065 56.8676 54.279 56.6738C54.353 56.48 54.3901 56.2619 54.3901 56.0193C54.3901 55.7798 54.3538 55.5648 54.2814 55.3742C54.2105 55.1836 54.1034 55.0331 53.96 54.9229C53.8182 54.8126 53.641 54.7575 53.4284 54.7575C53.2236 54.7575 53.0503 54.8102 52.9085 54.9158C52.7683 55.0213 52.662 55.1686 52.5895 55.3576C52.5171 55.5467 52.4808 55.7672 52.4808 56.0193ZM57.5894 54.2045V54.7716H55.607V54.2045H57.5894ZM56.1386 53.335H56.8451V56.7683C56.8451 56.9054 56.8656 57.0085 56.9066 57.0779C56.9475 57.1456 57.0003 57.1921 57.0649 57.2173C57.131 57.2409 57.2027 57.2527 57.2799 57.2527C57.3366 57.2527 57.3862 57.2488 57.4288 57.2409C57.4713 57.233 57.5044 57.2267 57.528 57.222L57.6556 57.8056C57.6147 57.8214 57.5564 57.8371 57.4808 57.8529C57.4051 57.8702 57.3106 57.8797 57.1972 57.8812C57.0113 57.8844 56.838 57.8513 56.6774 57.782C56.5167 57.7127 56.3867 57.6056 56.2875 57.4606C56.1882 57.3157 56.1386 57.1338 56.1386 56.9148V53.335ZM58.371 57.834V54.2045H59.0775V57.834H58.371ZM58.7278 53.6445C58.6049 53.6445 58.4994 53.6036 58.4112 53.5217C58.3245 53.4382 58.2812 53.3389 58.2812 53.2239C58.2812 53.1074 58.3245 53.0081 58.4112 52.9262C58.4994 52.8427 58.6049 52.801 58.7278 52.801C58.8507 52.801 58.9554 52.8427 59.0421 52.9262C59.1303 53.0081 59.1744 53.1074 59.1744 53.2239C59.1744 53.3389 59.1303 53.4382 59.0421 53.5217C58.9554 53.6036 58.8507 53.6445 58.7278 53.6445ZM61.5568 57.9072C61.2165 57.9072 60.9196 57.8293 60.666 57.6733C60.4123 57.5174 60.2154 57.2992 60.0752 57.0188C59.935 56.7384 59.8649 56.4107 59.8649 56.0358C59.8649 55.6593 59.935 55.3301 60.0752 55.0481C60.2154 54.7661 60.4123 54.5472 60.666 54.3912C60.9196 54.2353 61.2165 54.1573 61.5568 54.1573C61.897 54.1573 62.194 54.2353 62.4476 54.3912C62.7012 54.5472 62.8981 54.7661 63.0383 55.0481C63.1785 55.3301 63.2486 55.6593 63.2486 56.0358C63.2486 56.4107 63.1785 56.7384 63.0383 57.0188C62.8981 57.2992 62.7012 57.5174 62.4476 57.6733C62.194 57.8293 61.897 57.9072 61.5568 57.9072ZM61.5591 57.3141C61.7797 57.3141 61.9624 57.2559 62.1073 57.1393C62.2523 57.0227 62.3594 56.8676 62.4287 56.6738C62.4996 56.48 62.535 56.2666 62.535 56.0334C62.535 55.8019 62.4996 55.5892 62.4287 55.3955C62.3594 55.2001 62.2523 55.0434 62.1073 54.9252C61.9624 54.8071 61.7797 54.748 61.5591 54.748C61.337 54.748 61.1527 54.8071 61.0062 54.9252C60.8613 55.0434 60.7534 55.2001 60.6825 55.3955C60.6132 55.5892 60.5785 55.8019 60.5785 56.0334C60.5785 56.2666 60.6132 56.48 60.6825 56.6738C60.7534 56.8676 60.8613 57.0227 61.0062 57.1393C61.1527 57.2559 61.337 57.3141 61.5591 57.3141ZM64.7438 55.679V57.834H64.0373V54.2045H64.7154V54.7953H64.7603C64.8438 54.6031 64.9745 54.4487 65.1526 54.3321C65.3321 54.2156 65.5582 54.1573 65.8307 54.1573C66.078 54.1573 66.2946 54.2093 66.4805 54.3132C66.6664 54.4156 66.8105 54.5684 66.9129 54.7716C67.0153 54.9749 67.0665 55.2261 67.0665 55.5254V57.834H66.36V55.6105C66.36 55.3474 66.2915 55.1418 66.1544 54.9938C66.0174 54.8441 65.8291 54.7693 65.5897 54.7693C65.4259 54.7693 65.2801 54.8047 65.1526 54.8756C65.0265 54.9465 64.9265 55.0505 64.8525 55.1875C64.78 55.323 64.7438 55.4868 64.7438 55.679Z" fill="#6F7595"/>
<path d="M349.469 37.2248C349.469 34.928 351.331 33.0661 353.627 33.0661H382.786V53.3835H353.627C351.331 53.3835 349.469 51.5216 349.469 49.2248V37.2248Z" fill="white"/>
<path d="M349.469 37.2248C349.469 34.928 351.331 33.0661 353.627 33.0661H382.786V53.3835H353.627C351.331 53.3835 349.469 51.5216 349.469 49.2248V37.2248Z" stroke="#E7E8EF" stroke-width="0.554497"/>
<path d="M356.141 45.3018C355.889 45.2981 355.641 45.2522 355.397 45.164C355.154 45.0757 354.934 44.9287 354.735 44.7229C354.537 44.517 354.378 44.2405 354.258 43.8931C354.141 43.5458 354.082 43.112 354.082 42.5919C354.082 42.0994 354.131 41.662 354.228 41.2797C354.327 40.8975 354.47 40.5749 354.655 40.3121C354.841 40.0475 355.065 39.8462 355.328 39.7084C355.591 39.5705 355.886 39.5016 356.213 39.5016C356.549 39.5016 356.848 39.5678 357.109 39.7001C357.37 39.8324 357.581 40.0153 357.743 40.2487C357.906 40.4821 358.01 40.7477 358.054 41.0454H357.213C357.156 40.8102 357.043 40.6181 356.874 40.4692C356.705 40.3204 356.485 40.2459 356.213 40.2459C355.799 40.2459 355.477 40.4261 355.245 40.7863C355.015 41.1465 354.9 41.6473 354.898 42.2887H354.939C355.037 42.1288 355.156 41.9928 355.298 41.8807C355.441 41.7667 355.601 41.6794 355.777 41.6188C355.955 41.5563 356.143 41.5251 356.34 41.5251C356.667 41.5251 356.963 41.605 357.227 41.7649C357.494 41.923 357.706 42.1417 357.864 42.421C358.022 42.7004 358.101 43.0201 358.101 43.3804C358.101 43.7406 358.019 44.0668 357.856 44.359C357.694 44.6512 357.466 44.8828 357.172 45.0537C356.878 45.2228 356.534 45.3055 356.141 45.3018ZM356.138 44.585C356.355 44.585 356.549 44.5318 356.72 44.4252C356.891 44.3186 357.026 44.1752 357.125 43.9951C357.224 43.815 357.274 43.6138 357.274 43.3914C357.274 43.1745 357.225 42.977 357.128 42.7987C357.032 42.6204 356.9 42.4789 356.731 42.3741C356.564 42.2694 356.373 42.217 356.158 42.217C355.994 42.217 355.842 42.2483 355.703 42.3107C355.565 42.3732 355.444 42.4596 355.339 42.5699C355.234 42.6801 355.151 42.807 355.091 42.9503C355.032 43.0918 355.003 43.2416 355.003 43.3997C355.003 43.611 355.051 43.8067 355.149 43.9868C355.248 44.1669 355.383 44.3121 355.554 44.4224C355.727 44.5308 355.921 44.585 356.138 44.585ZM361.171 45.2246V40.9903H361.962V41.6794H362.014C362.103 41.446 362.247 41.2641 362.447 41.1336C362.647 41.0013 362.887 40.9351 363.167 40.9351C363.45 40.9351 363.687 41.0013 363.878 41.1336C364.071 41.2659 364.213 41.4479 364.305 41.6794H364.349C364.45 41.4534 364.611 41.2733 364.832 41.1391C365.052 41.0031 365.315 40.9351 365.62 40.9351C366.004 40.9351 366.318 41.0555 366.56 41.2963C366.805 41.537 366.927 41.9 366.927 42.3852V45.2246H366.103V42.4624C366.103 42.1757 366.024 41.968 365.868 41.8393C365.712 41.7107 365.525 41.6464 365.309 41.6464C365.04 41.6464 364.832 41.7291 364.683 41.8945C364.534 42.058 364.46 42.2685 364.46 42.5258V45.2246H363.638V42.41C363.638 42.1803 363.566 41.9956 363.423 41.8559C363.28 41.7162 363.093 41.6464 362.863 41.6464C362.707 41.6464 362.563 41.6877 362.431 41.7704C362.3 41.8513 362.194 41.9643 362.114 42.1095C362.035 42.2547 361.995 42.4228 361.995 42.614V45.2246H361.171ZM369.815 45.3101C369.418 45.3101 369.072 45.2191 368.776 45.0372C368.48 44.8552 368.25 44.6007 368.087 44.2735C367.923 43.9464 367.841 43.5641 367.841 43.1267C367.841 42.6875 367.923 42.3034 368.087 41.9744C368.25 41.6454 368.48 41.39 368.776 41.208C369.072 41.0261 369.418 40.9351 369.815 40.9351C370.212 40.9351 370.559 41.0261 370.854 41.208C371.15 41.39 371.38 41.6454 371.544 41.9744C371.707 42.3034 371.789 42.6875 371.789 43.1267C371.789 43.5641 371.707 43.9464 371.544 44.2735C371.38 44.6007 371.15 44.8552 370.854 45.0372C370.559 45.2191 370.212 45.3101 369.815 45.3101ZM369.818 44.6181C370.075 44.6181 370.288 44.5501 370.458 44.4141C370.627 44.2781 370.752 44.0971 370.832 43.8711C370.915 43.645 370.956 43.396 370.956 43.124C370.956 42.8538 370.915 42.6057 370.832 42.3797C370.752 42.1518 370.627 41.9689 370.458 41.8311C370.288 41.6932 370.075 41.6243 369.818 41.6243C369.559 41.6243 369.344 41.6932 369.173 41.8311C369.004 41.9689 368.878 42.1518 368.795 42.3797C368.714 42.6057 368.674 42.8538 368.674 43.124C368.674 43.396 368.714 43.645 368.795 43.8711C368.878 44.0971 369.004 44.2781 369.173 44.4141C369.344 44.5501 369.559 44.6181 369.818 44.6181ZM372.709 45.2246V40.9903H373.533V45.2246H372.709ZM373.125 40.3369C372.982 40.3369 372.859 40.2891 372.756 40.1936C372.655 40.0962 372.604 39.9804 372.604 39.8462C372.604 39.7102 372.655 39.5944 372.756 39.4989C372.859 39.4015 372.982 39.3528 373.125 39.3528C373.269 39.3528 373.391 39.4015 373.492 39.4989C373.595 39.5944 373.646 39.7102 373.646 39.8462C373.646 39.9804 373.595 40.0962 373.492 40.1936C373.391 40.2891 373.269 40.3369 373.125 40.3369ZM377.815 42.024L377.068 42.1564C377.037 42.0608 376.987 41.9698 376.919 41.8834C376.853 41.7971 376.763 41.7263 376.649 41.6712C376.535 41.616 376.393 41.5885 376.222 41.5885C375.988 41.5885 375.794 41.6409 375.637 41.7456C375.481 41.8485 375.403 41.9818 375.403 42.1453C375.403 42.2868 375.455 42.4008 375.56 42.4872C375.665 42.5736 375.834 42.6443 376.067 42.6994L376.74 42.8538C377.13 42.9439 377.42 43.0826 377.611 43.2701C377.802 43.4575 377.898 43.7011 377.898 44.0006C377.898 44.2542 377.824 44.4803 377.677 44.6788C377.532 44.8754 377.329 45.0298 377.068 45.1419C376.809 45.254 376.509 45.3101 376.167 45.3101C375.693 45.3101 375.306 45.209 375.006 45.0068C374.707 44.8028 374.523 44.5134 374.455 44.1385L375.251 44.0172C375.301 44.2248 375.403 44.382 375.557 44.4886C375.712 44.5933 375.913 44.6457 376.161 44.6457C376.431 44.6457 376.647 44.5896 376.809 44.4775C376.971 44.3636 377.052 44.2248 377.052 44.0613C377.052 43.9289 377.002 43.8178 376.903 43.7277C376.805 43.6376 376.656 43.5696 376.453 43.5237L375.737 43.3666C375.342 43.2765 375.049 43.1332 374.86 42.9365C374.673 42.7399 374.579 42.4908 374.579 42.1894C374.579 41.9395 374.649 41.7208 374.788 41.5333C374.928 41.3459 375.121 41.1998 375.367 41.095C375.614 40.9884 375.896 40.9351 376.214 40.9351C376.671 40.9351 377.031 41.0344 377.294 41.2329C377.557 41.4295 377.731 41.6932 377.815 42.024Z" fill="#101940"/>
<mask id="path-9-inside-2_1148_15167" fill="white">
<path d="M383.062 32.7888H412.498C414.948 32.7888 416.934 34.7749 416.934 37.2248V49.2248C416.934 51.6747 414.948 53.6608 412.498 53.6608H383.062V32.7888Z"/>
</mask>
<path d="M383.062 32.7888H412.498C414.948 32.7888 416.934 34.7749 416.934 37.2248V49.2248C416.934 51.6747 414.948 53.6608 412.498 53.6608H383.062V32.7888Z" fill="white"/>
<path d="M383.062 32.7888V32.2343H382.508V32.7888H383.062ZM383.062 53.6608H382.508V54.2153H383.062V53.6608ZM383.062 33.3433H412.498V32.2343H383.062V33.3433ZM416.38 37.2248V49.2248H417.489V37.2248H416.38ZM412.498 53.1063H383.062V54.2153H412.498V53.1063ZM383.617 53.6608V32.7888H382.508V53.6608H383.617ZM416.38 49.2248C416.38 51.3685 414.642 53.1063 412.498 53.1063V54.2153C415.255 54.2153 417.489 51.981 417.489 49.2248H416.38ZM412.498 33.3433C414.642 33.3433 416.38 35.0811 416.38 37.2248H417.489C417.489 34.4686 415.255 32.2343 412.498 32.2343V33.3433Z" fill="#E7E8EF" mask="url(#path-9-inside-2_1148_15167)"/>
<path d="M390.012 45.302C389.76 45.2984 389.512 45.2524 389.268 45.1642C389.025 45.076 388.805 44.929 388.606 44.7231C388.408 44.5173 388.249 44.2407 388.129 43.8934C388.012 43.546 387.953 43.1123 387.953 42.5922C387.953 42.0996 388.002 41.6622 388.099 41.28C388.198 40.8977 388.341 40.5752 388.526 40.3124C388.712 40.0477 388.936 39.8465 389.199 39.7086C389.462 39.5708 389.757 39.5019 390.084 39.5019C390.42 39.5019 390.719 39.568 390.98 39.7004C391.241 39.8327 391.452 40.0155 391.614 40.2489C391.777 40.4824 391.881 40.7479 391.925 41.0456H391.085C391.028 40.8104 390.915 40.6184 390.745 40.4695C390.576 40.3206 390.356 40.2462 390.084 40.2462C389.67 40.2462 389.348 40.4263 389.116 40.7865C388.887 41.1467 388.771 41.6475 388.769 42.2889H388.81C388.908 42.129 389.027 41.993 389.169 41.8809C389.312 41.767 389.472 41.6797 389.648 41.619C389.827 41.5566 390.014 41.5253 390.211 41.5253C390.538 41.5253 390.834 41.6053 391.098 41.7652C391.365 41.9232 391.577 42.1419 391.735 42.4213C391.893 42.7006 391.972 43.0204 391.972 43.3806C391.972 43.7408 391.89 44.067 391.727 44.3592C391.565 44.6515 391.337 44.883 391.043 45.0539C390.749 45.223 390.405 45.3057 390.012 45.302ZM390.009 44.5853C390.226 44.5853 390.42 44.532 390.591 44.4254C390.762 44.3188 390.897 44.1755 390.996 43.9954C391.096 43.8152 391.145 43.614 391.145 43.3916C391.145 43.1748 391.097 42.9772 390.999 42.7989C390.904 42.6207 390.771 42.4791 390.602 42.3744C390.435 42.2696 390.244 42.2173 390.029 42.2173C389.865 42.2173 389.714 42.2485 389.574 42.311C389.436 42.3735 389.315 42.4598 389.21 42.5701C389.105 42.6804 389.023 42.8072 388.962 42.9505C388.903 43.0921 388.874 43.2418 388.874 43.3999C388.874 43.6112 388.922 43.807 389.02 43.9871C389.119 44.1672 389.254 44.3124 389.425 44.4226C389.598 44.5311 389.793 44.5853 390.009 44.5853ZM395.042 45.2249V40.9905H395.833V41.6797H395.885C395.974 41.4463 396.118 41.2643 396.318 41.1339C396.519 41.0015 396.758 40.9354 397.038 40.9354C397.321 40.9354 397.558 41.0015 397.749 41.1339C397.942 41.2662 398.084 41.4481 398.176 41.6797H398.22C398.321 41.4536 398.482 41.2735 398.703 41.1394C398.923 41.0034 399.186 40.9354 399.491 40.9354C399.875 40.9354 400.189 41.0558 400.431 41.2965C400.676 41.5373 400.798 41.9002 400.798 42.3854V45.2249H399.974V42.4626C399.974 42.1759 399.896 41.9682 399.739 41.8396C399.583 41.7109 399.397 41.6466 399.18 41.6466C398.911 41.6466 398.703 41.7293 398.554 41.8947C398.405 42.0583 398.331 42.2687 398.331 42.526V45.2249H397.509V42.4102C397.509 42.1805 397.437 41.9958 397.294 41.8561C397.151 41.7164 396.964 41.6466 396.734 41.6466C396.578 41.6466 396.434 41.688 396.302 41.7707C396.171 41.8515 396.066 41.9646 395.985 42.1097C395.906 42.2549 395.866 42.4231 395.866 42.6142V45.2249H395.042ZM403.686 45.3103C403.289 45.3103 402.943 45.2193 402.647 45.0374C402.351 44.8555 402.121 44.6009 401.958 44.2738C401.794 43.9466 401.712 43.5644 401.712 43.127C401.712 42.6877 401.794 42.3036 401.958 41.9747C402.121 41.6457 402.351 41.3902 402.647 41.2083C402.943 41.0263 403.289 40.9354 403.686 40.9354C404.083 40.9354 404.43 41.0263 404.726 41.2083C405.021 41.3902 405.251 41.6457 405.415 41.9747C405.578 42.3036 405.66 42.6877 405.66 43.127C405.66 43.5644 405.578 43.9466 405.415 44.2738C405.251 44.6009 405.021 44.8555 404.726 45.0374C404.43 45.2193 404.083 45.3103 403.686 45.3103ZM403.689 44.6184C403.946 44.6184 404.16 44.5504 404.329 44.4144C404.498 44.2784 404.623 44.0973 404.704 43.8713C404.786 43.6452 404.828 43.3962 404.828 43.1242C404.828 42.8541 404.786 42.606 404.704 42.3799C404.623 42.152 404.498 41.9692 404.329 41.8313C404.16 41.6935 403.946 41.6246 403.689 41.6246C403.43 41.6246 403.215 41.6935 403.044 41.8313C402.875 41.9692 402.749 42.152 402.666 42.3799C402.585 42.606 402.545 42.8541 402.545 43.1242C402.545 43.3962 402.585 43.6452 402.666 43.8713C402.749 44.0973 402.875 44.2784 403.044 44.4144C403.215 44.5504 403.43 44.6184 403.689 44.6184ZM406.58 45.2249V40.9905H407.404V45.2249H406.58ZM406.996 40.3372C406.853 40.3372 406.73 40.2894 406.627 40.1938C406.526 40.0964 406.475 39.9806 406.475 39.8465C406.475 39.7105 406.526 39.5947 406.627 39.4991C406.73 39.4017 406.853 39.353 406.996 39.353C407.14 39.353 407.262 39.4017 407.363 39.4991C407.466 39.5947 407.517 39.7105 407.517 39.8465C407.517 39.9806 407.466 40.0964 407.363 40.1938C407.262 40.2894 407.14 40.3372 406.996 40.3372ZM411.686 42.0243L410.939 42.1566C410.908 42.061 410.858 41.9701 410.79 41.8837C410.724 41.7973 410.634 41.7266 410.52 41.6714C410.406 41.6163 410.264 41.5887 410.093 41.5887C409.86 41.5887 409.665 41.6411 409.509 41.7459C409.352 41.8488 409.274 41.982 409.274 42.1456C409.274 42.2871 409.327 42.401 409.431 42.4874C409.536 42.5738 409.705 42.6446 409.939 42.6997L410.611 42.8541C411.001 42.9441 411.291 43.0829 411.482 43.2703C411.673 43.4578 411.769 43.7013 411.769 44.0009C411.769 44.2545 411.696 44.4805 411.548 44.679C411.403 44.8757 411.2 45.03 410.939 45.1422C410.68 45.2543 410.38 45.3103 410.038 45.3103C409.564 45.3103 409.177 45.2092 408.877 45.0071C408.578 44.8031 408.394 44.5136 408.326 44.1387L409.123 44.0174C409.172 44.2251 409.274 44.3822 409.429 44.4888C409.583 44.5936 409.784 44.6459 410.032 44.6459C410.302 44.6459 410.518 44.5899 410.68 44.4778C410.842 44.3638 410.923 44.2251 410.923 44.0615C410.923 43.9292 410.873 43.818 410.774 43.7279C410.676 43.6379 410.527 43.5699 410.324 43.5239L409.608 43.3668C409.213 43.2768 408.92 43.1334 408.731 42.9368C408.544 42.7401 408.45 42.4911 408.45 42.1897C408.45 41.9397 408.52 41.721 408.659 41.5336C408.799 41.3461 408.992 41.2 409.238 41.0953C409.485 40.9887 409.767 40.9354 410.085 40.9354C410.542 40.9354 410.902 41.0346 411.165 41.2331C411.428 41.4297 411.602 41.6935 411.686 42.0243Z" fill="#101940"/>
<path d="M421.648 37.2248C421.648 34.928 423.51 33.0661 425.807 33.0661H464.115C466.412 33.0661 468.274 34.928 468.274 37.2248V49.2248C468.274 51.5216 466.412 53.3835 464.115 53.3835H425.807C423.51 53.3835 421.648 51.5216 421.648 49.2248V37.2248Z" fill="white"/>
<path d="M421.648 37.2248C421.648 34.928 423.51 33.0661 425.807 33.0661H464.115C466.412 33.0661 468.274 34.928 468.274 37.2248V49.2248C468.274 51.5216 466.412 53.3835 464.115 53.3835H425.807C423.51 53.3835 421.648 51.5216 421.648 49.2248V37.2248Z" stroke="#E7E8EF" stroke-width="0.554497"/>
<path fill-rule="evenodd" clip-rule="evenodd" d="M427.424 43.2251C427.424 42.8423 427.734 42.5319 428.117 42.5319H434.586C434.969 42.5319 435.279 42.8423 435.279 43.2251C435.279 43.6079 434.969 43.9182 434.586 43.9182H428.117C427.734 43.9182 427.424 43.6079 427.424 43.2251Z" fill="#101940"/>
<path fill-rule="evenodd" clip-rule="evenodd" d="M431.352 39.2974C431.734 39.2974 432.045 39.6077 432.045 39.9905V46.4596C432.045 46.8424 431.734 47.1527 431.352 47.1527C430.969 47.1527 430.658 46.8424 430.658 46.4596V39.9905C430.658 39.6077 430.969 39.2974 431.352 39.2974Z" fill="#101940"/>
<path d="M439.735 45.2249V39.5791H441.803C442.204 39.5791 442.535 39.6452 442.798 39.7775C443.061 39.908 443.258 40.0854 443.388 40.3096C443.519 40.532 443.584 40.7828 443.584 41.0622C443.584 41.2974 443.541 41.4959 443.454 41.6576C443.368 41.8175 443.252 41.9462 443.107 42.0436C442.964 42.1391 442.806 42.209 442.633 42.2531V42.3082C442.82 42.3174 443.003 42.3781 443.181 42.4902C443.362 42.6004 443.51 42.7576 443.628 42.9616C443.746 43.1656 443.804 43.4137 443.804 43.7059C443.804 43.9944 443.736 44.2536 443.6 44.4833C443.466 44.7112 443.259 44.8922 442.977 45.0264C442.696 45.1587 442.337 45.2249 441.9 45.2249H439.735ZM440.587 44.4943H441.817C442.225 44.4943 442.517 44.4153 442.693 44.2572C442.87 44.0992 442.958 43.9016 442.958 43.6645C442.958 43.4863 442.913 43.3227 442.823 43.1738C442.733 43.025 442.604 42.9064 442.437 42.8182C442.272 42.73 442.075 42.6859 441.847 42.6859H440.587V44.4943ZM440.587 42.0215H441.729C441.92 42.0215 442.092 41.9848 442.244 41.9113C442.399 41.8377 442.521 41.7348 442.611 41.6025C442.703 41.4683 442.749 41.3103 442.749 41.1283C442.749 40.8949 442.667 40.6992 442.503 40.5412C442.34 40.3831 442.089 40.3041 441.751 40.3041H440.587V42.0215ZM447.431 43.4688V40.9905H448.258V45.2249H447.447V44.4916H447.403C447.306 44.7176 447.15 44.906 446.935 45.0567C446.722 45.2056 446.456 45.28 446.138 45.28C445.866 45.28 445.625 45.2203 445.416 45.1008C445.208 44.9795 445.045 44.8003 444.925 44.5632C444.807 44.3262 444.749 44.033 444.749 43.6838V40.9905H445.573V43.5846C445.573 43.8731 445.653 44.1029 445.813 44.2738C445.973 44.4447 446.18 44.5302 446.436 44.5302C446.59 44.5302 446.744 44.4916 446.896 44.4144C447.05 44.3372 447.178 44.2205 447.279 44.0643C447.382 43.9081 447.433 43.7096 447.431 43.4688ZM451.342 40.9905V41.6521H449.029V40.9905H451.342ZM449.649 39.976H450.474V43.9816C450.474 44.1415 450.498 44.2618 450.545 44.3427C450.593 44.4217 450.655 44.4759 450.73 44.5053C450.807 44.5329 450.891 44.5467 450.981 44.5467C451.047 44.5467 451.105 44.5421 451.155 44.5329C451.204 44.5237 451.243 44.5164 451.27 44.5109L451.419 45.1918C451.371 45.2102 451.303 45.2285 451.215 45.2469C451.127 45.2671 451.017 45.2782 450.884 45.28C450.668 45.2837 450.465 45.2451 450.278 45.1642C450.09 45.0833 449.939 44.9584 449.823 44.7893C449.707 44.6202 449.649 44.4079 449.649 44.1525V39.976ZM454.23 40.9905V41.6521H451.918V40.9905H454.23ZM452.538 39.976H453.362V43.9816C453.362 44.1415 453.386 44.2618 453.434 44.3427C453.481 44.4217 453.543 44.4759 453.618 44.5053C453.696 44.5329 453.779 44.5467 453.869 44.5467C453.935 44.5467 453.993 44.5421 454.043 44.5329C454.093 44.5237 454.131 44.5164 454.159 44.5109L454.308 45.1918C454.26 45.2102 454.192 45.2285 454.104 45.2469C454.015 45.2671 453.905 45.2782 453.773 45.28C453.556 45.2837 453.354 45.2451 453.166 45.1642C452.979 45.0833 452.827 44.9584 452.711 44.7893C452.596 44.6202 452.538 44.4079 452.538 44.1525V39.976ZM456.88 45.3103C456.483 45.3103 456.137 45.2193 455.841 45.0374C455.545 44.8555 455.315 44.6009 455.152 44.2738C454.988 43.9466 454.906 43.5644 454.906 43.127C454.906 42.6877 454.988 42.3036 455.152 41.9747C455.315 41.6457 455.545 41.3902 455.841 41.2083C456.137 41.0263 456.483 40.9354 456.88 40.9354C457.277 40.9354 457.624 41.0263 457.92 41.2083C458.215 41.3902 458.445 41.6457 458.609 41.9747C458.772 42.3036 458.854 42.6877 458.854 43.127C458.854 43.5644 458.772 43.9466 458.609 44.2738C458.445 44.6009 458.215 44.8555 457.92 45.0374C457.624 45.2193 457.277 45.3103 456.88 45.3103ZM456.883 44.6184C457.14 44.6184 457.354 44.5504 457.523 44.4144C457.692 44.2784 457.817 44.0973 457.898 43.8713C457.98 43.6452 458.022 43.3962 458.022 43.1242C458.022 42.8541 457.98 42.606 457.898 42.3799C457.817 42.152 457.692 41.9692 457.523 41.8313C457.354 41.6935 457.14 41.6246 456.883 41.6246C456.624 41.6246 456.409 41.6935 456.238 41.8313C456.069 41.9692 455.943 42.152 455.86 42.3799C455.779 42.606 455.739 42.8541 455.739 43.1242C455.739 43.3962 455.779 43.6452 455.86 43.8713C455.943 44.0973 456.069 44.2784 456.238 44.4144C456.409 44.5504 456.624 44.6184 456.883 44.6184ZM460.598 42.7107V45.2249H459.774V40.9905H460.565V41.6797H460.618C460.715 41.4555 460.868 41.2754 461.075 41.1394C461.285 41.0034 461.549 40.9354 461.867 40.9354C462.155 40.9354 462.408 40.996 462.625 41.1173C462.842 41.2368 463.01 41.415 463.129 41.6521C463.249 41.8892 463.308 42.1823 463.308 42.5315V45.2249H462.484V42.6308C462.484 42.3239 462.404 42.084 462.244 41.9113C462.084 41.7367 461.865 41.6494 461.585 41.6494C461.394 41.6494 461.224 41.6907 461.075 41.7734C460.928 41.8561 460.812 41.9774 460.725 42.1373C460.641 42.2954 460.598 42.4865 460.598 42.7107Z" fill="#101940"/>
<path d="M486.709 41.9402C485.873 41.9402 485.531 41.3488 485.947 40.6233C486.187 40.2028 486.044 39.6668 485.623 39.4265L484.824 38.9691C484.459 38.7519 483.988 38.8813 483.771 39.2463L483.72 39.3341C483.304 40.0596 482.62 40.0596 482.199 39.3341L482.149 39.2463C481.941 38.8813 481.469 38.7519 481.104 38.9691L480.305 39.4265C479.884 39.6668 479.741 40.2074 479.981 40.6279C480.402 41.3488 480.06 41.9402 479.224 41.9402C478.743 41.9402 478.346 42.333 478.346 42.8182V43.6315C478.346 44.112 478.738 44.5094 479.224 44.5094C480.06 44.5094 480.402 45.1009 479.981 45.8263C479.741 46.2468 479.884 46.7828 480.305 47.0231L481.104 47.4806C481.469 47.6978 481.941 47.5684 482.158 47.2033L482.209 47.1155C482.625 46.3901 483.308 46.3901 483.729 47.1155L483.78 47.2033C483.997 47.5684 484.468 47.6978 484.833 47.4806L485.633 47.0231C486.053 46.7828 486.196 46.2422 485.956 45.8263C485.536 45.1009 485.878 44.5094 486.714 44.5094C487.195 44.5094 487.592 44.1166 487.592 43.6315V42.8182C487.587 42.3376 487.195 41.9402 486.709 41.9402ZM482.967 44.7266C482.139 44.7266 481.465 44.0519 481.465 43.2248C481.465 42.3977 482.139 41.7231 482.967 41.7231C483.794 41.7231 484.468 42.3977 484.468 43.2248C484.468 44.0519 483.794 44.7266 482.967 44.7266Z" fill="#6F7595"/>
<path d="M19.7536 89.7376V88.5399H18.5426V81.1806H19.8867V83.5893H23.5065V84.8003H24.7308V88.5399H23.5065V89.7376H19.7536ZM19.8867 88.4068H23.3734V84.9201H19.8867V88.4068ZM26.0803 89.7376V81.1806H27.4244V89.7376H26.0803ZM29.9815 89.7376V88.5399H28.7705V84.8003H29.9815V83.5893H33.7344V84.8003H34.9587V88.5399H33.7344V89.7376H29.9815ZM30.1146 88.4068H33.6013V84.9201H30.1146V88.4068ZM37.7791 89.7376V88.5399H36.5681V84.8003H37.7791V83.5893H41.532V84.8003H42.7563V86.1178H41.3989V84.9201H37.9122V88.4068H41.3989V87.1958H42.7563V88.5399H41.532V89.7376H37.7791ZM44.1058 89.7376V81.1806H45.4499V85.9847H46.5145V84.8003H48.9366V83.5893H50.294V84.9201H49.0697V86.1178H46.6476V87.1958H49.0697V88.4068H50.294V89.7376H48.9366V88.5399H46.5145V87.3288H45.4499V89.7376H44.1058Z" fill="#444444"/>
<mask id="path-18-inside-3_1148_15167" fill="white">
<path d="M17.7441 102.45H506.256V142.194H17.7441V102.45Z"/>
</mask>
<path d="M17.7441 102.45H506.256V142.194H17.7441V102.45Z" fill="white"/>
<path d="M506.256 141.639H17.7441V142.748H506.256V141.639Z" fill="#E7E8EF" mask="url(#path-18-inside-3_1148_15167)"/>
<path d="M36.2694 116.773V114.111H37.7422V120.322H36.2694V118.015H33.0667V120.322H31.5939V114.111H33.0667V116.773H36.2694ZM43.6015 118.441H39.9995C40.1148 119.018 40.4786 119.364 41.1883 119.364C41.6408 119.364 41.9868 119.213 42.1199 118.893H43.4773C43.3353 119.674 42.5191 120.455 41.1085 120.455C39.4583 120.455 38.5622 119.39 38.5622 118.015C38.5622 116.64 39.476 115.575 41.1173 115.575C42.7498 115.575 43.7434 116.64 43.6015 118.441ZM41.1173 116.622C40.4431 116.622 40.0793 116.959 39.9906 117.616H42.2086C42.0844 116.906 41.7206 116.622 41.1173 116.622ZM45.7827 120.455C44.7802 120.455 44.1592 119.967 44.1592 118.982C44.1592 118.051 44.7181 117.589 45.9247 117.589H47.5305V117.234C47.5305 116.782 47.2644 116.631 46.6078 116.631C46.0045 116.631 45.7206 116.764 45.6674 117.137H44.3987C44.3455 115.939 45.2327 115.575 46.6345 115.575C48.2758 115.575 48.9589 116.09 48.9589 117.137V120.322H47.7523L47.6104 119.674H47.5749C47.2466 120.171 46.5457 120.455 45.7827 120.455ZM46.2973 119.381H46.3594C47.0248 119.381 47.5305 119.106 47.5305 118.645V118.459H46.1554C45.8005 118.459 45.6142 118.618 45.6142 118.911C45.6142 119.195 45.8005 119.381 46.2973 119.381ZM53.5096 116.187V114.023H54.9469V120.322H53.5362L53.5185 119.745C53.1459 120.251 52.6047 120.455 51.9925 120.455C50.6085 120.455 49.7301 119.372 49.7301 118.015C49.7301 116.667 50.6085 115.584 51.9925 115.584C52.7111 115.584 53.2967 115.868 53.7758 116.675L53.5096 116.187ZM52.3296 119.204C53.066 119.204 53.5273 118.707 53.5273 118.015C53.5273 117.323 53.066 116.826 52.3296 116.826C51.5933 116.826 51.1408 117.323 51.1408 118.015C51.1408 118.707 51.5933 119.204 52.3296 119.204ZM57.3585 120.322H55.9301V114.023H57.3585V120.322ZM59.0747 115.061C58.5956 115.061 58.3117 114.732 58.3117 114.333C58.3117 113.943 58.5956 113.606 59.0747 113.606C59.5538 113.606 59.8377 113.943 59.8377 114.333C59.8377 114.732 59.5538 115.061 59.0747 115.061ZM59.7933 120.322H58.3649V115.708H59.7933V120.322ZM62.219 120.322H60.7906V115.708H62.1658L62.219 116.321L62.1037 116.596C62.4142 116.028 62.9022 115.575 63.8692 115.575C65.1734 115.575 65.7767 116.383 65.7767 117.687V120.322H64.3394V117.953C64.3394 117.27 64.0555 116.826 63.3103 116.826C62.565 116.826 62.219 117.27 62.219 117.953V120.322ZM71.5776 118.441H67.9756C68.0909 119.018 68.4547 119.364 69.1644 119.364C69.6169 119.364 69.9629 119.213 70.096 118.893H71.4534C71.3115 119.674 70.4952 120.455 69.0846 120.455C67.4344 120.455 66.5383 119.39 66.5383 118.015C66.5383 116.64 67.4522 115.575 69.0935 115.575C70.7259 115.575 71.7196 116.64 71.5776 118.441ZM69.0935 116.622C68.4192 116.622 68.0555 116.959 67.9667 117.616H70.1847C70.0605 116.906 69.6968 116.622 69.0935 116.622Z" fill="#101940"/>
<path d="M33.151 131.322H31.5844V126.483H33.2006C33.6748 126.483 34.082 126.579 34.4223 126.773C34.7625 126.965 35.0232 127.242 35.2044 127.603C35.3871 127.962 35.4785 128.393 35.4785 128.895C35.4785 129.399 35.3863 129.832 35.202 130.195C35.0193 130.557 34.7546 130.836 34.4081 131.031C34.0615 131.225 33.6425 131.322 33.151 131.322ZM32.3145 130.684H33.1108C33.4794 130.684 33.7858 130.614 34.03 130.476C34.2742 130.336 34.4569 130.133 34.5782 129.869C34.6995 129.602 34.7601 129.278 34.7601 128.895C34.7601 128.515 34.6995 128.193 34.5782 127.929C34.4585 127.664 34.2797 127.463 34.0418 127.326C33.804 127.189 33.5086 127.121 33.1557 127.121H32.3145V130.684ZM37.894 131.395C37.5364 131.395 37.2284 131.319 36.9701 131.166C36.7133 131.011 36.5148 130.795 36.3746 130.516C36.236 130.236 36.1667 129.907 36.1667 129.531C36.1667 129.159 36.236 128.831 36.3746 128.548C36.5148 128.264 36.7101 128.043 36.9606 127.884C37.2127 127.725 37.5072 127.645 37.8443 127.645C38.0491 127.645 38.2476 127.679 38.4398 127.747C38.632 127.814 38.8045 127.921 38.9573 128.066C39.1101 128.211 39.2306 128.399 39.3188 128.63C39.407 128.86 39.4511 129.14 39.4511 129.469V129.72H36.566V129.19H38.7588C38.7588 129.005 38.721 128.84 38.6454 128.697C38.5698 128.552 38.4634 128.437 38.3264 128.354C38.1909 128.27 38.0318 128.229 37.8491 128.229C37.6506 128.229 37.4773 128.278 37.3292 128.375C37.1827 128.471 37.0693 128.597 36.989 128.753C36.9102 128.908 36.8708 129.075 36.8708 129.257V129.67C36.8708 129.913 36.9134 130.119 36.9984 130.289C37.0851 130.459 37.2056 130.589 37.3599 130.679C37.5143 130.767 37.6947 130.811 37.9011 130.811C38.035 130.811 38.157 130.792 38.2673 130.755C38.3776 130.715 38.4729 130.657 38.5532 130.58C38.6336 130.503 38.695 130.407 38.7375 130.294L39.4062 130.414C39.3527 130.611 39.2566 130.784 39.118 130.932C38.9809 131.078 38.8084 131.193 38.6005 131.275C38.3941 131.355 38.1586 131.395 37.894 131.395ZM42.9547 128.578L42.3144 128.692C42.2876 128.61 42.2451 128.532 42.1868 128.458C42.1301 128.384 42.0529 128.323 41.9552 128.276C41.8576 128.229 41.7355 128.205 41.589 128.205C41.3889 128.205 41.2219 128.25 41.088 128.34C40.9541 128.428 40.8872 128.542 40.8872 128.682C40.8872 128.804 40.9321 128.901 41.0219 128.975C41.1117 129.049 41.2566 129.11 41.4566 129.157L42.0332 129.29C42.3672 129.367 42.6161 129.486 42.7799 129.646C42.9437 129.807 43.0256 130.016 43.0256 130.273C43.0256 130.49 42.9626 130.684 42.8366 130.854C42.7121 131.022 42.5381 131.155 42.3144 131.251C42.0923 131.347 41.8347 131.395 41.5417 131.395C41.1353 131.395 40.8037 131.308 40.5469 131.135C40.2902 130.96 40.1326 130.712 40.0743 130.391L40.7572 130.287C40.7998 130.465 40.8872 130.6 41.0195 130.691C41.1518 130.781 41.3243 130.826 41.537 130.826C41.7686 130.826 41.9536 130.778 42.0923 130.681C42.2309 130.584 42.3002 130.465 42.3002 130.325C42.3002 130.211 42.2577 130.116 42.1726 130.039C42.0891 129.962 41.9607 129.903 41.7875 129.864L41.1731 129.729C40.8344 129.652 40.5839 129.529 40.4217 129.361C40.261 129.192 40.1807 128.979 40.1807 128.72C40.1807 128.506 40.2405 128.319 40.3603 128.158C40.48 127.997 40.6454 127.872 40.8565 127.782C41.0676 127.691 41.3094 127.645 41.5819 127.645C41.9741 127.645 42.2829 127.73 42.5081 127.9C42.7334 128.069 42.8823 128.295 42.9547 128.578ZM45.3312 131.395C44.98 131.395 44.6775 131.315 44.4239 131.156C44.1718 130.996 43.9781 130.774 43.8426 130.492C43.7071 130.21 43.6394 129.887 43.6394 129.524C43.6394 129.155 43.7087 128.83 43.8473 128.548C43.986 128.264 44.1813 128.043 44.4333 127.884C44.6854 127.725 44.9823 127.645 45.3241 127.645C45.5998 127.645 45.8456 127.696 46.0614 127.799C46.2772 127.899 46.4513 128.041 46.5836 128.224C46.7175 128.407 46.797 128.62 46.8222 128.864H46.1346C46.0968 128.694 46.0102 128.548 45.8747 128.425C45.7408 128.302 45.5612 128.241 45.336 128.241C45.1391 128.241 44.9666 128.293 44.8185 128.396C44.672 128.499 44.5578 128.645 44.4759 128.836C44.3939 129.025 44.353 129.249 44.353 129.507C44.353 129.772 44.3932 130 44.4735 130.192C44.5538 130.384 44.6673 130.533 44.8138 130.639C44.9618 130.744 45.1359 130.797 45.336 130.797C45.4699 130.797 45.5912 130.773 45.6999 130.724C45.8101 130.674 45.9023 130.602 45.9763 130.509C46.0519 130.416 46.1047 130.304 46.1346 130.173H46.8222C46.797 130.408 46.7206 130.618 46.593 130.802C46.4654 130.986 46.2945 131.131 46.0803 131.237C45.8676 131.342 45.6179 131.395 45.3312 131.395ZM47.5778 131.322V127.692H48.2607V128.269H48.2985C48.3646 128.074 48.4812 127.92 48.6482 127.808C48.8167 127.695 49.0073 127.638 49.22 127.638C49.2641 127.638 49.3161 127.64 49.376 127.643C49.4374 127.646 49.4854 127.65 49.5201 127.655V128.33C49.4917 128.322 49.4413 128.314 49.3689 128.304C49.2964 128.293 49.2239 128.288 49.1515 128.288C48.9845 128.288 48.8356 128.323 48.7049 128.394C48.5757 128.463 48.4733 128.56 48.3977 128.685C48.3221 128.808 48.2843 128.948 48.2843 129.105V131.322H47.5778ZM50.1315 131.322V127.692H50.838V131.322H50.1315ZM50.4883 127.132C50.3654 127.132 50.2599 127.091 50.1717 127.009C50.085 126.926 50.0417 126.827 50.0417 126.712C50.0417 126.595 50.085 126.496 50.1717 126.414C50.2599 126.331 50.3654 126.289 50.4883 126.289C50.6112 126.289 50.7159 126.331 50.8026 126.414C50.8908 126.496 50.9349 126.595 50.9349 126.712C50.9349 126.827 50.8908 126.926 50.8026 127.009C50.7159 127.091 50.6112 127.132 50.4883 127.132ZM51.7885 132.683V127.692H52.4785V128.281H52.5375C52.5785 128.205 52.6376 128.118 52.7148 128.018C52.7919 127.919 52.8991 127.833 53.0361 127.759C53.1732 127.683 53.3543 127.645 53.5796 127.645C53.8726 127.645 54.1341 127.719 54.3641 127.867C54.5941 128.015 54.7744 128.229 54.9052 128.508C55.0375 128.786 55.1037 129.122 55.1037 129.514C55.1037 129.906 55.0383 130.243 54.9075 130.523C54.7768 130.802 54.5972 131.017 54.3688 131.168C54.1404 131.318 53.8797 131.393 53.5867 131.393C53.3661 131.393 53.1858 131.356 53.0456 131.282C52.9069 131.208 52.7982 131.121 52.7195 131.022C52.6407 130.922 52.5801 130.834 52.5375 130.757H52.495V132.683H51.7885ZM52.4808 129.507C52.4808 129.762 52.5178 129.986 52.5919 130.178C52.6659 130.37 52.773 130.521 52.9132 130.629C53.0534 130.737 53.2251 130.79 53.4284 130.79C53.6394 130.79 53.8159 130.734 53.9577 130.622C54.0994 130.509 54.2065 130.355 54.279 130.162C54.353 129.968 54.3901 129.75 54.3901 129.507C54.3901 129.268 54.3538 129.053 54.2814 128.862C54.2105 128.671 54.1034 128.521 53.96 128.411C53.8182 128.3 53.641 128.245 53.4284 128.245C53.2236 128.245 53.0503 128.298 52.9085 128.404C52.7683 128.509 52.662 128.656 52.5895 128.845C52.5171 129.034 52.4808 129.255 52.4808 129.507ZM57.5894 127.692V128.259H55.607V127.692H57.5894ZM56.1386 126.823H56.8451V130.256C56.8451 130.393 56.8656 130.496 56.9066 130.566C56.9475 130.633 57.0003 130.68 57.0649 130.705C57.131 130.729 57.2027 130.741 57.2799 130.741C57.3366 130.741 57.3862 130.737 57.4288 130.729C57.4713 130.721 57.5044 130.715 57.528 130.71L57.6556 131.293C57.6147 131.309 57.5564 131.325 57.4808 131.341C57.4051 131.358 57.3106 131.367 57.1972 131.369C57.0113 131.372 56.838 131.339 56.6774 131.27C56.5167 131.2 56.3867 131.093 56.2875 130.948C56.1882 130.804 56.1386 130.622 56.1386 130.403V126.823ZM58.371 131.322V127.692H59.0775V131.322H58.371ZM58.7278 127.132C58.6049 127.132 58.4994 127.091 58.4112 127.009C58.3245 126.926 58.2812 126.827 58.2812 126.712C58.2812 126.595 58.3245 126.496 58.4112 126.414C58.4994 126.331 58.6049 126.289 58.7278 126.289C58.8507 126.289 58.9554 126.331 59.0421 126.414C59.1303 126.496 59.1744 126.595 59.1744 126.712C59.1744 126.827 59.1303 126.926 59.0421 127.009C58.9554 127.091 58.8507 127.132 58.7278 127.132ZM61.5568 131.395C61.2165 131.395 60.9196 131.317 60.666 131.161C60.4123 131.005 60.2154 130.787 60.0752 130.507C59.935 130.226 59.8649 129.899 59.8649 129.524C59.8649 129.147 59.935 128.818 60.0752 128.536C60.2154 128.254 60.4123 128.035 60.666 127.879C60.9196 127.723 61.2165 127.645 61.5568 127.645C61.897 127.645 62.194 127.723 62.4476 127.879C62.7012 128.035 62.8981 128.254 63.0383 128.536C63.1785 128.818 63.2486 129.147 63.2486 129.524C63.2486 129.899 63.1785 130.226 63.0383 130.507C62.8981 130.787 62.7012 131.005 62.4476 131.161C62.194 131.317 61.897 131.395 61.5568 131.395ZM61.5591 130.802C61.7797 130.802 61.9624 130.744 62.1073 130.627C62.2523 130.511 62.3594 130.355 62.4287 130.162C62.4996 129.968 62.535 129.754 62.535 129.521C62.535 129.29 62.4996 129.077 62.4287 128.883C62.3594 128.688 62.2523 128.531 62.1073 128.413C61.9624 128.295 61.7797 128.236 61.5591 128.236C61.337 128.236 61.1527 128.295 61.0062 128.413C60.8613 128.531 60.7534 128.688 60.6825 128.883C60.6132 129.077 60.5785 129.29 60.5785 129.521C60.5785 129.754 60.6132 129.968 60.6825 130.162C60.7534 130.355 60.8613 130.511 61.0062 130.627C61.1527 130.744 61.337 130.802 61.5591 130.802ZM64.7438 129.167V131.322H64.0373V127.692H64.7154V128.283H64.7603C64.8438 128.091 64.9745 127.937 65.1526 127.82C65.3321 127.703 65.5582 127.645 65.8307 127.645C66.078 127.645 66.2946 127.697 66.4805 127.801C66.6664 127.903 66.8105 128.056 66.9129 128.259C67.0153 128.463 67.0665 128.714 67.0665 129.013V131.322H66.36V129.098C66.36 128.835 66.2915 128.63 66.1544 128.482C66.0174 128.332 65.8291 128.257 65.5897 128.257C65.4259 128.257 65.2801 128.293 65.1526 128.363C65.0265 128.434 64.9265 128.538 64.8525 128.675C64.78 128.811 64.7438 128.975 64.7438 129.167Z" fill="#6F7595"/>
<mask id="path-22-inside-4_1148_15167" fill="white">
<path d="M17.7441 151.066H506.256V193.028H17.7441V151.066Z"/>
</mask>
<path d="M17.7441 151.066H506.256V193.028H17.7441V151.066Z" fill="white"/>
<path d="M506.256 192.473H17.7441V193.582H506.256V192.473Z" fill="#E7E8EF" mask="url(#path-22-inside-4_1148_15167)"/>
<path d="M31.0527 162.156C31.0527 160.931 32.0458 159.938 33.2707 159.938H51.2707C52.4957 159.938 53.4887 160.931 53.4887 162.156V166.72C53.4887 167.945 52.4957 168.938 51.2707 168.938H33.2707C32.0458 168.938 31.0527 167.945 31.0527 166.72V162.156Z" fill="#FFF8D6"/>
<path d="M35.3107 167.011C34.9531 167.011 34.6451 166.935 34.3868 166.782C34.13 166.627 33.9315 166.411 33.7913 166.132C33.6527 165.852 33.5834 165.523 33.5834 165.147C33.5834 164.775 33.6527 164.447 33.7913 164.164C33.9315 163.88 34.1269 163.659 34.3773 163.5C34.6294 163.341 34.9239 163.261 35.2611 163.261C35.4658 163.261 35.6643 163.295 35.8565 163.363C36.0487 163.43 36.2212 163.537 36.374 163.682C36.5268 163.827 36.6473 164.015 36.7355 164.246C36.8237 164.476 36.8678 164.756 36.8678 165.085V165.336H33.9827V164.806H36.1755C36.1755 164.621 36.1377 164.456 36.0621 164.313C35.9865 164.168 35.8801 164.053 35.7431 163.97C35.6076 163.886 35.4485 163.845 35.2658 163.845C35.0673 163.845 34.894 163.894 34.7459 163.991C34.5994 164.087 34.486 164.213 34.4057 164.369C34.3269 164.524 34.2875 164.691 34.2875 164.873V165.286C34.2875 165.529 34.3301 165.735 34.4151 165.905C34.5018 166.075 34.6223 166.205 34.7767 166.295C34.931 166.383 35.1114 166.427 35.3178 166.427C35.4517 166.427 35.5738 166.408 35.684 166.371C35.7943 166.331 35.8896 166.273 35.9699 166.196C36.0503 166.119 36.1117 166.023 36.1542 165.91L36.8229 166.03C36.7694 166.227 36.6733 166.4 36.5347 166.548C36.3976 166.694 36.2251 166.809 36.0172 166.89C35.8108 166.971 35.5753 167.011 35.3107 167.011ZM41.6143 162.098V166.938H40.9433L38.4835 163.389H38.4386V166.938H37.7084V162.098H38.3842L40.8464 165.652H40.8913V162.098H41.6143ZM42.6794 166.938V162.098H44.4044C44.7808 162.098 45.0928 162.167 45.3401 162.304C45.5874 162.441 45.7725 162.629 45.8954 162.866C46.0182 163.103 46.0797 163.369 46.0797 163.665C46.0797 163.963 46.0174 164.231 45.893 164.468C45.7701 164.705 45.5842 164.892 45.3353 165.031C45.088 165.168 44.7769 165.236 44.402 165.236H43.2158V164.617H44.3358C44.5737 164.617 44.7667 164.576 44.9147 164.494C45.0628 164.411 45.1715 164.298 45.2408 164.154C45.3101 164.011 45.3448 163.848 45.3448 163.665C45.3448 163.482 45.3101 163.32 45.2408 163.178C45.1715 163.037 45.062 162.926 44.9124 162.845C44.7643 162.765 44.569 162.725 44.3264 162.725H43.4096V166.938H42.6794ZM49.575 163.37C49.5498 163.146 49.4458 162.973 49.2631 162.85C49.0804 162.725 48.8504 162.663 48.5731 162.663C48.3746 162.663 48.2029 162.695 48.058 162.758C47.9131 162.819 47.8005 162.904 47.7201 163.013C47.6414 163.12 47.602 163.242 47.602 163.379C47.602 163.494 47.6288 163.593 47.6823 163.677C47.7374 163.76 47.8091 163.831 47.8973 163.887C47.9871 163.942 48.0832 163.989 48.1856 164.027C48.288 164.063 48.3865 164.093 48.481 164.116L48.9536 164.239C49.1079 164.277 49.2663 164.328 49.4285 164.393C49.5908 164.457 49.7412 164.543 49.8798 164.648C50.0184 164.754 50.1303 164.884 50.2154 165.04C50.302 165.196 50.3453 165.383 50.3453 165.6C50.3453 165.874 50.2744 166.118 50.1327 166.33C49.9925 166.543 49.7885 166.711 49.5207 166.834C49.2544 166.957 48.9323 167.018 48.5542 167.018C48.1919 167.018 47.8784 166.961 47.6138 166.846C47.3491 166.731 47.142 166.568 46.9923 166.356C46.8427 166.144 46.76 165.892 46.7442 165.6H47.4767C47.4909 165.775 47.5476 165.921 47.6469 166.037C47.7477 166.152 47.8761 166.238 48.032 166.295C48.1896 166.35 48.362 166.378 48.5495 166.378C48.7559 166.378 48.9394 166.345 49.1001 166.281C49.2623 166.215 49.3899 166.123 49.4829 166.007C49.5758 165.889 49.6223 165.751 49.6223 165.593C49.6223 165.45 49.5813 165.333 49.4994 165.241C49.4191 165.15 49.3096 165.074 49.1709 165.014C49.0339 164.954 48.8787 164.902 48.7055 164.856L48.1336 164.7C47.7461 164.595 47.4389 164.439 47.2121 164.235C46.9868 164.03 46.8742 163.759 46.8742 163.422C46.8742 163.143 46.9498 162.9 47.101 162.692C47.2523 162.484 47.457 162.322 47.7154 162.207C47.9737 162.091 48.2652 162.032 48.5897 162.032C48.9173 162.032 49.2064 162.09 49.4569 162.205C49.7089 162.32 49.9074 162.478 50.0523 162.68C50.1972 162.88 50.2729 163.11 50.2792 163.37H49.575Z" fill="#8F3700"/>
<path d="M36.2694 176.607V173.945H37.7422V180.156H36.2694V177.849H33.0667V180.156H31.5939V173.945H33.0667V176.607H36.2694ZM43.6015 178.275H39.9995C40.1148 178.852 40.4786 179.198 41.1883 179.198C41.6408 179.198 41.9868 179.047 42.1199 178.727H43.4773C43.3353 179.508 42.5191 180.289 41.1085 180.289C39.4583 180.289 38.5622 179.224 38.5622 177.849C38.5622 176.474 39.476 175.409 41.1173 175.409C42.7498 175.409 43.7434 176.474 43.6015 178.275ZM41.1173 176.456C40.4431 176.456 40.0793 176.793 39.9906 177.45H42.2086C42.0844 176.74 41.7206 176.456 41.1173 176.456ZM45.7827 180.289C44.7802 180.289 44.1592 179.801 44.1592 178.816C44.1592 177.885 44.7181 177.423 45.9247 177.423H47.5305V177.068C47.5305 176.616 47.2644 176.465 46.6078 176.465C46.0045 176.465 45.7206 176.598 45.6674 176.971H44.3987C44.3455 175.773 45.2327 175.409 46.6345 175.409C48.2758 175.409 48.9589 175.924 48.9589 176.971V180.156H47.7523L47.6104 179.508H47.5749C47.2466 180.005 46.5457 180.289 45.7827 180.289ZM46.2973 179.215H46.3594C47.0248 179.215 47.5305 178.94 47.5305 178.479V178.293H46.1554C45.8005 178.293 45.6142 178.452 45.6142 178.745C45.6142 179.029 45.8005 179.215 46.2973 179.215ZM53.5096 176.021V173.857H54.9469V180.156H53.5362L53.5185 179.579C53.1459 180.085 52.6047 180.289 51.9925 180.289C50.6085 180.289 49.7301 179.206 49.7301 177.849C49.7301 176.501 50.6085 175.418 51.9925 175.418C52.7111 175.418 53.2967 175.702 53.7758 176.509L53.5096 176.021ZM52.3296 179.038C53.066 179.038 53.5273 178.541 53.5273 177.849C53.5273 177.157 53.066 176.66 52.3296 176.66C51.5933 176.66 51.1408 177.157 51.1408 177.849C51.1408 178.541 51.5933 179.038 52.3296 179.038ZM57.3585 180.156H55.9301V173.857H57.3585V180.156ZM59.0747 174.895C58.5956 174.895 58.3117 174.566 58.3117 174.167C58.3117 173.777 58.5956 173.44 59.0747 173.44C59.5538 173.44 59.8377 173.777 59.8377 174.167C59.8377 174.566 59.5538 174.895 59.0747 174.895ZM59.7933 180.156H58.3649V175.542H59.7933V180.156ZM62.219 180.156H60.7906V175.542H62.1658L62.219 176.155L62.1037 176.43C62.4142 175.862 62.9022 175.409 63.8692 175.409C65.1734 175.409 65.7767 176.217 65.7767 177.521V180.156H64.3394V177.787C64.3394 177.104 64.0555 176.66 63.3103 176.66C62.565 176.66 62.219 177.104 62.219 177.787V180.156ZM71.5776 178.275H67.9756C68.0909 178.852 68.4547 179.198 69.1644 179.198C69.6169 179.198 69.9629 179.047 70.096 178.727H71.4534C71.3115 179.508 70.4952 180.289 69.0846 180.289C67.4344 180.289 66.5383 179.224 66.5383 177.849C66.5383 176.474 67.4522 175.409 69.0935 175.409C70.7259 175.409 71.7196 176.474 71.5776 178.275ZM69.0935 176.456C68.4192 176.456 68.0555 176.793 67.9667 177.45H70.1847C70.0605 176.74 69.6968 176.456 69.0935 176.456Z" fill="#101940"/>
<path d="M362.775 166.047C362.775 163.75 364.637 161.888 366.934 161.888H396.093V182.205H366.934C364.637 182.205 362.775 180.343 362.775 178.047V166.047Z" fill="white"/>
<path d="M362.775 166.047C362.775 163.75 364.637 161.888 366.934 161.888H396.093V182.205H366.934C364.637 182.205 362.775 180.343 362.775 178.047V166.047Z" stroke="#E7E8EF" stroke-width="0.554497"/>
<path d="M369.448 174.124C369.196 174.12 368.948 174.074 368.703 173.986C368.461 173.898 368.24 173.75 368.042 173.545C367.843 173.339 367.684 173.062 367.565 172.715C367.447 172.368 367.388 171.934 367.388 171.414C367.388 170.921 367.437 170.484 367.535 170.102C367.634 169.719 367.776 169.397 367.962 169.134C368.147 168.869 368.372 168.668 368.634 168.53C368.897 168.392 369.192 168.323 369.519 168.323C369.856 168.323 370.154 168.39 370.415 168.522C370.676 168.654 370.888 168.837 371.049 169.07C371.213 169.304 371.317 169.569 371.361 169.867H370.52C370.463 169.632 370.35 169.44 370.181 169.291C370.012 169.142 369.791 169.068 369.519 169.068C369.106 169.068 368.783 169.248 368.552 169.608C368.322 169.968 368.206 170.469 368.204 171.11H368.246C368.343 170.951 368.463 170.815 368.604 170.702C368.748 170.589 368.907 170.501 369.084 170.441C369.262 170.378 369.45 170.347 369.646 170.347C369.973 170.347 370.269 170.427 370.534 170.587C370.8 170.745 371.013 170.963 371.171 171.243C371.329 171.522 371.408 171.842 371.408 172.202C371.408 172.562 371.326 172.889 371.162 173.181C371.001 173.473 370.773 173.705 370.479 173.875C370.185 174.045 369.841 174.127 369.448 174.124ZM369.445 173.407C369.662 173.407 369.856 173.354 370.027 173.247C370.198 173.14 370.333 172.997 370.432 172.817C370.531 172.637 370.581 172.436 370.581 172.213C370.581 171.996 370.532 171.799 370.435 171.62C370.339 171.442 370.207 171.301 370.038 171.196C369.87 171.091 369.679 171.039 369.464 171.039C369.301 171.039 369.149 171.07 369.009 171.133C368.872 171.195 368.75 171.281 368.646 171.392C368.541 171.502 368.458 171.629 368.397 171.772C368.339 171.914 368.309 172.063 368.309 172.221C368.309 172.433 368.358 172.629 368.455 172.809C368.555 172.989 368.69 173.134 368.861 173.244C369.033 173.353 369.228 173.407 369.445 173.407ZM374.477 174.046V169.812H375.269V170.501H375.321C375.409 170.268 375.553 170.086 375.754 169.955C375.954 169.823 376.194 169.757 376.473 169.757C376.756 169.757 376.993 169.823 377.185 169.955C377.377 170.088 377.52 170.27 377.612 170.501H377.656C377.757 170.275 377.918 170.095 378.138 169.961C378.359 169.825 378.622 169.757 378.927 169.757C379.311 169.757 379.624 169.877 379.867 170.118C380.111 170.359 380.233 170.722 380.233 171.207V174.046H379.409V171.284C379.409 170.997 379.331 170.79 379.175 170.661C379.019 170.532 378.832 170.468 378.615 170.468C378.347 170.468 378.138 170.551 377.989 170.716C377.841 170.88 377.766 171.09 377.766 171.348V174.046H376.945V171.232C376.945 171.002 376.873 170.817 376.73 170.678C376.586 170.538 376.4 170.468 376.17 170.468C376.014 170.468 375.87 170.509 375.737 170.592C375.607 170.673 375.501 170.786 375.42 170.931C375.341 171.076 375.302 171.245 375.302 171.436V174.046H374.477ZM383.122 174.132C382.725 174.132 382.378 174.041 382.083 173.859C381.787 173.677 381.557 173.422 381.393 173.095C381.23 172.768 381.148 172.386 381.148 171.949C381.148 171.509 381.23 171.125 381.393 170.796C381.557 170.467 381.787 170.212 382.083 170.03C382.378 169.848 382.725 169.757 383.122 169.757C383.519 169.757 383.865 169.848 384.161 170.03C384.457 170.212 384.687 170.467 384.85 170.796C385.014 171.125 385.096 171.509 385.096 171.949C385.096 172.386 385.014 172.768 384.85 173.095C384.687 173.422 384.457 173.677 384.161 173.859C383.865 174.041 383.519 174.132 383.122 174.132ZM383.125 173.44C383.382 173.44 383.595 173.372 383.764 173.236C383.933 173.1 384.058 172.919 384.139 172.693C384.222 172.467 384.263 172.218 384.263 171.946C384.263 171.676 384.222 171.427 384.139 171.201C384.058 170.974 383.933 170.791 383.764 170.653C383.595 170.515 383.382 170.446 383.125 170.446C382.865 170.446 382.65 170.515 382.48 170.653C382.31 170.791 382.185 170.974 382.102 171.201C382.021 171.427 381.981 171.676 381.981 171.946C381.981 172.218 382.021 172.467 382.102 172.693C382.185 172.919 382.31 173.1 382.48 173.236C382.65 173.372 382.865 173.44 383.125 173.44ZM386.016 174.046V169.812H386.84V174.046H386.016ZM386.432 169.159C386.289 169.159 386.165 169.111 386.063 169.015C385.961 168.918 385.911 168.802 385.911 168.668C385.911 168.532 385.961 168.416 386.063 168.321C386.165 168.223 386.289 168.175 386.432 168.175C386.575 168.175 386.698 168.223 386.799 168.321C386.902 168.416 386.953 168.532 386.953 168.668C386.953 168.802 386.902 168.918 386.799 169.015C386.698 169.111 386.575 169.159 386.432 169.159ZM391.122 170.846L390.375 170.978C390.344 170.883 390.294 170.792 390.226 170.705C390.16 170.619 390.07 170.548 389.956 170.493C389.842 170.438 389.699 170.41 389.528 170.41C389.295 170.41 389.1 170.463 388.944 170.567C388.788 170.67 388.71 170.804 388.71 170.967C388.71 171.109 388.762 171.223 388.867 171.309C388.972 171.395 389.141 171.466 389.374 171.521L390.047 171.676C390.436 171.766 390.727 171.904 390.918 172.092C391.109 172.279 391.205 172.523 391.205 172.822C391.205 173.076 391.131 173.302 390.984 173.501C390.839 173.697 390.636 173.852 390.375 173.964C390.116 174.076 389.815 174.132 389.473 174.132C388.999 174.132 388.612 174.031 388.313 173.829C388.013 173.625 387.829 173.335 387.761 172.96L388.558 172.839C388.608 173.047 388.71 173.204 388.864 173.31C389.018 173.415 389.22 173.467 389.468 173.467C389.738 173.467 389.954 173.411 390.116 173.299C390.277 173.185 390.358 173.047 390.358 172.883C390.358 172.751 390.309 172.64 390.209 172.549C390.112 172.459 389.962 172.391 389.76 172.345L389.043 172.188C388.648 172.098 388.356 171.955 388.167 171.758C387.979 171.562 387.885 171.313 387.885 171.011C387.885 170.761 387.955 170.543 388.095 170.355C388.235 170.168 388.428 170.022 388.674 169.917C388.92 169.81 389.202 169.757 389.52 169.757C389.978 169.757 390.338 169.856 390.601 170.055C390.864 170.251 391.037 170.515 391.122 170.846Z" fill="#101940"/>
<mask id="path-29-inside-5_1148_15167" fill="white">
<path d="M396.369 161.611H425.805C428.255 161.611 430.241 163.597 430.241 166.047V178.047C430.241 180.496 428.255 182.483 425.805 182.483H396.369V161.611Z"/>
</mask>
<path d="M396.369 161.611H425.805C428.255 161.611 430.241 163.597 430.241 166.047V178.047C430.241 180.496 428.255 182.483 425.805 182.483H396.369V161.611Z" fill="white"/>
<path d="M396.369 161.611V161.056H395.815V161.611H396.369ZM396.369 182.483H395.815V183.037H396.369V182.483ZM396.369 162.165H425.805V161.056H396.369V162.165ZM429.687 166.047V178.047H430.796V166.047H429.687ZM425.805 181.928H396.369V183.037H425.805V181.928ZM396.924 182.483V161.611H395.815V182.483H396.924ZM429.687 178.047C429.687 180.19 427.949 181.928 425.805 181.928V183.037C428.561 183.037 430.796 180.803 430.796 178.047H429.687ZM425.805 162.165C427.949 162.165 429.687 163.903 429.687 166.047H430.796C430.796 163.29 428.561 161.056 425.805 161.056V162.165Z" fill="#E7E8EF" mask="url(#path-29-inside-5_1148_15167)"/>
<path d="M403.319 174.124C403.067 174.12 402.819 174.074 402.575 173.986C402.332 173.898 402.111 173.751 401.913 173.545C401.714 173.339 401.555 173.062 401.436 172.715C401.318 172.368 401.26 171.934 401.26 171.414C401.26 170.921 401.308 170.484 401.406 170.102C401.505 169.719 401.647 169.397 401.833 169.134C402.019 168.869 402.243 168.668 402.506 168.53C402.768 168.393 403.063 168.324 403.391 168.324C403.727 168.324 404.025 168.39 404.286 168.522C404.547 168.654 404.759 168.837 404.92 169.071C405.084 169.304 405.188 169.57 405.232 169.867H404.391C404.334 169.632 404.221 169.44 404.052 169.291C403.883 169.142 403.663 169.068 403.391 169.068C402.977 169.068 402.654 169.248 402.423 169.608C402.193 169.969 402.077 170.469 402.076 171.111H402.117C402.214 170.951 402.334 170.815 402.475 170.703C402.619 170.589 402.779 170.501 402.955 170.441C403.133 170.378 403.321 170.347 403.517 170.347C403.844 170.347 404.14 170.427 404.405 170.587C404.671 170.745 404.884 170.964 405.042 171.243C405.2 171.522 405.279 171.842 405.279 172.202C405.279 172.563 405.197 172.889 405.034 173.181C404.872 173.473 404.644 173.705 404.35 173.876C404.056 174.045 403.712 174.127 403.319 174.124ZM403.316 173.407C403.533 173.407 403.727 173.354 403.898 173.247C404.069 173.141 404.204 172.997 404.303 172.817C404.402 172.637 404.452 172.436 404.452 172.213C404.452 171.997 404.403 171.799 404.306 171.621C404.21 171.442 404.078 171.301 403.909 171.196C403.742 171.091 403.55 171.039 403.335 171.039C403.172 171.039 403.02 171.07 402.881 171.133C402.743 171.195 402.621 171.282 402.517 171.392C402.412 171.502 402.329 171.629 402.269 171.772C402.21 171.914 402.18 172.064 402.18 172.222C402.18 172.433 402.229 172.629 402.326 172.809C402.426 172.989 402.561 173.134 402.732 173.244C402.904 173.353 403.099 173.407 403.316 173.407ZM408.348 174.047V169.812H409.14V170.501H409.192C409.28 170.268 409.425 170.086 409.625 169.956C409.825 169.823 410.065 169.757 410.344 169.757C410.627 169.757 410.864 169.823 411.056 169.956C411.249 170.088 411.391 170.27 411.483 170.501H411.527C411.628 170.275 411.789 170.095 412.009 169.961C412.23 169.825 412.493 169.757 412.798 169.757C413.182 169.757 413.495 169.878 413.738 170.118C413.982 170.359 414.105 170.722 414.105 171.207V174.047H413.28V171.284C413.28 170.998 413.202 170.79 413.046 170.661C412.89 170.533 412.703 170.468 412.486 170.468C412.218 170.468 412.009 170.551 411.861 170.716C411.712 170.88 411.637 171.09 411.637 171.348V174.047H410.816V171.232C410.816 171.002 410.744 170.818 410.601 170.678C410.457 170.538 410.271 170.468 410.041 170.468C409.885 170.468 409.741 170.51 409.608 170.592C409.478 170.673 409.372 170.786 409.291 170.932C409.212 171.077 409.173 171.245 409.173 171.436V174.047H408.348ZM416.993 174.132C416.596 174.132 416.25 174.041 415.954 173.859C415.658 173.677 415.428 173.423 415.264 173.096C415.101 172.768 415.019 172.386 415.019 171.949C415.019 171.51 415.101 171.125 415.264 170.796C415.428 170.467 415.658 170.212 415.954 170.03C416.25 169.848 416.596 169.757 416.993 169.757C417.39 169.757 417.736 169.848 418.032 170.03C418.328 170.212 418.558 170.467 418.721 170.796C418.885 171.125 418.967 171.51 418.967 171.949C418.967 172.386 418.885 172.768 418.721 173.096C418.558 173.423 418.328 173.677 418.032 173.859C417.736 174.041 417.39 174.132 416.993 174.132ZM416.996 173.44C417.253 173.44 417.466 173.372 417.635 173.236C417.804 173.1 417.929 172.919 418.01 172.693C418.093 172.467 418.134 172.218 418.134 171.946C418.134 171.676 418.093 171.428 418.01 171.202C417.929 170.974 417.804 170.791 417.635 170.653C417.466 170.515 417.253 170.446 416.996 170.446C416.737 170.446 416.522 170.515 416.351 170.653C416.182 170.791 416.056 170.974 415.973 171.202C415.892 171.428 415.852 171.676 415.852 171.946C415.852 172.218 415.892 172.467 415.973 172.693C416.056 172.919 416.182 173.1 416.351 173.236C416.522 173.372 416.737 173.44 416.996 173.44ZM419.887 174.047V169.812H420.711V174.047H419.887ZM420.303 169.159C420.16 169.159 420.037 169.111 419.934 169.016C419.833 168.918 419.782 168.802 419.782 168.668C419.782 168.532 419.833 168.416 419.934 168.321C420.037 168.223 420.16 168.175 420.303 168.175C420.446 168.175 420.569 168.223 420.67 168.321C420.773 168.416 420.824 168.532 420.824 168.668C420.824 168.802 420.773 168.918 420.67 169.016C420.569 169.111 420.446 169.159 420.303 169.159ZM424.993 170.846L424.246 170.978C424.215 170.883 424.165 170.792 424.097 170.705C424.031 170.619 423.941 170.548 423.827 170.493C423.713 170.438 423.57 170.41 423.4 170.41C423.166 170.41 422.971 170.463 422.815 170.568C422.659 170.671 422.581 170.804 422.581 170.967C422.581 171.109 422.633 171.223 422.738 171.309C422.843 171.396 423.012 171.466 423.245 171.521L423.918 171.676C424.307 171.766 424.598 171.905 424.789 172.092C424.98 172.28 425.076 172.523 425.076 172.823C425.076 173.076 425.002 173.302 424.855 173.501C424.71 173.697 424.507 173.852 424.246 173.964C423.987 174.076 423.686 174.132 423.344 174.132C422.87 174.132 422.483 174.031 422.184 173.829C421.884 173.625 421.701 173.335 421.633 172.96L422.429 172.839C422.479 173.047 422.581 173.204 422.735 173.311C422.89 173.415 423.091 173.468 423.339 173.468C423.609 173.468 423.825 173.412 423.987 173.3C424.148 173.186 424.229 173.047 424.229 172.883C424.229 172.751 424.18 172.64 424.08 172.55C423.983 172.46 423.833 172.392 423.631 172.346L422.914 172.189C422.519 172.099 422.227 171.955 422.038 171.759C421.85 171.562 421.757 171.313 421.757 171.011C421.757 170.762 421.826 170.543 421.966 170.355C422.106 170.168 422.299 170.022 422.545 169.917C422.791 169.81 423.073 169.757 423.391 169.757C423.849 169.757 424.209 169.856 424.472 170.055C424.735 170.252 424.908 170.515 424.993 170.846Z" fill="#101940"/>
<path d="M434.955 166.047C434.955 163.75 436.817 161.888 439.114 161.888H464.114C466.411 161.888 468.272 163.75 468.272 166.047V178.047C468.272 180.343 466.411 182.205 464.114 182.205H439.114C436.817 182.205 434.955 180.343 434.955 178.047V166.047Z" fill="white"/>
<path d="M434.955 166.047C434.955 163.75 436.817 161.888 439.114 161.888H464.114C466.411 161.888 468.272 163.75 468.272 166.047V178.047C468.272 180.343 466.411 182.205 464.114 182.205H439.114C436.817 182.205 434.955 180.343 434.955 178.047V166.047Z" stroke="#E7E8EF" stroke-width="0.554497"/>
<path d="M439.734 174.047V168.401H441.801C442.202 168.401 442.533 168.467 442.796 168.599C443.059 168.73 443.256 168.907 443.386 169.131C443.517 169.354 443.582 169.605 443.582 169.884C443.582 170.119 443.539 170.318 443.452 170.479C443.366 170.639 443.25 170.768 443.105 170.865C442.962 170.961 442.804 171.031 442.631 171.075V171.13C442.818 171.139 443.001 171.2 443.179 171.312C443.36 171.422 443.508 171.579 443.626 171.783C443.744 171.987 443.802 172.235 443.802 172.528C443.802 172.816 443.734 173.075 443.598 173.305C443.464 173.533 443.257 173.714 442.975 173.848C442.694 173.98 442.335 174.047 441.898 174.047H439.734ZM440.585 173.316H441.815C442.223 173.316 442.515 173.237 442.692 173.079C442.868 172.921 442.956 172.723 442.956 172.486C442.956 172.308 442.911 172.144 442.821 171.996C442.731 171.847 442.602 171.728 442.435 171.64C442.27 171.552 442.073 171.508 441.845 171.508H440.585V173.316ZM440.585 170.843H441.727C441.918 170.843 442.09 170.807 442.242 170.733C442.397 170.66 442.519 170.557 442.609 170.424C442.701 170.29 442.747 170.132 442.747 169.95C442.747 169.717 442.665 169.521 442.501 169.363C442.338 169.205 442.087 169.126 441.749 169.126H440.585V170.843ZM447.429 172.291V169.812H448.256V174.047H447.446V173.313H447.401C447.304 173.539 447.148 173.728 446.933 173.878C446.72 174.027 446.454 174.102 446.136 174.102C445.864 174.102 445.623 174.042 445.414 173.923C445.206 173.801 445.043 173.622 444.923 173.385C444.805 173.148 444.747 172.855 444.747 172.506V169.812H445.571V172.406C445.571 172.695 445.651 172.925 445.811 173.096C445.971 173.266 446.178 173.352 446.434 173.352C446.588 173.352 446.742 173.313 446.894 173.236C447.049 173.159 447.176 173.042 447.277 172.886C447.38 172.73 447.431 172.531 447.429 172.291ZM451.34 169.812V170.474H449.027V169.812H451.34ZM449.647 168.798H450.472V172.803C450.472 172.963 450.496 173.084 450.543 173.164C450.591 173.244 450.653 173.298 450.728 173.327C450.805 173.355 450.889 173.368 450.979 173.368C451.045 173.368 451.103 173.364 451.153 173.355C451.202 173.346 451.241 173.338 451.268 173.333L451.417 174.014C451.369 174.032 451.301 174.05 451.213 174.069C451.125 174.089 451.015 174.1 450.882 174.102C450.666 174.105 450.463 174.067 450.276 173.986C450.089 173.905 449.937 173.78 449.821 173.611C449.705 173.442 449.647 173.23 449.647 172.974V168.798ZM454.228 169.812V170.474H451.916V169.812H454.228ZM452.536 168.798H453.36V172.803C453.36 172.963 453.384 173.084 453.432 173.164C453.48 173.244 453.541 173.298 453.616 173.327C453.694 173.355 453.777 173.368 453.867 173.368C453.933 173.368 453.991 173.364 454.041 173.355C454.091 173.346 454.129 173.338 454.157 173.333L454.306 174.014C454.258 174.032 454.19 174.05 454.102 174.069C454.013 174.089 453.903 174.1 453.771 174.102C453.554 174.105 453.352 174.067 453.164 173.986C452.977 173.905 452.825 173.78 452.709 173.611C452.594 173.442 452.536 173.23 452.536 172.974V168.798ZM456.878 174.132C456.481 174.132 456.135 174.041 455.839 173.859C455.543 173.677 455.313 173.423 455.15 173.096C454.986 172.768 454.905 172.386 454.905 171.949C454.905 171.51 454.986 171.125 455.15 170.796C455.313 170.467 455.543 170.212 455.839 170.03C456.135 169.848 456.481 169.757 456.878 169.757C457.275 169.757 457.622 169.848 457.918 170.03C458.214 170.212 458.443 170.467 458.607 170.796C458.77 171.125 458.852 171.51 458.852 171.949C458.852 172.386 458.77 172.768 458.607 173.096C458.443 173.423 458.214 173.677 457.918 173.859C457.622 174.041 457.275 174.132 456.878 174.132ZM456.881 173.44C457.138 173.44 457.352 173.372 457.521 173.236C457.69 173.1 457.815 172.919 457.896 172.693C457.978 172.467 458.02 172.218 458.02 171.946C458.02 171.676 457.978 171.428 457.896 171.202C457.815 170.974 457.69 170.791 457.521 170.653C457.352 170.515 457.138 170.446 456.881 170.446C456.622 170.446 456.407 170.515 456.236 170.653C456.067 170.791 455.941 170.974 455.858 171.202C455.778 171.428 455.737 171.676 455.737 171.946C455.737 172.218 455.778 172.467 455.858 172.693C455.941 172.919 456.067 173.1 456.236 173.236C456.407 173.372 456.622 173.44 456.881 173.44ZM460.597 171.532V174.047H459.772V169.812H460.563V170.501H460.616C460.713 170.277 460.866 170.097 461.073 169.961C461.283 169.825 461.547 169.757 461.865 169.757C462.153 169.757 462.406 169.818 462.623 169.939C462.84 170.059 463.008 170.237 463.127 170.474C463.247 170.711 463.306 171.004 463.306 171.353V174.047H462.482V171.453C462.482 171.146 462.402 170.906 462.242 170.733C462.082 170.558 461.863 170.471 461.583 170.471C461.392 170.471 461.222 170.512 461.073 170.595C460.926 170.678 460.81 170.799 460.723 170.959C460.639 171.117 460.597 171.308 460.597 171.532Z" fill="#101940"/>
<path d="M486.709 170.762C485.873 170.762 485.531 170.171 485.947 169.445C486.187 169.025 486.044 168.489 485.623 168.248L484.824 167.791C484.459 167.574 483.988 167.703 483.771 168.068L483.72 168.156C483.304 168.881 482.62 168.881 482.199 168.156L482.149 168.068C481.941 167.703 481.469 167.574 481.104 167.791L480.305 168.248C479.884 168.489 479.741 169.029 479.981 169.45C480.402 170.171 480.06 170.762 479.224 170.762C478.743 170.762 478.346 171.155 478.346 171.64V172.453C478.346 172.934 478.738 173.331 479.224 173.331C480.06 173.331 480.402 173.923 479.981 174.648C479.741 175.069 479.884 175.605 480.305 175.845L481.104 176.302C481.469 176.52 481.941 176.39 482.158 176.025L482.209 175.937C482.625 175.212 483.308 175.212 483.729 175.937L483.78 176.025C483.997 176.39 484.468 176.52 484.833 176.302L485.633 175.845C486.053 175.605 486.196 175.064 485.956 174.648C485.536 173.923 485.878 173.331 486.714 173.331C487.195 173.331 487.592 172.938 487.592 172.453V171.64C487.587 171.159 487.195 170.762 486.709 170.762ZM482.967 173.548C482.139 173.548 481.465 172.874 481.465 172.047C481.465 171.219 482.139 170.545 482.967 170.545C483.794 170.545 484.468 171.219 484.468 172.047C484.468 172.874 483.794 173.548 482.967 173.548Z" fill="#6F7595"/>
<path d="M18.5426 214.059V205.502H22.3088V206.713H23.5065V207.911H24.7308V211.65H23.5065V212.861H22.3088V214.059H18.5426ZM19.8867 212.728H22.1757V211.517H23.3734V208.044H22.1757V206.846H19.8867V212.728ZM26.3402 214.059V209.122H27.5513V207.911H31.3041V209.122H32.5284V210.439H31.171V209.242H27.6843V214.059H26.3402ZM34.946 214.059V212.861H33.735V209.122H34.946V207.911H38.6988V209.122H39.9232V212.728H41.1342V214.059H39.7901V212.861H38.6988V214.059H34.946ZM35.0791 212.728H38.5658V209.242H35.0791V212.728ZM42.3384 214.059V207.911H43.6825V212.728H45.9714V207.911H47.3022V212.728H49.6045V207.911H50.9353V212.861H49.7376V214.059H47.1691V212.861H46.1045V214.059H42.3384ZM53.3484 214.059V212.861H52.1374V209.122H53.3484V207.911H57.1012V209.122H58.3255V210.439H56.9681V209.242H53.4815V210.306H55.9035V211.65H53.4815V212.728H56.9681V211.504H58.3255V212.848H57.1012V214.059H53.3484ZM59.935 214.059V209.122H61.146V207.911H64.8988V209.122H66.1232V210.439H64.7658V209.242H61.2791V214.059H59.935Z" fill="#444444"/>
<mask id="path-37-inside-6_1148_15167" fill="white">
<path d="M17.7441 226.771H225.681V264.477H17.7441V226.771Z"/>
</mask>
<path d="M17.7441 226.771H225.681V264.477H17.7441V226.771Z" fill="white"/>
<path d="M225.681 263.923H17.7441V265.032H225.681V263.923Z" fill="#E7E8EF" mask="url(#path-37-inside-6_1148_15167)"/>
<path d="M37.5736 244.189V240.862H39.4146V248.625H37.5736V245.741H33.5702V248.625H31.7292V240.862H33.5702V244.189H37.5736ZM46.7387 246.273H42.2362C42.3803 246.994 42.835 247.427 43.7222 247.427C44.2878 247.427 44.7203 247.238 44.8867 246.839H46.5834C46.406 247.815 45.3857 248.791 43.6224 248.791C41.5597 248.791 40.4396 247.46 40.4396 245.741C40.4396 244.022 41.5819 242.691 43.6335 242.691C45.674 242.691 46.9161 244.022 46.7387 246.273ZM43.6335 244C42.7907 244 42.336 244.421 42.2251 245.242H44.9976C44.8423 244.355 44.3876 244 43.6335 244ZM49.4653 248.791C48.2121 248.791 47.4358 248.181 47.4358 246.95C47.4358 245.785 48.1345 245.209 49.6427 245.209H51.65V244.765C51.65 244.2 51.3173 244.011 50.4966 244.011C49.7425 244.011 49.3876 244.177 49.3211 244.643H47.7352C47.6687 243.146 48.7777 242.691 50.5299 242.691C52.5815 242.691 53.4355 243.335 53.4355 244.643V248.625H51.9272L51.7498 247.815H51.7054C51.2951 248.436 50.419 248.791 49.4653 248.791ZM50.1085 247.449H50.1861C51.0178 247.449 51.65 247.105 51.65 246.529V246.296H49.931C49.4874 246.296 49.2545 246.495 49.2545 246.861C49.2545 247.216 49.4874 247.449 50.1085 247.449ZM59.1238 243.457V240.751H60.9204V248.625H59.1571L59.1349 247.904C58.6691 248.536 57.9926 248.791 57.2274 248.791C55.4974 248.791 54.3995 247.438 54.3995 245.741C54.3995 244.055 55.4974 242.702 57.2274 242.702C58.1257 242.702 58.8577 243.057 59.4565 244.067L59.1238 243.457ZM57.6489 247.227C58.5693 247.227 59.146 246.606 59.146 245.741C59.146 244.876 58.5693 244.255 57.6489 244.255C56.7284 244.255 56.1628 244.876 56.1628 245.741C56.1628 246.606 56.7284 247.227 57.6489 247.227ZM63.9349 248.625H62.1495V240.751H63.9349V248.625ZM66.0802 242.048C65.4813 242.048 65.1264 241.638 65.1264 241.139C65.1264 240.651 65.4813 240.229 66.0802 240.229C66.679 240.229 67.0339 240.651 67.0339 241.139C67.0339 241.638 66.679 242.048 66.0802 242.048ZM66.9784 248.625H65.193V242.858H66.9784V248.625ZM70.0106 248.625H68.2251V242.858H69.9441L70.0106 243.623L69.8664 243.967C70.2546 243.257 70.8645 242.691 72.0733 242.691C73.7035 242.691 74.4577 243.701 74.4577 245.331V248.625H72.6611V245.663C72.6611 244.81 72.3062 244.255 71.3747 244.255C70.4431 244.255 70.0106 244.81 70.0106 245.663V248.625ZM81.7088 246.273H77.2063C77.3505 246.994 77.8052 247.427 78.6924 247.427C79.258 247.427 79.6905 247.238 79.8568 246.839H81.5536C81.3761 247.815 80.3559 248.791 78.5926 248.791C76.5298 248.791 75.4097 247.46 75.4097 245.741C75.4097 244.022 76.552 242.691 78.6037 242.691C80.6442 242.691 81.8863 244.022 81.7088 246.273ZM78.6037 244C77.7608 244 77.3061 244.421 77.1952 245.242H79.9677C79.8125 244.355 79.3578 244 78.6037 244Z" fill="#101940"/>
<path fill-rule="evenodd" clip-rule="evenodd" d="M182.615 245.624C182.615 248.176 180.546 250.245 177.994 250.245C175.442 250.245 173.373 248.176 173.373 245.624C173.373 243.072 175.442 241.004 177.994 241.004C180.546 241.004 182.615 243.072 182.615 245.624ZM176.146 244.216C176.146 243.198 176.978 242.39 177.994 242.39C179.01 242.39 179.842 243.198 179.842 244.216C179.842 245.004 179.321 245.42 178.954 245.666C178.624 245.891 178.456 246.066 178.456 246.376V246.549C178.456 246.804 178.249 247.011 177.994 247.011C177.739 247.011 177.532 246.804 177.532 246.549V246.376C177.532 245.569 178.065 245.153 178.436 244.901L178.438 244.9C178.755 244.687 178.918 244.511 178.918 244.216C178.918 243.722 178.514 243.314 177.994 243.314C177.474 243.314 177.07 243.722 177.07 244.216C177.07 244.471 176.863 244.678 176.608 244.678C176.352 244.678 176.146 244.471 176.146 244.216ZM177.99 247.473C177.734 247.473 177.528 247.68 177.528 247.935C177.528 248.19 177.734 248.397 177.99 248.397H177.998C178.253 248.397 178.46 248.19 178.46 247.935C178.46 247.68 178.253 247.473 177.998 247.473H177.99Z" fill="#6F7595"/>
<path fill-rule="evenodd" clip-rule="evenodd" d="M198.898 242.131C199.169 241.86 199.608 241.86 199.879 242.131L205.886 248.138C206.156 248.409 206.156 248.848 205.886 249.118C205.615 249.389 205.176 249.389 204.905 249.118L198.898 243.111C198.628 242.841 198.628 242.402 198.898 242.131Z" fill="#6F7595"/>
<path fill-rule="evenodd" clip-rule="evenodd" d="M205.886 242.131C206.156 242.402 206.156 242.841 205.886 243.111L199.879 249.118C199.608 249.389 199.169 249.389 198.898 249.118C198.628 248.848 198.628 248.409 198.898 248.138L204.905 242.131C205.176 241.86 205.615 241.86 205.886 242.131Z" fill="#6F7595"/>
<mask id="path-44-inside-7_1148_15167" fill="white">
<path d="M17.7441 273.349H225.681V311.055H17.7441V273.349Z"/>
</mask>
<path d="M17.7441 273.349H225.681V311.055H17.7441V273.349Z" fill="white"/>
<path d="M225.681 310.5H17.7441V311.609H225.681V310.5Z" fill="#E7E8EF" mask="url(#path-44-inside-7_1148_15167)"/>
<path fill-rule="evenodd" clip-rule="evenodd" d="M40.8313 288.709C41.102 288.979 41.102 289.418 40.8313 289.689L39.011 291.509H44.962C45.3448 291.509 45.6551 291.819 45.6551 292.202C45.6551 292.585 45.3448 292.895 44.962 292.895H39.011L40.8313 294.716C41.102 294.986 41.102 295.425 40.8313 295.696C40.5606 295.967 40.1218 295.967 39.8511 295.696L36.8475 292.692C36.5769 292.422 36.5769 291.983 36.8475 291.712L39.8511 288.709C40.1218 288.438 40.5606 288.438 40.8313 288.709Z" fill="#6F7595"/>
<path d="M66.4076 290.766V287.439H68.2485V295.202H66.4076V292.319H62.4041V295.202H60.5632V287.439H62.4041V290.766H66.4076ZM75.5727 292.851H71.0702C71.2143 293.572 71.669 294.004 72.5562 294.004C73.1218 294.004 73.5543 293.816 73.7206 293.417H75.4174C75.24 294.393 74.2197 295.368 72.4564 295.368C70.3937 295.368 69.2736 294.038 69.2736 292.319C69.2736 290.6 70.4158 289.269 72.4675 289.269C74.508 289.269 75.7501 290.6 75.5727 292.851ZM72.4675 290.578C71.6246 290.578 71.17 290.999 71.0591 291.82H73.8315C73.6763 290.933 73.2216 290.578 72.4675 290.578ZM78.2992 295.368C77.0461 295.368 76.2698 294.759 76.2698 293.528C76.2698 292.363 76.9684 291.786 78.4767 291.786H80.484V291.343C80.484 290.777 80.1513 290.589 79.3306 290.589C78.5765 290.589 78.2216 290.755 78.1551 291.221H76.5692C76.5027 289.724 77.6117 289.269 79.3639 289.269C81.4155 289.269 82.2694 289.912 82.2694 291.221V295.202H80.7612L80.5838 294.393H80.5394C80.1291 295.014 79.253 295.368 78.2992 295.368ZM78.9425 294.027H79.0201C79.8518 294.027 80.484 293.683 80.484 293.106V292.873H78.765C78.3214 292.873 78.0885 293.073 78.0885 293.439C78.0885 293.794 78.3214 294.027 78.9425 294.027ZM87.9578 290.034V287.328H89.7544V295.202H87.9911L87.9689 294.481C87.5031 295.113 86.8266 295.368 86.0614 295.368C84.3314 295.368 83.2335 294.016 83.2335 292.319C83.2335 290.633 84.3314 289.28 86.0614 289.28C86.9597 289.28 87.6916 289.635 88.2905 290.644L87.9578 290.034ZM86.4828 293.805C87.4033 293.805 87.98 293.184 87.98 292.319C87.98 291.454 87.4033 290.833 86.4828 290.833C85.5624 290.833 84.9968 291.454 84.9968 292.319C84.9968 293.184 85.5624 293.805 86.4828 293.805ZM92.7689 295.202H90.9834V287.328H92.7689V295.202ZM94.9141 288.626C94.3153 288.626 93.9604 288.215 93.9604 287.716C93.9604 287.228 94.3153 286.807 94.9141 286.807C95.513 286.807 95.8679 287.228 95.8679 287.716C95.8679 288.215 95.513 288.626 94.9141 288.626ZM95.8124 295.202H94.0269V289.435H95.8124V295.202ZM98.8446 295.202H97.0591V289.435H98.778L98.8446 290.201L98.7004 290.544C99.0886 289.835 99.6985 289.269 100.907 289.269C102.538 289.269 103.292 290.278 103.292 291.908V295.202H101.495V292.241C101.495 291.387 101.14 290.833 100.209 290.833C99.2771 290.833 98.8446 291.387 98.8446 292.241V295.202ZM110.543 292.851H106.04C106.184 293.572 106.639 294.004 107.526 294.004C108.092 294.004 108.524 293.816 108.691 293.417H110.388C110.21 294.393 109.19 295.368 107.427 295.368C105.364 295.368 104.244 294.038 104.244 292.319C104.244 290.6 105.386 289.269 107.438 289.269C109.478 289.269 110.72 290.6 110.543 292.851ZM107.438 290.578C106.595 290.578 106.14 290.999 106.029 291.82H108.802C108.646 290.933 108.192 290.578 107.438 290.578Z" fill="#101940"/>
<path fill-rule="evenodd" clip-rule="evenodd" d="M198.896 288.709C199.167 288.438 199.606 288.438 199.877 288.709L205.884 294.716C206.154 294.986 206.154 295.425 205.884 295.696C205.613 295.967 205.174 295.967 204.903 295.696L198.896 289.689C198.626 289.418 198.626 288.979 198.896 288.709Z" fill="#6F7595"/>
<path fill-rule="evenodd" clip-rule="evenodd" d="M205.884 288.709C206.154 288.979 206.154 289.418 205.884 289.689L199.877 295.696C199.606 295.967 199.167 295.967 198.896 295.696C198.626 295.425 198.626 294.986 198.896 294.716L204.903 288.709C205.174 288.438 205.613 288.438 205.884 288.709Z" fill="#6F7595"/>
<mask id="path-51-inside-8_1148_15167" fill="white">
<path d="M17.7441 319.927H225.681V362.671H17.7441V319.927Z"/>
</mask>
<path d="M17.7441 319.927H225.681V362.671H17.7441V319.927Z" fill="white"/>
<path d="M225.681 362.116H17.7441V363.225H225.681V362.116Z" fill="#E7E8EF" mask="url(#path-51-inside-8_1148_15167)"/>
<path d="M37.5736 335.363V332.036H39.4146V339.799H37.5736V336.916H33.5702V339.799H31.7292V332.036H33.5702V335.363H37.5736ZM46.7387 337.448H42.2362C42.3803 338.169 42.835 338.601 43.7222 338.601C44.2878 338.601 44.7203 338.413 44.8867 338.014H46.5834C46.406 338.99 45.3857 339.965 43.6224 339.965C41.5597 339.965 40.4396 338.635 40.4396 336.916C40.4396 335.197 41.5819 333.866 43.6335 333.866C45.674 333.866 46.9161 335.197 46.7387 337.448ZM43.6335 335.175C42.7907 335.175 42.336 335.596 42.2251 336.417H44.9976C44.8423 335.529 44.3876 335.175 43.6335 335.175ZM49.4653 339.965C48.2121 339.965 47.4358 339.355 47.4358 338.124C47.4358 336.96 48.1345 336.383 49.6427 336.383H51.65V335.94C51.65 335.374 51.3173 335.186 50.4966 335.186C49.7425 335.186 49.3876 335.352 49.3211 335.818H47.7352C47.6687 334.321 48.7777 333.866 50.5299 333.866C52.5815 333.866 53.4355 334.509 53.4355 335.818V339.799H51.9272L51.7498 338.99H51.7054C51.2951 339.611 50.419 339.965 49.4653 339.965ZM50.1085 338.624H50.1861C51.0178 338.624 51.65 338.28 51.65 337.703V337.47H49.931C49.4874 337.47 49.2545 337.67 49.2545 338.036C49.2545 338.391 49.4874 338.624 50.1085 338.624ZM59.1238 334.631V331.925H60.9204V339.799H59.1571L59.1349 339.078C58.6691 339.71 57.9926 339.965 57.2274 339.965C55.4974 339.965 54.3995 338.612 54.3995 336.916C54.3995 335.23 55.4974 333.877 57.2274 333.877C58.1257 333.877 58.8577 334.232 59.4565 335.241L59.1238 334.631ZM57.6489 338.402C58.5693 338.402 59.146 337.781 59.146 336.916C59.146 336.051 58.5693 335.43 57.6489 335.43C56.7284 335.43 56.1628 336.051 56.1628 336.916C56.1628 337.781 56.7284 338.402 57.6489 338.402ZM63.9349 339.799H62.1495V331.925H63.9349V339.799ZM66.0802 333.223C65.4813 333.223 65.1264 332.812 65.1264 332.313C65.1264 331.825 65.4813 331.404 66.0802 331.404C66.679 331.404 67.0339 331.825 67.0339 332.313C67.0339 332.812 66.679 333.223 66.0802 333.223ZM66.9784 339.799H65.193V334.032H66.9784V339.799ZM70.0106 339.799H68.2251V334.032H69.9441L70.0106 334.798L69.8664 335.141C70.2546 334.432 70.8645 333.866 72.0733 333.866C73.7035 333.866 74.4577 334.875 74.4577 336.505V339.799H72.6611V336.838C72.6611 335.984 72.3062 335.43 71.3747 335.43C70.4431 335.43 70.0106 335.984 70.0106 336.838V339.799ZM81.7088 337.448H77.2063C77.3505 338.169 77.8052 338.601 78.6924 338.601C79.258 338.601 79.6905 338.413 79.8568 338.014H81.5536C81.3761 338.99 80.3559 339.965 78.5926 339.965C76.5298 339.965 75.4097 338.635 75.4097 336.916C75.4097 335.197 76.552 333.866 78.6037 333.866C80.6442 333.866 81.8863 335.197 81.7088 337.448ZM78.6037 335.175C77.7608 335.175 77.3061 335.596 77.1952 336.417H79.9677C79.8125 335.529 79.3578 335.175 78.6037 335.175Z" fill="#101940"/>
<path d="M33.151 351.799H31.5844V346.96H33.2006C33.6748 346.96 34.082 347.057 34.4223 347.25C34.7625 347.443 35.0232 347.719 35.2044 348.08C35.3871 348.439 35.4785 348.87 35.4785 349.372C35.4785 349.876 35.3863 350.31 35.202 350.672C35.0193 351.034 34.7546 351.313 34.4081 351.508C34.0615 351.702 33.6425 351.799 33.151 351.799ZM32.3145 351.161H33.1108C33.4794 351.161 33.7858 351.092 34.03 350.953C34.2742 350.813 34.4569 350.611 34.5782 350.346C34.6995 350.08 34.7601 349.755 34.7601 349.372C34.7601 348.993 34.6995 348.671 34.5782 348.406C34.4585 348.141 34.2797 347.94 34.0418 347.803C33.804 347.666 33.5086 347.598 33.1557 347.598H32.3145V351.161ZM37.894 351.872C37.5364 351.872 37.2284 351.796 36.9701 351.643C36.7133 351.489 36.5148 351.272 36.3746 350.993C36.236 350.713 36.1667 350.384 36.1667 350.008C36.1667 349.636 36.236 349.309 36.3746 349.025C36.5148 348.741 36.7101 348.52 36.9606 348.361C37.2127 348.202 37.5072 348.122 37.8443 348.122C38.0491 348.122 38.2476 348.156 38.4398 348.224C38.632 348.292 38.8045 348.398 38.9573 348.543C39.1101 348.688 39.2306 348.876 39.3188 349.108C39.407 349.338 39.4511 349.617 39.4511 349.947V350.197H36.566V349.668H38.7588C38.7588 349.482 38.721 349.317 38.6454 349.174C38.5698 349.029 38.4634 348.915 38.3264 348.831C38.1909 348.748 38.0318 348.706 37.8491 348.706C37.6506 348.706 37.4773 348.755 37.3292 348.853C37.1827 348.949 37.0693 349.075 36.989 349.231C36.9102 349.385 36.8708 349.553 36.8708 349.734V350.147C36.8708 350.39 36.9134 350.596 36.9984 350.766C37.0851 350.937 37.2056 351.067 37.3599 351.156C37.5143 351.245 37.6947 351.289 37.9011 351.289C38.035 351.289 38.157 351.27 38.2673 351.232C38.3776 351.193 38.4729 351.134 38.5532 351.057C38.6336 350.98 38.695 350.885 38.7375 350.771L39.4062 350.892C39.3527 351.089 39.2566 351.261 39.118 351.409C38.9809 351.556 38.8084 351.67 38.6005 351.752C38.3941 351.832 38.1586 351.872 37.894 351.872ZM42.9547 349.056L42.3144 349.169C42.2876 349.087 42.2451 349.009 42.1868 348.935C42.1301 348.861 42.0529 348.801 41.9552 348.753C41.8576 348.706 41.7355 348.682 41.589 348.682C41.3889 348.682 41.2219 348.727 41.088 348.817C40.9541 348.905 40.8872 349.019 40.8872 349.16C40.8872 349.281 40.9321 349.379 41.0219 349.453C41.1117 349.527 41.2566 349.587 41.4566 349.635L42.0332 349.767C42.3672 349.844 42.6161 349.963 42.7799 350.124C42.9437 350.284 43.0256 350.493 43.0256 350.75C43.0256 350.967 42.9626 351.161 42.8366 351.331C42.7121 351.5 42.5381 351.632 42.3144 351.728C42.0923 351.824 41.8347 351.872 41.5417 351.872C41.1353 351.872 40.8037 351.786 40.5469 351.612C40.2902 351.438 40.1326 351.189 40.0743 350.868L40.7572 350.764C40.7998 350.942 40.8872 351.077 41.0195 351.168C41.1518 351.258 41.3243 351.303 41.537 351.303C41.7686 351.303 41.9536 351.255 42.0923 351.159C42.2309 351.061 42.3002 350.942 42.3002 350.802C42.3002 350.689 42.2577 350.593 42.1726 350.516C42.0891 350.439 41.9607 350.381 41.7875 350.341L41.1731 350.206C40.8344 350.129 40.5839 350.006 40.4217 349.838C40.261 349.669 40.1807 349.456 40.1807 349.198C40.1807 348.983 40.2405 348.796 40.3603 348.635C40.48 348.474 40.6454 348.349 40.8565 348.259C41.0676 348.168 41.3094 348.122 41.5819 348.122C41.9741 348.122 42.2829 348.207 42.5081 348.378C42.7334 348.546 42.8823 348.772 42.9547 349.056ZM45.3312 351.872C44.98 351.872 44.6775 351.793 44.4239 351.634C44.1718 351.473 43.9781 351.252 43.8426 350.97C43.7071 350.688 43.6394 350.365 43.6394 350.001C43.6394 349.632 43.7087 349.307 43.8473 349.025C43.986 348.741 44.1813 348.52 44.4333 348.361C44.6854 348.202 44.9823 348.122 45.3241 348.122C45.5998 348.122 45.8456 348.174 46.0614 348.276C46.2772 348.377 46.4513 348.519 46.5836 348.701C46.7175 348.884 46.797 349.097 46.8222 349.342H46.1346C46.0968 349.172 46.0102 349.025 45.8747 348.902C45.7408 348.779 45.5612 348.718 45.336 348.718C45.1391 348.718 44.9666 348.77 44.8185 348.874C44.672 348.976 44.5578 349.123 44.4759 349.313C44.3939 349.502 44.353 349.726 44.353 349.984C44.353 350.249 44.3932 350.477 44.4735 350.67C44.5538 350.862 44.6673 351.011 44.8138 351.116C44.9618 351.222 45.1359 351.275 45.336 351.275C45.4699 351.275 45.5912 351.25 45.6999 351.201C45.8101 351.151 45.9023 351.079 45.9763 350.986C46.0519 350.893 46.1047 350.781 46.1346 350.651H46.8222C46.797 350.885 46.7206 351.095 46.593 351.279C46.4654 351.464 46.2945 351.608 46.0803 351.714C45.8676 351.82 45.6179 351.872 45.3312 351.872ZM47.5778 351.799V348.17H48.2607V348.746H48.2985C48.3646 348.551 48.4812 348.397 48.6482 348.285C48.8167 348.172 49.0073 348.115 49.22 348.115C49.2641 348.115 49.3161 348.117 49.376 348.12C49.4374 348.123 49.4854 348.127 49.5201 348.132V348.808C49.4917 348.8 49.4413 348.791 49.3689 348.782C49.2964 348.771 49.2239 348.765 49.1515 348.765C48.9845 348.765 48.8356 348.801 48.7049 348.871C48.5757 348.941 48.4733 349.038 48.3977 349.162C48.3221 349.285 48.2843 349.425 48.2843 349.583V351.799H47.5778ZM50.1315 351.799V348.17H50.838V351.799H50.1315ZM50.4883 347.61C50.3654 347.61 50.2599 347.569 50.1717 347.487C50.085 347.403 50.0417 347.304 50.0417 347.189C50.0417 347.072 50.085 346.973 50.1717 346.891C50.2599 346.808 50.3654 346.766 50.4883 346.766C50.6112 346.766 50.7159 346.808 50.8026 346.891C50.8908 346.973 50.9349 347.072 50.9349 347.189C50.9349 347.304 50.8908 347.403 50.8026 347.487C50.7159 347.569 50.6112 347.61 50.4883 347.61ZM51.7885 353.16V348.17H52.4785V348.758H52.5375C52.5785 348.682 52.6376 348.595 52.7148 348.496C52.7919 348.396 52.8991 348.31 53.0361 348.236C53.1732 348.16 53.3543 348.122 53.5796 348.122C53.8726 348.122 54.1341 348.196 54.3641 348.344C54.5941 348.493 54.7744 348.706 54.9052 348.985C55.0375 349.264 55.1037 349.599 55.1037 349.991C55.1037 350.384 55.0383 350.72 54.9075 351C54.7768 351.279 54.5972 351.494 54.3688 351.645C54.1404 351.795 53.8797 351.87 53.5867 351.87C53.3661 351.87 53.1858 351.833 53.0456 351.759C52.9069 351.685 52.7982 351.598 52.7195 351.499C52.6407 351.4 52.5801 351.312 52.5375 351.234H52.495V353.16H51.7885ZM52.4808 349.984C52.4808 350.24 52.5178 350.463 52.5919 350.655C52.6659 350.848 52.773 350.998 52.9132 351.107C53.0534 351.214 53.2251 351.267 53.4284 351.267C53.6394 351.267 53.8159 351.211 53.9577 351.1C54.0994 350.986 54.2065 350.833 54.279 350.639C54.353 350.445 54.3901 350.227 54.3901 349.984C54.3901 349.745 54.3538 349.53 54.2814 349.339C54.2105 349.149 54.1034 348.998 53.96 348.888C53.8182 348.778 53.641 348.723 53.4284 348.723C53.2236 348.723 53.0503 348.775 52.9085 348.881C52.7683 348.986 52.662 349.134 52.5895 349.323C52.5171 349.512 52.4808 349.732 52.4808 349.984ZM57.5894 348.17V348.737H55.607V348.17H57.5894ZM56.1386 347.3H56.8451V350.733C56.8451 350.87 56.8656 350.974 56.9066 351.043C56.9475 351.111 57.0003 351.157 57.0649 351.182C57.131 351.206 57.2027 351.218 57.2799 351.218C57.3366 351.218 57.3862 351.214 57.4288 351.206C57.4713 351.198 57.5044 351.192 57.528 351.187L57.6556 351.771C57.6147 351.786 57.5564 351.802 57.4808 351.818C57.4051 351.835 57.3106 351.845 57.1972 351.846C57.0113 351.849 56.838 351.816 56.6774 351.747C56.5167 351.678 56.3867 351.571 56.2875 351.426C56.1882 351.281 56.1386 351.099 56.1386 350.88V347.3ZM58.371 351.799V348.17H59.0775V351.799H58.371ZM58.7278 347.61C58.6049 347.61 58.4994 347.569 58.4112 347.487C58.3245 347.403 58.2812 347.304 58.2812 347.189C58.2812 347.072 58.3245 346.973 58.4112 346.891C58.4994 346.808 58.6049 346.766 58.7278 346.766C58.8507 346.766 58.9554 346.808 59.0421 346.891C59.1303 346.973 59.1744 347.072 59.1744 347.189C59.1744 347.304 59.1303 347.403 59.0421 347.487C58.9554 347.569 58.8507 347.61 58.7278 347.61ZM61.5568 351.872C61.2165 351.872 60.9196 351.794 60.666 351.638C60.4123 351.482 60.2154 351.264 60.0752 350.984C59.935 350.703 59.8649 350.376 59.8649 350.001C59.8649 349.624 59.935 349.295 60.0752 349.013C60.2154 348.731 60.4123 348.512 60.666 348.356C60.9196 348.2 61.2165 348.122 61.5568 348.122C61.897 348.122 62.194 348.2 62.4476 348.356C62.7012 348.512 62.8981 348.731 63.0383 349.013C63.1785 349.295 63.2486 349.624 63.2486 350.001C63.2486 350.376 63.1785 350.703 63.0383 350.984C62.8981 351.264 62.7012 351.482 62.4476 351.638C62.194 351.794 61.897 351.872 61.5568 351.872ZM61.5591 351.279C61.7797 351.279 61.9624 351.221 62.1073 351.104C62.2523 350.988 62.3594 350.833 62.4287 350.639C62.4996 350.445 62.535 350.232 62.535 349.999C62.535 349.767 62.4996 349.554 62.4287 349.361C62.3594 349.165 62.2523 349.008 62.1073 348.89C61.9624 348.772 61.7797 348.713 61.5591 348.713C61.337 348.713 61.1527 348.772 61.0062 348.89C60.8613 349.008 60.7534 349.165 60.6825 349.361C60.6132 349.554 60.5785 349.767 60.5785 349.999C60.5785 350.232 60.6132 350.445 60.6825 350.639C60.7534 350.833 60.8613 350.988 61.0062 351.104C61.1527 351.221 61.337 351.279 61.5591 351.279ZM64.7438 349.644V351.799H64.0373V348.17H64.7154V348.76H64.7603C64.8438 348.568 64.9745 348.414 65.1526 348.297C65.3321 348.181 65.5582 348.122 65.8307 348.122C66.078 348.122 66.2946 348.174 66.4805 348.278C66.6664 348.381 66.8105 348.534 66.9129 348.737C67.0153 348.94 67.0665 349.191 67.0665 349.491V351.799H66.36V349.576C66.36 349.312 66.2915 349.107 66.1544 348.959C66.0174 348.809 65.8291 348.734 65.5897 348.734C65.4259 348.734 65.2801 348.77 65.1526 348.841C65.0265 348.912 64.9265 349.016 64.8525 349.153C64.78 349.288 64.7438 349.452 64.7438 349.644Z" fill="#6F7595"/>
<path fill-rule="evenodd" clip-rule="evenodd" d="M198.896 337.806C199.167 337.535 199.606 337.535 199.877 337.806L205.884 343.813C206.154 344.083 206.154 344.522 205.884 344.793C205.613 345.064 205.174 345.064 204.903 344.793L198.896 338.786C198.626 338.515 198.626 338.076 198.896 337.806Z" fill="#6F7595"/>
<path fill-rule="evenodd" clip-rule="evenodd" d="M205.884 337.806C206.154 338.076 206.154 338.515 205.884 338.786L199.877 344.793C199.606 345.064 199.167 345.064 198.896 344.793C198.626 344.522 198.626 344.083 198.896 343.813L204.903 337.806C205.174 337.535 205.613 337.535 205.884 337.806Z" fill="#6F7595"/>
</svg>
