<svg width="523" height="355" viewBox="0 0 523 355" fill="none" xmlns="http://www.w3.org/2000/svg">
<rect width="522.163" height="355" fill="#F9F9F9"/>
<rect width="484.359" height="317.196" transform="translate(18.9023 18.9019)" fill="#F6F7F8"/>
<mask id="path-1-outside-1_1148_15083" maskUnits="userSpaceOnUse" x="18.9023" y="18.9019" width="39" height="318" fill="black">
<rect fill="white" x="18.9023" y="18.9019" width="39" height="318"/>
<path d="M18.9023 18.9019H56.706V336.098H18.9023V18.9019Z"/>
</mask>
<path d="M18.9023 18.9019H56.706V336.098H18.9023V18.9019Z" fill="white"/>
<path d="M56.1153 18.9019V336.098H57.2967V18.9019H56.1153Z" fill="#D8DAE5" mask="url(#path-1-outside-1_1148_15083)"/>
<path fill-rule="evenodd" clip-rule="evenodd" d="M44.8526 38.0005C46.1194 38.0005 47.1463 39.0269 47.1463 40.2931V46.0707C47.1463 47.4443 47.778 48.6382 48.8314 49.2285L46.4378 51.6209C44.7172 50.4165 43.5937 48.4224 43.5937 46.0707V44.7993C43.5937 44.3573 43.6479 43.917 43.7552 43.4882H43.5937L39.2388 50.0099C38.8622 50.574 38.2285 50.9128 37.55 50.9128C36.4286 50.9128 35.5195 50.0042 35.5195 48.8833V43.4882L31.1646 50.0099C30.788 50.574 30.1543 50.9128 29.4758 50.9128C28.3544 50.9128 27.4454 50.0042 27.4454 48.8833L27.4979 45.5668C27.5294 43.5759 27.2872 41.5914 26.7793 39.6684L30.2913 38.7606L30.7277 40.8825C30.9074 41.7566 30.998 42.6466 30.998 43.5389C30.998 43.934 30.9495 44.3277 30.8537 44.711L30.8365 44.7794H30.998L34.8748 39.0142C35.3009 38.3806 36.0146 38.0005 36.7784 38.0005C38.0452 38.0005 39.0721 39.0269 39.0721 40.2931V44.7794L42.9489 39.0142C43.375 38.3806 44.0888 38.0005 44.8526 38.0005Z" fill="#141414"/>
<rect x="25.9902" y="73.2446" width="23.6273" height="23.6273" rx="4.72546" fill="#3366FF"/>
<rect x="28.3535" y="127.587" width="18.9018" height="18.9018" rx="9.45092" fill="#D8DAE5"/>
<rect x="28.3535" y="165.391" width="18.9018" height="18.9018" rx="9.45092" fill="#D8DAE5"/>
<rect x="28.3535" y="203.195" width="18.9018" height="18.9018" rx="9.45092" fill="#D8DAE5"/>
<rect width="37.8037" height="37.8037" transform="translate(18.9023 298.294)" fill="#F6F7F8"/>
<rect x="28.3535" y="307.745" width="18.9018" height="18.9018" rx="4.72546" fill="#6F7595"/>
<mask id="path-9-outside-2_1148_15083" maskUnits="userSpaceOnUse" x="57.2969" y="18.9019" width="446" height="34" fill="black">
<rect fill="white" x="57.2969" y="18.9019" width="446" height="34"/>
<path d="M57.2969 18.9019H503.262V51.9801H57.2969V18.9019Z"/>
</mask>
<path d="M57.2969 18.9019H503.262V51.9801H57.2969V18.9019Z" fill="white"/>
<path d="M503.262 51.3894H57.2969V52.5707H503.262V51.3894Z" fill="#D8DAE5" mask="url(#path-9-outside-2_1148_15083)"/>
<rect x="71.4727" y="28.3528" width="112.82" height="14.1764" rx="4.72546" fill="#D8DAE5"/>
<rect x="441.83" y="28.3528" width="14.1764" height="14.1764" rx="7.08819" fill="#6F7595"/>
<rect x="470.184" y="28.3528" width="14.1764" height="14.1764" rx="7.08819" fill="#6F7595"/>
<g clip-path="url(#clip0_1148_15083)">
<rect x="76.4946" y="71.1772" width="407.571" height="136.448" rx="4.43012" fill="white"/>
<rect x="76.4946" y="71.1772" width="407.571" height="136.448" rx="4.43012" stroke="#D8DAE5" stroke-width="0.590682"/>
<rect x="90.375" y="85.0581" width="112.82" height="14.1764" rx="4.72546" fill="#D8DAE5"/>
<rect x="456.008" y="85.0581" width="14.1764" height="14.1764" rx="7.08819" fill="#6F7595"/>
<rect x="90.375" y="108.686" width="212.055" height="9.45092" rx="4.72546" fill="#D8DAE5"/>
<rect x="90.375" y="127.587" width="183.702" height="9.45092" rx="4.72546" fill="#D8DAE5"/>
<rect x="90.375" y="146.489" width="230.957" height="9.45092" rx="4.72546" fill="#D8DAE5"/>
<rect x="90.375" y="165.391" width="207.329" height="9.45092" rx="4.72546" fill="#D8DAE5"/>
<rect x="90.375" y="184.293" width="103.369" height="9.45092" rx="4.72546" fill="#D8DAE5"/>
<rect x="76.4946" y="217.666" width="198.765" height="136.448" rx="4.43012" fill="white"/>
<rect x="76.4946" y="217.666" width="198.765" height="136.448" rx="4.43012" stroke="#D8DAE5" stroke-width="0.590682"/>
<rect x="90.375" y="231.547" width="98.6439" height="14.1764" rx="4.72546" fill="#D8DAE5"/>
<rect x="247.201" y="231.547" width="14.1764" height="14.1764" rx="7.08819" fill="#6F7595"/>
<rect x="90.375" y="255.175" width="150.624" height="9.45092" rx="4.72546" fill="#D8DAE5"/>
<rect x="90.375" y="274.077" width="145.898" height="9.45092" rx="4.72546" fill="#D8DAE5"/>
<rect x="90.375" y="292.979" width="98.6439" height="9.45092" rx="4.72546" fill="#D8DAE5"/>
<rect x="90.375" y="311.88" width="164.8" height="9.45092" rx="4.72546" fill="#D8DAE5"/>
<rect x="90.375" y="330.782" width="103.369" height="9.45092" rx="4.72546" fill="#D8DAE5"/>
<rect x="285.301" y="217.666" width="198.765" height="136.448" rx="4.43012" fill="white"/>
<rect x="285.301" y="217.666" width="198.765" height="136.448" rx="4.43012" stroke="#D8DAE5" stroke-width="0.590682"/>
<rect x="299.182" y="231.547" width="98.6439" height="14.1764" rx="4.72546" fill="#D8DAE5"/>
<rect x="456.008" y="231.547" width="14.1764" height="14.1764" rx="7.08819" fill="#6F7595"/>
<rect x="299.182" y="255.175" width="150.624" height="9.45092" rx="4.72546" fill="#D8DAE5"/>
<rect x="299.182" y="274.077" width="145.898" height="9.45092" rx="4.72546" fill="#D8DAE5"/>
<rect x="299.182" y="292.979" width="98.6439" height="9.45092" rx="4.72546" fill="#D8DAE5"/>
<rect x="299.182" y="311.88" width="164.8" height="9.45092" rx="4.72546" fill="#D8DAE5"/>
<rect x="299.182" y="330.782" width="103.369" height="9.45092" rx="4.72546" fill="#D8DAE5"/>
</g>
<rect opacity="0.3" x="57.2969" y="51.98" width="18.9018" height="284.118" fill="#D2374C"/>
<rect opacity="0.3" x="484.359" y="70.8818" width="18.9018" height="265.216" fill="#D2374C"/>
<rect opacity="0.3" x="76.1992" y="70.8818" width="18.9018" height="427.063" transform="rotate(-90 76.1992 70.8818)" fill="#D2374C"/>
<rect opacity="0.3" x="76.1992" y="85.0583" width="14.1764" height="408.161" transform="rotate(-90 76.1992 85.0583)" fill="#40C485"/>
<rect opacity="0.3" x="76.1992" y="207.92" width="14.1764" height="408.161" transform="rotate(-90 76.1992 207.92)" fill="#40C485"/>
<rect opacity="0.3" x="76.1992" y="85.0583" width="14.1764" height="108.686" fill="#40C485"/>
<rect opacity="0.3" x="470.184" y="85.0583" width="14.1764" height="108.686" fill="#40C485"/>
<rect opacity="0.3" x="76.1992" y="231.547" width="14.1764" height="104.551" fill="#40C485"/>
<rect opacity="0.3" x="261.377" y="231.547" width="14.1764" height="104.551" fill="#40C485"/>
<rect opacity="0.3" x="285.004" y="231.547" width="14.1764" height="104.551" fill="#40C485"/>
<rect opacity="0.3" x="470.184" y="231.547" width="14.1764" height="104.551" fill="#40C485"/>
<rect opacity="0.3" x="76.1992" y="231.547" width="14.1764" height="199.355" transform="rotate(-90 76.1992 231.547)" fill="#40C485"/>
<rect opacity="0.3" x="285.004" y="231.547" width="14.1764" height="199.355" transform="rotate(-90 285.004 231.547)" fill="#40C485"/>
<rect opacity="0.3" x="76.1992" y="217.371" width="9.45092" height="408.161" transform="rotate(-90 76.1992 217.371)" fill="#9B67CE"/>
<rect opacity="0.3" x="275.555" y="217.371" width="9.45092" height="118.727" fill="#9B67CE"/>
<path d="M78.523 64.5986C78.1481 64.5986 77.8118 64.5324 77.5141 64.4001C77.2164 64.2623 76.9793 64.0776 76.8029 63.8461C76.632 63.6145 76.5383 63.3582 76.5217 63.077H77.6877C77.7098 63.2534 77.7952 63.3995 77.9441 63.5153C78.0985 63.6311 78.2887 63.6889 78.5147 63.6889C78.7352 63.6889 78.9061 63.6448 79.0274 63.5566C79.1542 63.4684 79.2176 63.3554 79.2176 63.2176C79.2176 63.0687 79.1404 62.9585 78.9861 62.8868C78.8372 62.8096 78.5974 62.7269 78.2666 62.6387C77.9248 62.556 77.6436 62.4706 77.4231 62.3824C77.2081 62.2941 77.0207 62.1591 76.8608 61.9771C76.7064 61.7952 76.6292 61.5499 76.6292 61.2412C76.6292 60.9876 76.7009 60.756 76.8442 60.5465C76.9931 60.337 77.2026 60.1716 77.4727 60.0503C77.7484 59.9291 78.0709 59.8684 78.4403 59.8684C78.9861 59.8684 79.4216 60.0062 79.7469 60.2819C80.0721 60.552 80.2513 60.9186 80.2844 61.3817H79.1763C79.1597 61.1998 79.0825 61.0565 78.9447 60.9517C78.8124 60.8415 78.6332 60.7863 78.4072 60.7863C78.1977 60.7863 78.0351 60.8249 77.9193 60.9021C77.809 60.9793 77.7539 61.0868 77.7539 61.2246C77.7539 61.379 77.8311 61.4975 77.9854 61.5802C78.1398 61.6574 78.3796 61.7373 78.7049 61.82C79.0357 61.9027 79.3086 61.9882 79.5236 62.0764C79.7386 62.1646 79.9233 62.3024 80.0776 62.4899C80.2375 62.6718 80.3202 62.9144 80.3257 63.2176C80.3257 63.4822 80.2513 63.7193 80.1024 63.9288C79.9591 64.1383 79.7496 64.3036 79.474 64.4249C79.2038 64.5407 78.8868 64.5986 78.523 64.5986ZM82.5992 60.6044C82.7481 60.3949 82.952 60.2212 83.2112 60.0834C83.4758 59.9401 83.7762 59.8684 84.1125 59.8684C84.504 59.8684 84.8568 59.9649 85.171 60.1578C85.4908 60.3508 85.7416 60.6265 85.9236 60.9848C86.111 61.3376 86.2047 61.7484 86.2047 62.217C86.2047 62.6856 86.111 63.1018 85.9236 63.4657C85.7416 63.824 85.4908 64.1024 85.171 64.3009C84.8568 64.4994 84.504 64.5986 84.1125 64.5986C83.7762 64.5986 83.4785 64.5297 83.2194 64.3919C82.9658 64.254 82.7591 64.0804 82.5992 63.8709V66.7073H81.4415V59.9428H82.5992V60.6044ZM85.0222 62.217C85.0222 61.9413 84.9643 61.7043 84.8485 61.5058C84.7383 61.3018 84.5894 61.1474 84.402 61.0427C84.22 60.9379 84.0216 60.8856 83.8066 60.8856C83.5971 60.8856 83.3986 60.9407 83.2112 61.051C83.0292 61.1557 82.8804 61.3101 82.7646 61.5141C82.6543 61.718 82.5992 61.9579 82.5992 62.2335C82.5992 62.5092 82.6543 62.749 82.7646 62.953C82.8804 63.1569 83.0292 63.3141 83.2112 63.4243C83.3986 63.5291 83.5971 63.5814 83.8066 63.5814C84.0216 63.5814 84.22 63.5263 84.402 63.4161C84.5894 63.3058 84.7383 63.1487 84.8485 62.9447C84.9643 62.7407 85.0222 62.4981 85.0222 62.217ZM86.9137 62.217C86.9137 61.7539 87.0047 61.3431 87.1866 60.9848C87.3741 60.6265 87.6249 60.3508 87.9391 60.1578C88.2589 59.9649 88.6145 59.8684 89.0059 59.8684C89.3477 59.8684 89.6454 59.9373 89.899 60.0752C90.1581 60.213 90.3649 60.3866 90.5192 60.5961V59.9428H91.6852V64.5242H90.5192V63.8543C90.3704 64.0693 90.1636 64.2485 89.899 64.3919C89.6399 64.5297 89.3394 64.5986 88.9976 64.5986C88.6117 64.5986 88.2589 64.4994 87.9391 64.3009C87.6249 64.1024 87.3741 63.824 87.1866 63.4657C87.0047 63.1018 86.9137 62.6856 86.9137 62.217ZM90.5192 62.2335C90.5192 61.9523 90.4641 61.7125 90.3538 61.5141C90.2436 61.3101 90.0947 61.1557 89.9073 61.051C89.7198 60.9407 89.5186 60.8856 89.3036 60.8856C89.0886 60.8856 88.8901 60.9379 88.7082 61.0427C88.5263 61.1474 88.3774 61.3018 88.2617 61.5058C88.1514 61.7043 88.0963 61.9413 88.0963 62.217C88.0963 62.4926 88.1514 62.7352 88.2617 62.9447C88.3774 63.1487 88.5263 63.3058 88.7082 63.4161C88.8957 63.5263 89.0941 63.5814 89.3036 63.5814C89.5186 63.5814 89.7198 63.5291 89.9073 63.4243C90.0947 63.3141 90.2436 63.1597 90.3538 62.9612C90.4641 62.7572 90.5192 62.5147 90.5192 62.2335ZM92.6837 62.2335C92.6837 61.7594 92.7801 61.3459 92.9731 60.9931C93.1661 60.6347 93.4334 60.3591 93.7752 60.1661C94.1171 59.9676 94.5085 59.8684 94.9495 59.8684C95.5174 59.8684 95.986 60.0118 96.3553 60.2984C96.7302 60.5796 96.9811 60.9765 97.1079 61.4892H95.8592C95.793 61.2908 95.68 61.1364 95.5201 61.0261C95.3658 60.9104 95.1728 60.8525 94.9413 60.8525C94.6105 60.8525 94.3486 60.9738 94.1556 61.2163C93.9627 61.4534 93.8662 61.7925 93.8662 62.2335C93.8662 62.669 93.9627 63.0081 94.1556 63.2507C94.3486 63.4877 94.6105 63.6062 94.9413 63.6062C95.4099 63.6062 95.7158 63.3968 95.8592 62.9778H97.1079C96.9811 63.4739 96.7302 63.8681 96.3553 64.1603C95.9805 64.4525 95.5119 64.5986 94.9495 64.5986C94.5085 64.5986 94.1171 64.5021 93.7752 64.3092C93.4334 64.1107 93.1661 63.835 92.9731 63.4822C92.7801 63.1239 92.6837 62.7076 92.6837 62.2335ZM98.7085 59.397C98.5046 59.397 98.3337 59.3336 98.1958 59.2068C98.0635 59.0745 97.9974 58.9119 97.9974 58.7189C97.9974 58.526 98.0635 58.3661 98.1958 58.2393C98.3337 58.107 98.5046 58.0408 98.7085 58.0408C98.9125 58.0408 99.0807 58.107 99.213 58.2393C99.3508 58.3661 99.4197 58.526 99.4197 58.7189C99.4197 58.9119 99.3508 59.0745 99.213 59.2068C99.0807 59.3336 98.9125 59.397 98.7085 59.397ZM99.2791 59.9428V64.5242H98.1214V59.9428H99.2791ZM103.127 59.8767C103.673 59.8767 104.114 60.0503 104.45 60.3977C104.787 60.7395 104.955 61.2191 104.955 61.8366V64.5242H103.797V61.9937C103.797 61.6298 103.706 61.3514 103.524 61.1585C103.342 60.96 103.094 60.8608 102.78 60.8608C102.46 60.8608 102.206 60.96 102.019 61.1585C101.837 61.3514 101.746 61.6298 101.746 61.9937V64.5242H100.588V59.9428H101.746V60.5134C101.9 60.315 102.096 60.1606 102.333 60.0503C102.576 59.9346 102.84 59.8767 103.127 59.8767ZM108.016 59.8684C108.357 59.8684 108.658 59.9373 108.917 60.0752C109.176 60.2075 109.38 60.3811 109.529 60.5961V59.9428H110.695V64.5572C110.695 64.9818 110.609 65.3594 110.439 65.6902C110.268 66.0265 110.011 66.2911 109.669 66.4841C109.328 66.6825 108.914 66.7818 108.429 66.7818C107.778 66.7818 107.244 66.6301 106.825 66.3269C106.411 66.0237 106.177 65.6102 106.122 65.0865H107.271C107.332 65.296 107.461 65.4614 107.66 65.5827C107.864 65.7095 108.109 65.7729 108.396 65.7729C108.732 65.7729 109.005 65.6709 109.215 65.4669C109.424 65.2684 109.529 64.9652 109.529 64.5572V63.8461C109.38 64.0611 109.173 64.2402 108.909 64.3836C108.65 64.5269 108.352 64.5986 108.016 64.5986C107.63 64.5986 107.277 64.4994 106.957 64.3009C106.637 64.1024 106.384 63.824 106.196 63.4657C106.014 63.1018 105.923 62.6856 105.923 62.217C105.923 61.7539 106.014 61.3431 106.196 60.9848C106.384 60.6265 106.635 60.3508 106.949 60.1578C107.269 59.9649 107.624 59.8684 108.016 59.8684ZM109.529 62.2335C109.529 61.9523 109.474 61.7125 109.363 61.5141C109.253 61.3101 109.104 61.1557 108.917 61.051C108.729 60.9407 108.528 60.8856 108.313 60.8856C108.098 60.8856 107.9 60.9379 107.718 61.0427C107.536 61.1474 107.387 61.3018 107.271 61.5058C107.161 61.7043 107.106 61.9413 107.106 62.217C107.106 62.4926 107.161 62.7352 107.271 62.9447C107.387 63.1487 107.536 63.3058 107.718 63.4161C107.905 63.5263 108.104 63.5814 108.313 63.5814C108.528 63.5814 108.729 63.5291 108.917 63.4243C109.104 63.3141 109.253 63.1597 109.363 62.9612C109.474 62.7572 109.529 62.5147 109.529 62.2335ZM115.514 61.084V62.0598H112.008V61.084H115.514ZM116.862 60.0834C116.889 59.5321 117.082 59.1076 117.441 58.8099C117.805 58.5067 118.281 58.3551 118.871 58.3551C119.274 58.3551 119.618 58.4268 119.905 58.5701C120.192 58.7079 120.407 58.8981 120.55 59.1407C120.699 59.3778 120.773 59.6479 120.773 59.9511C120.773 60.2984 120.682 60.5934 120.5 60.8359C120.324 61.073 120.112 61.2329 119.864 61.3156V61.3487C120.183 61.4479 120.432 61.6243 120.608 61.8779C120.79 62.1315 120.881 62.4568 120.881 62.8537C120.881 63.1845 120.804 63.4794 120.649 63.7386C120.5 63.9977 120.277 64.2017 119.979 64.3505C119.687 64.4938 119.334 64.5655 118.921 64.5655C118.298 64.5655 117.791 64.4084 117.399 64.0942C117.008 63.7799 116.801 63.3168 116.779 62.7049H117.904C117.915 62.975 118.006 63.1928 118.177 63.3582C118.353 63.518 118.593 63.598 118.896 63.598C119.177 63.598 119.392 63.5208 119.541 63.3664C119.696 63.2066 119.773 63.0026 119.773 62.7545C119.773 62.4237 119.668 62.1866 119.458 62.0433C119.249 61.9 118.924 61.8283 118.483 61.8283H118.243V60.8773H118.483C119.266 60.8773 119.657 60.6154 119.657 60.0917C119.657 59.8546 119.585 59.6699 119.442 59.5376C119.304 59.4053 119.103 59.3392 118.838 59.3392C118.579 59.3392 118.378 59.4108 118.235 59.5542C118.097 59.692 118.017 59.8684 117.995 60.0834H116.862ZM122.325 63.2176C122.854 62.7765 123.276 62.4099 123.59 62.1177C123.904 61.82 124.166 61.5113 124.376 61.1915C124.585 60.8718 124.69 60.5575 124.69 60.2488C124.69 59.9676 124.624 59.7471 124.492 59.5872C124.359 59.4274 124.155 59.3474 123.88 59.3474C123.604 59.3474 123.392 59.4412 123.243 59.6286C123.094 59.8105 123.017 60.0614 123.011 60.3811H121.887C121.909 59.7196 122.104 59.2179 122.474 58.8761C122.849 58.5343 123.323 58.3634 123.896 58.3634C124.525 58.3634 125.007 58.5315 125.343 58.8678C125.68 59.1986 125.848 59.6369 125.848 60.1827C125.848 60.6127 125.732 61.0234 125.5 61.4148C125.269 61.8062 125.004 62.1481 124.707 62.4402C124.409 62.7269 124.02 63.0742 123.541 63.4822H125.98V64.4415H121.895V63.5814L122.325 63.2176Z" fill="#D2374C"/>
<path d="M92.6987 81.7285C92.3239 81.7285 91.9876 81.6623 91.6899 81.53C91.3922 81.3922 91.1551 81.2075 90.9787 80.9759C90.8078 80.7444 90.7141 80.488 90.6975 80.2069H91.8635C91.8856 80.3833 91.971 80.5294 92.1199 80.6452C92.2742 80.7609 92.4644 80.8188 92.6905 80.8188C92.911 80.8188 93.0819 80.7747 93.2032 80.6865C93.33 80.5983 93.3934 80.4853 93.3934 80.3475C93.3934 80.1986 93.3162 80.0884 93.1618 80.0167C93.013 79.9395 92.7732 79.8568 92.4424 79.7686C92.1006 79.6859 91.8194 79.6004 91.5989 79.5122C91.3839 79.424 91.1964 79.289 91.0366 79.107C90.8822 78.9251 90.805 78.6798 90.805 78.371C90.805 78.1174 90.8767 77.8859 91.02 77.6764C91.1689 77.4669 91.3784 77.3015 91.6485 77.1802C91.9242 77.0589 92.2467 76.9983 92.616 76.9983C93.1618 76.9983 93.5974 77.1361 93.9226 77.4118C94.2479 77.6819 94.4271 78.0485 94.4602 78.5116H93.352C93.3355 78.3297 93.2583 78.1864 93.1205 78.0816C92.9882 77.9713 92.809 77.9162 92.583 77.9162C92.3735 77.9162 92.2108 77.9548 92.0951 78.032C91.9848 78.1092 91.9297 78.2167 91.9297 78.3545C91.9297 78.5089 92.0069 78.6274 92.1612 78.7101C92.3156 78.7873 92.5554 78.8672 92.8807 78.9499C93.2115 79.0326 93.4844 79.1181 93.6994 79.2063C93.9144 79.2945 94.0991 79.4323 94.2534 79.6197C94.4133 79.8017 94.496 80.0442 94.5015 80.3475C94.5015 80.6121 94.4271 80.8491 94.2782 81.0586C94.1349 81.2681 93.9254 81.4335 93.6497 81.5548C93.3796 81.6706 93.0626 81.7285 92.6987 81.7285ZM96.775 77.7343C96.9238 77.5248 97.1278 77.3511 97.3869 77.2133C97.6516 77.07 97.952 76.9983 98.2883 76.9983C98.6797 76.9983 99.0326 77.0948 99.3468 77.2877C99.6666 77.4807 99.9174 77.7563 100.099 78.1147C100.287 78.4675 100.381 78.8782 100.381 79.3468C100.381 79.8155 100.287 80.2317 100.099 80.5956C99.9174 80.9539 99.6666 81.2323 99.3468 81.4308C99.0326 81.6292 98.6797 81.7285 98.2883 81.7285C97.952 81.7285 97.6543 81.6596 97.3952 81.5217C97.1416 81.3839 96.9349 81.2103 96.775 81.0008V83.8372H95.6172V77.0727H96.775V77.7343ZM99.198 79.3468C99.198 79.0712 99.1401 78.8341 99.0243 78.6357C98.914 78.4317 98.7652 78.2773 98.5777 78.1726C98.3958 78.0678 98.1973 78.0154 97.9823 78.0154C97.7728 78.0154 97.5744 78.0706 97.3869 78.1808C97.205 78.2856 97.0562 78.44 96.9404 78.6439C96.8301 78.8479 96.775 79.0877 96.775 79.3634C96.775 79.639 96.8301 79.8789 96.9404 80.0828C97.0562 80.2868 97.205 80.4439 97.3869 80.5542C97.5744 80.659 97.7728 80.7113 97.9823 80.7113C98.1973 80.7113 98.3958 80.6562 98.5777 80.5459C98.7652 80.4357 98.914 80.2786 99.0243 80.0746C99.1401 79.8706 99.198 79.628 99.198 79.3468ZM101.089 79.3468C101.089 78.8838 101.18 78.473 101.362 78.1147C101.55 77.7563 101.801 77.4807 102.115 77.2877C102.435 77.0948 102.79 76.9983 103.182 76.9983C103.524 76.9983 103.821 77.0672 104.075 77.205C104.334 77.3429 104.541 77.5165 104.695 77.726V77.0727H105.861V81.6541H104.695V80.9842C104.546 81.1992 104.339 81.3784 104.075 81.5217C103.816 81.6596 103.515 81.7285 103.173 81.7285C102.788 81.7285 102.435 81.6292 102.115 81.4308C101.801 81.2323 101.55 80.9539 101.362 80.5956C101.18 80.2317 101.089 79.8155 101.089 79.3468ZM104.695 79.3634C104.695 79.0822 104.64 78.8424 104.53 78.6439C104.419 78.44 104.271 78.2856 104.083 78.1808C103.896 78.0706 103.694 78.0154 103.479 78.0154C103.264 78.0154 103.066 78.0678 102.884 78.1726C102.702 78.2773 102.553 78.4317 102.437 78.6357C102.327 78.8341 102.272 79.0712 102.272 79.3468C102.272 79.6225 102.327 79.8651 102.437 80.0746C102.553 80.2786 102.702 80.4357 102.884 80.5459C103.071 80.6562 103.27 80.7113 103.479 80.7113C103.694 80.7113 103.896 80.659 104.083 80.5542C104.271 80.4439 104.419 80.2896 104.53 80.0911C104.64 79.8871 104.695 79.6446 104.695 79.3634ZM106.859 79.3634C106.859 78.8893 106.956 78.4758 107.149 78.123C107.342 77.7646 107.609 77.489 107.951 77.296C108.293 77.0975 108.684 76.9983 109.125 76.9983C109.693 76.9983 110.162 77.1416 110.531 77.4283C110.906 77.7095 111.157 78.1064 111.284 78.6191H110.035C109.969 78.4207 109.856 78.2663 109.696 78.156C109.542 78.0403 109.349 77.9824 109.117 77.9824C108.786 77.9824 108.524 78.1037 108.331 78.3462C108.138 78.5833 108.042 78.9223 108.042 79.3634C108.042 79.7989 108.138 80.138 108.331 80.3805C108.524 80.6176 108.786 80.7361 109.117 80.7361C109.586 80.7361 109.892 80.5266 110.035 80.1076H111.284C111.157 80.6038 110.906 80.998 110.531 81.2902C110.156 81.5824 109.688 81.7285 109.125 81.7285C108.684 81.7285 108.293 81.632 107.951 81.439C107.609 81.2406 107.342 80.9649 107.149 80.6121C106.956 80.2537 106.859 79.8375 106.859 79.3634ZM112.884 76.5269C112.68 76.5269 112.509 76.4635 112.372 76.3367C112.239 76.2044 112.173 76.0418 112.173 75.8488C112.173 75.6559 112.239 75.496 112.372 75.3692C112.509 75.2369 112.68 75.1707 112.884 75.1707C113.088 75.1707 113.256 75.2369 113.389 75.3692C113.527 75.496 113.596 75.6559 113.596 75.8488C113.596 76.0418 113.527 76.2044 113.389 76.3367C113.256 76.4635 113.088 76.5269 112.884 76.5269ZM113.455 77.0727V81.6541H112.297V77.0727H113.455ZM117.303 77.0066C117.849 77.0066 118.29 77.1802 118.626 77.5275C118.962 77.8694 119.13 78.349 119.13 78.9664V81.6541H117.973V79.1236C117.973 78.7597 117.882 78.4813 117.7 78.2883C117.518 78.0899 117.27 77.9906 116.956 77.9906C116.636 77.9906 116.382 78.0899 116.195 78.2883C116.013 78.4813 115.922 78.7597 115.922 79.1236V81.6541H114.764V77.0727H115.922V77.6433C116.076 77.4449 116.272 77.2905 116.509 77.1802C116.752 77.0645 117.016 77.0066 117.303 77.0066ZM122.191 76.9983C122.533 76.9983 122.834 77.0672 123.093 77.205C123.352 77.3373 123.556 77.511 123.705 77.726V77.0727H124.871V81.6871C124.871 82.1116 124.785 82.4893 124.614 82.8201C124.443 83.1564 124.187 83.421 123.845 83.6139C123.503 83.8124 123.09 83.9116 122.605 83.9116C121.954 83.9116 121.419 83.76 121.001 83.4568C120.587 83.1536 120.353 82.7401 120.298 82.2164H121.447C121.508 82.4259 121.637 82.5913 121.836 82.7126C122.04 82.8394 122.285 82.9028 122.572 82.9028C122.908 82.9028 123.181 82.8008 123.39 82.5968C123.6 82.3983 123.705 82.0951 123.705 81.6871V80.9759C123.556 81.191 123.349 81.3701 123.084 81.5135C122.825 81.6568 122.528 81.7285 122.191 81.7285C121.805 81.7285 121.453 81.6292 121.133 81.4308C120.813 81.2323 120.559 80.9539 120.372 80.5956C120.19 80.2317 120.099 79.8155 120.099 79.3468C120.099 78.8838 120.19 78.473 120.372 78.1147C120.559 77.7563 120.81 77.4807 121.125 77.2877C121.444 77.0948 121.8 76.9983 122.191 76.9983ZM123.705 79.3634C123.705 79.0822 123.65 78.8424 123.539 78.6439C123.429 78.44 123.28 78.2856 123.093 78.1808C122.905 78.0706 122.704 78.0154 122.489 78.0154C122.274 78.0154 122.076 78.0678 121.894 78.1726C121.712 78.2773 121.563 78.4317 121.447 78.6357C121.337 78.8341 121.282 79.0712 121.282 79.3468C121.282 79.6225 121.337 79.8651 121.447 80.0746C121.563 80.2786 121.712 80.4357 121.894 80.5459C122.081 80.6562 122.28 80.7113 122.489 80.7113C122.704 80.7113 122.905 80.659 123.093 80.5542C123.28 80.4439 123.429 80.2896 123.539 80.0911C123.65 79.8871 123.705 79.6446 123.705 79.3634ZM129.69 78.2139V79.1897H126.183V78.2139H129.69ZM131.385 80.3475C131.914 79.9064 132.336 79.5398 132.65 79.2476C132.964 78.9499 133.226 78.6412 133.436 78.3214C133.645 78.0017 133.75 77.6874 133.75 77.3787C133.75 77.0975 133.684 76.877 133.552 76.7171C133.419 76.5573 133.215 76.4773 132.94 76.4773C132.664 76.4773 132.452 76.571 132.303 76.7585C132.154 76.9404 132.077 77.1913 132.071 77.511H130.947C130.969 76.8494 131.164 76.3478 131.534 76.0059C131.909 75.6641 132.383 75.4932 132.956 75.4932C133.585 75.4932 134.067 75.6614 134.403 75.9977C134.74 76.3285 134.908 76.7667 134.908 77.3125C134.908 77.7426 134.792 78.1533 134.56 78.5447C134.329 78.9361 134.064 79.2779 133.767 79.5701C133.469 79.8568 133.08 80.2041 132.601 80.6121H135.04V81.5714H130.955V80.7113L131.385 80.3475ZM135.885 80.4798V79.5701L138.59 75.7H139.937V79.4709H140.665V80.4798H139.937V81.6541H138.78V80.4798H135.885ZM138.854 76.9404L137.159 79.4709H138.854V76.9404Z" fill="#40C485"/>
<path d="M92.6987 215.813C92.3239 215.813 91.9876 215.747 91.6899 215.615C91.3922 215.477 91.1551 215.292 90.9787 215.061C90.8078 214.829 90.7141 214.573 90.6975 214.292H91.8635C91.8856 214.468 91.971 214.614 92.1199 214.73C92.2742 214.846 92.4644 214.904 92.6905 214.904C92.911 214.904 93.0819 214.859 93.2032 214.771C93.33 214.683 93.3934 214.57 93.3934 214.432C93.3934 214.283 93.3162 214.173 93.1618 214.101C93.013 214.024 92.7732 213.942 92.4424 213.853C92.1006 213.771 91.8194 213.685 91.5989 213.597C91.3839 213.509 91.1964 213.374 91.0366 213.192C90.8822 213.01 90.805 212.764 90.805 212.456C90.805 212.202 90.8767 211.971 91.02 211.761C91.1689 211.552 91.3784 211.386 91.6485 211.265C91.9242 211.144 92.2467 211.083 92.616 211.083C93.1618 211.083 93.5974 211.221 93.9226 211.496C94.2479 211.767 94.4271 212.133 94.4602 212.596H93.352C93.3355 212.414 93.2583 212.271 93.1205 212.166C92.9882 212.056 92.809 212.001 92.583 212.001C92.3735 212.001 92.2108 212.04 92.0951 212.117C91.9848 212.194 91.9297 212.301 91.9297 212.439C91.9297 212.594 92.0069 212.712 92.1612 212.795C92.3156 212.872 92.5554 212.952 92.8807 213.035C93.2115 213.117 93.4844 213.203 93.6994 213.291C93.9144 213.379 94.0991 213.517 94.2534 213.704C94.4133 213.886 94.496 214.129 94.5015 214.432C94.5015 214.697 94.4271 214.934 94.2782 215.143C94.1349 215.353 93.9254 215.518 93.6497 215.64C93.3796 215.755 93.0626 215.813 92.6987 215.813ZM96.775 211.819C96.9238 211.61 97.1278 211.436 97.3869 211.298C97.6516 211.155 97.952 211.083 98.2883 211.083C98.6797 211.083 99.0326 211.179 99.3468 211.372C99.6666 211.565 99.9174 211.841 100.099 212.199C100.287 212.552 100.381 212.963 100.381 213.432C100.381 213.9 100.287 214.316 100.099 214.68C99.9174 215.039 99.6666 215.317 99.3468 215.515C99.0326 215.714 98.6797 215.813 98.2883 215.813C97.952 215.813 97.6543 215.744 97.3952 215.606C97.1416 215.469 96.9349 215.295 96.775 215.085V217.922H95.6172V211.157H96.775V211.819ZM99.198 213.432C99.198 213.156 99.1401 212.919 99.0243 212.72C98.914 212.516 98.7652 212.362 98.5777 212.257C98.3958 212.153 98.1973 212.1 97.9823 212.1C97.7728 212.1 97.5744 212.155 97.3869 212.266C97.205 212.37 97.0562 212.525 96.9404 212.729C96.8301 212.933 96.775 213.172 96.775 213.448C96.775 213.724 96.8301 213.964 96.9404 214.168C97.0562 214.372 97.205 214.529 97.3869 214.639C97.5744 214.744 97.7728 214.796 97.9823 214.796C98.1973 214.796 98.3958 214.741 98.5777 214.631C98.7652 214.52 98.914 214.363 99.0243 214.159C99.1401 213.955 99.198 213.713 99.198 213.432ZM101.089 213.432C101.089 212.968 101.18 212.558 101.362 212.199C101.55 211.841 101.801 211.565 102.115 211.372C102.435 211.179 102.79 211.083 103.182 211.083C103.524 211.083 103.821 211.152 104.075 211.29C104.334 211.428 104.541 211.601 104.695 211.811V211.157H105.861V215.739H104.695V215.069C104.546 215.284 104.339 215.463 104.075 215.606C103.816 215.744 103.515 215.813 103.173 215.813C102.788 215.813 102.435 215.714 102.115 215.515C101.801 215.317 101.55 215.039 101.362 214.68C101.18 214.316 101.089 213.9 101.089 213.432ZM104.695 213.448C104.695 213.167 104.64 212.927 104.53 212.729C104.419 212.525 104.271 212.37 104.083 212.266C103.896 212.155 103.694 212.1 103.479 212.1C103.264 212.1 103.066 212.153 102.884 212.257C102.702 212.362 102.553 212.516 102.437 212.72C102.327 212.919 102.272 213.156 102.272 213.432C102.272 213.707 102.327 213.95 102.437 214.159C102.553 214.363 102.702 214.52 102.884 214.631C103.071 214.741 103.27 214.796 103.479 214.796C103.694 214.796 103.896 214.744 104.083 214.639C104.271 214.529 104.419 214.374 104.53 214.176C104.64 213.972 104.695 213.729 104.695 213.448ZM106.859 213.448C106.859 212.974 106.956 212.561 107.149 212.208C107.342 211.849 107.609 211.574 107.951 211.381C108.293 211.182 108.684 211.083 109.125 211.083C109.693 211.083 110.162 211.226 110.531 211.513C110.906 211.794 111.157 212.191 111.284 212.704H110.035C109.969 212.505 109.856 212.351 109.696 212.241C109.542 212.125 109.349 212.067 109.117 212.067C108.786 212.067 108.524 212.188 108.331 212.431C108.138 212.668 108.042 213.007 108.042 213.448C108.042 213.884 108.138 214.223 108.331 214.465C108.524 214.702 108.786 214.821 109.117 214.821C109.586 214.821 109.892 214.611 110.035 214.192H111.284C111.157 214.689 110.906 215.083 110.531 215.375C110.156 215.667 109.688 215.813 109.125 215.813C108.684 215.813 108.293 215.717 107.951 215.524C107.609 215.325 107.342 215.05 107.149 214.697C106.956 214.338 106.859 213.922 106.859 213.448ZM112.884 210.612C112.68 210.612 112.509 210.548 112.372 210.421C112.239 210.289 112.173 210.127 112.173 209.934C112.173 209.741 112.239 209.581 112.372 209.454C112.509 209.322 112.68 209.255 112.884 209.255C113.088 209.255 113.256 209.322 113.389 209.454C113.527 209.581 113.596 209.741 113.596 209.934C113.596 210.127 113.527 210.289 113.389 210.421C113.256 210.548 113.088 210.612 112.884 210.612ZM113.455 211.157V215.739H112.297V211.157H113.455ZM117.303 211.091C117.849 211.091 118.29 211.265 118.626 211.612C118.962 211.954 119.13 212.434 119.13 213.051V215.739H117.973V213.208C117.973 212.844 117.882 212.566 117.7 212.373C117.518 212.175 117.27 212.075 116.956 212.075C116.636 212.075 116.382 212.175 116.195 212.373C116.013 212.566 115.922 212.844 115.922 213.208V215.739H114.764V211.157H115.922V211.728C116.076 211.53 116.272 211.375 116.509 211.265C116.752 211.149 117.016 211.091 117.303 211.091ZM122.191 211.083C122.533 211.083 122.834 211.152 123.093 211.29C123.352 211.422 123.556 211.596 123.705 211.811V211.157H124.871V215.772C124.871 216.196 124.785 216.574 124.614 216.905C124.443 217.241 124.187 217.506 123.845 217.699C123.503 217.897 123.09 217.996 122.605 217.996C121.954 217.996 121.419 217.845 121.001 217.542C120.587 217.238 120.353 216.825 120.298 216.301H121.447C121.508 216.511 121.637 216.676 121.836 216.797C122.04 216.924 122.285 216.987 122.572 216.987C122.908 216.987 123.181 216.885 123.39 216.681C123.6 216.483 123.705 216.18 123.705 215.772V215.061C123.556 215.276 123.349 215.455 123.084 215.598C122.825 215.742 122.528 215.813 122.191 215.813C121.805 215.813 121.453 215.714 121.133 215.515C120.813 215.317 120.559 215.039 120.372 214.68C120.19 214.316 120.099 213.9 120.099 213.432C120.099 212.968 120.19 212.558 120.372 212.199C120.559 211.841 120.81 211.565 121.125 211.372C121.444 211.179 121.8 211.083 122.191 211.083ZM123.705 213.448C123.705 213.167 123.65 212.927 123.539 212.729C123.429 212.525 123.28 212.37 123.093 212.266C122.905 212.155 122.704 212.1 122.489 212.1C122.274 212.1 122.076 212.153 121.894 212.257C121.712 212.362 121.563 212.516 121.447 212.72C121.337 212.919 121.282 213.156 121.282 213.432C121.282 213.707 121.337 213.95 121.447 214.159C121.563 214.363 121.712 214.52 121.894 214.631C122.081 214.741 122.28 214.796 122.489 214.796C122.704 214.796 122.905 214.744 123.093 214.639C123.28 214.529 123.429 214.374 123.539 214.176C123.65 213.972 123.705 213.729 123.705 213.448ZM129.69 212.299V213.274H126.183V212.299H129.69ZM130.88 210.777V209.71H132.873V215.739H131.683V210.777H130.88ZM137.308 211.215C137.253 210.984 137.157 210.81 137.019 210.694C136.887 210.579 136.694 210.521 136.44 210.521C136.06 210.521 135.779 210.675 135.597 210.984C135.42 211.287 135.329 211.783 135.324 212.472C135.456 212.252 135.649 212.081 135.903 211.96C136.156 211.833 136.432 211.769 136.73 211.769C137.088 211.769 137.405 211.847 137.681 212.001C137.956 212.155 138.171 212.381 138.326 212.679C138.48 212.971 138.557 213.324 138.557 213.738C138.557 214.129 138.477 214.479 138.317 214.788C138.163 215.091 137.934 215.328 137.631 215.499C137.328 215.67 136.967 215.755 136.548 215.755C135.974 215.755 135.522 215.629 135.191 215.375C134.866 215.121 134.637 214.768 134.505 214.316C134.378 213.859 134.315 213.296 134.315 212.629C134.315 211.621 134.489 210.86 134.836 210.347C135.183 209.829 135.732 209.57 136.481 209.57C137.06 209.57 137.51 209.727 137.829 210.041C138.149 210.355 138.334 210.747 138.383 211.215H137.308ZM136.465 212.72C136.173 212.72 135.927 212.806 135.729 212.977C135.53 213.148 135.431 213.396 135.431 213.721C135.431 214.046 135.522 214.303 135.704 214.49C135.892 214.678 136.153 214.771 136.49 214.771C136.787 214.771 137.022 214.68 137.193 214.498C137.369 214.316 137.457 214.071 137.457 213.762C137.457 213.443 137.372 213.189 137.201 213.002C137.036 212.814 136.79 212.72 136.465 212.72Z" fill="#9B67CE"/>
<defs>
<clipPath id="clip0_1148_15083">
<rect width="445.965" height="284.118" fill="white" transform="translate(57.2969 51.98)"/>
</clipPath>
</defs>
</svg>
