<svg width="1558" height="904" viewBox="0 0 1558 904" fill="none" xmlns="http://www.w3.org/2000/svg">
<path d="M46.0817 0C20.6315 0 0 17.7998 0 39.7571V864.243C0 886.2 20.6315 904 46.0817 904H1076.36C1103.59 904 1117.21 904 1127.09 897.646C1131.91 894.548 1136.01 890.451 1139.1 885.633C1145.46 875.75 1145.46 862.133 1145.46 834.898V834.898C1145.46 812.941 1166.09 795.141 1191.54 795.141H1474C1513.6 795.141 1533.4 795.141 1545.7 782.84C1558 770.538 1558 750.739 1558 711.141V39.7571C1558 17.7998 1537.37 0 1511.92 0H46.0817Z" fill="#0123FF"/>
<path d="M713.475 551.37H655.948C668.842 525.252 677.438 483.925 681.405 458.798H678.43C667.519 514.011 637.268 551.37 580.072 551.37C548.333 551.37 528 544.758 528 519.3C528 473.345 582.221 459.459 649.997 447.557C687.687 440.614 696.944 428.051 694.299 421.438C691.654 414.826 679.422 416.149 666.528 422.761C649.005 431.688 606.025 458.467 569.988 452.186C516.759 443.92 528 376.475 557.425 355.646L559.739 357.299C557.425 359.283 554.119 371.846 572.302 371.846C608.67 371.846 630.821 354.654 665.536 354.654C692.316 354.654 708.846 368.871 708.846 395.651C708.846 424.083 694.299 439.622 680.413 450.202H683.058L708.185 448.053C705.54 459.294 708.846 477.312 708.846 495.496C708.846 512.358 711.161 540.46 713.475 551.37ZM638.756 504.753C648.344 513.349 668.181 491.529 673.801 454.5C670.164 456.814 663.552 461.773 656.609 468.386C647.021 477.312 629.829 496.488 638.756 504.753Z" fill="white"/>
<path d="M804.064 551.212H907.216V484.097V469.219C907.436 462.608 907.766 456.435 908.207 450.705C908.869 444.975 909.53 440.015 910.191 435.827C911.073 431.64 911.954 427.892 912.836 424.586C913.938 421.281 915.04 418.525 916.142 416.321C917.244 414.117 918.346 412.353 919.448 411.031C920.771 409.709 921.983 408.827 923.085 408.386C924.407 407.945 925.73 407.835 927.052 408.056C946.448 413.125 954.383 438.367 950.857 483.766C948.212 518.588 936.971 533.076 917.134 538.146V551.212C962.979 551.432 1008.93 551.432 1055 551.212V538.146C1034.94 533.076 1023.7 518.588 1021.28 483.766C1020.62 474.73 1020.07 459.298 1019.62 437.48C1020.51 414.56 1016.21 395.38 1006.73 379.953C997.473 364.526 985.13 356.149 969.702 354.826C958.24 353.724 946.889 357.913 935.648 367.39C924.628 376.866 915.261 391.307 907.546 410.701V403.261C880.755 403.073 865.996 402.976 838.385 403.09C838.559 404.563 838.655 406.175 838.46 407.701C838.449 407.786 838.437 407.871 838.424 407.955C839.965 433.114 839.752 458.278 837.786 483.436C835.142 518.477 823.901 538.538 804.064 543.608V551.212Z" fill="white"/>
<path d="M721.624 349.044C721.497 398.83 765.563 433.695 813.522 433.817C847.456 433.903 879.072 421.718 901.496 413.075C921.025 405.548 930.103 390.611 931.145 398.905C931.921 406.379 939.166 408.436 948.276 411.022C950.479 411.647 952.791 412.304 955.148 413.075C979.778 408.225 998.638 400.073 999.702 381.266C1001.12 363.457 984.699 353.823 964.14 356.055C941.826 358.367 926.227 370.935 911.877 382.498C893.024 397.687 876.327 411.141 849.391 397.328C797.391 369.791 849.832 223.764 900.489 240.336C920.597 246.511 911.959 269.585 901.496 297.534C890.112 327.944 876.566 364.126 895.539 390.593L897.372 388.314C897.421 369.114 920.483 357.998 945.272 346.049C972.376 332.984 1001.54 318.924 1004.95 292.214C1011 247.924 956.238 229.972 899.142 231.197C836.105 233.321 721.846 261.349 721.624 349.044Z" fill="white"/>
<path d="M792.82 331.84L794.355 469.227C794.355 486.624 797.553 501.591 803.949 514.128C810.345 526.407 820.195 534.211 833.498 537.537L833.818 551.37H771.265C755.659 551.37 741.907 540.35 730.65 529.093C719.393 517.837 713.765 504.404 713.765 488.799C713.765 456.052 713.893 430.594 714.149 412.43C713.637 403.476 712.742 395.417 711.462 388.253C710.439 381.09 708.52 373.287 705.706 364.843C703.147 356.401 699.054 349.365 693.426 343.737C688.053 337.853 681.401 333.887 673.47 331.84C673.47 330.817 673.47 329.282 673.47 327.235C673.47 325.189 673.47 323.653 673.47 322.63C719.265 313.42 750.99 296.534 768.643 271.974C763.014 274.532 757.13 275.811 750.99 275.811C739.221 275.811 729.115 271.718 720.673 263.531C712.486 255.088 708.392 244.982 708.392 233.214C708.392 225.539 710.311 218.503 714.149 212.107C717.986 205.455 723.103 200.338 729.499 196.756C736.151 192.919 743.314 191 750.99 191C763.27 191 773.376 195.605 781.307 204.815C789.238 213.77 793.203 224.771 793.203 237.819V322.63H866.053V331.457H793.203V331.84H792.82Z" fill="white"/>
<path d="M798.434 328.378L799.084 386.599C799.084 393.971 800.44 400.314 803.15 405.626C805.86 410.83 810.035 414.137 815.672 415.546V419.124H789.164C782.551 419.124 776.859 416.739 772.088 411.968C767.318 407.198 764.933 401.506 764.933 394.893C764.933 381.016 764.987 370.227 765.095 362.53C764.879 358.735 764.499 355.32 763.957 352.284C763.523 349.249 762.71 345.942 761.518 342.364C760.433 338.787 758.699 335.805 756.314 333.42C754.037 330.926 751.218 329.246 747.857 328.378C747.857 327.945 747.857 327.294 747.857 326.427C747.857 325.559 747.857 324.909 747.857 324.475C767.264 320.572 780.708 313.417 788.188 303.009C785.803 304.093 783.31 304.635 780.708 304.635C775.72 304.635 771.438 302.9 767.86 299.431C764.391 295.853 762.656 291.57 762.656 286.583C762.656 283.331 763.469 280.349 765.095 277.639C766.722 274.82 768.89 272.652 771.6 271.134C774.419 269.507 777.455 268.694 780.708 268.694C785.912 268.694 790.194 270.646 793.555 274.549C796.916 278.344 798.596 283.006 798.596 288.535V324.475H815.672V328.216H798.596V328.378H798.434Z" fill="#0123FF"/>
<path d="M702.831 647.909C702.901 652.697 703.816 656.815 705.576 660.265C707.336 663.644 710.047 665.791 713.707 666.706V669.029H696.495C692.13 669.029 688.399 667.481 685.301 664.383C682.274 661.285 680.76 657.589 680.76 653.295C680.76 644.284 680.796 637.279 680.866 632.281C680.303 621.932 677.909 615.174 673.685 612.006C671.996 610.879 669.144 610.07 665.132 609.577C661.119 609.014 657.141 609.014 653.199 609.577C649.327 610.07 646.828 611.09 645.701 612.639C644.997 613.484 644.786 614.47 645.068 615.596C645.349 616.652 646.124 617.673 647.391 618.658C649.362 620.207 651.721 622.108 654.466 624.361C657.282 626.543 659.641 628.444 661.541 630.063C663.513 631.682 664.639 632.598 664.92 632.809C668.37 635.343 670.904 638.405 672.524 641.996C674.213 645.586 674.917 649.141 674.636 652.661C674.354 656.181 673.052 659.525 670.728 662.693C668.476 665.791 665.378 668.149 661.436 669.768C655.804 672.021 649.468 672.972 642.428 672.62C635.458 672.268 629.862 670.754 625.638 668.079C623.033 666.46 621.062 664.207 619.724 661.321C618.386 658.434 617.788 655.618 617.929 652.873C618.07 650.057 619.055 647.522 620.886 645.269C622.716 642.946 625.215 641.503 628.383 640.94C629.439 640.658 630.46 640.517 631.446 640.517C634.895 640.517 637.817 641.714 640.21 644.108C642.604 646.501 643.801 649.423 643.801 652.873C643.801 656.252 642.604 659.138 640.21 661.532C637.817 663.925 634.895 665.122 631.446 665.122C631.094 665.122 630.742 665.087 630.39 665.017C631.516 667.129 633.205 668.466 635.458 669.029C637.781 669.592 640.175 669.522 642.639 668.818C645.173 668.044 647.321 666.636 649.081 664.594C650.911 662.553 651.826 660.194 651.826 657.519C651.826 655.618 651.404 653.753 650.559 651.922C649.714 650.021 648.729 648.402 647.602 647.065C646.546 645.727 644.927 644.249 642.745 642.629C640.562 640.94 638.802 639.673 637.465 638.828C636.127 637.983 634.156 636.751 631.551 635.132C631.34 634.991 631.164 634.886 631.023 634.815C630.882 634.745 630.706 634.674 630.495 634.604C630.354 634.463 630.178 634.358 629.967 634.287C627.362 632.668 625.215 631.119 623.526 629.641C621.906 628.092 620.745 626.332 620.041 624.361C619.126 622.178 619.09 619.714 619.935 616.969C620.85 614.153 622.681 611.759 625.426 609.788C627.468 608.239 630.214 607.183 633.663 606.62C637.183 605.986 640.914 605.705 644.857 605.775C648.799 605.846 652.741 606.022 656.684 606.303C660.626 606.514 664.568 606.585 668.511 606.514C672.524 606.374 675.832 605.951 678.437 605.247C680.972 604.684 683.365 603.91 685.618 602.924C687.871 601.868 690.053 600.566 692.165 599.017C694.348 597.468 696.072 595.497 697.339 593.103C698.607 590.71 699.24 588.105 699.24 585.289C699.24 582.121 698.466 579.199 696.917 576.524C695.368 573.779 693.256 571.632 690.581 570.083C687.906 568.464 684.984 567.619 681.816 567.548C684.351 568.464 686.392 570.048 687.941 572.3C689.56 574.553 690.37 577.052 690.37 579.798C690.37 583.459 689.103 586.556 686.568 589.091C684.034 591.625 680.936 592.892 677.276 592.892C673.685 592.892 670.623 591.625 668.088 589.091C665.554 586.556 664.287 583.459 664.287 579.798C664.287 577.404 664.885 575.187 666.082 573.145C667.279 571.104 668.898 569.52 670.94 568.393C674.319 566.281 678.015 565.225 682.028 565.225C687.237 565.225 691.743 566.95 695.544 570.4C699.416 573.779 701.704 578.038 702.408 583.177C702.479 584.022 702.514 584.867 702.514 585.711V607.57H713.707V609.999H702.514C702.514 613.097 702.619 625.734 702.831 647.909ZM760.764 634.604V607.57C768.156 607.57 775.478 607.57 782.729 607.57V635.026C782.729 635.942 782.764 640.236 782.835 647.909C782.905 652.697 783.82 656.815 785.58 660.265C787.34 663.644 790.015 665.791 793.606 666.706V669.029H776.393C772.099 669.029 768.403 667.481 765.305 664.383C762.278 661.285 760.764 657.589 760.764 653.295V652.239C759.075 656.393 757.103 659.877 754.851 662.693C752.598 665.509 750.31 667.481 747.987 668.607C745.664 669.733 743.305 670.191 740.912 669.98C735.984 669.557 732.006 666.917 728.979 662.06C726.022 657.132 724.649 651.007 724.86 643.685C724.79 636.786 724.649 631.894 724.438 629.007C723.664 617.954 720.073 611.618 713.667 609.999V607.676C725.846 607.606 736.828 607.57 746.614 607.57V634.498C746.614 645.481 749.254 651.676 754.534 653.084C755.66 653.365 756.646 652.837 757.491 651.5C758.406 650.092 759.075 648.226 759.497 645.903C759.919 643.509 760.236 641.433 760.447 639.673C760.659 637.842 760.764 636.153 760.764 634.604ZM830.358 669.029H830.252C828.914 669.029 828.14 669.029 827.929 669.029C813.004 668.466 802.374 663.045 796.038 652.767C791.391 645.305 789.843 636.892 791.391 627.529C792.659 619.574 795.686 613.66 800.473 609.788C803.148 607.606 806.07 606.514 809.238 606.514C812.969 606.444 816.489 607.5 819.798 609.682C823.106 611.794 825.746 614.962 827.718 619.186C827.718 614.822 827.682 612.006 827.612 610.738V598.7C837.609 598.63 848.697 598.63 860.876 598.7V601.023C854.54 602.643 850.949 609.084 850.105 620.348C849.401 629.359 849.401 638.37 850.105 647.381C850.949 658.575 854.54 664.981 860.876 666.601V669.029C849.401 669.029 839.228 669.029 830.358 669.029ZM816.207 637.877C816.137 643.65 817.228 649.388 819.481 655.09C821.734 660.722 824.479 664.489 827.718 666.389C827.718 665.122 827.682 660.3 827.612 651.922C827.612 643.474 827.612 638.757 827.612 637.772C827.612 632.21 827.225 627.951 826.45 624.994C825.676 621.967 824.726 620.489 823.599 620.559C822.543 620.559 821.452 621.263 820.326 622.671C819.199 624.079 818.214 626.226 817.369 629.113C816.594 631.999 816.207 634.921 816.207 637.877ZM894.313 647.909C895.087 658.751 898.678 665.017 905.084 666.706V669.029C890.37 669.1 875.692 669.1 861.049 669.029V666.706C867.455 665.017 871.046 658.751 871.82 647.909C872.313 641.503 872.313 635.097 871.82 628.69C871.046 617.849 867.455 611.583 861.049 609.894V607.57C869.567 609.612 876.854 610.633 882.908 610.633C889.033 610.562 896.425 609.542 905.084 607.57V609.894C898.678 611.583 895.087 617.849 894.313 628.69C893.82 635.097 893.82 641.503 894.313 647.909ZM873.827 599.017C871.292 596.412 870.025 593.315 870.025 589.724C870.025 586.134 871.292 583.071 873.827 580.537C876.361 577.932 879.423 576.63 883.014 576.63C886.674 576.63 889.772 577.932 892.306 580.537C894.841 583.071 896.108 586.134 896.108 589.724C896.108 593.315 894.841 596.412 892.306 599.017C889.772 601.551 886.674 602.819 883.014 602.819C879.423 602.819 876.361 601.551 873.827 599.017ZM965.15 639.356C965.15 644.143 964.27 648.508 962.51 652.45C960.75 656.393 958.392 659.631 955.435 662.165C952.478 664.629 949.169 666.53 945.509 667.868C941.848 669.205 938.046 669.909 934.104 669.98C931.006 669.98 927.944 669.592 924.917 668.818C921.96 667.973 919.144 666.671 916.469 664.911C913.864 663.151 911.576 661.039 909.605 658.575C907.634 656.111 906.05 653.084 904.853 649.493C903.727 645.833 903.163 641.89 903.163 637.666C903.163 632.809 904.043 628.409 905.803 624.466C907.563 620.454 909.887 617.215 912.773 614.751C915.73 612.217 919.003 610.246 922.594 608.838C926.254 607.43 930.056 606.726 933.998 606.726C938.011 606.655 941.813 607.289 945.403 608.626C949.064 609.964 952.373 611.935 955.329 614.54C958.286 617.145 960.645 620.594 962.405 624.889C964.235 629.183 965.15 634.006 965.15 639.356ZM933.998 609.894C931.886 610.034 930.091 612.604 928.613 617.602C927.134 622.53 926.36 629.43 926.29 638.3C926.219 644.213 926.571 649.388 927.346 653.823C928.12 658.258 929.07 661.532 930.197 663.644C931.394 665.685 932.696 666.741 934.104 666.812C935.442 666.882 936.674 665.967 937.8 664.066C938.997 662.095 939.982 658.962 940.757 654.668C941.531 650.303 941.954 645.129 942.024 639.145C942.024 634.428 941.813 630.134 941.39 626.262C940.968 622.39 940.37 619.292 939.595 616.969C938.821 614.575 937.941 612.78 936.955 611.583C935.97 610.316 934.984 609.753 933.998 609.894Z" fill="white"/>
<rect width="1558" height="382" transform="translate(0 228)" fill="white"/>
<path d="M241.4 488V358.4H265.88V488H241.4ZM348.482 488C341.762 489.26 335.162 489.8 328.682 489.62C322.262 489.5 316.502 488.39 311.402 486.29C306.362 484.13 302.522 480.68 299.882 475.94C297.482 471.5 296.222 467 296.102 462.44C295.982 457.82 295.922 452.6 295.922 446.78V363.8H320.402V445.34C320.402 449.12 320.432 452.54 320.492 455.6C320.612 458.6 321.242 461 322.382 462.8C324.542 466.22 327.992 468.08 332.732 468.38C337.472 468.68 342.722 468.44 348.482 467.66V488ZM279.362 409.7V390.8H348.482V409.7H279.362ZM371.042 407.18L372.482 396.92C375.362 397.16 377.702 396.71 379.502 395.57C381.302 394.37 382.532 392.69 383.192 390.53C383.912 388.31 384.062 385.76 383.642 382.88H371.042V358.4H395.522V382.88C395.522 391.52 393.512 398.06 389.492 402.5C385.472 406.94 379.322 408.5 371.042 407.18ZM443.152 490.7C430.912 490.7 421.012 487.94 413.452 482.42C405.952 476.84 401.392 468.98 399.772 458.84L424.792 455.06C425.812 459.62 428.062 463.19 431.542 465.77C435.082 468.35 439.552 469.64 444.952 469.64C449.392 469.64 452.812 468.8 455.212 467.12C457.612 465.38 458.812 462.98 458.812 459.92C458.812 458 458.332 456.47 457.372 455.33C456.412 454.13 454.252 452.96 450.892 451.82C447.592 450.68 442.432 449.18 435.412 447.32C427.492 445.28 421.162 443 416.422 440.48C411.682 437.96 408.262 434.96 406.162 431.48C404.062 427.94 403.012 423.68 403.012 418.7C403.012 412.46 404.602 407.06 407.782 402.5C410.962 397.88 415.432 394.34 421.192 391.88C427.012 389.36 433.852 388.1 441.712 388.1C449.332 388.1 456.082 389.27 461.962 391.61C467.842 393.95 472.582 397.28 476.182 401.6C479.842 405.92 482.092 411.02 482.932 416.9L457.912 421.4C457.492 417.8 455.932 414.95 453.232 412.85C450.532 410.75 446.872 409.52 442.252 409.16C437.752 408.86 434.122 409.46 431.362 410.96C428.662 412.46 427.312 414.62 427.312 417.44C427.312 419.12 427.882 420.53 429.022 421.67C430.222 422.81 432.652 423.98 436.312 425.18C440.032 426.38 445.672 427.94 453.232 429.86C460.612 431.78 466.522 434.03 470.962 436.61C475.462 439.13 478.732 442.19 480.772 445.79C482.812 449.33 483.832 453.62 483.832 458.66C483.832 468.62 480.232 476.45 473.032 482.15C465.832 487.85 455.872 490.7 443.152 490.7ZM577.085 490.7C567.005 490.7 558.365 488.45 551.165 483.95C543.965 479.45 538.445 473.33 534.605 465.59C530.765 457.85 528.845 449.12 528.845 439.4C528.845 429.56 530.825 420.77 534.785 413.03C538.805 405.29 544.445 399.2 551.705 394.76C558.965 390.32 567.545 388.1 577.445 388.1C588.905 388.1 598.505 391.01 606.245 396.83C614.045 402.59 619.025 410.48 621.185 420.5L596.705 426.98C595.265 421.94 592.745 418.01 589.145 415.19C585.605 412.37 581.585 410.96 577.085 410.96C571.925 410.96 567.695 412.22 564.395 414.74C561.095 417.2 558.665 420.59 557.105 424.91C555.545 429.17 554.765 434 554.765 439.4C554.765 447.86 556.625 454.73 560.345 460.01C564.125 465.23 569.705 467.84 577.085 467.84C582.605 467.84 586.805 466.58 589.685 464.06C592.565 461.54 594.725 457.94 596.165 453.26L621.185 458.48C618.425 468.8 613.205 476.75 605.525 482.33C597.845 487.91 588.365 490.7 577.085 490.7ZM677.589 490.7C667.809 490.7 659.229 488.51 651.849 484.13C644.469 479.75 638.709 473.72 634.569 466.04C630.489 458.3 628.449 449.42 628.449 439.4C628.449 429.26 630.549 420.35 634.749 412.67C638.949 404.93 644.739 398.9 652.119 394.58C659.499 390.26 667.989 388.1 677.589 388.1C687.369 388.1 695.949 390.29 703.329 394.67C710.769 399.05 716.559 405.11 720.699 412.85C724.839 420.53 726.909 429.38 726.909 439.4C726.909 449.48 724.809 458.39 720.609 466.13C716.469 473.81 710.679 479.84 703.239 484.22C695.859 488.54 687.309 490.7 677.589 490.7ZM677.589 467.84C685.449 467.84 691.299 465.2 695.139 459.92C699.039 454.58 700.989 447.74 700.989 439.4C700.989 430.76 699.009 423.86 695.049 418.7C691.149 413.54 685.329 410.96 677.589 410.96C672.249 410.96 667.869 412.16 664.449 414.56C661.029 416.96 658.479 420.29 656.799 424.55C655.179 428.81 654.369 433.76 654.369 439.4C654.369 448.1 656.319 455.03 660.219 460.19C664.179 465.29 669.969 467.84 677.589 467.84ZM861.001 488V430.58C861.001 424.16 859.471 419.18 856.411 415.64C853.411 412.04 849.241 410.24 843.901 410.24C840.481 410.24 837.511 411.05 834.991 412.67C832.471 414.23 830.491 416.45 829.051 419.33C827.671 422.15 826.981 425.42 826.981 429.14L816.721 422.3C816.721 415.64 818.281 409.76 821.401 404.66C824.581 399.56 828.811 395.6 834.091 392.78C839.431 389.9 845.341 388.46 851.821 388.46C862.921 388.46 871.291 391.76 876.931 398.36C882.631 404.9 885.481 413.48 885.481 424.1V488H861.001ZM743.821 488V390.8H765.421V423.02H768.481V488H743.821ZM802.501 488V430.58C802.501 424.16 800.971 419.18 797.911 415.64C794.911 412.04 790.741 410.24 785.401 410.24C780.301 410.24 776.191 412.01 773.071 415.55C770.011 419.03 768.481 423.56 768.481 429.14L758.221 421.94C758.221 415.58 759.811 409.88 762.991 404.84C766.171 399.8 770.431 395.81 775.771 392.87C781.171 389.93 787.201 388.46 793.861 388.46C801.481 388.46 807.721 390.08 812.581 393.32C817.501 396.56 821.131 400.88 823.471 406.28C825.811 411.68 826.981 417.62 826.981 424.1V488H802.501ZM1023.18 488V430.58C1023.18 424.16 1021.65 419.18 1018.59 415.64C1015.59 412.04 1011.42 410.24 1006.08 410.24C1002.66 410.24 999.694 411.05 997.174 412.67C994.654 414.23 992.674 416.45 991.234 419.33C989.854 422.15 989.164 425.42 989.164 429.14L978.904 422.3C978.904 415.64 980.464 409.76 983.584 404.66C986.764 399.56 990.994 395.6 996.274 392.78C1001.61 389.9 1007.52 388.46 1014 388.46C1025.1 388.46 1033.47 391.76 1039.11 398.36C1044.81 404.9 1047.66 413.48 1047.66 424.1V488H1023.18ZM906.004 488V390.8H927.604V423.02H930.664V488H906.004ZM964.684 488V430.58C964.684 424.16 963.154 419.18 960.094 415.64C957.094 412.04 952.924 410.24 947.584 410.24C942.484 410.24 938.374 412.01 935.254 415.55C932.194 419.03 930.664 423.56 930.664 429.14L920.404 421.94C920.404 415.58 921.994 409.88 925.174 404.84C928.354 399.8 932.614 395.81 937.954 392.87C943.354 389.93 949.384 388.46 956.044 388.46C963.664 388.46 969.904 390.08 974.764 393.32C979.684 396.56 983.314 400.88 985.654 406.28C987.994 411.68 989.164 417.62 989.164 424.1V488H964.684ZM1070.17 377.3V355.7H1094.65V377.3H1070.17ZM1070.17 488V390.8H1094.65V488H1070.17ZM1185.17 488V442.1C1185.17 439.88 1185.05 437.06 1184.81 433.64C1184.57 430.16 1183.82 426.68 1182.56 423.2C1181.3 419.72 1179.23 416.81 1176.35 414.47C1173.53 412.13 1169.51 410.96 1164.29 410.96C1162.19 410.96 1159.94 411.29 1157.54 411.95C1155.14 412.61 1152.89 413.9 1150.79 415.82C1148.69 417.68 1146.95 420.44 1145.57 424.1C1144.25 427.76 1143.59 432.62 1143.59 438.68L1129.55 432.02C1129.55 424.34 1131.11 417.14 1134.23 410.42C1137.35 403.7 1142.03 398.27 1148.27 394.13C1154.57 389.99 1162.49 387.92 1172.03 387.92C1179.65 387.92 1185.86 389.21 1190.66 391.79C1195.46 394.37 1199.18 397.64 1201.82 401.6C1204.52 405.56 1206.44 409.7 1207.58 414.02C1208.72 418.28 1209.41 422.18 1209.65 425.72C1209.89 429.26 1210.01 431.84 1210.01 433.46V488H1185.17ZM1118.75 488V390.8H1140.53V423.02H1143.59V488H1118.75ZM1272.24 533.9C1266.72 533.9 1261.47 533 1256.49 531.2C1251.51 529.46 1247.04 527 1243.08 523.82C1239.18 520.7 1236 517.04 1233.54 512.84L1256.22 501.86C1257.78 504.74 1260 506.93 1262.88 508.43C1265.82 509.93 1269 510.68 1272.42 510.68C1276.08 510.68 1279.53 510.05 1282.77 508.79C1286.01 507.59 1288.59 505.76 1290.51 503.3C1292.49 500.9 1293.42 497.9 1293.3 494.3V466.04H1296.36V390.8H1317.78V494.66C1317.78 497.06 1317.66 499.31 1317.42 501.41C1317.24 503.57 1316.88 505.7 1316.34 507.8C1314.78 513.74 1311.87 518.63 1307.61 522.47C1303.41 526.31 1298.25 529.16 1292.13 531.02C1286.01 532.94 1279.38 533.9 1272.24 533.9ZM1270.08 490.7C1261.14 490.7 1253.31 488.45 1246.59 483.95C1239.87 479.45 1234.62 473.33 1230.84 465.59C1227.12 457.85 1225.26 449.12 1225.26 439.4C1225.26 429.5 1227.15 420.71 1230.93 413.03C1234.77 405.29 1240.14 399.2 1247.04 394.76C1253.94 390.32 1262.04 388.1 1271.34 388.1C1280.58 388.1 1288.35 390.35 1294.65 394.85C1300.95 399.35 1305.72 405.47 1308.96 413.21C1312.2 420.95 1313.82 429.68 1313.82 439.4C1313.82 449.12 1312.17 457.85 1308.87 465.59C1305.63 473.33 1300.77 479.45 1294.29 483.95C1287.81 488.45 1279.74 490.7 1270.08 490.7ZM1274.04 468.92C1279.5 468.92 1283.85 467.69 1287.09 465.23C1290.39 462.77 1292.76 459.32 1294.2 454.88C1295.64 450.44 1296.36 445.28 1296.36 439.4C1296.36 433.52 1295.64 428.36 1294.2 423.92C1292.76 419.48 1290.45 416.03 1287.27 413.57C1284.15 411.11 1280.04 409.88 1274.94 409.88C1269.48 409.88 1264.98 411.23 1261.44 413.93C1257.96 416.57 1255.38 420.14 1253.7 424.64C1252.02 429.08 1251.18 434 1251.18 439.4C1251.18 444.86 1251.99 449.84 1253.61 454.34C1255.23 458.78 1257.72 462.32 1261.08 464.96C1264.44 467.6 1268.76 468.92 1274.04 468.92Z" fill="black"/>
</svg>
