<svg width="330" height="443" viewBox="0 0 330 443" fill="none" xmlns="http://www.w3.org/2000/svg">
<path d="M0 0H330V427C330 435.837 322.837 443 314 443H16C7.16345 443 0 435.837 0 427V0Z" fill="black"/>
<path d="M130.651 265.645H105.326C111.003 254.147 114.787 235.954 116.533 224.892H115.223C110.42 249.198 97.1029 265.645 71.9235 265.645C57.9511 265.645 49 262.734 49 251.527C49 231.296 72.8695 225.183 102.706 219.944C119.299 216.887 123.374 211.356 122.21 208.445C121.045 205.534 115.66 206.117 109.984 209.028C102.27 212.957 83.3488 224.747 67.4843 221.981C44.0514 218.343 49 188.651 61.9536 179.482L62.9724 180.21C61.9536 181.083 60.4981 186.614 68.5031 186.614C84.5132 186.614 94.2647 179.045 109.547 179.045C121.336 179.045 128.614 185.304 128.614 197.093C128.614 209.61 122.21 216.45 116.097 221.108H117.261L128.322 220.162C127.158 225.11 128.614 233.043 128.614 241.048C128.614 248.47 129.632 260.842 130.651 265.645ZM97.7578 245.123C101.979 248.907 110.711 239.301 113.186 223C111.585 224.019 108.674 226.202 105.617 229.113C101.396 233.043 93.8281 241.484 97.7578 245.123Z" fill="white"/>
<path d="M170.529 265.575H215.94V236.029V229.48C216.037 226.569 216.182 223.852 216.376 221.329C216.667 218.807 216.958 216.623 217.249 214.78C217.638 212.936 218.026 211.286 218.414 209.831C218.899 208.376 219.384 207.163 219.869 206.192C220.354 205.222 220.84 204.446 221.325 203.864C221.907 203.282 222.441 202.893 222.926 202.699C223.508 202.505 224.09 202.457 224.672 202.554C233.211 204.785 236.704 215.898 235.152 235.884C233.987 251.213 229.039 257.591 220.306 259.823V265.575C240.488 265.672 260.719 265.672 280.999 265.575V259.823C272.169 257.591 267.22 251.213 266.153 235.884C265.862 231.906 265.619 225.112 265.425 215.507C265.813 205.417 263.921 196.974 259.749 190.182C255.674 183.391 250.24 179.703 243.448 179.121C238.402 178.636 233.405 180.48 228.457 184.652C223.605 188.823 219.481 195.18 216.085 203.718V200.443C204.291 200.36 197.794 200.318 185.638 200.368C185.715 201.016 185.757 201.726 185.671 202.398C185.667 202.435 185.661 202.472 185.656 202.51C186.334 213.585 186.24 224.663 185.375 235.738C184.211 251.165 179.262 259.996 170.529 262.228V265.575Z" fill="white"/>
<path d="M134.237 176.575C134.181 198.492 153.58 213.841 174.693 213.895C189.632 213.933 203.55 208.568 213.422 204.764C222.019 201.45 226.015 194.874 226.474 198.526C226.815 201.816 230.005 202.721 234.016 203.86C234.985 204.135 236.003 204.424 237.041 204.764C247.884 202.629 256.186 199.04 256.655 190.76C257.278 182.92 250.05 178.679 240.999 179.662C231.176 180.68 224.309 186.212 217.991 191.303C209.692 197.989 202.341 203.912 190.483 197.831C167.592 185.708 190.678 121.424 212.978 128.719C221.831 131.438 218.028 141.595 213.422 153.899C208.41 167.287 202.447 183.215 210.799 194.867L211.606 193.863C211.628 185.411 221.78 180.517 232.693 175.257C244.625 169.505 257.466 163.316 258.966 151.557C261.63 132.06 237.521 124.156 212.385 124.696C184.635 125.631 134.335 137.97 134.237 176.575Z" fill="white"/>
<path d="M165.582 169.002L166.258 229.483C166.258 237.142 167.666 243.731 170.481 249.25C173.297 254.655 177.633 258.091 183.49 259.555L183.631 265.645H156.093C149.223 265.645 143.169 260.794 138.213 255.838C133.258 250.883 130.78 244.969 130.78 238.099C130.78 223.683 130.836 212.476 130.949 204.48C130.724 200.538 130.329 196.99 129.766 193.836C129.316 190.683 128.471 187.248 127.232 183.531C126.106 179.814 124.304 176.717 121.826 174.239C119.461 171.649 116.532 169.903 113.041 169.002C113.041 168.551 113.041 167.876 113.041 166.975C113.041 166.074 113.041 165.398 113.041 164.947C133.201 160.893 147.167 153.459 154.939 142.647C152.461 143.773 149.87 144.336 147.167 144.336C141.986 144.336 137.538 142.534 133.821 138.93C130.217 135.213 128.415 130.765 128.415 125.584C128.415 122.205 129.259 119.108 130.949 116.292C132.638 113.363 134.891 111.111 137.707 109.534C140.635 107.845 143.789 107 147.167 107C152.574 107 157.022 109.027 160.514 113.082C164.005 117.024 165.751 121.867 165.751 127.611V164.947H197.821V168.833H165.751V169.002H165.582Z" fill="white"/>
<path d="M168.052 167.478L168.339 193.108C168.339 196.354 168.935 199.146 170.129 201.485C171.322 203.775 173.159 205.231 175.641 205.852V207.427H163.972C161.06 207.427 158.554 206.377 156.454 204.276C154.354 202.177 153.304 199.671 153.304 196.759C153.304 190.65 153.328 185.901 153.376 182.512C153.28 180.842 153.113 179.338 152.875 178.002C152.684 176.666 152.326 175.21 151.801 173.635C151.324 172.06 150.56 170.747 149.51 169.697C148.508 168.599 147.267 167.86 145.787 167.478C145.787 167.287 145.787 167.001 145.787 166.619C145.787 166.237 145.787 165.95 145.787 165.76C154.331 164.041 160.249 160.891 163.542 156.309C162.492 156.787 161.394 157.025 160.249 157.025C158.053 157.025 156.168 156.262 154.593 154.734C153.066 153.159 152.302 151.274 152.302 149.078C152.302 147.647 152.66 146.334 153.376 145.141C154.092 143.9 155.046 142.945 156.24 142.277C157.481 141.561 158.817 141.203 160.249 141.203C162.54 141.203 164.425 142.062 165.905 143.781C167.384 145.451 168.124 147.503 168.124 149.938V165.76H175.641V167.406H168.124V167.478H168.052Z" fill="black"/>
<path d="M125.945 308.078C125.976 310.185 126.379 311.998 127.154 313.517C127.929 315.005 129.122 315.95 130.734 316.353V317.375H123.156C121.235 317.375 119.592 316.694 118.228 315.33C116.896 313.966 116.229 312.339 116.229 310.449C116.229 306.482 116.245 303.398 116.276 301.198C116.028 296.642 114.974 293.667 113.115 292.272C112.371 291.776 111.116 291.42 109.349 291.203C107.583 290.955 105.832 290.955 104.096 291.203C102.392 291.42 101.291 291.869 100.795 292.551C100.486 292.923 100.393 293.357 100.517 293.853C100.641 294.317 100.981 294.767 101.539 295.201C102.407 295.883 103.445 296.719 104.654 297.711C105.894 298.672 106.932 299.509 107.769 300.221C108.636 300.934 109.132 301.337 109.256 301.43C110.775 302.546 111.891 303.894 112.603 305.475C113.347 307.055 113.657 308.62 113.533 310.17C113.409 311.719 112.836 313.192 111.813 314.586C110.821 315.95 109.458 316.988 107.722 317.701C105.243 318.693 102.454 319.111 99.3544 318.956C96.2862 318.801 93.8223 318.135 91.9628 316.957C90.8161 316.244 89.9484 315.252 89.3595 313.982C88.7707 312.711 88.5072 311.471 88.5692 310.263C88.6312 309.023 89.0651 307.907 89.8709 306.916C90.6767 305.893 91.7769 305.258 93.1715 305.01C93.6364 304.886 94.0858 304.824 94.5197 304.824C96.0383 304.824 97.3244 305.351 98.3781 306.404C99.4319 307.458 99.9587 308.744 99.9587 310.263C99.9587 311.75 99.4319 313.021 98.3781 314.075C97.3244 315.129 96.0383 315.655 94.5197 315.655C94.3647 315.655 94.2097 315.64 94.0548 315.609C94.5506 316.539 95.2944 317.127 96.2862 317.375C97.3089 317.623 98.3626 317.592 99.4474 317.282C100.563 316.942 101.508 316.322 102.283 315.423C103.089 314.524 103.492 313.486 103.492 312.308C103.492 311.471 103.306 310.65 102.934 309.844C102.562 309.008 102.128 308.295 101.632 307.706C101.167 307.117 100.455 306.466 99.4938 305.753C98.5331 305.01 97.7583 304.452 97.1695 304.08C96.5806 303.708 95.7128 303.166 94.5661 302.453C94.4732 302.391 94.3957 302.344 94.3337 302.313C94.2717 302.282 94.1942 302.251 94.1013 302.22C94.0393 302.158 93.9618 302.112 93.8688 302.081C92.7221 301.368 91.7769 300.686 91.0331 300.035C90.3203 299.354 89.8089 298.579 89.499 297.711C89.0961 296.75 89.0806 295.666 89.4525 294.457C89.8554 293.217 90.6612 292.164 91.8698 291.296C92.7686 290.614 93.9773 290.149 95.4959 289.901C97.0455 289.622 98.6881 289.498 100.424 289.529C102.159 289.56 103.895 289.638 105.63 289.762C107.366 289.855 109.101 289.886 110.837 289.855C112.603 289.793 114.06 289.607 115.207 289.297C116.322 289.049 117.376 288.708 118.368 288.274C119.36 287.809 120.32 287.236 121.25 286.554C122.211 285.872 122.97 285.004 123.528 283.951C124.086 282.897 124.365 281.75 124.365 280.511C124.365 279.116 124.024 277.83 123.342 276.652C122.66 275.443 121.73 274.498 120.553 273.816C119.375 273.104 118.089 272.732 116.694 272.701C117.81 273.104 118.709 273.801 119.391 274.793C120.103 275.784 120.46 276.885 120.46 278.093C120.46 279.705 119.902 281.068 118.786 282.184C117.671 283.3 116.307 283.858 114.695 283.858C113.115 283.858 111.767 283.3 110.651 282.184C109.535 281.068 108.977 279.705 108.977 278.093C108.977 277.04 109.241 276.063 109.768 275.165C110.294 274.266 111.007 273.568 111.906 273.073C113.394 272.143 115.021 271.678 116.787 271.678C119.081 271.678 121.064 272.437 122.738 273.956C124.442 275.443 125.45 277.318 125.759 279.581C125.79 279.953 125.806 280.325 125.806 280.697V290.32H130.734V291.389H125.806C125.806 292.752 125.852 298.315 125.945 308.078ZM151.449 302.22V290.32C154.704 290.32 157.927 290.32 161.119 290.32V302.406C161.119 302.809 161.134 304.7 161.165 308.078C161.196 310.185 161.599 311.998 162.374 313.517C163.149 315.005 164.326 315.95 165.907 316.353V317.375H158.33C156.439 317.375 154.812 316.694 153.448 315.33C152.116 313.966 151.449 312.339 151.449 310.449V309.984C150.706 311.812 149.838 313.346 148.846 314.586C147.854 315.826 146.847 316.694 145.824 317.189C144.802 317.685 143.763 317.887 142.71 317.794C140.54 317.608 138.789 316.446 137.457 314.307C136.155 312.138 135.551 309.442 135.644 306.218C135.613 303.181 135.551 301.027 135.458 299.757C135.117 294.891 133.536 292.102 130.716 291.389V290.366C136.077 290.335 140.912 290.32 145.22 290.32V302.174C145.22 307.009 146.382 309.736 148.707 310.356C149.202 310.48 149.636 310.247 150.008 309.658C150.411 309.039 150.706 308.217 150.892 307.195C151.077 306.141 151.217 305.227 151.31 304.452C151.403 303.646 151.449 302.902 151.449 302.22ZM182.086 317.375H182.04C181.451 317.375 181.11 317.375 181.017 317.375C174.447 317.127 169.767 314.741 166.978 310.216C164.932 306.931 164.25 303.228 164.932 299.106C165.49 295.604 166.823 293 168.93 291.296C170.108 290.335 171.394 289.855 172.789 289.855C174.431 289.824 175.981 290.289 177.437 291.249C178.894 292.179 180.056 293.574 180.924 295.433C180.924 293.512 180.909 292.272 180.878 291.714V286.415C185.278 286.384 190.16 286.384 195.521 286.415V287.437C192.732 288.15 191.151 290.986 190.779 295.945C190.47 299.912 190.47 303.878 190.779 307.845C191.151 312.773 192.732 315.593 195.521 316.306V317.375C190.47 317.375 185.991 317.375 182.086 317.375ZM175.857 303.662C175.826 306.203 176.306 308.729 177.298 311.239C178.29 313.718 179.498 315.376 180.924 316.213C180.924 315.655 180.909 313.532 180.878 309.844C180.878 306.125 180.878 304.049 180.878 303.615C180.878 301.167 180.707 299.292 180.366 297.99C180.025 296.657 179.607 296.007 179.111 296.038C178.646 296.038 178.166 296.347 177.67 296.967C177.174 297.587 176.74 298.532 176.368 299.803C176.027 301.074 175.857 302.36 175.857 303.662ZM210.241 308.078C210.582 312.851 212.163 315.609 214.983 316.353V317.375C208.506 317.406 202.044 317.406 195.597 317.375V316.353C198.418 315.609 199.998 312.851 200.339 308.078C200.556 305.258 200.556 302.437 200.339 299.617C199.998 294.844 198.418 292.086 195.597 291.342V290.32C199.347 291.218 202.555 291.668 205.22 291.668C207.917 291.637 211.171 291.187 214.983 290.32V291.342C212.163 292.086 210.582 294.844 210.241 299.617C210.024 302.437 210.024 305.258 210.241 308.078ZM201.222 286.554C200.107 285.407 199.549 284.044 199.549 282.463C199.549 280.883 200.107 279.534 201.222 278.419C202.338 277.272 203.686 276.699 205.267 276.699C206.879 276.699 208.242 277.272 209.358 278.419C210.474 279.534 211.031 280.883 211.031 282.463C211.031 284.044 210.474 285.407 209.358 286.554C208.242 287.67 206.879 288.228 205.267 288.228C203.686 288.228 202.338 287.67 201.222 286.554ZM241.426 304.312C241.426 306.42 241.038 308.341 240.263 310.077C239.489 311.812 238.45 313.238 237.149 314.354C235.847 315.438 234.391 316.275 232.779 316.864C231.167 317.453 229.494 317.763 227.758 317.794C226.395 317.794 225.047 317.623 223.714 317.282C222.412 316.911 221.173 316.337 219.995 315.562C218.848 314.788 217.841 313.858 216.973 312.773C216.105 311.688 215.408 310.356 214.881 308.775C214.385 307.164 214.137 305.428 214.137 303.569C214.137 301.43 214.525 299.493 215.3 297.758C216.074 295.991 217.097 294.565 218.368 293.481C219.669 292.365 221.111 291.497 222.691 290.877C224.303 290.258 225.976 289.948 227.712 289.948C229.478 289.917 231.152 290.196 232.732 290.784C234.344 291.373 235.801 292.241 237.102 293.388C238.404 294.534 239.442 296.053 240.217 297.944C241.023 299.834 241.426 301.957 241.426 304.312ZM227.712 291.342C226.782 291.404 225.992 292.535 225.341 294.736C224.69 296.905 224.349 299.943 224.318 303.847C224.287 306.451 224.442 308.729 224.783 310.681C225.124 312.634 225.542 314.075 226.038 315.005C226.565 315.903 227.138 316.368 227.758 316.399C228.347 316.43 228.889 316.027 229.385 315.191C229.912 314.323 230.346 312.944 230.687 311.053C231.028 309.132 231.214 306.854 231.245 304.219C231.245 302.143 231.152 300.252 230.966 298.548C230.78 296.843 230.517 295.48 230.176 294.457C229.835 293.403 229.447 292.613 229.013 292.086C228.58 291.528 228.146 291.28 227.712 291.342Z" fill="white"/>
</svg>
