<svg width="1703" height="904" viewBox="0 0 1703 904" fill="none" xmlns="http://www.w3.org/2000/svg">
<path d="M50.3704 0C22.5516 0 0 17.7998 0 39.7571V864.243C0 886.2 22.5517 904 50.3705 904H1182.96C1210.2 904 1223.81 904 1233.7 897.646C1238.52 894.548 1242.61 890.451 1245.71 885.633C1252.06 875.75 1252.06 862.133 1252.06 834.898V834.898C1252.06 812.941 1274.62 795.141 1302.44 795.141H1619C1658.6 795.141 1678.4 795.141 1690.7 782.84C1703 770.538 1703 750.739 1703 711.141V39.7571C1703 17.7998 1680.45 0 1652.63 0H50.3704Z" fill="black"/>
<path d="M0 39.7571C0 17.7998 22.5516 0 50.3704 0H0V39.7571Z" fill="black"/>
<path d="M1652.63 0C1680.45 0 1703 17.7998 1703 39.7571V0H1652.63Z" fill="black"/>
<path d="M773.225 527.002H715.916C728.761 500.983 737.325 459.813 741.277 434.782H738.313C727.444 489.785 697.307 527.002 640.328 527.002C608.709 527.002 588.454 520.415 588.454 495.054C588.454 449.273 642.469 435.44 709.988 423.583C747.535 416.667 756.757 404.151 754.122 397.564C751.487 390.977 739.301 392.294 726.456 398.881C709 407.774 666.183 434.452 630.283 428.194C577.256 419.96 588.454 352.771 617.767 332.021L620.072 333.668C617.767 335.644 614.473 348.16 632.588 348.16C668.818 348.16 690.885 331.033 725.468 331.033C752.146 331.033 768.614 345.196 768.614 371.874C768.614 400.199 754.122 415.679 740.289 426.218H742.924L767.955 424.077C765.32 435.276 768.614 453.226 768.614 471.341C768.614 488.138 770.919 516.133 773.225 527.002ZM698.789 480.563C708.341 489.126 728.102 467.388 733.702 430.5C730.079 432.805 723.491 437.746 716.575 444.333C707.023 453.226 689.897 472.329 698.789 480.563Z" fill="white"/>
<path d="M863.47 526.846H966.23V459.986V445.164C966.45 438.578 966.779 432.429 967.218 426.72C967.877 421.012 968.536 416.07 969.194 411.899C970.073 407.728 970.951 403.994 971.829 400.701C972.927 397.408 974.025 394.662 975.123 392.467C976.221 390.271 977.318 388.514 978.416 387.197C979.734 385.88 980.941 385.001 982.039 384.562C983.357 384.123 984.674 384.013 985.992 384.233C1005.31 389.283 1013.22 414.429 1009.71 459.656C1007.07 494.346 995.872 508.779 976.111 513.829V526.846C1021.78 527.065 1067.56 527.065 1113.45 526.846V513.829C1093.47 508.779 1082.27 494.346 1079.86 459.656C1079.2 450.654 1078.65 435.281 1078.21 413.546C1079.09 390.713 1074.81 371.606 1065.37 356.237C1056.15 340.869 1043.85 332.523 1028.48 331.206C1017.06 330.108 1005.75 334.281 994.555 343.721C983.576 353.162 974.245 367.547 966.559 386.868V379.457C939.87 379.269 925.167 379.173 897.661 379.286C897.834 380.754 897.93 382.359 897.735 383.88C897.724 383.964 897.713 384.049 897.7 384.133C899.235 409.196 899.023 434.265 897.065 459.327C894.43 494.235 883.231 514.22 863.47 519.27V526.846Z" fill="white"/>
<path d="M781.343 325.442C781.217 375.039 825.115 409.772 872.892 409.893C906.697 409.979 938.194 397.84 960.532 389.23C979.987 381.732 989.031 366.851 990.069 375.114C990.841 382.559 998.059 384.608 1007.13 387.184C1009.33 387.808 1011.63 388.461 1013.98 389.23C1038.52 384.399 1057.31 376.277 1058.37 357.542C1059.78 339.8 1043.42 330.203 1022.94 332.426C1000.71 334.73 985.17 347.25 970.873 358.769C952.093 373.9 935.458 387.303 908.625 373.542C856.823 346.11 909.064 200.637 959.529 217.146C979.561 223.298 970.956 246.284 960.532 274.127C949.191 304.422 935.697 340.467 954.598 366.834L956.424 364.563C956.473 345.436 979.447 334.362 1004.14 322.458C1031.14 309.443 1060.2 295.436 1063.6 268.827C1069.62 224.706 1015.07 206.822 958.187 208.042C895.389 210.158 781.565 238.08 781.343 325.442Z" fill="white"/>
<path d="M852.268 308.306L853.797 445.171C853.797 462.502 856.983 477.412 863.355 489.901C869.727 502.133 879.539 509.908 892.792 513.221L893.111 527.002H830.795C815.248 527.002 801.549 516.024 790.335 504.81C779.121 493.597 773.513 480.215 773.513 464.669C773.513 432.046 773.641 406.685 773.896 388.59C773.386 379.669 772.494 371.641 771.22 364.504C770.2 357.368 768.289 349.595 765.485 341.184C762.936 332.773 758.858 325.764 753.251 320.157C747.899 314.295 741.272 310.345 733.371 308.306C733.371 307.286 733.371 305.757 733.371 303.718C733.371 301.679 733.371 300.15 733.371 299.13C778.993 289.955 810.597 273.134 828.183 248.666C822.576 251.215 816.714 252.489 810.597 252.489C798.873 252.489 788.806 248.411 780.395 240.256C772.239 231.845 768.161 221.777 768.161 210.054C768.161 202.407 770.073 195.399 773.896 189.027C777.719 182.4 782.816 177.303 789.188 173.735C795.814 169.912 802.951 168 810.597 168C822.831 168 832.898 172.588 840.799 181.763C848.7 190.683 852.65 201.643 852.65 214.641V299.13H925.224V307.924H852.65V308.306H852.268Z" fill="white"/>
<path d="M857.861 304.858L858.509 362.857C858.509 370.202 859.859 376.52 862.56 381.813C865.26 386.996 869.418 390.291 875.034 391.695V395.259H848.627C842.038 395.259 836.368 392.883 831.616 388.13C826.864 383.379 824.487 377.708 824.487 371.12C824.487 357.295 824.541 346.548 824.649 338.88C824.433 335.1 824.055 331.698 823.515 328.673C823.083 325.649 822.273 322.355 821.085 318.791C820.005 315.227 818.277 312.256 815.901 309.88C813.633 307.396 810.825 305.722 807.476 304.858C807.476 304.426 807.476 303.778 807.476 302.914C807.476 302.05 807.476 301.402 807.476 300.97C826.81 297.081 840.202 289.953 847.655 279.584C845.279 280.664 842.794 281.204 840.202 281.204C835.234 281.204 830.968 279.476 827.404 276.02C823.947 272.456 822.219 268.19 822.219 263.221C822.219 259.981 823.029 257.011 824.649 254.311C826.27 251.503 828.43 249.343 831.13 247.831C833.938 246.21 836.962 245.4 840.202 245.4C845.387 245.4 849.653 247.345 853.001 251.233C856.349 255.013 858.023 259.657 858.023 265.166V300.97H875.034V304.696H858.023V304.858H857.861Z" fill="black"/>
<path d="M762.285 623.543C762.355 628.33 763.27 632.449 765.03 635.898C766.79 639.278 769.5 641.425 773.161 642.34V644.663H755.949C751.584 644.663 747.853 643.114 744.755 640.017C741.728 636.919 740.214 633.223 740.214 628.929C740.214 619.918 740.249 612.913 740.32 607.915C739.757 597.566 737.363 590.807 733.139 587.639C731.45 586.513 728.598 585.703 724.586 585.211C720.573 584.647 716.595 584.647 712.653 585.211C708.781 585.703 706.282 586.724 705.155 588.273C704.451 589.118 704.24 590.103 704.522 591.23C704.803 592.286 705.578 593.307 706.845 594.292C708.816 595.841 711.174 597.742 713.92 599.995C716.736 602.177 719.094 604.078 720.995 605.697C722.966 607.316 724.093 608.231 724.374 608.443C727.824 610.977 730.358 614.039 731.978 617.63C733.667 621.22 734.371 624.775 734.089 628.295C733.808 631.815 732.506 635.159 730.182 638.327C727.93 641.425 724.832 643.783 720.89 645.402C715.258 647.655 708.922 648.605 701.882 648.253C694.912 647.901 689.315 646.388 685.091 643.713C682.487 642.094 680.515 639.841 679.178 636.954C677.84 634.068 677.242 631.252 677.383 628.506C677.523 625.69 678.509 623.156 680.339 620.903C682.17 618.58 684.669 617.137 687.837 616.574C688.893 616.292 689.914 616.151 690.899 616.151C694.349 616.151 697.271 617.348 699.664 619.742C702.058 622.135 703.254 625.057 703.254 628.506C703.254 631.886 702.058 634.772 699.664 637.166C697.271 639.559 694.349 640.756 690.899 640.756C690.547 640.756 690.195 640.721 689.843 640.65C690.97 642.762 692.659 644.1 694.912 644.663C697.235 645.226 699.629 645.156 702.093 644.452C704.627 643.677 706.774 642.27 708.534 640.228C710.365 638.186 711.28 635.828 711.28 633.153C711.28 631.252 710.858 629.386 710.013 627.556C709.168 625.655 708.182 624.036 707.056 622.698C706 621.361 704.381 619.882 702.198 618.263C700.016 616.574 698.256 615.306 696.919 614.462C695.581 613.617 693.61 612.385 691.005 610.766C690.794 610.625 690.618 610.519 690.477 610.449C690.336 610.378 690.16 610.308 689.949 610.238C689.808 610.097 689.632 609.991 689.421 609.921C686.816 608.302 684.669 606.753 682.979 605.275C681.36 603.726 680.199 601.966 679.495 599.995C678.579 597.812 678.544 595.348 679.389 592.603C680.304 589.787 682.135 587.393 684.88 585.422C686.922 583.873 689.667 582.817 693.117 582.254C696.637 581.62 700.368 581.339 704.31 581.409C708.253 581.479 712.195 581.655 716.138 581.937C720.08 582.148 724.022 582.219 727.965 582.148C731.978 582.007 735.286 581.585 737.891 580.881C740.425 580.318 742.819 579.543 745.072 578.558C747.325 577.502 749.507 576.2 751.619 574.651C753.801 573.102 755.526 571.131 756.793 568.737C758.061 566.344 758.694 563.739 758.694 560.923C758.694 557.755 757.92 554.833 756.371 552.158C754.822 549.412 752.71 547.265 750.035 545.716C747.36 544.097 744.438 543.253 741.27 543.182C743.805 544.097 745.846 545.681 747.395 547.934C749.014 550.187 749.824 552.686 749.824 555.432C749.824 559.092 748.557 562.19 746.022 564.724C743.488 567.259 740.39 568.526 736.729 568.526C733.139 568.526 730.077 567.259 727.542 564.724C725.008 562.19 723.741 559.092 723.741 555.432C723.741 553.038 724.339 550.82 725.536 548.779C726.733 546.737 728.352 545.153 730.394 544.027C733.773 541.915 737.469 540.859 741.481 540.859C746.691 540.859 751.197 542.584 754.998 546.033C758.87 549.412 761.158 553.672 761.862 558.811C761.933 559.656 761.968 560.5 761.968 561.345V583.204H773.161V585.633H761.968C761.968 588.731 762.073 601.367 762.285 623.543ZM820.218 610.238V583.204C827.61 583.204 834.932 583.204 842.183 583.204V610.66C842.183 611.575 842.218 615.87 842.288 623.543C842.359 628.33 843.274 632.449 845.034 635.898C846.794 639.278 849.469 641.425 853.06 642.34V644.663H835.847C831.552 644.663 827.856 643.114 824.759 640.017C821.732 636.919 820.218 633.223 820.218 628.929V627.873C818.529 632.026 816.557 635.511 814.305 638.327C812.052 641.143 809.764 643.114 807.441 644.241C805.117 645.367 802.759 645.825 800.365 645.613C795.437 645.191 791.46 642.551 788.433 637.694C785.476 632.766 784.103 626.641 784.314 619.319C784.244 612.42 784.103 607.527 783.892 604.641C783.118 593.588 779.527 587.252 773.121 585.633V583.31C785.3 583.239 796.282 583.204 806.068 583.204V610.132C806.068 621.114 808.708 627.31 813.988 628.718C815.114 628.999 816.1 628.471 816.945 627.134C817.86 625.726 818.529 623.86 818.951 621.537C819.373 619.143 819.69 617.066 819.901 615.306C820.113 613.476 820.218 611.786 820.218 610.238ZM889.811 644.663H889.706C888.368 644.663 887.594 644.663 887.383 644.663C872.458 644.1 861.828 638.679 855.492 628.401C850.845 620.938 849.296 612.526 850.845 603.163C852.112 595.207 855.14 589.294 859.927 585.422C862.602 583.239 865.524 582.148 868.692 582.148C872.423 582.078 875.943 583.134 879.251 585.316C882.56 587.428 885.2 590.596 887.171 594.82C887.171 590.455 887.136 587.639 887.066 586.372V574.334C897.063 574.264 908.15 574.264 920.33 574.334V576.657C913.994 578.276 910.403 584.718 909.558 595.982C908.854 604.993 908.854 614.004 909.558 623.015C910.403 634.209 913.994 640.615 920.33 642.234V644.663C908.854 644.663 898.682 644.663 889.811 644.663ZM875.661 613.511C875.591 619.284 876.682 625.022 878.935 630.724C881.187 636.356 883.933 640.122 887.171 642.023C887.171 640.756 887.136 635.934 887.066 627.556C887.066 619.108 887.066 614.391 887.066 613.406C887.066 607.844 886.679 603.585 885.904 600.628C885.13 597.601 884.179 596.123 883.053 596.193C881.997 596.193 880.906 596.897 879.779 598.305C878.653 599.713 877.667 601.86 876.823 604.747C876.048 607.633 875.661 610.554 875.661 613.511ZM953.767 623.543C954.541 634.385 958.131 640.65 964.538 642.34V644.663C949.824 644.733 935.146 644.733 920.503 644.663V642.34C926.909 640.65 930.5 634.385 931.274 623.543C931.767 617.137 931.767 610.73 931.274 604.324C930.5 593.483 926.909 587.217 920.503 585.527V583.204C929.021 585.246 936.308 586.267 942.362 586.267C948.487 586.196 955.879 585.175 964.538 583.204V585.527C958.131 587.217 954.541 593.483 953.767 604.324C953.274 610.73 953.274 617.137 953.767 623.543ZM933.28 574.651C930.746 572.046 929.479 568.948 929.479 565.358C929.479 561.768 930.746 558.705 933.28 556.171C935.815 553.566 938.877 552.264 942.468 552.264C946.128 552.264 949.226 553.566 951.76 556.171C954.295 558.705 955.562 561.768 955.562 565.358C955.562 568.948 954.295 572.046 951.76 574.651C949.226 577.185 946.128 578.452 942.468 578.452C938.877 578.452 935.815 577.185 933.28 574.651ZM1024.6 614.99C1024.6 619.777 1023.72 624.142 1021.96 628.084C1020.2 632.026 1017.85 635.265 1014.89 637.799C1011.93 640.263 1008.62 642.164 1004.96 643.501C1001.3 644.839 997.5 645.543 993.558 645.613C990.46 645.613 987.398 645.226 984.371 644.452C981.414 643.607 978.598 642.305 975.923 640.545C973.318 638.785 971.03 636.673 969.059 634.209C967.088 631.745 965.504 628.718 964.307 625.127C963.18 621.466 962.617 617.524 962.617 613.3C962.617 608.443 963.497 604.043 965.257 600.1C967.017 596.087 969.34 592.849 972.227 590.385C975.184 587.851 978.457 585.879 982.047 584.471C985.708 583.063 989.51 582.359 993.452 582.359C997.465 582.289 1001.27 582.923 1004.86 584.26C1008.52 585.598 1011.83 587.569 1014.78 590.174C1017.74 592.779 1020.1 596.228 1021.86 600.523C1023.69 604.817 1024.6 609.639 1024.6 614.99ZM993.452 585.527C991.34 585.668 989.545 588.238 988.067 593.236C986.588 598.164 985.814 605.063 985.743 613.934C985.673 619.847 986.025 625.022 986.799 629.457C987.574 633.892 988.524 637.166 989.651 639.278C990.847 641.319 992.15 642.375 993.558 642.445C994.895 642.516 996.127 641.601 997.254 639.7C998.451 637.729 999.436 634.596 1000.21 630.302C1000.98 625.937 1001.41 620.762 1001.48 614.778C1001.48 610.062 1001.27 605.767 1000.84 601.895C1000.42 598.023 999.823 594.926 999.049 592.603C998.275 590.209 997.395 588.414 996.409 587.217C995.423 585.95 994.438 585.387 993.452 585.527Z" fill="white"/>
</svg>
